<?xml version="1.0"?>
<svg xmlns="http://www.w3.org/2000/svg" width="120" height="120" viewBox="0 0 236 236" fill="none">
<path d="M115.272 111.231L104.72 141.662H94.9805L84.4237 111.231H92.5443L99.8321 135.176L107.12 111.231H115.272Z" fill="white"/>
<path d="M38.1206 135.171H54.3567V141.662H30V111.231H38.1206V135.171Z" fill="white"/>
<path d="M154.246 135.171H170.482V141.662H146.125V111.231H154.246V135.171Z" fill="white"/>
<path d="M65.7308 135.171V129.263H78.7446V123.584H65.7308V117.722H81.1548V111.231H57.6154V141.662H81.9668V135.171H65.7308Z" fill="white"/>
<path d="M126.63 135.171V129.263H139.644V123.584H126.63V117.722H142.059V111.231H118.494V141.662H142.845V135.171H126.63Z" fill="white"/>
<path d="M199.7 103.109H186.686V127.055H193.183V119.371H199.7C201.633 119.371 203.487 118.604 204.853 117.237C206.22 115.87 206.988 114.017 206.988 112.084V110.418C206.991 109.459 206.804 108.509 206.439 107.623C206.074 106.736 205.538 105.93 204.861 105.251C204.184 104.572 203.379 104.034 202.494 103.666C201.608 103.299 200.659 103.109 199.7 103.109V103.109ZM200.491 111.563C200.491 112.301 200.199 113.008 199.678 113.531C199.156 114.053 198.449 114.347 197.712 114.348H193.188V107.836H197.712C198.449 107.837 199.156 108.131 199.678 108.654C200.199 109.176 200.491 109.883 200.491 110.621V111.563Z" fill="#EA5B0C"/>
<path d="M176.978 103.121V118.139C176.975 118.999 176.632 119.824 176.024 120.432C175.415 121.041 174.59 121.384 173.73 121.387H172.111C171.25 121.384 170.426 121.041 169.817 120.432C169.208 119.824 168.865 118.999 168.863 118.139V95H146.125L162.366 106.593V118.139C162.365 119.311 162.596 120.473 163.044 121.557C163.493 122.64 164.15 123.625 164.979 124.455C165.808 125.284 166.793 125.942 167.876 126.391C168.959 126.84 170.121 127.071 171.294 127.071H174.339C176.76 127.067 179.081 126.103 180.792 124.391C182.504 122.678 183.467 120.357 183.469 117.936V103.121H176.978Z" fill="#EA5B0C"/>
</svg>
