<?xml version="1.0"?>
<svg xmlns="http://www.w3.org/2000/svg" width="120" height="120" viewBox="0 0 101 37" fill="none">
<path d="M21.8836 24.2667C20.7336 21.9167 20.0836 19.65 20.0836 16.85C20.0836 10.5333 23.4003 5.38335 28.3836 2.26668L27.4003 0.43335C24.8836 1.85002 21.9836 2.65001 18.9003 2.65001C15.8336 2.65001 12.9336 1.85001 10.4336 0.46668L9.45029 2.30001C14.417 5.41668 17.717 10.5667 17.717 16.8667C17.717 19.45 17.1503 21.5333 16.1503 23.75C12.217 30.9833 2.80029 34.3167 2.80029 34.3167L4.30029 36.9667C8.11696 33.3833 13.2503 31.1833 18.9003 31.1833C24.5503 31.1833 29.6836 33.3833 33.5003 36.9667L35.0503 34.3333C35.0336 34.3333 26.4836 31.15 21.8836 24.2667Z" fill="#FF00FF"/>
<path d="M54.8497 21.4666C53.4331 21.4666 52.0831 21.1832 50.7997 20.6166C49.5331 20.0499 48.4164 19.2999 47.4497 18.3332C46.4831 17.3666 45.7331 16.2499 45.1664 14.9832C44.5997 13.7166 44.3164 12.3666 44.3164 10.9332C44.3164 9.51657 44.5997 8.16657 45.1664 6.88324C45.7331 5.5999 46.4831 4.49991 47.4497 3.53324C48.4164 2.56657 49.5331 1.81657 50.7997 1.24991C52.0664 0.683236 53.4164 0.399902 54.8497 0.399902C56.0831 0.399902 57.2164 0.583238 58.2331 0.949905C59.2497 1.31657 60.1497 1.7999 60.9164 2.3999C61.6831 2.9999 62.3164 3.6999 62.8331 4.48324C63.3497 5.26657 63.7331 6.08324 63.9664 6.89991L59.6831 7.44991C59.4831 7.04991 59.2331 6.64991 58.9164 6.26657C58.6164 5.88324 58.2497 5.53324 57.8497 5.24991C57.4497 4.94991 56.9831 4.71657 56.4664 4.5499C55.9497 4.36657 55.3664 4.28324 54.6997 4.28324C53.8997 4.28324 53.1331 4.4499 52.3997 4.7999C51.6664 5.1499 51.0164 5.61657 50.4497 6.21657C49.8831 6.81657 49.4331 7.51657 49.0997 8.31657C48.7664 9.11657 48.5997 9.98324 48.5997 10.9332C48.5997 11.8666 48.7664 12.7499 49.0997 13.5499C49.4331 14.3499 49.8831 15.0499 50.4497 15.6499C51.0164 16.2499 51.6664 16.7166 52.3997 17.0666C53.1331 17.4166 53.8997 17.5832 54.6997 17.5832C55.4164 17.5832 56.0664 17.4832 56.6497 17.2999C57.2331 17.0999 57.7497 16.8499 58.1997 16.5166C58.6497 16.1832 59.0497 15.7999 59.3831 15.3666C59.7164 14.9332 59.9997 14.4832 60.2331 13.9999L64.5164 14.5499C64.2831 15.4166 63.8831 16.2666 63.3331 17.0999C62.7831 17.9332 62.0997 18.6666 61.2831 19.3166C60.4664 19.9666 59.4997 20.4832 58.4164 20.8832C57.3497 21.2666 56.1497 21.4666 54.8497 21.4666Z" fill="white"/>
<path d="M70.2167 1.2666H80.05L84.75 20.6499H80.3167L79.35 16.6332H70.9L69.9333 20.6499H65.5L70.2167 1.2666ZM71.8667 12.7499H78.3667L76.5667 5.13327H73.6667L71.8667 12.7499Z" fill="white"/>
<path d="M84.0498 5.13334V1.25H100.516V5.13334H94.4331V20.6333H90.1498V5.13334H84.0498Z" fill="white"/>
<path d="M49.6165 36.9668C48.8999 36.9668 48.2165 36.8167 47.5665 36.5333C46.9165 36.25 46.3499 35.8668 45.8665 35.3834C45.3832 34.9001 44.9999 34.3333 44.7165 33.6833C44.4332 33.0333 44.2832 32.3501 44.2832 31.6334C44.2832 30.9168 44.4332 30.2333 44.7165 29.5833C44.9999 28.9333 45.3832 28.3668 45.8665 27.8834C46.3499 27.4001 46.9165 27.0167 47.5665 26.7333C48.2165 26.45 48.8999 26.3 49.6165 26.3C50.2499 26.3 50.8165 26.4 51.3332 26.5833C51.8499 26.7667 52.2999 27.0167 52.6999 27.3167C53.0832 27.6167 53.4165 27.9667 53.6832 28.3667C53.9499 28.7667 54.1332 29.1667 54.2665 29.6L52.0832 29.8834C51.9832 29.6834 51.8499 29.4834 51.6999 29.2833C51.5499 29.0833 51.3665 28.9168 51.1665 28.7668C50.9665 28.6168 50.7332 28.5001 50.4665 28.4167C50.1999 28.3333 49.8999 28.2833 49.5665 28.2833C49.1665 28.2833 48.7832 28.3667 48.3999 28.55C48.0332 28.7167 47.6999 28.9668 47.4165 29.2668C47.1332 29.5668 46.8999 29.9333 46.7332 30.3333C46.5665 30.7333 46.4832 31.1834 46.4832 31.6667C46.4832 32.1501 46.5665 32.5833 46.7332 33C46.8999 33.4 47.1332 33.7667 47.4165 34.0667C47.6999 34.3667 48.0332 34.6167 48.3999 34.7833C48.7665 34.95 49.1665 35.05 49.5665 35.05C49.9332 35.05 50.2665 35.0001 50.5499 34.9001C50.8499 34.8001 51.0999 34.6667 51.3332 34.5C51.5665 34.3333 51.7665 34.1333 51.9332 33.9167C52.0999 33.7 52.2499 33.4668 52.3665 33.2168L54.5499 33.5C54.4332 33.9333 54.2332 34.3667 53.9499 34.7833C53.6665 35.2 53.3332 35.5834 52.9165 35.9001C52.4999 36.2334 52.0165 36.5001 51.4665 36.7001C50.8832 36.8668 50.2832 36.9668 49.6165 36.9668Z" fill="white"/>
<path d="M57.3999 26.7334H62.3833L64.7666 36.5501H62.5166L62.0333 34.5168H57.7499L57.2666 36.5501H55.0166L57.3999 26.7334ZM58.2499 32.5501H61.5499L60.6333 28.6834H59.1666L58.2499 32.5501Z" fill="white"/>
<path d="M71.6499 33.75C71.6499 33.45 71.5166 33.2166 71.2332 33.0332C70.9499 32.8499 70.5999 32.6999 70.1832 32.5499C69.7666 32.4166 69.2999 32.2667 68.8166 32.1333C68.3332 32 67.8666 31.8 67.4499 31.5667C67.0332 31.3333 66.6832 31.0333 66.3999 30.6833C66.1166 30.3167 65.9832 29.85 65.9832 29.2667C65.9832 28.9 66.0666 28.55 66.2499 28.1833C66.4332 27.8333 66.6832 27.5166 66.9999 27.2332C67.3332 26.9499 67.7166 26.7333 68.1999 26.5667C68.6666 26.4 69.1999 26.3167 69.7666 26.3167C70.3332 26.3167 70.8666 26.3999 71.3166 26.5499C71.7666 26.6999 72.1666 26.9167 72.5166 27.2C72.8499 27.4833 73.1332 27.8 73.3499 28.1667C73.5666 28.5333 73.7332 28.9167 73.8332 29.35L71.6499 29.6333C71.5166 29.25 71.2832 28.9333 70.9832 28.6833C70.6832 28.4333 70.2666 28.2999 69.7499 28.2999C69.2499 28.2999 68.8666 28.4167 68.5999 28.65C68.3332 28.8832 68.1999 29.1333 68.1999 29.4167C68.1999 29.7 68.3332 29.9167 68.6166 30.0833C68.8999 30.2499 69.2499 30.4 69.6666 30.5167C70.0832 30.65 70.5499 30.7833 71.0332 30.9167C71.5166 31.0667 71.9832 31.25 72.3999 31.5C72.8166 31.75 73.1666 32.05 73.4499 32.4333C73.7332 32.8167 73.8666 33.2999 73.8666 33.9166C73.8666 34.2999 73.7666 34.6832 73.5832 35.0499C73.3999 35.4166 73.1332 35.7499 72.7832 36.0332C72.4332 36.3166 71.9999 36.5499 71.4999 36.7332C70.9999 36.9166 70.4332 37 69.7999 37C69.1666 37 68.5999 36.9167 68.1166 36.75C67.6332 36.5833 67.1999 36.35 66.8332 36.0667C66.4666 35.7833 66.1666 35.4167 65.9332 35.0167C65.6999 34.6167 65.5166 34.1667 65.3999 33.7L67.5832 33.4166C67.7166 33.8832 67.9666 34.2667 68.3332 34.5667C68.6999 34.8667 69.1832 35.0332 69.8332 35.0332C70.4832 35.0332 70.9332 34.9166 71.2166 34.6666C71.4999 34.3999 71.6499 34.1 71.6499 33.75Z" fill="white"/>
<path d="M77.5334 36.5501H75.3501V26.7334H77.5334V36.5501Z" fill="white"/>
<path d="M85.7497 32.9001H85.883V26.7334H88.0663V36.5501H85.683L81.8997 30.3834H81.7663V36.5501H79.583V26.7334H81.9663L85.7497 32.9001Z" fill="white"/>
<path d="M100.483 31.6334C100.483 32.3668 100.35 33.0668 100.066 33.7168C99.7831 34.3668 99.3998 34.9334 98.9164 35.4001C98.4331 35.8834 97.8664 36.2667 97.1998 36.55C96.5498 36.8333 95.8331 36.9668 95.0831 36.9668C94.3331 36.9668 93.6164 36.8333 92.9664 36.55C92.3164 36.2667 91.7331 35.8834 91.2498 35.4001C90.7664 34.9168 90.3831 34.3501 90.0998 33.7168C89.8164 33.0668 89.6831 32.3834 89.6831 31.6334C89.6831 30.9001 89.8164 30.2 90.0998 29.55C90.3831 28.9 90.7664 28.3333 91.2498 27.8667C91.7331 27.3833 92.2998 27 92.9664 26.7167C93.6164 26.4333 94.3331 26.3 95.0831 26.3C95.8331 26.3 96.5498 26.4333 97.1998 26.7167C97.8498 27 98.4331 27.3833 98.9164 27.8667C99.3998 28.35 99.7831 28.9167 100.066 29.55C100.35 30.1833 100.483 30.9001 100.483 31.6334ZM91.8498 31.6334C91.8498 32.1168 91.9331 32.5501 92.1164 32.9668C92.2831 33.3668 92.5164 33.7333 92.8164 34.0333C93.1164 34.3333 93.4498 34.5833 93.8331 34.75C94.2164 34.9167 94.6331 35.0168 95.0831 35.0168C95.5164 35.0168 95.9331 34.9333 96.3331 34.75C96.7164 34.5833 97.0664 34.3333 97.3498 34.0333C97.6498 33.7333 97.8831 33.3668 98.0498 32.9668C98.2164 32.5668 98.3164 32.1168 98.3164 31.6334C98.3164 31.1501 98.2331 30.7167 98.0498 30.3C97.8664 29.8833 97.6498 29.5333 97.3498 29.2333C97.0498 28.9333 96.7164 28.6834 96.3331 28.5168C95.9498 28.3501 95.5331 28.25 95.0831 28.25C94.6498 28.25 94.2331 28.3334 93.8331 28.5168C93.4498 28.6834 93.0998 28.9333 92.8164 29.2333C92.5164 29.5333 92.2831 29.9 92.1164 30.3C91.9498 30.7 91.8498 31.1668 91.8498 31.6334Z" fill="white"/>
<path d="M9.14578 20.9666L1.20459 25.0219L1.69729 25.9867L9.63847 21.9314L9.14578 20.9666Z" fill="white"/>
<path d="M8.56677 16.5667H0.600098V17.65H8.56677V16.5667Z" fill="white"/>
<path d="M1.91924 8.64502L1.45947 9.62597L9.15622 13.2334L9.61599 12.2524L1.91924 8.64502Z" fill="white"/>
<path d="M34.8037 8.64795L27.3296 12.2577L27.8007 13.2332L35.2749 9.62349L34.8037 8.64795Z" fill="white"/>
<path d="M36.0833 16.5332H28.3833V17.6166H36.0833V16.5332Z" fill="white"/>
<path d="M27.7923 21.4072L27.3325 22.3881L35.0293 25.9955L35.489 25.0146L27.7923 21.4072Z" fill="white"/>
</svg>
