<?xml version="1.0"?>
<svg xmlns="http://www.w3.org/2000/svg" viewBox="0 0 764.98 114" width="100" height="100"><defs><style>.cls-1{fill:#9f7f48;}.cls-2{fill:#888;}.cls-3{fill:#8d8c8c;}.cls-4{fill:#888887;}.cls-5{fill:#939393;}.cls-6{fill:#898989;}.cls-7{fill:#767676;}.cls-8{fill:#717171;}.cls-9{fill:#ddc380;}.cls-10{fill:#dcc27f;}.cls-11{fill:#ddc381;}.cls-12{fill:#785427;}.cls-13{fill:#272425;}.cls-14{fill:#ba9e62;}.cls-15{fill:#846233;}.cls-16{fill:#282425;}.cls-17{fill:#c8ac6d;}.cls-18{fill:#b2945a;}.cls-19{fill:#b99c61;}.cls-20{fill:#896736;}.cls-21{fill:#c7c7c6;}.cls-22{fill:#caaf70;}.cls-23{fill:#cfb373;}.cls-24{fill:#ceb373;}.cls-25{fill:#c4a769;}.cls-26{fill:#ddc37f;}.cls-27{fill:#c3a668;}.cls-28{fill:#825f31;}.cls-29{fill:#856334;}.cls-30{fill:#d7bd7b;}.cls-31{fill:#b99b5f;}.cls-32{fill:#92713e;}.cls-33{fill:#caae6e;}.cls-34{fill:#bea264;}.cls-35{fill:#d6bc7a;}.cls-36{fill:#b3955a;}.cls-37{fill:#b09258;}.cls-38{fill:#656565;}.cls-39{fill:#d5bb78;}.cls-40{fill:#a3834c;}.cls-41{fill:#b09157;}.cls-42{fill:#c9ae6f;}.cls-43{fill:#8f6e3c;}.cls-44{fill:#977642;}.cls-45{fill:#a98b53;}.cls-46{fill:#8d6b39;}.cls-47{fill:#dcc380;}.cls-48{fill:#8b6837;}.cls-49{fill:#c0a466;}.cls-50{fill:#8c6a38;}.cls-51{fill:#7d5a2c;}.cls-52{fill:#b6985d;}.cls-53{fill:#8f6e3d;}.cls-54{fill:#825f2f;}.cls-55{fill:#b4965b;}.cls-56{fill:#815d2e;}.cls-57{fill:#aa8c54;}.cls-58{fill:#d7bd7a;}.cls-59{fill:#d1b675;}.cls-60{fill:#d1b574;}.cls-61{fill:#b89c61;}.cls-62{fill:#7f5c2e;}.cls-63{fill:#ba9d61;}.cls-64{fill:#c7ab6c;}.cls-65{fill:#a5854e;}.cls-66{fill:#997843;}.cls-67{fill:#b89b5f;}.cls-68{fill:#8e6c3b;}.cls-69{fill:#c5a869;}.cls-70{fill:#c5a86a;}.cls-71{fill:#bc9f62;}.cls-72{fill:#d8bf7d;}.cls-73{fill:#ababab;}.cls-74{fill:#967643;}.cls-75{fill:#93723f;}.cls-76{fill:#bfa265;}.cls-77{fill:#876434;}.cls-78{fill:#d0b575;}.cls-79{fill:#828282;}.cls-80{fill:#876534;}.cls-81{fill:#d6bc7b;}.cls-82{fill:#d0b576;}.cls-83{fill:#a68750;}.cls-84{fill:#836130;}.cls-85{fill:#cbaf70;}.cls-86{fill:#d5bb79;}.cls-87{fill:#826032;}.cls-88{fill:#b99b60;}.cls-89{fill:#bb9e61;}.cls-90{fill:#a78850;}.cls-91{fill:#b0925b;}.cls-92{fill:#b79a5e;}.cls-93{fill:#af9158;}.cls-94{fill:#a78851;}.cls-95{fill:#866434;}.cls-96{fill:#997844;}.cls-97{fill:#c2a567;}.cls-98{fill:#d1b575;}.cls-99{fill:#a4854d;}.cls-100{fill:#7b582b;}.cls-101{fill:#d6bd7b;}.cls-102{fill:#d0b677;}.cls-103{fill:#c2a66b;}.cls-104{fill:#987843;}.cls-105{fill:#ad8f55;}.cls-106{fill:#7f5c2f;}.cls-107{fill:#9e7e48;}.cls-108{fill:#d6bd7c;}.cls-109{fill:#d8be7b;}.cls-110{fill:#9b7b47;}.cls-111{fill:#a0804a;}.cls-112{fill:#ab8d57;}.cls-113{fill:#b09259;}.cls-114{fill:#a1814c;}.cls-115{fill:#c9ae70;}.cls-116{fill:#d6bc79;}.cls-117{fill:#cdb171;}.cls-118{fill:#9f7f4b;}.cls-119{fill:#c0a56a;}.cls-120{fill:#9c7c46;}.cls-121{fill:#a1814b;}.cls-122{fill:#9b7b45;}.cls-123{fill:#7b7b7b;}.cls-124{fill:#bb9f65;}.cls-125{fill:#af9056;}.cls-126{fill:#c3a669;}.cls-127{fill:#cbb073;}.cls-128{fill:#866333;}.cls-129{fill:#7d5a2d;}.cls-130{fill:#866433;}.cls-131{fill:#797878;}.cls-132{fill:#846131;}.cls-133{fill:#d2b878;}.cls-134{fill:#b2945e;}.cls-135{fill:#b5b4b4;}.cls-136{fill:#a98a52;}.cls-137{fill:#d2b879;}.cls-138{fill:#987743;}.cls-139{fill:#856231;}.cls-140{fill:#dec685;}.cls-141{fill:#ceb478;}.cls-142{fill:#bea266;}.cls-143{fill:#c6aa6c;}.cls-144{fill:#d2b778;}.cls-145{fill:#9d7e4a;}.cls-146{fill:#ab8d56;}.cls-147{fill:#ba9d62;}.cls-148{fill:#b09460;}.cls-149{fill:#c4a76a;}.cls-150{fill:#bda164;}.cls-151{fill:#92703d;}.cls-152{fill:#9f7f49;}.cls-153{fill:#825e2f;}.cls-154{fill:#836031;}.cls-155{fill:#dcc484;}.cls-156{fill:#c1a66b;}.cls-157{fill:#a08049;}.cls-158{fill:#977644;}.cls-159{fill:#92713f;}.cls-160{fill:#b5975c;}.cls-161{fill:#cbb071;}.cls-162{fill:#977641;}.cls-163{fill:#aa8b52;}.cls-164{fill:#a6874f;}.cls-165{fill:#ccb172;}.cls-166{fill:#b4975d;}.cls-167{fill:#b5975d;}.cls-168{fill:#9e7e49;}.cls-169{fill:#af9057;}.cls-170{fill:#876635;}.cls-171{fill:#cdb274;}.cls-172{fill:#bda063;}.cls-173{fill:#ad8f58;}.cls-174{fill:#836030;}.cls-175{fill:#91703d;}.cls-176{fill:#8b6937;}.cls-177{fill:#937650;}.cls-178{fill:#b1935c;}.cls-179{fill:#7a5729;}.cls-180{fill:#bfa469;}.cls-181{fill:#d6bd7d;}.cls-182{fill:#a8a8a8;}.cls-183{fill:#bfa366;}.cls-184{fill:#ba9e63;}.cls-185{fill:#d1b676;}.cls-186{fill:#785528;}.cls-187{fill:#a3844e;}.cls-188{fill:#b4b4b3;}.cls-189{fill:#8e6d3c;}.cls-190{fill:#a2824b;}.cls-191{fill:#b3965e;}.cls-192{fill:#c9ae72;}.cls-193{fill:#9f9f9e;}.cls-194{fill:#ba9d60;}.cls-195{fill:#7c7b7b;}.cls-196{fill:#9e9e9e;}.cls-197{fill:#d1b980;}.cls-198{fill:#ccb274;}.cls-199{fill:#d1b678;}.cls-200{fill:#d6be84;}.cls-201{fill:#a2a1a1;}.cls-202{fill:#b99d65;}.cls-203{fill:#989897;}.cls-204{fill:#cdb479;}.cls-205{fill:#886941;}.cls-206{fill:#a4885c;}.cls-207{fill:#c0a469;}.cls-208{fill:#858484;}.cls-209{fill:#9a7a45;}.cls-210{fill:#b4b4b4;}.cls-211{fill:#a38551;}.cls-212{fill:#8d6c39;}.cls-213{fill:#8a6b41;}.cls-214{fill:#9c7e4f;}.cls-215{fill:#838282;}.cls-216{fill:#8a8989;}.cls-217{fill:#d0b985;}.cls-218{fill:#b5b5b5;}.cls-219{fill:#bea36b;}.cls-220{fill:#b49760;}.cls-221{fill:#91703e;}.cls-222{fill:#a58756;}.cls-223{fill:#b89c63;}.cls-224{fill:#969696;}.cls-225{fill:#ac905e;}.cls-226{fill:#b69a63;}.cls-227{fill:#292526;}.cls-228{fill:#262223;}.cls-229{fill:#2d292a;}.cls-230{fill:#c1a468;}.cls-231{fill:#815e2e;}.cls-232{fill:#8e8e8e;}.cls-233{fill:#b4965d;}.cls-234{fill:#717070;}.cls-235{fill:#d4ba79;}.cls-236{fill:#ceb272;}.cls-237{fill:#777;}.cls-238{fill:#221f1d;}.cls-239{fill:#cfb374;}.cls-240{fill:#93733f;}.cls-241{fill:#807f7f;}.cls-242{fill:#ad8e55;}.cls-243{fill:#c5a96d;}.cls-244{fill:#bb9e64;}.cls-245{fill:#d9bf7c;}.cls-246{fill:#7e7e7e;}.cls-247{fill:#787878;}.cls-248{fill:#626161;}.cls-249{fill:#d2b675;}.cls-250{fill:#846237;}.cls-251{fill:#b89c64;}.cls-252{fill:#6c6c6c;}.cls-253{fill:#6d6d6d;}.cls-254{fill:#5c5b5b;}.cls-255{fill:#c2c2c2;}.cls-256{fill:#f2f2f2;}.cls-257{fill:#797979;}.cls-258{fill:#727272;}.cls-259{fill:#d9c07c;}.cls-260{fill:#d0b474;}.cls-261{fill:#c5a96a;}.cls-262{fill:#c9ae6e;}.cls-263{fill:#bea164;}.cls-264{fill:#d2b97d;}.cls-265{fill:#957441;}.cls-266{fill:#bda064;}.cls-267{fill:#7c592b;}.cls-268{fill:#d5bb7a;}.cls-269{fill:#c6aa6b;}.cls-270{fill:#c8ad6e;}.cls-271{fill:#8e6c3a;}.cls-272{fill:#dabf7c;}.cls-273{fill:#9e7f4c;}.cls-274{fill:#b3965f;}.cls-275{fill:#c6ab71;}.cls-276{fill:#714e23;}.cls-277{fill:#e0e0e0;}.cls-278{fill:#d9d9d9;}.cls-279{fill:#c8c3b9;}.cls-280{fill:#a88951;}.cls-281{fill:#9f7e48;}.cls-282{fill:#8e6c39;}.cls-283{fill:#906f3c;}.cls-284{fill:#836132;}.cls-285{fill:#aba9a7;}.cls-286{fill:#adadac;}.cls-287{fill:#959595;}.cls-288{fill:#9b9996;}.cls-289{fill:#a88850;}.cls-290{fill:#a3a19d;}.cls-291{fill:#a3a3a3;}.cls-292{fill:silver;}.cls-293{fill:#d0bd8b;}.cls-294{fill:#b19359;}.cls-295{fill:#ae8f55;}.cls-296{fill:#ceb372;}.cls-297{fill:#a0814a;}.cls-298{fill:#767575;}.cls-299{fill:#5d5c5c;}.cls-300{fill:#947340;}.cls-301{fill:#c3a768;}.cls-302{fill:#d5ba78;}.cls-303{fill:#282526;}.cls-304{fill:#909090;}.cls-305{fill:#886637;}.cls-306{fill:#987848;}.cls-307{fill:#ccb070;}.cls-308{fill:#272324;}.cls-309{fill:#b89a5f;}.cls-310{fill:#a78750;}.cls-311{fill:#acacac;}.cls-312{fill:#979796;}.cls-313{fill:#9a948a;}.cls-314{fill:#a3a3a2;}.cls-315{fill:#f5f5f5;}.cls-316{fill:#eee;}.cls-317{fill:#ebebeb;}.cls-318{fill:#d9d5cd;}.cls-319{fill:#dcdcdc;}.cls-320{fill:#c5c5c5;}.cls-321{fill:#d3d3d3;}.cls-322{fill:#b7b6b3;}.cls-323{fill:#c9ad6f;}.cls-324{fill:#b6995d;}.cls-325{fill:#a5864e;}.cls-326{fill:#8c8a8a;}.cls-327{fill:#242021;}.cls-328{fill:#e9e9e9;}.cls-329{fill:#cecece;}.cls-330{fill:#b6b6b6;}.cls-331{fill:#dadada;}.cls-332{fill:#d8d8d8;}.cls-333{fill:#9c9c9b;}.cls-334{fill:#a7a7a7;}.cls-335{fill:#a2a2a2;}.cls-336{fill:#e1e0df;}.cls-337{fill:#c1c1c1;}.cls-338{fill:#e4e4e4;}.cls-339{fill:#9d9b95;}.cls-340{fill:#b9a26f;}.cls-341{fill:#c9b483;}.cls-342{fill:#7e7d7d;}.cls-343{fill:#aaa7a0;}.cls-344{fill:#a6a49e;}.cls-345{fill:#b3b2b1;}.cls-346{fill:#c5b386;}.cls-347{fill:#c8b687;}.cls-348{fill:#cdba8b;}.cls-349{fill:#beab7f;}.cls-350{fill:#d3b876;}.cls-351{fill:#d0bb85;}.cls-352{fill:#838281;}.cls-353{fill:#a2a09b;}.cls-354{fill:#c0ae81;}.cls-355{fill:#9d9d9c;}.cls-356{fill:#a29f98;}.cls-357{fill:#bcbcbb;}.cls-358{fill:#747474;}.cls-359{fill:#8d8c8b;}.cls-360{fill:gray;}.cls-361{fill:#848382;}.cls-362{fill:#b1b0b0;}.cls-363{fill:#baa36c;}.cls-364{fill:#d4d4d4;}.cls-365{fill:#cececd;}.cls-366{fill:#938e88;}.cls-367{fill:#94918a;}.cls-368{fill:#d6d6d6;}.cls-369{fill:#9a9791;}.cls-370{fill:#bfbebe;}.cls-371{fill:#898886;}.cls-372{fill:#c2c2c1;}.cls-373{fill:#887762;}.cls-374{fill:#928f88;}.cls-375{fill:#b59d66;}.cls-376{fill:#cfb677;}.cls-377{fill:#937542;}.cls-378{fill:#cfb576;}.cls-379{fill:#a98c55;}.cls-380{fill:#a28550;}.cls-381{fill:#d2b979;}.cls-382{fill:#9f9a93;}.cls-383{fill:#b3985f;}.cls-384{fill:#79592d;}.cls-385{fill:#957744;}.cls-386{fill:#806133;}.cls-387{fill:#a28551;}.cls-388{fill:#261f13;}.cls-389{fill:#77562a;}.cls-390{fill:#c2a76a;}.cls-391{fill:#8d8b87;}.cls-392{fill:#b89c62;}.cls-393{fill:#959088;}.cls-394{fill:#ad9058;}.cls-395{fill:#846435;}.cls-396{fill:#886838;}.cls-397{fill:#856737;}.cls-398{fill:#92713d;}.cls-399{fill:#bfa468;}.cls-400{fill:#876433;}.cls-401{fill:#957e50;}.cls-402{fill:#cbba8d;}.cls-403{fill:#010101;}.cls-404{fill:#cdb272;}.cls-405{fill:#0a0805;}.cls-406{fill:#4d422a;}.cls-407{fill:#0e0c07;}.cls-408{fill:#3d3421;}.cls-409{fill:#080604;}.cls-410{fill:#b0935b;}.cls-411{fill:#b79a5f;}</style></defs><title>Tortuga casino</title><g id="&#x421;&#x43B;&#x43E;&#x439;_2" data-name="&#x421;&#x43B;&#x43E;&#x439; 2"><g id="&#x421;&#x43B;&#x43E;&#x439;_1-2" data-name="&#x421;&#x43B;&#x43E;&#x439; 1"><path class="cls-1" d="M0,33c1.73-.94.63-2.72,1.18-4,1-1.6-.68-3.85,1.25-5.23,1.94.94,1.81,2.71,1.8,4.44C3.85,30.47,3.83,32.81,3,35c.12,2.34-1.83,1.58-3,2Z"/><path class="cls-2" d="M142.88,2.18C144.79-.07,148,2.05,150,0h2c.78.59,1.68,1.12,1,2.33a6.47,6.47,0,0,1-3.87,1.77c-2.25-.22-3.73,1.73-5.79,2.08C141.78,5,141.87,3.65,142.88,2.18Z"/><path class="cls-3" d="M153,2l-1-2h2a7.64,7.64,0,0,0,6,0h3c1.09,1.16,2.6.81,3.93,1.1-1.38,3.63-4.65,1.63-7,2.37C157.54,3.36,155,3.89,153,2Z"/><path class="cls-4" d="M150,114c-.34-.92-1.26-.83-2-1.13,0-2.07,1.81-2,3-2.62,1.43-.31,2.84-.45,4,.78.46,1.12-.31,1.62-1.08,2.11a7.3,7.3,0,0,0-1,.85Z"/><path class="cls-5" d="M153,113a2.17,2.17,0,0,1,2-1c1.33-1.35,3-1.27,4.7-1.13,1.54.59,3.71.94,1.29,3.15h-2C157.17,112.68,154.83,114.29,153,113Z"/><path class="cls-6" d="M161,114c.52-1.11.72-2.06-1-2a.94.94,0,0,1,.13-1.33c1.75-1,3.41-.62,5,.28a2.74,2.74,0,0,1,1,1.13c-.52,1.49-2.4.79-3.13,1.93Z"/><path class="cls-7" d="M160,0a4.54,4.54,0,0,1-6,0Z"/><path class="cls-8" d="M153,113c2,.35,4.25-.77,6,1h-6Z"/><path class="cls-9" d="M571.84,38c-3.54,16.1-3.51,31.92,4.18,47s21.81,21.58,38.66,18.47c5.46-1,10.63-2.4,15.41-5.19,1.76.17,3.28.6,3.18,2.85a6.69,6.69,0,0,1-3.28,2.68c-.47.15-.93.31-1.39.5-4.4,2-9.13,2.76-13.82,3.65a13.77,13.77,0,0,1-3.14.41c-4,.12-8.06-.19-12.07.27-2.57-.19-5-1.07-7.52-1.57-11.53-2.44-19.07-10-25-19.56-.51-2.41-2.61-4-3.25-6.36-.61-3.16-2.41-5.95-3-9.13a35.42,35.42,0,0,0-1-5.36,24,24,0,0,1-.26-4.15c.16-5.17-.26-10.34.25-15.49.49-1.8.85-3.63,1.2-5.47.35-1.21.76-2.41,1.11-3.63.66-1.57.65-3.52,2.48-4.45C568.31,32.95,569.95,35.68,571.84,38Z"/><path class="cls-9" d="M364.17,42.05c0-9-.23-18-.07-26.93.06-3.29-1-4.26-4.25-4.22-6.56.09-12.88.85-18.67,4.17-2.26.56-3-.94-3.52-2.64a2.6,2.6,0,0,1,.6-1.34c1.82-1.54,4-2,6.29-2.33,2.81,0,5.57-.74,8.38-.76h3.71c1.35-.11,2.73.22,4.06-.18-1.39.38-2.81.07-4.22.17h-4c-2.55-.19-5.34,1.32-7.57-1.07,1.17-1.39,2.77-.86,4.21-.86C368.93,6,388.76,6,408.59,5.85c3,0,4.43.5,4.57,4,.3,7.63,1.18,15.24,1.69,22.87.09,1.32.94,3.46-1.1,3.81-1.64.28-1.53-1.81-2-3q-2.4-5.75-4.81-11.5c.35-3.11,1.92-6.42-1.55-8.86a8.57,8.57,0,0,0-3.08-1.1,21,21,0,0,0-5.5-.85,22.32,22.32,0,0,0-2.92-.31c-1.91-.51-3.79-1.19-5.82-.93h-3.59a31.56,31.56,0,0,0-5.42.21A4.23,4.23,0,0,0,378,11l-.19,47c-3.08-1.09-1.8-3.81-2.24-5.9.12-1.71-.07-3.42,0-5.13.06-2-.08-4,0-6s-.11-4,0-6c.1-3.07-.1-6.14,0-9.19-.1-2.73.69-7.06-2.63-7-3.11.06-1.36,4.35-1.55,6.73-.29,3.63-.08,7.29,0,10.95-.18,3.21.41,6.46-.51,9.64C366.31,48.62,365.9,44.22,364.17,42.05Z"/><path class="cls-9" d="M235,6.15c13.13.51,26.18-1.94,39.3-1.16,10.12.6,18.92,4.14,26.13,11.67C311.73,28.42,310.27,53.15,289,59a6,6,0,0,1-.61-4.24c.5-1.31,1.83-1.65,2.81-2.4A18.74,18.74,0,0,0,292.54,51a14.21,14.21,0,0,0,4.58-7c1.24-4.4,2.26-8.81,1-13.39-.8-2-1.17-4-2-6a18.92,18.92,0,0,0-10.55-10.77,16.89,16.89,0,0,0-10.23-2.41c-4.11-.05-8.21-.24-12.32,0-6.1.34-6.44.74-6.66,7.06-.11,3.19,1,6.61-1.4,9.48-2,.13-2-1.49-2.09-2.65-.2-2.91-1.94-4.75-4-6.45a19,19,0,0,1-1.64-2.3c-1.27-2.8-4.13-4-6.19-5.94C240.05,7.75,235.84,9.26,235,6.15Z"/><path class="cls-9" d="M697.16,38c2.47-6.48,5-12.95,7.4-19.44.75-2,2.27-4.13,1.44-6.15-1.91-4.65,1.36-5.08,4.17-5.16S714.79,3.7,717.93,5c-.7,2-.66,4.3-2,6.14-.79,1.32-.32,2.6.12,3.88.54,1.68,1.1,3.36,1.72,5,.67,2.17,1.45,4.3,2.13,6.45.29.87.57,1.73.88,2.59.69,2.19,1.46,4.36,2.18,6.55.35,1.12.75,2.22,1.14,3.33.94,3,2,5.93,3,8.89,1.44,5.22,3.91,10.14,4.49,15.61-.68,2.94-2.38,2.16-4,1-1.51-1-2.63-2.51-4.18-3.5a6.52,6.52,0,0,1-1-1,17.16,17.16,0,0,1-1.5-2.5c-4.56-12-8.37-24.19-12.91-36.13-.14-.27-.48-.73-.57-.68-.42.29-.37.84-.49,1.31a5.68,5.68,0,0,1-.39,1.14,15.31,15.31,0,0,0-1.66,3.29c-.44,1.19-.78,2.41-1.22,3.6a30.94,30.94,0,0,0-1.48,3.6,17.74,17.74,0,0,1-1.8,4.42,2.89,2.89,0,0,1-1.25.65A2.21,2.21,0,0,1,697.16,38Z"/><path class="cls-10" d="M585.76,6.85c8.76-5.07,18.38-5.39,28-4.59a92.34,92.34,0,0,1,22.38,4.52c1.47.5,2.7.7,2.92,2.7.92,8.73,2,17.45,3,26.17.1.87.85,2.13-.85,2.2-1.1,0-1.12-1-1.27-1.81-1-1.7-.58-3.88-1.81-5.52a14.24,14.24,0,0,1-1.46-3.14c-3.79-12-12.1-19-24.3-21.52a27.13,27.13,0,0,0-11-.1,12.67,12.67,0,0,1-2.2.25,48,48,0,0,0-9,2.87,5.67,5.67,0,0,1-2.28,0A2.85,2.85,0,0,1,585.76,6.85Z"/><path class="cls-11" d="M508.51,10l-.19.19-.23-.14a4.33,4.33,0,0,0-5-1.28c-1.15.1-2.18-.26-1.89-1.56.36-1.57,1.89-1.19,2.93-1,7.45,1.28,15,.42,22.42.71,2.53.1,5.08-1.26,7.62-.45a1.9,1.9,0,0,1-2,2.22c-7.33.68-11,5.57-11.15,14.64-.28,17.31-.07,34.63-.12,51.95,0,2,.51,4-.79,5.81-1.91-1.63-1.56-3.89-1.48-6,.27-6.92-.68-13.74-1.54-20.57a11.6,11.6,0,0,1-.41-2.64c-.09-2.33,0-4.67-.08-7q0-3.89,0-7.79c0-2,0-4,0-6s0-3.82,0-5.73C517,18.72,515.68,12.83,508.51,10Z"/><path class="cls-12" d="M456.43,89.88c2.58,5.74,7.32,9.29,12.59,12.29a23,23,0,0,1,7.18,6.07c.67.9,2.08,2,.23,3.22-1.51-.08-3.06.36-4.52-.38H472c-3.13-.83-6.12-2.07-9.15-3.2a4.56,4.56,0,0,1-2.57-2.28c-1.23-2.61-2.89-4.83-5.66-6a3.42,3.42,0,0,1-1.14-.66,20.8,20.8,0,0,1-3.2-5c-.58-1.72-1.31-3.37-2-5-.43-1.62-1-3.23-.54-4.94,1.91-2.36,3.41-.68,4.89.55C454.34,85.93,454.87,88.27,456.43,89.88Z"/><path class="cls-13" d="M171.14,2.15a56.27,56.27,0,0,1,13.78,5.91,3.1,3.1,0,0,1-.2,2.79,51.9,51.9,0,0,1-4.94,7.33c-1.28,1.56-2.79,2.82-5,2.44-2.2-.71-4.61-1-6.29-2.83-1.74-3.72-.11-7.38.22-11.06a8.9,8.9,0,0,1,.48-2.31A4.31,4.31,0,0,1,171.14,2.15Z"/><path class="cls-14" d="M455.11,17.27c-.82,21.57,0,43.15-.25,64.73-3-.61-2.26-3-2.42-5,.06-.71.19-1.4.24-2.11.1-1.7,0-3.41,0-5.11,0-1.28,0-2.57,0-3.85.07-1.59,0-3.17,0-4.76,0-1.07,0-2.14,0-3.21.05-1.61,0-3.22,0-4.82,0-1.08,0-2.15,0-3.23.05-1.62,0-3.24,0-4.87.08-1.36,0-2.71,0-4.07.09-1.89,0-3.78,0-5.67,0-1,0-2.1,0-3.15,0-1.49,0-3,.06-4.47.08-2.58.34-5.15-1.6-7.35-2.28-2.58-1.89.25-2.47,1.15a1.74,1.74,0,0,1-1.1.84,1.61,1.61,0,0,1-1.15-.76c-1.18-2.43-.08-5.22-1.24-7.65a5.41,5.41,0,0,0-4.37-2.86c-4-.85-7.75-2.55-11.84-3-1-2.76,1.21-1.9,2.28-1.85,5.27.22,10.54.57,15.8.88C450.58,9.79,455.46,11.45,455.11,17.27Z"/><path class="cls-15" d="M568,87c6.15,8.72,13.13,16.39,24,19.13.69.36,1.36.78,1,1.7-.18.52-.67.42-1.09.21-16.94-3.8-28.47-13.93-35-29.91,1.67-1.2,1.74-1.27,3.26,0A58.85,58.85,0,0,1,568,87Z"/><path class="cls-16" d="M209.88,41.06a8.06,8.06,0,0,1,.14,1l-.18.73c-1.89,3.14-5.4,2.08-8.1,3.14-3.54.88-6-.69-8-3.47a5.09,5.09,0,0,1-.67-1.4c-1.12-4.33,1.31-6.88,4.53-9.06,1.65-1.12,3.11-2.51,5-3.27a2.37,2.37,0,0,1,1.47.06C207,32.37,208.28,36.79,209.88,41.06Z"/><path class="cls-17" d="M303.38,88.9c5.62,5.76,11.37,11.35,18.54,15.21-2.31,4-5.54,1.85-8.53,1.29a4.42,4.42,0,0,1-1.68-1.52c-5.44-7.3-12.1-13.41-19-19.28-1.43-.66-2.22-2-3.12-3.14a21.22,21.22,0,0,0-1.55-2,16.89,16.89,0,0,1-1.64-2.76,13.67,13.67,0,0,0-2.08-2.37A10.14,10.14,0,0,1,283,72.85c-.79-1.29-1.18-2.59-.16-4,2.44-.55,3.5,1.48,4.94,2.72C293.71,76.71,297.77,83.51,303.38,88.9Z"/><path class="cls-18" d="M731,64l-5-16c2.41-.47,3.31,1.67,4.81,2.77s2.05,3,4.11,3.24a150.91,150.91,0,0,1,7,20c-1,2.28-2.22.57-3-.09a56,56,0,0,1-7.25-7.37C731.16,65.8,731.59,64.75,731,64Z"/><path class="cls-19" d="M518.08,53.92c1.76,7,1.93,14.14,1.89,21.31,0,2,.1,3.93.15,5.9-.2,1.67.24,3.47-1.08,4.89-2.27.45-2.38,2.7-3.44,4.17a44.85,44.85,0,0,1-3.91,5.19c-1.08,1.07-2.17,2.13-3.22,3.22a15.69,15.69,0,0,1-2.56,2.17,33.26,33.26,0,0,1-5.69,2.58,7.46,7.46,0,0,1-4.33.44,2.13,2.13,0,0,1-1.14-.92C506.58,98.69,513.63,90.6,515.16,78c2.35-2.92,1.2-6.38,1.47-9.63q0-3.81,0-7.61C516.83,58.41,516,55.86,518.08,53.92Z"/><path class="cls-20" d="M613.08,4.94c14.47,2.3,22,11.81,26,25,.53,1.24.72,2.28-1.2,2.15-2.18-3.65-4.19-7.43-6.58-10.94C626.32,13.91,619.36,9.39,611,6.95c-.81-.57-1.81-1.08-.8-2.29A3.85,3.85,0,0,1,613.08,4.94Z"/><path class="cls-21" d="M175.15,19.91c5.1-1.36,5.82-6.73,9-9.84,1.74-1.42,2.87-.22,4,.93a1.88,1.88,0,0,1,.81,0c1.45,1.58.64,3.35.45,5.07a10.54,10.54,0,0,1-.82,3.52c-3.16,1-3.95,4.66-6.73,6.11a4.6,4.6,0,0,1-2.18.1c-2.28-1-4.91-1.53-6.2-4.08C173.56,20.64,173.44,19.42,175.15,19.91Z"/><path class="cls-22" d="M303.38,88.9c-4.52-1.7-5.85-6.55-9.28-9.38C290.16,76.27,287.18,72,282.9,69a1.07,1.07,0,0,1-1.15.19,9.8,9.8,0,0,1-2.38-2.83,14.57,14.57,0,0,0-2.21-2.84,9.92,9.92,0,0,0-2.32-1.12c-1.9-.55-3.72-1.31-5.67-1.73-.94-.2-1.83-.91-.92-2.15,2.48-1.39,5.15-.88,7.77-.8a6.37,6.37,0,0,1,1.48.35c4.42,2.52,7,7.15,11.19,9.9Z"/><path class="cls-23" d="M730.93,83.11a26.91,26.91,0,0,1-3-9c-.8-3.13.76-2.6,2.49-1.54,2.24,1.38,3.5,4,6.16,4.87,4,1.9,6.16,5.79,9.49,8.41A14.59,14.59,0,0,1,748.23,92c-4.22.43-5.09-4-8.22-5.41-.64.47.06,1.66-.67,2.3C734.77,89.54,733.95,84.72,730.93,83.11Z"/><path class="cls-24" d="M746.07,85.87c-3.2.49-3.77-2.74-5.7-4.07A47.67,47.67,0,0,1,736,78c-3.34-2.48-3.37-6.5-4.65-9.95A2.41,2.41,0,0,1,732,66c3.86,2,5.35,6.95,9.94,8.07A41.34,41.34,0,0,1,746.07,85.87Z"/><path class="cls-10" d="M231.95,105.95a13.48,13.48,0,0,0,8.18-9c.85-2.14.11-4.38.45-6.56,4.41-1,5.37,3.16,7.73,5.21A4.35,4.35,0,0,1,248.8,97a7,7,0,0,1-1.23,4.25,9.64,9.64,0,0,1-2.69,2.62c-3.16,1.73-6.37,3.28-10.11,3.11C233.71,107,232.66,106.93,231.95,105.95Z"/><path class="cls-25" d="M293,84c1.59-1.2,2,.57,2.66,1.21q7.66,7.47,15.13,15.13c.64.65,2.41,1.07,1.2,2.66a2.68,2.68,0,0,1-2.67.71,8.94,8.94,0,0,1-2.61-1.17c-2-2-4.14-3.18-7-1.34A2.14,2.14,0,0,1,297,101l-1.17-1.66c-.67-1.83.66-2.8,1.75-3.75,1.51-1.3,1.35-2.48.07-3.76-.71-.8-1.47-1.56-2.19-2.36a24.58,24.58,0,0,1-2.83-4.3A1.17,1.17,0,0,1,293,84Z"/><path class="cls-26" d="M751,98a34.19,34.19,0,0,0,7.07,6.87c.35,1-.23,1.44-1,1.85-7.75.49-15.14-5.43-18-14.41a4.07,4.07,0,0,1,.43-2.91c2.09-1.55,3.12.42,4.36,1.39C746.56,92.88,748.3,95.92,751,98Z"/><path class="cls-17" d="M740,92c3.13,7.75,8.14,13.2,17,14,.79.63,3.08.25,1.61,2.4-1.58,0-3.19.41-4.72-.34L750,108c-4.28-2.26-7-6.25-10.54-9.37-1.42-1.26-2.36-3.21-4.59-3.39-1.3-3-2.69-5.87-2.93-9.16.08-2.53,1.45-1,2-.47C736.05,87.64,738.46,89.42,740,92Z"/><path class="cls-27" d="M446,13c2,2.82.54,6,1,9,1.42,1.6,1.36,3.46.94,5.38a21.88,21.88,0,0,1-3.06,6.12c-.92,1.25-2.12,3-3.72.54q0-6.5,0-13C443.69,18.9,443.31,15,446,13Z"/><path class="cls-28" d="M660.12,108l.12-.92c3.75-1.06,7.43-2.27,10.3-5.09,1-.65,1.39-1.9,2.5-2.43,2.89-.59,4.12,1.82,5.91,3.24.35.31.67.64,1,1,.91,1.26,2.56,2.16,2,4.12l-15.66.29A10.11,10.11,0,0,1,660.12,108Z"/><path class="cls-29" d="M471.91,111.07,477,111a3.92,3.92,0,0,1,2.63-1.15c1.63-.14,3.27.07,5.23,0,.28.13-.18-1-.19-.34-2.83-.68-4.5-2.36-4.64-5.36l5,0c4.27.32,8.69.29,11.08,4.88C488.27,112.42,480.18,112.81,471.91,111.07Z"/><path class="cls-30" d="M649,68.73c-3.73,1.72-2.26,5.81-3.86,8.5a41.8,41.8,0,0,1-7.83-8.29c-.85-1.16-2.9-2.72-.41-4.41,3.59,0,7.19-.09,10.78.06C649.53,65.51,650.28,66.79,649,68.73Z"/><path class="cls-31" d="M377,52c.31,2-.63,4.14.81,6q0,14.5,0,29c-2-.21-1.78-1.84-2.11-3.14-.09-2.19-.11-4.39-.11-6.59.08-1.34,0-2.69,0-4,0-1.06,0-2.12,0-3.18,0-1.29,0-2.59,0-3.88,1.52-5.22-3.07-7.26-5.45-10.46a13.09,13.09,0,0,1,.08-8C374.69,45.73,375.23,49.84,377,52Z"/><path class="cls-32" d="M377.9,94c.34,9.09,7,12.46,13.3,12.82.82,0,1.65.12,1.8,1.19a17.34,17.34,0,0,1-8.31.13l-.35.12-.32-.18a56.71,56.71,0,0,1-13.85-13.59,8.92,8.92,0,0,1,.2-6C375.14,87.22,375.94,91.39,377.9,94Z"/><path class="cls-33" d="M632.16,88q0-1.5,0-3c3.61-.09,4.67,3.19,6.31,4.73-1.17-1.22-.58-3.31-.79-5.24a40.9,40.9,0,0,1,.15-5.54A3.62,3.62,0,0,1,639,76.85c2.67.5,2,2.74,2.37,4.47-1,4.14,3.26,5.88,4.12,9.17,0,2,.07,4.06,0,6.09-2.83,2.61-4.29-1-6.45-1.41A15.27,15.27,0,0,1,632.16,88Z"/><path class="cls-34" d="M441.16,34c1.9,1.1,2.43-.29,3.13-1.62.81-1.52,1.79-3,2.69-4.42,1.89,1.87,1.19,4.29,1.39,6.51a21.07,21.07,0,0,1-.43,4.9,22.6,22.6,0,0,1-3.06,6.11c-.92,1.25-2.13,2.93-3.72.52Z"/><path class="cls-35" d="M732,68c2.15,3,2.29,6.82,4,10-3.23.13-3.92-3.12-6-4.56-1.3-.91-1.89-1.11-2.08.69-1.94-3.55-2.78-7.49-4-11.29a.8.8,0,0,1,.36-1.1C727.44,63.11,729.28,66.1,732,68Z"/><path class="cls-36" d="M254.3,59.16,254,65c-3.05.39-4.23-2.43-6.31-3.69-1.47-3.63-5.07-5.75-6.66-9.3V48c3.71-.36,4.49,4,7.6,4.66C250.87,54.55,253.11,56.39,254.3,59.16Z"/><path class="cls-37" d="M441.17,77.05q0-5,0-10c1.78-.35,2.56-1.66,3.35-3.15.56-1.06,1.07-3.14,3.1-1.44a6.54,6.54,0,0,1,.7,2.93,29.84,29.84,0,0,1-.38,7.21c-1.63,3.28-2.45,7-5.41,9.66C440.67,80.68,442.14,78.57,441.17,77.05Z"/><path class="cls-38" d="M196.09,96.1l-1,1c-1.84,1.24-2.93,3.6-5.55,3.68a2.83,2.83,0,0,1-2.61-2.53,8.7,8.7,0,0,1,.12-3.85,2.42,2.42,0,0,1,1.37-1.59c3.84,1.08,4.1-1.48,4.22-4.18a2.29,2.29,0,0,1,1.48-1.43,6.32,6.32,0,0,1,3.63.06,5.67,5.67,0,0,1,2.48,1.54,2.68,2.68,0,0,1,.29,2.09C199.65,93.11,197,93.89,196.09,96.1Z"/><path class="cls-39" d="M636,65.08c2,4.81,7.47,7.06,9.12,12.15q0,1.4,0,2.8c-4.08.31-4.49-3.77-6.76-5.63-1.83-4.79-7-4.65-10.45-7.16a2.49,2.49,0,0,1-.43-1.39,1.66,1.66,0,0,1,.81-1.23,8.75,8.75,0,0,1,1.56-.1C631.86,64.75,634,64,636,65.08Z"/><path class="cls-40" d="M735,54c-.33,2.35-1.29,1.13-2.13.36-2.28-2.11-4.53-4.24-6.8-6.36l-3-9c2.85-.41,3.77,2.23,5.56,3.5,1.29.92,1.45,3.11,3.53,3.15Z"/><path class="cls-41" d="M518,69c-.9,3,2.39,7.33-2.8,9V32c2.93.9,1.38,3.38,1.82,5.16q0,3.92,0,7.83,0,3.47,0,6.94,0,4.24,0,8.48C517.36,63.26,516.12,66.29,518,69Z"/><path class="cls-42" d="M566.19,21.06a15.94,15.94,0,0,1,5.81-6,12.77,12.77,0,0,1,3.28,3,3.5,3.5,0,0,1-.72,2.49c-2.11,2.85,1.42,4.81,1.17,7.36l-1,2.07c-3.42,1.22-4.34-1.78-6-3.54C568.4,24.41,566.71,23,566.19,21.06Z"/><path class="cls-43" d="M248.16,97l-.29-1.09c0-.2,0-.41,0-.61a4.84,4.84,0,0,1,1-3.49c2.58-.33,3.58,1.87,5.13,3.19l.79,1c0,5.38,5.46,10.23,12.16,10.93,1,.11,2.38-.69,2.84,1-3.29,1-6.6.66-9.91.17l.09-.07A66.33,66.33,0,0,1,248.16,97Z"/><path class="cls-44" d="M707,62.83c-3.55.06-7.11.18-10.66.14-1.86,0-3.58,0-4.43,2-1.06,1.68-1.93,1.37-2.68-.25a4.45,4.45,0,0,1,.39-3.17A6,6,0,0,1,692.94,59c4.77-.72,9.57-.2,14.36-.39,5.21.61,10.67-1.39,15.67,1.46l0,0a1,1,0,0,1-.36,1.48c-3.73,1-7.53.25-11.29.48-3.68,0-7.33-.82-11-.55-.66,0,.18,1.06-.1.45-.06-.13.07-.28.38-.23C702.7,62,705.25,60.2,707,62.83Z"/><path class="cls-45" d="M441.17,77.05c1.44,1,.29,2.9,1.33,4.15C444,78.46,444.76,75.31,447,73c2,2,1.21,4.47,1.39,6.79s-1,4.51-1.54,6.74c-.41,1.64-1.27,3.66-3.83,2.49C440.77,85.27,440.82,81.18,441.17,77.05Z"/><path class="cls-46" d="M562,72c.62,3.12,2.84,5.72,3,9-5-1.09-7.09-5.57-10.1-9-1.08-1.11-.91-2.52-.92-3.89-.49-1.06-.88-2.24.18-3.06s1.84.09,2.6.64A17,17,0,0,1,562,72Z"/><path class="cls-47" d="M313,104c3,1.23,5.93,1.68,8.92.1,2.56,1,5.45,1.06,7.79,3.91H309C308.53,104.89,311,104.69,313,104Z"/><path class="cls-48" d="M248.16,97c5,2.59,8.44,6.76,11.83,11l-6-.06c-3-1.78-5.8-3.8-7.28-7.15Z"/><path class="cls-49" d="M364.19,74.06q0-4.5,0-9c3.53.18,5,2.91,6.63,5.4a20.61,20.61,0,0,1,.16,8.31,3.26,3.26,0,0,1-.73,1.28C366.14,80.16,365.2,77.08,364.19,74.06Z"/><path class="cls-50" d="M371,95a94.2,94.2,0,0,1,13,13.06l-5-.07c-3.89-2.2-6.82-5.43-9.52-8.9a3.87,3.87,0,0,1-.09-2.8A2.17,2.17,0,0,1,371,95Z"/><path class="cls-51" d="M242,10.15c2.4,1.59,5.26,2.68,6.18,5.84.37,1.48,1,2.93.46,4.5-1.81,1.89-2.92,0-4.06-.87-2.06-1.61-3.64-3.74-5.45-5.62l-3.16-3.81A1,1,0,0,1,236,8.75C238.33,7.76,240.16,8.89,242,10.15Z"/><path class="cls-52" d="M628,67c4.37,1.26,9.5,1.33,11,7a2.51,2.51,0,0,1,0,3l0,2c-4.46-.25-5.64-4.21-7.89-7l-4-4.12C626.87,67.05,627.14,66.7,628,67Z"/><path class="cls-53" d="M496.11,109c-3.62-1.8-6.8-4.59-11.08-4.88l4.79-.26c2-1,4.27.26,6.25-.82l3.9-1c1.62,1.18,4.86,1.66,2,4.74A14.12,14.12,0,0,1,496.11,109Z"/><path class="cls-54" d="M235,106.14c3.44-.53,6.53-2.06,9.72-3.32,3.28.16,5.13,1.52,4.3,5.13l-14.56.2c-2.81.42-5.63.76-8.42-.15-.1-1.39.86-1.16,1.7-1.11C230.07,105.94,232.63,107.1,235,106.14Z"/><path class="cls-31" d="M254.3,59.16c-2.78-1.36-4.3-4-6.3-6.16a3.89,3.89,0,0,1-1.19-2.72,28.44,28.44,0,0,1-.05-3,14.58,14.58,0,0,1,.27-2.94,3.94,3.94,0,0,1,.64-1.31,1.6,1.6,0,0,1,1.36-.26,3,3,0,0,1,.8,1.15c0,3.44,1.85,5.92,4.23,8.13a6.65,6.65,0,0,1,.72,1.13c.79,3.05,3.66,3.37,5.93,4.49.72.58,1.72,1.16,1.19,2.22-.4.8-1.29.61-2,.16Z"/><path class="cls-55" d="M447,62c-1.57,1.22-1.75,3.12-2.38,4.81-1,2.57-2.15,1.85-3.41.25q0-4.5,0-9c.49-1.19,1.4,2.9,1.84-.17a7.57,7.57,0,0,1,2.55-4.54c.93-.83,1.74-.54,2.29.56C448.41,56.7,449.06,59.5,447,62Z"/><path class="cls-56" d="M508.51,10c5.71.46,8.93,3.81,9.51,10.07A40.07,40.07,0,0,1,517.9,25a1.85,1.85,0,0,1-2.75,0C514.27,19.41,513.28,13.88,508.51,10Z"/><path class="cls-57" d="M561,46.05l-.17,17c-.94.07-1.38-.54-1.71-1.28a12.72,12.72,0,0,1-.46-3.81c0-1.48,0-3,0-4.43.87-4.31-2.3-6.68-4.56-9.48a11.11,11.11,0,0,1,1.49-5.19C560.33,39.78,561.37,41.17,561,46.05Z"/><path class="cls-58" d="M751,98c-3.43-.38-4.54-3.71-6.9-5.46-1.45-1.08-2.74-2.36-4.11-3.55a.59.59,0,0,1-1,0l-.91-5.62c4.26,2.35,6.24,6.63,10.14,8.61Z"/><path class="cls-59" d="M639,77q0-1.49,0-3c1.9,2.12,3.38,4.65,6,6,.53,6.7,1.55,13.4,0,20.1a2.25,2.25,0,0,1-.17-3.1l0-7c-1.07-3-3.45-5.22-4.9-8C639.76,80.32,640.65,78.41,639,77Z"/><path class="cls-60" d="M241,80q0-3.5,0-7c4,.14,5.43,3.61,7.63,6.07a7.07,7.07,0,0,1,.53,2.19,7.72,7.72,0,0,1-.68,4.44C243.94,86.52,243,82.61,241,80Z"/><path class="cls-42" d="M370,70l-5.81-4.93q0-4,0-8c3.71.24,5.23,3,6.8,5.81C371.31,65.33,371.94,67.84,370,70Z"/><path class="cls-61" d="M364.19,74.06c1.71,2.2,3.31,4.52,5.82,5.95,1.68,1.77,1.36,3.85.91,5.94-.53,1.41-1.59,1.67-2.69.86a4.48,4.48,0,0,0-4.06-.83Z"/><path class="cls-62" d="M480,104.11l5.51,6.26c-2,1.09-3.8.42-5.52.63-2.81-2.25-6.61-3.64-7-8Z"/><path class="cls-62" d="M715,10.89c1.17-1.86.91-4.44,3-5.84l4.19,11.64c.63,1.91.09,3.3-1.94,2.06C717.34,17,714.51,14.95,715,10.89Z"/><path class="cls-63" d="M241.06,52c2.76,2.65,6.74,4.37,7,9a2.25,2.25,0,0,1,.37,2.77c-4,.87-5.58-2.11-7.33-4.77Z"/><path class="cls-64" d="M446,13c-1.45,2.78-.34,7.1-4.84,8.05l-1.25-6.9c-.74-2.1,1-2.93,2.08-4.13C444,10.07,445.11,11.4,446,13Z"/><path class="cls-65" d="M443,89c4-1.82,3.54-5.64,4-9a1,1,0,0,1,1.39.25c.78,1.33.38,2.56-.31,3.77a9.7,9.7,0,0,1,.92,5c.65,2.94.89,5.66-3.21,6.11A10.28,10.28,0,0,1,443,89Z"/><path class="cls-27" d="M241.05,59,248,64c1.15,1,1.21,2.31,1.26,3.66a5.76,5.76,0,0,1-.73,3c-4.6.9-5.51-3.09-7.47-5.67Z"/><path class="cls-66" d="M722.07,36a22,22,0,0,1-2.3-6.95c2-.94,2.89.8,4.11,1.71,1.39,1,2.17,2.9,4.18,3.11a13.52,13.52,0,0,1,2,5.91c.67,2.66-.51,3-2.39,1.67A47,47,0,0,1,722.07,36Z"/><path class="cls-37" d="M364.16,86c2.94-5.31,3.75,1.47,5.83,1,1,2.31.26,4.74.48,7.11-.68,2.21-1.93.93-2.89.38A8.91,8.91,0,0,1,364.16,90Q364.16,88,364.16,86Z"/><path class="cls-67" d="M447,53c-2.19,2.31-2.94,5.42-4.43,8.17l-1.38-3.11q0-3.5,0-7c1.68,1.14,1.58-.38,2.27-1.25,1.24-1.56.3-5.27,4.1-4.44a5.94,5.94,0,0,1,.76,3C448.27,50,448.41,51.73,447,53Z"/><path class="cls-68" d="M719.06,27a20.69,20.69,0,0,1-2.34-6.94c2-1,2.9.81,4.15,1.7,1.43,1,2.09,3,4.12,3.27,1.88,1.54.33,4.28,2,5.87.85,2.29.21,3.16-1.87,1.56S721.23,28.68,719.06,27Z"/><path class="cls-69" d="M734.88,95.25c.2-1.6.78-2.13,2.09-.77L750,108l-3,0c-4.58-2.35-7.31-6.8-11.27-9.86a3.5,3.5,0,0,1-.79-1.12Z"/><path class="cls-1" d="M247.91,86l.18-5a3.51,3.51,0,0,0,.24-.43c.7-1.82-1.8-4.78,1.27-5.52,2.48-.6,3.23,2.29,4.42,4l0,7a1.46,1.46,0,0,1-1.75-.1c-2.06-1.66-2.21-.26-2.24,1.37a3.19,3.19,0,0,1-1,1.92,1.32,1.32,0,0,1-1.4-.35A2.26,2.26,0,0,1,247.91,86Z"/><path class="cls-70" d="M639,85c-.2,1.72.46,3.52-.6,5.55L632.16,85q0-3.5,0-7C635.6,79.22,637.16,82.23,639,85Z"/><path class="cls-71" d="M639,85c-2.83-1.78-4.84-4.36-6.83-7l-1.08-6L639,79Q639,82,639,85Z"/><path class="cls-72" d="M247.87,95.93,241,90a1.19,1.19,0,0,1-.77-.94L241,84c4.39.08,5.47,4,7.65,6.62-.23,1.79.09,3.64-.51,5.39Z"/><path class="cls-73" d="M188.06,16,189,11a66.18,66.18,0,0,1,12.14,12l-.53.45a2.9,2.9,0,0,1-1.37.07C195.71,20.7,191,19.77,188.06,16Z"/><path class="cls-71" d="M329.91,6.78C331,5.15,332.59,6,334,6.06c2.11,1.45,5.39,2.1,4,5.92l0,.05c-.86,1.77-1.75,3.5-4.2,3.14-1.68-1.67-3.46-3.26-4.28-5.59A5,5,0,0,1,329.91,6.78Z"/><path class="cls-74" d="M461,105.07l2,1.94c.68,1.09-.16,1.38-.9,1.71-3.89-1.51-7.59-3.31-10.34-6.6.27-1.41.69-2.72,2.3-3.17l1,.07A21.28,21.28,0,0,1,461,105.07Z"/><path class="cls-75" d="M562,72c-2-1.79-3.88-3.62-5.87-5.38-2.79-2.46-1.77.55-2.16,1.53-1.31-2.6-1.11-5.39-1-8.17,4.47.29,5.86,4.12,8.07,7A8.13,8.13,0,0,1,562,72Z"/><path class="cls-76" d="M455.11,17.27c-1.06-4.7-6-6.34-8.09-10.2l5,0a17.13,17.13,0,0,1,6.23,5Z"/><path class="cls-77" d="M370,99a47.26,47.26,0,0,1,9,9l-5,0a15.35,15.35,0,0,1-6.28-5.73,3.17,3.17,0,0,1,.54-2.57C368.69,99.09,369.18,98.66,370,99Z"/><path class="cls-78" d="M370,62l-5.83-4.95q0-4.5,0-9c.84-.17,1.26.35,1.61,1,.63,3.08,3.69,4.58,4.78,7.37a5.25,5.25,0,0,1,.6,2.86A3.53,3.53,0,0,1,370,62Z"/><path class="cls-79" d="M186.17,105.25a34.83,34.83,0,0,1-16.1,6.8c-2,.28-1.1-.92-.94-1.77a4.24,4.24,0,0,1,1-1.06c4.56-2,9.29-3.57,13.77-5.77a3.56,3.56,0,0,1,1.47.06C186.07,103.89,186.57,104.36,186.17,105.25Z"/><path class="cls-80" d="M554.86,72c4,2.25,6.25,6.52,10.1,9,.32,2.34,3.3,3.35,3,6-2.78-2.62-5.52-5.29-8.37-7.83-.68-.61-1.11-2.44-2.66-1A10.33,10.33,0,0,1,554.86,72Z"/><path class="cls-81" d="M334,15l4-3a6.19,6.19,0,0,0,3.13,3L336,21c-1.92.5-2.81-.75-3.63-2.13C332,17.19,332.16,15.76,334,15Z"/><path class="cls-49" d="M736,97a68.78,68.78,0,0,1,11,11l-4,0a18.82,18.82,0,0,1-7.75-7.41A3.63,3.63,0,0,1,736,97Z"/><path class="cls-82" d="M288.69,68c-5.16-1.12-7.45-5.64-10.69-9a3.47,3.47,0,0,1,3.84-1.54c2.25.68,2.39,2.83,3.14,4.54Z"/><path class="cls-27" d="M458.25,12.08c-3.09-.38-4.51-2.86-6.23-5L463,7c1.12,1.45.19,2.2-1,2.85C460.25,9.74,459.62,11.54,458.25,12.08Z"/><path class="cls-83" d="M554.15,44c4.28,1.5,6.4,4.38,5.81,9-3.79,1.24-4.82-2.17-6.79-4C552.82,47.21,553.66,45.64,554.15,44Z"/><path class="cls-84" d="M368,102a22.07,22.07,0,0,1,6,6l-7,0c-1.38-1.06-3.33-1.32-4.24-3,0-1.38,1-1.91,2-2.52C365.76,102,366.78,101.35,368,102Z"/><path class="cls-85" d="M297,101a6.45,6.45,0,0,0,2.31-.73c3.39-2.89,5.8-1.87,7.69,1.72-2.07,1.42-3.56,4.15-6.77,3Z"/><path class="cls-86" d="M365,49l-.83-1q0-3,0-6L370,47c.93,1.5.39,3.13.4,4.72C367,53.93,366.38,50.73,365,49Z"/><path class="cls-87" d="M363,105c2,.08,3.13,1.39,4,3l-8.54.17c-2.86-.13-6,2.06-8.47-1.16l6.57-1.19C358.72,105.71,360.57,103.17,363,105Z"/><path class="cls-88" d="M565,34l-2,4.05a30.66,30.66,0,0,1-4.92-5c.73-1.8,1.35-3.66,2.78-5.07,3.28-.13,4.47,1.87,4.83,4.72A3,3,0,0,1,565,34Z"/><path class="cls-89" d="M447,45c-1.07,2.15-2.25,4.27-3.19,6.47-1.55,3.63-1.79-.11-2.64-.42q0-2.51,0-5c1.9,1.1,2.43-.28,3.13-1.61.8-1.52,1.78-3,2.68-4.43A3.31,3.31,0,0,1,448,42.9,3,3,0,0,1,447,45Z"/><path class="cls-90" d="M370,99l-1,1c-2.93.22-4.07-1.82-5.09-4l.31-5.9L370,95q.43.33.3.68T370,96Z"/><path class="cls-91" d="M615,107c4.53-1.81,9.61-1.69,14-3.92a1.87,1.87,0,0,1,.16,2.36c-4,1.51-7.88,3.23-12.23,3.37C616.07,108.39,615.21,108,615,107Z"/><path class="cls-92" d="M296,89l2,2c.37,4.5-.53,5.39-5.07,5L290,92C291.82,90.59,293.36,88.69,296,89Z"/><path class="cls-93" d="M296,89c-2,1-3.21,3.56-6,3l-2.14-2.94A5.6,5.6,0,0,1,293,85C294.79,85.74,295.18,87.53,296,89Z"/><path class="cls-94" d="M293,85l-5.14,4.08c-1.8-.75-2-2.66-3-4,1.4-1.77,2.9-3.41,5.16-4.11L293,84Q293,84.49,293,85Z"/><path class="cls-95" d="M725,25c-.33,2.34-1.25,1.06-2.1.36-2.09-1.73-3.46-4.3-6.17-5.33L715,15c2.24-.45,2.78,1.73,4.1,2.69s2.05,2.58,4,2Z"/><path class="cls-96" d="M377.9,94,371,88c-.93-1.44-.35-3-.44-4.56,2.93-1.56,3.86,1.1,5.3,2.56s1.58,3.19,1.94,5Z"/><path class="cls-97" d="M338,12c-.05-2.83-3-3.68-4-5.92l7,.12c1.28,1,3.52,1.33,3,3.8Z"/><path class="cls-98" d="M569,26c2.24.86,3.05,3.79,5.76,4l-2,5c-3.23,0-4.37-2.67-6.1-4.61a3,3,0,0,1-.16-1.33C567,27.67,567.51,26.44,569,26Z"/><path class="cls-99" d="M254,79l-4.33-3.4c-1.51,1.58.22,4-1.6,5.37l-.16-2a6,6,0,0,1-1-3.6,7.2,7.2,0,0,1,.27-1.49c.71-1.38.7-3.7,2.38-3.9,2.54-.31,3.24,2.31,4.42,4Z"/><path class="cls-100" d="M448.09,84,448,80a1.81,1.81,0,0,1-.22-2c4.4-.41,4.92,3.8,7.14,6l1.55,5.87c-1.69-1.67-3.41-3.31-5.05-5C450.43,83.86,449.52,83.05,448.09,84Z"/><path class="cls-101" d="M585.76,6.85l2.35,1.21c.25,1.43-.94,1.92-1.73,2.67-1.73,1.14-3.33,2.51-5.37,3.12a5.7,5.7,0,0,1-1.45.09,3,3,0,0,1-2.8-2.09A22.2,22.2,0,0,1,585.76,6.85Z"/><path class="cls-102" d="M333,19,336,21l-4.14,9c-2-.09-1.82-1.71-2.14-3,0-2.75-.27-5.55,1.71-7.86A1.18,1.18,0,0,1,333,19Z"/><path class="cls-103" d="M259.88,60.06c3.24-.5-.12-1.36.11-2,2.92-1.69,5.5-.68,8,1s5.71.77,8,2.73c-1,1.71-2.62,1.33-4.14,1.34C268.18,60.89,263.68,61.84,259.88,60.06Z"/><path class="cls-104" d="M561,67l-8.07-7,0-4c4.14-.08,5.2,3.45,7.08,6l.88,1Q560.94,65,561,67Z"/><path class="cls-105" d="M248,68q0-2,0-4,0-1.5,0-3c2.86,0,3.71,3.12,6,4q0,2.5,0,5a2.64,2.64,0,0,1-3.51-1.77C249.69,65.55,248.69,69.25,248,68Z"/><path class="cls-106" d="M454.89,84c-3.05-1.12-3.91-4.75-6.86-6-1-1.43-.36-3-.46-4.54,3.06-.52,3.34-.34,5.41,3.53.82,1.6.07,3.78,1.88,5Z"/><path class="cls-107" d="M722.07,36c2.9.33,4.07,3,6,4.59,1.41,1.2,1.87.77,2-.8,1.91,1.53.14,4.36,2.07,5.88-2.75,1.62-2.94-1.57-4.31-2.43A36.84,36.84,0,0,1,723.08,39,4.31,4.31,0,0,1,722.07,36Z"/><path class="cls-108" d="M567,30l5.82,4.94-1,3.05c-3-.07-3.76-4-6.84-4q0-.5,0-1C566.22,32.37,564.42,29.74,567,30Z"/><path class="cls-109" d="M682.88,100l3.12,3.14c1,2.64-1,2.61-2.63,2.94-1.79,0-3-1.2-4.34-2.17l.06.06a4.72,4.72,0,0,1-1.06-2.09c-.19-1.49-.39-3.17,1.25-3.84S681.82,99.07,682.88,100Z"/><path class="cls-110" d="M249,87V82.13L254,86l.78,10H254A53.57,53.57,0,0,0,249,87Z"/><path class="cls-111" d="M445.8,95.09c2.64-1.21,2.48-3.89,3.21-6.11a6.22,6.22,0,0,1,2,4.94c.73,2.41,1.24,4.71-2.32,5.2A7.19,7.19,0,0,1,445.8,95.09Z"/><path class="cls-112" d="M689.86,71l-1,3c-1.62.65-1.62,3.7-4.25,2.85a5.44,5.44,0,0,1-.74-4.22A12.14,12.14,0,0,1,686,67c1-.48,1.67.09,2.3.75C689.11,68.72,688.72,70.22,689.86,71Z"/><path class="cls-113" d="M561,46.05c.09-3.82-2.81-5.41-5.39-7.23L557.17,35c3.52.47,5.45,2.24,4.87,6C561.83,42.76,562.53,44.63,561,46.05Z"/><path class="cls-114" d="M363.85,95.94l5.09,4-1,2L365,103c-1.87.65-2.35-.75-2.92-2Z"/><path class="cls-115" d="M344,10l-3-3.8,3.87.75L353,7a1.31,1.31,0,0,1,0,2C350,9.22,347.08,10.51,344,10Z"/><path class="cls-116" d="M242,10.15,236,9c-1.37.71-2.41-.84-3.71-.54-1.31-.8-2.65-1.37-4.18-.61-.63,0-1.4.17-1.66-.59-.39-1.19.54-1.33,1.33-1.32,2.42,0,4.84.16,7.27.24C237.25,7.65,241,6.46,242,10.15Z"/><path class="cls-117" d="M632.16,88,639,94a3.77,3.77,0,0,1,.91,3.6,2.31,2.31,0,0,1-1.39,1.63,17,17,0,0,1-6.35-7.2Q632.16,90,632.16,88Z"/><path class="cls-118" d="M502,106.86c1.54-2.53-1.56-3.08-2-4.75l6-2.15c1.45.43,2.43,1.19,2,2.91C505.85,104,504.91,106.91,502,106.86Z"/><path class="cls-119" d="M686.83,80l-3,9c-1.25.43-2.53,1-3.47-.55-.57-2.4.62-4.4,1.46-6.49a5.23,5.23,0,0,1,1.75-2A4.07,4.07,0,0,1,686.83,80Z"/><path class="cls-35" d="M406,12c3.58,3,4.29,6.35.93,10-1.19-1-1.54-2.36-2-3.69C403.84,16,404,13.83,406,12Z"/><path class="cls-120" d="M377.82,91a17.68,17.68,0,0,0-6.8-8c-.76-.8-.42-1.8-.5-2.73a3.22,3.22,0,0,1,.29-1.39c3.68-.26,4.57,2.84,6.15,5.11.07,1.05-.14,2.19.85,3Q377.82,89,377.82,91Z"/><path class="cls-121" d="M248,43q0,.49-.06,1c-3.92-.11-5.18-3.3-6.89-6q0-2,0-4c4,.24,5.46,3.6,7.55,6.2A2.74,2.74,0,0,1,248,43Z"/><path class="cls-122" d="M560,62l-7.08-6,.11-4c4,.1,5.16,3.37,6.92,6Z"/><path class="cls-111" d="M559.93,58,553,52l.16-3c3,.09,3.75,4,6.79,4Q559.94,55.51,559.93,58Z"/><path class="cls-64" d="M248.05,74l-.1,1c-3.91-.14-5.12-3.4-6.92-6q0-2,0-4L248,71A2.48,2.48,0,0,1,248.05,74Z"/><path class="cls-39" d="M247.87,90,241,84l0-4,6.89,6,.2,3A.65.65,0,0,1,247.87,90Z"/><path class="cls-123" d="M209.88,41.06c-3-3.44-3.93-7.88-5.9-11.82a1.82,1.82,0,0,1,0-2.41C207.1,31.09,210.34,35.31,209.88,41.06Z"/><path class="cls-124" d="M707,59.95,692,60c-2.43,1.49-2.22-.87-2.87-2,0-1.17.83-1.66,1.73-2.09a1.1,1.1,0,0,1,1.12-.33,19.94,19.94,0,0,0,3.6,1.21c.44.17.85.37,1.28.56,2.13.48,4.3.08,6.42.36C704.78,57.95,706.8,57.49,707,59.95Z"/><path class="cls-85" d="M241,69,248,75q0,2,0,4L241,73Q241,71,241,69Z"/><path class="cls-125" d="M248,50q0,1.5,0,3c-3.57.09-4.12-4-6.94-5q0-2,0-4C245,44.1,246.13,47.49,248,50Z"/><path class="cls-126" d="M569,26l-2,3a5.93,5.93,0,0,1-4.1-4l3.29-3.9C567.59,22.45,570.33,23.07,569,26Z"/><path class="cls-53" d="M241,25l-.86-8c.86-.15,1.28.37,1.63,1,.47,4.58,4.89,6.49,6.85,10.07a3.07,3.07,0,0,1-.29,2.79C243.88,31.42,243,27.52,241,25Z"/><path class="cls-127" d="M442,10c.14,1.79-1.52,2.68-2.08,4.12-2.62-3.91-7.1-4.47-11-6.09C433.4,8,437.67,9.15,442,10Z"/><path class="cls-128" d="M249,107.95c-.33-2.64-2.32-3.88-4.3-5.13l2-2A27.65,27.65,0,0,1,254,108Z"/><path class="cls-35" d="M313,104c-1.22,1.45-3.32,2-4,4-2.34-.21-4.92,1.13-7-1,2.22-1.52,3.82-4.12,7-4l3,0Z"/><path class="cls-129" d="M473,103l7,8-3,0-8-8.81C470.52,101.62,471.69,102.65,473,103Z"/><path class="cls-130" d="M280,65.91l2,3c-.39,4.38-1.23,4.89-5.18,3.11-1.16-.69-1.21-2-1.68-3.06A12.5,12.5,0,0,1,280,65.91Z"/><path class="cls-131" d="M166.13,112.07,165,112c-.59-1-1.6-1.87-1.29-3.25,1.62-2.16,2.86-4.82,6.16-4.86,1.72,1.86,1.66,3.82.31,5.84l-.28.38c-1.14.4-1.68,1.71-2.93,1.95l-.43,0Z"/><path class="cls-132" d="M241,18l-.9-1c-.61-.91-1.45-1.75-1.05-3,4,.92,5.46,5.14,8.76,7a2,2,0,0,1,.59,2.7C243.82,24.58,243,20.57,241,18Z"/><path class="cls-133" d="M682.88,100c-1.94-.59-4.59-2.56-3.88,2-2,.2-1.84-1.42-2.17-2.61a9.71,9.71,0,0,1,.29-3.06c.47-1.4.63-2.92,1.51-4.18,2-1,2.6.44,3.25,1.83Z"/><path class="cls-134" d="M332,19a21.89,21.89,0,0,0-1,8,1,1,0,0,1-1.27,0c-.83-1-.68-2.24-1.15-3.32a4.29,4.29,0,0,1,.29-2.06l.29-6.66C332.93,14.35,332.73,16.51,332,19Z"/><path class="cls-135" d="M212.87,60.88l0,2.12a1.55,1.55,0,0,1-2.25-.15c-1.86-4.19-.34-8.77-1.51-13a5.59,5.59,0,0,1,.25-2.44c.56-1,1.3-1.75,2.61-1.36a10.51,10.51,0,0,1,.93,6.11A20.52,20.52,0,0,0,212.87,60.88Z"/><path class="cls-136" d="M248.05,74,248,71q0-1.51.06-3c3.38-3.45,3.75,2.07,6,2v4l-4.23-3.35C248.39,71.43,249.49,73.36,248.05,74Z"/><path class="cls-137" d="M309,103c-2.46,1.09-3.57,4.57-7,4l-1.78-2c2.62-.16,3.75-3.72,6.77-3A2.11,2.11,0,0,1,309,103Z"/><path class="cls-138" d="M285.09,73.87,287,76c.42,4.86-.92,5.9-5.15,4l-1.2-1.88A6.76,6.76,0,0,1,285.09,73.87Z"/><path class="cls-139" d="M707,62.83c-2.4-1.81-5.4-.1-9.34-1.77h13.43c2.38,1.75,5.85-1.41,7.91,1.77Z"/><path class="cls-140" d="M636,65.08,629,65q-.49-.26-.33-.53c.11-.18.21-.26.32-.26l24.94-.06c-1.61,2.8-3.76,2-6,.89Z"/><path class="cls-141" d="M697.16,38H699c1.16,1.33.37,2.68.05,4-.37,1.11-.77,2.21-1.15,3.31-.55,1.34-1.12,2.68-2.64,3.24a2.1,2.1,0,0,1-2-.55Z"/><path class="cls-142" d="M292.93,96c3-.36,4.73-2,5.07-5,2.68,1.65,4.28,3.27.34,5.46-1,.58-1.67,1.9-2.49,2.87Z"/><path class="cls-143" d="M639,98q0-2,0-4c2.56-.16,3.38,3.06,5.88,3q.08,1.55.17,3.1c-.45.92-1.21,1-2.07.77A7.39,7.39,0,0,1,639,98Z"/><path class="cls-144" d="M285,62l-3-4c-.44-1.47-1.79-2.64-1.47-4.37a3,3,0,0,1,3.39-1.92,6.13,6.13,0,0,1,2.62,3.95,15.88,15.88,0,0,0-.57,4.23A2.29,2.29,0,0,0,285,62Z"/><path class="cls-145" d="M684,80,683,82a3.06,3.06,0,0,1-2.81,0,29.05,29.05,0,0,1,3.72-9.36A8.15,8.15,0,0,1,685,77C685.71,78.34,684.9,79.2,684,80Z"/><path class="cls-146" d="M511,95c1.35-1.66,1.94-3.91,4-5,1.58-.49,2,.3,1.91,1.71-1.89,1.69-1.1,5.09-3.92,6.19A4.07,4.07,0,0,1,511,95Z"/><path class="cls-40" d="M511,95a2.94,2.94,0,0,1,2,2.89c-1.16,1.56-1.86,3.54-3.87,4.35-1.62-1.09-2.36-2.4-1.12-4.24A6.39,6.39,0,0,1,511,95Z"/><path class="cls-147" d="M740,107.91h-4c-1.86-1.3-4.08-1.55-6.2-2.14a2.28,2.28,0,0,1-1-.88,5.1,5.1,0,0,1,3.13-2.22c1.15.31,2.27-.25,3.42-.14C737.76,103.57,740,104.76,740,107.91Z"/><path class="cls-148" d="M728.79,104.9l1.21.1c.78,2-1.15,2.11-2,3-2.12.27-4.23.57-6.36.79-.65.07-1.37-.08-1.45-.93s.59-1.57,1-1.38C724.17,107.69,726.08,104.39,728.79,104.9Z"/><path class="cls-149" d="M575.73,27.9c-.55-2.64-6.63-4.08-1.73-7.91a5.22,5.22,0,0,1,3.86,4Z"/><path class="cls-150" d="M562.9,25a10.16,10.16,0,0,1,4.1,4q0,.5,0,1l-2,3c-.27-2.58-2.2-3.82-4.11-5.06Z"/><path class="cls-151" d="M610,5l1,1.91L599,7a1.29,1.29,0,0,1,0-1.94L600.94,5A18.14,18.14,0,0,1,610,5Z"/><path class="cls-152" d="M599,5.11,599,7c-2.37,1.74-5.72,1.14-7.89,3.35-.9-.52-1.55-1.16-1.09-2.32C592.84,6.51,595.7,5.1,599,5.11Z"/><path class="cls-153" d="M280,65.91c-1,2-2.45,3.31-4.87,3.08l-1.52-2.83c.82-2,2.55-2.82,4.47-3.38Z"/><path class="cls-154" d="M723.15,19.68c-.21,1.35-.54,2.34-2,.92-2-1.89-4.05-3.73-6.08-5.6-.73-1.36-1.84-2.71-.07-4.12.51,3.4,3.49,4.89,5.6,7,1.31,1.3,1.31-.4,1.57-1.19C723,17.48,723,18.6,723.15,19.68Z"/><path class="cls-155" d="M648,65c2-.34,4.17.71,6-.89a8.61,8.61,0,0,1,5.16.53c-3.54,1.88-7.36,1.84-10.13,4.06A5.81,5.81,0,0,0,648,65Z"/><path class="cls-156" d="M639,98c2,.05,3.05,1.36,4,2.89-1.56.94-3.07,2-5,2-1-.73-2.48-.65-3.19-1.88a1.81,1.81,0,0,1,.8-1.66c.77-.44,1.53-.92,2.43-.32Z"/><path class="cls-157" d="M329.13,24.11c1.11.71.81,1.86.88,2.89a11.35,11.35,0,0,1,0,8c-.17.59,0,1.46-.86,1.55-1.17.13-1.31-.8-1.28-1.62.07-2.31.23-4.61.35-6.92C329,26.83,327.84,25.17,329.13,24.11Z"/><path class="cls-158" d="M680.15,82A2.33,2.33,0,0,1,683,82c-.86,2.27-1.95,4.48-1.9,7,.24.89-.25,1.2-1,1.28a3.24,3.24,0,0,1-2.24-2.38C678.5,85.91,678.76,83.72,680.15,82Z"/><path class="cls-159" d="M592,108c1.09-.61.25-1.26,0-1.9,2.53-.25,4.7.88,6.93,1.79,1.6-.7,3.26-.38,4.9-.24a1.43,1.43,0,0,1,.16,2.19l-2,0c-1.63-.86-3.54.17-5.16-.76C595.1,109.14,593.4,109.16,592,108Z"/><path class="cls-122" d="M448.73,99.12c1.9-1.23,2.27-3.14,2.32-5.2,1.25,1.53,2.66,3,3,5-.66,1.14-1,2.53-2.3,3.17A6.9,6.9,0,0,1,448.73,99.12Z"/><path class="cls-160" d="M562,41.08c-.43-3-2.85-4.33-4.87-6l.93-2a6,6,0,0,1,4.92,5C563,39.16,563.12,40.31,562,41.08Z"/><path class="cls-122" d="M247.95,40l-6.87-6V31c4,.26,5.48,3.6,7.55,6.22A2.49,2.49,0,0,1,247.95,40Z"/><path class="cls-32" d="M719.06,27c2.83.28,3.94,2.87,5.82,4.41,1,.85,1.91,1.72,2.15-.5,1,.77,1,1.87,1,3-.19,1.92-.93,1.65-2.1.62-2.06-1.82-3.51-4.33-6.19-5.44A2,2,0,0,1,719.06,27Z"/><path class="cls-161" d="M739,89h1q0,1.5,0,3c-3.22-1.25-4-5.77-8.06-5.91-1-.77-1-1.88-1-3C735,83.16,735.76,87.79,739,89Z"/><path class="cls-162" d="M247.93,37l-6.84-6,0-3c3.91.39,5.42,3.71,7.58,6.23A2.46,2.46,0,0,1,247.93,37Z"/><path class="cls-163" d="M248,50l-6.93-6q0-1.5,0-3c3.85.2,5,3.5,6.91,6Z"/><path class="cls-164" d="M248,47l-6.91-6V38L248,44Q248,45.48,248,47Z"/><path class="cls-165" d="M397,10c2.12-.38,4,.66,6,1,2.58,2.93.68,3.64-2,4l-3-2C399.49,11.4,396.1,11.42,397,10Z"/><path class="cls-166" d="M332,19c.06-2.06-.31-3.81-2.85-4V14c.86-1.18-.3-2.83.92-3.92,1.81,1.26,3.69,2.47,3.92,5L333,19Q332.48,19,332,19Z"/><path class="cls-151" d="M247.9,34l-6.83-6L241,25l6.91,6a1.92,1.92,0,0,1,.75,1.85A2,2,0,0,1,247.9,34Z"/><path class="cls-167" d="M580,13l1,0a3.62,3.62,0,0,1,2.76,2.89c-.08,1.85-2.16,1.79-2.88,3-2.22.37-3-1.05-3.48-2.82C577.4,14.36,578.86,13.81,580,13Z"/><path class="cls-168" d="M281.83,80.06c3.49.93,5.18-.44,5.15-4l2,3c0,3.61-1.92,4.66-5.18,4A4.85,4.85,0,0,1,281.83,80.06Z"/><path class="cls-169" d="M583.79,15.95A6.72,6.72,0,0,1,581,13.05L586,9.94a3.83,3.83,0,0,1,2.35,2.18Z"/><path class="cls-170" d="M678.05,96.11l-.12,2.9c-3.45,1.76-3.73-.66-4-3.05L676.17,92C679,92.36,678.64,94.19,678.05,96.11Z"/><path class="cls-171" d="M628,65q0,.5,0,1c-1.11,1.23-2.72,0-3.92.82l-8-1.61c2.91-1.78,5-1.12,6.92-1.08C624.56,65.11,626.49,63.86,628,65Z"/><path class="cls-172" d="M740,107.91a16.8,16.8,0,0,0-4.92-4.91c-.52-1.08.06-1.62,1-2a30.47,30.47,0,0,1,7,6.94Z"/><path class="cls-173" d="M684,80l1-3c1.23-1.08,1.3-3.63,3.86-3l-2,6A2.37,2.37,0,0,1,684,80Z"/><path class="cls-98" d="M638,99l-2,1a15.54,15.54,0,0,1-3.83-4q0-2,0-4C634.41,94.1,637.31,95.61,638,99Z"/><path class="cls-174" d="M673.9,96c1.36,1,1.39,3.75,4,3.05.29,1-.05,2.27,1.08,3l.09,2c-2.39-.77-3.21-3.94-6.09-4a1.48,1.48,0,0,1,0-2.1C673,97.12,672.88,96.26,673.9,96Z"/><path class="cls-175" d="M285.09,73.87a10.26,10.26,0,0,1-4.46,4.31,4.94,4.94,0,0,1-2-3.07c1.4-1.74,2.85-3.35,5.41-2.14Z"/><path class="cls-166" d="M728,108l2-3c2.59-.26,4.74.38,6,2.92Z"/><path class="cls-176" d="M516,37c-.24-1.67.53-3.51-.82-5q0-3,0-6c3.07.46.91,3.81,2.74,5q0,3,0,6A1.26,1.26,0,0,1,516,37Z"/><path class="cls-177" d="M671,102c-2.55,3.9-6.57,4.68-10.78,5,3.73-1.77,7.45-3.57,10.59-6.35A.76.76,0,0,1,671,102Z"/><path class="cls-178" d="M688,68l-2-1c.57-2.59,1.11-5.19,2.82-7.34A2.66,2.66,0,0,1,690,62l0,3C689.37,66,689.7,67.69,688,68Z"/><path class="cls-179" d="M278.13,62.77c-.81,2-2.8,2.49-4.47,3.38l-1.78-3.07c1-1.77,2.75-.92,4.14-1.34Z"/><path class="cls-180" d="M693.27,48h1.81a2.71,2.71,0,0,1,.73,2c-.57,2.42-.88,5-3.78,5.92L690.88,56C690.57,53,692.22,50.6,693.27,48Z"/><path class="cls-53" d="M284.08,73l-5.41,2.14L276.86,72c2.88.89,4.65-.09,5.18-3.11l.87.11Z"/><path class="cls-144" d="M401,15c1.48-.92,3.23-1.7,2-4l3,1-1.11,6.34Z"/><path class="cls-181" d="M736,101l-1,2c-1.19,1.28-2.25,1.3-3.14-.33l3-5.68h1Q736,99,736,101Z"/><path class="cls-86" d="M632.16,96a4.16,4.16,0,0,1,3.83,4l-1,1a1.38,1.38,0,0,1-2,0c-.43-1.47-2-1.7-2.89-2.71Z"/><path class="cls-182" d="M171.14,2.15,170.08,4c-2,1.4-4.2.16-6.29.31C162.26,4,160.26,4.46,160,2c2.29-.52,4.85.94,7-.95C168.52.68,169.82,1.46,171.14,2.15Z"/><path class="cls-183" d="M577.85,24A10.9,10.9,0,0,1,574,20l1-2a1.56,1.56,0,0,1,1.3-.22A9.21,9.21,0,0,1,579.86,21Z"/><path class="cls-129" d="M462.08,108.72,463,107c3.26.77,6.1,2.49,9,4.07C468.47,111.15,465.26,110,462.08,108.72Z"/><path class="cls-184" d="M633,100.95l2,0a3.12,3.12,0,0,1,3,1.88c-1.67.19-3,1.66-4.85,1.2a2.64,2.64,0,0,1-3.16-1.08Z"/><path class="cls-104" d="M362.09,101l2.92,2L363,105c-2.2-.23-4.15,1.47-6.4.8C358.39,104.18,360.72,103.16,362.09,101Z"/><path class="cls-133" d="M682.88,105.05c1.37-.1,2.93.11,3.11-1.92l9.09,3.71c-1,1.36-2.36,1-3.68.64-1.8-.68-3.68-.43-5.54-.51C684.56,106.82,683,107,682.88,105.05Z"/><path class="cls-169" d="M378,11q0-.5,0-1c1.84-1.2,4.09.25,5.93-.93h4c.64,1.21,3.44-.69,3,2.08Z"/><path class="cls-185" d="M580,13,578,16a2.4,2.4,0,0,1-1.34.74c-1.75-.15-3.11-.67-2.71-2.86a3.91,3.91,0,0,1,2.83-2Z"/><path class="cls-186" d="M719,62.84c-2.31-2.07-5.64.47-7.91-1.77L723,61a1.5,1.5,0,0,1,.86,1,1.19,1.19,0,0,0,.1.81Z"/><path class="cls-174" d="M682.88,105.05c.83,1,2,.84,3.14,1.08.55.73,2.54-.09,2,1.84l-6-.1-3-4Z"/><path class="cls-187" d="M688,68l2-3c.63,1.1,1.27.14,1.9,0,.11,2.27-1.67,3.9-2,6C686.41,71.76,688.69,69,688,68Z"/><path class="cls-188" d="M211.05,63h1.8c.28,2.54-.62,4.8-1.68,7a1.52,1.52,0,0,1-2,.13c-1.06-1.67-.25-3.29.1-4.93A3.81,3.81,0,0,1,211.05,63Z"/><path class="cls-189" d="M678.05,96.11c0-1.64-.12-3.23-1.88-4.06.51-1.39.47-3,1.62-4.14A3.68,3.68,0,0,1,680,90.08c.4,1-.12,1.52-.84,2C679,93.47,679.29,95,678.05,96.11Z"/><path class="cls-30" d="M286,59.88c-1-1.3-1.87-2.6,0-3.87a3.71,3.71,0,0,1,1.93-1.41A1.09,1.09,0,0,1,289,55c0,1.32,1,2.64,0,4Z"/><path class="cls-190" d="M283.8,83.08c2.36-.51,4.35-1.51,5.18-4a2,2,0,0,1,1.08,1.84c-1.28,1.92-2.54,3.86-5.16,4.11C283.91,84.73,284,83.83,283.8,83.08Z"/><path class="cls-191" d="M516.9,91.7,515,90c.92-1.76.07-5.32,4-4C517.37,87.55,519.07,90.35,516.9,91.7Z"/><path class="cls-192" d="M679.2,92.09l.84-2,1-1.08a2.35,2.35,0,0,1,2.78-.05l-2,5Z"/><path class="cls-136" d="M588.32,12.12C587,12,586,11.43,586,9.94l2.13-1.88H590l1.09,2.32Z"/><path class="cls-193" d="M190,100c1.87-.7,2.74-3.14,5.13-2.91-.36,3.13-2.93,4.31-5.13,5.82a1.69,1.69,0,0,1-1.27-1.74C189,100.59,189.58,100.42,190,100Z"/><path class="cls-194" d="M577,16l1,0a6.47,6.47,0,0,0,2.93,3l-1.05,2c-2-.12-3-1.44-3.87-3C575.38,16.84,576.46,16.56,577,16Z"/><path class="cls-195" d="M208.26,79.07a14.49,14.49,0,0,1-2.31,5.9,1.6,1.6,0,0,1-2,.26,2.43,2.43,0,0,1-.54-1.39c.44-2.28,1-4.46,3.56-5.35A1.73,1.73,0,0,1,208.26,79.07Z"/><path class="cls-120" d="M615,107l2,1.81-1.83.27c-1.58,1-3.48-.07-5.08.78h-1c-.9-.44-1.64-.94-.92-2.09,1.26-.55,2.74.23,4-.64Z"/><path class="cls-80" d="M517.9,31c-3.23-.37-.92-3.8-2.74-5l0-1h2.75Q517.9,28,517.9,31Z"/><path class="cls-196" d="M199.88,90.77l.26-1.74c.22-1.62.9-2.88,2.61-3.33a1.45,1.45,0,0,1,1.12,2c-1.35,1.19-1,3.43-2.75,4.39C200,92.27,199.6,91.87,199.88,90.77Z"/><path class="cls-97" d="M397,10c.64.9,2.12,1.51,1,3l-5.85-1.41c-.14-1.42,1.27-1,1.86-1.61Z"/><path class="cls-197" d="M758.92,107.92,757,106l1.06-1.13c2,1.64,5.11,1,6.92,3.11A7.68,7.68,0,0,1,758.92,107.92Z"/><path class="cls-198" d="M577,16l-1,2-1,0a2.8,2.8,0,0,1-3-2.9l1.93-1.24A3.12,3.12,0,0,0,577,16Z"/><path class="cls-199" d="M464.73,6.87c1.8-1,3.6-.83,6-.25-1.31,2.18-3,2.26-4.67,2.19C466.21,7.76,465.18,7.51,464.73,6.87Z"/><path class="cls-200" d="M758.92,107.92,765,108c-3.69,1.76-7.39,1.09-11.1.07Z"/><path class="cls-201" d="M199.88,90.77l1.24,1.3a9,9,0,0,1-5,4C196.1,93.44,198.28,92.31,199.88,90.77Z"/><path class="cls-202" d="M330,35q0-4,0-8h1c.06,1.07-.16,2.22.9,3C331.42,31.71,331.25,33.55,330,35Z"/><path class="cls-203" d="M189,101.06l1,1.83c-1.25.82-2.16,2.17-3.8,2.36L185.11,104C185.16,101.36,186.8,100.82,189,101.06Z"/><path class="cls-204" d="M464.73,6.87c.77.32,1.88-.37,2.34.64.11.23-.65.86-1,1.3l-4.05,1L463,7Z"/><path class="cls-205" d="M350,107c2.58,2.15,5.69.39,8.46,1.16-2.52,1-5.18.74-7.79.75C349.08,108.9,348.53,108.21,350,107Z"/><path class="cls-206" d="M259.89,108.12l9.91-.17C266.54,109.9,263.21,108.66,259.89,108.12Z"/><path class="cls-207" d="M394,10l-1.86,1.62L391,11.13,388,9C390.06,8.93,392.13,8.85,394,10Z"/><path class="cls-208" d="M212.87,60.88a9.83,9.83,0,0,1,0-8.76Q212.87,56.5,212.87,60.88Z"/><path class="cls-209" d="M608,108l1,1.77-5,0,0-1.77A3.58,3.58,0,0,1,608,108Z"/><path class="cls-210" d="M204,26.82v2.41l-.45,0h-.45c-2.55-1.42-3.65-3.36-2.16-6.19l.2-.07Z"/><path class="cls-211" d="M637.86,32.09c.94-.41,1.08-1.28,1.2-2.15,1.65,1.83.87,4,.94,6.11C638.45,35.18,638.59,33.4,637.86,32.09Z"/><path class="cls-118" d="M508,98a7.36,7.36,0,0,0,1.12,4.24c-.21.52-.54.83-1.14.63L506,100Z"/><path class="cls-212" d="M691,106.9l4.07-.05c-.45,3.39-2.6,1.27-4.09,1.26a.77.77,0,0,1-.26-.81Q690.89,106.9,691,106.9Z"/><path class="cls-213" d="M226,108l8.41.15C231.62,108.79,228.8,109.74,226,108Z"/><path class="cls-214" d="M384.68,108.13,393,108C390.25,109.79,387.46,108.62,384.68,108.13Z"/><path class="cls-215" d="M208.26,79.07,206.93,79c-1.17-2.16-.29-3.78,1.37-5.19,1-.18,1.24.57,1.61,1.19C208.75,76.1,209.7,78.07,208.26,79.07Z"/><path class="cls-216" d="M209.92,75l-1.06-1.25a2.86,2.86,0,0,1-.52-3,1.53,1.53,0,0,1,.9-.84l1.94.13Z"/><path class="cls-217" d="M240.25,89.05,241,90c-.4,2.3.81,4.81-.89,6.95Q240.19,93,240.25,89.05Z"/><path class="cls-218" d="M211.94,46l-1.87,1a2.55,2.55,0,0,1-.92-1.28c-.44-1.4.27-2.61.63-3.88L210,42C212.14,42.64,212.05,44.32,211.94,46Z"/><path class="cls-46" d="M691,106.9l0,1.21-3-.14-2-1.84C687.73,106.11,689.51,105.64,691,106.9Z"/><path class="cls-219" d="M330.09,10c-.24,1.32.33,2.84-.92,3.92-.07-2.43-.45-4.89.74-7.18Z"/><path class="cls-220" d="M629.94,103l3.16,1.08c-1,1.49-2.6,1-4,1.36l-.16-2.36A5.86,5.86,0,0,1,629.94,103Z"/><path class="cls-221" d="M235,106.14c-2.28,1.62-4.81.7-7.25.74l4.22-.93Z"/><path class="cls-222" d="M503.12,8.8c2.07-1.19,4-1.75,5,1.28Z"/><path class="cls-223" d="M690,62a2.74,2.74,0,0,1-1.16-2.36l.28-1.63c.92.71,1.36,2.12,2.87,2Z"/><path class="cls-224" d="M167,112.07a2.69,2.69,0,0,1,2.93-1.95c-.11.65-1,1.37.15,1.92C169,112.83,168,113.68,167,112.07Z"/><path class="cls-146" d="M496.07,103.08c-1.91,1.63-4.13.82-6.25.82,1.47-1.19,3.3-.66,4.94-1Z"/><path class="cls-224" d="M188.17,11c-1.3-.47-2.53-1.23-4-.93l.76-2C186.64,8.34,188,9,188.17,11Z"/><path class="cls-202" d="M329.13,24.11c-.23,1.31.3,2.81-.94,3.88-.14-2.15-.43-4.31.68-6.32Z"/><path class="cls-170" d="M671,102l-.19-1.3L673,97.9l0,2.1Z"/><path class="cls-182" d="M203.87,87.67,203,86c-.23-.89.09-1.24,1-1h2C205.53,86.08,205.3,87.34,203.87,87.67Z"/><path class="cls-155" d="M628,65c-1.67-.23-3.52.57-5-.88l6,.07q0,.4,0,.79Z"/><path class="cls-177" d="M660.12,108l6.2.19C664.24,108.56,662.13,109.9,660.12,108Z"/><path class="cls-126" d="M624.07,66.82c1.1-1.27,2.58-.68,3.92-.82q0,.49,0,1l-1,.92Z"/><path class="cls-225" d="M610,109.83c1.52-1.39,3.35-.78,5.08-.78C613.53,110.2,611.76,110,610,109.83Z"/><path class="cls-132" d="M232.09,8.24A4.62,4.62,0,0,1,236,9l-.08,1.23L232.1,8.76Z"/><path class="cls-226" d="M232.09,8.24a1.13,1.13,0,0,1,0,.51l-4-.94C229.58,6.59,230.92,6.58,232.09,8.24Z"/><path class="cls-209" d="M596.81,109.07c1.75.06,3.61-.67,5.16.76C600.19,110,598.41,110.1,596.81,109.07Z"/><path class="cls-9" d="M19,6.22q31.9-.16,63.8-.34c1.91,0,3.13.32,3.28,2.62.55,8.43,1.26,16.86,1.85,25.29.07,1.06.45,2.63-1.2,2.77-1.1.09-1.37-1.18-1.74-2.13-1.6-4.17-3.25-8.33-4.89-12.49.32-3.05,1.46-6.25-1.58-8.68a5.62,5.62,0,0,0-2.9-1l-1.95-.09c-2.06,0-3.93-1-5.94-1.22a8.88,8.88,0,0,1-1.33-.29,12.12,12.12,0,0,0-4.7-.63H59c-1.61,0-3.23,0-4.84,0A4.43,4.43,0,0,0,51,11l-.2,47a1,1,0,0,1-1.34-.43,6.71,6.71,0,0,1-.74-3.07c0-1.85-.1-3.71-.07-5.56,0-1.35-.06-2.7,0-4s-.06-2.76,0-4.13c.08-1.95-.09-3.9,0-5.84.1-3-.06-5.92,0-8.87.38-3.27-.25-6.12-3.23-8.24-1.33,2.32-1,4.64-1,6.91,0,1.83,0,3.66,0,5.48,0,3.58,0,7.16-.06,10.74a6.67,6.67,0,0,1-.45,2.21c-2.17,3.06-3.81.08-5.66-.51a3.18,3.18,0,0,1-1-.69c0-8.65-.34-17.32,0-26,.15-4.32-1.33-5.37-5.38-5.14-5.86.32-11.58.83-16.78,3.84a3,3,0,0,1-1.29-4A4.72,4.72,0,0,1,17,8.85a16.93,16.93,0,0,1,2.33-.21c2.78-.05,5.5-.91,8.3-.64H33.6c-2,0-4,0-6,0a41.72,41.72,0,0,0-5.44.18C20.82,8,19.3,8.13,19,6.22Z"/><path class="cls-227" d="M142.87,111.84A45,45,0,0,1,129,106a3,3,0,0,1,.1-2.57c.41-1.07.76-2.17,1.22-3.22,2.21-3.25,4-7.06,8.85-7,2.57.69,5,1.63,6.49,4a11.29,11.29,0,0,1,.3,6.15,34.59,34.59,0,0,0-1,4.94A8,8,0,0,1,142.87,111.84Z"/><path class="cls-228" d="M142.88,2.18c.41,1.29-.25,2.84.94,3.94,2,1.78,1.77,4.37,2.36,6.66a8.42,8.42,0,0,1-.46,3.94c-1.45,2.48-4.16,2.82-6.48,3.84-2.63.47-4.09-1.25-5.57-2.95-1.37-2.41-3.46-4.22-5.3-6.24-.54-.78-1-1.57-.54-2.57C132.34,5.45,137.53,3.63,142.88,2.18Z"/><path class="cls-229" d="M109,86a37.34,37.34,0,0,1-6.13-15c1.09-1.35,2.78-1.36,4.23-1.93,2.57-.53,5.08-1.46,7.77-1.25,2.38.25,3.8,1.75,4.86,3.73a8.65,8.65,0,0,1,1.22,5.17c-1.65,4.14-5.82,5.52-8.9,8.09C111,85.35,110.36,86.61,109,86Z"/><path class="cls-230" d="M37.17,80V63a1,1,0,0,1,1.27.17c1.37,2.82,4.14,4.63,5.44,7.51a22.64,22.64,0,0,1,.23,7.53,5,5,0,0,1-.48,1.33c-.94,1.25-2,.62-2.89,0a1.61,1.61,0,0,0-2.45.4A.92.92,0,0,1,37.17,80Z"/><path class="cls-212" d="M52,100c2.09,5,6.79,5.73,11.22,6.85,1,.25,2.35-.49,2.76,1.14a16.82,16.82,0,0,1-8.24.13L54,108c-4.79-2.33-7.25-7.24-11.39-10.29a2.41,2.41,0,0,1,1.27-3C47.53,95,49.19,98.39,52,100Z"/><path class="cls-55" d="M50,58l.77.06q0,14.46,0,28.93c-1.95-.21-1.76-1.83-2.08-3.12-.07-1.64-.13-3.29-.12-4.93.08-1.89,0-3.77,0-5.66.09-1.56,0-3.12.07-4.68,1.09-5-3.33-7.24-5.3-10.71a5.29,5.29,0,0,1,.09-4.5C47.68,52,48.24,55.88,50,58Z"/><path class="cls-231" d="M23,107l5.69-1.13c1.61-.59,3.4-.55,4.92-1.45,1.95-1.13,3.88-2.3,6.26-2.24,2.68,1,5.14,2.29,5.11,5.75l-13.56.17C28.59,108,25.47,110.07,23,107Z"/><path class="cls-232" d="M142.87,111.84c-.91-1.48.68-1.94,1.16-2.85,3.52-4.72,6.69-9.83,12.84-11.66,3.05,2.07.13,3.29-.77,4.64-1.85,2.78-5.57,4.09-6.25,7.8A5.68,5.68,0,0,1,151,111L148,112.87C146.16,113.35,144.52,112.55,142.87,111.84Z"/><path class="cls-136" d="M44,95l-.94,3a1.66,1.66,0,0,1-.44,1.93,2,2,0,0,1-1.32.42A6.65,6.65,0,0,1,36.92,96L37.17,89c1.46-.45,2.32.59,3.28,1.35s1.33.46,1.38-.65a12.49,12.49,0,0,1,.46-4,2.16,2.16,0,0,1,1-1,1.5,1.5,0,0,1,1.25.64,6.82,6.82,0,0,1,.69,2.93c.06,1,.08,2.06.06,3.09A4.84,4.84,0,0,1,44,95Z"/><path class="cls-233" d="M3,28c-.19-1.3.48-2.79-.82-3.85a1,1,0,0,1-.32-1.5L2.16,16A6.63,6.63,0,0,0,2.48,15c.55-1.68-1.19-4.59,1.27-5s3.79,2,4.11,4.54a19.82,19.82,0,0,1-1,4.53c-1.08,2.84-1.07,6-2.49,8.73A1,1,0,0,1,3,28Z"/><path class="cls-234" d="M101.14,55.05a27,27,0,0,1,1.78-13.13,6.61,6.61,0,0,1,2.73.18c.9.36,1.71.78,1.52,2-1.06,1.2-2.23,2.33-2.47,4-.67,4.46-.1,9-.35,13.42a11.14,11.14,0,0,1-.59,4.08,2.63,2.63,0,0,1-1.86,1.56c-1.61-1.91-.74-4.13-.75-6.24A10,10,0,0,0,101.14,55.05Z"/><path class="cls-235" d="M37.18,42H38c1.42,3,2.66,6.14,5.27,8.41a4,4,0,0,1,.47,1.33,40.65,40.65,0,0,0-.33,4.93c-1.06,1.3-2.17.46-2.81-.27-1.13-1.28-2.27-.57-3.44-.44Z"/><path class="cls-236" d="M37.17,56c3-5.37,3.73,1.55,5.82,1a3.61,3.61,0,0,1,.72,1.31,6.89,6.89,0,0,1,0,5.11c-2.06,2.24-3.75-1-5.7-.4h-.81Q37.18,59.49,37.17,56Z"/><path class="cls-128" d="M45,107.95a15.81,15.81,0,0,0-5-5c-.54-1.83.85-2.33,2-3l.06,0c3.71-.06,7.65,3.45,9,8Z"/><path class="cls-111" d="M42,100l-2,3-6,2c-1.08.23-1.4-.2-1.06-1.21,2-2.24,2.85-5.12,4-7.83Z"/><path class="cls-237" d="M112,23a42.44,42.44,0,0,1,12-11.88c.59.23,1.16.48,1.36,1.16a2.42,2.42,0,0,1-.25,1.23,31.48,31.48,0,0,1-3,3.38c-3.16,2.47-4.94,6.64-9.33,7.6C112.15,24.24,111.55,23.92,112,23Z"/><path class="cls-35" d="M79,12c3.59,2.95,4.15,6.24,1.14,9.94l-4.35-5.82A6,6,0,0,1,79,12Z"/><path class="cls-97" d="M17,10l-3,1c-.86.85-1.74,1.63-3.09,1.22C9.37,10.34,6.8,9.08,7,6.06l7,.12C15.53,7.05,17.64,7.44,17,10Z"/><path class="cls-238" d="M105,42.88c-.94.22-1.72.1-2.07-1a47.93,47.93,0,0,1,5.15-12.87c1.15-.93,1.87-.42,2.41.71C109.4,34.44,108.16,39.07,105,42.88Z"/><path class="cls-120" d="M50,84c.08,1.05-.14,2.19.85,3l0,4c-3.65-1.69-4.82-5.62-7.49-8.21-.55-1.2.06-2.33.18-3.49a3.24,3.24,0,0,1,.31-1.39C48,77.76,48.21,81.65,50,84Z"/><path class="cls-233" d="M43,85v5c-2.74.55-3.81-2.13-5.82-3q0-3.48,0-7H38A8.06,8.06,0,0,1,43,85Z"/><path class="cls-35" d="M6,19a6.75,6.75,0,0,1,1-4A13,13,0,0,0,8,13.43a2.28,2.28,0,0,1,2.31-.7A5.31,5.31,0,0,1,13.11,16L9,21C7.22,21.54,6.46,20.48,6,19Z"/><path class="cls-48" d="M51,108c-2.69-3-4.78-6.65-9-8l1-2c.75-.27,1.73-.92,2.22,0,2.2,4,6.36,6.24,8.73,10.05Z"/><path class="cls-104" d="M44,83c3.3,1.77,5,4.95,6.81,8l.08,3c-3.91-.13-5-3.47-6.89-6l0-3A1.38,1.38,0,0,1,44,83Z"/><path class="cls-239" d="M6,19,9,21,4.89,30c-1.74,0-1.53-.91-.89-2A16.79,16.79,0,0,1,6,19Z"/><path class="cls-71" d="M10,13,8,14c-1.32-2.32-3.7-3.77-5.08-6C3,4.6,5.39,6.16,7,6.06,8,8.3,10.93,9.16,11,12A1.18,1.18,0,0,1,10,13Z"/><path class="cls-221" d="M44,95V91c4.64.67,6.19,4.4,7.88,8l.1,1C48,100.46,46.92,96.26,44,95Z"/><path class="cls-240" d="M51.89,99C49.54,96,47.17,93.14,44,91q0-1.5,0-3l6.89,6Z"/><path class="cls-241" d="M124.77,103.14c-3.5-1.15-5.4-4.23-7.89-6.59a7.17,7.17,0,0,1-.33-2.13c.72-1.17,1.6-.63,2.46-.24a32.22,32.22,0,0,1,3.49,3.22,32.61,32.61,0,0,1,2.65,2.91,3.42,3.42,0,0,1,.48,1.22,2.65,2.65,0,0,1-.28,1.27Z"/><path class="cls-242" d="M37.18,87c3.19-1.42,3.57,2.61,5.82,3l-.26,3.83L37.17,89Z"/><path class="cls-233" d="M58.94,9.07,62,9c1.51,1.15,3.5-.2,5,1h0c-.33,2.5-2,1.24-3.2,1.1L51,11a3.23,3.23,0,0,1,2-2A7.84,7.84,0,0,0,58.94,9.07Z"/><path class="cls-115" d="M17,10l-3-3.8,5,0c.79,1,1.91.75,3,.83,1.49,3.5-2.23,1.72-3,2.94Z"/><path class="cls-243" d="M63.79,11.11c1.11-.24,2.43.11,3.2-1.1l7,1c.06,2.28-1,2.86-3,2Z"/><path class="cls-244" d="M2.93,8C5.13,9.57,7.52,11,8,14L7,15c-.08-2.23-1.75-3.19-3.21-4.5C2.19,12.23,3.88,14.6,2.16,16,2,13.26,1.93,10.57,2.93,8Z"/><path class="cls-245" d="M10,13l1-1,3-1,1,3.73L13.11,16A6.24,6.24,0,0,1,10,13Z"/><path class="cls-246" d="M110.11,29.8c-.42-.94-1.17-1-2-.75A19.62,19.62,0,0,1,112,23l1.34,1.14a2.4,2.4,0,0,1,.24,1.29,17.59,17.59,0,0,1-2.4,4.69A.75.75,0,0,1,110.11,29.8Z"/><path class="cls-247" d="M117,94l-.12,2.53A19.28,19.28,0,0,1,112.06,91c.28-.66.62-1.25,1.44-1.33C115.57,90.38,117.43,91.28,117,94Z"/><path class="cls-123" d="M113,89.88l-1,1.11c-1.24-1.52-2.78-2.85-3.1-5l2.17-1.86a10.21,10.21,0,0,1,2.42,4.54A1.64,1.64,0,0,1,113,89.88Z"/><path class="cls-171" d="M71,13a3.07,3.07,0,0,0,3-2h2c1.25,1.86.82,3.27-1.14,4.28Z"/><path class="cls-248" d="M101.9,67.17,103,66a2.32,2.32,0,0,1,1.53.94c.25.32.47.66.68,1,.45.9,1.61,1.23,1.88,2.27-1.23,1.29-2.82.6-4.25.8C101.46,70,102.2,68.46,101.9,67.17Z"/><path class="cls-249" d="M74.86,15.29A7.45,7.45,0,0,0,76,11l3,1c-.84,1.56-1.3,3.41-3.22,4.12Z"/><path class="cls-250" d="M23,107c2.59,2,5.66.41,8.42,1.1-2.51.91-5.13.72-7.72.76C22.16,108.89,21.56,108.27,23,107Z"/><path class="cls-251" d="M4,28l.89,2A10.91,10.91,0,0,1,3,35q0-3.5,0-7Z"/><path class="cls-252" d="M125,12l-1-.89c1.23-.83,2.18-2.12,3.79-2.32l1.27,2C128.11,12.37,126.86,13.11,125,12Z"/><path class="cls-253" d="M129.84,103.89,129,106a6.67,6.67,0,0,1-4.27-2.81l.23-.1C126.92,101.57,128.47,102.2,129.84,103.89Z"/><path class="cls-214" d="M57.74,108.12,66,108C63.26,109.79,60.49,108.63,57.74,108.12Z"/><path class="cls-250" d="M32.93,103.79,34,105c-1.54,1.68-3.5.79-5.3.88Z"/><path class="cls-254" d="M101.14,55.05a4.94,4.94,0,0,1,0,5.88Z"/><path class="cls-251" d="M1.86,22.65l.32,1.5c-.37,1.61.43,3.45-1,4.84C1.05,26.84.85,24.68,1.86,22.65Z"/><path class="cls-255" d="M160,2c1.12,1.36,2.74.75,4.13,1.08,1.26,2.06.37,3.37-1.52,4.33-2.86.53-5.78.69-8.64,1.25a5.23,5.23,0,0,1-3.59-1C149,6.43,147.73,5.11,149,3L153,2Z"/><path class="cls-256" d="M149,3a6.76,6.76,0,0,0,2,4c1,5-2.54,5.34-5.89,5.95-1.22-2.14-1.06-4.53-1.28-6.86C144.26,3,146.6,3,149,3Z"/><path class="cls-257" d="M151,111l-2,0c-1.27-2.91,1.12-3.48,2.86-4.47,2.94,1.07,6.91.3,8.12,4.5q0,.48,0,1h-5C153.94,110.55,152.38,111.13,151,111Z"/><path class="cls-258" d="M160,111c-2-2.6-5.78-1.83-8-4-.26-2,.9-2.48,2.54-2.54a59.08,59.08,0,0,0,8.73,3c.61.33,1.16.7.76,1.53l1,3A8,8,0,0,0,160,111Z"/><path class="cls-225" d="M608,108l-4,0-5-.18c4.26-1.9,8.72-.49,13.07-.82C610.91,108.42,609.36,107.86,608,108Z"/><path class="cls-259" d="M370,36c0-5.12-.11-10.25.05-15.37.06-1.71-1.13-4.82,1.68-4.71a5.61,5.61,0,0,1,5.15,4.64A31.85,31.85,0,0,1,377,25c-1.93,1.34-3.11-.53-4.6-1.43-.26,2.28,0,4.21-.1,6.14a30.5,30.5,0,0,1-.31,5,3.78,3.78,0,0,1-.65,1.3A1,1,0,0,1,370,36Z"/><path class="cls-260" d="M371,30V21.78c2.68.18,3.44,3.44,6,3.25q0,5,0,10C373.37,35.26,372.61,32.13,371,30Z"/><path class="cls-261" d="M377,41q0,3,0,6c-4.2.52-5.27-2.59-6.44-5.57.17-1.81-.51-3.69.45-5.43h0C374.63,35.7,375.38,38.87,377,41Z"/><path class="cls-262" d="M377,41l-6-5q0-3,0-6l6,5Q377,38,377,41Z"/><path class="cls-263" d="M371,42c2.18,1.44,3.07,4.42,6,5q0,2.5,0,5l-6-5A5.69,5.69,0,0,1,371,42Z"/><path class="cls-262" d="M371,42q0,2.5,0,5,0,4.5,0,9a2.48,2.48,0,0,1,.34,2.85A.91.91,0,0,1,370,59l0-3a3.09,3.09,0,0,1,0-4q0-2.5,0-5,0-5.49,0-11l1,0Q371,39,371,42Z"/><path class="cls-58" d="M357,7c2,.21,4.17-.49,6.52.63-2,2.11-4.43,1.08-6.52,1.36A1.34,1.34,0,0,1,357,7Z"/><path class="cls-264" d="M357,7q0,1,0,2h-4q0-1,0-2Z"/><path class="cls-190" d="M384,9.06c-1.75,1.72-4,.63-5.93.93C379.73,7.93,382,9.32,384,9.06Z"/><path class="cls-265" d="M292,40c.19-4.64.64-9.29-.28-13.92,3.68-1.1,4.32,3.65,7.34,3.8,2,5.19.68,10.13-1.13,15C294.52,45,293.25,42.52,292,40Z"/><path class="cls-132" d="M299.07,29.88c-.2,1.07-.43,2-1.77.91-1.88-1.54-3.08-3.88-5.56-4.71A24.94,24.94,0,0,0,280,11.86c-.13-.87,0-1.43,1.06-.93a8,8,0,0,1,5.18,1.9,79.42,79.42,0,0,0,10.89,10.88Z"/><path class="cls-266" d="M292,40l5.93,4.92c-.5,3.17-2.64,5.18-5,7-2.49-.3-4-1.54-4.08-4.19Z"/><path class="cls-267" d="M297.17,23.71c-.63,1-1.39.72-1.91,0-2.77-3.82-8-5.63-9-10.89A18.43,18.43,0,0,1,297.17,23.71Z"/><path class="cls-268" d="M249,18c5.41,1.51,5.15,5.86,5.09,10.11l0-.06c-3.23.12-4.61-2-5.53-4.62C248.72,21.62,248,19.74,249,18Z"/><path class="cls-269" d="M249,18q0,3,0,6a8,8,0,0,1,1.33,4.68,7.78,7.78,0,0,1-.83,4,1,1,0,0,1-1.41.3l-.17-2q0-1.53,0-3.05c-.64-1.33-1.2-2.65,0-4q0-1.49,0-3l.29-5Z"/><path class="cls-270" d="M285.95,50.87l2-2A28.79,28.79,0,0,1,292,53l-3,2h-1C286,54.28,284.83,53.15,285.95,50.87Z"/><path class="cls-27" d="M292,53a4.26,4.26,0,0,1-4-4.14l.92-1.09L292.94,52Z"/><path class="cls-271" d="M281.1,10.93l-1.06.93A4.51,4.51,0,0,1,276,10C277.73,10.08,279.58,9.54,281.1,10.93Z"/><path class="cls-272" d="M695.07,57.92l26.83,0A2,2,0,0,1,723,60.05l-16-.1c-2.13-1.77-4.67-.59-7-1C698.35,58.73,696.42,59.67,695.07,57.92Z"/><path class="cls-272" d="M723.84,62,723,61a5.64,5.64,0,0,0,0-1c2.27-.06,3.18,1.91,4.66,3,1,.75,1.72,2.79,3.42.89a2.17,2.17,0,0,1,1,2q0,1,0,2C728.05,67.69,727.23,63.1,723.84,62Z"/><path class="cls-273" d="M700.86,38a6.77,6.77,0,0,1-1.69,5.28c-.69-.13-.78-.79-1.09-1.26l.94-4a4.75,4.75,0,0,1,.8-.11Q700.41,37.22,700.86,38Z"/><path class="cls-274" d="M703.84,30a7.17,7.17,0,0,1-1.72,5.23c-1-.43-.36-1.61-1-2.17L702.92,30C703.26,29.47,703.56,29.51,703.84,30Z"/><path class="cls-94" d="M701.09,33.07c.86.48.91,1.35,1,2.17.3,1.26-.92,1.81-1.27,2.77l-1-.11Z"/><path class="cls-133" d="M708,20.06a2,2,0,0,1-1.93,2.28c0-1.28-.48-2.81,1-3.52C707.81,18.45,707.91,19.46,708,20.06Z"/><path class="cls-147" d="M703.84,30q-.46,0-.92,0A6.88,6.88,0,0,1,704,26c1-.2,1.49,0,1,1.11Z"/><path class="cls-275" d="M705.09,27.15,704,26A2.87,2.87,0,0,1,706,23C706,24.48,706.66,26,705.09,27.15Z"/><path class="cls-152" d="M610,5,600.94,5a17.18,17.18,0,0,1,12.14,0Z"/><path class="cls-157" d="M516,61q0-4.5,0-9a1.33,1.33,0,0,1,2,0q0,1,.1,1.92-.08,3.52-.16,7A1.22,1.22,0,0,1,516,61Z"/><path class="cls-175" d="M516,37h1.92q0,4,.05,8a1.29,1.29,0,0,1-2,0Q516,41,516,37Z"/><path class="cls-104" d="M516,45h2q0,3.5,0,7h-2Q516,48.5,516,45Z"/><path class="cls-276" d="M461,105.07A22.33,22.33,0,0,1,455,99C458.45,99.58,460,102,461,105.07Z"/><path class="cls-277" d="M162,7c1.75-.72,2-2.26,2.1-3.88,2.11-.51,4,.61,6,.88l-.22,2c-2.59,7.91-7.51,11.61-13.72,10.35-1.06-2.32,1-3.13,2.23-4.09a6.71,6.71,0,0,0,3-4.16A2.45,2.45,0,0,1,162,7Z"/><path class="cls-278" d="M156,16c7.2.26,10.56-4.83,13.86-10,.14,4-1.63,7.85-.81,11.89a1,1,0,0,1,0,1.36,3.33,3.33,0,0,1-2.9.39c-1.54-.71-3-1.54-4.84-1.34-2-.12-4.17.31-6-.93C154.59,16.43,154.89,16,156,16Z"/><path class="cls-279" d="M168.94,18.86a4.37,4.37,0,0,1,.11-1,10.17,10.17,0,0,1,6.1,2A2.09,2.09,0,0,0,174,22c-.89.59-1.71.19-2.55-.14C170.28,21.13,169.14,20.4,168.94,18.86Z"/><path class="cls-280" d="M447,43q0-1.5,0-3,0-2.49,0-5c1-1.23.07-2.85.81-4.14,3.74-1.19,4.68,1.73,6,4.09v6c-1.51.41-2.35-.71-3.36-1.45-1.19-.86-1.22.07-1.32.89a4.5,4.5,0,0,1-.85,2.59A1,1,0,0,1,447,43Z"/><path class="cls-36" d="M448,22c.2-1.71-.44-3.51.53-5.39,4,2.45,6.39,5.49,5.33,10.38C450.59,26.86,449.2,24.55,448,22Z"/><path class="cls-128" d="M453.76,70l0,6c-3-.57-4.38-3.14-6.2-5.17-.15-1.65-.07-3.31-.06-5a1.29,1.29,0,0,1,.77-1.09C451.32,65.22,452.66,67.47,453.76,70Z"/><path class="cls-281" d="M448,43V40c3.46-.14,4.51,2.55,5.8,5q0,2.5,0,5c-3.34-.09-4.64-2.67-6.15-5C447.53,44.26,447.38,43.56,448,43Z"/><path class="cls-125" d="M448,22l5.86,5q0,2.5,0,5c-3.38-.41-5.09-2.71-6.3-5.57.15-1.47-.47-3,.46-4.41Z"/><path class="cls-44" d="M453.8,53q0,2.5,0,5c-3.42-.16-4.82-2.71-6.22-5.27a18.32,18.32,0,0,1,.11-4.31C451.59,47.41,452.3,50.71,453.8,53Z"/><path class="cls-282" d="M453.76,70,448,65c-.9-1.43-.34-3-.43-4.51,3.56-.43,4.5.39,6.22,5.44Z"/><path class="cls-283" d="M453.78,65.93C452.1,63.71,450.5,61.42,448,60c-.84-1.12-.39-2.39-.42-3.61,4.06-1.19,4.62,2.37,6.2,4.56Q453.78,63.44,453.78,65.93Z"/><path class="cls-190" d="M453.8,45,448,40l.27-3.86L453.81,41Q453.81,43,453.8,45Z"/><path class="cls-163" d="M448,27l5.84,5q0,1.49,0,3c-2.15-1-3-3.89-5.82-4A4,4,0,0,1,448,27Z"/><path class="cls-240" d="M453.78,61,448,56a2.44,2.44,0,0,1,0-3L453.79,58Q453.78,59.45,453.78,61Z"/><path class="cls-122" d="M453.8,53,448,48l-.43-.51c0-.86-.31-1.76.42-2.5l5.81,5Q453.8,51.46,453.8,53Z"/><path class="cls-36" d="M448,27q0,2,0,4c-.14,1.38.45,2.94-1,4q0-3.51,0-7,0-3,0-6h1Q448,24.5,448,27Z"/><path class="cls-284" d="M448,71l5.78,4.94L453,77l-5-4A1.36,1.36,0,0,1,448,71Z"/><path class="cls-285" d="M193.87,41l.16,1c0,.22.07.43.11.65A30.64,30.64,0,0,0,196.22,49a6.58,6.58,0,0,1,.47,3.62c-.63,3.06-.24,6.16-.35,9.23a30.09,30.09,0,0,1-.89,6.17,17.47,17.47,0,0,1-2.15,7.27c-1.08,2.15-1.69,4.6-3.76,6.14-3.57,2.11-5.92,5.61-9.16,8.09a17,17,0,0,0-4.23,3A22.88,22.88,0,0,1,172,94.7a9.69,9.69,0,0,1-2,.47c-1.63.06-3.24.89-4.91.19a3.33,3.33,0,0,1-1.33-3.22,3.43,3.43,0,0,1,.93-1.08c3.31-2,7.61-2,10.45-5,6.38-6,11.44-12.84,14.23-21.22a6.67,6.67,0,0,0,1.38-4.53c0-2.18,0-4.35,0-6.52a7.4,7.4,0,0,0-1.3-4.58,78.85,78.85,0,0,1-2.84-8.52c.63-2.06.56-4.42,2.48-5.95a2.56,2.56,0,0,1,2.36,1C192.68,37.21,192.87,39.28,193.87,41Z"/><path class="cls-286" d="M193.87,41c-1.89-1.12-2.54-3-2.87-5-1.41-2.13.43-3.25,1.48-4.55,1.53-1.87,3.65-3.23,4.79-5.44a4.89,4.89,0,0,1,1-1.54A15.52,15.52,0,0,1,200,23l.92,0c-.13,2.36,1.31,4.17,2.16,6.19a41.18,41.18,0,0,1-5.32,4.23C194.7,35.17,193.3,37.49,193.87,41Z"/><path class="cls-287" d="M209.78,41.84l.15,4.17a63.21,63.21,0,0,1-8.38,8.25c-1.35,1-2.7,2.52-4.79,1.76a3.43,3.43,0,0,1-.66-2.65c.2-3.95,3.8-5.67,5.63-8.56C204.19,43.23,207.87,44.93,209.78,41.84Z"/><path class="cls-288" d="M201.72,44.82c1.77,2.08-.87,2.35-1.5,3.35C199.2,49.8,197,50.68,197,53c-.9.19-1.47.07-1-1L195,49c.35-2.41-1.32-4.45-1.22-6.81L194,42C196.25,43.85,198.42,45.87,201.72,44.82Z"/><path class="cls-289" d="M516,61l1.9,0q0,4,0,8C514,67.12,516.84,63.61,516,61Z"/><path class="cls-290" d="M171.95,21.09,174,22,179.92,25c1.87,1.05,3.84,2,4.58,4.26.29,2-.75,3.23-2.45,4-4.25-1.17-7-4.58-10.34-7.07.94-2.93-2.76-1.2-3-3C169.07,21.49,170.62,21.44,171.95,21.09Z"/><path class="cls-291" d="M200,23a2,2,0,0,1-1,2c-3.65-.38-6.46-3.16-10.11-3.51-.68-.26-1.21-.62-.9-1.49q0-2,.08-4C192.18,18.12,196.48,19.89,200,23Z"/><path class="cls-292" d="M188,20l1,1a2,2,0,0,1,.51,1.27c-.95,2.7-3.36,3.79-5.59,5.1-1.32-.21-2.29-.72-1.93-2.33C184.1,23.5,184.13,19.48,188,20Z"/><path class="cls-293" d="M182,25l2,2a1.4,1.4,0,0,1,.4,1.58L184,29a12.24,12.24,0,0,1-4.08-4Z"/><path class="cls-11" d="M254.16,52.9c7.32,3.62,15,3.66,22.82,2.26.69,1.27,1.15,2.55,0,3.83l-9,0-8-1C256.93,57.58,253.67,57.36,254.16,52.9Z"/><path class="cls-30" d="M277,59c0-1.28-1-2.55,0-3.83l4-1.29C281,55.33,284.08,56,282,58l-4,1Z"/><path class="cls-190" d="M377,84l-6-5c-1-2-.27-4.18-.45-6.26,1-2,2.17-.61,3.15,0,1.64,1,2.33,2.76,3.29,4.3Z"/><path class="cls-294" d="M371,59l0-3c4.81,1.65,7,4.83,6,10-3.46,0-4.73-2.67-6.28-5A1.92,1.92,0,0,1,371,59Z"/><path class="cls-90" d="M377,77l-6-5c-.85-1.13-.4-2.42-.41-3.65,4.08-1.14,4.72,2.44,6.37,4.64Z"/><path class="cls-163" d="M377,73l-6-5c-.85-1.15-.41-2.45-.4-3.69,4.67-1,4.85,3.11,6.36,5.69Z"/><path class="cls-295" d="M377,70c-1.89-2.09-3.38-4.58-6-6a2.4,2.4,0,0,1,0-3L377,66Q377,68,377,70Z"/><path class="cls-190" d="M371,80q0,1.51,0,3,0,2.5,0,5,0,3.5,0,7l-1,1,0-1q0-4,0-8,0-3.49,0-7h0C370.32,79.56,370.64,79.53,371,80Z"/><path class="cls-296" d="M640,82c2.72,2,5.65,3.87,4.9,8C642.24,88,639.4,86,640,82Z"/><path class="cls-297" d="M448,53q0,1.5,0,3,0,2,0,4,0,2.5,0,5h0c-.3.44-.62.47-1,0q0-1.52-.08-3,0-4.5,0-9,0-2.5,0-5c.33-.44.66-.47,1,0h0Q448,50.5,448,53Z"/><path class="cls-282" d="M447,65l1,0q0,3,0,6,0,1,0,2,0,2.5,0,5,0,1-.06,2L447,80q0-3.49,0-7Q447,69,447,65Z"/><path class="cls-298" d="M194,88l-1,1a5.58,5.58,0,0,1-4,4l-1,1c-2.21,2.07-3.69,5.1-7.18,5.51a3,3,0,0,1-2.1-3.43c6.63-4.93,11.65-11.7,18.51-16.37a2,2,0,0,1,1.54,1.41C199.35,84.91,196.2,86.13,194,88Z"/><path class="cls-8" d="M181,99c2.69-1.15,3.66-4.71,7-5q0,2,0,4c-1.24,1.94-2.1,4.34-5,4.33C181.66,101.59,180.42,100.83,181,99Z"/><path class="cls-8" d="M194,88c.34-2.93,4.59-3.63,4-7.07,1.82-.49,2.93.35,3.63,1.95.22,2.73-1.17,4.32-3.66,5.13Z"/><path class="cls-299" d="M189,93a10.36,10.36,0,0,1,4-4c1.08.58,2.24,1.26.89,2.54s-2.35,3.19-4.4,3.75Z"/><path class="cls-252" d="M183.14,102,188,98a1.82,1.82,0,0,0,2,2l-1,1.08-3.9,2.93-1,0C183.14,103.66,182.52,103.12,183.14,102Z"/><path class="cls-252" d="M198,88c.68-1.83,3.08-2.63,3-4.94,1.33-.8,2.17,0,3,.89v1l-1,1-2.85,3A2.2,2.2,0,0,1,198,88Z"/><path class="cls-300" d="M249,87c3.34,2.07,5.67,4.7,5,9l-5-4a2.46,2.46,0,0,1,0-3Z"/><path class="cls-110" d="M249,89v3c-.12,1.37.39,2.88-.87,4q-.13-3-.27-6l.24-1Z"/><path class="cls-31" d="M371,80l-1,0q0-5,0-10,0-4,0-8,0-1.49,0-3l1,0q0,1,0,2,0,1.5,0,3,0,2,0,4t0,4q0,3.5,0,7Q371,79.49,371,80Z"/><path class="cls-263" d="M254,48l.07,5c-3.4-2-5.77-4.64-5.06-9C252.16,43.46,252.63,46.29,254,48Z"/><path class="cls-301" d="M254,48l-5-4q0-.5,0-1c-.77-.92-.48-1.93-.26-2.94,2.38-1.06,4,0,5.25,1.94Q254,45,254,48Z"/><path class="cls-263" d="M249,40q0,1.5,0,3h-1q0-1.5-.08-3t0-3q0-1.5,0-3l.19-1,.91,0a3.45,3.45,0,0,1,1.17,2.21C250.32,36.94,250.37,38.64,249,40Z"/><path class="cls-90" d="M448,48h-1q0-1.5,0-3,0-1,0-2h1q0,1,0,2Q448,46.5,448,48Z"/><path class="cls-302" d="M370,52q0,2,0,4c-2.35-1.84-5.17-3.34-5-7C366.84,49.7,367.67,52.1,370,52Z"/><path class="cls-303" d="M183.14,102l1,2a31.54,31.54,0,0,1-13.92,5.71c-.41-2,.29-4.13-1.06-5.93-1.92-1.82-1.47-4-1-6.21a4.93,4.93,0,0,1,3.54-2.88c2-.65,4-2.28,6.24-.57a2.46,2.46,0,0,1,.95,1.9L181,99Z"/><path class="cls-100" d="M696.05,51.11,694.79,57c-1.36.95-2.64,1.66-2.77-1l3.12-5.93C696,49.92,696.6,50,696.05,51.11Z"/><path class="cls-95" d="M247.86,24q0,2,0,4c-3-2.83-7.31-4.74-6.85-9.94Z"/><path class="cls-246" d="M169.1,97q0,3.39,0,6.78A15.51,15.51,0,0,1,164,109l-1-1c-1.05-1-3.11-1-3.23-3,2.7-2.65,5.42-5.27,8-8A1.34,1.34,0,0,1,169.1,97Z"/><path class="cls-304" d="M197.07,56c5.12-2.26,7.56-8,12.86-10q.06.49.14,1,0,1-.06,2c-1,1.39-2.42,2.32-3.4,3.7s-1.46,2.78-2.57,3.92c-1.51,1.2-2.86,2.6-4.42,3.71-1,.7-2.12,1.73-3.27.12C196,58.86,195.66,57.29,197.07,56Z"/><path class="cls-246" d="M206,52c.88-1.62,2-2.91,4-3,1.94,4.55.54,9.35,1,14l-1,2.08-.57-.48C208.49,60.36,207.88,56,206,52Z"/><path class="cls-305" d="M696.05,51.11l-.91-1q0-1-.06-2l2-3c1-.17,1.53,0,1,1.15C697.43,47.83,697.49,49.78,696.05,51.11Z"/><path class="cls-306" d="M698.1,46.18l-1-1.15a4.29,4.29,0,0,1,1-3l1.09,1.26C699.19,44.39,699.35,45.55,698.1,46.18Z"/><path class="cls-307" d="M285.95,50.87c-.11,1.77,1.44,2.72,2.05,4.13a2.08,2.08,0,0,1-2,1c-.51-1.35-2.08-2.16-2-3.83Z"/><path class="cls-123" d="M210.09,65.07l-.86,4.82-.5.29A4.35,4.35,0,0,1,203,70c-.23-3.37,2.62-4.45,4.61-6.17,1.18-.45,1.82.24,2.37,1.13Z"/><path class="cls-308" d="M202.79,69.14c1.81,1.32,4,.65,5.94,1l.12,3.55A12.07,12.07,0,0,0,206.94,79l-3,5-3-.89-3-2.14L197,80.12a2.66,2.66,0,0,1-2.71-1,4.65,4.65,0,0,1-1-4.33c1.37-2.1,1-5.19,3.61-6.6A7.65,7.65,0,0,1,200,67.8,3.4,3.4,0,0,1,202.79,69.14Z"/><path class="cls-59" d="M50,25V35c-3.26.22-4.4-2.45-6-4.44a4,4,0,0,1-.41-1.4c0-1.72,0-3.45,0-5.17-.21-2.92.57-4.2,3.45-2.13A23.33,23.33,0,0,1,50,25Z"/><path class="cls-245" d="M50,25c-2,0-2.85-1.86-4.29-2.75C43,20.58,44.46,23.31,44,24q-.5.68-1,0c-.35-2.86.68-5.49,1.39-8.48C48,17.83,50.77,20.34,50,25Z"/><path class="cls-262" d="M44,30l6,5q0,3,0,6c-3.67-.14-5.25-2.68-6.45-5.65C43.71,33.57,43,31.71,44,30Z"/><path class="cls-71" d="M50,49l0,6c-3.57-.05-4.87-3-6.72-5.26a5.19,5.19,0,0,1,.24-4.46C47.15,44,48,47.45,50,49Z"/><path class="cls-245" d="M43,51c-3.31-2.09-5.7-4.68-5-9,2.29-.9,2.81,2.64,5,2A10.75,10.75,0,0,1,43,51Z"/><path class="cls-49" d="M50,49c-2.84-.06-3.7-3.09-6-4-.76-.82-.42-1.84-.5-2.78a6.32,6.32,0,0,1,.22-2.16c3.88-.63,4.6,2.75,6.25,4.94Z"/><path class="cls-69" d="M50,45l-6-5a3.88,3.88,0,0,1,0-4l6,5Q50,43,50,45Z"/><path class="cls-309" d="M44,50l6,5q0,1.49,0,3l-6-5c-.59-.49-.49-1.18-.5-1.83A1.52,1.52,0,0,1,44,50Z"/><path class="cls-116" d="M28,7c2.8.14,5.68-.44,8.4,1-2.71,1.43-5.59.81-8.38,1A1.33,1.33,0,0,1,28,7Z"/><path class="cls-236" d="M28,7l0,2-9,1c.68-1.3,3.16-.78,3-2.94Z"/><path class="cls-235" d="M44,36q0,2,0,4l0,2q-.48.69-1,0,0-6,0-12,.49-.68,1,0h0Q44,33,44,36Z"/><path class="cls-236" d="M43,42h1q0,1.51,0,3,0,2.5,0,5,0,.49,0,1-.48.69-1,0h0q0-3.5,0-7Z"/><path class="cls-310" d="M58.94,9.07A4.55,4.55,0,0,1,53,9Z"/><path class="cls-245" d="M44,30H43q0-3,0-6h1Q44,27,44,30Z"/><path class="cls-243" d="M67,10c-1.69-.2-3.58.62-5-1C63.69,9.21,65.58,8.36,67,10Z"/><path class="cls-311" d="M125.15,102A7.51,7.51,0,0,1,125,101a2.45,2.45,0,0,1,.57-2.57c3.16-2.94,5.63-6.59,9.31-9a4.33,4.33,0,0,1,3.68,1.75,2.51,2.51,0,0,1,.42,2.64c-4.33.5-5.43,4.54-7.81,7.16A4.73,4.73,0,0,1,125.15,102Z"/><path class="cls-312" d="M144.89,103.73l.07-6.67c-.44-1.18.16-1.93,1.06-2.56,2.59-.84,5,.2,7.42.77a2.08,2.08,0,0,1,1,1.08c-1.08,4.51-5,6.68-8.15,9.34C144.67,107.11,144.46,105.13,144.89,103.73Z"/><path class="cls-304" d="M144.89,103.73c.25.65.39,2.22,1.23,1.37,2.81-2.85,6.68-4.85,7.88-9.1a1.51,1.51,0,0,1,1.13-.35,3.94,3.94,0,0,1,2.11,1.25A.93.93,0,0,1,157,98c-4.12,1.1-5.9,5-8.92,7.44-1.4,1.13-2.71,2.37-4.06,3.56C144,107.19,143.72,105.34,144.89,103.73Z"/><path class="cls-313" d="M146,95l-1,2.06-6-3.22L138,92C141.56,90.63,144.43,91.09,146,95Z"/><path class="cls-314" d="M125.15,102c2.11.42,4-.73,6-.95.19,1.23-.82,1.93-1.29,2.88L125,103Z"/><path class="cls-315" d="M125,12l4-1.25a13.46,13.46,0,0,1,5,5.93c.42,1.32.71,2.89-.4,3.76-5.49,4.3-9.73,10-15.32,14.13a2.29,2.29,0,0,1-1.47.17c-2.49-1-5-1.93-5.88-4.83-.56-2.17,1-3.41,2.1-4.87,1.92-1.86,4.36.27,6.37-.84a8.25,8.25,0,0,0,4.6-4.3,4.7,4.7,0,0,0,.34-3.09,4.63,4.63,0,0,1,.44-3.93Q125,12.46,125,12Z"/><path class="cls-316" d="M117.1,34a61.58,61.58,0,0,0,11.08-10.38c1.91-2.38,6-2.86,6-6.89,1.63,1,2.18,3.58,4.74,3.24,1-.61,1.87-.5,2.38.69-.29,1.68-1.71,2.26-2.92,3.06A36.84,36.84,0,0,0,126.67,34c-1.28,1.66-2.28,3.64-4.41,4.47a3.71,3.71,0,0,1-2.64-.84C118.67,36.51,116.49,36.18,117.1,34Z"/><path class="cls-317" d="M145.09,13c2-1.93,5.66-2.24,5.89-5.95l3,1.05a2.36,2.36,0,0,1,1.82,1c1,1.55.7,3.08-.83,3.85-3.05,1.54-4.76,4.63-7.66,6.3a2.26,2.26,0,0,1-1.41.06c-.86-.6-1.43-1.31-.94-2.44Z"/><path class="cls-318" d="M144.91,16.84l1.16,1.93c-1.2,1.92-2.51,3.55-5.1,2.12l-2.09-1Z"/><path class="cls-319" d="M107.08,70.22c-1.31-.32-3.3.27-3-2.23a69.92,69.92,0,0,1,9.48-8.78c1.42-1,2.76-2.64,4.82-1.17a6.58,6.58,0,0,1,.92,3.58c0,1.7.68,3.39.19,5.11-.92,1.91-2.91,1.5-4.46,2.06Z"/><path class="cls-320" d="M113.09,88.94c-1-1.46-2.53-2.67-2-4.76l9-7.19a2.08,2.08,0,0,1,2.9-1.39A2.8,2.8,0,0,1,124.46,78c-.7,4.8-5.11,6.93-7.53,10.5C115.73,89.31,114.53,90.19,113.09,88.94Z"/><path class="cls-321" d="M115,68.79A6.66,6.66,0,0,1,118.82,67a3.22,3.22,0,0,1,1.73,3.68A2.09,2.09,0,0,1,119,72.05C117.72,70.89,117.45,68.53,115,68.79Z"/><path class="cls-322" d="M119,72.05l.8-1.16c2.46.87,3.95,2.32,3.06,5.17l-2.69.92Z"/><path class="cls-323" d="M38,63c1.2-1.79,1.2-1.79,5,1,1.18,1,1.23,2.42,1.14,3.84A3.16,3.16,0,0,1,43,70C40.64,68.16,37.82,66.65,38,63Z"/><path class="cls-324" d="M43,85a15.35,15.35,0,0,1-5-5l.22-3.72L43,80a5.85,5.85,0,0,1,0,5Z"/><path class="cls-324" d="M43,70V68l.72-.31a2.17,2.17,0,0,1,1.06,1.11,17.46,17.46,0,0,1,.51,5.5A5,5,0,0,1,44,78q0,.49,0,1c-.33.45-.66.47-1,0Z"/><path class="cls-242" d="M43,79h1q0,2,0,4,0,1,0,2H43q0-2.5,0-5Q43,79.5,43,79Z"/><path class="cls-325" d="M44,74V68c3.54-.19,4.41,2.79,5.93,5v6C46.38,79.24,45.61,76.14,44,74Z"/><path class="cls-169" d="M44,58C47.35,60.54,50.88,63,50,68c-3.68,1.07-4.85-1.73-6.32-4.09a30.73,30.73,0,0,1-.07-5.3Z"/><path class="cls-111" d="M44,74,50,79q0,2.5,0,5c-2.83-1.15-3.08-4.86-5.94-6Q44,76,44,74Z"/><path class="cls-163" d="M44,64c2.27.91,3.14,3.91,6,4q0,2.49,0,5L44,68H44A4,4,0,0,1,44,64Z"/><path class="cls-323" d="M43,51h1q0,1,0,2,0,2.5,0,5l0,0c-.32.45-.64.48-1,0l0-1Q43,54,43,51Z"/><path class="cls-326" d="M157,98q0-.46,0-.92c1.42-1.58,3.18-1.3,5-1a3.26,3.26,0,0,1,1.21.8c0,3.63-3.39,4.66-5.24,6.87a4.34,4.34,0,0,1-2.28,1.19l-.64,0a3.06,3.06,0,0,0-3,2c-1.57.9-2.91,2-3,4-2.87-.46-1.66-1.78-.55-2.93,2.41-2.49,4.94-4.87,7.31-7.41C156.41,100,158.18,99.59,157,98Z"/><path class="cls-327" d="M117.1,34l3,3c1.18,2,.47,3.82-.45,5.64-3.92,4.68-8.08,5.07-12.57,1.18l-2.1-.94a54.73,54.73,0,0,1,5.11-13.07,1.58,1.58,0,0,0,1,.12Z"/><path class="cls-328" d="M107.1,43.82c4.17.66,8.73,3.55,11.82-2a2.3,2.3,0,0,1,1.59,1.36,4.62,4.62,0,0,1-1.05,4c-3.78,1.76-5.32,7.27-10.69,6.42a4.45,4.45,0,0,1-1.85-1.05c-1.78-1.48-4.5-2.47-3-5.68C103.49,44.29,105,43.79,107.1,43.82Z"/><path class="cls-329" d="M103.9,46.85c-.69,3.32,3.41,2.91,4.06,5.19-.77,3.89-1.12,7.86-2.06,11.73a2.15,2.15,0,0,1-1.56,1.46c-1.48-.68-.36-2.32-1.2-3.24C103.11,56.93,102.31,51.83,103.9,46.85Z"/><path class="cls-330" d="M103.15,62c1,.8.85,2,1,3a1.52,1.52,0,0,1-.26,2.12L103,66Z"/><path class="cls-230" d="M43,58l1,0q0,3,0,6,0,2,0,4H43q0-2,0-4Q43,61,43,58Z"/><path class="cls-331" d="M120,25c-2.28,2.39-4.58-.57-6.86,0a2.12,2.12,0,0,1,.16-.91c2.92-2.65,5.1-6.05,8.43-8.28,2.23-.16,1.32,1.25.91,2.08-1,1.92-3,3-3.94,5a1.49,1.49,0,0,0,.65,1.3A2.25,2.25,0,0,1,120,25Z"/><path class="cls-332" d="M117,24c.09-2.49,2.37-3.44,3.58-5.14.61-.86,2.68-1.26,1.19-3l3.16-3,1,4.12C123,19.41,121.53,23.65,117,24Z"/><path class="cls-333" d="M126,99l-1,2a7.34,7.34,0,0,1-3-3c-.9-3.14-4.53-5.37-3.06-9.29a3.12,3.12,0,0,1,1.32-.51,2.77,2.77,0,0,1,2.46,1.26c1.3,2.48,2.15,5.19,3.77,7.51A2,2,0,0,1,126,99Z"/><path class="cls-334" d="M120,89l-1,0c-2.11,2,2,4.07,0,6.09L117,94A12.45,12.45,0,0,0,113,89.88a7.41,7.41,0,0,1,0-.95L117,88a2.22,2.22,0,0,1,2.83-.36A.94.94,0,0,1,120,89Z"/><path class="cls-335" d="M119,95.1c1-2-4-4.08,0-6.09,0,3.33,3.74,5.44,2.94,9A6.81,6.81,0,0,1,119,95.1Z"/><path class="cls-336" d="M103.85,67.16l.26-2.12.88-1c3.14-3,3.34-7.08,4-11,4.66.21,5.82-5.31,9.9-6,1.13,1,.6,2.16.28,3.29a11,11,0,0,0-.7,6.55,1.64,1.64,0,0,1-.58,1.17c-3.45,1.39-6,4-8.56,6.51-1.54,1.54-3,3.1-5.22,3.5A1.38,1.38,0,0,1,103.85,67.16Z"/><path class="cls-337" d="M155,9.07l-1.06-1A10.86,10.86,0,0,1,162,7q0,.48-.06,1C160.06,11,157.59,10.41,155,9.07Z"/><path class="cls-252" d="M160,105l3,3c-3-.15-6-.19-8-3l0,0C156.66,104.41,158.33,103.6,160,105Z"/><path class="cls-307" d="M249,35q0-1,0-2,0-2,0-4c3.18-.54,3.62,2.38,5.08,4l-.1,6C250.84,39.52,250.37,36.7,249,35Z"/><path class="cls-59" d="M254.09,33,249,29q0-2.5,0-5l5.06,4.05Q254.08,30.53,254.09,33Z"/><path class="cls-269" d="M249,35l5,4q0,1.5,0,3l-5-2Q249,37.5,249,35Z"/><path class="cls-338" d="M155,9.07c2.35-.14,4.8.33,6.95-1.1.53,2.05.15,3.61-2,4.63a8,8,0,0,0-4,3.4l-1,.85c-1.1,1.63-3,1.23-4.54,1.92-1.14.27-2.29,1-3.45.07,2-2.72,4.12-5.26,7.31-6.62C156,11.49,155.54,10.29,155,9.07Z"/><path class="cls-339" d="M171.95,21.09,169,23a9.39,9.39,0,0,1-3,1.38,4,4,0,0,1-1.9-.58c-1.67-.94-3.41-.43-5.14-.26a14.26,14.26,0,0,1-3.54-.5,3.93,3.93,0,0,1-2.9-2.33,2.65,2.65,0,0,1,1.88-3.13c2.41-.13,4.82,0,7.22-.06,1.71-.25,3.08.61,4.46,1.4l2.9,0Z"/><path class="cls-340" d="M162,18,154,18c-1.46.85-2.9,1.32-4.26-.17,1.55-1.35,3.5-.67,5.24-1l7,.29q.53.25.38.54C162.23,17.88,162.12,18,162,18Z"/><path class="cls-341" d="M162,18q0-.43-.06-.85c1.72-.22,3.22.05,4.09,1.78Z"/><path d="M156.26,22.13l2.77.59c2-.09,4.09-.89,6,.56l1.12.44A7.47,7.47,0,0,1,172,25.9c4,1.53,6.65,4.81,9.9,7.31A8,8,0,0,1,187.14,40l3.09,9c.63,1.42,1.53,2.76,1.25,4.43q0,3.54,0,7.09c.27,1.68-.61,3-1.26,4.45-2.41,8.77-7.73,15.62-14.34,21.6-3.2,2.58-7.33,3-10.9,4.73a44.91,44.91,0,0,1-5.9,1.5,7,7,0,0,1-1.53.17c-4-.7-8.13-.74-12-2-2.89-1.21-5.66-2.67-8.43-4.13-3-2.1-5-5.21-8.15-7.13a5.88,5.88,0,0,1-1.42-1.47,7.64,7.64,0,0,1-.59-1.22c-.45-1.84-1.83-3.06-2.95-4.47a24.11,24.11,0,0,1-3.52-12.28,26.52,26.52,0,0,1,2-15.13c2-2.25,3.18-5,4.55-7.7a7.75,7.75,0,0,1,.74-1.13c2.34-2.67,5.11-4.94,7.3-7.75a8.89,8.89,0,0,1,2.74-2.16,10.29,10.29,0,0,1,1.33-.61C144.51,23,150.12,21.37,156.26,22.13Z"/><path class="cls-342" d="M193.82,75a5.73,5.73,0,0,0,1.28,3.87,2.32,2.32,0,0,1-.73,2.7,181.39,181.39,0,0,1-13.68,13.14c-.77.65-1.66,1.18-2.66.31-2.06-1.71-4,.18-5.94.27a.87.87,0,0,1-.12-1.33,6.34,6.34,0,0,1,4-2,13.55,13.55,0,0,1,3.86-2.49c3.23-2.6,5.69-6,9.05-8.46,1.66-1.67,2.14-4,3.2-6A1,1,0,0,1,193.82,75Z"/><path class="cls-4" d="M193.82,75l-1.71.06c.94-2.26,2.35-4.4,1.92-7a14.37,14.37,0,0,0,1.88-3.47c2.65-2.07,4.44-5.37,8.26-5.77a2.56,2.56,0,0,1,1.28,3c-2.61,2.59-5.15,5.28-8.43,7.08C195.19,70.51,195.09,73.05,193.82,75Z"/><path class="cls-343" d="M158,91.89a.41.41,0,0,1,.66,0c1.8-.43,3.59-.71,5.35.18L165,95a2.28,2.28,0,0,1-2.63,1.5c-2.43-.24-4.93.52-7.32-.46L154,96v0c-1.23-1-3.56-1.79-.89-3.74C154.7,91.42,156.47,93.33,158,91.89Z"/><path class="cls-344" d="M187.14,40l-5.23-6.77c.52-1.49,2.22-2.38,2.09-4.19V29c.72-.38,1.23,0,1.74.46,1.05,1.39,2.58,2.33,3.61,3.75A1.46,1.46,0,0,1,189,35C188.08,36.54,189,38.79,187.14,40Z"/><path class="cls-345" d="M189,35l0-2c0-.24,0-.47,0-.71,1.35-3.28,4.13-5.09,7-6.79a1.94,1.94,0,0,1,2,.5c.55,2.86-2.43,3.26-3.53,5s-3.38,2.59-3.45,5Z"/><path class="cls-346" d="M197.07,56,197,61c.33.81-.13,1.19-.79,1.46A1.42,1.42,0,0,1,195,62c.4-3.34-1.06-6.87,1-10.05l1,1Z"/><path class="cls-347" d="M188.91,81A38,38,0,0,1,180,89.88q-.54-.24-.4-.55c.09-.22.2-.33.3-.33C182.69,86.07,184.77,82.37,188.91,81Z"/><path class="cls-343" d="M164.92,90.91l11-4.33C173.26,90.4,168.53,90,165,92q-.52-.32-.38-.7T164.92,90.91Z"/><path class="cls-348" d="M193.79,42.2c1,2.16,2.54,4.23,1.22,6.81C194.47,46.76,192.19,44.82,193.79,42.2Z"/><path class="cls-349" d="M163,96l2-1,5-.94c.41,1.73-.92,2.08-2.05,2.6-1.62.61-3.2,1.7-5,.39l.05-.13q-.52-.28-.36-.59C162.78,96.11,162.89,96,163,96Z"/><path class="cls-350" d="M191.1,61V53q.44-.68.84,0V61Q191.55,61.68,191.1,61Z"/><path class="cls-351" d="M195,62h1c.9,1,.59,2,0,3A3.24,3.24,0,0,1,194,68Z"/><path class="cls-343" d="M179.93,89a8.5,8.5,0,0,1,.1.89c-1.32.74-2.25,2.24-4,2.08C176.32,89.65,178.15,89.36,179.93,89Z"/><path class="cls-352" d="M168,96l2-2,2-.1.12,1.32-3,1.77L168,97l-.37-.49Z"/><path class="cls-353" d="M164.92,90.91,165,92l-1,0-5.34-.18C160.63,90.76,162.81,91.09,164.92,90.91Z"/><path class="cls-354" d="M191.94,53l-.84,0-.87-4C191.85,49.9,192.13,51.37,191.94,53Z"/><path class="cls-354" d="M191.1,61l.84,0c.18,1.66-.08,3.13-1.72,4Z"/><path class="cls-355" d="M198,26l-2,0c-1.42,1.11-2.74.34-4.06-.23A5,5,0,0,1,189,22q0-.5,0-1c4.24-1,6.82,2.26,10,4Z"/><path class="cls-356" d="M172,25.9l-5.91-2.17c.87-.65,1.59-1.85,2.91-.73C169.58,24.4,173.07,22.8,172,25.9Z"/><path class="cls-357" d="M189,22l3,3c-.53,2.84-3.32,3.61-5,5.41a2,2,0,0,1-2-.42l-1-1q0-1,0-2C184.8,24.48,188,24.29,189,22Z"/><path class="cls-257" d="M178,95c7-4,11.72-10.4,17.06-16.14L197,80.12c-5.58,5.83-10.43,12.48-18.1,15.93Z"/><path class="cls-352" d="M160,105l-5,0a2.11,2.11,0,0,1,2-1c3.93-1.92,6.24-6.39,11-7h0A13.28,13.28,0,0,1,160,105Z"/><path class="cls-358" d="M205,62l-1-3a2.17,2.17,0,0,1,0-3,5.84,5.84,0,0,1,2-4c4.49,3.35,4,8.2,3.94,12.94L208,64c-.86.55-1.5,0-2.16-.44A2.43,2.43,0,0,1,205,62Z"/><path class="cls-359" d="M204,56q0,1.5,0,3c-2.84,1.7-4.56,4.9-7.87,6q0-1.48,0-3l.95-1C199.7,59.84,200.67,56.31,204,56Z"/><path class="cls-360" d="M206,63l2,1a15.51,15.51,0,0,1-5.2,5.13L200,68.88C200.72,65.6,202.83,63.76,206,63Z"/><path class="cls-361" d="M206,63c-2.66,1.28-3.75,4.15-6,5.88h-3c2.3-2.72,4.23-5.86,8-6.89Z"/><path class="cls-353" d="M153,93c-1.18,1.5,1,1.87,1,3-2.77.54-5.3-.94-8-1-2.24-2.14-5.07-2.75-8-3l-3-2a2.66,2.66,0,0,1-1.66-2.24,2.11,2.11,0,0,1,1.49-2.26c1.08-.19,1.72.76,2.63,1,2.39,1.11,4.75,2.29,7.1,3.5C147.05,91.83,150.88,90,153,93Z"/><path class="cls-362" d="M134,88.09l1,1.93c-2.71,3.26-5.44,6.5-8.94,9l0-2a7.45,7.45,0,0,1-1.54-4.61c2-2,4.45-3.66,5.44-6.53C131.94,85.32,132.85,86.9,134,88.09Z"/><path class="cls-363" d="M163,96q0,.45,0,.9l-6,.17c-.78-.11-1.57-.19-1.95-1Z"/><path class="cls-364" d="M117,24c3.47-1.7,4.82-6.12,8.94-7,0,1.11.21,2.26-.89,3-2,1.61-3.59,3.81-6,4.94A2,2,0,0,1,117,24Z"/><path class="cls-365" d="M119,25c1.79-1.92,2.78-4.81,6-4.94a6,6,0,0,1-5,5Z"/><path class="cls-366" d="M138.09,27.09c-.15,1.34-1.51,1.26-2.23,1.92-2.87,2.41-5.75,4.81-7.75,8.05h0c-2,2.25-2.84,5.11-4.09,7.76A28.3,28.3,0,0,0,122.11,60c-1.3.7-1.55,3.49-4,2l-.29-4a2.58,2.58,0,0,0,.12-1c-1.3-2.35.71-4.63.13-7l.75-3.09,1-4a6.21,6.21,0,0,1,2.22-5c4.64-5.8,8.62-12.28,15.85-15.42C139.42,24.05,137.93,25.61,138.09,27.09Z"/><path class="cls-367" d="M138.09,27.09c-3.28-1.35,1.1-3-.18-4.46L141,20.89c2.13.31,3.08-2.19,5.1-2.12a1.2,1.2,0,0,0,.92.08l2.75-1L154,18l-1,3c.19.74,0,1.33-.83,1.38-5.14.3-9.68,2.39-14.13,4.74Z"/><path class="cls-368" d="M122.06,38c-.14,1.92-1.24,3.41-2.22,5l-.92-1.22L120.12,37Z"/><path class="cls-369" d="M118.15,62c1.69.08,2.19-2.22,4-2-.73,4.7,2.23,8.58,2.92,13,1.52,1,1.82,2.83,3,4.05a.41.41,0,0,1,.13.61c0,1.76,1.15,3.48.14,5.26-1,.77-1.76.19-2.55-.39-1.07-1.3-2.08-2.63-1.9-4.46l-1-2c-.49-2-1.93-3.51-3.06-5.17l-1-3.92C119.1,65.24,117.41,63.77,118.15,62Z"/><path class="cls-370" d="M123.86,78c.68,1.33,2.17,2.21,2.18,3.91-.63,3.42-2.51,5.6-6.08,6.08l-3,0c-1.39-2.4,1.48-3,2.24-3.71A27.52,27.52,0,0,0,123.86,78Z"/><path class="cls-371" d="M168,97c-3.83,2.08-6.18,6.48-11,7,1-3.15,4.75-4,6-7l5-1Q168,96.51,168,97Z"/><path class="cls-372" d="M109,53c1.54,5.64.44,8.67-4,11,.51-4.11-.33-8.55,3-12Z"/><path class="cls-357" d="M120,88,126,81.95,128,83.06a2.28,2.28,0,0,1,.69,1.22c-1.53,2.32-1.78,5.76-5.41,6.27a1.87,1.87,0,0,1-1.25-.61,2.11,2.11,0,0,0-2-1Z"/><path class="cls-224" d="M122,89.95l1,0c.83.51,1.84.83,2,2l1,5C123,95.6,123,92.46,122,89.95Z"/><path class="cls-373" d="M118.12,50.08c2.28,2.36-.75,4.63-.13,7C116,54.68,117.26,52.38,118.12,50.08Z"/><path class="cls-374" d="M138,27.12c4.06-4.3,10-3.93,15-6.12l3.26,1.12C149.88,22.67,144,25,138,27.12Z"/><path class="cls-375" d="M165,23.29l-6-.56C161.12,21.72,163.17,21.24,165,23.29Z"/><path class="cls-30" d="M152.15,47c-1.05-4.64-2.91-9.24.18-13.87s6.24-4.76,9.34.05c2.21,3.43,1.77,6.88.45,10.49A36.8,36.8,0,0,0,161,49a1.75,1.75,0,0,1-2,.28c-2-2.47-.71-5-.06-7.49s1.14-4.86-1-6.88a1.32,1.32,0,0,0-1.81,0c-2.05,1.78-1.69,4.08-1.28,6.39a8.86,8.86,0,0,1-.21,5.33,2,2,0,0,1-1.14.88A1.7,1.7,0,0,1,152.15,47Z"/><path class="cls-376" d="M164.85,48.68c1.49-5.95,5.8-8.95,11.27-10.62,2.73-.84,3,.88,2.9,3-.2,4.11-3.25,7.09-4.19,10.9-.52.69-.13,1.75-1,2.33a1.59,1.59,0,0,1-1.22-.3A26.29,26.29,0,0,1,171,51.14c-.8-1-.8-2.48-1.92-3.34-1.81.55-1.57,3.36-3.8,3.38C164.24,50.53,164.56,49.6,164.85,48.68Z"/><path class="cls-377" d="M151.95,73c-1.42-.07-2-3.39-4.07-1-.32.64-.7,1.22-1.52,1.27a1.78,1.78,0,0,1-1-.89c-.75-1,.58-3-1.3-3.21-1.64-.18-2.47,1.33-3.1,2.71-.5.78-.9,1.76-2.15,1.24-1.74-2.7-2.34-5.07,1.6-6.42a2.51,2.51,0,0,0,1.76-2.7c1.92.32,3.89.22,5.81.58a16.43,16.43,0,0,1,2.59,2.18c1.49,1.74,3.76,3,3.74,5.7C153.72,73.55,153,73.8,151.95,73Z"/><path class="cls-378" d="M138.28,51c-.74-.73-1.51-1.44-1.44-2.62-.44-.76-.07-1.27.52-1.71,2.55-.43,3.47-2.36,4.14-4.52A2.21,2.21,0,0,1,143,40.89,13.53,13.53,0,0,1,149,50c.7,1,.55,1.73-.54,2.27-2.62-.44-2.34-3.27-3.71-4.72-1.56.52-1.61,2.1-2.52,3C141,51.66,139.75,52.23,138.28,51Z"/><path class="cls-379" d="M148,65c-2.08.43-4.32,1.9-5.84-1a6.64,6.64,0,0,1-2.44-4.84c.26-.88.38-1.85,1.28-2.38.33,0,.79,0,.89.19,1.46,3.41,3.37,3.24,5.6.75.84,0,1.18.64,1.51,1.28l.09,1.76C150.16,62.54,149.5,63.88,148,65Z"/><path class="cls-380" d="M171.1,63.29,171,65a4.8,4.8,0,0,1-2.18,2.63,5.92,5.92,0,0,1-1.38.39,6.35,6.35,0,0,1-3.58-.52c-1.68-1.28-2.72-2.86-2.4-5.08a2.25,2.25,0,0,1,.93-1.06,8.36,8.36,0,0,1,2-.62,8.93,8.93,0,0,1,2.66-.33,23.49,23.49,0,0,1,4.2,1.62A1.66,1.66,0,0,1,171.1,63.29Z"/><path class="cls-381" d="M138.35,46.89l-1.51,1.45c-3-2.3-1.73-5.71-2.14-8.64-.26-1.85,1.36-2,2.73-1.63,2,.57,4.11,1.13,5.6,2.82l-1.2,1.18C137.75,41.55,139,44.94,138.35,46.89Z"/><path class="cls-382" d="M128,84q0-.48,0-1c.27-1.81-1.06-3.67.18-5.44l.94,1.09c1.76,2.6,5.49,3.59,5.91,7.28a2.25,2.25,0,0,0-1,2.1c-1.71,0-2.58-1.52-4-2.11C128.82,85.86,128.69,84.65,128,84Z"/><path class="cls-383" d="M152.15,47q.4.05.79.07c1.61,1.43.47,3,.5,4.37.49-.26.24-2.59,2-1.1,1.43,4.16-.06,7.66-2.44,11-1.23.21-2.4.34-2.18-1.52C151.44,55.51,152.42,51.3,152.15,47Z"/><path class="cls-384" d="M158.87,76.94c-.59,2.26-.18,6.31-2,6.4-3.36.16-1-4.13-2.64-5.9-.3-.33-.32-.92-.46-1.39.57-.56,1.4-.51,2.06-.86a2.72,2.72,0,0,1,2.21-.38C158.72,75.38,158.29,76.35,158.87,76.94Z"/><path class="cls-385" d="M169,66.92,171,65c3.24,2.25,6.46,4.52,2.94,9-.84.32-1.25-.18-1.56-.84C173.35,69.92,169.71,69.22,169,66.92Z"/><path class="cls-386" d="M172.94,72.9,174,74c-.58,2.19-2.11,3.69-3.72,5.14-3.35,1.61-3.67-.8-4.09-3.08L166.1,74a1.51,1.51,0,0,1,1.76-.37,2.73,2.73,0,0,1,.82.83c.28.38.52.84,1.15.64C170.86,74.34,171.23,72.63,172.94,72.9Z"/><path class="cls-382" d="M153,93c-2.71-1.9-6.51-.42-9-2.89a.72.72,0,0,1,1.21-.22l12.84,2C156.67,93.73,154.7,92.74,153,93Z"/><path class="cls-387" d="M150.85,59.76A2.06,2.06,0,0,0,152.77,61c.71,2.8-1.09,4.41-2.89,6A1.76,1.76,0,0,1,148,65l1.09-4.23Z"/><path class="cls-388" d="M164.95,62l-1.66-.08c-1.77-1-2-2.7-2.09-4.49a2.28,2.28,0,0,1,.63-1.33c2.07-1.16.3-3.83,2-5.13,1.53,1.21,1.42,3,1.53,4.65C165.17,57.73,166.64,60,164.95,62Z"/><path class="cls-389" d="M147,78c.14,1,.41,2.36-.48,2.61-2.17.61-3.39-1.15-4.62-2.58a16.21,16.21,0,0,1,1.42-2c.88-1,.48-3.12,2.62-3l.21-.06C147.51,74.44,145.63,76.5,147,78Z"/><path class="cls-390" d="M161.83,56.09a1.76,1.76,0,0,1,0,.88,1.85,1.85,0,0,1-2.43.06c-2.1-2.62-2.51-5.3-.24-8.05L161,49C162,51.27,160.21,53.88,161.83,56.09Z"/><path class="cls-391" d="M128.1,37.07c1.2-4,4.07-6.43,7.75-8.05Z"/><path class="cls-392" d="M149,59l-1.2-1.31c-1.34-2-1.41-3.87.23-5.7l1-2C150.73,53,150.29,56,149,59Z"/><path class="cls-393" d="M135,86c-1.44-2.86-4.85-4.11-5.91-7.28,3.13,1.92,5.56,4.61,8,7.31q.45.35.29.68t-.32.33Z"/><path class="cls-394" d="M171.1,63.29l-.28-1.62c-.83-1.49.05-2.8.43-4.17.62-1.26.48-2.94,2-3.69A3.94,3.94,0,0,0,174,54a4.83,4.83,0,0,1,.13,4.25A6.13,6.13,0,0,1,171.1,63.29Z"/><path class="cls-395" d="M144,77.25l-2.07.79c-1.27-1.48-2.8-2.81-3.1-4.91a2.5,2.5,0,0,0,1.27-2.25C143.11,71.94,143.18,74.82,144,77.25Z"/><path class="cls-385" d="M164.07,67l4.23.18a3.15,3.15,0,0,1-1.42,3.24,2.13,2.13,0,0,1-2.1-.32l-.3,0h-.3c-.92.42-1.32-.14-1.62-.87A2,2,0,0,1,164.07,67Z"/><path class="cls-180" d="M164.14,56l-.3-5c.25-.8,0-1.82,1-2.29.15.87.22,1.77,1.08,2.31,1.5,1.46,1.37,3.09.51,4.8A1.54,1.54,0,0,1,164.14,56Z"/><path class="cls-369" d="M137.05,87q0-.51,0-1l8.09,3.87-1.21.22Z"/><path class="cls-396" d="M158.87,76.94,158,75c-1.28-2.69.49-3.59,2.54-4.33a1.81,1.81,0,0,1,1.58,1.4C161.46,74,158.87,74.59,158.87,76.94Z"/><path class="cls-391" d="M124,44.84c.3-3.15,1.26-5.95,4.09-7.76A30.27,30.27,0,0,1,124,44.84Z"/><path class="cls-172" d="M141.17,56.73a3.09,3.09,0,0,1-1.45,2.44c-1.25-1.6-.72-3.41-.65-5.18a1.65,1.65,0,0,1,2.12-.14A2.25,2.25,0,0,1,141.17,56.73Z"/><path class="cls-397" d="M156.11,75.74c-.6,1.29-1.51.38-2.29.31l-1.87-3,2-.79C156.65,72.2,156.18,74.09,156.11,75.74Z"/><path class="cls-389" d="M166.16,76c.93,1.6,1.63,3.51,4.09,3.08-.79,1-1.78,2.38-3.1,1.7C165.15,79.79,166.3,77.69,166.16,76Z"/><path class="cls-398" d="M164.78,70.09l2.09-.09c2,.84,2.33,2.18,1.19,4l-2,0A6.63,6.63,0,0,1,164.78,70.09Z"/><path class="cls-399" d="M140.95,54h-1.87l-.79-3a4.72,4.72,0,0,0,3.47-1C143.33,51.68,142.31,52.87,140.95,54Z"/><path class="cls-400" d="M147,78c-1.67-1.46-.8-3.34-.85-5.07l1.72-.93Z"/><path class="cls-401" d="M174.11,58.22,174,54c0-.79.07-1.56.87-2C175,54.1,175.4,56.25,174.11,58.22Z"/><path class="cls-398" d="M162.12,72.06l-1.24-1.33a1.73,1.73,0,0,1,2-2l1.28,1.36Z"/><path class="cls-366" d="M128,77c-1.83-.74-2.28-2.49-3-4.05C127,73.61,127.73,75.13,128,77Z"/><path class="cls-402" d="M185,30h2c1.45.47,2.52,1.19,2,3h0C186.92,33,185.9,31.57,185,30Z"/><path class="cls-330" d="M189,33l-2-3c.47-2.86,3.2-3.47,5-5l4,1Z"/><path class="cls-330" d="M128,84a3.38,3.38,0,0,1,2,2c.53,3.85-1.85,5.28-5,6l-2-2A9.67,9.67,0,0,0,128,84Z"/><path class="cls-403" d="M162.9,68.74l-2,2C159.59,71.93,158,72.89,158,75l-1.89.75c-1.05-1-.52-2.89-2.14-3.51-.59-2.35-3.69-2.75-4.08-5.25l2.89-6c.72-3.65,2.95-7,2.06-11a3.3,3.3,0,0,1-1-3,10.61,10.61,0,0,0-.4-6.32,3.71,3.71,0,0,1-.31-.94c-.45-2.9.9-5.09,2.86-7a1.36,1.36,0,0,1,2.14.13c1.89,2,3.41,4.19,2.63,7.05s-2.34,5.82-1.59,9.07c0,2.71-.91,5.51.9,8,1,1.57,2.08,3.12,1.6,5.15l2.4,4.85Z"/><path class="cls-404" d="M153.83,47c.43,1,1.51,1.73,1,3l-1.88,3c0-2.61,0-4.28,0-6Q153.39,47,153.83,47Z"/><path class="cls-405" d="M165.84,56l.08-5c.06-.49-.06-1.13.21-1.44,1-1.22,1.25-3.59,3-3.6,2.18,0,1.49,2.48,2.19,3.8a11.36,11.36,0,0,0,.84,1.2,17,17,0,0,1,0,7l-1.34,3.68c-1.68,2.07-2.65.92-3.5-.77C164.93,59.83,164.78,58.09,165.84,56Z"/><path class="cls-406" d="M176.94,40.49c-.46,3.29-.89,5.93-3.07,8C170.66,42.16,170.66,42.16,176.94,40.49Z"/><path class="cls-401" d="M172.16,58l0-7c1,.69.92,1.82,1.06,2.85C172.82,55.18,173.48,56.84,172.16,58Z"/><path class="cls-405" d="M144,77.25c-2.39-1.46-2.33-4.41-3.9-6.37a2.45,2.45,0,0,1,1.82-2.14c1.18-.4,1.93-2,3.51-1.26,1.79.87.41,2.35.61,3.53a9.91,9.91,0,0,1-.06,2C144.54,74.07,145.77,76.36,144,77.25Z"/><path class="cls-407" d="M140.95,54l.8-4c.52-1.72,1.06-3.41,2.91-4.32,2,1.6,2.27,4.2,3.39,6.33l-.23,5.7c-1.56,1.49-1.25,5.29-3.89,4.83-2.2-.38-1.42-4-2.75-5.79Z"/><path class="cls-408" d="M138.35,46.89c-.29-2-1.6-3.87-1-6,1.84-.62,3,.88,4.54,1.19C142.5,45,142.27,47.27,138.35,46.89Z"/><path class="cls-409" d="M168.07,74a5.69,5.69,0,0,0-1.19-4l1.43-2.82a1,1,0,0,0,.69-.25c2.27,1.36,5.46,2.11,4,6l-3,4c-2.77.39-.64-2.36-1.88-2.95Z"/><path class="cls-410" d="M161.66,62.14c-1.08-1.55-2-3.13-1.6-5.15l1.77,0,1.45,4.94Z"/><path class="cls-411" d="M165.84,56c.67,1.58-.27,3.65,1.48,4.91L164.95,62l-.81-6Z"/><path class="cls-389" d="M168.09,73.92c1.09.69.3,2.57,1.88,2.95C166.43,77.75,168.6,75,168.09,73.92Z"/></g></g></svg>
