<?xml version="1.0"?>
<svg xmlns="http://www.w3.org/2000/svg" width="120" height="120" viewBox="0 0 182 25" fill="none">
<g clip-path="url(#clip0_4975_90)">
<path fill-rule="evenodd" clip-rule="evenodd" d="M182 21.2479C182 20.6577 181.511 20.1518 180.941 20.1518H178.008H177.967C177.845 20.1518 177.356 20.1096 177.112 19.8567C176.867 19.6037 176.867 19.14 176.867 19.0135V18.9713V11.0877H181.959V7.33558C181.959 6.74536 181.47 6.23946 180.9 6.23946H176.867V0H173.405C172.224 0 171.287 0.969646 171.287 2.19224V6.28162H167.091V10.0337C167.091 10.6239 167.58 11.1299 168.15 11.1299H171.287V22.8499C171.287 24.0725 172.224 25.0422 173.405 25.0422H176.867H182V21.2479Z" fill="#F9B862"/>
<path fill-rule="evenodd" clip-rule="evenodd" d="M161.225 6.28223H147.62C146.439 6.28223 145.502 7.25187 145.502 8.47447V15.6414V22.8084C145.502 24.031 146.439 25.0006 147.62 25.0006H148.272H151.042H162.121V21.2485C162.121 20.6583 161.633 20.1524 161.062 20.1524H152.182H152.142C152.019 20.1524 151.531 20.1102 151.286 19.8573C151.042 19.6043 151.042 19.1406 151.001 19.0141V18.9719V17.7493H161.144C162.325 17.7493 163.262 16.7797 163.262 15.5571V8.39015C163.343 7.25187 162.407 6.28223 161.225 6.28223ZM157.844 13.3649C157.844 13.9551 157.356 14.461 156.785 14.461H151.123V10.7089H156.785C157.356 10.7089 157.844 11.2148 157.844 11.805V13.3649Z" fill="#F9B862"/>
<path fill-rule="evenodd" clip-rule="evenodd" d="M139.677 6.28145H129.534V0.0419922L123.954 3.33036V6.28145V11.1718V25.042H139.677C140.858 25.042 141.795 24.0724 141.795 22.8498V8.51586C141.795 7.2511 140.858 6.28145 139.677 6.28145ZM136.296 19.0555C136.296 19.6457 135.807 20.1516 135.237 20.1516H129.534V11.1718H135.196C135.767 11.1718 136.255 11.6777 136.255 12.268V19.0555H136.296Z" fill="#F9B862"/>
<path fill-rule="evenodd" clip-rule="evenodd" d="M118.129 6.28223H104.524C103.343 6.28223 102.406 7.25187 102.406 8.47447V15.6414V17.8337V22.8505C102.406 24.0731 103.343 25.0428 104.524 25.0428H106.398H107.986H119.066V21.2907C119.066 20.7004 118.577 20.1945 118.007 20.1945H109.168H109.127C109.005 20.1945 108.516 20.1524 108.271 19.8994C108.027 19.6465 108.027 19.1827 107.986 19.0563V19.0141V17.7915H118.129C119.31 17.7915 120.247 16.8219 120.247 15.5993V8.43231C120.247 7.25187 119.31 6.28223 118.129 6.28223ZM114.707 13.3649C114.707 13.9551 114.219 14.461 113.648 14.461H107.986V10.7089H113.648C114.219 10.7089 114.707 11.2148 114.707 11.805V13.3649Z" fill="white"/>
<path fill-rule="evenodd" clip-rule="evenodd" d="M96.5805 6.28223H95.9287H93.1181H86.4377H83.6677H80.8978V25.0006H86.4784V11.0883H92.1404C92.3441 11.0883 92.7107 11.1305 92.9144 11.3412C93.1588 11.5942 93.1588 12.0579 93.1588 12.1844V12.2266V24.9584H98.7394V8.47447C98.6986 7.25187 97.721 6.28223 96.5805 6.28223Z" fill="white"/>
<path fill-rule="evenodd" clip-rule="evenodd" d="M77.1503 8.47447C77.1503 7.25187 76.2135 6.28223 75.0322 6.28223H73.7287H71.6105H60.5308V10.0343C60.5308 10.6246 61.0196 11.1305 61.5899 11.1305H70.5921C70.7958 11.1305 71.1624 11.1726 71.3661 11.3834C71.6105 11.6364 71.6105 12.1001 71.6512 12.2266V12.2687V13.4913H61.5084C60.3271 13.4913 59.3903 14.461 59.3903 15.6836V22.8084C59.3903 24.031 60.3271 25.0006 61.5084 25.0006H77.2318V13.4492V8.47447H77.1503ZM71.5698 20.5318H65.9077C65.3374 20.5318 64.8486 20.0259 64.8486 19.4357V17.918C64.8486 17.3278 65.3374 16.8219 65.9077 16.8219H71.5698V20.5318Z" fill="white"/>
<path fill-rule="evenodd" clip-rule="evenodd" d="M42.1191 6.28223H41.0193C39.838 6.28223 38.9011 7.25187 38.9011 8.47447V22.8084C38.9011 24.031 39.838 25.0006 41.0193 25.0006H44.4817H55.6428V21.2485C55.6428 20.6583 55.154 20.1524 54.5838 20.1524H45.6223H45.5815C45.4593 20.1524 44.9705 20.1102 44.7261 19.8573C44.4817 19.6043 44.4817 19.1406 44.441 19.0141V18.9719V12.2266C44.441 12.1001 44.4817 11.6364 44.7261 11.3834C44.9298 11.1726 45.2964 11.1305 45.5 11.1305H54.543C55.1133 11.1305 55.6021 10.6246 55.6021 10.0343V6.28223H44.441H42.1191Z" fill="white"/>
<path fill-rule="evenodd" clip-rule="evenodd" d="M24.1962 6.28223H23.6666C22.4853 6.28223 21.5485 7.25187 21.5485 8.47447V25.0006H27.129V12.2687V12.2266C27.129 12.1001 27.1698 11.6364 27.4142 11.3834C27.6178 11.1726 27.9844 11.1305 28.1881 11.1305H34.1353C34.7056 11.1305 35.1944 10.6246 35.1944 10.0343V6.28223H27.129H24.1962Z" fill="white"/>
<path fill-rule="evenodd" clip-rule="evenodd" d="M17.8415 8.47447C17.8415 7.25187 16.9047 6.28223 15.7234 6.28223H13.9718H12.261H10.3057L1.9145 11.0883H10.3057H11.2426C11.4463 11.0883 11.8129 11.1305 12.0166 11.3412C12.2202 11.552 12.261 11.8893 12.261 12.1001V13.4492H2.11817C0.936884 13.4492 0 14.4188 0 15.6414V22.7662C0 23.9888 0.936884 24.9584 2.11817 24.9584H17.8415V13.4492V8.47447ZM12.261 20.5318H6.59893C6.02865 20.5318 5.53984 20.0259 5.53984 19.4357V17.918C5.53984 17.3278 6.02865 16.8219 6.59893 16.8219H12.261V20.5318Z" fill="white"/>
</g>
<defs>
<clipPath id="clip0_4975_90">
<rect width="182" height="25" fill="white"/>
</clipPath>
</defs>
</svg>
