<svg xmlns="http://www.w3.org/2000/svg" viewBox="0 0 314.37 106.79"><defs><style>.cls-1{fill:#fff;}</style></defs><title>Twin</title><g id="Слой_2" data-name="Слой 2"><g id="Слой_1-2" data-name="Слой 1"><g id="a8ebbccd-8403-4586-94bc-a61e5507f410"><path class="cls-1" d="M314.36,63.84v40H294.13v-40a20,20,0,0,0-39.9-.06s0,0,0,.06v40H234v-40a39.3,39.3,0,0,1,11.69-28.36A38.73,38.73,0,0,1,274,23.79a39.3,39.3,0,0,1,28.36,11.69A38.46,38.46,0,0,1,314.36,63.84Z"/></g><g id="ac6a34fa-830a-4203-8f71-9001c45a7ba4"><path class="cls-1" d="M175.3,63.84a20,20,0,0,1-34.06,14.11,18.94,18.94,0,0,1-5.84-14.11v-40H115.3v40a20,20,0,0,1-19.95,20h0a20,20,0,0,1-20-19.95h0v-40h-20v40A39.3,39.3,0,0,0,67.14,92.2,38.73,38.73,0,0,0,95.5,103.89,39.3,39.3,0,0,0,123.86,92.2a17.07,17.07,0,0,0,1.57-1.71c.57.57,1,1.14,1.57,1.71a38.73,38.73,0,0,0,28.36,11.69A39.3,39.3,0,0,0,183.71,92.2,38.73,38.73,0,0,0,195.4,63.84v-40H175.3Z"/></g><g id="a3877335-0bac-4c55-bd0a-634268bf1a9c"><path class="cls-1" d="M45.75,86.12a20.27,20.27,0,0,1-5.13.71A20.58,20.58,0,0,1,20.09,67V46.93H41.9V26.69H20.24V4.89H0V68.16a40.59,40.59,0,0,0,40.62,38.62,39.46,39.46,0,0,0,17.81-4.13A48.43,48.43,0,0,1,45.75,86.12Z"/></g><circle class="cls-1" cx="214.48" cy="10.31" r="10.31"/><path class="cls-1" d="M214.48,26.73a16.34,16.34,0,0,1-10.31-3.65v80.8H224.8V23.08A16.34,16.34,0,0,1,214.48,26.73Z"/></g></g></svg>