<?xml version="1.0"?>
<svg xmlns="http://www.w3.org/2000/svg" width="100" height="100" viewBox="0 0 100 32" fill="none">
<g clip-path="url(#clip0_4782_832)">
<path d="M70.4693 7.18142C68.3431 3.87765 65.0566 1.49336 61.2598 0.5L63.7382 6.74832L70.4693 7.18142Z" fill="url(#paint0_linear_4782_832)"/>
<path d="M53.3433 0.512207C49.5637 1.51116 46.2934 3.88916 44.1743 7.17939L50.8607 6.7463L53.3433 0.512207Z" fill="url(#paint1_linear_4782_832)"/>
<path d="M69.3996 25.6355C71.7114 22.8322 72.9736 19.3084 72.9682 15.6724C72.9682 15.2962 72.9499 14.9261 72.9235 14.5581L67.7087 18.9907L69.3996 25.6355Z" fill="url(#paint2_linear_4782_832)"/>
<path d="M64.666 17.057L61.8607 8.34229H52.7831L49.9778 17.057L57.3219 22.4432L64.666 17.057Z" fill="url(#paint3_linear_4782_832)"/>
<path d="M57.3037 26.5464L51.5063 30.2226C55.2327 31.7144 59.3889 31.7144 63.1152 30.2226L57.3037 26.5464Z" fill="url(#paint4_linear_4782_832)"/>
<path d="M41.7182 14.5747C41.6938 14.9387 41.6756 15.3026 41.6756 15.6727C41.6705 19.2927 42.922 22.8018 45.2157 25.5992L46.8903 18.991L41.7182 14.5747Z" fill="url(#paint5_linear_4782_832)"/>
<path d="M40.9103 23.8237L29.34 23.7668L30.5559 17.8926C32.6994 17.8743 34.843 17.8641 36.9866 17.8296C37.6503 17.8194 38.5252 18.1183 38.9149 17.6893C39.2072 17.368 38.8946 16.4937 38.852 15.8593C38.852 15.5882 38.852 15.3137 38.852 15.0358C38.8845 14.5295 38.852 14.007 38.9677 13.523C39.12 12.913 38.9454 12.7829 38.3587 12.7931C36.3979 12.8256 34.435 12.7809 32.4721 12.8195C31.8631 12.8317 31.6195 12.7219 31.788 12.0611C32.1209 10.7557 32.4356 9.44627 32.6974 8.12463C32.805 7.58377 33.0263 7.44144 33.5601 7.44957C35.657 7.48414 37.7538 7.4699 39.8527 7.44957C40.1633 7.44957 40.5307 7.59597 40.7459 7.17914C41.6466 5.44013 42.7977 3.84318 44.1622 2.43953C38.4643 2.43953 32.9593 2.44969 27.4542 2.42529C26.8453 2.42529 26.827 2.79129 26.7438 3.17355C26.4853 4.35828 26.2336 5.54437 25.9887 6.73182C25.4162 9.49981 24.8479 12.2712 24.2836 15.046C23.2179 19.3586 22.3328 23.7099 21.4641 28.0591C21.324 28.4474 21.0946 28.8236 21.8477 28.8216C27.8115 28.8039 33.7753 28.8039 39.7391 28.8216C40.145 28.8216 40.3886 28.7301 40.348 28.2766C40.616 27.0323 40.8799 25.7859 41.16 24.5455C41.229 24.2344 41.3244 23.9477 40.9103 23.8237Z" fill="#FEFEFE"/>
<path d="M99.3158 2.41337C97.5945 2.48656 95.8651 2.4642 94.1457 2.41337C93.5368 2.3971 93.3338 2.6167 93.2709 3.20229C93.1694 4.0339 92.9339 4.84722 92.7715 5.67274C92.1896 8.64678 91.6118 11.6215 91.038 14.5969L89.7206 20.6134L88.0196 15.2496C86.962 11.0752 85.6142 6.99032 84.4429 2.84646C84.3313 2.45403 84.1141 2.42353 83.7873 2.42557C81.2195 2.42557 78.6517 2.4398 76.0737 2.42557C75.6048 2.42557 75.4648 2.5679 75.3836 3.03555C75.0953 4.62559 74.734 6.2014 74.395 7.78127C74.2326 8.53766 73.8287 9.30014 74.0215 10.0565C74.4397 11.6994 74.6021 13.3708 74.7807 15.0462C74.7232 18.8974 73.5219 22.6441 71.3299 25.8085C70.6316 26.4835 70.0186 27.2013 69.9882 28.2484C69.9882 28.5067 69.8217 28.8259 70.2906 28.8096C72.3408 28.7385 74.395 28.9682 76.4411 28.6917C76.9689 27.488 77.0501 26.1806 77.3079 24.9159C77.9778 21.628 78.605 18.3321 79.2485 15.0381L80.2248 10.5852L81.7412 15.2496C83.0281 19.6008 84.3137 23.9521 85.5979 28.3033C85.7522 28.83 86.0892 28.832 86.5195 28.83C88.4783 28.8157 90.4392 28.8422 92.4061 28.8157C93.0922 28.8157 93.7966 28.9865 94.4644 28.6754L94.5233 28.4884C94.8258 27.181 95.1505 25.8776 95.4246 24.5641C96.0863 21.3983 96.7237 18.2284 97.3712 15.0584C97.6371 14.788 97.5519 14.418 97.6209 14.0987C98.4105 10.4815 99.1798 6.85815 99.9553 3.23685C100.053 2.70616 100.073 2.38083 99.3158 2.41337Z" fill="#FEFEFE"/>
<path d="M8.23729 23.5719C8.25961 23.3686 8.26773 23.1653 8.3063 22.9762C8.80768 20.3959 9.46942 17.8482 9.84089 15.2497C10.7192 11.1383 11.5988 7.027 12.4797 2.91567C12.5853 2.43988 12.3072 2.43988 11.9763 2.43988C10.6589 2.43988 9.33748 2.43988 8.02212 2.43988C7.17972 2.43988 6.14448 2.17352 5.54769 2.56595C4.95091 2.95837 5.07473 4.09905 4.90625 4.91237C4.23639 8.13312 3.59495 11.3864 2.94336 14.6132C1.91015 19.0743 1.00076 23.5618 0.148215 28.0594C-0.28618 28.9195 0.322784 28.8118 0.836344 28.8118C6.29672 28.8118 11.7571 28.8118 17.2175 28.8118C17.4753 28.8118 17.7595 28.9134 17.9868 28.6938C18.4679 27.6345 18.541 26.4755 18.7845 25.3592C18.9084 24.794 19.2068 24.2409 18.9875 23.6309L8.23729 23.5719Z" fill="#FEFEFE"/>
<path d="M63.1151 30.2309C65.565 29.2534 67.7293 27.6729 69.4078 25.6356L67.7088 18.9908L72.9235 14.5582C72.7409 11.9317 71.8966 9.39439 70.4694 7.18343L63.7383 6.7483L61.2598 0.499979C58.6631 -0.17207 55.938 -0.167871 53.3433 0.512179L50.8628 6.7483L44.1764 7.18139C42.7456 9.39754 41.9005 11.9415 41.7202 14.5745L46.8903 18.9908L45.2075 25.599C46.8829 27.646 49.0474 29.2358 51.5002 30.2207L57.2975 26.5445L63.1151 30.2309ZM52.777 8.33631H61.8566L64.6619 17.051L57.3178 22.4372L49.9778 17.0571L52.777 8.33631Z" fill="#FEFEFE"/>
</g>
<defs>
<linearGradient id="paint0_linear_4782_832" x1="65.8635" y1="-0.000191226" x2="65.8635" y2="31.3431" gradientUnits="userSpaceOnUse">
<stop stop-color="#F93335"/>
<stop offset="1" stop-color="#6A0606"/>
</linearGradient>
<linearGradient id="paint1_linear_4782_832" x1="2246.65" y1="0.512207" x2="2246.65" y2="1028.26" gradientUnits="userSpaceOnUse">
<stop stop-color="#F93335"/>
<stop offset="1" stop-color="#6A0606"/>
</linearGradient>
<linearGradient id="paint2_linear_4782_832" x1="1890.16" y1="14.5581" x2="1890.16" y2="1722.14" gradientUnits="userSpaceOnUse">
<stop stop-color="#F93335"/>
<stop offset="1" stop-color="#6A0606"/>
</linearGradient>
<linearGradient id="paint3_linear_4782_832" x1="4197.78" y1="8.34229" x2="4197.78" y2="2182" gradientUnits="userSpaceOnUse">
<stop stop-color="#F93335"/>
<stop offset="1" stop-color="#6A0606"/>
</linearGradient>
<linearGradient id="paint4_linear_4782_832" x1="3329.04" y1="26.5464" x2="3329.04" y2="765.703" gradientUnits="userSpaceOnUse">
<stop stop-color="#F93335"/>
<stop offset="1" stop-color="#6A0606"/>
</linearGradient>
<linearGradient id="paint5_linear_4782_832" x1="1179.38" y1="14.5747" x2="1179.38" y2="1714.01" gradientUnits="userSpaceOnUse">
<stop stop-color="#F93335"/>
<stop offset="1" stop-color="#6A0606"/>
</linearGradient>
<clipPath id="clip0_4782_832">
<rect width="100" height="31.3433" fill="white"/>
</clipPath>
</defs>
</svg>
