<?xml version="1.0" encoding="utf-8"?>
<!-- Generator: Adobe Illustrator 27.3.1, SVG Export Plug-In . SVG Version: 6.00 Build 0)  -->
<svg xmlns="http://www.w3.org/2000/svg" xmlns:xlink="http://www.w3.org/1999/xlink" version="1.1" id="Слой_1" x="0px" y="0px" viewBox="0 0 199 48" style="enable-background:new 0 0 199 48;" xml:space="preserve" width="160" height="160">
<style type="text/css">
	.st0{fill:#F9F4F4;}
	.st1{fill:#FAD849;}
</style>
<g>
	<path class="st0" d="M83.5,20.3H82c-1.1,0-2.2,0.4-3.1,1.1c-0.9-0.7-1.9-1.1-3.1-1.1h-1.5c-1.3,0-2.6,0.5-3.6,1.5   c-0.9,1-1.5,2.3-1.5,3.7v12.3h3.9V25.5c0-0.3,0.1-0.6,0.3-0.8c0.2-0.2,0.5-0.3,0.8-0.3h1.5c0.1,0,0.3,0,0.4,0.1   c0.1,0.1,0.3,0.2,0.4,0.3c0.1,0.1,0.2,0.2,0.2,0.4c0.1,0.1,0.1,0.3,0.1,0.5v12.3h3.9V25.5c0-0.3,0.1-0.6,0.3-0.8   c0.2-0.2,0.5-0.3,0.8-0.3h1.5c0.1,0,0.3,0,0.4,0.1c0.1,0.1,0.3,0.2,0.4,0.3s0.2,0.2,0.2,0.4c0.1,0.1,0.1,0.3,0.1,0.5v12.3h3.9V25.5   c0-1.4-0.5-2.7-1.4-3.7C86.1,20.8,84.9,20.3,83.5,20.3z"/>
	<path class="st0" d="M63.9,20.3c-0.4,0-0.8,0.1-1.2,0.4c-0.3,0.3-0.6,0.6-0.7,1.1c-1.3-0.8-2.7-1.3-4.2-1.4s-3,0.3-4.3,1   c-1.3,0.7-2.4,1.8-3.2,3.2c-0.8,1.3-1.2,2.9-1.2,4.4c0,1.6,0.4,3.1,1.2,4.4c0.8,1.3,1.9,2.5,3.2,3.2c1.3,0.8,2.8,1.1,4.3,1.1   s3-0.5,4.2-1.3v1.4h3.9V22.3c0-0.5-0.2-1-0.6-1.4C64.9,20.5,64.4,20.3,63.9,20.3z M57.4,33.7c-0.9,0-1.8-0.3-2.5-0.8   c-0.7-0.5-1.3-1.2-1.7-2.1c-0.3-0.9-0.4-1.8-0.3-2.7c0.2-0.9,0.6-1.7,1.2-2.4c0.6-0.7,1.4-1.1,2.3-1.3c0.9-0.2,1.8-0.1,2.6,0.3   c0.8,0.4,1.5,0.9,2,1.7c0.5,0.8,0.8,1.7,0.8,2.6c0,1.2-0.5,2.4-1.3,3.3C59.8,33.2,58.6,33.7,57.4,33.7z"/>
	<path class="st0" d="M106.8,23.2c-1.3-1.5-3.2-2.5-5.1-2.7c-2-0.3-4,0.2-5.6,1.3v-9.6c0-0.5-0.2-1-0.6-1.4   c-0.4-0.4-0.9-0.6-1.4-0.6c-0.5,0-1,0.2-1.4,0.6c-0.4,0.4-0.6,0.9-0.6,1.4v25.7H96v-1.4c1.7,1.1,3.8,1.6,5.8,1.3   c2-0.3,3.9-1.4,5.2-3c1.3-1.6,2-3.7,2-5.8S108.2,24.7,106.8,23.2L106.8,23.2z M100.6,33.7c-0.9,0-1.8-0.3-2.5-0.8   c-0.7-0.5-1.3-1.2-1.7-2.1c-0.3-0.9-0.4-1.8-0.3-2.7c0.2-0.9,0.6-1.7,1.2-2.4c0.6-0.7,1.4-1.1,2.3-1.3c0.9-0.2,1.8-0.1,2.6,0.3   c0.8,0.4,1.5,0.9,2,1.7c0.5,0.8,0.8,1.7,0.8,2.6c0,1.2-0.5,2.4-1.3,3.3C102.9,33.2,101.8,33.7,100.6,33.7z"/>
	<path class="st0" d="M113.5,10.1c-0.5,0-1,0.2-1.4,0.6c-0.4,0.4-0.6,0.9-0.6,1.4v25.7h3.9V12.1c0-0.5-0.2-1-0.6-1.4   C114.5,10.3,114,10.1,113.5,10.1z"/>
	<path class="st0" d="M131.9,29.9c-0.3,0-0.5,0.1-0.7,0.2c-0.4,0.2-0.6,0.5-0.8,0.9c-0.3,0.6-0.7,1.2-1.2,1.6   c-0.5,0.4-1.1,0.8-1.7,0.9c-0.6,0.2-1.3,0.2-1.9,0.1c-0.6-0.1-1.3-0.4-1.8-0.7l10.6-6.4l-0.1-0.3c-0.5-1.4-1.3-2.7-2.4-3.7   c-1.1-1-2.4-1.7-3.8-2c-1.4-0.3-2.9-0.2-4.3,0.2s-2.6,1.3-3.6,2.4c-1,1.1-1.7,2.5-2,4c-0.3,1.5-0.3,3,0.2,4.4   c0.4,1.4,1.2,2.7,2.3,3.8c1.1,1,2.4,1.8,3.8,2.1c0.6,0.2,1.3,0.2,2,0.2c1.6,0,3.2-0.5,4.5-1.4c1.4-0.9,2.4-2.2,3.1-3.7   c0.1-0.3,0.2-0.7,0.2-1c0-0.4-0.2-0.7-0.4-1c-0.2-0.3-0.5-0.5-0.8-0.7C132.6,29.9,132.3,29.9,131.9,29.9z M124,25   c0.7-0.4,1.6-0.7,2.4-0.6c0.9,0,1.7,0.3,2.4,0.8l-7,4.2c-0.1-0.9,0.1-1.8,0.5-2.5C122.7,26.1,123.3,25.5,124,25z"/>
	<path class="st0" d="M151.6,20.4c-0.4,0-0.8,0.1-1.2,0.4c-0.3,0.3-0.6,0.6-0.7,1c-1.3-0.9-2.7-1.4-4.2-1.4c-1.5-0.1-3,0.3-4.3,1   c-1.3,0.7-2.4,1.8-3.2,3.2s-1.2,2.9-1.2,4.4c0,1.6,0.4,3.1,1.1,4.4c0.8,1.3,1.9,2.5,3.2,3.2c1.3,0.8,2.8,1.1,4.3,1.1   c1.5,0,3-0.5,4.2-1.4v3c0,0.9-0.3,1.8-0.8,2.6c-0.5,0.8-1.2,1.4-2,1.7c-0.8,0.3-1.7,0.4-2.6,0.3c-0.9-0.2-1.7-0.6-2.3-1.3   c-0.4-0.4-0.9-0.6-1.4-0.6c-0.5,0-1,0.2-1.4,0.6c-0.4,0.4-0.6,0.9-0.6,1.4c0,0.5,0.2,1,0.5,1.4c1.2,1.2,2.7,2,4.3,2.4   c1.6,0.3,3.3,0.2,4.8-0.5c1.5-0.7,2.8-1.8,3.8-3.2c0.9-1.4,1.4-3.1,1.4-4.8V22.4c0-0.3,0-0.5-0.1-0.8c-0.1-0.2-0.2-0.5-0.4-0.7   c-0.2-0.2-0.4-0.3-0.6-0.5C152.1,20.4,151.8,20.4,151.6,20.4z M145,33.7c-0.9,0-1.8-0.3-2.5-0.8c-0.7-0.5-1.3-1.2-1.7-2.1   c-0.3-0.9-0.4-1.8-0.3-2.7c0.2-0.9,0.6-1.7,1.2-2.4c0.6-0.7,1.4-1.1,2.3-1.3c0.9-0.2,1.8-0.1,2.6,0.3c0.8,0.4,1.5,0.9,2,1.7   c0.5,0.8,0.8,1.7,0.8,2.6c0,1.2-0.5,2.4-1.3,3.3C147.4,33.2,146.2,33.7,145,33.7L145,33.7z"/>
	<path class="st0" d="M170.7,20.4c-0.4,0-0.8,0.1-1.2,0.4s-0.6,0.6-0.7,1c-1.3-0.8-2.7-1.3-4.2-1.4c-1.5-0.1-3,0.3-4.3,1   c-1.3,0.7-2.4,1.8-3.2,3.2c-0.8,1.3-1.2,2.9-1.2,4.4c0,1.6,0.4,3.1,1.1,4.4c0.8,1.3,1.9,2.5,3.2,3.2c1.3,0.8,2.8,1.1,4.3,1.1   c1.5,0,3-0.5,4.2-1.3v1.4h3.9V22.4c0-0.5-0.2-1.1-0.6-1.4C171.7,20.6,171.2,20.4,170.7,20.4z M164.2,33.7c-0.9,0-1.8-0.3-2.5-0.8   c-0.7-0.5-1.3-1.2-1.7-2.1c-0.3-0.9-0.4-1.8-0.3-2.7c0.2-0.9,0.6-1.7,1.2-2.4s1.4-1.1,2.3-1.3c0.9-0.2,1.8-0.1,2.6,0.3   s1.5,0.9,2,1.7s0.8,1.7,0.8,2.6c0,1.2-0.5,2.4-1.3,3.3C166.6,33.2,165.4,33.7,164.2,33.7z"/>
	<path class="st0" d="M181.9,16.3h-1.9v-4.1c0-0.3,0-0.5-0.1-0.8s-0.2-0.5-0.4-0.7c-0.2-0.2-0.4-0.3-0.6-0.5   c-0.2-0.1-0.5-0.2-0.7-0.2c-0.5,0-1,0.2-1.4,0.6c-0.4,0.4-0.6,0.9-0.5,1.4v4.1h-1.9c-0.5,0-1,0.2-1.4,0.6c-0.4,0.4-0.6,0.9-0.6,1.4   c0,0.5,0.2,1,0.6,1.4c0.4,0.4,0.9,0.6,1.4,0.6h1.9v17.5h3.8V20.3h1.9c0.5,0,1-0.2,1.4-0.6c0.4-0.4,0.6-0.9,0.6-1.4   c0-0.5-0.2-1-0.6-1.4C182.9,16.5,182.4,16.3,181.9,16.3z"/>
	<path class="st0" d="M196.7,29.8c-0.3,0-0.5,0.1-0.8,0.3c-0.4,0.2-0.7,0.6-0.9,1c-0.3,0.6-0.7,1.2-1.2,1.6   c-0.5,0.4-1.1,0.8-1.7,0.9c-0.6,0.2-1.3,0.2-1.9,0.1c-0.6-0.1-1.3-0.4-1.8-0.7l6.8-4.1l3.8-2.3l-0.1-0.3c-0.6-1.9-1.9-3.5-3.6-4.6   c-1.7-1-3.6-1.5-5.6-1.2c-1.9,0.3-3.7,1.3-5,2.8c-1.3,1.5-2.1,3.4-2.2,5.4c-0.1,2,0.5,4,1.7,5.6c1.2,1.6,2.8,2.8,4.7,3.2   c1.9,0.5,3.9,0.3,5.6-0.6c1.8-0.9,3.2-2.4,4-4.2c0.2-0.3,0.2-0.7,0.2-1c0-0.4-0.1-0.7-0.3-1c-0.2-0.3-0.5-0.5-0.8-0.7   C197.4,29.8,197,29.8,196.7,29.8z M188.7,25c0.7-0.4,1.5-0.6,2.3-0.6c0.7,0,1.4,0.2,2,0.5c0.2,0.1,0.3,0.2,0.5,0.3l-0.2,0.1   l-6.8,4.1c-0.1-0.9,0.1-1.8,0.5-2.6C187.4,26.1,188,25.5,188.7,25z"/>
	<path class="st1" d="M1.9,26c-0.5,0-1-0.2-1.4-0.6S0,24.5,0,24c0-6.4,2.4-12.5,6.8-17C11.1,2.5,17,0,23.1,0c0.3,0,0.5,0,0.8,0.1   c0.2,0.1,0.5,0.2,0.7,0.4S24.9,1,25,1.2c0.1,0.3,0.2,0.5,0.2,0.8c0,0.3-0.1,0.5-0.2,0.8s-0.3,0.5-0.4,0.7c-0.2,0.2-0.4,0.3-0.7,0.4   C23.7,4,23.4,4,23.1,4c-2.5,0-5,0.5-7.4,1.5c-2.3,1-4.5,2.5-6.2,4.3C5.9,13.6,3.9,18.7,3.9,24c0,0.5-0.2,1-0.6,1.4   C3,25.8,2.5,26,1.9,26z"/>
	<path class="st1" d="M23.1,47.9c-0.3,0-0.5,0-0.8-0.1c-0.2-0.1-0.5-0.2-0.7-0.4c-0.2-0.2-0.3-0.4-0.4-0.7c-0.1-0.3-0.2-0.5-0.2-0.8   s0.1-0.5,0.2-0.8c0.1-0.3,0.3-0.5,0.4-0.7c0.2-0.2,0.4-0.3,0.7-0.4c0.2-0.1,0.5-0.1,0.8-0.1c4.5,0,8.9-1.6,12.3-4.6   c3.5-3,5.8-7.1,6.6-11.7h-6.1c-0.7,2.9-2.4,5.4-4.6,7.2c-2.3,1.8-5,2.8-7.9,2.9h-0.2c-2.2,0-4.3-0.6-6.3-1.6   c-1.9-1.1-3.6-2.6-4.8-4.5s-2-4-2.2-6.3c-0.2-2.2,0.1-4.5,1-6.6c0.8-2.1,2.2-3.9,3.8-5.4s3.7-2.4,5.8-2.9c2.1-0.4,4.4-0.3,6.4,0.3   c2.1,0.7,4,1.8,5.5,3.4c0.4,0.4,0.6,0.9,0.6,1.4s-0.2,1-0.6,1.4c-0.4,0.4-0.9,0.6-1.4,0.6c-0.5,0-1-0.2-1.4-0.6   c-1.1-1.1-2.4-1.9-3.9-2.4c-1.5-0.5-3-0.5-4.5-0.3c-1.5,0.3-2.9,1-4.1,2c-1.2,1-2.1,2.3-2.8,3.7c-0.6,1.4-0.9,3-0.8,4.6   c0.1,1.6,0.6,3.1,1.4,4.4c0.8,1.3,1.9,2.5,3.2,3.3c1.3,0.8,2.8,1.2,4.3,1.3c2,0.1,3.9-0.4,5.5-1.5c1.6-1.1,2.9-2.7,3.6-4.6H25   c-0.5,0-1-0.2-1.4-0.6c-0.4-0.4-0.6-0.9-0.6-1.4c0-0.5,0.2-1,0.6-1.4c0.4-0.4,0.8-0.6,1.4-0.6h21.3v0.4c0,6.3-2.4,12.4-6.8,16.9   C35.1,45.3,29.3,47.9,23.1,47.9z"/>
</g>
</svg>
