<?xml version="1.0"?>
<svg xmlns="http://www.w3.org/2000/svg" width="160" height="160" viewBox="0 0 196 39" fill="none">
<path d="M25.026 19.6343C25.7919 19.1016 26.6051 18.6428 27.4549 18.2638C27.4174 18.209 27.3723 18.1599 27.321 18.118C27.2281 18.0671 27.1323 18.0217 27.0342 17.9819C25.8051 17.4719 24.7226 16.6549 23.8868 15.6066C23.051 14.5583 22.4889 13.3126 22.2527 11.9848C21.9714 10.6872 21.9738 9.34268 22.2596 8.04612C22.5455 6.74956 23.1079 5.53258 23.9071 4.48111C24.0601 4.26727 24.0984 4.16035 23.9071 3.95624C22.8777 2.85904 21.642 1.98314 20.2732 1.38048C18.6075 0.651937 16.8253 0.236969 15.0137 0.155784C11.6475 -0.0483322 8.39617 0.301582 5.45082 2.09975C3.59644 3.19276 2.1784 4.91272 1.44399 6.95966C0.939235 8.35016 0.771935 9.84391 0.956284 11.3141C1.05267 12.3413 1.34921 13.3386 1.82861 14.2481C2.30802 15.1575 2.9607 15.9609 3.74863 16.6114C4.57435 17.2701 5.49743 17.7917 6.48361 18.1569C6.39754 18.3902 6.19672 18.3999 6.03415 18.4679C4.66486 18.9721 3.43176 19.7972 2.43486 20.8763C1.43797 21.9554 0.705355 23.2582 0.296448 24.6789C0.251328 25.2287 0.152014 25.7725 0 26.3021L0 27.1283C0.0705446 27.399 0.0705446 27.6838 0 27.9545L0 28.6932C0.124317 28.7612 0.0860656 28.8779 0.0956284 28.9751C0.220507 30.3598 0.624578 31.7035 1.28267 32.9226C1.94076 34.1416 2.83877 35.2099 3.92076 36.0608C5.80176 37.5069 8.02522 38.4223 10.3661 38.7143C13.2604 39.1942 16.2236 39.0116 19.0396 38.1797C20.8092 37.6662 22.443 36.7562 23.821 35.5165C24.0314 35.3221 24.0888 35.2249 23.8689 34.9819C22.1515 33.0516 21.1918 30.5472 21.1721 27.9448C21.0475 26.3429 21.3345 24.7356 22.0051 23.2804C22.6756 21.8252 23.7067 20.5722 24.9973 19.644L25.026 19.6343ZM8.55874 8.47595C8.99443 7.75859 9.594 7.15868 10.3065 6.72718C11.0191 6.29569 11.8236 6.04534 12.6516 5.9974C12.9701 5.97874 13.2894 5.97874 13.6079 5.9974C14.7231 5.92133 15.8375 6.15661 16.8306 6.67779C17.4862 7.00719 18.0501 7.4982 18.4711 8.10602C18.892 8.71383 19.1565 9.4191 19.2404 10.1575C19.4244 11.0049 19.3984 11.8856 19.1647 12.7203C18.931 13.555 18.497 14.3176 17.9016 14.9396C17.2381 15.5961 16.3947 16.0331 15.4822 16.1935C13.6833 16.6531 11.7808 16.4248 10.1366 15.552C9.48457 15.1673 8.94127 14.618 8.5593 13.9573C8.17733 13.2966 7.96962 12.5469 7.95628 11.7807C7.82288 10.6519 8.03315 9.50868 8.55874 8.50511V8.47595ZM20.321 27.6726C20.2902 28.6282 20.0077 29.5579 19.5031 30.3648C18.9986 31.1717 18.2903 31.8263 17.4522 32.2604C16.47 32.7699 15.3891 33.052 14.2869 33.0865C12.7019 33.2346 11.1096 32.896 9.71585 32.1146C8.94068 31.6833 8.28689 31.0577 7.81657 30.2972C7.34626 29.5368 7.07504 28.6668 7.02869 27.7698C6.90891 26.9672 6.96695 26.1476 7.19857 25.3707C7.43019 24.5938 7.82954 23.8793 8.36749 23.2792C9.19747 22.4284 10.2548 21.8438 11.4085 21.5977C12.055 21.4256 12.7197 21.3342 13.388 21.3256C15.0117 21.2317 16.6262 21.6309 18.026 22.4725C18.8601 23.017 19.522 23.7943 19.9325 24.7115C20.3429 25.6286 20.4845 26.6466 20.3402 27.6434" fill="#FF2525"/>
<path d="M68.068 21.9377C66.9543 20.3852 65.4332 19.1827 63.6787 18.4677C63.5065 18.3899 63.2866 18.3802 63.191 18.1664C63.191 18.1664 63.191 18.1081 63.2483 18.0983L63.7074 17.9137C65.44 17.2456 66.8834 15.9748 67.7811 14.3271C68.3275 13.255 68.6529 12.0808 68.7374 10.8765C68.8937 9.20284 68.5821 7.51832 67.8385 6.0166C66.9833 4.32011 65.6521 2.91968 64.0134 1.9926C62.433 1.06742 60.6813 0.484952 58.8686 0.281908C56.0702 -0.131423 53.2161 0.10451 50.5202 0.972015C48.7399 1.53607 47.1239 2.53762 45.8153 3.88796C45.6145 4.1018 45.5762 4.22816 45.8153 4.49059C46.724 5.66885 47.3199 7.06442 47.5462 8.54376C47.7359 9.81161 47.6872 11.1045 47.4027 12.3539C47.0526 13.979 46.1896 15.4433 44.9451 16.5237C44.2315 17.1313 43.432 17.626 42.5735 17.9914C42.4874 17.9914 42.344 18.04 42.3344 18.1761C42.3248 18.3122 42.4779 18.3122 42.5639 18.3608C42.9082 18.5455 43.262 18.701 43.5967 18.8954C44.6747 19.4504 45.6312 20.2213 46.4085 21.1617C47.1858 22.1021 47.768 23.1926 48.1199 24.3676C48.7879 26.6994 48.7143 29.1861 47.9095 31.4728C47.4578 32.7844 46.7375 33.9836 45.7962 34.9914C45.6336 35.1664 45.5667 35.283 45.7962 35.4677C47.0238 36.5998 48.4651 37.4662 50.0325 38.0143C52.256 38.7654 54.5963 39.0949 56.9369 38.9863C59.8285 38.974 62.6585 38.1353 65.1035 36.566C66.7204 35.4955 67.9988 33.9734 68.7852 32.1824C69.3806 30.7931 69.6897 29.2946 69.6937 27.7793C69.8031 25.7073 69.2349 23.6568 68.0776 21.9474L68.068 21.9377ZM51.8781 7.36766C52.8517 6.48185 54.1098 5.98762 55.4164 5.97773C56.4227 5.88553 57.4371 5.98105 58.4096 6.2596C59.3395 6.53152 60.1619 7.09344 60.7608 7.86604C61.3596 8.63863 61.7046 9.58288 61.747 10.5655C61.747 10.7793 61.747 10.9932 61.7948 11.207C61.8522 12.0176 61.7006 12.8294 61.3552 13.5623C61.0097 14.2952 60.4823 14.924 59.8249 15.3865C59.2347 15.8138 58.5586 16.1026 57.8453 16.2321C56.4187 16.5372 54.9382 16.4568 53.5516 15.9989C52.7135 15.7357 51.9709 15.2258 51.4177 14.5338C50.8646 13.8418 50.5256 12.9987 50.4437 12.1109C50.2719 11.2614 50.3151 10.3814 50.5694 9.55347C50.8236 8.72554 51.2805 7.97678 51.8973 7.37738L51.8781 7.36766ZM62.7989 27.4294C62.7932 28.1874 62.6321 28.9359 62.3259 29.6271C62.0196 30.3183 61.5749 30.937 61.0202 31.4437C60.0751 32.2855 58.9018 32.8174 57.6541 32.9697C55.9492 33.2917 54.1886 33.0921 52.5953 32.3962C51.7738 32.0601 51.0535 31.5106 50.5064 30.8027C49.9593 30.0948 49.6046 29.2534 49.4779 28.3625C49.2956 27.5714 49.2781 26.7503 49.4263 25.9519C49.5745 25.1535 49.8852 24.3954 50.3385 23.7261C51.1495 22.6683 52.2944 21.9268 53.5803 21.6266C54.4089 21.382 55.2719 21.2802 56.1336 21.3253C57.5748 21.2426 59.0073 21.6016 60.2456 22.3556C61.0946 22.8766 61.7807 23.6318 62.2242 24.5334C62.6677 25.4349 62.8504 26.4459 62.7511 27.4488" fill="#FF2525"/>
<path d="M30.5247 27.2736L35.0192 21.0432L39.5138 27.2736L35.0097 33.504L30.5151 27.2736" fill="white"/>
<path d="M29.8936 8.0676V7.6788C29.9253 7.61001 29.9509 7.53844 29.9701 7.46497C30.033 6.97436 30.2459 6.51622 30.5788 6.15522C30.9117 5.79422 31.3477 5.54858 31.8252 5.45296C32.3995 5.33631 32.9957 5.42078 33.5166 5.6926C34.0376 5.96442 34.4526 6.40756 34.6941 6.94982C34.8184 7.20253 34.9236 7.46497 35.0288 7.70796C35.251 7.23803 35.5034 6.78346 35.7843 6.34719C36.096 5.94142 36.5221 5.64208 37.0058 5.48922C37.4894 5.33636 38.0074 5.33728 38.4905 5.49184C38.9561 5.63229 39.3672 5.91631 39.667 6.30462C39.9668 6.69293 40.1405 7.16634 40.164 7.65936C40.2058 8.4796 39.9843 9.29144 39.5329 9.97268C38.9209 10.9447 38.2419 11.8389 37.6203 12.7526C36.6103 13.9973 35.8032 15.3985 35.2296 16.9029C35.2296 16.9904 35.1627 17.0779 35.1053 17.2237C34.7578 16.0589 34.2036 14.9685 33.4701 14.0064L32.0643 12.0624C31.1845 10.828 30.1518 9.69081 29.9031 8.09676" fill="white"/>
<path d="M74.6475 27.1183L82.2977 27.1183C82.2977 30.0926 83.7608 31.3756 86.1229 31.3756C88.4849 31.3756 89.7854 29.9371 89.7854 28.0806C89.7854 21.9085 75.4412 21.1698 75.4412 9.83646C75.4316 4.15036 79.3715 0 86.0655 0C92.7595 0 96.9002 4.09205 96.9002 10.9542L89.2499 10.9542C89.2499 8.50485 88.1502 7.28015 86.0081 7.28015C84.0956 7.28015 82.9193 8.33961 82.9193 10.0503C82.9193 15.8822 97.4644 16.271 97.4644 28.1292C97.4644 34.2429 93.2281 38.7141 85.989 38.7141C79.0464 38.7141 74.6475 34.622 74.6475 27.1183Z" fill="white"/>
<path d="M121.687 7.92177L114.515 7.92177L114.515 37.9755L106.865 37.9755L106.865 7.92177L99.6929 7.92177L99.6929 0.748535L121.687 0.748535L121.687 7.92177Z" fill="white"/>
<path d="M136.749 31.8034L129.003 31.8034L127.798 37.9755L120.147 37.9755L128.888 0.748535L136.844 0.748535L145.632 37.9755L137.982 37.9755L136.749 31.8034ZM135.285 24.6204L134.434 20.4117C133.966 17.7485 133.335 13.2288 132.971 10.1962H132.761C132.397 13.2288 131.805 17.7485 131.298 20.4117L130.456 24.669L135.285 24.6204Z" fill="white"/>
<path d="M158.925 25.4758L156.304 25.4758V37.9755L148.874 37.9755L148.874 0.748535L159.498 0.748535C166.776 0.748535 171.06 5.32657 171.06 13.1413C171.06 18.1956 169.224 21.8892 165.982 23.8817L172.886 37.9755L164.777 37.9755L158.925 25.4758ZM156.304 18.2928L159.393 18.2928C162.013 18.2928 163.419 16.4849 163.419 13.1316C163.419 9.77825 162.004 7.92177 159.393 7.92177L156.304 7.92177L156.304 18.2928Z" fill="white"/>
<path d="M195.981 30.7925V37.9755L175 37.9755V32.9212L186.619 7.92177L175.889 7.92177V0.748535L195.723 0.748535V5.95836L184.247 30.7925L195.981 30.7925Z" fill="white"/>
</svg>
