<?xml version="1.0"?>
<svg xmlns="http://www.w3.org/2000/svg" viewBox="0 0 139.52 32.37" width="60" height="40"><defs><style>.cls-1{fill:#a6ce39;}.cls-2{fill:#a5cd39;}</style></defs><title>amusnet interactive</title><g id="&#x421;&#x43B;&#x43E;&#x439;_2" data-name="&#x421;&#x43B;&#x43E;&#x439; 2"><g id="&#x421;&#x43B;&#x43E;&#x439;_1-2" data-name="&#x421;&#x43B;&#x43E;&#x439; 1"><g id="Page-1"><g id="Artboard"><g id="logotip"><path id="Path" class="cls-1" d="M9.54,16.6c0-4.3,4.1-9.9,11.1-12.9,12.2-5.3,19.2-.4,21,4.2,1.7,4.3-1.7,12-7.4,17.6A46.18,46.18,0,0,0,44,16.3c3.1-4.1,4.4-8,3.2-11.1C45.54.7,38.64-.8,30,.4A61.41,61.41,0,0,0,9.54,6.6c-6,3-9,6.5-9.5,10.6-.6,5.9,5.8,13.9,20.3,14.9,7.6.5,15,.7,29.1-2.8C47.74,29.4,9.44,34.2,9.54,16.6Z"/><path id="Path-2" data-name="Path" class="cls-2" d="M23.64,23.5a8.3,8.3,0,1,0-8.3-8.3,8.34,8.34,0,0,0,8.3,8.3Z"/></g></g></g><g id="Page-1-2" data-name="Page-1"><g id="Artboard-2" data-name="Artboard"><g id="Amusnet"><polygon id="Fill-1" class="cls-1" points="52.84 28.04 54.15 28.04 54.15 20.28 52.84 20.28 52.84 28.04"/><polygon id="Fill-2" class="cls-1" points="63.23 20.28 64.54 20.28 64.54 28.04 63.12 28.04 58.73 22.38 58.73 28.04 57.42 28.04 57.42 20.28 58.73 20.28 63.23 26.07 63.23 20.28"/><polygon id="Fill-3" class="cls-1" points="70.73 21.48 70.73 28.04 69.42 28.04 69.42 21.48 67.07 21.48 67.07 20.28 73.08 20.28 73.08 21.48 70.73 21.48"/><polygon id="Fill-4" class="cls-1" points="81.06 20.28 81.06 21.51 76.92 21.51 76.92 23.56 80.64 23.56 80.64 24.73 76.92 24.73 76.92 26.8 81.2 26.8 81.2 28.04 75.61 28.04 75.61 20.28 81.06 20.28"/><path id="Fill-5" class="cls-1" d="M88.43,23.9a1.38,1.38,0,0,0,.4-1.1,1.18,1.18,0,0,0-.41-1A2.73,2.73,0,0,0,87,21.47H85.29v2.77h1.63a2.4,2.4,0,0,0,1.51-.34m1.74-1.1a2.25,2.25,0,0,1-1.68,2.42l2,2.82H88.86L87,25.43H85.29V28H84V20.28h2.89a4.18,4.18,0,0,1,2.54.6,2.29,2.29,0,0,1,.77,1.92"/><path id="Fill-7" class="cls-1" d="M97.62,25.06l-1.41-3.2-1.41,3.2Zm-3.35,1.21L93.49,28h-1.4l3.42-7.76h1.4L100.33,28h-1.4l-.78-1.76Z"/><path id="Fill-9" class="cls-1" d="M106.05,26.85a2.74,2.74,0,0,0,1.17-.23,4,4,0,0,0,1-.73l.84.87a3.88,3.88,0,0,1-3,1.37A4,4,0,0,1,103.17,27a4.11,4.11,0,0,1,0-5.75,4.1,4.1,0,0,1,3-1.15,3.9,3.9,0,0,1,3,1.33l-.83.91a3.64,3.64,0,0,0-1-.74,2.94,2.94,0,0,0-1.16-.21,2.76,2.76,0,0,0-2,.76,2.56,2.56,0,0,0-.8,1.94,2.68,2.68,0,0,0,.79,2,2.57,2.57,0,0,0,1.88.79"/><polygon id="Fill-11" class="cls-1" points="114.72 21.48 114.72 28.04 113.41 28.04 113.41 21.48 111.06 21.48 111.06 20.28 117.07 20.28 117.07 21.48 114.72 21.48"/><polygon id="Fill-13" class="cls-1" points="119.6 28.04 120.91 28.04 120.91 20.28 119.6 20.28 119.6 28.04"/><polygon id="Fill-15" class="cls-1" points="127.72 28.04 126.25 28.04 123.13 20.28 124.6 20.28 126.98 26.07 129.37 20.28 130.83 20.28 127.72 28.04"/><polygon id="Fill-16" class="cls-1" points="138.5 20.28 138.5 21.51 134.36 21.51 134.36 23.56 138.08 23.56 138.08 24.73 134.36 24.73 134.36 26.8 138.63 26.8 138.63 28.04 133.05 28.04 133.05 20.28 138.5 20.28"/><path id="Fill-19" class="cls-1" d="M59.92,11.34,58.58,8l-1.35,3.35Zm.87,2.18H56.37l-.82,2h-3L57.14,5.09h2.92l4.64,10.47H61.61Z"/><polygon id="Fill-20" class="cls-1" points="76.28 15.55 76.25 10.01 73.56 14.52 72.25 14.52 69.57 10.15 69.57 15.55 66.83 15.55 66.83 5.09 69.27 5.09 72.95 11.13 76.54 5.09 78.97 5.09 79 15.55 76.28 15.55"/><path id="Fill-21" class="cls-1" d="M83.6,14.49a4.83,4.83,0,0,1-1.29-3.6V5.09h3V10.8q0,2.51,2,2.51t2-2.51V5.09h2.92v5.8a4.83,4.83,0,0,1-1.29,3.6,5.81,5.81,0,0,1-7.25,0"/><path id="Fill-22" class="cls-1" d="M96.66,15.45a6.06,6.06,0,0,1-1.94-.84l1-2.18a6.28,6.28,0,0,0,1.63.75,6.21,6.21,0,0,0,1.82.28q1.7,0,1.7-.85a.71.71,0,0,0-.49-.67,9,9,0,0,0-1.56-.46,14.92,14.92,0,0,1-2-.55A3.32,3.32,0,0,1,95.47,10a2.52,2.52,0,0,1-.57-1.73,3,3,0,0,1,.52-1.73A3.5,3.5,0,0,1,97,5.32a6.43,6.43,0,0,1,2.55-.45,9,9,0,0,1,2,.23,6.23,6.23,0,0,1,1.76.68L102.42,8a6.09,6.09,0,0,0-2.9-.81,2.43,2.43,0,0,0-1.29.26.79.79,0,0,0-.4.68.67.67,0,0,0,.48.63,8.65,8.65,0,0,0,1.54.43,14.42,14.42,0,0,1,2,.55,3.42,3.42,0,0,1,1.36.93,2.48,2.48,0,0,1,.58,1.73,2.94,2.94,0,0,1-.52,1.7,3.57,3.57,0,0,1-1.57,1.22,6.35,6.35,0,0,1-2.54.46,9.68,9.68,0,0,1-2.47-.31"/><polygon id="Fill-23" class="cls-1" points="116.39 5.09 116.39 15.55 113.95 15.55 109.33 9.97 109.33 15.55 106.43 15.55 106.43 5.09 108.87 5.09 113.49 10.66 113.49 5.09 116.39 5.09"/><polygon id="Fill-24" class="cls-1" points="128.19 13.27 128.19 15.55 119.78 15.55 119.78 5.09 127.99 5.09 127.99 7.37 122.71 7.37 122.71 9.14 127.36 9.14 127.36 11.35 122.71 11.35 122.71 13.27 128.19 13.27"/><polygon id="Fill-25" class="cls-1" points="133.36 7.43 130.15 7.43 130.15 5.09 139.52 5.09 139.52 7.43 136.32 7.43 136.32 15.55 133.36 15.55 133.36 7.43"/></g></g></g></g></g></svg>
