<?xml version="1.0"?>
<svg xmlns="http://www.w3.org/2000/svg" width="120" height="120" viewBox="0 0 111 40" fill="none">
<path fill-rule="evenodd" clipRule="evenodd" d="M25.0869 27.122L17.4562 34.7527C16.6513 35.5576 15.5601 35.9034 14.5099 35.7893C13.7201 35.7034 12.9528 35.358 12.3474 34.7527L4.71669 27.122C4.01181 26.4171 3.65912 25.4927 3.65864 24.5688C3.65815 23.6439 4.01083 22.719 4.71669 22.0132L12.3474 14.3824C13.1308 13.599 14.184 13.2507 15.2079 13.3371C16.0279 13.4063 16.8289 13.7546 17.4562 14.3824L25.0869 22.0132C25.7918 22.718 26.1445 23.642 26.145 24.5659C26.1455 25.4912 25.7928 26.4161 25.0869 27.122ZM29.3123 21.8961L29.3191 21.8932L29.2816 21.7917C29.2533 21.7176 29.2299 21.6434 29.1991 21.5702L24.5713 9.1122L21.786 13.1024L14.905 0C14.905 0 4.05571 16.1371 1.30351 20.2517L1.30937 20.2522C-0.712583 23.2732 -0.394046 27.3961 2.27376 30.0639L9.40547 37.1951C12.4411 40.2307 17.363 40.2307 20.3981 37.1951L27.5299 30.0639C29.7396 27.8537 30.3206 24.6498 29.3123 21.8961Z" fill="#F12C4C"/>
<path fill-rule="evenodd" clipRule="evenodd" d="M14.9019 17.1818C13.6623 17.1818 12.6575 18.1866 12.6575 19.4262C12.6575 20.6657 13.6623 21.6705 14.9019 21.6705C16.1414 21.6705 17.1463 20.6657 17.1463 19.4262C17.1463 18.1866 16.1414 17.1818 14.9019 17.1818Z" fill="#F12C4C"/>
<path fill-rule="evenodd" clipRule="evenodd" d="M14.9019 27.4645C13.6623 27.4645 12.6575 28.4694 12.6575 29.7089C12.6575 30.9484 13.6623 31.9533 14.9019 31.9533C16.1414 31.9533 17.1463 30.9484 17.1463 29.7089C17.1463 28.4694 16.1414 27.4645 14.9019 27.4645Z" fill="#F12C4C"/>
<path fill-rule="evenodd" clipRule="evenodd" d="M20.0433 22.323C18.8038 22.323 17.7989 23.3279 17.7989 24.5674C17.7989 25.8069 18.8038 26.8118 20.0433 26.8118C21.2828 26.8118 22.2877 25.8069 22.2877 24.5674C22.2877 23.3279 21.2828 22.323 20.0433 22.323Z" fill="#F12C4C"/>
<path fill-rule="evenodd" clipRule="evenodd" d="M7.51572 24.5674C7.51572 25.8069 8.52059 26.8118 9.76059 26.8118C11.0001 26.8118 12.005 25.8069 12.005 24.5674C12.005 23.3279 11.0001 22.323 9.76059 22.323C8.52059 22.323 7.51572 23.3279 7.51572 24.5674Z" fill="#F12C4C"/>
<path fill-rule="evenodd" clipRule="evenodd" d="M46.0611 20.4263C45.5562 20.4263 45.0636 20.5165 44.5826 20.6848C44.1021 20.8531 43.6811 21.1175 43.2967 21.478C42.9118 21.839 42.6114 22.2955 42.3953 22.8424C42.167 23.3951 42.0587 24.038 42.0587 24.7834C42.0587 25.5468 42.167 26.1955 42.407 26.7365C42.6357 27.277 42.9362 27.7219 43.3084 28.0707C43.6811 28.419 44.1021 28.6834 44.5826 28.8516C45.0636 29.0199 45.5562 29.1043 46.0611 29.1043C46.6138 29.1043 47.1309 29.0024 47.6236 28.8038C48.104 28.5994 48.5372 28.3112 48.9094 27.9263C49.2704 27.5477 49.5704 27.0912 49.7748 26.5624C49.9914 26.0336 50.0996 25.4263 50.0996 24.7531C50.0996 24.0921 49.9914 23.497 49.7748 22.9565C49.5704 22.4155 49.2704 21.959 48.9094 21.5863C48.5372 21.2194 48.104 20.9312 47.6236 20.7326C47.1309 20.5282 46.6138 20.4263 46.0611 20.4263ZM42.1187 18.4253C43.2484 17.1751 44.8109 16.5502 46.8182 16.5502C47.924 16.5502 48.9455 16.7604 49.8714 17.1692C50.8084 17.5838 51.6138 18.1546 52.287 18.8877C52.9718 19.6209 53.5006 20.4868 53.8738 21.496C54.2582 22.4994 54.4504 23.5936 54.4504 24.7834C54.4504 25.9673 54.2582 27.0668 53.8738 28.0707C53.5006 29.0804 52.9718 29.9458 52.3114 30.679C51.6382 31.4058 50.8328 31.9829 49.8953 32.3916C48.9455 32.8063 47.924 33.0102 46.8182 33.0102C45.7484 33.0102 44.7631 32.818 43.8977 32.4277C43.0323 32.0312 42.3231 31.4658 41.7704 30.7268V32.6316H37.8279V12.3097H42.1187V18.4253Z" fill="white"/>
<path fill-rule="evenodd" clipRule="evenodd" d="M56.8283 32.6318H61.1196V12.3099H56.8283V32.6318Z" fill="white"/>
<path fill-rule="evenodd" clipRule="evenodd" d="M70.6071 29.8675C71.5447 29.8675 72.3379 29.5792 72.9749 29.008C73.6242 28.4372 73.9486 27.686 73.9486 26.7543V26.5621H70.5827C69.1164 26.5621 68.3832 27.0909 68.3832 28.149C68.3832 28.7016 68.5998 29.128 69.0086 29.4226C69.4174 29.7172 69.9579 29.8675 70.6071 29.8675ZM71.472 16.5504C72.4701 16.5504 73.3832 16.6943 74.2008 16.9826C75.0301 17.2655 75.7393 17.6919 76.3286 18.2509C76.9291 18.8158 77.3857 19.5129 77.7106 20.348C78.0471 21.1836 78.2032 22.1631 78.2032 23.287V32.6319H74.2969V31.1055C73.7442 31.7002 73.071 32.1631 72.2535 32.5055C71.4364 32.8421 70.511 33.0104 69.4652 33.0104C68.6242 33.0104 67.8545 32.8904 67.1818 32.6499C66.5086 32.4036 65.9315 32.0729 65.4627 31.6646C64.994 31.2494 64.6452 30.7568 64.4052 30.186C64.153 29.6148 64.0325 28.9899 64.0325 28.3109C64.0325 26.869 64.5735 25.745 65.6432 24.9397C66.713 24.1343 68.1671 23.7314 70.0062 23.7314H73.9486V23.0343C73.9486 22.1631 73.7076 21.4899 73.2154 21.0036C72.7345 20.5168 71.9891 20.2699 70.9915 20.2699C70.1623 20.2699 69.4291 20.4626 68.7803 20.8411C68.1427 21.2255 67.4823 21.7543 66.833 22.4333L64.6335 19.7953C66.412 17.6319 68.6959 16.5504 71.472 16.5504Z" fill="white"/>
<path fill-rule="evenodd" clipRule="evenodd" d="M103.322 20.0178C102.397 20.0178 101.591 20.2939 100.906 20.8593C100.233 21.4178 99.7644 22.1993 99.5117 23.1905H106.723C106.687 22.1754 106.339 21.3939 105.678 20.8407C105.017 20.288 104.235 20.0178 103.322 20.0178ZM103.49 16.5505C104.584 16.5505 105.594 16.7427 106.507 17.1212C107.42 17.5056 108.19 18.0227 108.839 18.6836C109.488 19.3388 109.98 20.1139 110.329 21.0036C110.678 21.8929 110.858 22.8422 110.858 23.8578C110.858 24.3085 110.822 24.7412 110.762 25.1617C110.702 25.5885 110.629 25.9373 110.569 26.2139H99.5117C99.7883 27.229 100.317 28.0046 101.098 28.5334C101.88 29.0622 102.853 29.3266 103.995 29.3266C104.836 29.3266 105.618 29.1822 106.327 28.8997C107.036 28.6115 107.721 28.2271 108.382 27.7402L110.125 30.6607C109.235 31.4061 108.274 31.9827 107.24 32.3915C106.195 32.8061 105.077 33.0105 103.862 33.0105C102.613 33.0105 101.459 32.8002 100.401 32.3793C99.3439 31.9529 98.4302 31.3695 97.6732 30.6305C96.9039 29.8856 96.3024 29.0202 95.8702 28.0227C95.4376 27.031 95.221 25.949 95.221 24.7836C95.221 23.6173 95.4376 22.5358 95.8581 21.5383C96.279 20.5466 96.8678 19.6754 97.6005 18.9358C98.3459 18.191 99.2234 17.6139 100.233 17.1871C101.231 16.7666 102.324 16.5505 103.49 16.5505Z" fill="white"/>
<path fill-rule="evenodd" clipRule="evenodd" d="M93.3153 16.9138H80.8362V20.5377H87.6372L80.8362 29.6831V32.647H93.3031V29.0231H86.0382L93.3153 19.5031V16.9138Z" fill="white"/>
</svg>
