<?xml version="1.0" encoding="utf-8"?>
<!-- Generator: Adobe Illustrator 25.0.0, SVG Export Plug-In . SVG Version: 6.00 Build 0)  -->
<svg xmlns="http://www.w3.org/2000/svg" xmlns:xlink="http://www.w3.org/1999/xlink" version="1.1" id="Слой_1" x="0px" y="0px" viewBox="0 0 500 500" style="enable-background:new 0 0 500 500;" xml:space="preserve" width="100" height="100">
<style type="text/css">
	.st0{fill-rule:evenodd;clip-rule:evenodd;fill:#FFFFFF;}
	.st1{fill-rule:evenodd;clip-rule:evenodd;fill:#FF0960;}
</style>
<path class="st0" d="M205.1,234.7c5.4,0,9.8,1.3,12.7,3.7v-66.4c0.1-1.8-0.3-3.7-1-5.4c-0.5-1.3-1.4-2.5-2.5-3.4  c-1.3-0.9-2.7-1.4-4.2-1.6c-1.8-0.3-3.6-0.4-5.5-0.4c-2.1,0-4.1,0.2-6.2,0.5c-2,0.3-3.5,0.5-4.5,0.7v73.1  C197.6,235,201.3,234.7,205.1,234.7z M118.1,162.9c1.4-0.3,2.8-0.6,4.3-0.8c2-0.3,4-0.5,6-0.5c1.7,0,3.5,0.1,5.2,0.4  c1.4,0.2,2.8,0.7,4,1.6c1.1,0.8,1.9,1.9,2.4,3.2c0.6,1.7,0.9,3.4,0.8,5.1v16.3c2-0.8,4.1-1.4,6.3-1.8c2.2-0.4,4.4-0.5,6.7-0.5  c4.2,0,8.3,0.7,12.3,2.2c3.8,1.4,7.3,3.6,10.2,6.4c3.1,2.9,5.4,6.4,7,10.3c3.4,9.4,3.4,19.7-0.1,29c-1.6,3.9-4,7.5-7.2,10.3  c-3.4,2.9-7.3,5-11.5,6.3c-4.8,1.4-9.8,2.1-14.9,2.1c-5.1,0.1-10.1-0.6-15-2.1c-3.7-1.1-7.3-2.7-10.5-4.9c-3.9-2.7-5.9-6.1-5.9-10.3  L118.1,162.9z M149.4,235.2c4.1,0,7.3-1.3,9.5-4c2.2-2.7,3.4-6.7,3.5-12.1c0-5.4-1.2-9.4-3.5-12.1c-2.4-2.7-5.8-4.2-9.4-4  c-1.6,0-3.1,0.1-4.7,0.5c-1.4,0.4-2.8,0.9-4.1,1.6v28.1c1.1,0.7,2.3,1.2,3.5,1.5C145.9,235.1,147.6,235.3,149.4,235.2L149.4,235.2z   M329.6,250.8c5,1.5,10.2,2.2,15.4,2.2c3.5,0,7-0.3,10.5-0.8c3.5-0.5,6.9-1.5,10.1-3.1c3.9-2,5.9-5,5.9-9c0-1.8-0.5-3.6-1.5-5.1  c-0.9-1.5-2.2-2.8-3.8-3.8c-2.7,1.5-5.5,2.6-8.4,3.4c-3.5,0.9-7.1,1.3-10.8,1.3c-3.8,0.1-7.5-0.6-11-2.2c-2.9-1.3-5.2-3.7-6.3-6.7  l34.6-5c2.7-0.3,5.3-1.3,7.4-3.1c1.8-1.6,2.7-4,2.6-7c0-4-0.8-7.9-2.5-11.5c-1.6-3.5-3.9-6.6-6.9-9c-3.1-2.6-6.7-4.6-10.5-5.9  c-4.3-1.5-8.9-2.3-13.5-2.2c-4.4,0-8.7,0.7-12.9,2c-4.1,1.2-7.9,3.3-11.2,6.1c-3.4,2.9-6.1,6.5-8,10.5c-2.1,4.8-3.1,10-2.9,15.3  c-0.1,5.4,0.9,10.8,3,15.8c1.9,4.3,4.7,8.1,8.3,11.2C320.9,247.1,325.1,249.4,329.6,250.8L329.6,250.8z M335.2,201  c1.9-0.7,3.8-1.1,5.8-1c3.5,0,6.1,0.9,7.9,2.7c1.6,1.4,2.6,3.3,3.1,5.4l-24,3.8c0.1-1.4,0.4-2.8,0.8-4.2c0.5-1.4,1.3-2.7,2.4-3.8  C332.3,202.7,333.6,201.7,335.2,201L335.2,201z M233.4,185.5c-1.5,0.2-2.9,0.4-4.3,0.8v38.6c-0.1,4.5,0.7,8.9,2.5,13  c1.6,3.4,4.1,6.4,7.1,8.6c3.3,2.3,7,4,10.9,5c4.6,1.1,9.3,1.7,14,1.6c1.3,0,2.5,0,3.8-0.1c-1.1-2.3-1.7-4.9-1.6-7.4  c-0.1-4.2,1.4-8.2,4.3-11.2c-0.3,0.1-0.7,0.2-1,0.3c-1.7,0.4-3.4,0.6-5.2,0.6c-3.5,0-6.3-0.8-8.1-2.3s-2.8-4.3-2.8-8v-29  c0.1-1.9-0.3-3.7-1-5.4c-0.5-1.3-1.4-2.5-2.5-3.4c-1.3-0.9-2.7-1.4-4.2-1.6c-1.8-0.3-3.6-0.4-5.5-0.4  C237.6,185.1,235.5,185.2,233.4,185.5z M272.3,232.3c3.3-2.3,7.3-3.5,11.3-3.4c5.2,0,9.3,1.5,12.5,4.5v-37.6c0.1-1.9-0.3-3.7-1-5.4  c-0.5-1.3-1.4-2.5-2.5-3.4c-1.3-0.9-2.7-1.4-4.2-1.6c-1.8-0.3-3.6-0.4-5.5-0.4c-2.1,0-4.2,0.1-6.3,0.4c-1.5,0.2-2.9,0.4-4.4,0.8  L272.3,232.3z"/>
<path class="st0" d="M270.8,245.8c-0.1-3.2,1.2-6.4,3.5-8.6c2.6-2.4,6-3.7,9.5-3.5c3.5-0.2,6.9,1.1,9.4,3.5c4.8,4.6,4.9,12.3,0.2,17  c-0.1,0.1-0.2,0.2-0.2,0.2c-2.5,2.4-5.9,3.7-9.4,3.5c-3.5,0.2-7-1.1-9.5-3.5C271.9,252.1,270.7,249,270.8,245.8z M295.8,329.4  c-1,0.2-2.6,0.4-4.6,0.7c-2,0.4-4,0.5-6,0.5c-1.9,0-3.8-0.1-5.6-0.4c-1.5-0.2-2.8-0.8-4.1-1.6c-1.1-0.8-2.1-2-2.7-3.2  c-0.6-1.8-0.9-3.7-0.8-5.5v-54.9c1-0.2,2.5-0.4,4.5-0.7c2-0.4,4.1-0.5,6.2-0.5c1.8,0,3.7,0.1,5.5,0.4c1.5,0.2,3,0.8,4.2,1.6  c1.2,0.9,2,2,2.5,3.4c0.7,1.7,1.1,3.5,1,5.4L295.8,329.4z M260.9,329.4c-1.5,0.4-3,0.7-4.5,0.8c-2,0.3-4.1,0.4-6.2,0.4  c-1.9,0-3.7-0.1-5.6-0.4c-1.5-0.2-2.9-0.8-4.1-1.6c-1.1-0.8-2.1-2-2.7-3.2c-0.6-1.8-0.9-3.7-0.8-5.5v-30c0-3.7-1-6.2-2.9-7.7  c-2-1.6-4.5-2.4-7-2.3c-1.8,0-3.6,0.2-5.3,0.7c-1.4,0.4-2.8,0.9-4.1,1.6v47.2c-1.5,0.4-3,0.6-4.5,0.8c-2,0.3-4.1,0.4-6.2,0.4  c-1.9,0-3.8-0.1-5.6-0.4c-1.5-0.2-2.9-0.8-4.1-1.6c-1.1-0.8-2.1-2-2.7-3.2c-0.6-1.8-0.9-3.7-0.9-5.5l-0.1-78.3  c1-0.2,2.5-0.4,4.5-0.7c2-0.4,4.1-0.5,6.2-0.6c1.8,0,3.7,0.1,5.5,0.4c1.5,0.2,3,0.7,4.2,1.6c1.2,0.9,2,2,2.5,3.4  c0.7,1.7,1.1,3.5,1,5.4v13.2c1.8-0.6,3.6-1.1,5.5-1.5c2.7-0.7,5.5-1,8.3-1c9.3,0,16.5,2.2,21.6,6.7c5.1,4.5,7.8,11.1,7.9,19.8  L260.9,329.4z M353.5,264c-5.1-1.5-10.3-2.2-15.6-2.1c-4.9-0.1-9.7,0.5-14.4,1.6c-3.8,0.9-7.4,2.3-10.8,4.3  c-1.7,1.1-3.2,2.5-4.5,4.2c-1.1,1.8-1.6,3.8-1.5,5.9v64.8c-0.1,1.8,0.2,3.7,0.8,5.4c0.5,1.3,1.4,2.5,2.5,3.4  c1.2,0.8,2.6,1.4,4.1,1.6c1.9,0.3,3.7,0.4,5.6,0.4c2.1,0,4.2-0.2,6.3-0.5c1.5-0.2,3-0.4,4.5-0.8v-22.4c3.6,1.2,7.4,1.8,11.2,1.8  c4.9,0.1,9.8-0.7,14.4-2.2c4.2-1.3,8-3.5,11.2-6.5c3.2-3.1,5.6-6.8,7.2-10.9c1.8-4.8,2.6-10,2.5-15.1c0.1-5.3-0.9-10.6-3-15.5  c-1.8-4.2-4.6-8-8.1-11C362.3,267.4,358.1,265.3,353.5,264L353.5,264z M352.7,296.8c0,11.1-4.8,16.6-14.4,16.6  c-1.4,0-2.8-0.2-4.2-0.5c-1.3-0.3-2.5-0.8-3.6-1.3v-29.7c1.2-0.6,2.4-1,3.6-1.4c1.5-0.5,3.2-0.7,4.8-0.7c4.5,0,7.9,1.4,10.2,4.2  S352.7,291.1,352.7,296.8L352.7,296.8z M154.5,280.8c2.1-0.7,9.9-1.1,12.2-1.1c2.5,0,4.9,0.3,7.2,1.1c1.9,0.5,3.9,1.2,5.7,2  c1.1-1.1,2.1-2.4,2.9-3.7c0.8-1.5,1.2-3.1,1.2-4.8c0-3.6-1.8-6.6-5.4-9s-8.8-3.5-21-3.5c-5.4,0-10.7,0.7-15.9,2.1  c-4.5,1.4-8.7,3.5-12.3,6.4c-3.7,3-6.7,6.7-8.7,11c-2,4.9-3,10.1-2.9,15.4c-0.1,4.8,0.9,9.5,2.8,13.9c2,4.1,4.8,7.8,8.3,10.8  c3.8,3,8.1,5.4,12.8,6.9c4.7,1.6,11.6,2.4,17.4,2.4c11.9,0,16.9-1,20.6-3s5.4-4.9,5.4-8.6c0.1-1.8-0.4-3.6-1.4-5.2  c-1.1-1.7-2.5-3.1-4.2-4.1c-1.8,0.8-3.6,1.4-5.4,2c-2.3,0.7-4.8,1-7.2,0.9c-4.7,0-15.4-1.4-18.7-4.1c-3.6-3.1-5.6-7.7-5.4-12.4  c-0.1-2.5,0.4-4.9,1.4-7.2c1-2,2.4-3.7,4.2-5.1C149.6,282.6,152.4,281.5,154.5,280.8L154.5,280.8z"/>
<path class="st1" d="M382.5,173.3c0,0,0-0.1,0-0.1c0,0,0,0,0-0.1c-0.1-2.3-1.1-4.4-2.6-6l-0.2-0.2l0,0l-0.1-0.1  c-0.2-0.1-0.4-0.2-0.6-0.2c-0.2,0-0.4,0-0.6,0.1l-0.1,0.1c-2.4,1.2-4.6,2.7-6.6,4.6c-2-1.1-3.8-2.5-5.4-4.1c-0.5-0.5-1-1-1.4-1.6  l0,0l0,0c-1.3-2.6-2.2-5.4-2.5-8.2c1.7-1.7,3.1-3.7,3.9-6l0,0l0.1-0.3c0.1-0.2,0.1-0.4,0.1-0.7c0-0.5-0.3-1.1-0.6-1.4  c-0.1-0.1-0.2-0.2-0.3-0.3l-1-0.4c-0.4-0.2-0.9-0.3-1.3-0.4l0,0c-1.1-0.4-2.3-0.7-3.5-0.9l0,0c-0.5-0.1-1-0.2-1.4-0.3l-1-0.2  c-0.1,0-0.3,0-0.4,0.1c-0.8,0.2-1.4,0.8-1.6,1.5c0,0.1,0,0.2-0.1,0.3l0,0c-0.5,2.4-0.4,4.8,0.3,7.2c-1.7,2.3-3.9,4.3-6.3,5.9l0,0  l0,0c-0.7,0.2-1.4,0.5-2,0.7c-2.3,0.6-4.6,0.9-6.9,0.9c-0.7-2.6-1.9-5-3.4-7.2l-0.1-0.1c-0.1-0.2-0.3-0.3-0.5-0.4  c-0.2-0.1-0.4-0.1-0.7-0.1h-0.1l-0.2,0.1l0,0c-2.1,0.6-4,2-5.2,3.9c0,0,0,0,0,0.1l0,0l-0.1,0.1c0,0.1-0.1,0.2,0,0.2l0,0v0.1  c0.1,0.4,0.2,0.8,0.4,1.2c0.6,1.6,1.4,3,2.4,4.4c0.6,0.7,1.3,1.4,2,2c0.5,3.8,0.2,7.6-1.1,11.2c0,0,0,0,0,0.1s0,0.1,0,0.1  c0,0.1,0.1,0.2,0.1,0.2c0.1,0.1,0.1,0.1,0.2,0.1h0.1c1.9-0.4,3.9-0.7,5.9-0.8h0.4c8.7-0.5,17.4,1.8,24.6,6.7  c1.7,1.1,3.2,2.3,4.7,3.7l0,0c0.1,0.1,0.3,0.1,0.5-0.1c0,0,0-0.1,0-0.1l0,0c0.8-3.7,2.4-7.3,4.7-10.3c2.6-0.5,5-1.6,7-3.3  c0.3-0.3,0.6-0.5,0.9-0.8l0,0l0,0l0,0l0,0C382.4,173.6,382.5,173.5,382.5,173.3z M359.4,153.7L359.4,153.7  C359.4,153.7,359.4,153.7,359.4,153.7z"/>
</svg>
