<?xml version="1.0" encoding="UTF-8" standalone="no"?>
<svg xmlns:inkscape="http://www.inkscape.org/namespaces/inkscape" xmlns:sodipodi="http://sodipodi.sourceforge.net/DTD/sodipodi-0.dtd" xmlns="http://www.w3.org/2000/svg" xmlns:svg="http://www.w3.org/2000/svg" width="45" height="45" viewBox="0 0 38.5 41.5" fill="none" version="1.1" id="svg3508" sodipodi:docname="android-f.svg" inkscape:version="1.1 (c68e22c387, 2021-05-23)">
  <defs id="defs3512"/>
  <sodipodi:namedview id="namedview3510" pagecolor="#ffffff" bordercolor="#111111" borderopacity="1" inkscape:pageshadow="0" inkscape:pageopacity="0" inkscape:pagecheckerboard="1" showgrid="false" width="42px" inkscape:zoom="13.681694" inkscape:cx="12.279181" inkscape:cy="18.162956" inkscape:window-width="1920" inkscape:window-height="1017" inkscape:window-x="-8" inkscape:window-y="-8" inkscape:window-maximized="1" inkscape:current-layer="svg3508"/>
  <path d="m 16.7482,41.291454 c 9.2498,0 16.7482,-7.4742 16.7482,-16.694 0,-9.2199 -7.4984,-16.6940898 -16.7482,-16.6940898 C 7.49843,7.9033642 0,15.377554 0,24.597454 c 0,9.2198 7.49843,16.694 16.7482,16.694 z" fill="#5a9494" id="path3487"/>
  <mask id="mask0" mask-type="alpha" maskUnits="userSpaceOnUse" x="0" y="9" width="34" height="34">
    <path d="m 16.7482,42.4609 c 9.2498,0 16.7482,-7.4742 16.7482,-16.694 C 33.4964,16.547 25.998,9.07281 16.7482,9.07281 7.49843,9.07281 0,16.547 0,25.7669 c 0,9.2198 7.49843,16.694 16.7482,16.694 z" fill="#5a9494" id="path3489"/>
  </mask>
  <g mask="url(#mask0)" id="g3500" transform="translate(0,-1.1694458)">
    <path d="m 5.41973,12.9537 c -1.47801,-0.396 -2.96924,0.4649 -3.36527,1.9429 l -2.962378,11.0558 c -0.396032,1.478 0.464934,2.9692 1.942938,3.3652 1.478,0.3961 2.96939,-0.4649 3.36542,-1.9429 L 7.36281,16.319 C 7.75884,14.841 6.89773,13.3497 5.41973,12.9537 Z m 30.95587,8.2946 c -1.4781,-0.3961 -2.9693,0.4649 -3.3654,1.9429 l -2.9624,11.0557 c -0.396,1.478 0.465,2.9693 1.9431,3.3654 1.478,0.396 2.9693,-0.465 3.3653,-1.943 l 2.9624,-11.0557 c 0.396,-1.478 -0.465,-2.9693 -1.943,-3.3653 z" fill="#a4c639" id="path3492"/>
    <path d="m 13.0937,28.5322 c -1.478,-0.396 -2.9694,0.4649 -3.36545,1.9431 L 6.76591,41.5308 c -0.39603,1.478 0.46508,2.9693 1.94309,3.3654 1.478,0.396 2.9692,-0.465 3.3653,-1.943 l 2.9623,-11.0556 c 0.3961,-1.4781 -0.4649,-2.9694 -1.9429,-3.3654 z m 8.8446,2.3699 c -1.4782,-0.3961 -2.9694,0.4649 -3.3655,1.943 l -2.9623,11.0556 c -0.3961,1.478 0.4649,2.9693 1.9431,3.3653 1.478,0.3961 2.9692,-0.4649 3.3652,-1.9429 l 2.9624,-11.0556 c 0.396,-1.4781 -0.4649,-2.9694 -1.9429,-3.3654 z" fill="#a4c639" id="path3494"/>
    <path d="m 17.2802,1.20236 c -0.063,-0.01606 -0.1291,-0.01579 -0.1919,7.9e-4 -0.2174,0.05415 -0.3378,0.255 -0.2836,0.47286 l 0.9648,3.87874 C 13.6708,6.46267 10.2878,9.36856 9.18915,13.4496 l 23.67205,6.343 C 33.9502,15.7089 32.4736,11.5007 29.3779,8.66523 L 32.1526,5.78864 C 32.3086,5.6271 32.3047,5.39276 32.1435,5.23718 32.0974,5.19138 32.0403,5.15812 31.9777,5.14057 31.8437,5.10305 31.6985,5.13621 31.5922,5.24636 l -2.809,2.90662 C 27.4179,7.05065 25.7833,6.19912 23.9494,5.7077 22.1154,5.21629 20.2742,5.13636 18.5405,5.40847 L 17.5612,1.48676 C 17.5449,1.41817 17.5101,1.35537 17.4606,1.30522 17.411,1.25507 17.3487,1.2195 17.2803,1.2024 Z M 8.93866,14.3845 4.34152,31.5412 c -0.10155,0.3758 -0.12788,0.7679 -0.07748,1.1539 0.05039,0.386 0.17653,0.7582 0.37117,1.0953 0.19463,0.3371 0.45394,0.6324 0.76302,0.8691 0.30908,0.2366 0.66185,0.4098 1.03806,0.5097 l 17.94921,4.8095 c 0.3758,0.1016 0.7679,0.1279 1.1539,0.0776 0.386,-0.0504 0.7583,-0.1766 1.0954,-0.3712 0.3371,-0.1946 0.6324,-0.4539 0.8691,-0.763 0.2366,-0.3091 0.4098,-0.6619 0.5098,-1.0381 l 4.597,-17.1564 -23.67208,-6.343 z" fill="#a4c639" id="path3496"/>
    <path d="M 17.2543,8.84926 C 16.714,8.70448 16.1468,9.03185 16.002,9.57217 c -0.1448,0.54043 0.1827,1.10763 0.723,1.25243 0.5405,0.1448 1.1076,-0.1826 1.2524,-0.7231 C 18.1222,9.56117 17.7948,8.99407 17.2543,8.84926 Z M 28.18,11.7768 c -0.5405,-0.1448 -1.1076,0.1826 -1.2524,0.7229 -0.1448,0.5405 0.1826,1.1076 0.7231,1.2524 0.5403,0.1448 1.1075,-0.1826 1.2524,-0.7231 0.1447,-0.5403 -0.1828,-1.1075 -0.7231,-1.2522 z" fill="#ffffff" id="path3498"/>
  </g>
  <path d="m 36.3759,20.078854 c -1.4781,-0.3961 -2.9694,0.4649 -3.3654,1.9429 l -2.9624,11.0558 c -0.396,1.478 0.465,2.9692 1.9431,3.3653 1.478,0.396 2.9693,-0.465 3.3653,-1.943 l 2.9624,-11.0557 c 0.396,-1.478 -0.465,-2.9693 -1.943,-3.3653 z" fill="#a4c639" id="path3502"/>
  <path d="m 17.2802,0.03294417 c -0.063,-0.01606 -0.1291,-0.01579 -0.1919,7.9e-4 -0.2174,0.05415 -0.3378,0.255 -0.2836,0.47286 l 0.9648,3.87874003 c -4.0987,0.90792 -7.4817,3.81382 -8.58035,7.8949198 l 23.67205,6.3429 c 1.089,-4.0837 -0.3876,-8.2919 -3.4833,-11.1273398 l 2.7747,-2.87659 c 0.156,-0.16154 0.1521,-0.39588 -0.0091,-0.55146 -0.0461,-0.0458 -0.1032,-0.07906 -0.1658,-0.09661 -0.134,-0.03752 -0.2792,-0.00436 -0.3855,0.10579 l -2.809,2.90662 c -1.3653,-1.10233 -2.9999,-1.95386 -4.8338,-2.44528 -1.834,-0.49141 -3.6752,-0.57134 -5.4089,-0.29923 L 17.5612,0.31734417 c -0.0163,-0.06859 -0.0511,-0.13139 -0.1006,-0.18154 -0.0496,-0.05015 -0.1119,-0.08572 -0.1803,-0.10282 z M 8.93866,13.215054 4.34152,30.371754 c -0.10155,0.3758 -0.12788,0.768 -0.07748,1.1539 0.05039,0.386 0.17653,0.7582 0.37117,1.0953 0.19463,0.3371 0.45394,0.6325 0.76302,0.8691 0.30908,0.2366 0.66185,0.4098 1.03806,0.5098 l 17.94921,4.8094 c 0.3758,0.1016 0.7679,0.128 1.1539,0.0776 0.386,-0.0504 0.7583,-0.1765 1.0954,-0.3712 0.3371,-0.1946 0.6324,-0.4539 0.8691,-0.763 0.2366,-0.3091 0.4098,-0.6619 0.5098,-1.0381 l 4.597,-17.1564 -23.67208,-6.3429 z" fill="#a4c639" id="path3504"/>
  <path d="m 17.2543,7.6798442 c -0.5403,-0.14478 -1.1075,0.18259 -1.2523,0.72291 -0.1448,0.5405 0.1827,1.1076 0.723,1.2524 0.5405,0.1448 1.1076,-0.1826 1.2524,-0.7231 0.1448,-0.5403 -0.1826,-1.1074 -0.7231,-1.25221 z M 28.18,10.607354 c -0.5405,-0.1448 -1.1076,0.1826 -1.2524,0.7229 -0.1448,0.5405 0.1826,1.1076 0.7231,1.2524 0.5403,0.1448 1.1075,-0.1826 1.2524,-0.7231 0.1447,-0.5403 -0.1828,-1.1074 -0.7231,-1.2522 z" fill="#ffffff" id="path3506"/>
</svg>
