<?xml version="1.0"?>
<svg xmlns="http://www.w3.org/2000/svg" width="35" height="35" viewBox="0 0 40 40" fill="none">
<path d="M19.7482 37.7988C28.998 37.7988 36.4964 30.3246 36.4964 21.1047C36.4964 11.8849 28.998 4.41071 19.7482 4.41071C10.4984 4.41071 3 11.8849 3 21.1047C3 30.3246 10.4984 37.7988 19.7482 37.7988Z" fill="#5A9494"/>
<path d="M28.6717 30.6024L21.3405 29.6102L14.6103 32.682C14.5674 32.8129 14.5651 32.9379 14.5861 33.0801L15.2072 37.2795L29.4311 35.1759L28.81 30.9764C28.789 30.8342 28.7506 30.7153 28.6717 30.6024Z" fill="#646D73"/>
<path d="M29.4305 35.1759L28.8094 30.9765C28.7884 30.8342 28.75 30.7153 28.6711 30.6024L21.3398 29.6102L22.3185 36.2277L29.4305 35.1759Z" fill="#474F54"/>
<path d="M33.9637 2.18229L28.7723 2.95008C28.7305 2.60555 28.7174 2.27713 28.6657 1.92763C28.5816 1.3586 28.0685 0.977739 27.4995 1.0619L7.17967 4.06712C6.61065 4.15128 6.22978 4.66435 6.31394 5.23337C6.36563 5.58287 6.44819 5.90102 6.50775 6.24292L1.31651 7.01069C0.754941 7.09374 0.367729 7.61537 0.450784 8.17694L0.831426 10.7506C1.67042 16.4235 6.8963 20.3598 12.5404 19.8282C13.9447 21.262 15.5056 22.2493 17.1803 22.6879C17.6668 27.6617 15.3502 31.5134 14.7849 32.3239C14.6953 32.4201 14.632 32.554 14.6094 32.682L28.6708 30.6023C28.612 30.4864 28.5128 30.3765 28.3991 30.3104C27.6031 29.7013 24.294 26.7023 23.3169 21.7803C24.7933 20.8756 26.01 19.4772 26.9399 17.6975C32.4908 16.5685 36.3491 11.2914 35.5106 5.62173L35.1299 3.04802C35.0469 2.48645 34.5253 2.09924 33.9637 2.18229ZM2.86341 10.4501L2.63303 8.89241L6.89545 8.26201C7.65577 11.5811 8.90996 15.0299 10.8874 17.8259C6.9233 17.5294 3.46891 14.5442 2.86341 10.4501ZM33.4786 5.92225C34.0838 10.0143 31.6438 13.8695 27.9383 15.3023C29.0097 12.0555 29.221 8.42508 28.9858 4.99493L33.2482 4.36453L33.4786 5.92225Z" fill="#FED843"/>
<path d="M33.964 2.1823L28.7726 2.95008C28.7308 2.60556 28.7177 2.27713 28.666 1.92763C28.5818 1.35861 28.0688 0.977745 27.4998 1.0619L17.3398 2.56451L21.6403 31.6422L28.671 30.6024C28.6123 30.4865 28.5131 30.3765 28.3994 30.3104C27.6033 29.7013 24.2943 26.7023 23.3172 21.7803C24.7936 20.8756 26.0102 19.4772 26.9402 17.6975C32.491 16.5685 36.3494 11.2914 35.5108 5.62174L35.1302 3.04803C35.0472 2.48646 34.5255 2.09924 33.964 2.1823ZM33.4789 5.92226C34.0841 10.0143 31.644 13.8695 27.9386 15.3023C29.0101 12.0555 29.2214 8.42506 28.9861 4.99494L33.2485 4.36454L33.4789 5.92226Z" fill="#FABE2C"/>
<path d="M20.872 15.2479L19.1261 14.6453L17.6295 15.7274C17.316 15.9522 16.897 15.9848 16.5522 15.8056C16.2071 15.6255 15.9938 15.2657 16.0012 14.8773L16.0319 13.0285L14.5425 11.9378C14.2188 11.7039 14.0718 11.3078 14.135 10.9376C14.2001 10.5548 14.476 10.2403 14.8484 10.1264L16.614 9.5875L17.1898 7.83247C17.4333 7.09283 18.5604 6.92614 19.0075 7.56364L20.0667 9.07685L21.9127 9.08166C22.3022 9.08289 22.6573 9.30411 22.8304 9.65158C23.0036 10.0001 22.9658 10.4163 22.7299 10.7269L21.6199 12.202L22.1845 13.9628C22.3041 14.3324 22.2039 14.7386 21.9258 15.0109C21.6495 15.2809 21.2404 15.3753 20.872 15.2479Z" fill="#FABE2C"/>
<path d="M20.8731 15.2479C21.2416 15.3753 21.6507 15.281 21.927 15.011C22.2051 14.7386 22.3052 14.3325 22.1856 13.9629L21.621 12.2021L22.731 10.727C22.9669 10.4164 23.0048 10.0001 22.8315 9.65163C22.6585 9.30409 22.3033 9.08287 21.9138 9.08171L20.0679 9.0769L19.0087 7.56369C18.7851 7.24494 18.3916 7.1272 18.0234 7.18164L19.1273 14.6453L20.8731 15.2479Z" fill="#FF9100"/>
<path d="M30.5958 36.0416L14.34 38.4458C13.7784 38.5289 13.2568 38.1416 13.1737 37.5801C13.0906 37.0185 13.4779 36.4969 14.0394 36.4138L30.2953 34.0096C30.8569 33.9266 31.3785 34.3138 31.4615 34.8754C31.5446 35.4369 31.1574 35.9586 30.5958 36.0416Z" fill="#474F54"/>
<path d="M30.2959 34.0096L22.168 35.2117L22.4685 37.2437L30.5964 36.0416C31.158 35.9585 31.5452 35.4369 31.4621 34.8753C31.3791 34.3137 30.8575 33.9265 30.2959 34.0096Z" fill="#32393F"/>
</svg>
