<?xml version="1.0" encoding="UTF-8" standalone="no"?>
<svg xmlns:inkscape="http://www.inkscape.org/namespaces/inkscape" xmlns:sodipodi="http://sodipodi.sourceforge.net/DTD/sodipodi-0.dtd" xmlns="http://www.w3.org/2000/svg" xmlns:svg="http://www.w3.org/2000/svg" width="45" height="45" viewBox="0 0 33.5 40.25" fill="none" version="1.1" id="svg3570" sodipodi:docname="apple-f.svg" inkscape:version="1.1 (c68e22c387, 2021-05-23)">
  <defs id="defs3574"/>
  <sodipodi:namedview id="namedview3572" pagecolor="#ffffff" bordercolor="#111111" borderopacity="1" inkscape:pageshadow="0" inkscape:pageopacity="0" inkscape:pagecheckerboard="1" showgrid="false" inkscape:zoom="14.007449" inkscape:cx="23.773066" inkscape:cy="21.809825" inkscape:window-width="1920" inkscape:window-height="1017" inkscape:window-x="-8" inkscape:window-y="-8" inkscape:window-maximized="1" inkscape:current-layer="svg3570"/>
  <path d="m 16.7482,40.192216 c 9.2498,0 16.7482,-7.4741 16.7482,-16.694 0,-9.2199 -7.4984,-16.6940495 -16.7482,-16.6940495 C 7.49843,6.8041665 0,14.278316 0,23.498216 c 0,9.2199 7.49843,16.694 16.7482,16.694 z" fill="#5a9494" id="path3559"/>
  <mask id="mask0" mask-type="alpha" maskUnits="userSpaceOnUse" x="0" y="8" width="34" height="34">
    <path d="m 16.7482,41.8342 c 9.2498,0 16.7482,-7.4741 16.7482,-16.694 C 33.4964,15.9203 25.998,8.44615 16.7482,8.44615 7.49843,8.44615 0,15.9203 0,25.1402 c 0,9.2199 7.49843,16.694 16.7482,16.694 z" fill="#5a9494" id="path3561"/>
  </mask>
  <g mask="url(#mask0)" id="g3566" transform="translate(0,-1.6419835)">
    <path d="m 28.9339,19.1429 c -0.7695,-2.8057 -0.0638,-5.2647 2.0889,-7.5152 -1.99,-1.67492 -4.4692,-2.22508 -7.3955,-1.67504 -2.7727,0.51334 -5.2621,3.10584 -6.3499,3.39724 -1.1496,0.3081 -4.1824,-0.4956 -6.2509,0.0586 -4.25098,1.2097 -7.89322,5.7628 -6.07375,12.5531 0.53767,2.0066 1.45972,3.9809 2.76504,5.9188 1.73361,2.5473 7.11371,8.4851 10.77161,7.3857 1.9162,-0.562 2.9257,-2.25 5.435,-2.9224 2.4351,-0.6525 4.0625,0.3776 6.2133,-0.1987 3.7063,-1.0505 5.2267,-8.1661 5.4027,-11.2339 -5.6202,-1.0157 -6.5679,-5.624 -6.6065,-5.7682 z M 21.236,7.73613 C 22.6604,4.69593 21.8659,2.48876 21.5866,1.69361 19.7693,2.29535 17.943,4.01683 17.1062,5.7558 16.1734,7.63091 15.8887,9.71654 16.624,11.785 18.6591,11.4031 20.2054,9.88916 21.236,7.73613 Z" fill="#302020" id="path3564"/>
  </g>
  <path fill-rule="evenodd" clip-rule="evenodd" d="m 31.0228,9.9857165 c -2.1527,2.2504995 -2.8584,4.7094995 -2.0889,7.5151995 10e-4,0.0039 0.0028,0.0112 0.0053,0.0217 0.0448,0.1881 0.3347,1.4036 1.3178,2.6868 l -24.45324,6.5523 c -0.34773,-0.8085 -0.63142,-1.6226 -0.85101,-2.4421 -1.81947,-6.7903 1.82277,-11.3434 6.07375,-12.5531 1.185,-0.3175 2.6866,-0.1893 3.9692,-0.0799 0.9562,0.0817 1.7907,0.1529 2.2817,0.0213 0.3969,-0.1063 0.9805,-0.519 1.6963,-1.0253 1.2459,-0.8812995 2.8926,-2.0458995 4.6536,-2.3719395 2.9263,-0.55004 5.4055,1.2e-4 7.3955,1.67504 z M 21.5929,0.06978647 c 0.2848,0.8102 1.0568,3.00700003 -0.3569,6.02436003 -1.0306,2.15303 -2.5769,3.66697 -4.612,4.0488695 -0.7353,-2.0684595 -0.4506,-4.1540895 0.4822,-6.0291995 0.8368,-1.73897 2.6631,-3.46045003 4.4804,-4.06219003 z" fill="#302020" id="path3568"/>
</svg>
