<?xml version="1.0"?>
<svg xmlns="http://www.w3.org/2000/svg" width="50" height="50" viewBox="0 0 76 76" fill="none">
<path d="M31.1223 65.3951C46.1283 69.4159 61.556 60.5515 65.5689 45.575C69.5819 30.5985 60.6533 15.2078 45.6473 11.187C30.6413 7.16611 15.2136 16.0305 11.2006 31.007C7.18767 45.9836 16.1163 61.3742 31.1223 65.3951Z" fill="#C0EEBF" stroke="white" stroke-width="5"/>
<mask id="mask0" mask-type="alpha" maskUnits="userSpaceOnUse" x="7" y="6" width="63" height="64">
<path d="M31.7693 62.9803C45.4491 66.6457 59.5005 58.5634 63.1541 44.9279C66.8078 31.2924 58.68 17.2672 45.0002 13.6018C31.3205 9.9363 17.2691 18.0186 13.6154 31.6541C9.96181 45.2896 18.0896 59.3148 31.7693 62.9803Z" fill="#24B90C"/>
</mask>
<g mask="url(#mask0)">
<path d="M60.6603 35.5793L20.8854 24.9216C20.4688 24.81 20.0021 25.2014 19.8429 25.7956L10.8969 59.1826C10.7376 59.7769 10.9461 60.3491 11.3628 60.4607L51.1377 71.1184C51.5544 71.23 52.021 70.8386 52.1802 70.2445L61.1262 36.8575C61.2854 36.2631 61.0768 35.6909 60.6603 35.5793Z" fill="#17A400"/>
<path d="M59.884 38.4764L20.1091 27.8187C19.6925 27.7071 19.268 27.941 19.1609 28.3409L18.3846 31.238L59.6679 42.2998L60.4442 39.4027C60.5513 39.0027 60.3005 38.588 59.884 38.4764Z" fill="#177108"/>
<path d="M44.71 31.3054L36.8358 29.1955C36.41 29.0814 35.9402 29.4553 35.7861 30.0304L27.1282 62.342C26.9741 62.9172 27.1941 63.4758 27.6198 63.5899L35.494 65.6998C35.9197 65.8138 36.3896 65.4399 36.5437 64.8649L45.2016 32.5534C45.3557 31.9781 45.1355 31.4194 44.71 31.3054Z" fill="#FFD22D"/>
<path d="M44.5716 31.2652L36.9768 29.2302C36.5662 29.1201 36.1434 29.3674 36.0323 29.7821L35.2315 32.7707L44.3128 35.204L45.1136 32.2155C45.2248 31.8006 44.982 31.3752 44.5716 31.2652Z" fill="#FFB10B"/>
<path d="M62.6437 21.2359C62.4292 19.1208 61.7816 16.9377 60.9114 15.3959C60.592 14.8302 60.0611 14.4445 59.3837 14.2787C57.1379 13.7332 52.7427 15.5892 46.3203 19.7952C46.16 19.9001 46.0436 20.0612 45.9937 20.2472L44.9291 24.2204C44.8179 24.6353 45.0605 25.0607 45.4712 25.1707L56.9052 28.2345C59.4529 28.9171 60.84 27.9464 61.5549 27.0117C62.5084 25.7659 62.895 23.7145 62.6437 21.2359Z" fill="#FFD22D"/>
<path d="M62.7187 22.6586C62.7186 22.5759 62.7054 22.4938 62.6796 22.4155C62.0167 20.3998 59.4194 20.3916 57.3574 20.7396C51.3668 21.7508 48.2619 24.5228 48.1327 24.6403C47.9223 24.8316 47.832 25.123 47.8973 25.3999C47.9624 25.6768 48.1727 25.8945 48.4452 25.9676L56.9056 28.2345C58.5267 28.6689 59.8637 28.4882 60.8793 27.6974C62.0859 26.7579 62.7219 25.0155 62.7187 22.6586Z" fill="#FF9312"/>
<path d="M41.1965 18.4223C37.7376 11.5686 34.8593 7.76365 32.6416 7.11315C31.9702 6.91754 31.3193 6.98662 30.76 7.31685C29.2355 8.21694 27.583 9.78382 26.3398 11.5083C24.8829 13.5292 24.192 15.499 24.3944 17.0547C24.5463 18.2216 25.2621 19.7558 27.8099 20.4385L39.2439 23.5023C39.6546 23.6123 40.0774 23.3651 40.1885 22.9503L41.2532 18.977C41.3031 18.791 41.283 18.5933 41.1965 18.4223Z" fill="#FFD22D"/>
<path d="M37.2041 21.7119C37.1509 21.5456 35.8481 17.5924 31.1656 13.7215C29.5537 12.389 27.3003 11.0978 25.7185 12.5116C25.657 12.5667 25.6046 12.6311 25.5631 12.7027C24.3817 14.7422 24.0614 16.5693 24.6367 17.9861C25.1208 19.1787 26.1883 20.0037 27.8095 20.4381L36.2698 22.705C36.5424 22.778 36.8334 22.6946 37.0282 22.4874C37.2231 22.2803 37.2906 21.9828 37.2041 21.7119Z" fill="#FF9312"/>
<path d="M47.1364 18.9524L40.9094 17.2839C40.4988 17.1739 40.076 17.4211 39.9649 17.8359L38.7013 22.5517C38.5901 22.9666 38.8327 23.392 39.2433 23.502L45.4702 25.1705C45.8809 25.2805 46.3037 25.0333 46.4148 24.6185L47.6784 19.9027C47.7896 19.4879 47.547 19.0625 47.1364 18.9524Z" fill="#FFB10B"/>
<path d="M66.9118 29.4917L18.5153 16.5239C18.0794 16.4071 17.6164 16.7224 17.481 17.2278L15.0605 26.2611C14.9251 26.7667 15.1684 27.2711 15.6043 27.3879L64.0008 40.3557C64.4367 40.4725 64.8997 40.1572 65.0351 39.6517L67.4556 30.6185C67.591 30.1129 67.3477 29.6085 66.9118 29.4917Z" fill="#17A400"/>
<path d="M48.1456 24.4633L37.2816 21.5522L34.3705 32.4163L45.2346 35.3273L48.1456 24.4633Z" fill="#FFD22D"/>
</g>
<path d="M60.6603 35.5795L20.8854 24.9218C20.4688 24.8102 20.0707 24.9456 19.9961 25.2241L15.8028 40.8736C15.7282 41.1521 16.0052 41.4684 16.4219 41.58L56.1968 52.2377C56.6135 52.3493 57.0116 52.2139 57.0862 51.9354L61.2794 36.286C61.354 36.0073 61.0768 35.6911 60.6603 35.5795Z" fill="#17A400"/>
<path d="M59.884 38.4765L20.1091 27.8189C19.6925 27.7072 19.268 27.9411 19.1609 28.341L18.3846 31.2381L59.6679 42.3L60.4442 39.4029C60.5513 39.0028 60.3005 38.5881 59.884 38.4765Z" fill="#177108"/>
<path d="M44.71 31.3056L36.8358 29.1957C36.41 29.0816 35.9836 29.2936 35.883 29.669L30.2312 50.7618C30.1306 51.1372 30.3939 51.534 30.8197 51.648L38.6939 53.7579C39.1195 53.872 39.5461 53.66 39.6467 53.2846L45.2985 32.1919C45.3991 31.8164 45.1355 31.4196 44.71 31.3056Z" fill="#FFD22D"/>
<path d="M44.5716 31.2653L36.9768 29.2303C36.5662 29.1203 36.1434 29.3675 36.0323 29.7823L35.2315 32.7708L44.3128 35.2042L45.1136 32.2156C45.2248 31.8007 44.982 31.3753 44.5716 31.2653Z" fill="#FFB10B"/>
<path d="M62.6437 21.236C62.4292 19.121 61.7816 16.9379 60.9114 15.396C60.592 14.8304 60.0611 14.4447 59.3837 14.2788C57.1379 13.7333 52.7427 15.5894 46.3203 19.7954C46.16 19.9003 46.0436 20.0614 45.9937 20.2474L44.9291 24.2206C44.8179 24.6355 45.0605 25.0609 45.4712 25.1709L56.9052 28.2346C59.4529 28.9173 60.84 27.9465 61.5549 27.0119C62.5084 25.7661 62.895 23.7147 62.6437 21.236Z" fill="#FFD22D"/>
<path d="M62.7186 22.6588C62.7185 22.5761 62.7053 22.494 62.6795 22.4157C62.0166 20.3999 59.4194 20.3918 57.3574 20.7398C51.3667 21.751 48.2619 24.523 48.1327 24.6405C47.9222 24.8318 47.8319 25.1232 47.8972 25.4001C47.9624 25.6769 48.1726 25.8947 48.4452 25.9677L56.9055 28.2347C58.5267 28.6691 59.8636 28.4883 60.8793 27.6976C62.0859 26.7581 62.7219 25.0157 62.7186 22.6588Z" fill="#FF9312"/>
<path d="M41.1965 18.4224C37.7376 11.5687 34.8593 7.76377 32.6416 7.11328C31.9702 6.91766 31.3193 6.98674 30.76 7.31697C29.2355 8.21706 27.583 9.78394 26.3398 11.5084C24.8829 13.5293 24.192 15.4991 24.3944 17.0548C24.5463 18.2217 25.2621 19.756 27.8099 20.4386L39.2439 23.5024C39.6546 23.6124 40.0774 23.3652 40.1885 22.9504L41.2532 18.9771C41.3031 18.7911 41.283 18.5935 41.1965 18.4224Z" fill="#FFD22D"/>
<path d="M37.2041 21.712C37.1509 21.5457 35.8481 17.5926 31.1656 13.7216C29.5537 12.3892 27.3003 11.0979 25.7185 12.5118C25.657 12.5668 25.6046 12.6312 25.5631 12.7029C24.3817 14.7423 24.0614 16.5694 24.6367 17.9862C25.1208 19.1788 26.1883 20.0038 27.8095 20.4382L36.2698 22.7051C36.5424 22.7782 36.8334 22.6947 37.0282 22.4875C37.2231 22.2804 37.2906 21.9829 37.2041 21.712Z" fill="#FF9312"/>
<path d="M47.1364 18.9526L40.9094 17.2841C40.4988 17.174 40.076 17.4213 39.9649 17.836L38.7013 22.5518C38.5901 22.9667 38.8327 23.3921 39.2433 23.5021L45.4702 25.1706C45.8809 25.2806 46.3037 25.0334 46.4148 24.6186L47.6784 19.9029C47.7896 19.488 47.547 19.0626 47.1364 18.9526Z" fill="#FFB10B"/>
<path d="M66.9118 29.4918L18.5153 16.524C18.0794 16.4072 17.6164 16.7225 17.481 17.228L15.0605 26.2612C14.9251 26.7668 15.1684 27.2712 15.6043 27.388L64.0008 40.3558C64.4367 40.4726 64.8997 40.1573 65.0351 39.6518L67.4556 30.6186C67.591 30.113 67.3477 29.6086 66.9118 29.4918Z" fill="#17A400"/>
<path d="M48.1455 24.4634L37.2815 21.5524L34.3705 32.4164L45.2345 35.3274L48.1455 24.4634Z" fill="#FFD22D"/>
</svg>
