<?xml version="1.0"?>
<svg xmlns="http://www.w3.org/2000/svg" width="35" height="35" viewBox="0 0 34 34" fill="none">
<path d="M16.7482 33.7988C25.998 33.7988 33.4964 26.3246 33.4964 17.1047C33.4964 7.88488 25.998 0.410706 16.7482 0.410706C7.49843 0.410706 0 7.88488 0 17.1047C0 26.3246 7.49843 33.7988 16.7482 33.7988Z" fill="#5A9494"/>
<path d="M5 8.00977H28.9496V26.1374H5V8.00977Z" fill="#F5F5F7"/>
<path d="M16.9746 8.00977H28.9491V26.1372H16.9746V8.00977Z" fill="#E0E3EE"/>
<path d="M5 23.3627H28.9496V27H5V23.3627Z" fill="#E0E3EE"/>
<path d="M16.9746 23.363H28.9491V26.9998H16.9746V23.363Z" fill="#C3CADD"/>
<path d="M5.01758 3.02551H28.9334V8.96307H5.01758V3.02551Z" fill="#FED940"/>
<path d="M16.9746 3.0257H28.9325V8.96297H16.9746V3.0257Z" fill="#FDBF2D"/>
<path d="M21.2168 4.6317V1.41929C21.2168 0.635493 21.8522 0 22.6361 0C23.42 0 24.0554 0.635422 24.0554 1.41929V4.63177C24.0554 5.41564 23.42 6.05107 22.6361 6.05107C21.8522 6.05099 21.2168 5.41557 21.2168 4.6317Z" fill="#EF7A06"/>
<path d="M9.89453 4.6317V1.41929C9.89453 0.635493 10.53 0 11.3138 0C12.0977 0 12.7331 0.635422 12.7331 1.41929V4.63177C12.7331 5.41564 12.0977 6.05107 11.3138 6.05107C10.53 6.05099 9.89453 5.41557 9.89453 4.6317Z" fill="#FD9827"/>
<path d="M15.4294 19.7041H14.3511V13.5748H13.041V12.4965H15.4294V19.7041Z" fill="#726565"/>
<path d="M21.5121 19.677L17.2983 19.664L17.3016 18.7068L17.4498 18.5514C17.4553 18.5454 18.1046 17.8521 19.5912 15.728C19.8844 15.309 20.0735 14.9329 20.1534 14.6094L20.1753 14.4387C20.1589 13.8853 19.7037 13.4401 19.1465 13.4401C18.6557 13.4401 18.231 13.7889 18.1366 14.2692L18.0327 14.7982L16.9746 14.5906L17.0785 14.0615C17.2719 13.0767 18.1416 12.3619 19.1465 12.3619C20.3086 12.3619 21.254 13.3073 21.254 14.4694V14.5037L21.2098 14.8283C21.1022 15.2924 20.8548 15.8031 20.4746 16.3464C19.7277 17.4135 19.1855 18.1306 18.8212 18.5904L21.5154 18.5987L21.5121 19.677Z" fill="#514747"/>
</svg>
