<?xml version="1.0"?>
<svg xmlns="http://www.w3.org/2000/svg" width="32" height="32" viewBox="0 0 27 32" fill="none">
<path d="M22.4521 9.28798L24.3203 7.41979L22.482 5.58085L20.4835 7.57937C18.6578 6.28553 16.5273 5.48813 14.3007 5.26526V2.60013H16.9008V0L9.10045 0V2.60013H11.7006V5.26526C9.47401 5.48813 7.34352 6.28553 5.5178 7.57937L3.51928 5.58085L1.68099 7.41979L3.54918 9.28798C1.80534 11.1343 0.640471 13.451 0.198438 15.9519C-0.243594 18.4529 0.0565649 21.0285 1.06185 23.3607C2.06713 25.693 3.73351 27.6797 5.8552 29.0756C7.97688 30.4715 10.461 31.2153 13.0006 31.2153C15.5403 31.2153 18.0244 30.4715 20.1461 29.0756C22.2678 27.6797 23.9341 25.693 24.9394 23.3607C25.9447 21.0285 26.2449 18.4529 25.8028 15.9519C25.3608 13.451 24.1959 11.1343 22.4521 9.28798ZM13.0006 28.6014C10.9436 28.6014 8.93278 27.9914 7.22243 26.8486C5.51207 25.7058 4.17901 24.0814 3.39182 22.181C2.60464 20.2805 2.39867 18.1893 2.79998 16.1718C3.20128 14.1543 4.19183 12.3012 5.64637 10.8466C7.10091 9.39208 8.9541 8.40153 10.9716 8.00022C12.9891 7.59892 15.0803 7.80488 16.9807 8.59207C18.8812 9.37926 20.5055 10.7123 21.6483 12.4227C22.7912 14.133 23.4011 16.1439 23.4011 18.2009C23.398 20.9583 22.3013 23.6019 20.3515 25.5517C18.4017 27.5015 15.7581 28.5983 13.0006 28.6014Z" fill="white"/>
<path d="M13.0006 10.4006V18.201H5.2002C5.2002 19.7438 5.65768 21.2519 6.5148 22.5347C7.37191 23.8174 8.59017 24.8172 10.0155 25.4076C11.4408 25.998 13.0092 26.1525 14.5224 25.8515C16.0355 25.5505 17.4254 24.8076 18.5163 23.7167C19.6072 22.6258 20.3501 21.2359 20.6511 19.7228C20.952 18.2097 20.7976 16.6413 20.2072 15.2159C19.6168 13.7906 18.617 12.5724 17.3342 11.7152C16.0515 10.8581 14.5433 10.4006 13.0006 10.4006Z" fill="white"/>
</svg>
