<?xml version="1.0" encoding="UTF-8" standalone="no"?>
<svg xmlns:inkscape="http://www.inkscape.org/namespaces/inkscape" xmlns:sodipodi="http://sodipodi.sourceforge.net/DTD/sodipodi-0.dtd" xmlns="http://www.w3.org/2000/svg" xmlns:svg="http://www.w3.org/2000/svg" width="45" height="45" viewBox="0 0 36 36.25" fill="none" version="1.1" id="svg89" sodipodi:docname="high-rating.svg" inkscape:version="1.1 (c68e22c387, 2021-05-23)">
  <defs id="defs93"/>
  <sodipodi:namedview id="namedview91" pagecolor="#ffffff" bordercolor="#111111" borderopacity="1" inkscape:pageshadow="0" inkscape:pageopacity="0" inkscape:pagecheckerboard="1" showgrid="false" width="37px" inkscape:zoom="16" inkscape:cx="9.59375" inkscape:cy="22.40625" inkscape:window-width="1920" inkscape:window-height="1017" inkscape:window-x="-8" inkscape:window-y="-8" inkscape:window-maximized="1" inkscape:current-layer="svg89"/>
  <path d="m 16.80506,36.235734 c 9.2498,0 16.7482,-7.4742 16.7482,-16.694 0,-9.2199 -7.4984,-16.694091 -16.7482,-16.694091 -9.2497697,0 -16.74819968,7.474191 -16.74819968,16.694091 0,9.2198 7.49842998,16.694 16.74819968,16.694 z" fill="#5a9494" id="path74"/>
  <mask id="mask0" mask-type="alpha" maskUnits="userSpaceOnUse" x="0" y="9" width="34" height="35">
    <path d="m 16.7482,43.0738 c 9.2498,0 16.7482,-7.4742 16.7482,-16.694 C 33.4964,17.1599 25.998,9.68571 16.7482,9.68571 7.49843,9.68571 0,17.1599 0,26.3798 c 0,9.2198 7.49843,16.694 16.7482,16.694 z" fill="#5a9494" id="path76"/>
  </mask>
  <path fill-rule="evenodd" clip-rule="evenodd" d="m 20.294304,30.989953 c -0.206588,0.02923 0.679756,-0.06482 0.907056,-0.0079 l 11.4442,2.6583 c 1.2289,0.2883 2.2597,-0.9727 1.736,-2.1175 l -4.8533,-10.7 c -0.2072,-0.4619 -0.1652,-0.9905 0.0856,-1.4249 l 6.0641,-10.0703004 c 0.6426,-1.0901004 -0.221,-2.4443004 -1.4857,-2.3057004 l -11.6628,1.3224 c -0.5036,0.0515 -1.023125,-0.1551125 -1.338225,-0.5213125 L 16.043636,2.8642351 c -0.39182,-0.00957 -2.972635,-3.01742561 -3.474248,-2.81791191 z" fill="#ffc700" id="path87" sodipodi:nodetypes="ccccccccccccc"/>
  <path fill-rule="evenodd" clip-rule="evenodd" d="m 20.51696,30.978234 c 0,0 -0.426141,0.173679 -0.597911,0.333046 L 14.49919,36.075926 C 13.545558,35.951839 11.394149,35.687161 8.3796814,33.978548 L 7.7278946,26.420219 C 7.6869406,25.915633 7.3954835,25.472651 6.9664335,25.212807 L 0.1916437,21.247038 C -0.0841312,20.804475 0.0046321,16.998613 0.6484175,15.229544 L 7.8494271,12.113526 C 8.3155467,11.916045 8.6613438,11.499078 8.7610508,11.026375 L 10.987861,3.8874089 c 0,0 0.653048,-3.51274211 1.581527,-3.84108571 z" fill="#ffc700" id="path87-3" style="fill:#ffb800;fill-opacity:1" sodipodi:nodetypes="ccccccccccccc"/>
</svg>
