<?xml version="1.0"?>
<svg xmlns="http://www.w3.org/2000/svg" width="65" height="65" viewBox="0 0 180 60" fill="none"><path fill-rule="evenodd" clip-rule="evenodd" d="M98.311 28.922c-2.16.132-4.422-.587-5.757-3.283a13.787 13.787 0 0 1-1.063-2.9 12.912 12.912 0 0 0-1.539-.089c-1.67 0-3.129.286-4.377.856-1.248.553-2.232 1.373-2.953 2.461-.703 1.088-1.081 2.425-1.134 4.013a106.157 106.157 0 0 0 0 4.68c.053 1.605.431 2.952 1.134 4.04.72 1.07 1.696 1.872 2.927 2.407 1.248.535 2.716.802 4.403.802 1.67 0 3.12-.267 4.35-.802 1.249-.535 2.225-1.338 2.928-2.407.72-1.088 1.107-2.435 1.16-4.04.035-.748.053-1.515.053-2.3 0-.802-.018-1.596-.053-2.38a9.791 9.791 0 0 0-.079-1.058Zm-6.54 7.771c-.474.446-1.08.669-1.819.669-.756 0-1.37-.223-1.846-.669-.456-.463-.703-1.194-.738-2.193a96.85 96.85 0 0 1 0-4.44c.018-.66.132-1.204.343-1.632.229-.428.536-.74.923-.936a2.873 2.873 0 0 1 1.318-.294c.493 0 .923.098 1.292.294.387.196.686.508.897.936.228.428.351.972.369 1.632a47.29 47.29 0 0 1 0 4.44c-.018.999-.264 1.73-.738 2.193Z" fill="#242540"/><path d="M4.14 41.134c1.248.517 2.707.775 4.377.775 1.16 0 2.241-.133 3.243-.4a8.874 8.874 0 0 0 2.716-1.258 6.385 6.385 0 0 0 1.872-2.087c.457-.838.694-1.81.712-2.915a.51.51 0 0 0-.185-.401.533.533 0 0 0-.395-.16h-4.456c-.264 0-.466.053-.607.16-.123.089-.22.276-.29.561-.21.732-.545 1.24-1.002 1.525-.44.285-.975.428-1.608.428-.774 0-1.389-.205-1.846-.615-.457-.428-.703-1.168-.738-2.22a63.825 63.825 0 0 1 0-4.494c.035-1.052.28-1.783.738-2.193.457-.428 1.072-.642 1.846-.642.633 0 1.169.133 1.608.4.44.268.774.786 1.002 1.552.088.268.193.455.316.562.124.107.317.16.58.16h4.457a.53.53 0 0 0 .395-.16.593.593 0 0 0 .185-.428c-.018-1.106-.255-2.069-.712-2.889a6.127 6.127 0 0 0-1.872-2.06 8.112 8.112 0 0 0-2.716-1.257 11.796 11.796 0 0 0-3.243-.428c-1.617 0-3.059.268-4.325.803-1.248.535-2.24 1.346-2.98 2.434-.72 1.07-1.115 2.407-1.186 4.012a105.196 105.196 0 0 0 0 4.761c.07 1.641.457 2.996 1.16 4.066.721 1.07 1.706 1.873 2.954 2.408Z" fill="#242540"/><path fill-rule="evenodd" clip-rule="evenodd" d="M17.35 41.481c.105.107.237.16.396.16h4.06c.317 0 .536-.07.66-.213.14-.143.237-.277.29-.401l.817-2.247h6.354l.818 2.247c.052.124.15.258.29.4.14.144.36.215.659.215h4.06c.159 0 .29-.054.396-.16a.593.593 0 0 0 .185-.429.6.6 0 0 0-.027-.187L30.27 23.747a1.28 1.28 0 0 0-.343-.562c-.175-.178-.43-.267-.764-.267h-4.826c-.316 0-.562.089-.738.267a1.552 1.552 0 0 0-.369.562l-6.012 17.12a.6.6 0 0 0-.026.186c0 .16.053.303.158.428Zm11.364-7.222h-3.928l1.95-6.018 1.979 6.018Z" fill="#242540"/><path d="M39.963 41.134c1.23.517 2.769.775 4.614.775 1.618 0 3.05-.24 4.298-.722 1.266-.5 2.26-1.204 2.98-2.113.72-.91 1.08-1.997 1.08-3.263 0-1.124-.236-2.06-.711-2.809-.475-.749-1.23-1.355-2.268-1.819-1.02-.463-2.364-.82-4.034-1.07a27.3 27.3 0 0 1-2.056-.481c-.493-.16-.835-.34-1.029-.535a.958.958 0 0 1-.29-.696c0-.392.158-.686.475-.882.316-.214.773-.321 1.37-.321.546 0 .994.098 1.346.294.351.196.57.419.659.669.14.16.281.276.422.347.14.072.316.107.527.107h4.403a.504.504 0 0 0 .37-.16.593.593 0 0 0 .184-.428c-.017-.57-.202-1.168-.554-1.792-.351-.624-.86-1.204-1.529-1.739-.668-.553-1.494-.999-2.478-1.337-.967-.34-2.084-.509-3.35-.509-1.529 0-2.873.25-4.033.75-1.143.499-2.04 1.194-2.69 2.086-.633.891-.95 1.917-.95 3.076 0 1.141.256 2.104.766 2.889.527.766 1.283 1.382 2.267 1.845.985.446 2.154.785 3.507 1.017.967.178 1.731.347 2.294.508.563.16.958.339 1.187.535a.917.917 0 0 1 .369.749c0 .392-.22.704-.66.936-.439.214-1.063.321-1.872.321-.439 0-.826-.044-1.16-.134a2.708 2.708 0 0 1-.817-.4 4.153 4.153 0 0 1-.554-.563 2.116 2.116 0 0 0-.448-.32c-.14-.09-.334-.134-.58-.134h-4.193a.548.548 0 0 0-.554.562c.036.945.352 1.845.95 2.7.615.84 1.53 1.526 2.742 2.06Zm14.916.321c.14.124.299.187.474.187h4.483a.637.637 0 0 0 .475-.187.7.7 0 0 0 .21-.509V23.613a.615.615 0 0 0-.21-.481.598.598 0 0 0-.475-.214h-4.483a.651.651 0 0 0-.474.214.614.614 0 0 0-.211.481v17.333a.7.7 0 0 0 .21.509Zm8.588 0c.14.124.299.187.474.187h3.982a.637.637 0 0 0 .475-.187.7.7 0 0 0 .21-.509v-8.238l5.432 8.372c.053.071.15.187.29.348.159.143.396.214.712.214h3.48a.638.638 0 0 0 .475-.187.7.7 0 0 0 .211-.509V23.613a.614.614 0 0 0-.21-.481.598.598 0 0 0-.475-.214h-3.955a.68.68 0 0 0-.501.214.614.614 0 0 0-.211.481v8.72l-5.432-8.853a2.005 2.005 0 0 0-.29-.348c-.14-.143-.37-.214-.686-.214h-3.506a.651.651 0 0 0-.475.214.614.614 0 0 0-.211.481v17.333a.7.7 0 0 0 .21.509Z" fill="#242540"/><path fill-rule="evenodd" clip-rule="evenodd" d="M116.795 8.286c.502.683.754 1.54.754 2.572 0 .127-.017.527-.052 1.199-.034.66-.337 1.969-.908 3.927-.559 2.085-1.41 4.575-2.552 7.471-1.142 2.896-2.7 6.088-4.676 9.575 2.844-2.572 5.79-5.798 8.839-9.679 2.466-3.232 4.539-6.36 6.217-9.383 1.679-3.024 3.038-5.804 4.077-8.34.228.115.599.44 1.113.973.514.532.914 1.297 1.199 2.293.103.452.154.886.154 1.303 0 .417-.074.904-.222 1.46a5.162 5.162 0 0 1-.668 1.512c-.297.451-.486.712-.565.782-1.508 3.046-3.529 6.383-6.064 10.008-2.535 3.626-5.71 7.27-9.524 10.93-2.946 2.745-5.795 5.056-8.547 6.933a7.569 7.569 0 0 1-.719.087h-.189a5.9 5.9 0 0 1-1.216-.157c-.479-.104-.988-.347-1.524-.73-.651-.532-1.102-1.117-1.353-1.754-.24-.637-.366-1.194-.377-1.668a12.993 12.993 0 0 1-.017-.574c0-.139.005-.22.017-.243 1.096-1.587 2.295-3.533 3.597-5.838 1.313-2.306 2.615-4.953 3.905-7.941.72-1.645 1.422-3.377 2.107-5.196.697-1.819 1.17-3.458 1.422-4.917.068-.417.102-.8.102-1.147 0-.857-.217-1.483-.65-1.877-.309-.22-.68-.33-1.114-.33-.274 0-.696.075-1.267.226-.571.15-1.291.498-2.159 1.043-.867.532-1.61 1.1-2.226 1.702-1.211 1.24-2.05 2.549-2.518 3.927-.468 1.367-.725 2.56-.771 3.58-.023.59-.034 1.043-.034 1.355 0 .243.005.406.017.487.091.753.223 1.39.394 1.911l.257.782c.342.765.691 1.367 1.045 1.807-.16.116-.537.301-1.131.556-.582.255-1.285.44-2.107.556a5.07 5.07 0 0 1-.6.035 5.679 5.679 0 0 1-1.986-.382 4.747 4.747 0 0 1-1.919-1.599 8.484 8.484 0 0 1-1.147-2.328c-.263-.846-.411-1.616-.446-2.311v-.4c0-2.027.674-3.985 2.022-5.873 1.347-1.888 3.129-3.533 5.344-4.935 2.215-1.402 4.51-2.375 6.886-2.92.319-.08.884-.184 1.695-.312a18.23 18.23 0 0 1 2.775-.191c1.028 0 2.016.15 2.963.452.96.29 1.742.816 2.347 1.581Zm8.089 7.141c.883-1.494 2.778-5.258 3.749-7.228.114.301.274 1.07 0 1.738-.214.52-2.023 3.063-3.191 4.704v.001l-.558.785Zm-.362.557c.082-.1.206-.293.362-.557-.365.517-.543.777-.362.557Zm-28.64-.278c-.936 1.737-2.288 5.95-.205 8.896 1.239 1.753 1.711-.111 1.397-.625-1.191-1.947-1.876-4.17-1.191-8.271Zm32.917 23.489c.077.268.215.577.414.924.08.174.297.452.651.834.354.382.868.672 1.542.869.354.058.668.087.942.087.263 0 .485-.03.668-.087.103-.197.205-.4.308-.608.206-.406.417-.805.634-1.2a9.51 9.51 0 0 0 1.781 1.148 6.795 6.795 0 0 0 2.33.625h.325c1.53 0 3.032-.475 4.505-1.425 1.485-.961 2.798-2.224 3.94-3.788 1.142-1.563 1.947-3.162 2.415-4.795.228-.8.342-1.553.342-2.26a5.41 5.41 0 0 0-.376-2.032c-.32-.753-.857-1.448-1.61-2.085-.743-.65-1.565-.985-2.467-1.008a4.531 4.531 0 0 0-1.644.417c-.514.243-.88.44-1.097.59-.719.452-1.244.858-1.575 1.217.239-.487.479-.979.719-1.477.971-1.958 1.941-3.91 2.912-5.856.068-.15.165-.504.291-1.06.08-.394.12-.846.12-1.355 0-.209-.017-.562-.051-1.06-.023-.498-.257-1.176-.703-2.033-.445-.765-.925-1.35-1.439-1.755-.513-.417-.924-.695-1.233-.834-2.101 4.274-4.196 8.543-6.286 12.806a7383.89 7383.89 0 0 0-4.791 9.767c-.342.511-.715.997-1.118 1.458-.537.626-1.119.938-1.748.938h-.034a2.651 2.651 0 0 1-.342-.052.502.502 0 0 1-.24-.139.616.616 0 0 1-.103-.347c0-.105.023-.22.069-.348a4.72 4.72 0 0 1 .308-.712c.011-.012.017-.023.017-.035.582-1.112 1.33-2.595 2.244-4.448.16-.255.314-.597.462-1.026a4.43 4.43 0 0 0 .223-1.46v-.12c-.057-.974-.4-1.86-1.028-2.66-.628-.799-1.467-1.424-2.518-1.876-.08.162-.159.319-.239.47a1060.995 1060.995 0 0 0-4.385 8.548c-1.256 2.503-1.93 4.205-2.022 5.109a4.148 4.148 0 0 0-.034.521c0 .464.08.962.24 1.495a4.388 4.388 0 0 0 1.336 1.841c.617.51 1.29.829 2.021.956.171.023.343.035.514.035.754 0 1.485-.203 2.193-.608a10.676 10.676 0 0 0 2.449-1.93c.057-.058.113-.117.168-.176ZM136.596 36l-.086-.035a1.704 1.704 0 0 1-.411-.226c.24-.66.628-1.413 1.165-2.259.537-.857 1.216-1.778 2.038-2.762.834-.88 1.582-1.576 2.244-2.085.674-.51 1.228-.765 1.661-.765h.018c.376 0 .565.232.565.695 0 .058-.023.255-.069.59-.034.337-.257.927-.668 1.773a12.67 12.67 0 0 1-1.576 2.45 9.565 9.565 0 0 1-2.089 1.964c-.754.51-1.519.764-2.295.764a1.193 1.193 0 0 1-.497-.104Zm6.082-1.599c-.624.826-2.285 2.5-3.93 2.597-2.056.121 3.507 1.51 3.93-2.597Zm-15.895-8.757-4.385 9.035c.582-1.002 1.375-2.21 2.147-3.39 1.318-2.011 2.58-3.937 2.649-4.603.108-1.043-.131-1.042-.401-1.042h-.01Zm8.496 1.529 6.205-12.735c.327-.255.807.495.167 1.545-1.296 2.124-2.365 4.09-3.365 5.93-1.018 1.872-1.964 3.614-3.007 5.26Z" fill="#FF4F00"/><path d="M134.592 19.98c0 .962-.337 1.784-1.011 2.468a3.236 3.236 0 0 1-2.415 1.025c-.948 0-1.759-.342-2.432-1.025-.663-.684-.994-1.506-.994-2.468 0-.961.331-1.778.994-2.45.673-.683 1.484-1.025 2.432-1.025s1.753.342 2.415 1.025c.674.672 1.011 1.489 1.011 2.45Z" fill="#FF4F00"/><path fill-rule="evenodd" clip-rule="evenodd" d="M169.057 31.552c-.002-.046-.002-.092-.002-.138 0-.44.057-.898.171-1.373-1.325.66-2.341 1.552-3.049 2.676-.269.42-.482.85-.638 1.29l-.013.013c-.662.58-1.461 1.153-2.398 1.72-.925.556-1.992.84-3.203.852-.342 0-.794-.052-1.353-.157-.548-.104-1.062-.37-1.542-.799a2.212 2.212 0 0 1-.462-.626c.708 0 1.57-.115 2.586-.347a14.457 14.457 0 0 0 3.426-1.338c1.153-.626 2.107-1.355 2.861-2.19.765-.845 1.147-1.905 1.147-3.18v-.051c0-1.298-.388-2.27-1.165-2.92-.776-.648-1.861-.973-3.254-.973-.286 0-.577.012-.874.035-1.484.058-2.951.435-4.402 1.13a14.795 14.795 0 0 0-3.956 2.78 14.598 14.598 0 0 0-2.878 3.857c-.719 1.414-1.079 2.844-1.079 4.292 0 1.066.245 2.039.736 2.92.491.88 1.262 1.58 2.313 2.102 1.062.521 2.432.782 4.111.782 1.13 0 2.175-.15 3.134-.452a13.57 13.57 0 0 0 2.655-1.164 16.78 16.78 0 0 0 2.107-1.425 36.42 36.42 0 0 0 1.477-1.243 5.1 5.1 0 0 0 .972 1.695 7.22 7.22 0 0 0 2.57 1.911c1.005.44 1.987.666 2.946.678 1.359-.035 2.609-.475 3.751-1.32a10.354 10.354 0 0 0 2.843-3.18c.754-1.286 1.211-2.601 1.371-3.945.023-.301.034-.596.034-.886 0-.811-.114-1.674-.343-2.59a20.789 20.789 0 0 0-.856-2.762c-.365-.985-.617-1.854-.754-2.606a2.898 2.898 0 0 1-.051-.522c0-.521.16-.961.48-1.32a2.15 2.15 0 0 1 .496-.365c.172-.081.314-.133.428-.157-.068-.15-.211-.364-.428-.643-.217-.277-.531-.532-.942-.764-.103-.07-.285-.15-.548-.243a2.523 2.523 0 0 0-.839-.122h-.12a2.637 2.637 0 0 0-1.131.295 3.334 3.334 0 0 0-.753.522c-.194.174-.314.295-.36.365a1507.09 1507.09 0 0 0-2.073 3.91l-1.438 2.71 1.164.66c.229.116.457.238.685.365a844.973 844.973 0 0 0 1.628-3.597c.628 1.645 1.079 3.082 1.353 4.31.103.474.154.926.154 1.355 0 .672-.131 1.286-.394 1.842-.308.533-.645.927-1.011 1.181-.365.244-.61.383-.736.417-.034.024-.188.076-.463.157-.274.08-.61.121-1.01.121h-.069c-.376 0-.765-.092-1.164-.278-.723-.355-1.245-.965-1.566-1.83l.007-.011c.023-.07.034-.22.034-.452.012-.232-.057-.493-.205-.782a1.966 1.966 0 0 0-.118-.192Zm-7.813-4.847c-.788 0-1.564.341-2.329 1.025-.766.683-1.399 1.523-1.902 2.52-.502.984-.776 1.98-.822 2.988a8.958 8.958 0 0 0 1.713-.347c.639-.197 1.296-.516 1.97-.956.468-.301.976-.73 1.524-1.286.56-.568.879-1.268.959-2.102a.943.943 0 0 0 .018-.192c0-.08-.006-.202-.018-.364a1.854 1.854 0 0 0-.154-.574 1.056 1.056 0 0 0-.445-.556l-.103-.052a.746.746 0 0 0-.188-.07.525.525 0 0 0-.223-.034Zm-5.743.243c-2.541 1.522-4.459 4.837-5.05 6.17.56-1.017 1.804-2.636 3.312-4.162.465-.47.959-.933 1.37-1.318.888-.833 1.389-1.302.368-.69Zm7.625 2.029c-.371.926-1.504 2.86-2.987 3.422-2.462.932 2.757.641 2.987-3.422Zm13.26 3.896c-.437.916-1.614 2.726-2.808 2.913-1.982.311 1.923 1.515 2.808-2.913Zm-1.292-8.473c.044-.712.343-2.28 1.194-2.86 1.064-.723-2.424.165-1.194 2.86Z" fill="#FF4F00"/></svg>
