<?xml version="1.0"?>
<svg xmlns="http://www.w3.org/2000/svg" xmlns:xlink="http://www.w3.org/1999/xlink" viewBox="0 0 128 30.65" width="120" height="120"><defs><style>.cls-1{fill:#fff;}.cls-2{fill:#d9d9d9;}.cls-3{fill:url(#&#x411;&#x435;&#x437;&#x44B;&#x43C;&#x44F;&#x43D;&#x43D;&#x44B;&#x439;_&#x433;&#x440;&#x430;&#x434;&#x438;&#x435;&#x43D;&#x442;_8);}</style><linearGradient id="&#x411;&#x435;&#x437;&#x44B;&#x43C;&#x44F;&#x43D;&#x43D;&#x44B;&#x439;_&#x433;&#x440;&#x430;&#x434;&#x438;&#x435;&#x43D;&#x442;_8" x1="35.45" y1="-37.01" x2="33.42" y2="-8.02" gradientTransform="translate(0 37.83)" gradientUnits="userSpaceOnUse"><stop offset="0" stop-color="#ff245a"/><stop offset="1" stop-color="#ffe301"/></linearGradient></defs><title>Cosmicslot</title><g id="&#x421;&#x43B;&#x43E;&#x439;_2" data-name="&#x421;&#x43B;&#x43E;&#x439; 2"><g id="&#x421;&#x43B;&#x43E;&#x439;_1-2" data-name="&#x421;&#x43B;&#x43E;&#x439; 1"><path class="cls-1" d="M58,26.61a17.9,17.9,0,0,1-4.87-.66,11.61,11.61,0,0,1-3.75-1.78l1.66-3.67a11.3,11.3,0,0,0,3.23,1.6,12.19,12.19,0,0,0,3.75.6,6.13,6.13,0,0,0,3.08-.6,1.9,1.9,0,0,0,1-1.66,1.51,1.51,0,0,0-.6-1.23A4.15,4.15,0,0,0,60,18.38q-.91-.3-2.48-.66a34.56,34.56,0,0,1-4-1.14,6.55,6.55,0,0,1-2.66-1.84,5,5,0,0,1-1.09-3.37,5.78,5.78,0,0,1,1-3.31,6.67,6.67,0,0,1,3-2.38,12.43,12.43,0,0,1,4.93-.87,16.32,16.32,0,0,1,4,.48A11.72,11.72,0,0,1,66.1,6.67l-1.51,3.7a11.83,11.83,0,0,0-5.86-1.66,5.6,5.6,0,0,0-3.05.66,2,2,0,0,0-1,1.75,1.74,1.74,0,0,0,1.12,1.63,19.28,19.28,0,0,0,3.48,1,34.56,34.56,0,0,1,4,1.14,6.44,6.44,0,0,1,2.63,1.81A4.79,4.79,0,0,1,67,20.07a5.75,5.75,0,0,1-1,3.31,6.74,6.74,0,0,1-3,2.35A12.43,12.43,0,0,1,58,26.61Z"/><path class="cls-1" d="M89.61,26.24l0-12.65L83.35,24H81.14l-6.2-10.15V26.24H70.35V5.17H74.4l7.92,13.1,7.8-13.1h4l.06,21.08Z"/><path class="cls-1" d="M99.22,5.17h4.9V26.24h-4.9Z"/><path class="cls-1" d="M119.26,26.61a12.39,12.39,0,0,1-5.86-1.39,10.45,10.45,0,0,1-5.59-9.52,10.68,10.68,0,0,1,1.48-5.6,10.47,10.47,0,0,1,4.11-3.88,13.09,13.09,0,0,1,10.85-.45A9.93,9.93,0,0,1,128,8.54l-3.14,2.89A6.77,6.77,0,0,0,119.54,9a7,7,0,0,0-3.51.87,6.12,6.12,0,0,0-2.42,2.38,7.12,7.12,0,0,0-.85,3.49,7.12,7.12,0,0,0,.85,3.49A6.33,6.33,0,0,0,116,21.61a7.18,7.18,0,0,0,3.51.84,6.74,6.74,0,0,0,5.32-2.5L128,22.84a9.79,9.79,0,0,1-3.75,2.8A12.48,12.48,0,0,1,119.26,26.61Z"/><path class="cls-1" d="M11.46,26.61a12.39,12.39,0,0,1-5.86-1.39,10.76,10.76,0,0,1-4.11-3.88A10.83,10.83,0,0,1,0,15.7a10.68,10.68,0,0,1,1.48-5.6A10.47,10.47,0,0,1,5.59,6.22,12.24,12.24,0,0,1,11.49,4.8a12.26,12.26,0,0,1,5,1,9.93,9.93,0,0,1,3.75,2.77L17,11.43A6.77,6.77,0,0,0,11.73,9a7,7,0,0,0-3.51.87A6.11,6.11,0,0,0,5.8,12.21,7.12,7.12,0,0,0,5,15.7,7.12,7.12,0,0,0,5.8,19.2a6.32,6.32,0,0,0,2.42,2.41,7.19,7.19,0,0,0,3.51.84A6.74,6.74,0,0,0,17,20l3.14,2.89a9.79,9.79,0,0,1-3.75,2.8A12.48,12.48,0,0,1,11.46,26.61Z"/><path class="cls-2" d="M44.77,23.78l-.57.78c1.18,3.64-.07,3.21-3.07,1A12.12,12.12,0,1,0,26.4,6.31C25,3.18,24.75,1.3,28,3.68l1-.39C25.84.74,23.86-.62,22.81.28s-.17,4,1.91,7.73A90.32,90.32,0,0,0,39.25,26.63c3.24,3.07,5.93,4.78,6.94,3.68C46.87,29.5,46.59,27.4,44.77,23.78Z"/><path class="cls-2" d="M22,16.16A12.14,12.14,0,0,0,36.84,27.45C26.94,16.55,22,12.09,22,16.16Z"/><path class="cls-3" d="M44.77,23.78l-.57.78c1.18,3.64-.07,3.21-3.07,1A12.12,12.12,0,1,0,26.4,6.31C25,3.18,24.75,1.3,28,3.68l1-.39C25.84.74,23.86-.62,22.81.28s-.17,4,1.91,7.73A90.32,90.32,0,0,0,39.25,26.63c3.24,3.07,5.93,4.78,6.94,3.68C46.87,29.5,46.59,27.4,44.77,23.78Z"/><path class="cls-3" d="M22,16.16A12.14,12.14,0,0,0,36.84,27.45C26.94,16.55,22,12.09,22,16.16Z"/></g></g></svg>
