<?xml version="1.0" encoding="UTF-8"?>
<svg xmlns="http://www.w3.org/2000/svg" xmlns:xlink="http://www.w3.org/1999/xlink" id="_Слой_2" data-name="Слой 2" viewBox="0 0 396.6 84.07" width="230" height="230">
  <defs>
    <style>
      .cls-1 {
        fill: #fff;
      }

      .cls-2 {
        fill: #f7f7f7;
      }

      .cls-2, .cls-3, .cls-4 {
        fill-rule: evenodd;
      }

      .cls-3 {
        fill: url(#_Безымянный_градиент_3-2);
      }

      .cls-4 {
        fill: url(#_Безымянный_градиент_2);
      }

      .cls-5 {
        fill: #11101b;
      }

      .cls-6 {
        fill: url(#_Безымянный_градиент_3);
      }
    </style>
    <linearGradient id="_Безымянный_градиент_3" data-name="Безымянный градиент 3" x1="68.71" y1="-233.6" x2="18" y2="-322.46" gradientTransform="translate(0 -242.31) scale(1 -1)" gradientUnits="userSpaceOnUse">
      <stop offset="0" stop-color="#d3d7ff"/>
      <stop offset="1" stop-color="#959de8"/>
    </linearGradient>
    <linearGradient id="_Безымянный_градиент_2" data-name="Безымянный градиент 2" x1="22.36" y1="-264.16" x2="50.5" y2="-289.68" gradientTransform="translate(0 -242.31) scale(1 -1)" gradientUnits="userSpaceOnUse">
      <stop offset="0" stop-color="#fcc029"/>
      <stop offset="1" stop-color="#fd9c43"/>
    </linearGradient>
    <linearGradient id="_Безымянный_градиент_3-2" data-name="Безымянный градиент 3" x1="45.37" y1="-255.84" x2="29.46" y2="-288.29" xlink:href="#_Безымянный_градиент_3"/>
  </defs>
  <g id="_Слой_1-2" data-name="Слой 1">
    <g>
      <path class="cls-1" d="m121.44,66.04c6.75,0,12.33-2.45,15.99-6.99l-5.77-5.38c-2.6,3.08-5.85,4.64-9.73,4.64-7.24,0-12.39-5.17-12.39-12.55s5.15-12.55,12.39-12.55c3.89,0,7.13,1.57,9.73,4.59l5.77-5.38c-3.66-4.49-9.25-6.94-15.94-6.94-12.05,0-21.01,8.45-21.01,20.27s8.96,20.27,20.96,20.27Z"/>
      <path class="cls-1" d="m151.1,39.22v-3.99h-8.24v30.16h8.63v-14.25c0-5.77,3.14-8.4,7.9-8.4.67,0,1.21.05,1.93.1v-8.06c-4.58,0-8.11,1.51-10.22,4.44Z"/>
      <path class="cls-1" d="m188.72,35.22l-8.39,20.46-8.37-20.46h-8.88l12.88,30.37-.1.29c-1.16,2.69-2.5,3.76-4.87,3.76-1.73,0-3.55-.73-4.87-1.9l-3.17,6.21c1.93,1.75,5.25,2.74,8.29,2.74,5.38,0,9.48-2.17,12.34-9.45l13.44-32.01h-8.29Z"/>
      <path class="cls-1" d="m218.13,34.78c-3.99,0-7.18,1.28-9.35,3.91v-3.47h-8.24v41.02h8.63v-14.06c2.21,2.48,5.25,3.65,8.96,3.65,8.34,0,14.81-6.05,14.81-15.52s-6.46-15.52-14.81-15.52Zm-1.49,23.87c-4.33,0-7.57-3.13-7.57-8.35s3.24-8.35,7.57-8.35,7.57,3.13,7.57,8.35-3.27,8.35-7.57,8.35Z"/>
      <path class="cls-1" d="m255.6,57.77c-.95.7-2.21,1.12-3.5,1.12-2.32,0-3.68-1.41-3.68-3.99v-12.26h7.39v-6.73h-7.39v-7.33h-8.63v7.33h-4.61v6.73h4.61v12.37c0,7.18,4.07,10.83,11.1,10.83,2.65,0,5.25-.63,7.03-1.9l-2.32-6.16Z"/>
      <path class="cls-1" d="m275.99,65.83c9.45,0,16.33-6.44,16.33-15.52s-6.88-15.52-16.33-15.52-16.38,6.44-16.38,15.52,6.93,15.52,16.38,15.52Zm0-7.18c-4.3,0-7.62-3.13-7.62-8.35s3.32-8.35,7.62-8.35,7.57,3.13,7.57,8.35-3.24,8.35-7.57,8.35Z"/>
      <path class="cls-1" d="m298.68,65.39h28.38v-7.41h-19.42v-31.83h-8.96v39.24Z"/>
      <path class="cls-1" d="m360.37,50.41c0-9.68-6.75-15.63-15.48-15.63s-15.89,6.5-15.89,15.52,6.7,15.52,16.99,15.52c5.36,0,9.5-1.7,12.28-4.88l-4.61-5.04c-2.03,1.96-4.3,2.9-7.47,2.9-4.53,0-7.67-2.3-8.5-6.05h22.51c.05-.7.15-1.67.15-2.35Zm-15.42-9.03c3.86,0,6.7,2.48,7.29,6.29h-14.65c.62-3.86,3.45-6.29,7.36-6.29Z"/>
      <path class="cls-1" d="m380.28,65.83c9.45,0,16.33-6.44,16.33-15.52s-6.88-15.52-16.33-15.52-16.38,6.44-16.38,15.52,6.93,15.52,16.38,15.52Zm0-7.18c-4.3,0-7.62-3.13-7.62-8.35s3.32-8.35,7.62-8.35,7.57,3.13,7.57,8.35-3.24,8.35-7.57,8.35Z"/>
      <path class="cls-6" d="m55.52,12.13c.1-5.48.1-7.96.1-7.96l-6.88,1.7-3.01-4.54-4.33,2.95-.59-.65-3.22-3.63-3.79,4.28-4.35-2.95-2.99,4.54-6.59-1.7s-.13,2.79-.23,7.98C7.96,18.63,0,31.26,0,45.79c0,21.11,16.84,38.28,37.6,38.28s37.62-17.14,37.62-38.28c-.03-14.56-7.98-27.16-19.7-33.66Z"/>
      <path class="cls-5" d="m53.36,16.33c-1.21-.44-1.93-.65-1.93-.65l.03-.29.03-.26.31-6.26-4.79,2.22-2.03-4.44-3.68,3.44-3.68-4.23-3.61,4.15-3.68-3.44-2.03,4.44-4.79-2.22.23,4.62.15,2.09s-.03,0-.03.03v.13s-.13.03-.39.05c-10.94,5.43-18.46,16.83-18.46,30.06,0,5.14,1.13,10.07,3.19,14.43l5.72-5.92s.82,10.36,6.8,15.45q2.81-3.24,2.81-3.24s1.55,2.43,4.79,4.28v-.03c0-5.22,4.17-9.47,9.3-9.47s9.32,4.23,9.32,9.47c0,0,0,0,0,.03,3.24-1.85,4.79-4.28,4.79-4.28t2.81,3.24c6-5.06,6.8-15.45,6.8-15.45l6.08,5.95c2.09-4.36,3.24-9.29,3.24-14.45,0-12.73-7-23.82-17.28-29.43Z"/>
      <path class="cls-2" d="m31.13,18.08c2.03.44,6.39.76,6.39.76,0,0,3.01-.08,5.72-.7,3.06-.73,9.14,6.86,9.14,6.86l-9.42,1.85-.03,9.11s.1.7-.75,1.3c-2.63,1.77-4.56,1.49-4.56,1.49-.54-.08-1.26-.34-2.03-.65-1.52-.57-3.19-1.23-3.97-.29-1.83,2.37,1.31,4.12,3.19,5.19.36.18.67.37.9.52,1.39.94-.59,2.4-5.07,2.79-6.62.42-3.6-5.66-2.63-7.62.05-.08.08-.16.13-.23.8-1.62,1.16-2.61-.21-2.92-5.87-1.36-7.08-3.6-6.8-7.46,7.73,1.44,10.33,1.93,10.33,1.93l-.03-3.34s-3.45-.89-9.37-1.8c2.06-3.97,7.03-7.23,9.06-6.78Zm22.53,10.51l-8.39,2.11s2.29,2.61,5.51,1.8c3.12-.76,2.88-3.91,2.88-3.91Zm-14.6,14.82c1.13-.26,6.18-2.79,6.18-2.79,4.12-1.67,4.04,5.48-.51,5.43-4.56-.05-6.77-2.35-5.67-2.64Zm3.79,9.47s.08-2.22-.62-2.82c-.93-1.28-4.51-1.8-4.94-1.88h-.08l-.05.03c-.51.05-3.99.57-4.92,1.85-.7.6-.64,2.82-.64,2.82v2.01s1.29,1.38,5.64,1.38,5.59-1.38,5.59-1.38l.03-2.01Z"/>
      <path class="cls-4" d="m31.13,18.08c2.03.44,6.39.76,6.39.76,0,0,3.01-.08,5.72-.7,3.06-.73,9.14,6.86,9.14,6.86l-9.42,1.85-.03,9.11s.1.7-.75,1.3c-2.63,1.77-4.56,1.49-4.56,1.49-.54-.08-1.26-.34-2.03-.65-1.52-.57-3.19-1.23-3.97-.29-1.83,2.37,1.31,4.12,3.19,5.19.36.18.67.37.9.52,1.39.94-.59,2.4-5.07,2.79-6.62.42-3.6-5.66-2.63-7.62.05-.08.08-.16.13-.23.8-1.62,1.16-2.61-.21-2.92-5.87-1.36-7.08-3.6-6.8-7.46,7.73,1.44,10.33,1.93,10.33,1.93l-.03-3.34s-3.45-.89-9.37-1.8c2.06-3.97,7.03-7.23,9.06-6.78Zm22.53,10.51l-8.39,2.11s2.29,2.61,5.51,1.8c3.12-.76,2.88-3.91,2.88-3.91Zm-14.6,14.82c1.13-.26,6.18-2.79,6.18-2.79,4.12-1.67,4.04,5.48-.51,5.43-4.56-.05-6.77-2.35-5.67-2.64Zm3.79,9.47s.08-2.22-.62-2.82c-.93-1.28-4.51-1.8-4.94-1.88h-.08l-.05.03c-.51.05-3.99.57-4.92,1.85-.7.6-.64,2.82-.64,2.82v2.01s1.29,1.38,5.64,1.38,5.59-1.38,5.59-1.38l.03-2.01Z"/>
      <path class="cls-3" d="m31.13,18.08c2.03.44,6.39.76,6.39.76,0,0,3.01-.08,5.72-.7,3.06-.73,9.14,6.86,9.14,6.86l-9.42,1.85-.03,9.11s.1.7-.75,1.3c-2.63,1.77-4.56,1.49-4.56,1.49-.54-.08-1.26-.34-2.03-.65-1.52-.57-3.19-1.23-3.97-.29-1.83,2.37,1.31,4.12,3.19,5.19.36.18.67.37.9.52,1.39.94-.59,2.4-5.07,2.79-6.62.42-3.6-5.66-2.63-7.62.05-.08.08-.16.13-.23.8-1.62,1.16-2.61-.21-2.92-5.87-1.36-7.08-3.6-6.8-7.46,7.73,1.44,10.33,1.93,10.33,1.93l-.03-3.34s-3.45-.89-9.37-1.8c2.06-3.97,7.03-7.23,9.06-6.78Zm22.53,10.51l-8.39,2.11s2.29,2.61,5.51,1.8c3.12-.76,2.88-3.91,2.88-3.91Zm-14.6,14.82c1.13-.26,6.18-2.79,6.18-2.79,4.12-1.67,4.04,5.48-.51,5.43-4.56-.05-6.77-2.35-5.67-2.64Zm3.79,9.47s.08-2.22-.62-2.82c-.93-1.28-4.51-1.8-4.94-1.88h-.08l-.05.03c-.51.05-3.99.57-4.92,1.85-.7.6-.64,2.82-.64,2.82v2.01s1.29,1.38,5.64,1.38,5.59-1.38,5.59-1.38l.03-2.01Z"/>
      <path d="m38.14,70.24c.18-.03.36-.08.46-.18.1-.1.15-.26.15-.44,0-.16-.05-.31-.13-.42-.1-.1-.26-.18-.44-.21-.1,0-.41-.03-.95-.03h-.64v1.3h.75c.41,0,.7-.03.8-.03Z"/>
      <path d="m38.5,71.28c-.18-.05-.49-.08-1-.08h-.9v1.51h1.03c.41,0,.67,0,.8-.03.15-.03.28-.1.39-.23.1-.1.15-.26.15-.47,0-.18-.05-.34-.13-.44-.08-.1-.21-.21-.33-.26Z"/>
      <path class="cls-5" d="m37.6,64.29c-3.48,0-6.31,2.87-6.31,6.44s2.83,6.42,6.31,6.42,6.33-2.87,6.33-6.42-2.83-6.44-6.33-6.44Zm2.34,8.51c-.13.23-.28.42-.49.57-.21.16-.46.26-.75.29h-.15v.29c0,.16-.1.26-.26.26h-.44c-.13,0-.26-.1-.26-.26v-.26h-.46v.26c0,.16-.1.26-.23.26h-.46c-.13,0-.23-.1-.23-.26v-.26h-.77v-5.66h.77v-.31c0-.13.1-.23.23-.23h.46c.13,0,.23.1.23.23v.31h.46v-.31c0-.13.13-.23.26-.23h.44c.15,0,.26.1.26.23v.37c.05,0,.08,0,.1.03.21.03.39.1.59.23.18.13.31.26.41.47.1.18.15.39.15.65s-.08.5-.21.73c-.13.21-.31.37-.57.47.36.13.62.29.77.52.18.26.28.52.28.83.03.26-.03.52-.15.78Z"/>
    </g>
  </g>
</svg>
