<?xml version="1.0"?>
<svg xmlns="http://www.w3.org/2000/svg" width="65" height="35" viewBox="0 0 186 46" fill="none">
<g clip-path="url(#clip0_671_12156)">
<path d="M24.4862 18.1334V17.619C24.4862 11.6988 21.9153 8.86739 17.867 8.86739C13.689 8.86739 11.1829 11.8919 11.1829 17.5547V18.0693C11.1829 23.7966 13.689 26.6925 17.867 26.6925C22.1728 26.6925 24.4862 23.668 24.4862 18.1338M21.9801 0.179688C29.8209 0.179688 36.1837 6.0999 36.1837 17.619V18.1334C36.1837 29.7167 29.8205 35.5085 21.9153 35.5085C16.8381 35.5085 13.1747 33.1274 11.5044 29.781V45.9975H0V1.08075H11.5044V6.0999C13.4312 2.88267 16.9029 0.179688 21.9801 0.179688Z" fill="black"/>
<path d="M63.9345 17.7825V17.2709C63.9345 11.4503 61.492 8.63567 57.6363 8.63567C53.5874 8.63567 51.2094 11.5138 51.2094 17.3351V17.8468C51.2094 23.4757 53.6514 26.3542 57.4435 26.3542C61.2996 26.3542 63.9347 23.4759 63.9347 17.7827M39.5123 17.9746V17.4629C39.5117 6.07669 46.0673 0 53.5868 0C58.664 0 61.6845 2.17509 63.6126 5.56517V0.896382H75.1172V34.3498H63.6126V28.9765C61.8775 32.3672 58.3429 35.1173 53.5224 35.1173C46.0673 35.1173 39.5117 29.5522 39.5117 17.9744" fill="black"/>
<path d="M98.4209 19.0346L104.848 1.07812H115.838L97.8424 46.0013H86.8523L92.4439 31.3279L79.0117 1.07812H91.48L98.4209 19.0346Z" fill="black"/>
<path d="M116.672 34.5321V26.6011L131.968 9.71399H118.536L118.472 1.07812H145.4V9.52166L130.747 25.8319H146.493V34.5313L116.672 34.5321Z" fill="black"/>
<path d="M152.383 29.2125C152.52 19.9997 159.528 12.4492 169.054 12.4492C178.785 12.4492 185.999 19.9997 185.999 29.2125C185.999 38.4948 178.786 45.9067 169.054 45.9067C159.391 45.9067 152.383 38.4948 152.383 29.2125Z" fill="#DCFA14"/>
</g>
<defs>
<clipPath id="clip0_671_12156">
<rect width="186" height="46" fill="white"/>
</clipPath>
</defs>
</svg>
