<?xml version="1.0"?>
<svg xmlns="http://www.w3.org/2000/svg" viewBox="0 0 108.33 108.33" width="160" height="160"><defs><style>.cls-1{fill:none;}.cls-2{fill:#eabd82;}.cls-3{fill:#fff;}</style></defs><title>farspin logo hor</title><g id="&#x421;&#x43B;&#x43E;&#x439;_2" data-name="&#x421;&#x43B;&#x43E;&#x439; 2"><g id="&#x421;&#x43B;&#x43E;&#x439;_1-2" data-name="&#x421;&#x43B;&#x43E;&#x439; 1"><rect class="cls-1" width="108.33" height="108.33"/><path class="cls-2" d="M45.05,51.36c-.33,1.81-.68,3.33-.83,4.9,0,.52.5,1.08.7,1.5-.64.73-1.32,1.53-2.2,2.56,1.61,0,2.9.06,4.16,0,.91-.06,1.9-2.3,1.42-3.12q-1.59-2.94-3.26-5.83ZM66.25,26.2a5.86,5.86,0,0,0,1.46-3,1.93,1.93,0,0,0,0-.59s-.82.36-1.76.8c-1.5.7-6,2.8-13,6a36,36,0,0,0-4.45,2.26l-1.72,1.7c-.08.08-.06.18.11.5a1.56,1.56,0,0,1,.2.49c0,.05,0,.37-.09.7a2.08,2.08,0,0,1-.53,1.35,1.22,1.22,0,0,0-.25.79l.9,3A7.24,7.24,0,0,1,48,37.19a9.11,9.11,0,0,1,3.81-3.54c.6-.34,5.4-2.58,10.19-4.77a13.13,13.13,0,0,0,4.3-2.68Z"/><path class="cls-2" d="M56.2,41.07a6.41,6.41,0,0,1,0,3L57.16,48a6.62,6.62,0,0,0,2.55-5.75l-.05-.7.27-.12c2.82-1.22,4-2.48,4.79-5a3.45,3.45,0,0,0,.19-.78c-.05,0-.17,0-4,1.82l-2.54,1.17-.5-.51a7.28,7.28,0,0,0-.78-.71c-.15-.11-.27-.22-.26-.25a1.24,1.24,0,0,1,.36-.22l3-1.4c1.48-.68,3.08-1.47,3.55-1.76a6.62,6.62,0,0,0,3.26-4c.32-1.08.31-1.14-.11-.92l-2.82,1.31L58,32.94l-5.26,2.42a5,5,0,0,0-2,1.54l-.93,1.24,0,.19L49.51,41c.51-.3,2.73,3,3.93,1.29.79.16.3-1.71.86-1.25.94.75,1-.4,1.16.72,0,.2.07.35.1.34a2.68,2.68,0,0,0,.47-.93l.08-.29.08.19Z"/><path class="cls-2" d="M46.89,28.14c.89,3.27,2,6.5,3.09,9.7.37,0,2.6,1.18,2.82,1.2,4.55,1.18,9.13,2.37,13.68,3.61a2.69,2.69,0,0,1,1.4,1c2,3,3.85,6.07,5.75,9.1.37.58.66.84,1.3.3.39-.32,1-.69,1.42-.56a24,24,0,0,1,3,1.4c-1.09.65-1.92,1.18-2.78,1.66a1.11,1.11,0,0,1-.76.15c-1.61-.69-3.26-1.2-4.3-2.92-1.17-1.94-2.62-3.7-4-5.61a10.65,10.65,0,0,0-.27,1.48,6,6,0,0,0,.25,2.47,37.79,37.79,0,0,0,2.33,3.21A1.52,1.52,0,0,1,70,55.5c-.76,2-1.57,3.33-2.39,5.29-.1.24-.41.54-.62.54-1.28,0-2.58,0-4,0,.41-.95.15-2.09,1.38-2.39.82-.19,1.85-2,1.53-2.8-.08-.22-.37-.39-.6-.52-1.65-.9-3.28-1.85-5-2.67-.8-.39-.87-.9-.74-1.7s.1-1.57.16-2.43c-4.22,1-8.24,1.89-12.26,2.75a1.62,1.62,0,0,1-1.26-.39c-.76-.67-1.42-1.46-2.27-2.32a36.94,36.94,0,0,0-.68,4.19,17.26,17.26,0,0,1-2.47,7.74c-.14.24-.43.52-.66.52-1.15,0-2.31,0-3.48,0,.37-2.43.37-2.43,2-2.69C37.87,55.35,36.94,52,36,48.58,35,49.33,34.06,50,33,50.81c0-3.72.06-7.23,0-10.73,0-1.48.1-2.67,1.67-3.14a2.88,2.88,0,0,0,.56-.32,15.08,15.08,0,0,0-3.42,0c-.56.06-.82-.17-1.05-.71q-.76-1.84-1.63-3.64c-.29-.62-.27-1,.37-1.38,3-1.87,5.89-3.81,8.86-5.7a1.59,1.59,0,0,1,1.05-.11c1.65.37,3.3.75,4.9,1.23,1,.3,2.16.28,2.58,1.81Z"/><path class="cls-2" d="M58.08,51.36c-2.31.45-4.45.84-6.59,1.25a3.42,3.42,0,0,0,3,2.88,15.4,15.4,0,0,1,2.74.73,1.36,1.36,0,0,1,.51,1.05c0,.52.37,1.23-.43,1.57a2.77,2.77,0,0,0-1.88,2.24c1.21,0,2.41,0,3.61,0,.62,0,.72-.37.78-.86.21-1.51.43-3,.58-4.52a2.13,2.13,0,0,0-.35-.93c0-.06-.1-.11-.14-.13-1.2-.69-2.41-1.4-1.88-3.29Z"/><path class="cls-3" d="M21.94,72.85v1.91h4.9v2.79h-4.9v4.56H19V70.06h8.31v2.79Zm16.23-.21,0,9.47H35.23v-1a3.29,3.29,0,0,1-2.67,1.24c-2.41,0-4.28-2-4.28-5s1.9-5,4.26-5a3.3,3.3,0,0,1,2.71,1.29V72.64h2.93Zm-2.93,4.74a2,2,0,1,0-2,2.17,2,2,0,0,0,2-2.17Zm8.66-7.54a1.67,1.67,0,0,1-1.78,1.69,1.68,1.68,0,1,1,0-3.36A1.67,1.67,0,0,1,43.9,69.84Zm-3.25,2.81h2.93v9.47H40.66V72.64Zm11.65-.17v3a5.36,5.36,0,0,0-.59,0c-1.38,0-2.71.41-2.71,2.57v4.09H46.08V72.64H49v1.46a2.91,2.91,0,0,1,2.76-1.69,2.27,2.27,0,0,1,.54.05Zm1,6.65h3c.12.52.5,1,1.86,1,1,0,1.29-.26,1.29-.65s-.29-.47-1.91-.81c-2.71-.59-3.81-1.31-3.81-3,0-2,1.64-3.25,4.38-3.25s4,1.15,4.28,3h-3c-.12-.45-.5-.76-1.43-.76s-1.29.26-1.29.67.28.36,1.41.6c2.83.62,4.36,1.19,4.36,3.15,0,2.19-1.91,3.27-4.35,3.27s-4.45-1.22-4.79-3.22ZM74,77.38c0,2.93-1.86,5-4.28,5A3.36,3.36,0,0,1,67,81.1v4.59H64.1v-13H67v1.07a3.3,3.3,0,0,1,2.71-1.29c2.37,0,4.26,2,4.26,5Zm-3,0a2,2,0,1,0-2,2.17A2,2,0,0,0,71,77.38Zm7.76-7.54A1.67,1.67,0,0,1,77,71.53a1.68,1.68,0,1,1,0-3.36A1.67,1.67,0,0,1,78.81,69.84Zm-3.25,2.81h2.93v9.47H75.56V72.64Zm13.76,3.55v5.92H86.39V76.84c0-1-.31-1.63-1.5-1.63s-1.74.57-1.74,1.88v5H80.22V72.64h2.93v1.07a3.34,3.34,0,0,1,2.74-1.29c2.14,0,3.43,1.46,3.43,3.77Z"/></g></g></svg>
