<?xml version="1.0"?>
<svg xmlns="http://www.w3.org/2000/svg" id="&#x421;&#x43B;&#x43E;&#x439;_1" data-name="&#x421;&#x43B;&#x43E;&#x439; 1" viewBox="0 0 64 64" width="55" height="55"><defs><style>.cls-1{fill:#f5f5f5;}.cls-2{fill:#d52b1e;}</style></defs><title>&#x41A;&#x430;&#x43D;&#x430;&#x434;&#x430;</title><rect class="cls-1" x="9.1" width="45.79" height="64"/><path class="cls-2" d="M40.68,38l8.49-4.6-1.95-.92A1.34,1.34,0,0,1,46.45,31l.63-4.51-3.6,1a1.44,1.44,0,0,1-1.8-1L41.35,25,38,28.79a.71.71,0,0,1-1.24-.55l1.44-7.95L36,20.86a1.46,1.46,0,0,1-1.64-.67L32,16.06h0l-2.32,4.13a1.46,1.46,0,0,1-1.64.67l-2.21-.57,1.44,7.95a.71.71,0,0,1-1.24.55L22.66,25l-.34,1.48a1.44,1.44,0,0,1-1.8,1l-3.6-1L17.56,31a1.34,1.34,0,0,1-.78,1.39l-1.95.92L23.32,38a1.91,1.91,0,0,1,.91,2.39l-.73,1.84,7.28-.59a.66.66,0,0,1,.73.66l-.23,7.38h1.43l-.23-7.38a.66.66,0,0,1,.73-.66l7.28.59-.73-1.84A1.91,1.91,0,0,1,40.68,38Z"/><rect class="cls-2" x="54.9" width="9.1" height="64"/><rect class="cls-2" width="9.1" height="64"/></svg>
