<?xml version="1.0"?>
<svg xmlns="http://www.w3.org/2000/svg" width="120" height="60" viewBox="0 0 173 30" fill="none">
<path d="M133.226 19.3989C132.309 19.3989 131.564 18.6551 131.564 17.7365C131.564 16.818 132.309 16.0742 133.226 16.0742C134.145 16.0742 134.889 16.818 134.889 17.7365C134.889 18.6551 134.145 19.3989 133.226 19.3989ZM133.226 15.0586C131.748 15.0586 130.549 16.2568 130.549 17.7365C130.549 19.2162 131.748 20.4145 133.226 20.4145C134.706 20.4145 135.904 19.2162 135.904 17.7365C135.904 16.2568 134.706 15.0586 133.226 15.0586Z" fill="white"/>
<path d="M44.8023 9.31697L41.8985 10.9149C41.3541 10.3431 40.8132 9.94785 40.2803 9.72638C39.7473 9.50491 39.1226 9.39373 38.407 9.39373C37.102 9.39373 36.0459 9.78285 35.2403 10.5611C34.4347 11.3393 34.0323 12.3364 34.0323 13.5523C34.0323 14.7355 34.4197 15.6999 35.1962 16.4481C35.9726 17.1964 36.9909 17.5705 38.2535 17.5705C39.8144 17.5705 41.0294 17.0384 41.8985 15.9734L44.6488 17.8573C43.1594 19.7958 41.055 20.7646 38.3382 20.7646C35.8923 20.7646 33.9785 20.0402 32.595 18.5931C31.2106 17.1452 30.5188 15.4493 30.5188 13.5081C30.5188 12.1626 30.855 10.9228 31.5282 9.78991C32.2006 8.65785 33.1394 7.76667 34.3447 7.11991C35.55 6.47226 36.8982 6.14844 38.3885 6.14844C39.7685 6.14844 41.0082 6.42373 42.1059 6.97344C43.2053 7.52226 44.1035 8.30403 44.8023 9.31697Z" fill="white"/>
<path d="M53.6268 9.36814C52.5485 9.36814 51.6538 9.74932 50.94 10.5108C50.2262 11.274 49.8706 12.2517 49.8706 13.4437C49.8706 14.6437 50.2332 15.6328 50.9594 16.4076C51.6856 17.1823 52.5785 17.5705 53.64 17.5705C54.735 17.5705 55.6429 17.1884 56.3647 16.4261C57.0865 15.6646 57.4465 14.6658 57.4465 13.4305C57.4465 12.2208 57.0865 11.2423 56.3647 10.4914C55.6429 9.74226 54.7306 9.36814 53.6268 9.36814ZM57.2929 6.50579H60.7809V20.4064H57.2929V18.9373C56.6126 19.5849 55.9297 20.0508 55.2459 20.3367C54.5603 20.6217 53.8191 20.7637 53.0188 20.7637C51.2232 20.7637 49.6712 20.0676 48.3609 18.6752C47.0506 17.2829 46.3959 15.5517 46.3959 13.4817C46.3959 11.3349 47.0294 9.57638 48.2973 8.2052C49.5644 6.83403 51.105 6.14844 52.9165 6.14844C53.7503 6.14844 54.5329 6.3055 55.2644 6.62138C55.9959 6.9355 56.6718 7.40844 57.2929 8.03932V6.50579Z" fill="white"/>
<path d="M64.3076 6.50579H67.7956V7.93079C68.587 7.26373 69.3035 6.8005 69.9459 6.53932C70.5873 6.27814 71.2447 6.14844 71.9161 6.14844C73.2953 6.14844 74.4644 6.6302 75.4253 7.59197C76.2335 8.40991 76.6367 9.61873 76.6367 11.2211V20.4064H73.1867V14.319C73.1867 12.6611 73.1126 11.559 72.9644 11.0137C72.8161 10.4693 72.5567 10.0546 72.187 9.7705C71.8164 9.48461 71.3603 9.34255 70.8167 9.34255C70.1109 9.34255 69.5064 9.57814 69 10.0511C68.4953 10.5231 68.145 11.1761 67.9491 12.009C67.8476 12.4431 67.7956 13.3837 67.7956 14.8299V20.4064H64.3076V6.50579Z" fill="white"/>
<path d="M86.0885 9.36814C85.0103 9.36814 84.1147 9.74932 83.4018 10.5108C82.688 11.274 82.3315 12.2517 82.3315 13.4437C82.3315 14.6437 82.695 15.6328 83.4212 16.4076C84.1465 17.1823 85.0403 17.5705 86.1009 17.5705C87.1968 17.5705 88.1047 17.1884 88.8265 16.4261C89.5474 15.6646 89.9083 14.6658 89.9083 13.4305C89.9083 12.2208 89.5474 11.2423 88.8265 10.4914C88.1047 9.74226 87.1915 9.36814 86.0885 9.36814ZM89.7547 6.50667H93.2418V20.4064H89.7547V18.9373C89.0753 19.5849 88.3915 20.0508 87.7068 20.3367C87.0221 20.6217 86.28 20.7637 85.4806 20.7637C83.685 20.7637 82.1321 20.0676 80.8218 18.6752C79.5124 17.2829 78.8577 15.5517 78.8577 13.4817C78.8577 11.3349 79.4903 9.57638 80.7583 8.2052C82.0262 6.83403 83.5659 6.14844 85.3783 6.14844C86.2121 6.14844 86.9938 6.3055 87.7253 6.62138C88.4585 6.9355 89.1335 7.40844 89.7547 8.03932V6.50667Z" fill="white"/>
<path d="M102.847 9.37052C101.769 9.37052 100.874 9.7517 100.16 10.514C99.4464 11.2764 99.0909 12.254 99.0909 13.4461C99.0909 14.6461 99.4535 15.6352 100.18 16.4099C100.905 17.1846 101.799 17.5729 102.86 17.5729C103.955 17.5729 104.863 17.1908 105.584 16.4285C106.306 15.667 106.667 14.6682 106.667 13.4329C106.667 12.2232 106.306 11.2446 105.584 10.4938C104.863 9.74464 103.951 9.37052 102.847 9.37052ZM106.513 1.14258H110.001V20.4088H106.513V18.9396C105.834 19.5873 105.15 20.0532 104.465 20.339C103.781 20.6241 103.039 20.7661 102.239 20.7661C100.444 20.7661 98.8914 20.0699 97.5803 18.6776C96.2709 17.2852 95.6161 15.554 95.6161 13.484C95.6161 11.3373 96.2488 9.57875 97.5167 8.20758C98.7847 6.8364 100.325 6.15081 102.137 6.15081C102.971 6.15081 103.753 6.30787 104.484 6.62375C105.217 6.93787 105.892 7.41081 106.513 8.0417V1.14258Z" fill="white"/>
<path d="M119.612 9.36814C118.534 9.36814 117.639 9.74932 116.925 10.5117C116.212 11.274 115.856 12.2517 115.856 13.4437C115.856 14.6437 116.218 15.6328 116.944 16.4076C117.67 17.1823 118.564 17.5705 119.625 17.5705C120.72 17.5705 121.628 17.1884 122.351 16.4261C123.071 15.6646 123.432 14.6658 123.432 13.4305C123.432 12.2208 123.071 11.2423 122.351 10.4914C121.628 9.74226 120.716 9.36814 119.612 9.36814ZM123.279 6.50667H126.766V20.4064H123.279V18.9373C122.598 19.5849 121.915 20.0508 121.23 20.3367C120.546 20.6217 119.803 20.7637 119.004 20.7637C117.209 20.7637 115.656 20.0676 114.346 18.6752C113.036 17.2829 112.381 15.5517 112.381 13.4817C112.381 11.3349 113.014 9.57638 114.281 8.2052C115.549 6.83403 117.09 6.14844 118.901 6.14844C119.736 6.14844 120.518 6.3055 121.249 6.62138C121.981 6.9355 122.658 7.40844 123.279 8.03932V6.50667Z" fill="white"/>
<path d="M147.768 13.5872L146.027 14.5446C145.699 14.2013 145.377 13.9649 145.057 13.8316C144.737 13.6993 144.364 13.6331 143.933 13.6331C143.151 13.6331 142.519 13.866 142.035 14.3328C141.552 14.7987 141.311 15.3969 141.311 16.1257C141.311 16.8351 141.544 17.4131 142.009 17.8622C142.474 18.3113 143.085 18.5346 143.841 18.5346C144.776 18.5346 145.506 18.2151 146.027 17.5772L147.676 18.7066C146.782 19.8678 145.521 20.4493 143.891 20.4493C142.427 20.4493 141.279 20.0151 140.449 19.1478C139.62 18.2787 139.204 17.2631 139.204 16.0993C139.204 15.2928 139.406 14.5499 139.81 13.8696C140.213 13.191 140.776 12.6572 141.499 12.2699C142.221 11.8807 143.029 11.6875 143.923 11.6875C144.75 11.6875 145.493 11.8525 146.152 12.1807C146.81 12.5107 147.349 12.9793 147.768 13.5872Z" fill="white"/>
<path d="M153.6 13.656C152.95 13.656 152.409 13.8819 151.977 14.3337C151.544 14.7846 151.329 15.3643 151.329 16.0675C151.329 16.7928 151.541 17.3813 151.969 17.8296C152.396 18.2787 152.937 18.5037 153.592 18.5037C154.246 18.5037 154.792 18.276 155.226 17.8225C155.66 17.3672 155.878 16.7831 155.878 16.0675C155.878 15.3537 155.665 14.7731 155.238 14.3257C154.811 13.8793 154.264 13.656 153.6 13.656ZM153.565 11.6875C154.353 11.6875 155.09 11.8834 155.783 12.2778C156.474 12.6704 157.014 13.2034 157.403 13.8775C157.79 14.5516 157.984 15.2796 157.984 16.0604C157.984 16.8466 157.789 17.5825 157.399 18.2663C157.008 18.9501 156.476 19.4849 155.801 19.8713C155.127 20.256 154.385 20.4493 153.574 20.4493C152.377 20.4493 151.359 20.0249 150.513 19.1743C149.668 18.3237 149.246 17.2913 149.246 16.0754C149.246 14.7749 149.723 13.6887 150.678 12.8213C151.516 12.0643 152.478 11.6875 153.565 11.6875Z" fill="white"/>
<path d="M159.677 11.9019H161.768V12.8593C162.125 12.4666 162.523 12.1728 162.96 11.9787C163.397 11.7846 163.873 11.6875 164.389 11.6875C164.911 11.6875 165.381 11.8146 165.798 12.0696C166.218 12.3254 166.555 12.6987 166.811 13.1884C167.144 12.6987 167.551 12.3254 168.034 12.0696C168.517 11.8146 169.044 11.6875 169.617 11.6875C170.209 11.6875 170.731 11.8251 171.18 12.1013C171.629 12.3766 171.953 12.7366 172.149 13.1804C172.346 13.6251 172.445 14.3469 172.445 15.3484V20.2349H170.339V16.0066C170.339 15.0625 170.221 14.4228 169.987 14.0893C169.751 13.7549 169.399 13.5872 168.93 13.5872C168.572 13.5872 168.252 13.6887 167.968 13.8934C167.685 14.0972 167.474 14.3796 167.336 14.7396C167.199 15.0996 167.129 15.6775 167.129 16.4743V20.2349H165.024V16.199C165.024 15.4525 164.968 14.9134 164.859 14.579C164.747 14.2437 164.583 13.9957 164.364 13.8325C164.144 13.6684 163.877 13.5872 163.563 13.5872C163.217 13.5872 162.9 13.6896 162.616 13.8978C162.332 14.1034 162.121 14.3937 161.979 14.766C161.838 15.1393 161.768 15.726 161.768 16.5281V20.2349H159.677V11.9019Z" fill="white"/>
<path d="M26.6047 13.4855C26.6047 16.624 25.5 19.5031 23.6585 21.7584C22.35 23.3608 20.6682 24.6472 18.7473 25.4864H18.7579L9.29556 29.4931V25.879C6.97938 25.0902 4.95438 23.6722 3.42615 21.8264L5.63909 20.0299C7.51762 22.2887 10.3482 23.7252 13.515 23.7252C16.7135 23.7252 19.5679 22.2587 21.4464 19.9628C22.8891 18.1981 23.7556 15.9428 23.7556 13.4855C23.7556 11.0811 22.9261 8.87165 21.5391 7.12371L23.7511 5.32812C25.537 7.56577 26.6047 10.4008 26.6047 13.4855Z" fill="white"/>
<path d="M15.6812 15.2819C15.1694 15.9022 14.3938 16.2966 13.5274 16.2966C11.9841 16.2966 10.7329 15.0463 10.7329 13.5031C10.7329 11.9598 11.9841 10.7095 13.5274 10.7095C14.4274 10.7095 15.2277 11.1357 15.7385 11.7966L17.1874 10.6592C16.3385 9.56866 15.015 8.86719 13.5274 8.86719C10.9668 8.86719 8.89148 10.9434 8.89148 13.5031C8.89148 16.0637 10.9668 18.139 13.5274 18.139C14.9718 18.139 16.2618 17.4781 17.1124 16.4413L15.6812 15.2819Z" fill="white"/>
<path d="M13.515 0.398438C9.40323 0.398438 5.73441 2.2955 3.33441 5.26197C1.515 7.5102 0.425293 10.3717 0.425293 13.4881C0.425293 16.6584 1.55206 19.5649 3.42618 21.829L5.63912 20.0326C4.16294 18.2581 3.27529 15.9764 3.27529 13.4881C3.27529 11.052 4.12588 8.81608 5.54647 7.05844C7.42412 4.73432 10.2962 3.24844 13.515 3.24844C16.7665 3.24844 19.6632 4.76344 21.5391 7.12638L23.7512 5.33079C21.3529 2.3255 17.6585 0.398438 13.515 0.398438Z" fill="#D2D2D2"/>
<path d="M6.17304 13.4844C6.17304 11.7409 6.78098 10.1403 7.79657 8.88028L5.54657 7.05469C4.12686 8.81233 3.27539 11.0482 3.27539 13.4844C3.27539 15.9726 4.16392 18.2544 5.6401 20.0288L7.8901 18.2032C6.81804 16.9265 6.17304 15.2809 6.17304 13.4844Z" fill="#909090"/>
<path d="M13.515 20.8288C11.2562 20.8288 9.23645 19.8088 7.88998 18.2047L5.6391 20.0311C7.51763 22.2891 10.3482 23.7264 13.515 23.7264C16.7135 23.7264 19.5679 22.26 21.4465 19.9641L19.1965 18.1367C17.85 19.7805 15.8056 20.8288 13.515 20.8288Z" fill="#7E7E7E"/>
<path d="M13.515 3.25C10.2962 3.25 7.42409 4.73588 5.54645 7.05912L7.79645 8.88559C9.14204 7.21529 11.2041 6.14676 13.515 6.14676C15.8576 6.14676 17.9453 7.24441 19.2891 8.95353L21.5391 7.12794C19.6632 4.765 16.7664 3.25 13.515 3.25Z" fill="#6A6A6A"/>
<path d="M20.8579 13.4829C20.8579 15.2476 20.235 16.8676 19.1973 18.1337L21.4473 19.9602C22.89 18.1955 23.7556 15.9402 23.7556 13.4829C23.7556 11.0784 22.927 8.86904 21.5391 7.12109L19.29 8.94668C20.272 10.1961 20.8579 11.772 20.8579 13.4829Z" fill="#7D7D7D"/>
<path d="M13.515 18.11C12.1085 18.11 10.8494 17.4818 10.0014 16.4909L7.88995 18.2044C9.23642 19.8085 11.2561 20.8285 13.515 20.8285C15.8055 20.8285 17.85 19.7803 19.1964 18.1365L17.0858 16.4238C16.2379 17.4535 14.9532 18.11 13.515 18.11Z" fill="#8D8D8D"/>
<path d="M18.1394 13.4893C18.1394 14.6055 17.745 15.6281 17.0868 16.4267L19.1974 18.1402C20.235 16.874 20.858 15.254 20.858 13.4893C20.858 11.7784 20.2721 10.2025 19.29 8.95312L17.1777 10.6684C17.7812 11.4484 18.1394 12.4269 18.1394 13.4893Z" fill="#858585"/>
<path d="M13.4885 8.94795C14.9788 8.94795 16.3323 9.57354 17.1785 10.6685L19.2891 8.95325C17.9453 7.24413 15.8585 6.14648 13.515 6.14648C11.2041 6.14648 9.14204 7.21501 7.79645 8.88531L9.98909 10.6474C10.837 9.59119 12.0291 8.94795 13.4885 8.94795Z" fill="#A1A1A1"/>
<path d="M7.8904 18.2088L10.0019 16.4952C9.30922 15.687 8.89187 14.637 8.89187 13.49C8.89187 12.3967 9.35422 11.4402 9.98952 10.6488L7.79687 8.88672C6.78128 10.1458 6.17334 11.7473 6.17334 13.49C6.17334 15.2864 6.81834 16.9329 7.8904 18.2088Z" fill="#393939"/>
<path d="M13.4718 0.380294C9.50206 0.380294 5.79 2.15382 3.28941 5.24471C1.41265 7.56353 0.379412 10.485 0.379412 13.4726C0.379412 16.5132 1.44618 19.4762 3.38118 21.8144C4.93147 23.6868 6.96088 25.0888 9.25235 25.8688L9.38029 25.9129V29.4282L18.3644 25.6235L18.705 25.4753C20.6047 24.6459 22.3032 23.3559 23.6179 21.7465C25.5176 19.4197 26.565 16.4815 26.565 13.4726C26.565 10.4735 25.5776 7.65265 23.7106 5.31265C21.2091 2.17765 17.4768 0.380294 13.4718 0.380294ZM9.00088 30V26.1829C6.69618 25.3721 4.65441 23.9479 3.08912 22.0562C1.09765 19.65 0 16.6015 0 13.4726C0 10.3985 1.06324 7.39147 2.99382 5.00559C5.56765 1.82559 9.38647 0 13.4718 0C17.5932 0 21.4324 1.85118 24.0071 5.07529C25.9279 7.48412 26.9444 10.3871 26.9444 13.4726C26.9444 16.5688 25.8671 19.5918 23.9118 21.9865C22.7524 23.4079 21.3 24.5859 19.6765 25.4321L19.8035 25.4276L9.00088 30Z" fill="#ECECEC"/>
</svg>
