<?xml version="1.0"?>
<svg xmlns="http://www.w3.org/2000/svg" width="120" height="60" viewBox="0 0 139 18" fill="none">
<path d="M100.869 5.82458H100.532C100.502 5.64916 100.486 5.55495 100.483 5.53546C100.437 5.24635 100.389 4.9085 100.194 4.66811C100.002 4.42772 99.8104 4.23606 99.1834 4.23606C98.8488 4.23606 98.511 4.33027 98.3193 4.52518C98.0789 4.71684 97.9814 4.9085 97.9814 5.14889C98.0302 5.58419 97.9814 5.62967 98.4622 5.96752C98.943 6.25663 99.9078 6.68868 101.542 7.36438C103.277 8.08554 104.43 8.80671 105.105 9.67407C105.827 10.5382 106.067 11.503 106.067 12.5133C106.067 13.8127 105.635 15.2063 104.576 16.2653C103.517 17.3243 101.782 18 99.2808 18C96.5846 18 94.8044 17.1814 93.7454 16.0249C92.6864 14.8717 92.303 13.4748 92.303 12.3216V11.4055H97.6923V11.7921C97.6923 12.6562 97.9814 13.0915 98.2706 13.3806C98.5597 13.621 98.9917 13.7152 99.1834 13.7152C100.099 13.7152 100.58 13.0428 100.58 12.5133C100.58 12.0325 100.483 11.935 100.002 11.5972C99.5212 11.3081 98.6084 10.9735 97.2115 10.3952C96.5846 10.1548 95.3826 9.72279 94.3723 8.9529C93.3621 8.183 92.446 6.9778 92.446 5.29507C92.446 3.6091 93.3621 2.21224 94.6615 1.34813C95.9609 0.48078 97.6436 0 99.2321 0C101.11 0 103.179 0.626963 104.478 2.02057C105.635 3.31998 105.729 4.57066 105.778 5.53546V5.91879H100.869" fill="white"/>
<path d="M111.937 0.673828H112.324V10.8287C112.324 11.3582 112.372 12.0826 112.613 12.6089C112.902 13.1384 113.285 13.5249 114.295 13.5249C115.355 13.5249 115.692 13.1871 115.933 12.6576C116.173 12.1768 116.173 11.4069 116.173 10.7832V0.673828H121.468V10.8287C121.468 13.6224 120.744 14.9673 119.542 16.075C118.34 17.2315 116.605 17.9527 114.295 17.9527C112.947 17.9527 110.495 17.6635 108.906 16.1237C107.366 14.6327 106.98 13.2845 107.029 10.8774V0.673828H111.937Z" fill="white"/>
<path d="M127.579 8.51898L127.676 17.6148H122.573V1.01167V0.673828H127.098L133.452 10.0588L133.257 0.673828H138.36V17.6148H133.835L127.579 8.51898Z" fill="white"/>
<path d="M7.16608 17.6614H3.94356V3.99495H0.526123V0.912109H10.5835V3.99495H7.16608V17.6614Z" fill="white"/>
<path d="M17.6978 0.719307L18.0648 0.777781L18.4254 0.855745L18.7763 0.956449L19.1174 1.07664L19.4487 1.21958L19.7671 1.38525L20.0757 1.56717L20.3745 1.77182L20.6637 1.99597L20.9365 2.23961L21.1997 2.50274L21.4498 2.78211L21.6869 3.08422L21.9078 3.40258L22.119 3.73717L22.3106 4.09126L22.4926 4.46159L22.655 4.85141L22.8044 5.25423L22.9376 5.67329L23.0546 6.11184L23.1553 6.56338L23.2365 7.03116L23.3014 7.51519L23.3469 8.01221L23.3762 8.52223L23.3859 9.04849V9.52927L23.3762 10.0555L23.3502 10.5688L23.3014 11.0658L23.2397 11.5466L23.1585 12.0144L23.0578 12.4692L22.9441 12.9045L22.8142 13.3268L22.6647 13.7296L22.5023 14.1162L22.3236 14.4897L22.132 14.8406L21.9241 15.1784L21.7032 15.4968L21.4693 15.7956L21.2192 16.0783L20.9593 16.3414L20.6831 16.585L20.3973 16.8059L20.0984 17.0106L19.7898 17.1958L19.4682 17.3582L19.1369 17.5011L18.7925 17.6246L18.4417 17.7253L18.0778 17.8032L17.7075 17.8585L17.3274 17.8942L16.9376 17.9039L16.551 17.8942L16.1775 17.8585L15.8071 17.8032L15.4498 17.7253L15.099 17.6246L14.7579 17.5011L14.4265 17.3582L14.1082 17.1958L13.7963 17.0106L13.4974 16.8059L13.2116 16.585L12.9354 16.3414L12.6756 16.0783L12.4254 15.7956L12.1883 15.4968L11.9641 15.1784L11.7562 14.8406L11.5613 14.4897L11.3827 14.1162L11.217 13.7296L11.0676 13.3268L10.9376 12.9045L10.8207 12.4692L10.72 12.0144L10.6388 11.5466L10.5738 11.0658L10.5251 10.5688L10.4991 10.0555L10.4893 9.52927V9.04849L10.4991 8.52223L10.5251 8.01221L10.5738 7.51519L10.6388 7.03116L10.72 6.56338L10.8207 6.11184L10.9376 5.67329L11.0676 5.25423L11.217 4.85141L11.3827 4.46159L11.5613 4.09126L11.7562 3.73717L11.9641 3.40258L12.1883 3.08422L12.4254 2.78211L12.6756 2.50274L12.9354 2.23961L13.2116 1.99597L13.4974 1.77182L13.7963 1.56717L14.1082 1.38525L14.4265 1.21958L14.7579 1.07664L15.099 0.956449L15.4498 0.855745L15.8071 0.777781L16.1775 0.719307L16.551 0.686822L16.9376 0.673828L17.3209 0.686822L17.6978 0.719307ZM16.2684 3.73068L15.9793 3.81839L15.7032 3.94183L15.4433 4.10426L15.1997 4.30241L14.9723 4.53631L14.7611 4.80918L14.5694 5.11779L14.3973 5.46538L14.2478 5.85195L14.1179 6.27751L14.0075 6.74205L13.923 7.24881L13.8613 7.79132L13.8223 8.37605L13.8093 8.99976V9.48379L13.8223 10.1075L13.8613 10.6922L13.923 11.2412L14.0075 11.748L14.1179 12.2158L14.2478 12.6446L14.3973 13.0344L14.5694 13.3885L14.7611 13.7004L14.9723 13.9765L15.1997 14.2169L15.4433 14.4183L15.7032 14.5807L15.9793 14.7106L16.2684 14.8016L16.5738 14.8536L16.8889 14.8731L17.204 14.8536L17.5094 14.8016L17.7985 14.7139L18.0746 14.5872L18.3345 14.428L18.5814 14.2299L18.8088 13.996L19.0167 13.7231L19.2083 13.4145L19.3805 13.0636L19.5299 12.6771L19.6631 12.2515L19.7703 11.787L19.8548 11.2835L19.9197 10.741L19.9555 10.1562L19.9685 9.52927V9.04849H20.0172L20.0042 8.42478L19.9652 7.8368L19.9003 7.29105L19.8125 6.78428L19.6988 6.31649L19.5657 5.88769L19.4097 5.49787L19.2343 5.14378L19.0394 4.82867L18.825 4.55255L18.5944 4.31541L18.3442 4.114L18.0811 3.94833L17.805 3.82164L17.5126 3.73068L17.2072 3.67545L16.8889 3.65921L16.5738 3.67545L16.2684 3.73068Z" fill="white"/>
<path d="M30.2078 0.928352L30.4579 0.944595L30.7048 0.970583L30.9452 1.00307L31.1823 1.04205L31.413 1.08753L31.6371 1.13951L31.858 1.19798L32.0724 1.2662L32.2803 1.34091L32.485 1.42213L32.6799 1.50984L32.8715 1.60729L33.0567 1.70799L33.2354 1.81844L33.4075 1.93539L33.5732 2.06208L33.7356 2.19202L33.8883 2.33171L34.0313 2.47789L34.1709 2.63057L34.3041 2.78975L34.4276 2.95867L34.5478 3.13409L34.655 3.31601L34.7589 3.50442L34.8531 3.70258L34.9408 3.90724L35.022 4.11839L35.0935 4.33604L35.1585 4.56344L35.2137 4.79733L35.2592 5.03772L35.2982 5.28461L35.3307 5.54124L35.3501 5.80437L35.3664 6.07399L35.3696 6.35337V6.44757L35.3664 6.63274L35.3599 6.81141L35.3501 6.98683L35.3339 7.16224L35.3144 7.33117L35.2917 7.49684L35.2624 7.66252L35.23 7.82169L35.1942 7.97762L35.1552 8.1303L35.1098 8.27973L35.0643 8.42916L35.0123 8.5721L34.9571 8.71178L34.9019 8.84822L34.8401 8.98141L34.7752 9.1146L34.7069 9.24129L34.6355 9.36474L34.5608 9.48493L34.486 9.60513L34.4048 9.71882L34.3236 9.83252L34.2359 9.93972L34.1482 10.0469L34.0572 10.1476L33.963 10.2483L33.8688 10.3458L33.7714 10.44L33.6707 10.5277L33.5667 10.6154L33.4628 10.7031L33.3556 10.7843L33.2451 10.8623L33.1347 10.937L33.021 11.0117L32.9073 11.08L32.7936 11.1482L32.6734 11.2131L35.753 17.6614H32.0984L29.4509 12.0318H27.8623V17.6614H24.5878V0.912109H29.6912L29.9511 0.918606L30.2078 0.928352ZM27.8623 9.09511H29.6425L30.0746 9.06912L30.4709 8.99765L30.8315 8.87096L31.1498 8.69554L31.4292 8.46815L31.6631 8.19202L31.8483 7.86068L31.9847 7.4741L32.0691 7.03555L32.0984 6.54503V6.44757L31.8807 5.96354L31.6566 5.53149L31.4227 5.14817L31.1791 4.81682L30.9289 4.5342L30.669 4.3068L30.4027 4.12814L30.1265 3.9982L29.8407 3.92348L29.5451 3.89749H27.8623V9.09511Z" fill="white"/>
<path d="M43.6858 0.719307L44.0529 0.777781L44.4135 0.855745L44.7643 0.956449L45.1054 1.07664L45.4368 1.21958L45.7551 1.38525L46.0637 1.56717L46.3626 1.77182L46.6517 1.99597L46.9246 2.23961L47.1877 2.50274L47.4379 2.78211L47.675 3.08422L47.8959 3.40258L48.1071 3.73717L48.2987 4.09126L48.4806 4.46159L48.6431 4.85141L48.7925 5.25423L48.9257 5.67329L49.0426 6.11184L49.1433 6.56338L49.2245 7.03116L49.2895 7.51519L49.335 8.01221L49.3642 8.52223L49.374 9.04849V9.52927L49.3642 10.0555L49.3382 10.5688L49.2895 11.0658L49.2278 11.5466L49.1466 12.0144L49.0459 12.4692L48.9322 12.9045L48.8022 13.3268L48.6528 13.7296L48.4904 14.1162L48.3117 14.4897L48.12 14.8406L47.9121 15.1784L47.6912 15.4968L47.4574 15.7956L47.2072 16.0783L46.9473 16.3414L46.6712 16.585L46.3853 16.8059L46.0865 17.0106L45.7779 17.1958L45.4563 17.3582L45.1249 17.5011L44.7806 17.6246L44.4297 17.7253L44.0659 17.8032L43.6956 17.8585L43.3155 17.8942L42.9257 17.9039L42.5359 17.8942L42.1558 17.8585L41.7855 17.8032L41.4216 17.7253L41.0708 17.6246L40.7264 17.5011L40.3951 17.3582L40.0735 17.1958L39.7649 17.0106L39.466 16.8059L39.1801 16.585L38.904 16.3414L38.6441 16.0783L38.394 15.7956L38.1601 15.4968L37.9392 15.1784L37.7313 14.8406L37.5364 14.4897L37.3577 14.1162L37.1953 13.7296L37.0491 13.3268L36.9192 12.9045L36.8022 12.4692L36.7048 12.0144L36.6236 11.5466L36.5586 11.0658L36.5131 10.5688L36.4871 10.0555L36.4774 9.52927V9.04849L36.4871 8.52223L36.5131 8.01221L36.5618 7.51519L36.6268 7.03116L36.708 6.56338L36.8087 6.11184L36.9257 5.67329L37.0556 5.25423L37.2051 4.85141L37.3707 4.46159L37.5494 4.09126L37.7443 3.73717L37.9522 3.40258L38.1764 3.08422L38.4135 2.78211L38.6636 2.50274L38.9235 2.23961L39.1996 1.99597L39.4855 1.77182L39.7844 1.56717L40.0962 1.38525L40.4146 1.21958L40.7459 1.07664L41.087 0.956449L41.4379 0.855745L41.7952 0.777781L42.1655 0.719307L42.5391 0.686822L42.9257 0.673828L43.309 0.686822L43.6858 0.719307ZM42.3052 3.73068L42.0161 3.81839L41.74 3.94183L41.4801 4.10426L41.2332 4.30241L41.0058 4.53631L40.7979 4.80918L40.6062 5.11779L40.4341 5.46538L40.2846 5.85195L40.1515 6.27751L40.0443 6.74205L39.9598 7.24881L39.8948 7.79132L39.8591 8.37605L39.8461 8.99976V9.48379L39.8591 10.1075L39.8948 10.6922L39.9598 11.2412L40.0443 11.748L40.1515 12.2158L40.2846 12.6446L40.4341 13.0344L40.6062 13.3885L40.7979 13.7004L41.0058 13.9765L41.2332 14.2169L41.4801 14.4183L41.74 14.5807L42.0161 14.7106L42.3052 14.8016L42.6073 14.8536L42.9257 14.8731L43.2408 14.8536L43.5461 14.8016L43.8353 14.7139L44.1114 14.5872L44.3713 14.428L44.6149 14.2299L44.8423 13.996L45.0535 13.7231L45.2451 13.4145L45.4173 13.0636L45.5667 12.6771L45.6967 12.2515L45.8071 11.787L45.8916 11.2835L45.9533 10.741L45.9923 10.1562L46.0053 9.52927V9.04849H46.054L46.041 8.42478L46.002 7.8368L45.937 7.29105L45.8461 6.78428L45.7356 6.31649L45.6025 5.88769L45.4465 5.49787L45.2711 5.14378L45.0762 4.82867L44.8618 4.55255L44.6312 4.31541L44.381 4.114L44.1179 3.94833L43.8385 3.82164L43.5461 3.73068L43.2408 3.67545L42.9257 3.65921L42.6073 3.67545L42.3052 3.73068Z" fill="white"/>
<path d="M54.2825 7.98737V17.6614H51.1054V0.912109H54.0908L59.2397 10.2029V0.912109H62.4655V17.6614H59.6263L54.2825 7.98737Z" fill="white"/>
<path d="M70.5023 17.6614H67.2278V3.99495H63.8104V0.912109H73.9197V3.99495H70.5023V17.6614Z" fill="white"/>
<path d="M81.466 0.719307L81.8331 0.777781L82.1937 0.855745L82.5445 0.956449L82.8824 1.07664L83.2137 1.21958L83.5353 1.38525L83.8439 1.56717L84.1428 1.77182L84.4287 1.99597L84.7048 2.23961L84.9679 2.50274L85.2148 2.78211L85.4519 3.08422L85.6761 3.40258L85.884 3.73717L86.0789 4.09126L86.2576 4.46159L86.4233 4.85141L86.5727 5.25423L86.7059 5.67329L86.8228 6.11184L86.9203 6.56338L87.0047 7.03116L87.0697 7.51519L87.1152 8.01221L87.1444 8.52223L87.1542 9.04849V9.52927L87.1444 10.0555L87.1152 10.5688L87.0697 11.0658L87.0047 11.5466L86.9235 12.0144L86.8261 12.4692L86.7124 12.9045L86.5792 13.3268L86.433 13.7296L86.2706 14.1162L86.0919 14.4897L85.9002 14.8406L85.6923 15.1784L85.4714 15.4968L85.2343 15.7956L84.9874 16.0783L84.7243 16.3414L84.4514 16.585L84.1655 16.8059L83.8667 17.0106L83.5548 17.1958L83.2332 17.3582L82.9019 17.5011L82.5608 17.6246L82.2067 17.7253L81.8461 17.8032L81.4725 17.8585L81.0924 17.8942L80.7026 17.9039L80.3193 17.8942L79.9425 17.8585L79.5754 17.8032L79.2148 17.7253L78.864 17.6246L78.5261 17.5011L78.1948 17.3582L77.8732 17.1958L77.5646 17.0106L77.2657 16.8059L76.9798 16.585L76.7037 16.3414L76.4406 16.0783L76.1904 15.7956L75.9566 15.4968L75.7324 15.1784L75.5245 14.8406L75.3296 14.4897L75.1509 14.1162L74.9852 13.7296L74.8358 13.3268L74.7026 12.9045L74.5857 12.4692L74.4882 12.0144L74.4038 11.5466L74.3388 11.0658L74.2933 10.5688L74.2641 10.0555L74.2543 9.52927V9.04849L74.2641 8.52223L74.2933 8.01221L74.3388 7.51519L74.4038 7.03116L74.4882 6.56338L74.5857 6.11184L74.7026 5.67329L74.8358 5.25423L74.9852 4.85141L75.1509 4.46159L75.3296 4.09126L75.5245 3.73717L75.7324 3.40258L75.9566 3.08422L76.1904 2.78211L76.4406 2.50274L76.7037 2.23961L76.9798 1.99597L77.2657 1.77182L77.5646 1.56717L77.8732 1.38525L78.1948 1.21958L78.5261 1.07664L78.864 0.956449L79.2148 0.855745L79.5754 0.777781L79.9425 0.719307L80.3193 0.686822L80.7026 0.673828L81.0892 0.686822L81.466 0.719307ZM80.0854 3.73068L79.793 3.81839L79.5169 3.94183L79.257 4.10426L79.0134 4.30241L78.786 4.53631L78.5748 4.80918L78.3864 5.11779L78.2143 5.46538L78.0616 5.85195L77.9316 6.27751L77.8244 6.74205L77.7367 7.24881L77.675 7.79132L77.636 8.37605L77.623 8.99976V9.48379L77.636 10.1075L77.675 10.6922L77.7367 11.2412L77.8244 11.748L77.9316 12.2158L78.0616 12.6446L78.2143 13.0344L78.3864 13.3885L78.5748 13.7004L78.786 13.9765L79.0134 14.2169L79.257 14.4183L79.5169 14.5807L79.793 14.7106L80.0854 14.8016L80.3875 14.8536L80.7026 14.8731L81.021 14.8536L81.3231 14.8016L81.6155 14.7139L81.8916 14.5872L82.1515 14.428L82.3951 14.2299L82.6225 13.996L82.8336 13.7231L83.0221 13.4145L83.1942 13.0636L83.3469 12.6771L83.4769 12.2515L83.5841 11.787L83.6718 11.2835L83.7335 10.741L83.7725 10.1562L83.7855 9.52927V9.04849H83.8309L83.8179 8.42478L83.779 7.8368L83.714 7.29105L83.6263 6.78428L83.5158 6.31649L83.3794 5.88769L83.2267 5.49787L83.048 5.14378L82.8531 4.82867L82.6387 4.55255L82.4081 4.31541L82.1612 4.114L81.8981 3.94833L81.6187 3.82164L81.3263 3.73068L81.021 3.67545L80.7026 3.65921L80.3875 3.67545L80.0854 3.73068Z" fill="white"/>
</svg>
