<?xml version="1.0"?>
<svg xmlns="http://www.w3.org/2000/svg" width="120" height="60" viewBox="0 0 134 18" fill="none">
<path d="M0.147217 0.0585938V3.7854H3.97966V17.6389H8.55413V3.7854H12.3863V0.0585938H0.147217Z" fill="white"/>
<path d="M13.7765 0.0469294H18.2514V5.16331C18.9294 4.62503 19.9611 4.08564 21.5889 4.08564C24.1094 4.08564 25.3038 5.0365 25.3038 7.93643V17.6402H20.8289V8.80954C20.8289 7.62902 20.3136 7.42384 19.6895 7.42384C18.9576 7.42384 18.7398 7.52615 18.2514 7.8598V17.6405H13.7765V0.0469294Z" fill="white"/>
<path d="M48.9692 7.70827C50.3668 7.70827 51.0247 7.3585 51.0247 5.73813C51.0247 3.94145 50.3669 3.61786 49.233 3.61786H47.8096V7.70827H48.9692ZM43.1989 0H48.574C53.1609 0 55.7432 1.02208 55.7432 5.41338C55.7432 8.90606 54.6345 11.2004 48.9167 11.2004H47.8097V17.6481H43.1989L43.1989 0Z" fill="white"/>
<path d="M73.6745 10.9673C73.6745 7.70589 73.5105 7.19268 72.2353 7.19268C70.9625 7.19268 70.8261 7.83438 70.8261 11.0946C70.8261 14.2014 70.99 14.9198 72.2653 14.9198C73.5374 14.9198 73.6745 14.0729 73.6745 10.9673ZM66.0267 10.9673C66.0267 5.98486 68.2223 4.08594 72.2653 4.08594C76.3064 4.08594 78.4769 6.11447 78.4769 11.0946C78.4769 16.0748 76.2789 17.9999 72.2353 17.9999C68.1948 17.9999 66.0267 15.9469 66.0267 10.9673Z" fill="white"/>
<path d="M78.1909 4.41992H82.8562L83.9937 8.19343C84.2115 8.96359 84.6179 10.7619 84.9434 12.1716H84.9972C85.1349 10.8887 85.4868 9.22049 85.8668 7.91097L86.8697 4.42H91.4536L86.8697 17.666H83.0171L78.1909 4.41992Z" fill="white"/>
<path d="M92.481 17.666H96.9593V4.41992H92.481V17.666Z" fill="white"/>
<path d="M98.833 4.42018H102.521L102.82 5.54955C103.769 4.70155 104.827 4.08594 106.646 4.08594C109.167 4.08594 110.36 5.0368 110.36 7.93673V17.6661H105.884V8.80984C105.884 7.62931 105.371 7.42414 104.745 7.42414C104.014 7.42414 103.797 7.52645 103.309 7.86065V17.6663H98.833L98.833 4.42018Z" fill="white"/>
<path d="M117.586 17.9208C113.796 17.9208 111.757 15.6993 111.557 11.4181C111.369 7.40165 113.158 4.03516 117.729 4.03516C119.531 4.03516 120.81 4.59567 121.885 5.66336L119.98 8.46595C119.504 7.90543 118.982 7.53118 118.003 7.53118V7.56288C116.247 7.56288 115.431 8.89968 115.534 11.0956C115.628 13.1286 116.543 14.3881 118.275 14.3881C119.252 14.3881 119.763 14.0583 120.363 13.4689L121.915 16.405C120.989 17.2607 119.682 17.9208 117.586 17.9208Z" fill="white"/>
<path d="M127.903 6.9743C126.962 6.9743 126.507 7.58543 126.354 9.54334H129.573C129.453 7.68663 128.995 6.9743 127.903 6.9743ZM126.354 12.1096C126.475 14.2438 127.146 14.8554 128.208 14.8554C129.149 14.8554 129.816 14.524 130.787 13.354L133.551 15.1851C132.216 16.8378 130.695 17.9304 127.995 17.9304C124.016 17.9304 121.982 15.3125 121.982 11.0419C121.982 6.46653 124.137 4.02539 127.995 4.02539C131.759 4.02539 133.824 6.38979 133.824 11.1687V12.1095L126.354 12.1096Z" fill="white"/>
<path d="M32.457 6.9743C31.5153 6.9743 31.0594 7.58543 30.9077 9.54225H34.1264C34.0052 7.68663 33.5493 6.9743 32.457 6.9743ZM30.9077 12.1096C31.0288 14.2438 31.6971 14.8554 32.7612 14.8554C33.7011 14.8554 34.3693 14.524 35.341 13.354L38.1038 15.1851C36.7692 16.8378 35.2492 17.9304 32.5482 17.9304C28.5696 17.9304 26.5361 15.3125 26.5361 11.0419C26.5361 6.46653 28.6907 4.02539 32.5482 4.02539C36.3134 4.02539 38.378 6.38979 38.378 11.1687V12.1095L30.9077 12.1096Z" fill="white"/>
<path d="M57.0877 4.32766H60.8137L61.1698 5.72837C61.9097 4.63795 62.7859 4.11914 63.992 4.11914C64.4296 4.11914 64.8407 4.17141 65.1155 4.22257V8.39757H65.0053C64.6498 8.21685 63.9369 8.00888 63.3342 8.00888C62.6213 8.00888 62.0192 8.13844 61.6086 8.34697V17.7071H57.0878L57.0877 4.32766Z" fill="white"/>
<path d="M92.551 3.00719H96.9127V0.0605469H92.551V3.00719Z" fill="white"/>
</svg>
