<?xml version="1.0" encoding="utf-8"?>
<!-- Generator: Adobe Illustrator 27.3.1, SVG Export Plug-In . SVG Version: 6.00 Build 0)  -->
<svg version="1.1" id="Слой_1" xmlns="http://www.w3.org/2000/svg" xmlns:xlink="http://www.w3.org/1999/xlink" x="0px" y="0px"
	 viewBox="0 0 1008 1013" style="enable-background:new 0 0 1008 1013;" xml:space="preserve">
<style type="text/css">
	.st0{fill:none;}
	.st1{fill:#FFFFFF;}
	.st2{fill:#E8BC08;}
	.st3{fill:#FFFFFF;stroke:#FFFFFF;}
	.st4{fill:#E8BC08;stroke:#E8BC08;}
</style>
<g>
	<path class="st0" d="M567.7,914.3c-2.4-2.1-5.6-3.2-9.7-3.2h-23.4v22.5H558c4.1,0,7.4-1,9.7-2.9c2.5-2,3.7-4.8,3.7-8.2
		S570.2,916.3,567.7,914.3z"/>
	<path class="st0" d="M689.6,920.5c-6.3-5.6-15.1-8.4-26.5-8.4h-14.4v64.5h14.4c11.4,0,20.3-2.8,26.5-8.4c6.3-5.6,9.4-13.6,9.4-23.9
		S695.9,926.1,689.6,920.5z"/>
	<polygon class="st1" points="44.8,7.4 44.8,832.9 163.5,832.9 163.5,802.7 81.7,802.7 81.7,37.7 925.2,37.7 925.2,802.7 
		825.5,802.7 825.5,832.9 963.2,832.9 963.2,7.4 	"/>
	<path class="st1" d="M576,167.4c28.5-26.7,64.8-40,109-40c28.5,0,55.1,6.5,80,19.6v66.3c-25.4-13.9-50.3-20.8-74.9-20.8
		c-24.8,0-45.2,7.3-61.2,22c-15.7,14.6-23.5,33.6-23.5,56.8c0,24.3,7.4,43.5,22.3,57.6c14.9,14.1,33.1,21.2,54.5,21.2
		c18.3,0,32.8-4.3,43.5-12.9v-89.8h71v121.9c-11,12-26.8,22.3-47.4,31c-21.2,8.4-43.5,12.5-67,12.5c-42.3,0-77.9-13.3-106.6-40
		c-28.5-26.9-42.7-61.2-42.7-102.7C532.9,228.3,547.2,194.1,576,167.4z"/>
	<polygon class="st1" points="642.2,446 643.5,443.7 644.7,446 851.8,446 851.8,674.5 776.4,674.5 802.5,719.8 733.1,719.8 
		706.6,674.5 650.7,674.5 616.3,614.4 556.6,719.8 484.4,719.8 580.8,552.5 519.7,446 	"/>
	<polygon class="st1" points="497.8,111.6 497.8,178.3 463.7,178.3 429,111.6 	"/>
	<polygon class="st1" points="499.5,239.9 499.5,396.1 429.5,396.1 429.5,178.8 462.6,178.8 	"/>
	<polygon class="st1" points="467.6,442 502.9,503.6 467.6,503.6 467.6,720.9 404.9,720.9 404.9,542.8 343.3,684.5 291.2,684.5 
		228.5,542.8 228.5,720.9 165.7,720.9 165.7,442 240.8,442 319.2,603.3 394.8,442 	"/>
	<path class="st1" d="M164.9,300.1c11,10.2,26.7,19.1,47,26.7c19.6,7.3,38.4,11,56.5,11c28,0,41.9-7.2,41.9-21.6
		c0-5.7-3.5-11.1-10.6-16.1c-1.6-1.3-7.4-3.7-17.6-7.1l-24.7-7.4l-20-5.9l-18-7.1c-8.1-3.1-14.1-6-18-8.6
		c-14.1-10.5-23-18.8-26.7-25.1c-6.5-12.5-9.8-26-9.8-40.4c0-26.1,9.5-46.4,28.6-60.8c19.3-14.4,45.7-21.6,79.2-21.6
		c33.5,0,64.4,7.6,92.9,22.7v67.8c-12.3-7.6-26.8-13.9-43.5-18.8c-17.2-5.2-33.5-7.8-48.6-7.8c-24,0-36.1,6-36.1,18
		c0,5.2,3.8,9.4,11.4,12.5l12.5,4.3c2.9,1,9,2.9,18.4,5.5c9.4,2.6,15.8,4.4,19.2,5.5c26.1,8.6,46.8,19.5,61.9,32.5
		c14.9,12.8,22.3,31.1,22.3,54.9c0,26.7-10.5,48.1-31.4,64.3c-20.6,15.9-47.6,23.9-80.8,23.9c-42.3,0-77.8-9.8-106.2-29.4V300.1z"/>
	<path class="st2" d="M652.1,834.1h-34.2v-1.1h-39.2v1.1h-13.2v-1.1h-30.9c-3,1.3-6.2,2-9.9,2c-3.6,0-6.9-0.7-9.9-2h-26.6l0.9,1.1
		h-15.5l-0.8-1.1h-12.5v1.1h-13.2v-1.1h-28.3c-2.8,1.3-6,2-9.7,2c-3.6,0-6.8-0.7-9.7-2h-26.9v1.1h-34.2v-1.1H163.5v16.8h662v-16.8
		H652.1V834.1z"/>
	<path class="st2" d="M501.6,812.5c0-3.6,0.7-6.8,2.2-9.8H484c0.1,0.7,0.2,1.4,0.2,2.1c0,2.7-0.7,5.2-2.1,7.3
		c-1.4,2.1-3.3,3.8-5.8,5.1l12,15.8h26.6c-2.5-1.1-4.7-2.6-6.7-4.6C503.8,824,501.6,818.7,501.6,812.5z"/>
	<path class="st2" d="M578.7,809.4h4.8c1.4,0,2.4-0.3,3.3-1c0.9-0.7,1.3-1.7,1.3-2.8c0-1.2-0.4-2.1-1.3-2.8c0,0-0.1,0-0.1-0.1h-8
		V809.4z"/>
	<path class="st2" d="M389.4,816.2v-13.5h-37.7v3.5h16.1v10.5h-16.1v6h20.9v10.3h26.9c-1.6-0.8-3.1-1.7-4.5-2.9
		C391.3,826.8,389.4,822.2,389.4,816.2z"/>
	<path class="st2" d="M545.6,802.7c1.4,3,2.2,6.2,2.2,9.8c0,6.2-2.2,11.5-6.5,15.9c-2,2-4.2,3.5-6.6,4.5h30.9v-30.2H545.6z"/>
	<path class="st2" d="M517.9,805.1c-1.8,1.9-2.7,4.4-2.7,7.4c0,3,0.9,5.4,2.7,7.5c1.8,1.9,4.1,2.9,6.8,2.9s5-1,6.8-2.9
		c1.8-2,2.7-4.5,2.7-7.5c0-3-0.9-5.5-2.7-7.4c-1-1.1-2.2-1.9-3.6-2.4h-6.6C520.1,803.2,518.9,804,517.9,805.1z"/>
	<path class="st2" d="M428.8,802.7v13.5c0,6-1.9,10.6-5.6,13.9c-1.3,1.2-2.8,2.1-4.4,2.9h28.3v-30.2H428.8z"/>
	<path class="st2" d="M404.4,821.3c1.2,1.1,2.8,1.7,4.7,1.7c1.9,0,3.5-0.6,4.6-1.7c1.2-1.1,1.8-2.8,1.8-5v-13.6h-12.9v13.6
		C402.6,818.5,403.2,820.1,404.4,821.3z"/>
	<polygon class="st2" points="460.3,818.7 460.3,832.9 472.8,832.9 462.2,818.7 	"/>
	<path class="st2" d="M460.3,809h6c1.2,0,2.2-0.3,3-0.9c0.8-0.7,1.2-1.5,1.2-2.6s-0.4-1.9-1.2-2.5c-0.1-0.1-0.2-0.2-0.4-0.3h-8.6
		V809z"/>
	<path class="st2" d="M601.4,802.7c0.1,0.7,0.2,1.5,0.2,2.3c0,4.1-1.5,7.5-4.5,10.1c-2.9,2.6-6.9,3.9-11.8,3.9h-6.6v13.9h39.2v-30.2
		H601.4z"/>
	<polygon class="st2" points="631.2,802.7 631.2,806.2 647.3,806.2 647.3,816.6 631.2,816.6 631.2,822.7 652.1,822.7 652.1,832.9 
		825.5,832.9 825.5,802.7 	"/>
	<rect x="163.5" y="802.7" class="st2" width="174.9" height="30.2"/>
	<path class="st2" d="M338.4,790.9h33.8v11.4h-20.6v0.4h37.7v-11.8h13.2v11.8h12.9v-11.8h13.2v11.8h18.3v-11.8h20.8
		c4.9,0,8.8,1.3,11.8,3.9c2.4,2.1,3.8,4.7,4.3,7.8h19.9c1.1-2.2,2.5-4.2,4.3-6c4.4-4.4,9.9-6.6,16.6-6.6c6.6,0,12.1,2.2,16.5,6.6
		c1.8,1.8,3.3,3.9,4.3,6h19.9v-11.8h19.8c5,0,8.9,1.3,11.8,3.9c2.4,2.1,3.8,4.7,4.3,7.8h16.5v-11.8h33.8v11.4h-20.6v0.4h194.3v-31.4
		h-662v31.4h174.9V790.9z"/>
	<path class="st2" d="M578.7,801.7v1h8c-0.8-0.6-1.9-1-3.2-1H578.7z"/>
	<path class="st2" d="M460.3,802v0.7h8.6c-0.7-0.4-1.5-0.7-2.6-0.7H460.3z"/>
	<path class="st2" d="M521.4,802.7h6.6c-1-0.4-2.1-0.5-3.3-0.5C523.5,802.2,522.4,802.3,521.4,802.7z"/>
	<polygon class="st3" points="429.5,178.8 429.5,396.1 499.5,396.1 499.5,239.9 462.6,178.8 	"/>
	<polygon class="st4" points="497.8,178.3 497.8,111.6 429,111.6 463.7,178.3 	"/>
	<polygon class="st4" points="642.2,446 519.7,446 580.8,552.5 	"/>
	<polygon class="st4" points="776.4,674.5 851.8,674.5 851.8,446 644.7,446 723,581.8 	"/>
	<polygon class="st4" points="616.3,614.4 650.7,674.5 706.6,674.5 643.5,566.4 	"/>
	<polygon class="st3" points="643.5,443.7 642.2,446 644.7,446 	"/>
	<polygon class="st3" points="484.4,719.8 556.6,719.8 616.3,614.4 580.8,552.5 	"/>
	<polygon class="st3" points="733.1,719.8 802.5,719.8 776.4,674.5 706.6,674.5 	"/>
	<polygon class="st3" points="616.3,614.4 643.5,566.4 706.6,674.5 776.4,674.5 723,581.8 644.7,446 642.2,446 580.8,552.5 	"/>
	<polygon class="st3" points="240.8,442 165.7,442 165.7,720.9 228.5,720.9 228.5,542.8 291.2,684.5 343.3,684.5 404.9,542.8 
		404.9,720.9 467.6,720.9 467.6,503.6 502.9,503.6 467.6,442 394.8,442 319.2,603.3 	"/>
	<path class="st1" d="M351.9,377.7c20.9-16.2,31.4-37.6,31.4-64.3c0-23.8-7.4-42.1-22.3-54.9c-15.2-13.1-35.8-23.9-61.9-32.5
		c-3.4-1-9.8-2.9-19.2-5.5c-9.4-2.6-15.6-4.4-18.4-5.5l-12.5-4.3c-7.6-3.1-11.4-7.3-11.4-12.5c0-12,12-18,36.1-18
		c15.2,0,31.4,2.6,48.6,7.8c16.7,5,31.2,11.2,43.5,18.8v-67.8c-28.5-15.2-59.5-22.7-92.9-22.7c-33.5,0-59.8,7.2-79.2,21.6
		c-19.1,14.4-28.6,34.6-28.6,60.8c0,14.4,3.3,27.8,9.8,40.4c3.7,6.3,12.5,14.6,26.7,25.1c3.9,2.6,9.9,5.5,18,8.6l18,7.1l20,5.9
		l24.7,7.4c10.2,3.4,16.1,5.7,17.6,7.1c7.1,5,10.6,10.3,10.6,16.1c0,14.4-14,21.6-41.9,21.6c-18,0-36.9-3.7-56.5-11
		c-20.4-7.6-36.1-16.5-47-26.7v72.1c28.5,19.6,63.9,29.4,106.2,29.4C304.4,401.6,331.3,393.6,351.9,377.7z"/>
	<polygon class="st3" points="184.2,885.6 116.4,1003.2 147.2,1003.2 184.2,937.8 222.4,1003.2 252,1003.2 218.1,944.4 	"/>
	<polygon class="st3" points="431.8,885.6 364,1003.2 394.8,1003.2 431.8,937.8 469.9,1003.2 499.5,1003.2 465.6,944.4 	"/>
	<polygon class="st1" points="364.1,885.6 344.2,955.7 319.7,885.3 296.2,885.3 271.6,955.7 251.8,885.6 218.1,885.6 257,1003.9 
		283.9,1003.9 307.8,935 331.3,1003.9 357.8,1003.9 397.2,885.6 	"/>
	<path class="st1" d="M596,942c4-5.8,6-12.5,6-20.2c0-10.6-3.9-19.3-11.6-26c-7.5-6.8-17.8-10.2-30.7-10.2h-55.3v117.6h30.2v-44.9
		h12.1l33.3,44.9h34.8L579.2,955C586.3,952.2,591.9,947.9,596,942z M567.7,930.8c-2.4,1.9-5.6,2.9-9.7,2.9h-23.4v-22.5H558
		c4.1,0,7.4,1.1,9.7,3.2c2.5,2,3.7,4.8,3.7,8.2S570.2,928.8,567.7,930.8z"/>
	<path class="st1" d="M820.7,944.2c-6.5-5.6-15.3-10.2-26.5-13.9c-1.5-0.4-4.2-1.2-8.2-2.4c-4-1.1-6.7-1.9-7.9-2.4l-5.4-1.8
		c-3.2-1.3-4.9-3.1-4.9-5.4c0-5.2,5.2-7.7,15.5-7.7c6.5,0,13.4,1.1,20.8,3.4c7.2,2.1,13.4,4.8,18.6,8.1V893
		c-12.2-6.5-25.5-9.7-39.8-9.7c-14.3,0-25.7,3.1-33.9,9.2c-8.2,6.2-12.3,14.8-12.3,26c0,6.2,1.4,11.9,4.2,17.3
		c1.6,2.7,5.4,6.3,11.4,10.8c1.7,1.1,4.3,2.4,7.7,3.7l7.7,3l8.6,2.5L787,959c4.4,1.5,6.9,2.5,7.6,3c3,2.1,4.5,4.4,4.5,6.9
		c0,6.2-6,9.2-18,9.2c-7.7,0-15.8-1.6-24.2-4.7c-8.7-3.2-15.5-7.1-20.2-11.4V993c12.2,8.4,27.4,12.6,45.5,12.6
		c14.2,0,25.8-3.4,34.6-10.2c9-6.9,13.4-16.1,13.4-27.6C830.3,957.6,827.1,949.7,820.7,944.2z"/>
	<path class="st1" d="M712.2,902.1c-12.2-11-27.8-16.5-46.9-16.5h-46.9v117.6h46.9c19.3,0,34.9-5.4,46.9-16.3
		c12.1-10.9,18.1-25,18.1-42.5C730.3,927.1,724.2,913,712.2,902.1z M689.6,968.3c-6.3,5.6-15.1,8.4-26.5,8.4h-14.4v-64.5h14.4
		c11.4,0,20.3,2.8,26.5,8.4c6.3,5.6,9.4,13.6,9.4,23.9S695.9,962.7,689.6,968.3z"/>
	<path class="st1" d="M575.6,372.8c28.7,26.7,64.3,40,106.6,40c23.5,0,45.9-4.2,67-12.5c20.6-8.6,36.5-18.9,47.4-31V247.4h-71v89.8
		c-10.7,8.6-25.2,12.9-43.5,12.9c-21.4,0-39.6-7.1-54.5-21.2c-14.9-14.1-22.3-33.3-22.3-57.6c0-23.3,7.8-42.2,23.5-56.8
		c15.9-14.6,36.3-22,61.2-22c24.6,0,49.5,6.9,74.9,20.8V147c-24.8-13.1-51.5-19.6-80-19.6c-44.2,0-80.5,13.3-109,40
		c-28.7,26.7-43.1,60.9-43.1,102.7C532.9,311.7,547.1,345.9,575.6,372.8z"/>
	<path d="M524.7,834.9c3.6,0,6.9-0.7,9.9-2h-19.7C517.8,834.3,521.1,834.9,524.7,834.9z"/>
	<polygon points="473.6,834.1 489.1,834.1 488.3,832.9 472.8,832.9 	"/>
	<rect x="565.5" y="832.9" width="13.2" height="1.1"/>
	<rect x="617.9" y="832.9" width="34.2" height="1.1"/>
	<path d="M409.1,834.9c3.6,0,6.9-0.7,9.7-2h-19.3C402.3,834.3,405.5,834.9,409.1,834.9z"/>
	<rect x="447.1" y="832.9" width="13.2" height="1.1"/>
	<rect x="338.4" y="832.9" width="34.2" height="1.1"/>
	<path d="M547.8,812.5c0-3.6-0.7-6.8-2.2-9.8H528c1.4,0.5,2.5,1.3,3.6,2.4c1.8,1.9,2.7,4.4,2.7,7.4c0,3-0.9,5.4-2.7,7.5
		c-1.8,1.9-4.1,2.9-6.8,2.9s-5-1-6.8-2.9c-1.8-2-2.7-4.5-2.7-7.5c0-3,0.9-5.5,2.7-7.4c1-1.1,2.2-1.9,3.6-2.4h-17.6
		c-1.4,3-2.2,6.2-2.2,9.8c0,6.2,2.2,11.5,6.5,15.8c2,2,4.2,3.5,6.7,4.6h19.7c2.4-1.1,4.7-2.6,6.6-4.5
		C545.6,824,547.8,818.8,547.8,812.5z"/>
	<polygon points="351.7,822.7 351.7,816.6 367.8,816.6 367.8,806.2 351.7,806.2 351.7,802.7 338.4,802.7 338.4,832.9 372.6,832.9 
		372.6,822.7 	"/>
	<path d="M428.8,816.2v-13.5h-13.2v13.6c0,2.2-0.6,3.9-1.8,5c-1.1,1.1-2.7,1.7-4.6,1.7c-1.9,0-3.5-0.6-4.7-1.7
		c-1.2-1.1-1.8-2.8-1.8-5v-13.6h-13.2v13.5c0,6,1.9,10.6,5.6,13.9c1.4,1.2,2.8,2.1,4.5,2.9h19.3c1.6-0.8,3.1-1.7,4.4-2.9
		C426.9,826.8,428.8,822.2,428.8,816.2z"/>
	<path d="M482,812.1c1.4-2.2,2.1-4.6,2.1-7.3c0-0.7-0.1-1.4-0.2-2.1h-15c0.1,0.1,0.3,0.2,0.4,0.3c0.8,0.6,1.2,1.5,1.2,2.5
		s-0.4,1.9-1.2,2.6c-0.7,0.6-1.7,0.9-3,0.9h-6v-6.3h-13.2v30.2h13.2v-14.3h1.8l10.6,14.3h15.4l-12-15.8
		C478.7,816,480.6,814.3,482,812.1z"/>
	<path d="M585.3,819c5,0,8.9-1.3,11.8-3.9c3-2.6,4.5-6,4.5-10.1c0-0.8-0.1-1.5-0.2-2.3h-14.8c0,0,0.1,0,0.1,0.1
		c0.9,0.7,1.3,1.6,1.3,2.8c0,1.2-0.4,2.1-1.3,2.8c-0.8,0.7-1.9,1-3.3,1h-4.8v-6.7h-13.2v30.2h13.2V819H585.3z"/>
	<polygon points="617.9,832.9 652.1,832.9 652.1,822.7 631.2,822.7 631.2,816.6 647.3,816.6 647.3,806.2 631.2,806.2 631.2,802.7 
		617.9,802.7 	"/>
	<path d="M578.7,801.7h4.8c1.3,0,2.3,0.3,3.2,1h14.8c-0.5-3.1-1.9-5.7-4.3-7.8c-2.9-2.6-6.9-3.9-11.8-3.9h-19.8v11.8h13.2V801.7z"/>
	<polygon points="651.7,802.3 651.7,790.9 617.9,790.9 617.9,802.7 631.2,802.7 631.2,802.3 	"/>
	<path d="M460.3,802h6c1,0,1.9,0.2,2.6,0.7h15c-0.4-3.1-1.9-5.7-4.3-7.8c-2.9-2.6-6.8-3.9-11.8-3.9h-20.8v11.8h13.2V802z"/>
	<polygon points="351.7,802.3 372.2,802.3 372.2,790.9 338.4,790.9 338.4,802.7 351.7,802.7 	"/>
	<rect x="415.5" y="790.9" width="13.2" height="11.8"/>
	<path d="M524.7,802.2c1.2,0,2.3,0.2,3.3,0.5h17.6c-1.1-2.2-2.5-4.2-4.3-6c-4.4-4.4-9.9-6.6-16.5-6.6c-6.7,0-12.2,2.2-16.6,6.6
		c-1.8,1.8-3.3,3.9-4.3,6h17.6C522.4,802.3,523.5,802.2,524.7,802.2z"/>
	<rect x="389.4" y="790.9" width="13.2" height="11.8"/>
</g>
</svg>
