<?xml version="1.0"?>
<svg xmlns="http://www.w3.org/2000/svg" width="120" height="60" viewBox="0 0 128 18" fill="none">
<path d="M90.108 5.82458H89.7701C89.7409 5.64916 89.7246 5.55495 89.7214 5.53546C89.6727 5.24635 89.6239 4.9085 89.4323 4.66811C89.2406 4.42772 89.049 4.23606 88.422 4.23606C88.0841 4.23606 87.7495 4.33027 87.5546 4.52518C87.3142 4.71684 87.22 4.9085 87.22 5.14889C87.2655 5.58419 87.22 5.62967 87.7008 5.96752C88.1816 6.25663 89.1432 6.68868 90.7804 7.36438C92.5119 8.08554 93.6683 8.80671 94.3408 9.67407C95.062 10.5382 95.3056 11.503 95.3056 12.5133C95.3056 13.8127 94.8703 15.2063 93.8113 16.2653C92.7523 17.3243 91.0208 18 88.5194 18C85.8232 18 84.043 17.1814 82.984 16.0249C81.925 14.8717 81.5384 13.4748 81.5384 12.3216C81.5384 12.2599 81.5384 11.9545 81.5384 11.4055H86.9309C86.9309 11.6362 86.9309 11.7661 86.9309 11.7921C86.9309 12.6562 87.22 13.0915 87.5092 13.3806C87.795 13.621 88.2303 13.7152 88.422 13.7152C89.3348 13.7152 89.8188 13.0428 89.8188 12.5133C89.8188 12.0325 89.7214 11.935 89.2406 11.5972C88.7598 11.3081 87.8438 10.9735 86.4501 10.3952C85.8232 10.1548 84.6212 9.72279 83.611 8.9529C82.5974 8.183 81.6846 6.9778 81.6846 5.29507C81.6846 3.6091 82.5974 2.21224 83.8968 1.34813C85.1962 0.48078 86.8822 0 88.4707 0C90.3484 0 92.4177 0.626963 93.7171 2.02057C94.8703 3.31998 94.9677 4.57066 95.0165 5.53546C95.0165 5.56145 95.0165 5.68814 95.0165 5.91879H90.108" fill="white"/>
<path d="M101.176 0.673828H101.559C101.559 6.76803 101.559 10.153 101.559 10.8287C101.559 11.3582 101.608 12.0826 101.848 12.6089C102.137 13.1384 102.524 13.5249 103.534 13.5249C104.593 13.5249 104.928 13.1871 105.171 12.6576C105.412 12.1768 105.412 11.4069 105.412 10.7832C105.412 10.1075 105.412 6.7388 105.412 0.673828H110.704C110.704 6.76803 110.704 10.153 110.704 10.8287C110.704 13.6224 109.982 14.9673 108.78 16.075C107.575 17.2315 105.844 17.9527 103.534 17.9527C102.186 17.9527 99.7301 17.6635 98.1448 16.1237C96.605 14.6327 96.2184 13.2845 96.2672 10.8774C96.2672 10.1985 96.2672 6.79727 96.2672 0.673828H101.176Z" fill="white"/>
<path d="M116.817 8.51898L116.911 17.6148H111.811V1.01167V0.673828H116.336L122.687 10.0588L122.496 0.673828H127.596V17.6148H123.074L116.817 8.51898Z" fill="white"/>
<path d="M57.9087 17.9025L55.3587 7.26691L52.8086 17.9513H49.5828L45.4929 0.672432H49.0078L51.3175 11.6946L53.9163 0.626953H56.8985L59.4485 11.6946L61.7615 0.672432H65.1757L61.0858 17.9025H57.9087Z" fill="white"/>
<path d="M31.6803 17.9039H28.3116V3.80214H24.7999V0.673828H35.1951V3.80214H31.6803V17.9039Z" fill="white"/>
<path d="M20.0831 17.9039H16.7144V3.80214H13.1995V0.673828H23.5947V3.80214H20.0831V17.9039Z" fill="white"/>
<path d="M7.27095 0.768135L7.64128 0.826609L7.99861 0.904573L8.34945 1.00528L8.69055 1.12547L9.02189 1.26841L9.3435 1.43083L9.65211 1.616L9.95097 1.82065L10.2368 2.0448L10.513 2.28844L10.7728 2.55157L11.023 2.83094L11.2601 3.13305L11.4843 3.44816L11.6922 3.786L11.8871 4.14009L12.0657 4.51042L12.2314 4.89699L12.3809 5.30306L12.5108 5.72212L12.6277 6.16066L12.7284 6.61221L12.8097 7.07999L12.8746 7.56402L12.9234 8.06104L12.9493 8.57106L12.9591 9.09732V9.5781L12.9493 10.1044L12.9234 10.6176L12.8779 11.1146L12.8129 11.5954L12.7317 12.0632L12.6342 12.5148L12.5173 12.9533L12.3874 13.3724L12.2412 13.7784L12.0787 14.165L11.9001 14.5353L11.7052 14.8894L11.5005 15.2273L11.2764 15.5456L11.0425 15.8445L10.7923 16.1271L10.5325 16.387L10.2563 16.6306L9.97046 16.8548L9.6716 17.0594L9.36299 17.2446L9.04138 17.407L8.71004 17.5499L8.36569 17.6701L8.01486 17.7708L7.65102 17.8521L7.28069 17.9073L6.90062 17.9398L6.5108 17.9528L6.12747 17.9398L5.75064 17.9073L5.38356 17.8521L5.02298 17.7708L4.67214 17.6701L4.33104 17.5499L3.9997 17.407L3.68134 17.2446L3.37273 17.0594L3.07387 16.8548L2.78475 16.6306L2.51188 16.387L2.24875 16.1271L1.99861 15.8445L1.76147 15.5456L1.54057 15.2273L1.32942 14.8894L1.13776 14.5353L0.955841 14.165L0.793415 13.7784L0.643983 13.3724L0.510795 12.9533L0.393848 12.5148L0.293144 12.0632L0.211932 11.5954L0.146961 11.1146L0.101482 10.6176L0.0722455 10.1044L0.0625 9.5781V9.09732L0.0722455 8.57106L0.101482 8.06104L0.146961 7.56402L0.211932 7.07999L0.293144 6.61221L0.393848 6.16066L0.510795 5.72212L0.643983 5.30306L0.793415 4.89699L0.955841 4.51042L1.13776 4.14009L1.32942 3.786L1.54057 3.44816L1.76147 3.13305L1.99861 2.83094L2.24875 2.55157L2.51188 2.28844L2.78475 2.0448L3.07387 1.82065L3.37273 1.616L3.68134 1.43083L3.9997 1.26841L4.33104 1.12547L4.67214 1.00528L5.02298 0.904573L5.38356 0.826609L5.75064 0.768135L6.12747 0.73565L6.5108 0.722656L6.89737 0.73565L7.27095 0.768135ZM5.8416 3.73078L5.55248 3.81849L5.27636 3.94193L5.01648 4.10436L4.77284 4.30252L4.54545 4.53641L4.33429 4.80928L4.14588 5.11789L3.97371 5.46548L3.82103 5.85206L3.69109 6.27761L3.58064 6.74215L3.49618 7.24892L3.43445 7.79142L3.39547 8.37615L3.38248 8.99986V9.48389L3.39547 10.1076L3.43445 10.6923L3.49618 11.2413L3.58064 11.7481L3.69109 12.2159L3.82103 12.6447L3.97371 13.0345L4.14588 13.3886L4.33429 13.7005L4.54545 13.9766L4.77284 14.217L5.01648 14.4184L5.27636 14.5808L5.55248 14.7107L5.8416 14.8017L6.14696 14.8537L6.46207 14.8732L6.78042 14.8537L7.08253 14.8017L7.3749 14.714L7.65102 14.5873L7.9109 14.4281L8.15454 14.23L8.38194 13.9961L8.58984 13.7232L8.7815 13.4146L8.95368 13.0638L9.10636 12.6772L9.2363 12.2516L9.3435 11.7871L9.43121 11.2836L9.49293 10.7411L9.53191 10.1563L9.5449 9.52937V9.04859H9.59038L9.57739 8.42488L9.53841 7.8369L9.47344 7.29115L9.38573 6.78438L9.27528 6.31659L9.13884 5.88779L8.98291 5.49797L8.80749 5.14388L8.61258 4.82877L8.39818 4.55265L8.16754 4.31551L7.92065 4.1141L7.65752 3.94843L7.37815 3.82174L7.08578 3.73078L6.78042 3.67555L6.46207 3.65931L6.14696 3.67555L5.8416 3.73078Z" fill="white"/>
<path d="M44.0993 17.9025L43.0858 14.2934H38.3235L37.3132 17.9025H33.9899L39.1421 0.626953H42.4621L47.5622 17.9025H44.0993ZM42.2217 11.3081L40.6819 5.67839L39.1421 11.3081H42.2217Z" fill="white"/>
<path d="M73.4074 17.9025L72.3971 14.2934H67.6315L66.6212 17.9025H63.3013L68.4502 0.626953H71.7701L76.8703 17.9025H73.4074ZM71.5297 11.3081L69.99 5.67839L68.4502 11.3081H71.5297Z" fill="white"/>
</svg>
