<?xml version="1.0"?>
<svg xmlns="http://www.w3.org/2000/svg" xmlns:xlink="http://www.w3.org/1999/xlink" width="160" zoomAndPan="magnify" viewBox="0 0 150 149.999998" height="160" preserveAspectRatio="xMidYMid meet" version="1.0"><defs><clipPath id="a7d29266ce"><path d="M 7 56.316406 L 20 56.316406 L 20 93.9375 L 7 93.9375 Z M 7 56.316406 " clip-rule="nonzero"/></clipPath><clipPath id="5efdabfcad"><path d="M 16 56.316406 L 33 56.316406 L 33 93.9375 L 16 93.9375 Z M 16 56.316406 " clip-rule="nonzero"/></clipPath><clipPath id="45473899c1"><path d="M 1.132812 56.316406 L 10 56.316406 L 10 93.9375 L 1.132812 93.9375 Z M 1.132812 56.316406 " clip-rule="nonzero"/></clipPath><clipPath id="78f3365870"><path d="M 126 68 L 148.882812 68 L 148.882812 86 L 126 86 Z M 126 68 " clip-rule="nonzero"/></clipPath></defs><g clip-path="url(#a7d29266ce)"><path fill="#ff7a00" d="M 19.226562 75.117188 L 19.21875 75.117188 L 13.746094 56.316406 L 7.253906 56.316406 L 12.730469 75.117188 L 12.734375 75.117188 L 12.730469 75.128906 L 12.734375 75.136719 L 12.730469 75.136719 L 7.253906 93.9375 L 13.746094 93.9375 L 19.21875 75.136719 L 19.226562 75.136719 Z M 19.226562 75.117188 " fill-opacity="1" fill-rule="nonzero"/></g><g clip-path="url(#5efdabfcad)"><path fill="#735cfc" d="M 32.3125 75.117188 L 32.308594 75.117188 L 26.832031 56.316406 L 16.820312 56.316406 L 22.296875 75.117188 L 22.304688 75.117188 L 22.300781 75.128906 L 22.304688 75.136719 L 22.296875 75.136719 L 16.820312 93.9375 L 26.832031 93.9375 L 32.308594 75.136719 L 32.3125 75.136719 Z M 32.3125 75.117188 " fill-opacity="1" fill-rule="nonzero"/></g><g clip-path="url(#45473899c1)"><path fill="#dafe31" d="M 9.429688 75.136719 L 9.425781 75.128906 L 9.429688 75.117188 L 9.421875 75.117188 L 3.945312 56.316406 L 1.132812 56.316406 L 6.609375 75.128906 L 1.132812 93.9375 L 3.945312 93.9375 L 9.421875 75.136719 Z M 9.429688 75.136719 " fill-opacity="1" fill-rule="nonzero"/></g><path fill="#ffffff" d="M 49.292969 62.945312 C 56.894531 62.945312 61.59375 66.519531 62.015625 71.371094 L 55.429688 71.371094 C 55.039062 69.714844 53.183594 68.242188 49.320312 68.242188 C 43.753906 68.242188 42.261719 71.519531 42.261719 74.472656 C 42.261719 77.425781 43.671875 80.761719 50.074219 80.761719 C 52.980469 80.761719 54.804688 80.28125 56.78125 79.4375 L 56.78125 77.390625 L 49.203125 77.390625 L 49.203125 73.328125 L 62.015625 73.328125 L 62.015625 82.507812 C 57.613281 84.964844 53.960938 85.636719 49.742188 85.636719 C 41.332031 85.636719 35.765625 81.636719 35.765625 74.261719 C 35.765625 66.949219 41.242188 62.945312 49.292969 62.945312 Z M 49.292969 62.945312 " fill-opacity="1" fill-rule="nonzero"/><path fill="#ffffff" d="M 87.007812 76.8125 L 87.007812 85.035156 L 81.816406 85.035156 L 81.816406 82.953125 C 78.835938 84.546875 75.507812 85.382812 72.128906 85.378906 C 67.664062 85.378906 64.679688 83.917969 64.679688 80.132812 C 64.679688 75.804688 69.359375 74.585938 74.066406 74.585938 C 76.679688 74.609375 79.277344 74.933594 81.816406 75.5625 C 81.652344 72.746094 78.703125 72.234375 76.058594 72.234375 C 73.410156 72.234375 70.722656 72.585938 66.992188 73.558594 L 65.996094 69.886719 C 69.414062 69.023438 72.9375 68.425781 76.917969 68.425781 C 83.644531 68.425781 86.953125 70.625 87.007812 76.8125 Z M 81.816406 80.21875 L 81.816406 78.839844 C 79.488281 78.316406 77.109375 78.042969 74.722656 78.027344 C 71.683594 78.027344 70.148438 78.542969 70.148438 79.867188 C 70.148438 81.195312 71.351562 81.578125 73.878906 81.578125 C 76.03125 81.578125 79.636719 80.816406 81.816406 80.21875 Z M 81.816406 80.21875 " fill-opacity="1" fill-rule="nonzero"/><path fill="#ffffff" d="M 124.210938 76.1875 L 124.210938 85.035156 L 119.046875 85.035156 L 119.046875 76.921875 C 119.046875 74.015625 117.753906 72.808594 114.742188 72.808594 C 112.105469 72.808594 109.628906 74.109375 109.628906 77.28125 L 109.628906 85.042969 L 104.464844 85.042969 L 104.464844 76.921875 C 104.464844 74.015625 103.175781 72.808594 100.164062 72.808594 C 97.496094 72.808594 95.050781 74.109375 95.050781 77.28125 L 95.050781 85.042969 L 89.855469 85.042969 L 89.855469 68.964844 L 95.050781 68.964844 L 95.050781 71.945312 C 96.796875 69.75 99.140625 68.425781 102.367188 68.425781 C 105.460938 68.425781 108.015625 69.671875 109.09375 72.671875 C 110.898438 70.046875 113.371094 68.425781 116.949219 68.425781 C 121.066406 68.425781 124.183594 70.625 124.210938 76.1875 Z M 124.210938 76.1875 " fill-opacity="1" fill-rule="nonzero"/><g clip-path="url(#78f3365870)"><path fill="#ffffff" d="M 148.882812 76.8125 L 148.882812 85.035156 L 143.691406 85.035156 L 143.691406 82.953125 C 140.707031 84.546875 137.382812 85.382812 134.003906 85.378906 C 129.539062 85.378906 126.554688 83.917969 126.554688 80.132812 C 126.554688 75.804688 131.222656 74.585938 135.941406 74.585938 C 138.554688 74.609375 141.152344 74.933594 143.691406 75.5625 C 143.527344 72.746094 140.578125 72.234375 137.933594 72.234375 C 135.285156 72.234375 132.597656 72.585938 128.867188 73.558594 L 127.871094 69.886719 C 131.4375 68.9375 135.105469 68.449219 138.792969 68.425781 C 145.519531 68.425781 148.828125 70.625 148.882812 76.8125 Z M 143.691406 80.21875 L 143.691406 78.839844 C 141.355469 78.316406 138.96875 78.042969 136.574219 78.027344 C 133.535156 78.027344 132.003906 78.542969 132.003906 79.867188 C 132.003906 81.195312 133.226562 81.578125 135.753906 81.578125 C 137.90625 81.578125 141.507812 80.816406 143.691406 80.21875 Z M 143.691406 80.21875 " fill-opacity="1" fill-rule="nonzero"/></g></svg>
