<?xml version="1.0"?>
<svg xmlns="http://www.w3.org/2000/svg" viewBox="0 0 355.92 108.12" width="120" height="35"><defs><style>.cls-1{fill:#b8b8b7;}.cls-2{fill:#adadac;}.cls-3{fill:#818181;}.cls-4{fill:#9c9c9b;}.cls-5{fill:#a1a1a1;}.cls-6{fill:#3e3e3e;}.cls-7{fill:#cacaca;}.cls-8{fill:#8c8c8c;}.cls-9{fill:#afafaf;}.cls-10{fill:#e6e6e6;}.cls-11{fill:#7e7e7e;}.cls-12{fill:#828282;}.cls-13{fill:#686868;}.cls-14{fill:#989897;}.cls-15{fill:#dcdbdc;}.cls-16{fill:#b8b8b8;}.cls-17{fill:#d2d2d2;}.cls-18{fill:#b0b0b0;}.cls-19{fill:#acacac;}.cls-20{fill:#bfbfbe;}.cls-21{fill:#c1c1c1;}.cls-22{fill:#a0a0a0;}.cls-23{fill:#a8a8a8;}.cls-24{fill:#a5a5a4;}.cls-25{fill:#8e8e8e;}.cls-26{fill:#a7a7a6;}.cls-27{fill:#888887;}.cls-28{fill:#797878;}.cls-29{fill:#bbbbbc;}.cls-30{fill:#585857;}.cls-31{fill:#696968;}.cls-32{fill:#e8e8e7;}.cls-33{fill:#969695;}.cls-34{fill:#4f4f4e;}.cls-35{fill:#959595;}.cls-36{fill:#7e7e7d;}.cls-37{fill:#464646;}.cls-38{fill:#474747;}.cls-39{fill:#888;}.cls-40{fill:#717171;}.cls-41{fill:#b8b8b9;}.cls-42{fill:#ccc;}.cls-43{fill:#a5a5a5;}.cls-44{fill:gray;}.cls-45{fill:#797979;}.cls-46{fill:#b9b9b9;}.cls-47{fill:#9a9a9a;}.cls-48{fill:#bdbdbd;}.cls-49{fill:#919191;}.cls-50{fill:#8f8f8f;}.cls-51{fill:#5c5c5c;}.cls-52{fill:#848484;}.cls-53{fill:#c9c9c9;}.cls-54{fill:#b1b1b1;}.cls-55{fill:#919090;}.cls-56{fill:#a3a3a3;}.cls-57{fill:#c3c3c3;}.cls-58{fill:#6d6d6d;}.cls-59{fill:#b4b4b4;}.cls-60{fill:#a8a8a7;}.cls-61{fill:#a2a2a2;}.cls-62{fill:#a6a6a6;}.cls-63{fill:#dddcdd;}.cls-64{fill:#b6b6b6;}.cls-65{fill:#c9c9ca;}.cls-66{fill:#b7b7b7;}.cls-67{fill:#5b5b5b;}.cls-68{fill:#c6c6c6;}.cls-69{fill:#aeadad;}.cls-70{fill:#8d8d8c;}.cls-71{fill:#666;}.cls-72{fill:#cdcdcd;}.cls-73{fill:#cecece;}.cls-74{fill:#949393;}.cls-75{fill:#999;}.cls-76{fill:#b3b3b3;}.cls-77{fill:#bababa;}.cls-78{fill:#777;}.cls-79{fill:#fdfdfd;}.cls-80{fill:#c0c0bf;}.cls-81{fill:#666665;}.cls-82{fill:#797978;}.cls-83{fill:#979797;}.cls-84{fill:#9b9b9b;}.cls-85{fill:#acacab;}.cls-86{fill:#7c7c7c;}.cls-87{fill:#7a7a7a;}.cls-88{fill:#494948;}.cls-89{fill:#60605f;}.cls-90{fill:#e3e2e2;}.cls-91{fill:#ebebea;}.cls-92{fill:#a4a4a3;}.cls-93{fill:#a7a7a7;}.cls-94{fill:#a1a1a0;}.cls-95{fill:#80807f;}.cls-96{fill:#6d6d6c;}.cls-97{fill:#767676;}.cls-98{fill:#787777;}.cls-99{fill:#e2e2e2;}.cls-100{fill:#bbb;}.cls-101{fill:#cbcbcb;}.cls-102{fill:#adadad;}.cls-103{fill:#b3b2b2;}.cls-104{fill:#aaa;}.cls-105{fill:#868685;}.cls-106{fill:#4f4f4f;}.cls-107{fill:#969595;}.cls-108{fill:#8e8e8d;}.cls-109{fill:#8c8c8b;}.cls-110{fill:#727272;}.cls-111{fill:#737373;}.cls-112{fill:#676767;}.cls-113{fill:#565656;}.cls-114{fill:#404040;}.cls-115{fill:#5e5e5d;}.cls-116{fill:#50504f;}.cls-117{fill:#5d5d5d;}.cls-118{fill:#555554;}.cls-119{fill:#555;}.cls-120{fill:#707070;}.cls-121{fill:#616161;}.cls-122{fill:#909090;}.cls-123{fill:#858584;}.cls-124{fill:#9b9b9a;}.cls-125{fill:#434343;}.cls-126{fill:#4a4a4a;}.cls-127{fill:#454545;}.cls-128{fill:#535353;}.cls-129{fill:#646464;}.cls-130{fill:#535252;}.cls-131{fill:#696969;}.cls-132{fill:#626262;}.cls-133{fill:#545353;}.cls-134{fill:#5f5f5f;}.cls-135{fill:#4d4d4d;}.cls-136{fill:#585757;}.cls-137{fill:#7f7f7f;}.cls-138{fill:#4e4e4d;}.cls-139{fill:#6e6e6e;}.cls-140{fill:#4b4b4b;}.cls-141{fill:#444;}.cls-142{fill:#656565;}.cls-143{fill:#7c7c7b;}.cls-144{fill:#525251;}.cls-145{fill:#6f6f6f;}.cls-146{fill:#6c6c6b;}.cls-147{fill:#757575;}.cls-148{fill:#575757;}</style></defs><title>Games global 3</title><g id="&#x421;&#x43B;&#x43E;&#x439;_2" data-name="&#x421;&#x43B;&#x43E;&#x439; 2"><g id="&#x421;&#x43B;&#x43E;&#x439;_1-2" data-name="&#x421;&#x43B;&#x43E;&#x439; 1"><path class="cls-1" d="M36.73,31.06c.6.14.74.55.65,1.1l-.31.38a1.1,1.1,0,0,0,.83.48l1.33,2.18a.7.7,0,0,0,.38.9.83.83,0,0,1,.72,1.07.6.6,0,0,0,.44.88l.67,1.1v0l1.81,3a1.26,1.26,0,0,0,.17,1.5,3.59,3.59,0,0,1,.57,1.4,4.29,4.29,0,0,0,.57.71s.06.42.06.42l.43,0,.42-.06a14,14,0,0,1,2.87,5l-.29.39a1.25,1.25,0,0,0,.82.48l2.42,4.15a.62.62,0,0,0,.45.88c.6.14.74.55.64,1.1-.44.5-.41-.28-.3.37.05.32.45.46.8.5l.66,1a2.86,2.86,0,0,1,.38.88,1.44,1.44,0,0,0,.66,1.21l.07-.12a4.15,4.15,0,0,1,.27,1.4l-.18.69-.61.35c-5.3-2.14-8.3-6.93-12.06-10.77a52.76,52.76,0,0,1-7-9c-.48-.76-.88-1.56-1.31-2.35-1.13-2.13-3-3.81-4-6-1.1-2-2.46-3.75-3.41-5.79-.81-2.36-3.1-4.33-1.91-7.69,5.55-.11,7,5.89,11.14,7.59A6.37,6.37,0,0,1,36.73,31.06Z"/><path class="cls-2" d="M35.49,31.13c-2.91.14-3.64-2.73-5.51-4-1.59-1.1-2.43-3.17-5-3.74-.14,2.77,1.72,4.61,2.48,6.79-.31.55-.57,1.16-1.31,1.28-2-.67-2.71-2.45-3.5-4.14-.2-.53-.37-1.08-.57-1.61-.15-.32-.29-.66-.43-1a14,14,0,0,0-.79-1.38,2.91,2.91,0,0,1-.61-2.06,1.59,1.59,0,0,0-.45-1.52,17.23,17.23,0,0,1-1.31-2.1c-.7-1.61-1.93-3.14-.54-5.51,4.42-1.23,6.75,2.29,9.52,4.83a15.55,15.55,0,0,1,1.34,1.4,3,3,0,0,0,1,.69l.69,1a2.21,2.21,0,0,1,.39.89c0,.32,0,.64,0,1,.05.53.48.8.78,1.16a2.85,2.85,0,0,0,.95,1,.81.81,0,0,1,.7,1.08l-.33.34a.56.56,0,0,0,.71.48l-.07-.12a3.2,3.2,0,0,0,.86,1.93,2.31,2.31,0,0,1,.39,1,3.89,3.89,0,0,0,.84,1.4A.79.79,0,0,1,35.49,31.13Z"/><path class="cls-3" d="M73.52,59.16c.25-1.8,2.14-3,1.89-5a4.86,4.86,0,0,1,.29-2.28c3.59-3.57,6-3.94,11-1.68a3.1,3.1,0,0,1,.37,1.42,6.35,6.35,0,0,1-.64,2c-.69,1.41-1.39,2.82-2.13,4.21-1.28,2-2.79,4-2.29,6.65-.43,2.21-1.34,4.07-3.64,4.89-1-.15-1.59-.82-1.39-1.66C77.85,64,75.67,61.62,73.52,59.16Z"/><path class="cls-4" d="M35.54,44.09c6,6.94,11.62,14.31,18.94,20a6.92,6.92,0,0,1,2.19,1.79c.29.48.26,1.08.6,1.55a10.06,10.06,0,0,1,.72.83,1.92,1.92,0,0,0,.73.79c.62.11.79.51.68,1.08-.44.5-.41-.29-.3.36.05.31.45.46.79.53l.65.93a2.68,2.68,0,0,1,.4.88,1.56,1.56,0,0,0,.64,1.24l0-.14a3.42,3.42,0,0,1,.32,1.38l-.17.69-.61.36C55.66,74,52.56,68.89,48.41,65c-.62-.83-1.11-1.74-1.75-2.56-.26-.28-.5-.59-.74-.88s-.51-.55-.76-.82l-.38-.41a7,7,0,0,1-.68-.86,10.55,10.55,0,0,1-.54-.93c-.2-.3-.38-.6-.58-.89l-.33-.42a8.61,8.61,0,0,1-.65-.88c-.21-.31-.39-.63-.58-.94s-.44-.61-.68-.91L40.35,54a11.39,11.39,0,0,1-.77-.91c-.81-1.17-1.54-2.41-3.06-2.8-1.67-1.4-3-2.93-2.63-5.35C34.22,44.28,34.65,43.76,35.54,44.09Z"/><path class="cls-5" d="M97.39,17.16q-32.3-.16-64.6-.3c-1.24,0-2.75-.42-3.38,1.29l-.57.4-.6-.35a2.26,2.26,0,0,1-.35-1.31,2.27,2.27,0,0,1,.7-1.18,29.42,29.42,0,0,1,4-1.35A9.5,9.5,0,0,1,34,14a69.62,69.62,0,0,1,7.1-.25c3.7,0,7.41-.34,11.1.31,3.33,1.11,6.78.56,10.17.68,2.3.08,4.59-.09,6.89,0,1.45,0,2.89,0,4.34,0,2.34-.09,4.68.1,7,0,3.87,0,7.74-.19,11.61,0,1.93,0,3.93-.24,5.57,1C98.61,16.36,98.74,17.09,97.39,17.16Z"/><path class="cls-6" d="M60.48,104.14a35.06,35.06,0,0,1-4.84-8.08.6.6,0,0,0-.32-.9l-.73-1.08c-.47-3.46-2.87-6-4.26-9.05-.24-.37-.46-.75-.66-1.14-.22-.61-.53-1.19-.72-1.81a3.12,3.12,0,0,1,0-1.27,2,2,0,0,1,.83-.91l.62-.06a3,3,0,0,1,1.06.61,4.65,4.65,0,0,1,.71,1c.29.51.55,1,.83,1.57.21.34.41.68.61,1,.36.51.77,1,1.18,1.45,3.37,4.15,4.86,9.52,8.72,13.3a1.19,1.19,0,0,0,.94-.2,8.44,8.44,0,0,0,.61-.81c.26-.47.53-.94.8-1.4a3.35,3.35,0,0,1,1.65-1.51c.95,0,1.37.57,1.53,1.41a3.67,3.67,0,0,1-.15,1.12c-.16.53-.36,1-.53,1.57a10,10,0,0,1-.43,1l-.22.5c-.15.33-.31.66-.48,1s-.36.65-.51,1a5.24,5.24,0,0,1-1.06,1.37,7.15,7.15,0,0,1-1,.73,3.73,3.73,0,0,1-1.2.29A10.8,10.8,0,0,1,60.48,104.14Z"/><path class="cls-7" d="M97.39,17.16c-1.2-2.27-3.46-.47-5-1.3-2-2-5.68-1.17-7.2-4.09a1.43,1.43,0,0,1,.74-1.25,8.36,8.36,0,0,1,5.46-.3c2.35.81,4.93.48,7.25,1.47,3.83,1.64,7,3.75,6.79,8.6a16.94,16.94,0,0,1-1.86,4.94,3.89,3.89,0,0,1-1.05,1,1.32,1.32,0,0,1-1.29-.2c-.94-1.27-.27-2.85-.82-4.2-.53-1.62-2.32-2.23-3-3.73Q97.37,17.63,97.39,17.16Z"/><path class="cls-8" d="M12.47.29h6c2.35,2.08,5.21,1.5,8,1.56,1.79,0,3.61-.18,5.36.45,1,.54,2.13.27,3.45.44a22.34,22.34,0,0,1-2.64-.3,1.17,1.17,0,0,1-.31-1.38,2.3,2.3,0,0,1,1.53-.4C38.69.73,43.53.5,48.37.77c.85.41,1.87.63,2.11,2.18-3.6,3.1-8.44.49-12.34,2.29a158.26,158.26,0,0,1-24.3,0C11.21,4.18,11.5,2.33,12.47.29Z"/><path class="cls-9" d="M68.4,68a8.41,8.41,0,0,1,2.22-3.88c4.37-1,5.21,2.12,5.87,5.25.38,1.79-.61,3.55-.41,5.37a3.67,3.67,0,0,1-1.91,3.06,9.31,9.31,0,0,1-1.3.66c-1.34.59-2.59,1.54-4.41,1-1.74-.94-3.48-2.15-4.1-4.43a7.3,7.3,0,0,1,2.16-3.9c1.69.67,2.37,3.13,4.91,2.88C71.6,71.28,68.59,70.34,68.4,68Z"/><path class="cls-10" d="M94.46,23.07l.42-.95a1.17,1.17,0,0,1,.65-.87l0-.07c4.87,1.36,6.74,5.77,4.78,11.27a25.58,25.58,0,0,1-7-.07c-2.48-1.44-1.74-3.51-1.11-5.57l1.44-2.69A5.44,5.44,0,0,1,94.46,23.07Z"/><path class="cls-11" d="M57.48,38.16l34,.07c0,1.56-1.23,1.77-2.34,2.1-3.11.32-6.24.12-9.35.19l-4.78,0c-2.15.17-4.16-.58-6.42-1.05.83.44,2.06.11,1.94,1.44-1.8,2.27-4.51,1-6.7,1.76a3.13,3.13,0,0,0-1,2,3.88,3.88,0,0,1-1.68,2.62c-1.45-.1-1.63-1.43-2.25-2.32C58.53,42.65,57,40.63,57.48,38.16Z"/><path class="cls-12" d="M32.48,3.13H19.54L18.5.29l41,0c-.22,2-1.86,1.87-3.22,2.18a16.08,16.08,0,0,1-7.55-1.1L32.53,1.23c-1.5.84-3.13.1-4.38.43,1.23.26,2.88-.48,4.34.48h0q.49.33.32.66T32.48,3.13Z"/><path class="cls-13" d="M124.31,4a5.57,5.57,0,0,1-1.8,3.13c-.72,0-.68.68-1,1l.05-.07c-.43.41-.73,1-1.31,1.2a1.59,1.59,0,0,1-1.09-.42A7.56,7.56,0,0,1,118,6.2a3.77,3.77,0,0,0-.62-1.54c-1.31-.63-2.89-.3-4.1-1.22a2.81,2.81,0,0,1-.83-3.18c4.29.19,8.7-1.21,12.83,1a.55.55,0,0,0,.09.86l-.77,1.06A.61.61,0,0,0,124.31,4Z"/><path class="cls-14" d="M75.21,75.07a2.32,2.32,0,0,1-.35-2.72c1.66-4.32-.16-6.84-4.24-8.19l1-2q.41-.56.77-1.16a1.11,1.11,0,0,1,.35-.84,2.35,2.35,0,0,1,.74-1v0c6.16,1.1,4.36,6.1,4.9,10,.42.62.11,1.05-.38,1.43a1.49,1.49,0,0,1-1-.06,4.7,4.7,0,0,1,.7.68,2.73,2.73,0,0,1-.63,2.1q-.46.69-1,1.35A1.16,1.16,0,0,1,75.21,75.07Z"/><path class="cls-15" d="M72.49.29h11C86.13,3,83.22,3.74,81.77,5a32.89,32.89,0,0,1-12.12.11,3.28,3.28,0,0,1-1.25-.79C68.24,1.45,71.81,2.32,72.49.29Z"/><path class="cls-16" d="M82.58,4c-.48-1.43,2.32-2.08.9-3.75h9c4.34,2.43,4.34,2.43,3,4.74C91.1,5.58,86.68,6.79,82.58,4Z"/><path class="cls-17" d="M100.41,32c-.79-4-.29-8.5-4.85-10.77a4.7,4.7,0,0,1,1.82-3.09c2.27.09,3.37,1.79,4.75,3.43l-.61,4.67a8.09,8.09,0,0,1,2,5.8C102.4,32.81,101.39,32.95,100.41,32Z"/><path class="cls-18" d="M5.78,10a.91.91,0,0,1-.33-.82,8.44,8.44,0,0,1-.77-1.07L0,.28H5.5c1.64,1.34,4.27,1.21,5.23,3.55-.41,1.11-1.53,1.31-2.38,1.86A2,2,0,0,0,7.26,7.44a6.79,6.79,0,0,1,0,1.15C7.06,9.37,6.88,10.17,5.78,10Z"/><path class="cls-19" d="M100.41,32h2.35c-.5-2-1.71-3.75-1.24-5.76l1,0,.43.3a6.84,6.84,0,0,1,.62.84,5.6,5.6,0,0,0,1,1.11,2.13,2.13,0,0,0,1.41.39,8.07,8.07,0,0,0,1-.33l.51-.25a4.58,4.58,0,0,1,1.11-.39l.61,0,.51.34a1.4,1.4,0,0,1-.18,1.17.9.9,0,0,1-.31.82q-.35.57-.73,1.11c-.37.51-.74,1.46-1.12,1.47-5.68.09-11.4,1.35-17-.57,1-1,2.14-.65,3.26-.17Z"/><path class="cls-20" d="M68.4,68l4.79,4.26c.35,2.45-.45,3.46-2.43,3.75-2.1-.92-3.86-2.27-4.25-4.87l0,0a2.73,2.73,0,0,0,.83-1.31.69.69,0,0,1,.31-.72q.39-.54.75-1.1Z"/><path class="cls-21" d="M97.48,38.17c2-.14,4.08-.86,6.08.35.33,2.43-1.55,3.81-2.43,5.61a1.68,1.68,0,0,1-.68.94v0c-3-.54-3.18-3.71-5.06-5C95.41,38.41,96.9,38.87,97.48,38.17Z"/><path class="cls-22" d="M64.35,75.09l5,4,3.16-1.89a3.36,3.36,0,0,1,.74,1.07,4.18,4.18,0,0,1,.11,1.3,2.18,2.18,0,0,1-1.48,2,25.14,25.14,0,0,0-3.18.57c-3.53-.6-6.19-2.27-7.23-5.91l0,0,.6-.52.64.48Z"/><path class="cls-23" d="M97.48,38.17l-1.4,1.72c2.5.88,3,3.34,4.36,5.22l-.62,1.14a1.18,1.18,0,0,1-1.17.3c-1-.57-1.23-1.66-1.87-2.47a6.11,6.11,0,0,0-2.67-1.32,21.28,21.28,0,0,1-3.75-1.18c-.73-.64-1.36-1.32-.83-2.4a2.05,2.05,0,0,0,2-1Z"/><path class="cls-24" d="M96.53,4c-1.68-.87-3.41-1.68-4-3.7h6c1.74,1.24,3.87,1.55,5.77,2.42a1.3,1.3,0,0,1,.46,1.36,2.71,2.71,0,0,1-1.24,1C101,5.49,98.58,6.09,96.53,4Z"/><path class="cls-25" d="M11.62,20.15l-4-7c.23-.63.54-1.18,1.3-1.27,1.61.46,2.26,2,3.32,3a12.28,12.28,0,0,1,2.09,4c.19.56.36,1.13.56,1.69.16.34.29.7.43,1,.24.51.48,1,.68,1.57a3.32,3.32,0,0,1,.12,1.15,2.26,2.26,0,0,1-.53,1,.89.89,0,0,1-1-.25l-1.08-1.95a4.47,4.47,0,0,1-.73-1,1.07,1.07,0,0,1-.33-.84A5.71,5.71,0,0,0,11.62,20.15Z"/><path class="cls-26" d="M10.5,4C8.74,2.88,6,3.05,5.5.28h7c1,1.18.09,2.4.07,3.6A1.24,1.24,0,0,1,10.5,4Z"/><path class="cls-27" d="M57.48,38.16a8.35,8.35,0,0,1,2,7,.8.8,0,0,1,.31.7q0,.4-.15.4a.73.73,0,0,1-1.07-.11L55.4,40.37a3.59,3.59,0,0,0-.8-1.22C55,37.12,56.42,38.21,57.48,38.16Z"/><path class="cls-28" d="M23.8,41.19a1.1,1.1,0,0,1-.38-.87,6.05,6.05,0,0,0-.79-1.16l-4-7.07c.53-.62.21-1.74,1.23-2.07,1.25.09,1.67,1.1,2.2,2,.27.5.51,1,.75,1.54a9.89,9.89,0,0,1,.44,1c.21.46.42.92.66,1.37a6.55,6.55,0,0,1,.42.89c.22.45.45.89.69,1.32a9.52,9.52,0,0,1,.45.94A7.78,7.78,0,0,1,26,40.57a2.53,2.53,0,0,1-.11,1.12c-.35.5-.74.88-1.38.43h0A2.53,2.53,0,0,1,23.8,41.19Z"/><path class="cls-29" d="M56.5,1.15c1.07-.08,2.2.07,3-.89h4c-.39,1.57,2.56,2.86.38,4.58a8.14,8.14,0,0,1-5.61.07A4.51,4.51,0,0,1,56.5,1.15Z"/><path class="cls-30" d="M42.52,73.12,37.69,65c.35-.51.21-1.12.37-1.68a1.16,1.16,0,0,1,1-.51c1,.36,1.51,1.3,2.17,2.06a12.65,12.65,0,0,1,1.11,1.56c.83,1.6,1.87,3.11,1.92,5C44,72.42,43.89,73.41,42.52,73.12Z"/><path class="cls-31" d="M32.52,56.15a.52.52,0,0,1-.16-.57,2.18,2.18,0,0,0-.89-1.43l-3-5a1.73,1.73,0,0,1,1.22-1.37A2.23,2.23,0,0,1,31,48a7.68,7.68,0,0,1,2.11,3c.26.52.5,1.06.74,1.6.18.34.34.69.5,1,.27.52.53,1.05.75,1.6a4.58,4.58,0,0,1,.23,1.2,3.83,3.83,0,0,1-.23,1.22l-.35.52-.57.27-.5-.39a1.07,1.07,0,0,1-.25-.75A3.05,3.05,0,0,0,32.52,56.15Z"/><path class="cls-32" d="M72.49.29c.95,4.16-2.35,2.35-4,2.86h-.53a5.14,5.14,0,0,1-1.52-.54,3.22,3.22,0,0,1-.81-.75A1.35,1.35,0,0,1,65.5.29Z"/><path class="cls-33" d="M64.53,54c-1.83-.15-2.49-1.49-3-3a1.27,1.27,0,0,1,0-2,2,2,0,0,1,1.17-.19c.8.17,1.59.36,2.39.57a6.78,6.78,0,0,1,1.2.47c1.19.89,3,1.41,2.15,3.53C67.21,54,65.74,53.19,64.53,54Z"/><path class="cls-34" d="M42.52,73.12a2.06,2.06,0,0,0,1-2c.33-.55.59-1.17,1.34-1.28,1.5.4,1.9,1.59,2.12,2.92a20.54,20.54,0,0,0,0,3.67,2.4,2.4,0,0,1-.4,1.17,2,2,0,0,1-1.09.57C43.88,76.84,43.33,74.9,42.52,73.12Z"/><path class="cls-35" d="M104.48,3.14h-4.09L98.49.28h5C104.79.9,105.49,1.72,104.48,3.14Z"/><path class="cls-36" d="M112.48.27l1,2.86c-1.37,1.41-3,1.28-4.62.68A2.84,2.84,0,0,1,107.49.28Z"/><path class="cls-37" d="M50.49,84.13c1.91,3.09,4.7,5.82,4.09,10l-1.1-1.94a7,7,0,0,1-.82-1,3,3,0,0,1-.22-.91,6.25,6.25,0,0,0-.88-1.11,2,2,0,0,1-.15-.81,3.53,3.53,0,0,0-.91-1.2h0a3.34,3.34,0,0,1-.76-.95l-.21-1.05A1.74,1.74,0,0,1,50.49,84.13Z"/><path class="cls-34" d="M50.49,84.13l-1,1a12.6,12.6,0,0,1-3.13-5.64,2.05,2.05,0,0,1,.07-2.31l0,0c3-.18,2.17,2.53,3,4q0,.49,0,1c.35.32.63.7,1,1Q50.48,83.64,50.49,84.13Z"/><path class="cls-38" d="M60.48,104.14c1.35-1.8,2.69.35,4,0A1,1,0,0,1,65,105a5.59,5.59,0,0,1-.13,1c-.24.43-.7.71-.88,1.2a1.8,1.8,0,0,1-.43.88A4.8,4.8,0,0,1,60.48,104.14Z"/><path class="cls-39" d="M107.49.28l1,2.84c-1.33,1.25-2.67,1-4,0h0l-1-2.85Z"/><path class="cls-40" d="M29.51,48.12l-1,1,0,0a2,2,0,0,1-.66-.9l-.38-1q-.42-.5-.8-1a1.09,1.09,0,0,1-.28-.77,3,3,0,0,0-.86-1.25l-1-2,1-1a.91.91,0,0,1,1.05-.25,6.1,6.1,0,0,1,1.58,2.41c.25.49.49,1,.74,1.47a10.45,10.45,0,0,1,.47,1,9,9,0,0,1,.6,1.5A.89.89,0,0,1,29.51,48.12Z"/><path class="cls-41" d="M93.66,32l-3.26.17c-1.2-2.42.74-3.74,1.87-5.34C92.52,28.61,92.25,30.53,93.66,32Z"/><path class="cls-42" d="M64.44,4,62.2,1.63,63.47.27h1a6.83,6.83,0,0,0,2,1.85h0c.53.61,1.45.43,2,1h0q0,.46,0,.91A2.58,2.58,0,0,1,64.44,4Z"/><path class="cls-43" d="M116.21,18l-2.76,5.13a1.77,1.77,0,0,1-1.07.5,1.5,1.5,0,0,1-1.1-.4l-.2-.58c0-.2,0-.4.07-.61a5.59,5.59,0,0,1,.57-1.06c.11-.17.22-.33.33-.5q.46-.77.89-1.55A5.79,5.79,0,0,1,114.43,17a1.62,1.62,0,0,1,1.18-.1A2,2,0,0,1,116.21,18Z"/><path class="cls-3" d="M62.47,49.15c-.8.39-.9,1.14-1,1.9a6.67,6.67,0,0,1-2.12-3.72.84.84,0,0,1,.08-1.2q0-.5,0-1l2,2,.45.14a1.91,1.91,0,0,1,.69.65l.17.44A.72.72,0,0,1,62.47,49.15Z"/><path class="cls-28" d="M115.61,17.23a3.78,3.78,0,0,0-1,.07l-.5-.4a2.7,2.7,0,0,1,.73-2.94,3.08,3.08,0,0,1,2.23-1.06,2,2,0,0,1,1.34,1.2c.19.57.07,1-.61,1-.16.3-1.15.18-.45.9a.8.8,0,0,1-.78,1.1A.61.61,0,0,1,115.61,17.23Z"/><path class="cls-44" d="M80.46,80.12c0,.6-.2,1-.89,1-.45.43-.74,1-1.19,1.42-.65.61-1.31,1.16-2.17.29a2.53,2.53,0,0,1-.17-1.94c.61-1.5,1.26-3,3.23-3A2.3,2.3,0,0,1,80.46,80.12Z"/><path class="cls-45" d="M75.39,89.07a5.15,5.15,0,0,1-1.87,3.11A2.16,2.16,0,0,1,72,90.87c-.31-1.78.15-3.17,2-3.87C75.15,87.22,74.83,88.43,75.39,89.07Z"/><path class="cls-12" d="M15.48,25.17l.05-1.07c.6-.39,1-.05,1.42.34a9.12,9.12,0,0,1,.91,1.36,10.3,10.3,0,0,1,.49,1c.18.32.33.65.48,1a4,4,0,0,1,.32,1.08A2.44,2.44,0,0,1,18.92,30l-.39.43a1,1,0,0,1-1-.26h0a2.64,2.64,0,0,1-.68-.94,1.09,1.09,0,0,1-.38-.89q-.37-.58-.78-1.13a.79.79,0,0,1-.31-.7A1.05,1.05,0,0,1,15.48,25.17Z"/><path class="cls-46" d="M64.53,54c1.06-1.41,2.65-.66,4-1a2.24,2.24,0,0,1,2.73-.33.9.9,0,0,1,.4.8q0,.47-.16.47Z"/><path class="cls-47" d="M8.53,12.1l-.94,1L5.78,10l.74-1.92c1.1-.39,1.41.46,1.81,1.16A9.26,9.26,0,0,1,8.91,11,1.23,1.23,0,0,1,8.53,12.1Z"/><path class="cls-48" d="M76.59,83.24l2-1.12.32.31a5.49,5.49,0,0,1-.33.83,1.4,1.4,0,0,1-.34.8,4.08,4.08,0,0,1-.75,1.11,1.4,1.4,0,0,1-.33.83.9.9,0,0,1-.84.64,1.75,1.75,0,0,1-1-.55A1.82,1.82,0,0,1,75.19,85a3.78,3.78,0,0,1,.88-1.48Z"/><path class="cls-49" d="M83.31,75.07a5.07,5.07,0,0,1-1.82,3.08,1.75,1.75,0,0,1-1.3-.91,2.3,2.3,0,0,1,0-1.1,6,6,0,0,1,.71-1.52,2.52,2.52,0,0,1,.84-.73,1.47,1.47,0,0,1,1.08.16Q83,74.57,83.31,75.07Z"/><path class="cls-50" d="M97.5,43.15c1.15.73,1,1.93,1.06,3a8.52,8.52,0,0,1,.85.93.84.84,0,0,1-.72,1.08,1,1,0,0,1-1.15.3,2.6,2.6,0,0,1-.79-1,6,6,0,0,1-.2-2.63A3.81,3.81,0,0,1,97,43.58Z"/><path class="cls-51" d="M37.41,64.26l-1.92-3.13a1.55,1.55,0,0,1,1.43-1.28c1.49.64,2.23,1.63,1.57,3.29h0C38.11,63.52,38,64.11,37.41,64.26Z"/><path class="cls-52" d="M98.33,49.07a5.28,5.28,0,0,1-1.84,3.07,1.69,1.69,0,0,1-1.28-.89,2.23,2.23,0,0,1,0-1.07,8,8,0,0,1,.6-1.52,2.54,2.54,0,0,1,.71-.82.74.74,0,0,1,.92.29l.12,0A4.5,4.5,0,0,1,98.33,49.07Z"/><path class="cls-53" d="M67.62,100.2a2.08,2.08,0,0,1,0-.88c.46-.62.18-1.65,1.11-2v0a1.94,1.94,0,0,1,.92-1.42,1.33,1.33,0,0,1,1.11.22,1.27,1.27,0,0,1-.08,1.12l-.31.79a11.44,11.44,0,0,1-.78,1.17l-1,1A.56.56,0,0,1,67.62,100.2Z"/><path class="cls-54" d="M71.47,54q0-.38,0-.76a2.53,2.53,0,0,1,1.27-.95,3.53,3.53,0,0,1,3.71.94l-1,1Z"/><path class="cls-50" d="M94.28,56.07,93,58.22a1.65,1.65,0,0,1-1.35.24c-1.14-1.64-.17-2.63,1.09-3.53C93.65,54.81,94,55.33,94.28,56.07Z"/><path class="cls-55" d="M86.26,70.06,85,72.21a1.1,1.1,0,0,1-1.18.19c-1-1-.4-2,.15-2.92A2.24,2.24,0,0,1,85,68.84C85.77,68.89,86,69.44,86.26,70.06Z"/><path class="cls-56" d="M64.55,105.19l0-1h0a3.49,3.49,0,0,0,.76-1l1.19-1.07a1.43,1.43,0,0,1,.82,1L66,105.19A.88.88,0,0,1,64.55,105.19Z"/><path class="cls-57" d="M57,66.17a3.24,3.24,0,0,1-2.5-2l.05,0q.54-.8,1.17-.06l1.42,2.09Z"/><path class="cls-58" d="M36.48,60.14l-1,1h0a3.69,3.69,0,0,1-.75-1,1.49,1.49,0,0,1-.3-.9.7.7,0,0,1-.21-.74q.13-.36.26-.36h0l.57-.41.69.14a3.11,3.11,0,0,1,1,1A1.24,1.24,0,0,1,36.48,60.14Z"/><path class="cls-25" d="M90.26,63.09,89,65.22a1.27,1.27,0,0,1-1.21.18c-.84-.82-.42-1.55.14-2.29a2.38,2.38,0,0,1,1.17-.53A1.69,1.69,0,0,1,90.26,63.09Z"/><path class="cls-57" d="M111.6,23.21a7.69,7.69,0,0,0,1-.06.87.87,0,0,1,0,1.11,1.79,1.79,0,0,1-.32.8,4.79,4.79,0,0,1-.76,1.12l-.07-.06c-.93.43-1.22-.18-1.45-.89A1.87,1.87,0,0,1,111.6,23.21Z"/><path class="cls-59" d="M80.49,77.15l1,1a1.38,1.38,0,0,1-.32.89,2.28,2.28,0,0,1-.69,1.08h0c-1-.34-.92-1.16-.89-2A1.65,1.65,0,0,1,80.49,77.15Z"/><path class="cls-1" d="M34.72,28.25a1.94,1.94,0,0,1-1-2.39l1.45,2.31Z"/><path class="cls-60" d="M87.61,65.22H89l-1.35,2a.76.76,0,0,1-1,.13,1.55,1.55,0,0,1-.41-1.11,2.07,2.07,0,0,1,.8-.91Z"/><path class="cls-61" d="M110.46,25.12l1,1c.09.56-.07,1-.68,1.09a1.16,1.16,0,0,1-1.15.29l-.48-.43a2.34,2.34,0,0,1-.13-1.25C109.3,25.22,109.69,24.78,110.46,25.12Z"/><path class="cls-62" d="M91.58,58.2l1.44,0-1.36,2a1,1,0,0,1-1.24.1C90,59.16,90.54,58.54,91.58,58.2Z"/><path class="cls-63" d="M66.49,2.13a1.75,1.75,0,0,1-2-1.85h1Z"/><path class="cls-60" d="M95.53,51.22l1,.93-.82,1.06a.73.73,0,0,1-1,.16,1.59,1.59,0,0,1-.45-1.08A1.53,1.53,0,0,1,95.53,51.22Z"/><path class="cls-57" d="M72.44,91.05l1.08,1.12-.9,1a.74.74,0,0,1-1,.12,1.57,1.57,0,0,1-.42-1.08,2.24,2.24,0,0,1,.69-1Z"/><path class="cls-64" d="M86.26,70.06l-.8-.94-.32-.57.29-.59.63-.2.6.29a1.24,1.24,0,0,1,0,1.24A1.71,1.71,0,0,1,86.26,70.06Z"/><path class="cls-60" d="M121.51,8.21l.14-1.43.85.38Z"/><path class="cls-65" d="M57,66.17l.14,0,.42.9q.38.39.22.73t-.3.33C56.69,67.62,56.34,67,57,66.17Z"/><path class="cls-66" d="M83.31,75.07l-.87-1-.3-.59.31-.59.64-.19.59.32a1.32,1.32,0,0,1,0,1.25A1.2,1.2,0,0,1,83.31,75.07Z"/><path class="cls-21" d="M119.56,12.22c-.14.5-.22,1.07-1,.93l-.49-.31a2.11,2.11,0,0,1-.15-1.14,1.55,1.55,0,0,1,.72-.87l.59,0,.49.33A1.09,1.09,0,0,1,119.56,12.22Z"/><path class="cls-18" d="M94.28,56.07l-.81-.94a.86.86,0,0,1-.24-.77q.09-.4.19-.4l.64-.2.6.3a1.28,1.28,0,0,1,0,1.26A1.08,1.08,0,0,1,94.28,56.07Z"/><path class="cls-67" d="M46.46,77.16l-.07,2.31-.93-1.3Z"/><path class="cls-68" d="M119.73,9.31a.94.94,0,0,0,.77-.16l.41.21a3.5,3.5,0,0,1-.27.88,2.47,2.47,0,0,1-.29.8q-.4.58-.88.06l0,0a1.29,1.29,0,0,1-.59-.79,1.78,1.78,0,0,1,.3-1Z"/><path class="cls-69" d="M90.26,63.09h-.37l-.36.06a1.42,1.42,0,0,1-.5-1.21,1.87,1.87,0,0,1,.86-1l.69.11a1.12,1.12,0,0,1,.08,1.28A1.84,1.84,0,0,1,90.26,63.09Z"/><path class="cls-70" d="M19.48,30.14a2.06,2.06,0,0,1-.88,1.95.78.78,0,0,1-.26-.69,1,1,0,0,1,.15-1.27h0l.5-.38Z"/><path class="cls-71" d="M37.41,64.26l1.06-1.11L37.69,65A1.38,1.38,0,0,1,37.41,64.26Z"/><path class="cls-1" d="M31.64,23.18l-1.13-1.07c.35-.45.7-.47,1.05,0l.71,1Z"/><path class="cls-68" d="M75.39,89.07c-1-.31-.78-1.19-.87-1.91l.42-.37.56,0,.38.41a2.64,2.64,0,0,1-.19,1.08A2.61,2.61,0,0,1,75.39,89.07Z"/><path class="cls-1" d="M35.53,30.15l-1-1a.65.65,0,0,1,1.07,0l.72,1Q35.91,30.73,35.53,30.15Z"/><path class="cls-72" d="M44.49,46.14a2,2,0,0,1-1-2l.44-.38.42.41a.57.57,0,0,1,.3.64A1,1,0,0,1,44.49,46.14Z"/><path class="cls-53" d="M71.64,95.28q-.1.4-.22.79a.56.56,0,0,1-1,0l.07.06a1.47,1.47,0,0,1-.5-1.74,1.39,1.39,0,0,1,1-.7l.59.3A1.21,1.21,0,0,1,71.64,95.28Z"/><path class="cls-73" d="M67.27,103.06l-.82-1q.06-.41.11-.82l.44-.5.62.25a1.27,1.27,0,0,1,.1,1.24A3.54,3.54,0,0,1,67.27,103.06Z"/><path class="cls-72" d="M43.49,44.13c-1-.54-1.1-1.18-.22-1.93a.77.77,0,0,1,.29.77.82.82,0,0,1-.08,1.16Z"/><path class="cls-53" d="M63.64,107.18a.78.78,0,0,1,.63-1.09.67.67,0,0,1,1.08,0,.79.79,0,0,1-.72,1.06A.67.67,0,0,1,63.64,107.18Z"/><path class="cls-31" d="M25.53,44.15l.86,1.25Z"/><path class="cls-23" d="M100.45,45.07l.68-.94Z"/><path class="cls-1" d="M44.49,46.14l.17-1.34.83,1.34-.33.23a1.12,1.12,0,0,1-.68-.23Z"/><path class="cls-31" d="M26.67,46.16l.8,1Z"/><path class="cls-11" d="M59.48,46.13l-.08,1.2-.82-1.2Z"/><path class="cls-74" d="M125.4,2.09a4.91,4.91,0,0,1-.41-.59s.2-.18.31-.27A.59.59,0,0,1,125.4,2.09Z"/><path class="cls-75" d="M124.31,4l-.38-.58.71-.3A2.57,2.57,0,0,1,124.31,4Z"/><path class="cls-76" d="M99.41,47.11l-.85-.93,1.25.07A1.43,1.43,0,0,1,99.41,47.11Z"/><path class="cls-31" d="M27.84,48.19l.66.9Z"/><path class="cls-47" d="M4.69,8.13,5.46,9.2Z"/><path class="cls-77" d="M120.5,9.15l1.07-1a1.61,1.61,0,0,1-.14,1,.59.59,0,0,1-1,0Z"/><path class="cls-18" d="M98.33,49.07l-.81-.92,1.18,0A1.88,1.88,0,0,1,98.33,49.07Z"/><path class="cls-13" d="M120.45,9.12a2.66,2.66,0,0,0,1,0,1,1,0,0,1-.79,1.15Z"/><path class="cls-72" d="M48.89,52l-.78-.19.25-.67Z"/><path class="cls-78" d="M119.46,11.11l.88-.06-.78,1.17Z"/><path class="cls-79" d="M118.43,14.09l-.82-.82.4-.48.47.42.11-.06A1.8,1.8,0,0,1,118.43,14.09Z"/><path class="cls-79" d="M117.38,16c-1.2-1,.68-.42.45-.9Z"/><path class="cls-79" d="M115.61,17.23a5.24,5.24,0,0,1,1-.09,3.08,3.08,0,0,1-.39.85A4.15,4.15,0,0,1,115.61,17.23Z"/><path class="cls-69" d="M94.64,53.2h1a1.4,1.4,0,0,1-.25.9.58.58,0,0,1-1,0l0,0-.37-.54Z"/><path class="cls-80" d="M28.47,18.13l.94,0a2,2,0,0,1,.44.88l-1.35.11q-.43-.32-.3-.66T28.47,18.13Z"/><path class="cls-81" d="M31.47,54.14l.89,1.43Z"/><path class="cls-12" d="M11.62,20.15l.8,1.17Z"/><path class="cls-82" d="M94.46,54.12a4.82,4.82,0,0,0,1,0l-.78,1.2Z"/><path class="cls-81" d="M32.52,56.15l.88,1.24Z"/><path class="cls-72" d="M51.75,57.06a7.79,7.79,0,0,1-.69-.5,2.76,2.76,0,0,1,.24-.38Z"/><path class="cls-81" d="M34.48,58.15l0,1.1-.78-1.11Z"/><path class="cls-83" d="M30.5,21.27l0-1.24.73,1.18-.36.33Z"/><path class="cls-68" d="M52.89,59l-.78-.2.28-.67Z"/><path class="cls-68" d="M30.5,21.27l.77-.07a1,1,0,0,1,.3.91H30.51Q30.49,21.69,30.5,21.27Z"/><path class="cls-17" d="M95.53,21.26l-.65.87Z"/><path class="cls-3" d="M73.5,59.18l-.74,1Z"/><path class="cls-51" d="M34.74,60.14l.75,1Z"/><path class="cls-12" d="M12.74,22.16l.73,1Z"/><path class="cls-84" d="M53.51,61.28l0-1.27.74,1.19-.37.28Z"/><path class="cls-85" d="M90.69,60.16l1,0a1.7,1.7,0,0,1-.21.92.63.63,0,0,1-1,0l.05,0A.59.59,0,0,1,90.69,60.16Z"/><path class="cls-72" d="M53.51,61.28l.78-.08a1.25,1.25,0,0,1,.3.9Z"/><path class="cls-3" d="M72.41,61l-.77,1.16Z"/><path class="cls-81" d="M90.46,61.12h1l-.8,1.17Z"/><path class="cls-84" d="M54.48,63.15,54.66,62l.73,1.19A.54.54,0,0,1,54.48,63.15Z"/><path class="cls-53" d="M54.48,63.15a7,7,0,0,1,.91,0,1.39,1.39,0,0,1,.3.9l-1.17.06Q54.49,63.64,54.48,63.15Z"/><path class="cls-68" d="M31.64,23.18a5.55,5.55,0,0,0,.63,0l.43.92Z"/><path class="cls-17" d="M94.46,23.07l-.74,1.06Z"/><path class="cls-86" d="M112.6,24.26q0-.56,0-1.11a2.94,2.94,0,0,0,.89,0Z"/><path class="cls-87" d="M15.48,25.17l-.15,1.29-.79-1.33Z"/><path class="cls-57" d="M33.79,26,33,25.78l.38-.62A1,1,0,0,1,33.79,26Z"/><path class="cls-84" d="M57.46,68.11l.08-1.06.77,1.14-.4.26-.39-.28Z"/><path class="cls-76" d="M86.69,67.21h1a1.67,1.67,0,0,1-.2.92.62.62,0,0,1-1,0l.06.06a.58.58,0,0,1-.33-.81Z"/><path class="cls-72" d="M57.52,68.17a2.28,2.28,0,0,0,.79,0l.41.9Z"/><path class="cls-9" d="M68.41,68l-.75,1.1Z"/><path class="cls-86" d="M111.51,26.17l.76-1.12Z"/><path class="cls-13" d="M86.46,68.12h1l-.8,1.16Z"/><path class="cls-87" d="M15.65,27.16l.78,1.13Z"/><path class="cls-68" d="M59.88,71.07l-.79-.23.31-.67Z"/><path class="cls-9" d="M67.35,69.85l-.83,1.31Z"/><path class="cls-84" d="M60.55,73.27l0-1.26.71,1.2Z"/><path class="cls-59" d="M83.47,72.13l1.49.08-.52.91a.61.61,0,0,1-1,0l0,0-.42-.51Z"/><path class="cls-65" d="M60.55,73.27a2.33,2.33,0,0,0,.69-.06,1.32,1.32,0,0,1,.33.91Z"/><path class="cls-12" d="M83.46,73.12a5.21,5.21,0,0,0,1,0l-.81,1.2Z"/><path class="cls-84" d="M61.5,75.18l.12-1.2.72,1.2A.49.49,0,0,1,61.5,75.18Z"/><path class="cls-68" d="M109.5,27.16l1.26.05a2,2,0,0,1-.42.9c-.28.35-.56.34-.85,0h0a.59.59,0,0,1-.24-.64Q109.38,27.16,109.5,27.16Z"/><path class="cls-53" d="M61.5,75.18h.83a1.89,1.89,0,0,1,.4.9l-1.23,0Q61.48,75.65,61.5,75.18Z"/><path class="cls-53" d="M35.57,29.11H34.5a1.63,1.63,0,0,1,.23-.88l.45-.08Z"/><path class="cls-56" d="M109.49,28.12l.85,0-.77,1.23Z"/><path class="cls-87" d="M16.81,29.18l.68.94Z"/><path class="cls-87" d="M80.48,80.13l.69-1.08Z"/><path class="cls-87" d="M18.48,30.14l-.15,1.26-.84-1.27Z"/><path class="cls-79" d="M78.6,82.12l1-1-.32.83q-.29.7-.76.1Z"/><path class="cls-68" d="M35.53,30.15h.76l.43.9-1.24.07A5.82,5.82,0,0,1,35.53,30.15Z"/><path class="cls-44" d="M78.5,82.06a.57.57,0,0,1,.76-.1,1,1,0,0,1-.67,1.3Z"/><path class="cls-56" d="M108.53,31.26l.73-1.11Z"/><path class="cls-57" d="M37.9,33l-.79-.18.27-.68Z"/><path class="cls-44" d="M77.51,85.17l.75-1.11Z"/><path class="cls-6" d="M49.73,86.17l.76.95Z"/><path class="cls-44" d="M76.19,86.1a2.32,2.32,0,0,1,1-.09l-.6,1.22L76.11,87A.94.94,0,0,1,76.19,86.1Z"/><path class="cls-6" d="M50.5,87.13l.91,1.2Z"/><path class="cls-53" d="M39.61,36.1a5.61,5.61,0,0,1-.61-.54s.14-.24.22-.37Z"/><path class="cls-44" d="M75.67,88.32l-.22-1.22.32-.38.46.19.35.33Z"/><path class="cls-6" d="M51.56,89.15l.88,1.11Z"/><path class="cls-53" d="M40.78,38.05,40,37.82l.29-.64A1.43,1.43,0,0,1,40.78,38.05Z"/><path class="cls-6" d="M52.66,91.16l.82,1Z"/><path class="cls-40" d="M22.63,39.16l.79,1.16Z"/><path class="cls-53" d="M71.7,93.21l.92,0a1.48,1.48,0,0,1-.19.92.59.59,0,0,1-1,0l.06.05a.56.56,0,0,1-.33-.81Z"/><path class="cls-45" d="M71.46,94.11a2.44,2.44,0,0,0,1,0,1,1,0,0,1-.79,1.18Z"/><path class="cls-88" d="M55.32,95.17a7.73,7.73,0,0,1,.6.56,3.1,3.1,0,0,1-.29.34A2.55,2.55,0,0,1,55.32,95.17Z"/><path class="cls-89" d="M70.46,96.11a1.69,1.69,0,0,0,1,0l-.76,1.17Z"/><path class="cls-11" d="M54.6,39.15l.8,1.22Z"/><path class="cls-89" d="M69.57,99.2,70.34,98Z"/><path class="cls-17" d="M67.62,100.2l1,0a1.88,1.88,0,0,1-.13.95.65.65,0,0,1-1,0l.09.08a.87.87,0,0,1-.33-.7q0-.4.11-.4Z"/><path class="cls-89" d="M67.44,101.09l1,0a.93.93,0,0,1-.75,1.14Z"/><path class="cls-40" d="M23.8,41.19l.69.93Z"/><path class="cls-90" d="M65.35,106.12l-1.08,0a2.09,2.09,0,0,1,.28-.9H66Z"/><path class="cls-1" d="M43.48,44.14,43.56,43l.79,1.18Z"/><path class="cls-91" d="M63.64,107.18h1c-.11.6-.34,1.06-1.08.91A1.62,1.62,0,0,1,63.64,107.18Z"/><path class="cls-3" d="M125.12,43.54a12.9,12.9,0,0,1,1.43-6.61c2.56-4.84,6.14-8.64,12-10.2,6.85-1.82,13.45.48,18.59,6.69-.82,2.06-2.83,3.06-4.59,5-2.73-3.67-6.19-5.88-10.92-5.28a10.19,10.19,0,0,0-7.09,4.2,11.61,11.61,0,0,0,3,16.63c5.3,3.28,11.51,1.43,14.58-4.46-2.34-1.59-5.21.15-7.76-1.26V43.39h14.41c.58,9.5-3.47,16-11.28,18.3S131,60.1,126.88,52.42a23.68,23.68,0,0,1-1.62-5.53C125.23,45.76,125.17,44.65,125.12,43.54Z"/><path class="cls-3" d="M254.72,47.26l-10.14,14.3L234,47.13V61.52a11.24,11.24,0,0,1-6.45.22V26.65l17.12,24.17L262,27V61.84H255.8V47.49Z"/><path class="cls-3" d="M311.08,55.14c.72,2.71.85,4.62,0,6.72H288V28.28h22.69v5.84H295.2c-1.39,2.43-.77,4.55-.71,6.93,4.68,1.24,9.53-.07,14.2.81a13.39,13.39,0,0,1,0,6.28H294.9c-.92,2.4-.57,4.48-.32,7Z"/><path class="cls-3" d="M332.73,58.82a11.11,11.11,0,0,1,2.83-5c8.45,3.72,10.48,3.55,13.22-1.11-.59-3.12-3.29-3.88-5.68-5-7.73-3.49-10.23-7.28-8.49-12.95s7.59-8.3,15.27-6.53a40.78,40.78,0,0,1,5.86,2.3c0,2.31-1.43,3.57-2,5.28-4.49-1-9.06-4.56-12.69.78.81,3.64,3.56,4.37,5.92,5.43,7.55,3.41,10.14,7.33,8.43,13-1.64,5.45-6.73,8-14.2,7.09A18.54,18.54,0,0,1,332.73,58.82Z"/><path class="cls-3" d="M190.45,26,174.9,62h6.57l2.94-6.55h11.06l2.81,6.37H206Zm-3.49,23,2.8-6.85c2.08,2.09,2.19,4.56,3.48,7C190.79,49.74,189,49.9,187,49.06Z"/><path class="cls-3" d="M301.78,93.15H290.36V76.08c1-.46,2-.19,3.25-.23V89.6h8.17Z"/><path class="cls-3" d="M196.44,83.65c0,5.24-2.4,8.64-6.49,9.43a9.14,9.14,0,0,1-6.19-16.89c4-2.36,8.44-1.47,11.72,2.37l-2.55,2.13a5.81,5.81,0,0,0-5.52-2.22,5.22,5.22,0,0,0-3.48,2.28A5.84,5.84,0,0,0,185.54,89c2.2,1.4,6.43,1,7.52-2.46l-3.82-.19a4.8,4.8,0,0,1-.22-2.65Z"/><path class="cls-3" d="M214.89,89.69A5.49,5.49,0,0,1,215,93H203.76v-17H207V89.69Z"/><path class="cls-3" d="M231,75.56a8.93,8.93,0,0,0-8.85,8.86,8.77,8.77,0,0,0,17.55.13A8.91,8.91,0,0,0,231,75.56Zm.21,14.37a5.44,5.44,0,0,1-5.5-5.41,5.26,5.26,0,0,1,5.26-5.57,5.2,5.2,0,0,1,5.19,5.36A5.31,5.31,0,0,1,231.17,89.93Z"/><path class="cls-3" d="M258.68,84.78c-.34-.33-.93-.45-.9-1.08A4.44,4.44,0,0,0,259,78.42c-.8-2-2.64-2.48-4.57-2.54s-3.83,0-5.88,0V93.06c2.85,0,5.62.4,8.31-.46A4.53,4.53,0,0,0,258.68,84.78Zm-6.77-5.62c1.4-.24,2.66-.33,3.68.75a2.36,2.36,0,0,1-.09,2.17,3.43,3.43,0,0,1-3.59.58ZM252,89.73a8.63,8.63,0,0,1-.09-3.47c1.89-.24,3.73-.57,4.91,1.56C255.83,90.41,253.87,89.85,252,89.73Z"/><path class="cls-3" d="M274.62,74.86,266.77,93a8.45,8.45,0,0,0,3.36-.09l1.44-3.16h5.59L278.59,93h3.91Zm-1.8,11.81,1.38-3.52c1.14.87,1.17,2.17,1.86,3.52Z"/><path class="cls-92" d="M30.51,36.09c1.33,2,3.64,3.38,4,6a1.53,1.53,0,0,1-1.16.37,6,6,0,0,1-1.76-.76,5.12,5.12,0,0,1-2.48-4.37,2.29,2.29,0,0,1,.76-1.06Z"/><path class="cls-93" d="M26.41,31.3l1.06-1.14,3,5.94,0,.06a2,2,0,0,1-1.36.45C27.14,35.38,25.38,34,26.41,31.3Z"/><path class="cls-94" d="M33.48,42.14h1a2.22,2.22,0,0,1,1,2l-1.11,1.17c-2.06-.11-2.29-1.5-2.18-3.12l.61-.44Z"/><path class="cls-65" d="M44.48,46.13a1.35,1.35,0,0,1,.68.23C44.69,47,44.64,46.4,44.48,46.13Z"/><path class="cls-68" d="M41.46,39.18l-.25.38.24-.4Z"/><path class="cls-79" d="M32.59,42.12l1.84,3.15a13.73,13.73,0,0,0,2.95,5.05c1,.41,1.26,1.54,2,2.21a4.73,4.73,0,0,1,.72.93c.29.51.58,1,.91,1.51A6.37,6.37,0,0,1,41.5,56c.26.54.64,1,.93,1.53.7,1.25,1.56,2.39,2.27,3.63a9.85,9.85,0,0,1,.52,1.08c.24.53.48,1.06.74,1.58.19.33.37.68.54,1,.31.5.64,1,1,1.46a29.38,29.38,0,0,1,1.88,3.16c.34.54.69,1.07,1,1.59a43,43,0,0,1,2.85,5.13c.32.55.64,1.1,1,1.63a21.33,21.33,0,0,1,1.83,3.22c.26.51.5,1,.76,1.55.18.31.33.64.49,1s.35.6.53.9l.3.42a8.71,8.71,0,0,1,.6.82,6.49,6.49,0,0,1,.47.88c.21.44.43.88.66,1.31a6.39,6.39,0,0,1,.41.87q.32.64.66,1.27c.17.27.31.55.45.84s.35.55.56.83l.36.4a5,5,0,0,0,.77.62.94.94,0,0,0,.94-.21c.21-.31.4-.6.57-.92s.31-.65.48-1c.23-.48.49-1,.76-1.41a8.74,8.74,0,0,1,1-1.26,8.21,8.21,0,0,0,.84-1.29c.14-.33.3-.64.46-1,.24-.5.47-1,.7-1.5a9,9,0,0,1,.52-1.05,4.16,4.16,0,0,1,2.18-2l1.1-1.84A5.71,5.71,0,0,0,73,77.88a1.52,1.52,0,0,1,.72-.69l1.44-2.12a1.65,1.65,0,0,0,.32-.84q.43-.54.83-1.1l1-2.05a.66.66,0,0,1,.43-.88l.66-1.07,2.91-5A1.15,1.15,0,0,1,81.2,63a11.22,11.22,0,0,1,.7-1.54c.27-.49.56-1,.87-1.43a14.37,14.37,0,0,0,.94-1.37l.55-1c.25-.54.51-1.07.82-1.58a22.82,22.82,0,0,1,1.81-3.26,23.22,23.22,0,0,0,1.39-2.74,9.92,9.92,0,0,1,.55-1,6.63,6.63,0,0,0,.68-1.44c0-1-.77-1-1.5-1.11-6.79,0-13.56.08-20.32,0-2,0-4.45.51-5.5-2.17l-.68-2.1c2.87-1.26,5.93-.09,8.84-.73,2.3-1,4.73-.66,7.13-.75,3,0,6,0,9,0,2.68.2,5.28,1,7.95,1.25,1,.38,2.44-.2,3.12,1.15h0a2,2,0,0,0-.6,1.48c-.26.71-.42,1.46-.69,2.16s-.73,1.4-1,2.13A38.22,38.22,0,0,0,93,52.71c-1.91,2.92-3.43,6.06-5.26,9-.34.48-.71,1-1,1.44-.18.32-.38.63-.57.94s-.54.92-.78,1.41-.3.65-.46,1L84.14,68a6.73,6.73,0,0,1-.58,1c-.43.64-.86,1.27-1.25,1.93-.28.5-.56,1-.82,1.5-.15.35-.33.68-.52,1-.28.5-.54,1-.83,1.5a18.15,18.15,0,0,1-1.26,1.95A10.07,10.07,0,0,0,77,79.75a10.39,10.39,0,0,1-.86,1.45,8.82,8.82,0,0,1-.89,2c-.29.42-.59.84-.83,1.29s-.3.6-.46.89c-.23.44-.46.89-.7,1.33s-.33.58-.51.87a6.9,6.9,0,0,1-.58.84l-.31.41a7.25,7.25,0,0,0-.52.92c-.15.34-.32.67-.5,1L70,92.33a5.12,5.12,0,0,1-2.49,2.84l-1.1,1.91a4.31,4.31,0,0,0-.75,1.08,1,1,0,0,0-.33.78,5.51,5.51,0,0,1-.8,1.21c-1.49,2-2,.35-2.67-.72q-4.28-7.14-8.53-14.3a4.26,4.26,0,0,1-.79-1.24.72.72,0,0,0-.32-.76A7.51,7.51,0,0,0,51.52,82l-.4-.93a1.54,1.54,0,0,0-.66-.92v0c-2.06-1.92-3.79-4-4-7A5.33,5.33,0,0,0,44.55,70a2.16,2.16,0,0,1-.84-.67c-.31-.46-.6-.93-.91-1.39a5.35,5.35,0,0,1-.83-1.5A12.6,12.6,0,0,0,41,64.94c-.21-.35-.4-.71-.58-1.08-.64-1.29-1.6-2.38-2.31-3.62-.3-.5-.58-1-.88-1.51a5.77,5.77,0,0,1-.53-1c-.23-.47-.45-1-.69-1.42-.17-.29-.31-.59-.45-.9a3.49,3.49,0,0,0-.5-.84s-.32-.38-.32-.37a4.51,4.51,0,0,1-.57-.79c-.16-.28-.31-.57-.46-.86a10.63,10.63,0,0,0-.64-1.29c-.15-.28-.29-.57-.43-.86A9.79,9.79,0,0,0,32,49.16c-.16-.28-.31-.57-.46-.86a4.56,4.56,0,0,0-.59-.81l-.35-.39a9.17,9.17,0,0,1-.65-.85,6.07,6.07,0,0,1-.5-1c-.25-.52-.61-1-.87-1.5-.37-.92-1-1.69-1.43-2.59-.28-.5-.62-1-.94-1.42a7.07,7.07,0,0,1-.49-1A12,12,0,0,0,25,37.35c-.17-.3-.32-.61-.47-.92a6.43,6.43,0,0,0-.85-1.29c-.28-.44-.51-.9-.75-1.36s-.54-.87-.79-1.31-.31-.59-.46-.89a10,10,0,0,0-.67-1.34c-.16-.29-.32-.59-.49-.88s-.57-.86-.88-1.27a12.13,12.13,0,0,1-.89-1.34c-.27-.48-.5-1-.81-1.43a8.64,8.64,0,0,1-.51-1c-.27-.5-.57-1-.85-1.48C16.14,22,15.54,21.2,15,20.39a4,4,0,0,1-.49-1.14A16.66,16.66,0,0,0,12,14.88c-.37-.52-.78-1-1.13-1.55a7.84,7.84,0,0,1-.54-1.16c-.83-1.5-1.75-2.94-2.55-4.47a3.37,3.37,0,0,1-.49-2.49C8,3.77,9.41,4.31,10.5,4l2-.1L38.49,4c4.89-.88,9.92.34,14.79-1.16A4.57,4.57,0,0,1,57.46,4l7,0,4,0L82.58,4,96.53,4h8c5-.29,10-.94,14.89.32l-.62,1.95a1.47,1.47,0,0,1,0,1c-.21.5-.36,1-.61,1.52-.31.68-.61,1.37-.93,2a6.58,6.58,0,0,1-.59,1,13.53,13.53,0,0,0-1.85,2.38,6.4,6.4,0,0,0-1.12,2.26c-.94,1.76-1.84,3.54-2.92,5.22-.17.37-.34.75-.49,1.14a7.19,7.19,0,0,1-1,1.4,6.28,6.28,0,0,0-.92,1.37c-.14.35-.31.68-.49,1a9.65,9.65,0,0,1-.89,1.51,2.64,2.64,0,0,1-1,.67,2.55,2.55,0,0,1-2.35-.49l-1-1.12a2,2,0,0,0,.46-1.35,1.44,1.44,0,0,1,.29-.93,9,9,0,0,0,.92-1.22c.25-.49.4-1,.63-1.51a7.41,7.41,0,0,1,.54-1.05c.4-1,.86-1.91,1.35-2.84a58,58,0,0,0,3.61-6.38c.38-.76.8-1.5,1.18-2.24.25-2.83-1.91-.67-2.72-1.29-.73.06-1.45.07-2.18.08l-6.42.05-6,0q-6.3,0-12.6,0-5,0-10,0-4.11,0-8.23,0-6.93,0-13.85,0c-5.21,0-10.41,0-15.62,0-3.39,0-6.79,0-10.17,0-2.86-.07-5.73-.11-8.56-.23a.73.73,0,0,0-.45.73,6.24,6.24,0,0,0,.6,1.42c.21.34.39.68.57,1,.81,1.93,1.82,3.74,2.81,5.56a8.08,8.08,0,0,0,.78,1.56,3,3,0,0,1,.5,1,4.21,4.21,0,0,0,.39,1l.19.51.95,2a3.12,3.12,0,0,1,.88,1.25,1.74,1.74,0,0,0,.2.76,11.85,11.85,0,0,1,.85,1.13,13.51,13.51,0,0,0,3,5,12.15,12.15,0,0,0,2.88,4.89.6.6,0,0,1,.38.89,9,9,0,0,0,2.44,4.12A.63.63,0,0,1,32.59,42.12Z"/><path class="cls-83" d="M18.61,18.07l-4-7c5.85-2.92,11.27-.74,16.65,1.48a2.14,2.14,0,0,1,1.21,2.5l-.08.14c-1.39,1-3.16-.24-4.54.78A8,8,0,0,1,28,17.14l-.06.58-.4.42c-3.11-1.6-4.7-6-9.19-5.28-.64,2.18,1.38,3.47,1.18,5.29l-.46.37Z"/><path class="cls-83" d="M19.73,20a2.5,2.5,0,0,1-.3-.82.68.68,0,0,1-.2-.74q.14-.34.27-.34l0,0a2.09,2.09,0,0,1,1,2l-.44.38Z"/><path class="cls-83" d="M28.47,18.13l0,1-1-1h0q.5-.68,1,0Z"/><path class="cls-83" d="M20.49,20.14a5.34,5.34,0,0,1,.4.68s-.23.18-.35.27l0,0a.61.61,0,0,1-.24-.66q.12-.33.23-.33Z"/><path class="cls-1" d="M22.37,24.39l-.88-1.25Z"/><path class="cls-1" d="M23.43,26.28l-.85-1.13Z"/><path class="cls-95" d="M89.64,49.33a6.81,6.81,0,0,1-2.14,3.84,1.2,1.2,0,0,1-1-1c-3-3.29-7.35-2.83-10,1.09l-4-.19c-2.45-.67-4.64-2-7-2.89l-1,0c-.52-.62-1.45-.42-2-1h0l0-1.06a3.41,3.41,0,0,1,3.18-.94c5.08,1,10.07.39,15.15-.19C83.85,46.62,87.56,45.46,89.64,49.33Z"/><path class="cls-96" d="M81.61,63.4a.83.83,0,0,1-.29.67c-2-3.16,1.23-4.68,2.17-6.92A.78.78,0,0,1,84.65,57a1.15,1.15,0,0,1-.09,1.27,1.18,1.18,0,0,1-.33.86,4.64,4.64,0,0,1-.73,1.06l-1.07,1.94A2.59,2.59,0,0,0,81.61,63.4Z"/><path class="cls-97" d="M84.47,57.14h-1l2-4a8.81,8.81,0,0,0,1-1h0l1,1-2.13,4C85.07,57.49,84.77,57.51,84.47,57.14Z"/><path class="cls-95" d="M86.48,52.14l-1,1Z"/><path class="cls-84" d="M61.45,76.14c2.75,1.55,4.16,5.25,8,5,.52,1-.11,1.82-.55,2.65-1.86,2.14-3.73,1.06-5.14-.35-5.36-5.38-11.45-10.08-15.54-16.65A2.55,2.55,0,0,1,48,64.7l.46-.57Z"/><path class="cls-8" d="M40.59,56.14a1.16,1.16,0,0,1-.26-.75,3.59,3.59,0,0,1-.22-1.1l.35-.44a1,1,0,0,1,1,.3h0c.31.36.66.69,1,1q0,.49,0,1c.32.34.65.67,1,1h0c.34.33.64.7,1,1q0,.49,0,1c.34.32.64.68,1,1h0c.32.34.66.68,1,1h0a1.41,1.41,0,0,1,.32,1.69,1.45,1.45,0,0,1-1.08.5c-.6-.23-.92-.8-1.43-1.15a12.4,12.4,0,0,1-2.88-4.86A4.64,4.64,0,0,0,40.59,56.14Z"/><path class="cls-33" d="M39.06,53.23a4.86,4.86,0,0,1-1.69-2.92c2.81-1,2,2,3.13,2.82l-.37.44A2.3,2.3,0,0,1,39.06,53.23Z"/><path class="cls-84" d="M46.5,63.12l0-2a3,3,0,0,1,2,3h0l-.41.42-.59-.06a2.39,2.39,0,0,1-.86-.8Z"/><path class="cls-84" d="M41.48,54.14h-1q-.43-.33-.28-.67t.29-.33h0Z"/><path class="cls-84" d="M42.47,55.16l-1-1Z"/><path class="cls-84" d="M43.48,57.14l-1-1Z"/><path class="cls-84" d="M44.47,58.16l-1-1Z"/><path class="cls-84" d="M45.48,60.14l-1-1Z"/><path class="cls-84" d="M46.48,61.14l-1-1Z"/><path class="cls-98" d="M32.5,15.07c-5.22-4.59-11.66-3.78-17.86-4a5.42,5.42,0,0,1-.51-.84l.34-.69a3.12,3.12,0,0,1,1.89-1.28,15.28,15.28,0,0,1,4.76.13c7.16,1.09,14.35.63,21.53.33,5.68-.12,11.37.34,17-.29a9.55,9.55,0,0,1,2.44-.29,48.42,48.42,0,0,1,6.37.16,2.34,2.34,0,0,1,1.25,1,1.35,1.35,0,0,1-.59,1.38,6.57,6.57,0,0,1-3.07.78c-7.33,1-14.74,1.2-22.07,2.22-1.29.18-2.64.32-3.58,1.42Z"/><path class="cls-8" d="M40.43,15.09c-.89-3.34,2.29-2.59,3.4-2.73,7.53-.95,15.1-1.51,22.66-2.19.06,2.41-2.08,2.05-3.4,2.56-2.38.92-5,1.33-7.09,2.86-1.18-.08-2.42.37-3.51-.44Z"/><path class="cls-99" d="M85.48,12.14c2.23,1.36,6.12-.34,6.88,3.73l-11.77,0a.83.83,0,0,1,.11-1,2.14,2.14,0,0,1-1.51.75c-1.1-.1-2.33.26-3.11-1a3.09,3.09,0,0,1,1.07-3.87,4.65,4.65,0,0,1,3.14-.52C82.07,10.78,84,10.74,85.48,12.14Z"/><path class="cls-9" d="M69.66,15.89l-7.09.06a.85.85,0,0,1,0-1.18c2.57-1.93,4.53-5.15,8.54-4.08C72.45,12.93,71.38,14.5,69.66,15.89Z"/><path class="cls-100" d="M69.66,15.89a8.34,8.34,0,0,1,1.82-4.75,3.64,3.64,0,0,1,1.6-1.51,5.88,5.88,0,0,1,1.42-.49c2.27-.24,4.56-.59,6.73.53a1.35,1.35,0,0,1,.5,1.38l-.59.52-.68-.39H77.51c-2.27.75-3.11,2.71-3.93,4.68Z"/><path class="cls-101" d="M73.58,15.85l-.81-2.76c1.22-1.71,2.91-2,4.74-1.93-.41,1-1.29,1.93-.63,3.2,1,1.13,2.36.64,3.6.78h0a2.53,2.53,0,0,0,.12.7Z"/><path class="cls-43" d="M62.5,15.16a3.78,3.78,0,0,0,.08.79c-3.37-.13-6.85,1.14-10.08-.8l4,0C58.48,13.89,60.49,13.4,62.5,15.16Z"/><path class="cls-102" d="M27.49,16.14c1.27-2.31,3.34-.34,4.93-.93-1.1,1.33-2.65.72-4,.94Q27.94,16.89,27.49,16.14Z"/><path class="cls-68" d="M27.49,16.14h.93q0,.49.07,1a.6.6,0,0,1-1,0A9.68,9.68,0,0,1,27.49,16.14Z"/><path class="cls-102" d="M27.48,17.14h1q0,.5,0,1h-1Q27.48,17.64,27.48,17.14Z"/><path class="cls-89" d="M72.32,86.84a.93.93,0,0,1,.26-.69,4.37,4.37,0,0,0,.8-1.19,1.17,1.17,0,0,1,.31-.77.69.69,0,0,1,1.07-.05A4.26,4.26,0,0,1,75,86a1.63,1.63,0,0,1-.51,1.13v0a5.31,5.31,0,0,0-2.07,3.9l0,.05a2.78,2.78,0,0,0-.77,1.28,2.58,2.58,0,0,0,0,.82l-.28-.1a6.61,6.61,0,0,0-.78,1.28l-.11,1.78-1.82,1.14-1.16-2.14,2.11-4q.38-.57.77-1.12a1.18,1.18,0,0,1,.39-.88,2.07,2.07,0,0,1,.68-1h0A2.23,2.23,0,0,0,72.32,86.84Z"/><path class="cls-37" d="M46.44,73.15a27.17,27.17,0,0,1,4,7l-1,1-3-4C46,75.81,44.66,74.5,46.44,73.15Z"/><path class="cls-89" d="M68.71,97.3a2.24,2.24,0,0,1-1.11,2C67.51,98.39,67.62,97.57,68.71,97.3Z"/><path class="cls-37" d="M50.46,80.18l.66.92Z"/><path class="cls-37" d="M50.47,83.15l-1-1Z"/><path class="cls-37" d="M51.52,82l.74,1.09Z"/><path class="cls-37" d="M52.58,83.89l.79,1.24Z"/><path class="cls-89" d="M65.71,98.16l.75-1.08Z"/><path class="cls-89" d="M64.58,100.15l.8-1.21Z"/><path class="cls-89" d="M67.31,100.07l.22,1.1a3,3,0,0,0-1,.1Z"/><path class="cls-38" d="M65.26,103.16l-.76,1Z"/><path class="cls-103" d="M107.41,19.09l-1.89,3.11a1.6,1.6,0,0,1-.92-.55l-.15-.53c-.36-5-3.08-7.87-8.3-8.89-1.58-.31-3.4.43-4.72-1l.6-.62c4.59-1.74,9.14-.66,13.49.7S108,16.18,107.41,19.09Z"/><path class="cls-103" d="M81.51,11.08l0-.89c3-2.22,6.15-1.61,9.35-.63a1.61,1.61,0,0,1,.72,1.53l-.09.1-6,0A3.79,3.79,0,0,1,81.51,11.08Z"/><path class="cls-101" d="M81.51,11.08l4,.09q0,.48,0,1c-1.7-.2-3.59.6-5-1Z"/><path class="cls-103" d="M104.57,24.21l-.88,1-.61.47-.56-.52,1.94-4,0,0A2.46,2.46,0,0,1,105,23,2.31,2.31,0,0,1,104.57,24.21Z"/><path class="cls-104" d="M102.52,25.15l1.17,0q-.11.46-.25.91a.59.59,0,0,1-1,0l0,0A6.72,6.72,0,0,1,102.52,25.15Z"/><path class="cls-61" d="M57.46,4h-19C42,2.16,45.83,3.77,49.59,2.92l-.84-1.58,7.76-.19C56.94,2.05,58.71,2.51,57.46,4Z"/><path class="cls-105" d="M32.48,3.13q0-.49,0-1h3.88l.05.8Z"/><path class="cls-105" d="M32.49,2.14H27.6c2.19-1.38,3.6-.84,4.92-.91Q32.48,1.68,32.49,2.14Z"/><path class="cls-33" d="M73.77,77.19a8.61,8.61,0,0,1-.37.91.54.54,0,0,1-.91,0q0-.49,0-1Z"/><path class="cls-106" d="M89.64,49.33c-2.69-1.79-5.83-1.54-8.61-1a51.11,51.11,0,0,1-18.51-.24v0c-.36-.32-.7-.67-1-1h0c0-1-.23-2,.65-2.79,5.81,1.93,11.8.32,17.68,1,3.82.42,7.79-1.11,11.49.88-8.54,1.06-17.09.25-25.64.45,6.45.05,12.9,0,19.36.08,1.57,0,3.33-.65,4.68.81a2.31,2.31,0,0,1-.09,1.78Z"/><path class="cls-27" d="M86.47,42H77.42c-2.08-.77-4.25-.1-6.36-.41l-.58-.42c-.58-1.23-2.07-.66-3.47-2h7.51a30.87,30.87,0,0,0,8.69,1,5.81,5.81,0,0,1,3,.5A.92.92,0,0,1,86.47,42Z"/><path class="cls-107" d="M86.48,41.14h-3c-.94-1.4-3.61.75-3.93-1.92l10,0,1,1.94A4,4,0,0,1,86.48,41.14Z"/><path class="cls-108" d="M79.55,39.21c.87,1.54,3.09.31,3.93,1.92a16,16,0,0,1-9-2Z"/><path class="cls-97" d="M70.47,42l-9,.24c2.78-2.15,6-.6,9-1.07h0q.49.29.32.56C70.69,41.88,70.58,42,70.47,42Z"/><path class="cls-35" d="M119.4,4.29,104.51,4q0-.41,0-.83l4,0h5C115.45,3.55,117.75,2.27,119.4,4.29Z"/><path class="cls-106" d="M118.42,7a.89.89,0,0,1,.35-.77l.95,3.07,0,0a1.26,1.26,0,0,0-.76.73l-.38.4a2.55,2.55,0,0,1-1.06.32,1.49,1.49,0,0,1-.9-.59l1-2Q118,7.59,118.42,7Z"/><path class="cls-3" d="M77.75,70.19a2.65,2.65,0,0,1-.43.88L77,70.44Z"/><path class="cls-9" d="M76.35,73.12l-.83,1.1Z"/><path class="cls-86" d="M8.48,7.14l2.87,5.06a.6.6,0,0,0,.41.89l.71,1.06c-.31.39-.4,1-1,1L8.53,12.1q0-.48-.09-1L7.52,10.1l-1-2q0-.48,0-1A1.32,1.32,0,0,1,8.48,7.14Z"/><path class="cls-47" d="M8.48,7.14h-2c-1.3-1.31.21-1.43.82-1.93Z"/><path class="cls-109" d="M103.56,28.33l2.62-.26a.78.78,0,0,1,1.15-.15,1,1,0,0,1,.32.79q0,.44-.12.44l0,0a6.36,6.36,0,0,0-1,1C105.13,30.14,103.61,30.42,103.56,28.33Z"/><path class="cls-7" d="M102.47,26.12a6.9,6.9,0,0,0,1,0l-.9,1.1Z"/><path class="cls-56" d="M109.5,27.16a7.43,7.43,0,0,0,0,1l-1,0-.35-.48.14-.58.5-.31.56.2Z"/><path class="cls-56" d="M107.52,29.15q0-.48,0-1l.46-.42.5.37h0Z"/><path class="cls-56" d="M106.48,30.14l1-1Z"/><path class="cls-50" d="M68.48,83.14l1-2c.68-.12,1.37-1.1,2,0l-1.89,3.17C69,84.22,68.83,83.58,68.48,83.14Z"/><path class="cls-9" d="M72.48,78.14l.91,0-.79,1.24Z"/><path class="cls-108" d="M86.48,41.14l4,0c1.32.16,2.81-.42,3.88.87l-7.91,0Q86.48,41.55,86.48,41.14Z"/><path class="cls-110" d="M18.33,24.12a.85.85,0,0,1,.28.74,6.8,6.8,0,0,1,.34,1.23,2,2,0,0,1-.31,1.21.89.89,0,0,1-1.13-.19q0-.49,0-1a11.3,11.3,0,0,0-1-1l-1-1q0-.48-.07-1c-.34-.33-.61-.71-.95-1q0-.48-.07-1l-.39-.64.37-.65a1.2,1.2,0,0,1,1.34.19A4.94,4.94,0,0,1,17.55,23,8.16,8.16,0,0,0,18.33,24.12Z"/><path class="cls-111" d="M11.43,15.19l1-1,2.87,5a4,4,0,0,1-.83.94l-.06,0a.6.6,0,0,1-.93-.07Z"/><path class="cls-12" d="M13.51,20.11l.93.07q0,.49,0,1Z"/><path class="cls-12" d="M14.52,22.11l.95,1Z"/><path class="cls-67" d="M18.46,27.15l0-1a.55.55,0,0,1,.91,0l1.08,2a1.93,1.93,0,0,1,.67,1,1.13,1.13,0,0,1,.41.88q.38.58.77,1.15a1,1,0,0,1,.31.76A3.17,3.17,0,0,1,22.85,33l-.35.42a.91.91,0,0,1-1-.3l-2.06-3h0c-.62-.53-.35-1.49-1-2h0q-.38-.31-.27-.64T18.46,27.15Z"/><path class="cls-112" d="M23.46,33.14l1,1.94a4.78,4.78,0,0,1,.71,1,.91.91,0,0,1,.35.85,3.36,3.36,0,0,1,.39,1.2,2.09,2.09,0,0,1-.35,1.21.85.85,0,0,1-1.11-.22q0-.48,0-1a10.72,10.72,0,0,0-1-1q0-.49,0-1-.46-.52-1-1,0-.49-.05-1a.63.63,0,0,1-.24-.7q.13-.34.25-.34h0A.62.62,0,0,1,23.46,33.14Z"/><path class="cls-112" d="M22.47,33.13q0,.52,0,1l-.93-1.07Z"/><path class="cls-112" d="M22.52,35.15l1,1Z"/><path class="cls-112" d="M23.51,37.15l1,1Z"/><path class="cls-40" d="M24.49,39.13l1,0,.35.49-.35.5Z"/><path class="cls-112" d="M26.44,41.17l-.95,0q0-.49,0-1l.1,0a.74.74,0,0,1,1,0A.78.78,0,0,1,26.44,41.17Z"/><path class="cls-113" d="M36.16,55.1l.38.89q.37.58.77,1.13a.67.67,0,0,1,.29.71,2.68,2.68,0,0,0,.82,1.3l2.89,5.06a1.43,1.43,0,0,1-.85,1l-2-2-2-3q0-.48,0-1a7.89,7.89,0,0,0-1-1h0a1.5,1.5,0,0,1-.49-1,1.66,1.66,0,0,0-.51-1q0-.49,0-1a.83.83,0,0,1-.29-.74q.07-.4.17-.4a.86.86,0,0,1,1.14.12h0A2.66,2.66,0,0,1,36.16,55.1Z"/><path class="cls-114" d="M44.2,69.13a1,1,0,0,1,.35.87l-1.06,1.12-2-5,.46-.37.45.4,1.09,2A3.12,3.12,0,0,1,44.2,69.13Z"/><path class="cls-114" d="M40.45,65.14l.85-1a.74.74,0,0,1,.3.73.94.94,0,0,1-.12,1.23h0Z"/><path class="cls-115" d="M26.44,41.17l0-1,.49-.37.48.38,2.13,3.77a3.52,3.52,0,0,0,.8,1.22.65.65,0,0,1,.27.67q.16.62.31,1.24a1.18,1.18,0,0,1-.47,1.1l-1,0q0-.48,0-1a12.56,12.56,0,0,0-1-1q0-.49,0-1a12.28,12.28,0,0,0-1-1Z"/><path class="cls-116" d="M30.49,48.14v-1a.61.61,0,0,1,1,0v0a1.87,1.87,0,0,1,.69,1l.38.91a10.8,10.8,0,0,1,.75,1.1,1,1,0,0,1,.32.78,1.05,1.05,0,0,1,0,1.15.88.88,0,0,1-1.11,0Z"/><path class="cls-67" d="M35.48,54.14h-1a.6.6,0,0,1-1,0q0-.49,0-1l.33-.45a1.59,1.59,0,0,1,1,.33Z"/><path class="cls-117" d="M32.5,52.12l1,0,.41.5-.42.5,0,0Z"/><path class="cls-117" d="M33.48,54.14h1l0,1Z"/><path class="cls-67" d="M34.49,56.14l1,1a.6.6,0,0,1-1,0Z"/><path class="cls-81" d="M34.48,57.14h1q0,.5,0,1h-1Q34.48,57.64,34.48,57.14Z"/><path class="cls-63" d="M68.48,3.14a2,2,0,0,1-2-1A2,2,0,0,1,68.48,3.14Z"/><path class="cls-3" d="M65.46,50.15c2.75-.06,5,1.2,7,2.89l-1,.2-3-.17Z"/><path class="cls-3" d="M62.47,49.15a2.06,2.06,0,0,1,2,1A2.09,2.09,0,0,1,62.47,49.15Z"/><path class="cls-31" d="M27.5,44.13l1,1Z"/><path class="cls-31" d="M28.49,46.13l1,1Z"/><path class="cls-28" d="M109.59,22.16a19,19,0,0,1,3.68-6.28c.67.07.72.75,1.1,1.11l.26.31-1.07,1.86c-.67.47-.48,1.43-1.1,1.93l0,0-.92,1h0a1.69,1.69,0,0,1-1,.54A1.44,1.44,0,0,1,109.59,22.16Z"/><path class="cls-86" d="M110.46,22.14l1.07,0,.06,1-1.14,1.91-1.08,1a3.89,3.89,0,0,1-.9,1h0l-.55.43-.61-.34a1.22,1.22,0,0,1,.06-1.29,1.15,1.15,0,0,1,.32-.83,9.53,9.53,0,0,1,.73-1.08l.61-1A3.66,3.66,0,0,0,110.46,22.14Z"/><path class="cls-86" d="M112.46,21.08a2,2,0,0,1,1.1-1.93Z"/><path class="cls-86" d="M111.5,22.18l.92-1Z"/><path class="cls-11" d="M61.5,47.1l1,1Z"/><path class="cls-118" d="M117.45,10.15h1.05a.69.69,0,0,1,.33.73q-.11.4-.24.4a4.19,4.19,0,0,1-.35.81,5.24,5.24,0,0,1-.65,1.19l0,0-2.1.89c-.39.44-.76.4-1.11,0A5.07,5.07,0,0,1,116,11,3.11,3.11,0,0,0,117.45,10.15Z"/><path class="cls-119" d="M114.4,14.11l1.11,0L114.38,17l-1.1-1.11Z"/><path class="cls-87" d="M76.35,79.85a6.79,6.79,0,0,1,2.14-3.7,9.92,9.92,0,0,1,1.57-.31l.44.31q0,.5,0,1l-.91,1c-1.66.34-1.83,2.22-3.08,3L76,80.86Q76.22,80.36,76.35,79.85Z"/><path class="cls-45" d="M74.48,86.14q0-1,0-2a.72.72,0,0,1-.29-.75q.11-.39.24-.39l1.08-1.87a.63.63,0,0,1,1,0l0,0,.09,2.09v-.06c-.78.49-.52,1.48-1,2.11q0,.46.09.91l-.61.36Z"/><path class="cls-87" d="M18.49,28.13a2.07,2.07,0,0,1,1,2h-1Z"/><path class="cls-87" d="M16.49,25.13l1,1Z"/><path class="cls-87" d="M18.46,27.15a9,9,0,0,1,0,1l-1-1Z"/><path class="cls-25" d="M7.52,10.1l.92,1.05Z"/><path class="cls-44" d="M75.56,85.29c-.06-.89.06-1.7,1-2.11Z"/><path class="cls-57" d="M76.23,86.91a.9.9,0,0,1-.78.2l.06.06a.67.67,0,0,1-.3-.68q.09-.38.2-.38l.25.09.55-.1A1.87,1.87,0,0,1,76.23,86.91Z"/><path class="cls-120" d="M82.52,73.17a3.9,3.9,0,0,1-.08.94l-.92.07-.24-.69A1,1,0,0,1,82.52,73.17Z"/><path class="cls-120" d="M81.52,74.18q-.06.46-.14.92a.75.75,0,0,1-1.05.19,1.18,1.18,0,0,1,.07-1.16.76.76,0,0,1,1.06,0Z"/><path class="cls-87" d="M80.48,75.14q.45,0,.91,0l-.88,1.05L80.36,76A.59.59,0,0,1,80.48,75.14Z"/><path class="cls-11" d="M95.6,46.19l1.05-2c.29-.41.56-.38.82,0q0,1.93-.08,3.87l-.88,0C95.69,47.74,96,46.78,95.6,46.19Z"/><path class="cls-23" d="M97.48,44.25a7.4,7.4,0,0,0-.82,0l.84-1.07Z"/><path class="cls-121" d="M95.6,46.19a2,2,0,0,1,.92,2,8.12,8.12,0,0,0-.12.88.89.89,0,0,1-.91.44c-.54-.28-.64-.87-.94-1.32Z"/><path class="cls-82" d="M95.53,51.22l-.92,1.08A1.72,1.72,0,0,1,94,51.05a1.57,1.57,0,0,1,.83-1.1l.69.21Z"/><path class="cls-45" d="M95.49,49.15A5.59,5.59,0,0,0,96.4,49l-.88,1.13-.07,0q-.35-.34-.22-.65T95.49,49.15Z"/><path class="cls-81" d="M84.36,65.83a.71.71,0,0,1,.27-.72,5.87,5.87,0,0,0,.79-1.17,1,1,0,0,1,.37-.86,3.68,3.68,0,0,1,.68-1A57,57,0,0,1,92.39,52a1.81,1.81,0,0,1,1,.41,3,3,0,0,1,.52.92,1.55,1.55,0,0,1-.28,1,7.3,7.3,0,0,1-.13.82L91.58,58.2l-.9,2-.17,1-1.17,1a3.16,3.16,0,0,1-.87.94l-.86,2.11-.12-.08a2.7,2.7,0,0,0-.92,1.26,4.42,4.42,0,0,0,.11.8l-.29-.08c-.23.42-.61.72-.87,1.11l.05,0a1,1,0,0,1-1.19.17A2.1,2.1,0,0,1,84,67.12,7.19,7.19,0,0,1,84.36,65.83Z"/><path class="cls-71" d="M81.46,74.11q-.5,0-1,0L80,73.86l.32-1a.87.87,0,0,1,.3-.78q.39-.56.75-1.15a5.15,5.15,0,0,1,1.88-3.1c.57,0,.78.57,1.14.89l.15.48-1.1,2.89-.07,0c-.23.41-.6.72-.84,1.13l0-.07Z"/><path class="cls-13" d="M84.51,68.14l1.07.06a4,4,0,0,1-.12.91q-.44,0-.88.12l-.2-.23q-.33-.35-.16-.61T84.51,68.14Z"/><path class="cls-51" d="M35.48,58.14l1,1Z"/><path class="cls-13" d="M88.48,63.11l.87-.94a8.56,8.56,0,0,0,.17,1Z"/><path class="cls-13" d="M86.57,66.4l.92-1.26Z"/><path class="cls-39" d="M108.48,27.13l.9-1a2.86,2.86,0,0,1,0,.87A3.79,3.79,0,0,1,108.48,27.13Z"/><path class="cls-81" d="M94.49,51.14l.12,1.15a2.61,2.61,0,0,0,0,.91l-.22-.1a.52.52,0,0,1-.92.05l0,0C92.91,52,92.63,51,94.49,51.14Z"/><path class="cls-45" d="M71.65,92.39l.77-1.28Z"/><path class="cls-13" d="M85.53,68.24l.87-1.11.12,1.05A9.28,9.28,0,0,0,85.53,68.24Z"/><path class="cls-12" d="M82.56,73.24l.84-1.13.1,1.06Q83,73.22,82.56,73.24Z"/><path class="cls-78" d="M118.59,11.28l-.09-1.13.05,0a.57.57,0,0,1,.94,0l0,1A8.46,8.46,0,0,1,118.59,11.28Z"/><path class="cls-78" d="M117.59,13.28l.65-1.19.24,1.11-.44.1Z"/><path class="cls-82" d="M93.5,53.15l.92-.05.09,1.07-.9.15Z"/><path class="cls-13" d="M119.49,10.14l-.94,0,1.14-.89A1.24,1.24,0,0,1,119.49,10.14Z"/><path class="cls-44" d="M75.4,86.1l.1,1.06h-1q0-.52,0-1Q74.94,86.14,75.4,86.1Z"/><path class="cls-45" d="M70.63,94.39l.78-1.28.1,1.05Q71.07,94.26,70.63,94.39Z"/><path class="cls-33" d="M29.66,37.08a2.42,2.42,0,0,1-.38-.89l1.19,0Z"/><path class="cls-122" d="M32.59,42.12l-.49-.92,1.38.94Z"/><path class="cls-123" d="M68.48,83.14l1.13,1.22a1.25,1.25,0,0,1-.24.75,4.84,4.84,0,0,1-1.1.72c-1,1.11-1.81,2.37-3.26,2.87-2.77,0-4-2.15-5.68-3.64a10.35,10.35,0,0,1-1.2-1.47c-.43-.67-.79-1.39-1.28-2-.39-.46-.79-.91-1.15-1.4q-1-1.62-2-3.2c-1.24-2.1-2.17-4.4-4-6.13a5.05,5.05,0,0,1-1.11-.74l-2.14-3.92a5.55,5.55,0,0,1-.75-1.06,1.52,1.52,0,0,1-.32-.84,4,4,0,0,1-.34-.9l.41-.25h1a7,7,0,0,0,1,1h0c.64.51.36,1.49,1,2,5,5.22,10,10.49,15.17,15.64C64.91,83,66.11,85.45,68.48,83.14Z"/><path class="cls-124" d="M91.53,11.09q-.07-.43-.13-.86L92,9.6c3.47-1.48,7.11-.59,10.67-.77a10.61,10.61,0,0,1,2.32.35,22.8,22.8,0,0,0,3.6.84,3.29,3.29,0,0,1,2.83,2.05l-4,7c-1.91-1.79,1.74-4.14-.75-5.95C101.92,11.06,96.73,11,91.53,11.09Z"/><path class="cls-111" d="M57.48,81.14a2.06,2.06,0,0,1,1,2c.34.33.64.7,1,1l5,4,4-3a.74.74,0,0,1,.32.72q-.08.4-.2.4a1.78,1.78,0,0,1-.3.83,7,7,0,0,1-.74,1.13l-.71,1a9.54,9.54,0,0,0-1.52,1,3.55,3.55,0,0,1-1.07.55,3.78,3.78,0,0,1-1.2,0A3.38,3.38,0,0,1,62,90.33a4.58,4.58,0,0,1-.82-.82,6.8,6.8,0,0,1-.58-1,5.43,5.43,0,0,0-.59-1L59.61,87a4.27,4.27,0,0,0-1.11-1.35,3.29,3.29,0,0,1-1-.56h0a2.42,2.42,0,0,1-.66-.94l-.39-.92-.75-1.11L53.4,78.24A1.12,1.12,0,0,1,53.3,77a.91.91,0,0,1,1.19.14l2,3C56.82,80.46,57.15,80.79,57.48,81.14Z"/><path class="cls-78" d="M71.42,7.31H81.55c2,.7,4.14.15,6.19.37,1.07.11,2.48.06,1.39,1.84-5.1.25-10.2,0-15.3.13-1.51.43-3,.64-4.33-.48l-.06-.07C68.94,7.22,70.83,8,71.42,7.31Z"/><path class="cls-125" d="M89.49,48.16c-3.37-2.19-7.11-.76-10.66-1-4.76-.26-9.54-.07-14.31-1.05H91.34l-.88,2A.64.64,0,0,1,89.49,48.16Z"/><path class="cls-126" d="M33.5,7.31h16c.7.62,3.14.13,1.44,2.27-2.7.11-5.41,0-8.11.05-1.34,0-2.68,0-4,0C37.2,8.47,34.31,10.33,33.5,7.31Z"/><path class="cls-127" d="M33.5,7.31c1.27,1.65,3.77,0,5,1.81-4.6,1.65-9.32.23-14,.49-1.41-.13-2.18-.8-2-2.3Z"/><path class="cls-128" d="M51.47,9.12l-2-1.81H63.44c.53,1.06-.46,1.31-1,1.81l-2,0A17.88,17.88,0,0,1,51.47,9.12Z"/><path class="cls-129" d="M89.48,9.15c-2.24-2.35-5.62.24-7.92-1.84h13c.75.92,3.52-.65,2.71,2.2a52.14,52.14,0,0,1-5.5.12A3.27,3.27,0,0,1,89.48,9.15Z"/><path class="cls-130" d="M22.52,7.31l1,1.8a2.56,2.56,0,0,1-3.08.06H15.55l-.49.34-.58-.1c-.48-.34-.71-.95-1.27-1.19C16.1,5.8,19.42,7.66,22.52,7.31Z"/><path class="cls-131" d="M61.48,88.14l0,1c.32.35.65.68,1,1h0a1.31,1.31,0,0,0,2,0h0c1-.17,1.58.05,1.11,1.22a.9.9,0,0,1-.32.81q-.37.57-.73,1.14A1.67,1.67,0,0,1,63,95l-.62-1.45a2.3,2.3,0,0,0-.84-1.42v0a1.71,1.71,0,0,1-.64-.91l-.41-1q-.39-.52-.74-1.07a.94.94,0,0,1-.33-.82A1.3,1.3,0,0,1,59.31,87a.77.77,0,0,1,1.17.1A11.6,11.6,0,0,0,61.48,88.14Z"/><path class="cls-132" d="M62.47,9.12l1-1.81h8l-2,1.8Z"/><path class="cls-86" d="M54.49,77.12l-1,0q-.45.54-.84-.05L49.4,71.25a.79.79,0,0,1,0-1.11C52.15,71.74,53.57,74.25,54.49,77.12Z"/><path class="cls-133" d="M100.52,7.31h7c.94.5,1.71,1.05.78,2.21-1.37,1-2.8-.07-4.19.11a11.4,11.4,0,0,1-1.4-.08C101.7,9.06,100.29,9,100.52,7.31Z"/><path class="cls-131" d="M103.47,9.15l5,0a1.76,1.76,0,0,1,1.15-.58,3.58,3.58,0,0,1,2.8,1.59l-1,2-2.92-1c-.87-.78-2.18,0-3-.87l-2,0q-.49-.32-.33-.65T103.47,9.15Z"/><path class="cls-134" d="M100.52,7.31l2,1.8a5.47,5.47,0,0,1-5,0l-3-1.79Z"/><path class="cls-135" d="M112.43,10.13l-2.95-1a1.16,1.16,0,0,1,0-1.82l3.85-.2C114.26,8.63,113.06,9.28,112.43,10.13Z"/><path class="cls-136" d="M94.49,51.14a2.08,2.08,0,0,0-1,2L92.39,52l2.16-3.82.94,1q0,.48,0,1Z"/><path class="cls-137" d="M70.47,42q0-.42,0-.83c2.3.34,4.78-.79,6.93.84Z"/><path class="cls-67" d="M80.48,75.14a8.7,8.7,0,0,1-.12.9c-.61.24-1.18,1.14-1.86.12l1.09-2a.54.54,0,0,1,.9,0h0Q80.48,74.64,80.48,75.14Z"/><path class="cls-138" d="M109.48,7.31V9.13h-1l-1-1.81Z"/><path class="cls-139" d="M60.48,87.14h-1a.51.51,0,0,1-.9,0,.61.61,0,0,1-.25-.65,1.2,1.2,0,0,1,.14-1.35A3.43,3.43,0,0,1,60.48,87.14Z"/><path class="cls-139" d="M65.59,91.36l-1.11-1.22a2.16,2.16,0,0,1,2.35-.89Z"/><path class="cls-43" d="M104.49,23.17q0-1,0-2l1,1a3.83,3.83,0,0,1-.14.84A.52.52,0,0,1,104.49,23.17Z"/><path class="cls-116" d="M26.48,40.13l-.93,0q0-.48-.1-1t0-1q.41-.52.81,0a.84.84,0,0,1,.3.75.92.92,0,0,1-.12,1.21Z"/><path class="cls-140" d="M84.51,68.14q-.05.43-.13.86l-1.08-1.14a.84.84,0,0,1,.3-.7.54.54,0,0,1,.89,0Z"/><path class="cls-31" d="M30.38,45.13l-.8-1.22Z"/><path class="cls-31" d="M31.44,47.16l-1,0,.16-1.32Z"/><path class="cls-13" d="M118.42,7l-.8,1.13Z"/><path class="cls-31" d="M32.14,48.15l-.69-1Z"/><path class="cls-37" d="M13.21,8.22l1.18,1a.62.62,0,0,1-.89-.12A1.85,1.85,0,0,1,13.21,8.22Z"/><path class="cls-95" d="M89.49,48.16a8,8,0,0,0,1,0l-.81,1.15Z"/><path class="cls-83" d="M13.5,9.13a5.82,5.82,0,0,0,.89.12h0a.62.62,0,0,1,.33.81,1.71,1.71,0,0,1-.57.19Z"/><path class="cls-31" d="M33.28,50.15l-.75-1.1Z"/><path class="cls-141" d="M117.45,10.15,116,11l.56-.89Z"/><path class="cls-31" d="M33.49,52.14l.1-1.21.78,1.23a.52.52,0,0,1-.9,0Z"/><path class="cls-115" d="M11.75,13.09,11,12.83l.34-.63A2.31,2.31,0,0,1,11.75,13.09Z"/><path class="cls-88" d="M33.48,52.14l.9,0a1.86,1.86,0,0,1,.43.88l-1.32.09Q33.48,52.64,33.48,52.14Z"/><path class="cls-52" d="M40.48,53.14q0,.5,0,1h0a.6.6,0,0,1-1,0l-.47-.89Z"/><path class="cls-1" d="M19.5,18.12l-.07,1.08-.81-1.13Z"/><path class="cls-115" d="M14.5,20.12l.83-.94a1.68,1.68,0,0,1,.44.87Z"/><path class="cls-67" d="M36.16,55.1l-.68-.95Z"/><path class="cls-84" d="M39.53,54.12h1l-.14,1.25Z"/><path class="cls-1" d="M20.5,20.12a4,4,0,0,1,0,1L19.73,20Q20.11,20.06,20.5,20.12Z"/><path class="cls-67" d="M37.3,57.12,36.53,56Z"/><path class="cls-84" d="M40.59,56.14l.81,1.18Z"/><path class="cls-3" d="M84.47,57.14h.9l-.81,1.16Z"/><path class="cls-67" d="M38.42,59.13l-.82-1.3Z"/><path class="cls-3" d="M83.51,60.2l.73-1.06Z"/><path class="cls-142" d="M110.46,22.14l-1.41.93.53-.91Z"/><path class="cls-143" d="M44.29,62.18l1.17.95h0c-.3.32-.59.33-.86,0A2.28,2.28,0,0,1,44.29,62.18Z"/><path class="cls-3" d="M81.61,63.4l.83-1.26Z"/><path class="cls-13" d="M86.46,62.08l-.68,1Z"/><path class="cls-87" d="M18.33,24.12,17.55,23Z"/><path class="cls-84" d="M44.62,63.09l.86,0-.09,1.15Z"/><path class="cls-17" d="M104.49,23.17q.45-.05.89-.13l-.81,1.17Z"/><path class="cls-39" d="M108.44,24l-.73,1.08Z"/><path class="cls-13" d="M85.42,63.95l-.79,1.17Z"/><path class="cls-30" d="M41.48,66.14l.12-1.22.8,1.23Z"/><path class="cls-84" d="M45.71,65.13l.75,1.06Z"/><path class="cls-87" d="M19.39,26.16l-.91,0,.13-1.26Z"/><path class="cls-13" d="M84.49,67.12l-.89,0,.76-1.33Z"/><path class="cls-144" d="M44.2,69.13l-.71-1Z"/><path class="cls-39" d="M107.39,25.95l.09,1.22c-.27.37-.55.39-.84,0Z"/><path class="cls-84" d="M49.45,70.14l0,1.11-.81-1.15Z"/><path class="cls-120" d="M81.42,71l-.75,1.15Z"/><path class="cls-145" d="M106.64,27.17h.84v0q.39.33.26.67t-.26.33l0,0-1.34-.11Z"/><path class="cls-120" d="M80.48,74.14h-.9l.79-1.26Z"/><path class="cls-146" d="M21.14,29.13l-.67-1Z"/><path class="cls-84" d="M52.61,77.09l.84.05,0,1.09Z"/><path class="cls-44" d="M76.48,81.13h-1l.85-1.29Z"/><path class="cls-28" d="M22.32,31.16,21.55,30Z"/><path class="cls-147" d="M55.69,82.17l.75,1.11Z"/><path class="cls-44" d="M74.43,83l.05,1.14a6.8,6.8,0,0,1-.79,0Z"/><path class="cls-28" d="M23.46,33.14h-1l.13-1.22Z"/><path class="cls-147" d="M56.83,84.2l.66.94Z"/><path class="cls-147" d="M58.48,85.14l-.14,1.35-.85-1.35Z"/><path class="cls-112" d="M25.21,36.09l-.71-1Z"/><path class="cls-84" d="M68.58,86.26l-.13-1.12q.46,0,.93,0Z"/><path class="cls-44" d="M73.38,85l-.8,1.19Z"/><path class="cls-147" d="M58.58,87.13h.9l-.1,1.21Z"/><path class="cls-84" d="M67.53,88.22l.74-1.13Z"/><path class="cls-45" d="M72.32,86.84l-.83,1.31Z"/><path class="cls-45" d="M71.49,88.15l-.68,1Z"/><path class="cls-139" d="M59.71,89.17l.74,1.07Z"/><path class="cls-112" d="M26.3,38.17h-.81l.06-1.22Z"/><path class="cls-45" d="M70.43,90l-.77,1.12Z"/><path class="cls-139" d="M60.86,91.19l.64.91Z"/><path class="cls-139" d="M61.51,92.13l.84,1.42Z"/><path class="cls-139" d="M64.54,93.31l.73-1.14Z"/><path class="cls-112" d="M26.48,40.14l.12-1.21.85,1.22h-1Z"/><path class="cls-8" d="M48.5,66.13a2,2,0,0,1-1-2h1Z"/><path class="cls-8" d="M47.48,64.14l-1-1Z"/><path class="cls-84" d="M62.5,15.16l-6,0c-.28-.95-.63-1.66.93-2.05,3.08-.77,6.08-1.91,9.11-2.9l2.95-.07a4.18,4.18,0,0,1,4.06.06,2.22,2.22,0,0,1-2,1c-2.47.21-5.37-.57-5.87,3.42C65.49,15.58,63.59,15,62.5,15.16Z"/><path class="cls-148" d="M20.44,9.16l3.08-.06,15,0,4,0q.48.33.31.66t-.33.32c-5.8,0-11.6,1-17.42,0C23.51,9.87,21.76,10.56,20.44,9.16Z"/><path class="cls-132" d="M42.48,10.14q0-.49,0-1l9,0,9,0C54.59,11.27,48.48,9.64,42.48,10.14Z"/><path class="cls-8" d="M73.5,10.15l-4.06-.06q0-.46.08-.92h4q.46.33.3.65t-.32.32Z"/><path class="cls-148" d="M14.7,10.06a1.92,1.92,0,0,1-.33-.81l1.18-.07Z"/><path class="cls-91" d="M80.47,15.15c.74-2,.74-2,3.24-.59-.95,1-2.17.39-3.25.59Z"/><path class="cls-84" d="M73.5,10.15q0-.48,0-1l16,0,2,0q.49.24.38.56c-.08.22-.17.34-.26.34l-.16.16-9.94,0Z"/><path class="cls-39" d="M107.48,28.14q0-.5,0-1h1q0,.5,0,1Z"/><path class="cls-147" d="M57.48,81.14l-1-1Z"/><path class="cls-147" d="M59.48,84.14l-1-1Z"/><path class="cls-78" d="M91.56,10.06a7.29,7.29,0,0,1-.11-.89l6-.07,5,0,1,0q0,.49,0,1Z"/><path class="cls-78" d="M105.45,10.17c1.1,0,2.25-.22,3,.87C107.36,11.13,106.23,11.26,105.45,10.17Z"/><path class="cls-139" d="M64.48,90.14c-.67,1-1.33,1-2,0Z"/><path class="cls-139" d="M61.48,88.14l-1-1Z"/><path class="cls-139" d="M62.48,90.13l-1-1Z"/></g></g></svg>
