<?xml version="1.0"?>
<svg xmlns="http://www.w3.org/2000/svg" width="100" height="100" viewBox="0 0 82 47" fill="none">
<defs>
<linearGradient id="paint0" x1="0" y1="0" x2="34.3611" y2="38.6488" gradientUnits="userSpaceOnUse">
<stop stop-color="#17B9FF"/>
<stop offset="1" stop-color="#1769FF"/>
</linearGradient>
<linearGradient id="paint1" x1="20" y1="26" x2="35.7821" y2="55.0146" gradientUnits="userSpaceOnUse">
<stop stop-color="#17B9FF"/>
<stop offset="1" stop-color="#1769FF"/>
</linearGradient>
</defs>
<path d="M16.2138 31.3847C16.2138 31.6515 15.474 31.8698 13.9945 32.0395C12.5151 32.1851 11.0234 32.2578 9.51968 32.2578C8.04018 32.2578 7.09427 32.1972 6.68196 32.0759C6.26964 31.9304 6.06348 31.7 6.06348 31.3847V8.75567C6.06348 8.22209 6.76685 7.70062 8.17358 7.19129C9.58031 6.6577 11.1568 6.39091 12.9031 6.39091C14.4554 6.39091 15.474 6.71834 15.9591 7.37319C16.1289 7.61574 16.2138 7.85828 16.2138 8.10082V31.3847Z" fill="white"/>
<path d="M37.3648 32.0032C36.3947 32.2215 35.4002 32.367 34.3816 32.4397C33.3872 32.5368 32.4049 32.5853 31.4347 32.5853C30.4888 32.5853 29.7491 32.561 29.2155 32.5125C28.7061 32.464 28.027 32.3427 27.1781 32.1487C26.3292 31.9547 25.5531 31.6879 24.8497 31.3483C24.1464 31.0088 23.3945 30.5115 22.5941 29.8567C21.818 29.2018 21.1631 28.4257 20.6295 27.5283C19.3926 25.4424 18.7741 22.7503 18.7741 19.4517C18.7741 17.2446 19.1137 15.2921 19.7928 13.5944C20.4961 11.8966 21.3329 10.5869 22.3031 9.6652C23.2975 8.74355 24.4253 8.0038 25.6865 7.44596C27.7238 6.5243 29.7733 6.06348 31.8349 6.06348C34.7939 6.06348 36.9161 6.30602 38.2016 6.7911C38.7837 7.00938 39.3051 7.34894 39.766 7.80977C40.2268 8.27059 40.4572 8.93758 40.4572 9.81072C40.4572 10.6839 40.2389 11.7874 39.8024 13.1214C39.39 14.4554 38.7837 15.1224 37.9833 15.1224C37.7408 15.1224 36.8434 14.9283 35.2911 14.5403C33.7388 14.1522 32.6838 13.9582 32.126 13.9582C31.2771 13.9582 30.5494 14.4311 29.9431 15.377C29.361 16.3229 29.0699 17.669 29.0699 19.4153C29.0699 21.1616 29.3246 22.5198 29.8339 23.49C30.3675 24.4602 31.0588 24.9452 31.9077 24.9452C32.514 24.9452 33.6054 24.7027 35.182 24.2176C36.7827 23.7083 37.7165 23.4536 37.9833 23.4536C38.7352 23.4536 39.3173 24.1449 39.7296 25.5273C40.1662 26.9098 40.3845 28.0255 40.3845 28.8744C40.3845 29.7233 40.1177 30.4024 39.5841 30.9117C39.0747 31.3968 38.335 31.7606 37.3648 32.0032Z" fill="white"/>
<path d="M61.4582 32.2578H46.0326C44.8442 32.2578 44.0438 32.1729 43.6315 32.0032C43.2191 31.8334 43.013 31.5666 43.013 31.2028V8.17358C43.013 7.54297 43.2919 7.09427 43.8497 6.82748C44.4318 6.56068 45.4626 6.42729 46.9421 6.42729H61.5673C62.0766 6.42729 62.3313 7.27618 62.3313 8.97396C62.3313 10.6475 62.2222 11.933 62.0039 12.8304C61.7856 13.7035 61.4946 14.1401 61.1307 14.1401C59.5542 14.1401 56.8984 13.9824 53.1633 13.6671V16.1046C56.7529 15.9591 59.0934 15.8864 60.1848 15.8864C60.8397 15.8864 61.1671 16.6504 61.1671 18.1784C61.1671 19.7064 61.0337 20.8706 60.7669 21.6709C60.5244 22.4471 60.1848 22.8351 59.7483 22.8351L53.1633 22.6896V25.018C57.3835 24.7027 60.294 24.545 61.8947 24.545C62.4041 24.545 62.6587 25.3939 62.6587 27.0917C62.6587 28.7895 62.5496 30.075 62.3313 30.9481C62.113 31.8213 61.822 32.2578 61.4582 32.2578Z" fill="white"/>
<path fill-rule="evenodd" clip-rule="evenodd" d="M14.6859 38.0636C14.6533 38.0673 14.6207 38.0708 14.5881 38.074C12.9091 38.2391 11.2194 38.3214 9.51971 38.3214C8.7135 38.3214 7.96526 38.3053 7.31277 38.2635C6.79542 38.2303 5.87365 38.1585 4.97107 37.8931C4.86783 37.8627 4.76541 37.8296 4.66393 37.7938C3.87193 37.5143 2.70544 36.9616 1.69935 35.8371C0.580008 34.5861 0 33.0016 0 31.3847V8.75571C0 5.60346 2.07404 3.76509 2.97986 3.09353C4.0066 2.33232 5.14987 1.83975 6.06713 1.50535C8.24874 0.684704 10.5541 0.32743 12.9031 0.32743C14.6775 0.32743 18.1822 0.588684 20.5263 3.37726C21.3751 2.81706 22.2709 2.32816 23.2099 1.91128C25.9585 0.671355 28.8487 0 31.8349 0C34.8754 0 37.9489 0.216568 40.336 1.1157C40.5913 1.21159 40.8407 1.31678 41.0842 1.4308C41.1341 1.40567 41.1839 1.38121 41.2336 1.35741C41.2634 1.34316 41.2934 1.32915 41.3234 1.31539C43.2178 0.447132 45.4437 0.36381 46.9422 0.36381H61.5673C63.6322 0.36381 65.318 1.31847 66.4086 2.53021C67.3429 3.56833 67.755 4.67774 67.9481 5.32165C68.3362 6.61515 68.3949 7.97025 68.3949 8.97399C68.3949 10.808 68.285 12.6627 67.8956 14.2635C67.8926 14.276 67.8895 14.2885 67.8864 14.301C67.7537 14.8318 67.5302 15.5971 67.1199 16.401C67.212 17.0777 67.2307 17.6921 67.2307 18.1784C67.2307 19.1008 67.1928 20.0786 67.0716 21.0514C67.7728 21.9641 68.1073 22.8784 68.2756 23.4394C68.6636 24.7329 68.7223 26.088 68.7223 27.0918C68.7223 28.9303 68.6155 30.8119 68.2138 32.4188C68.0388 33.119 67.7057 34.2271 66.9945 35.2939C66.2593 36.3966 64.472 38.3214 61.4582 38.3214H46.0326C45.3151 38.3214 44.5882 38.2967 43.9015 38.2239C43.3096 38.1611 42.3285 38.0241 41.3228 37.61C41.1112 37.5229 40.8845 37.4185 40.6493 37.2935C40.03 37.5492 39.4164 37.7404 38.8355 37.8857C38.7891 37.8973 38.7425 37.9083 38.6959 37.9188C37.4478 38.1996 36.1793 38.3864 34.8936 38.482C33.7351 38.5927 32.5819 38.6488 31.4347 38.6488C30.4212 38.6488 29.4698 38.6242 28.6665 38.5511L28.6406 38.5487C27.7517 38.4641 26.7811 38.2779 25.8271 38.0598C24.5843 37.7757 23.3709 37.3675 22.2137 36.8088C21.5999 36.5126 21.0084 36.1702 20.4396 35.7955C20.0129 36.2225 19.6196 36.5023 19.4001 36.6463C18.5742 37.1879 17.7736 37.4465 17.3751 37.5641C16.4903 37.8252 15.5158 37.9683 14.6859 38.0636ZM16.0428 31.5957C15.746 31.769 15.0633 31.9169 13.9946 32.0396C12.5151 32.1851 11.0235 32.2579 9.51971 32.2579C8.04021 32.2579 7.09431 32.1972 6.68199 32.076C6.26967 31.9304 6.06351 31.7 6.06351 31.3847V8.75571C6.06351 8.22212 6.76688 7.70066 8.17361 7.19132C9.58034 6.65773 11.1569 6.39094 12.9031 6.39094C14.4554 6.39094 15.4741 6.71837 15.9592 7.37323C16.0242 7.46613 16.0768 7.55903 16.1169 7.65193C16.1815 7.80157 16.2138 7.95121 16.2138 8.10085V31.3847C16.2138 31.4588 16.1568 31.5291 16.0428 31.5957ZM22.2773 29.5764C22.3806 29.6722 22.4862 29.7656 22.5942 29.8567C23.3945 30.5116 24.1464 31.0088 24.8498 31.3483C25.5531 31.6879 26.3293 31.9547 27.1782 32.1487C28.0271 32.3428 28.7062 32.464 29.2155 32.5125C29.7491 32.561 30.4888 32.5853 31.4347 32.5853C32.4049 32.5853 33.3872 32.5368 34.3816 32.4398C35.2748 32.376 36.1493 32.2562 37.0052 32.0806C37.1255 32.0559 37.2453 32.0301 37.3649 32.0032C38.1302 31.8119 38.7521 31.5451 39.2306 31.2028C39.3587 31.1112 39.4766 31.0142 39.5841 30.9118C40.1177 30.4024 40.3845 29.7233 40.3845 28.8744C40.3845 28.0255 40.1662 26.9099 39.7296 25.5274C39.3173 24.1449 38.7352 23.4537 37.9833 23.4537C37.8376 23.4537 37.493 23.5296 36.9495 23.6815C36.4977 23.8077 35.9086 23.9865 35.182 24.2177C33.6055 24.7027 32.514 24.9453 31.9077 24.9453C31.0588 24.9453 30.3676 24.4602 29.834 23.49C29.3246 22.5199 29.07 21.1616 29.07 19.4154C29.07 17.6691 29.361 16.323 29.9431 15.3771C30.5495 14.4312 31.2771 13.9582 32.126 13.9582C32.6838 13.9582 33.7389 14.1522 35.2911 14.5403C35.9687 14.7097 36.5215 14.8421 36.9495 14.9376C37.5021 15.0608 37.8467 15.1224 37.9833 15.1224C38.7837 15.1224 39.3901 14.4554 39.8024 13.1214C40.239 11.7875 40.4572 10.6839 40.4572 9.81076C40.4572 9.14529 40.3234 8.59957 40.0557 8.17361C39.9722 8.04068 39.8756 7.9194 39.766 7.8098C39.3052 7.34897 38.7837 7.00942 38.2016 6.79113C37.893 6.67468 37.5362 6.57221 37.1312 6.48371C35.849 6.20358 34.0836 6.06351 31.8349 6.06351C29.7733 6.06351 27.7239 6.52433 25.6865 7.44599C24.4253 8.00383 23.2975 8.74358 22.3031 9.66523C22.2945 9.6734 22.2859 9.68161 22.2773 9.68984C21.3181 10.6101 20.4899 11.9117 19.7928 13.5944C19.1137 15.2922 18.7741 17.2446 18.7741 19.4517C18.7741 22.7503 19.3926 25.4425 20.6296 27.5283C21.0889 28.3009 21.6382 28.9836 22.2773 29.5764ZM43.013 31.2028C43.013 31.5666 43.2192 31.8334 43.6315 32.0032C44.0188 32.1627 44.7484 32.2472 45.8204 32.2569C45.8897 32.2576 45.9605 32.2579 46.0326 32.2579H61.4582C61.822 32.2579 62.1131 31.8213 62.3314 30.9481C62.4969 30.2858 62.5997 29.3861 62.6397 28.2492C62.6524 27.8874 62.6588 27.5016 62.6588 27.0918C62.6588 25.394 62.4041 24.5451 61.8948 24.5451C61.3378 24.5451 60.6223 24.5642 59.7483 24.6023C59.7353 24.6029 59.7223 24.6035 59.7092 24.604C59.5534 24.6109 59.3926 24.6184 59.2268 24.6265C57.6542 24.703 55.633 24.8335 53.1633 25.018V22.6899L59.7483 22.8352C60.1849 22.8352 60.5244 22.4471 60.767 21.671C60.8999 21.2722 60.9997 20.783 61.0664 20.2035C61.0932 19.9707 61.1147 19.7233 61.1308 19.4613C61.1495 19.157 61.161 18.8329 61.1653 18.4892C61.1665 18.3873 61.1672 18.2837 61.1672 18.1784C61.1672 17.8843 61.155 17.6185 61.1308 17.3811C61.029 16.3846 60.7137 15.8864 60.1849 15.8864C59.9324 15.8864 59.613 15.8903 59.2268 15.8981C57.9437 15.924 55.9225 15.9928 53.1633 16.1047V13.6671C55.671 13.8788 57.6921 14.0195 59.2268 14.089C59.5706 14.1046 59.8899 14.1166 60.1849 14.1251C60.5345 14.1351 60.8498 14.1401 61.1308 14.1401C61.4946 14.1401 61.7856 13.7035 62.0039 12.8304C62.1673 12.1586 62.2696 11.2693 62.3107 10.1626C62.3245 9.79093 62.3314 9.39473 62.3314 8.97399C62.3314 7.27621 62.0767 6.42732 61.5673 6.42732H46.9422C46.5795 6.42732 46.2438 6.43533 45.9351 6.45136C44.9843 6.50073 44.2892 6.62611 43.8498 6.82751C43.2919 7.0943 43.013 7.543 43.013 8.17361V31.2028Z" fill="url(#paint0)"/>
<path d="M29.0808 26.5013C30.2296 26.1521 31.4653 25.7885 32.6592 26.1489C33.4991 26.2905 34.2344 26.7684 34.8024 27.3894C35.9818 28.5158 36.7171 30.1795 36.4596 31.8223C36.3309 32.3436 36.5755 32.9534 37.0904 33.1545C37.5602 33.2173 38.0735 33.2704 38.516 33.058C39.1901 32.7442 39.9158 32.5383 40.6543 32.453C41.2947 32.4111 41.919 32.6155 42.5192 32.815C43.3462 32.0958 44.7106 32.1843 45.4234 33.0258C45.9608 33.5181 46.0493 34.2679 46.2585 34.9244C46.3679 35.3508 46.9214 35.4361 47.2496 35.2317C47.7275 34.7056 47.7999 33.9638 48.1635 33.3733C48.7524 32.3613 49.7838 31.5696 50.9519 31.3814C51.6792 31.2253 52.5127 31.4409 53.0356 31.9815C53.4298 32.527 53.5875 33.2704 53.3976 33.9236C53.3172 34.4256 53.0404 34.8665 52.9198 35.3556C52.8908 36.181 52.9004 37.0209 53.063 37.8335C53.853 36.239 54.6768 34.6493 55.7291 33.2092C56.3067 32.5077 56.1313 31.4988 56.6398 30.7603C57.1225 29.9156 58.1168 29.3894 59.0855 29.4989C60.532 29.6662 61.6422 31.0081 61.7789 32.4192C62.2793 31.9671 63.0275 31.8062 63.6663 32.0379C64.178 32.1778 64.5191 32.6155 64.8312 33.0161C65.8867 32.3001 67.2753 31.7627 68.5255 32.2889C69.6695 32.7667 70.3324 33.9831 70.4659 35.1738C71.4506 33.6984 72.9454 32.4433 74.7298 32.1247C75.9848 31.7901 77.4474 32.1199 78.3243 33.1127C78.8456 33.7161 79.4522 34.2535 79.8883 34.9292C80.2632 35.5181 80.2567 36.2454 80.4595 36.8938C80.8054 37.346 81.1546 37.8914 80.992 38.4884C80.9293 39.1255 80.4482 39.5793 79.9639 39.9381C79.2302 42.2229 77.832 44.4063 75.7435 45.6661C73.9591 46.7425 71.4973 46.4851 70.0074 45.0145C68.9116 45.9316 67.5134 46.4771 66.0862 46.5382C64.9068 46.4851 63.6245 46.1617 62.8682 45.1834C62.3067 44.5591 62.186 43.7064 62.0299 42.9147C61.5858 43.9075 61.1482 44.9035 60.7154 45.901C60.5159 46.3902 60.0139 46.7297 59.4829 46.712C58.8908 46.757 58.3984 46.3644 57.8369 46.2631C56.9342 46.3596 56.0686 46.7796 55.1434 46.6911C54.3196 46.5993 53.4684 46.4127 52.8168 45.8672C50.4757 47.1174 47.3429 47.3073 45.1354 45.6774C44.0847 46.4819 42.8023 47.0032 41.4685 47C40.5385 46.9163 39.5811 46.6734 38.8683 46.0362C37.7517 46.6927 36.4082 47.2124 35.1049 46.8616C33.7485 46.6492 32.656 45.5342 32.2601 44.2502C30.7557 46.078 28.3567 47.0402 26.0124 46.9388C24.796 46.8117 23.5442 46.506 22.5756 45.7176C20.6882 44.2389 19.9046 41.7241 20.0092 39.3942C20.1846 36.9952 20.973 34.6396 22.3069 32.6348C23.1532 31.3621 24.0993 30.1408 25.2175 29.0934C26.3953 28.0894 27.6053 27.0387 29.0808 26.5013Z" fill="url(#paint1)"/>
<path d="M30.7669 27.7693C31.6905 27.5424 32.7653 27.552 33.5489 28.1586C34.2601 28.7524 34.8812 29.5038 35.1595 30.4C35.4186 31.235 35.2126 32.1345 34.8377 32.9004C34.4596 33.6872 34.1523 34.5062 33.8691 35.3316C33.7758 35.6453 33.417 35.8642 33.0984 35.7435C32.3084 35.4587 31.8418 34.5866 31.8836 33.7708C31.9399 32.4611 32.7331 31.3396 32.9455 30.0653C32.9825 29.8063 32.9841 29.4603 32.709 29.3284C32.2617 29.2109 31.8128 29.441 31.4138 29.6212C30.1426 30.2793 29.0501 31.235 28.0702 32.2664C26.4516 33.9864 25.1853 36.0894 24.7155 38.4225C24.4259 39.8561 24.2843 41.4168 24.8651 42.7973C25.1644 43.5085 25.8418 44.1811 26.6704 44.091C27.882 43.9478 28.8249 43.0516 29.5956 42.1747C30.3534 41.2897 30.9536 40.2857 31.491 39.2559C31.6342 38.8714 32.2054 38.7105 32.4741 39.058C32.8683 39.5858 32.8844 40.3098 32.7364 40.9293C32.4644 41.9719 31.7967 42.8633 31.0405 43.6083C29.5988 45.0677 27.3607 45.6742 25.3768 45.161C24.347 44.9003 23.454 44.2149 22.8893 43.3219C21.9045 41.8368 21.7517 39.9575 22.0494 38.239C22.5642 35.2399 24.2778 32.5609 26.4275 30.4595C27.6696 29.293 29.063 28.1442 30.7669 27.7693Z" fill="white"/>
<path d="M58.3855 31.0404C59.7998 30.9245 60.7008 33.0902 59.5794 33.9993C58.865 34.4675 57.8996 33.9671 57.5536 33.2656C57.0983 32.4869 57.4764 31.2737 58.3855 31.0404Z" fill="white"/>
<path d="M49.2383 34.3131C49.6229 33.5987 50.3067 32.9776 51.1305 32.8521C51.4442 32.791 51.8738 32.9036 51.9092 33.2785C51.9945 34.0395 51.2801 34.5995 51.3381 35.3541C51.2769 37.1369 51.6261 38.8971 51.7146 40.6735C51.7612 41.552 51.6341 42.4353 51.3252 43.2591C52.0396 42.6477 52.9068 42.025 53.1015 41.0435C53.7419 39.1369 54.7025 37.3525 55.692 35.6067C56.0492 35.0564 56.3179 34.4144 56.836 33.9929C57.1449 33.758 57.4957 34.0476 57.6743 34.3018C58.1924 35.013 58.1377 35.9864 57.8513 36.7781C57.4281 37.8593 56.8489 38.8698 56.3211 39.9028C55.8014 40.91 55.2093 41.9317 55.1192 43.087C55.1112 43.3702 55.0854 43.7113 55.3123 43.9237C55.7145 44.062 56.1264 43.8175 56.4482 43.5938C57.2093 42.9936 57.8658 42.2068 58.12 41.2543C59.1884 38.7266 60.5496 36.3324 61.9864 33.9993C62.1683 33.7161 62.4305 33.2946 62.8312 33.4474C63.4909 33.9285 63.5649 34.8473 63.5456 35.6003C64.4579 34.7443 65.4603 33.8545 66.7137 33.5794C67.6099 33.4008 68.3082 34.2551 68.482 35.0468C68.6976 35.8175 68.2857 36.556 67.9542 37.2254C67.0966 38.9486 65.8947 40.548 65.5166 42.4707C65.4587 42.9084 65.4442 43.5536 65.9365 43.7467C66.4015 43.7772 66.7925 43.4651 67.124 43.1755C67.9752 42.379 68.5978 41.3766 69.169 40.371C69.457 39.8834 69.478 39.301 69.6694 38.7781C70.1891 37.264 71.021 35.8239 72.2149 34.7411C73.1143 33.9317 74.3291 33.3509 75.5632 33.5295C76.4852 33.6711 76.9309 34.5786 77.5745 35.1433C78.3323 35.8223 78.3516 36.9132 78.2873 37.8513C78.5109 37.906 78.7329 37.9655 78.955 38.0299V38.1425C78.852 38.5351 78.4642 38.6912 78.1264 38.8295C77.6517 40.6043 76.7539 42.3018 75.3959 43.5568C74.5817 44.3018 73.494 44.8778 72.3581 44.7105C71.1658 44.5785 70.1698 43.7209 69.6469 42.6702C68.7813 43.7306 67.6067 44.6123 66.2406 44.8714C65.2881 45.0097 64.1329 44.8762 63.515 44.0524C62.9261 43.2334 63.0355 42.1393 63.3026 41.2221C63.8304 39.4506 64.7217 37.8127 65.6855 36.2439C65.8931 35.9124 66.0669 35.5584 66.1827 35.1835C65.0532 35.6759 64.1666 36.5657 63.3332 37.449C61.4571 39.4587 60.445 42.0653 59.3268 44.5319C59.2238 44.7764 59.0227 45.0564 58.7186 44.9856C58.3163 44.8665 58.1007 44.4788 57.8658 44.165C56.799 44.8987 55.4088 45.3524 54.1361 44.9132C53.5858 44.7346 53.1884 44.2744 52.9615 43.7547C51.5327 45.0033 49.5199 45.4924 47.6679 45.1288C46.6317 44.9422 45.7162 44.3098 45.1289 43.4442C44.1458 44.6429 42.6253 45.6356 41.0131 45.3331C40.1619 45.2092 39.4877 44.5431 39.2673 43.7274C38.5803 44.3774 37.8031 44.9679 36.8908 45.2543C35.9688 45.5407 34.8425 45.309 34.2376 44.519C33.5779 43.6646 33.5457 42.4981 33.75 41.4796C34.1121 39.6244 35.2609 38.0524 36.4692 36.6493C37.5296 35.4876 38.7878 34.3549 40.3646 34.0009C41.285 33.7773 42.3341 34.1892 42.7009 35.0983C42.9551 34.6831 43.1354 34.1876 43.5344 33.8867C43.8884 33.6582 44.3035 33.9478 44.4692 34.2712C44.9921 35.2045 44.8007 36.3613 44.3501 37.2833C43.499 39.0001 42.3292 40.5608 41.6937 42.3822C41.5263 42.91 41.3719 43.4892 41.5215 44.0395C41.6438 44.4064 42.1008 44.268 42.3485 44.1264C43.211 43.6131 43.7725 42.7394 44.3099 41.9156C44.6253 41.478 44.4451 40.9036 44.6189 40.416C44.8039 39.8014 45.1965 39.153 45.8385 38.9502C46.1925 38.8617 46.3163 39.2543 46.4193 39.5053C47.2045 38.3034 48.0058 37.1111 48.7363 35.8754C49.0147 35.3943 48.9567 34.7974 49.2383 34.3131ZM75.7499 35.6743C75.7289 36.268 75.8705 36.8698 76.1875 37.375C76.4015 36.8376 76.5576 36.2648 76.5495 35.6823C76.5447 35.4667 76.4369 35.2189 76.21 35.1578C75.9285 35.1337 75.7756 35.4394 75.7499 35.6743ZM38.9375 37.5037C37.6712 39.0291 36.5127 40.762 36.178 42.7523C36.1233 43.2302 36.0348 43.8223 36.4355 44.1827C37.4781 43.9896 38.0766 43.0081 38.6623 42.2213C39.5634 40.8794 40.3759 39.4699 40.9922 37.9752C41.2319 37.3428 41.4926 36.6831 41.4459 35.9945C41.4604 35.7515 41.1965 35.5472 40.9729 35.6952C40.1506 36.1055 39.5424 36.8312 38.9375 37.5037ZM71.5101 41.4908C71.457 42.0282 71.3798 42.6348 71.6791 43.1175C71.9188 43.4667 72.408 43.338 72.7104 43.1481C73.4329 42.7008 73.9413 41.9896 74.3967 41.2881C74.9405 40.3838 75.4618 39.4522 75.774 38.4386C74.9566 37.9478 74.3001 37.1803 74.0524 36.2471C72.6831 37.6711 71.8014 39.5407 71.5101 41.4908ZM48.9455 38.3163C48.2327 39.4635 47.5263 40.6139 46.7653 41.7306C46.9825 42.4418 47.2319 43.1932 47.7822 43.7209C47.9929 43.9253 48.3904 44.0781 48.6027 43.7917C48.9133 43.3589 48.9535 42.8006 49.0195 42.2889C49.1273 40.9663 49.0388 39.6373 48.9455 38.3163Z" fill="white"/>
</svg>
