<?xml version="1.0" encoding="utf-8"?>
<!-- Generator: Adobe Illustrator 22.1.0, SVG Export Plug-In . SVG Version: 6.00 Build 0)  -->
<svg xmlns="http://www.w3.org/2000/svg" xmlns:xlink="http://www.w3.org/1999/xlink" version="1.1" baseProfile="basic" id="Слой_1" x="0px" y="0px" viewBox="0 0 82 47" xml:space="preserve" width="120" height="120">
<style type="text/css">
	.st0{fill:#FFFFFF;}
	.st1{fill:#3B7EF4;}
</style>
<path class="st0" d="M16.2,31.4c0,0.3-0.7,0.5-2.2,0.7c-1.5,0.1-3,0.2-4.5,0.2c-1.5,0-2.4-0.1-2.8-0.2c-0.4-0.1-0.6-0.4-0.6-0.7V8.8  c0-0.5,0.7-1.1,2.1-1.6c1.4-0.5,3-0.8,4.7-0.8c1.6,0,2.6,0.3,3.1,1c0.2,0.2,0.3,0.5,0.3,0.7C16.2,8.1,16.2,31.4,16.2,31.4z M37.4,32  c-1,0.2-2,0.4-3,0.4c-1,0.1-2,0.1-2.9,0.1c-0.9,0-1.7,0-2.2-0.1c-0.5,0-1.2-0.2-2-0.4c-0.8-0.2-1.6-0.4-2.3-0.8  c-0.7-0.3-1.5-0.8-2.3-1.5c-0.8-0.7-1.4-1.4-2-2.3c-1.2-2.1-1.9-4.8-1.9-8.1c0-2.2,0.3-4.2,1-5.9c0.7-1.7,1.5-3,2.5-3.9  c1-0.9,2.1-1.7,3.4-2.2c2-0.9,4.1-1.4,6.1-1.4c3,0,5.1,0.2,6.4,0.7c0.6,0.2,1.1,0.6,1.6,1c0.5,0.5,0.7,1.1,0.7,2  c0,0.9-0.2,2-0.7,3.3c-0.4,1.3-1,2-1.8,2c-0.2,0-1.1-0.2-2.7-0.6S32.7,14,32.1,14c-0.8,0-1.6,0.5-2.2,1.4c-0.6,0.9-0.9,2.3-0.9,4  c0,1.7,0.3,3.1,0.8,4.1c0.5,1,1.2,1.5,2.1,1.5c0.6,0,1.7-0.2,3.3-0.7c1.6-0.5,2.5-0.8,2.8-0.8c0.8,0,1.3,0.7,1.7,2.1  c0.4,1.4,0.7,2.5,0.7,3.3c0,0.9-0.3,1.5-0.8,2C39.1,31.4,38.3,31.8,37.4,32z M61.5,32.3H46c-1.2,0-2-0.1-2.4-0.3  c-0.4-0.2-0.6-0.4-0.6-0.8v-23c0-0.6,0.3-1.1,0.8-1.3c0.6-0.3,1.6-0.4,3.1-0.4h14.6c0.5,0,0.8,0.8,0.8,2.5c0,1.7-0.1,3-0.3,3.9  c-0.2,0.9-0.5,1.3-0.9,1.3c-1.6,0-4.2-0.2-8-0.5v2.4c3.6-0.1,5.9-0.2,7-0.2c0.7,0,1,0.8,1,2.3s-0.1,2.7-0.4,3.5  c-0.2,0.8-0.6,1.2-1,1.2l-6.6-0.1V25c4.2-0.3,7.1-0.5,8.7-0.5c0.5,0,0.8,0.8,0.8,2.5c0,1.7-0.1,3-0.3,3.9S61.8,32.3,61.5,32.3z"/>
<path class="st1" d="M14.7,38.1c-1.7,0.2-3.4,0.3-5.2,0.3c-0.8,0-1.6,0-2.2-0.1c-0.5,0-1.4-0.1-2.3-0.4c-0.1,0-0.2-0.1-0.3-0.1  c-0.8-0.3-2-0.8-3-2C0.6,34.6,0,33,0,31.4V8.8c0-3.2,2.1-5,3-5.7c1-0.8,2.2-1.3,3.1-1.6c2.2-0.8,4.5-1.2,6.8-1.2  c1.8,0,5.3,0.3,7.6,3c0.9-0.6,1.7-1,2.7-1.5C26,0.7,28.8,0,31.8,0c3,0,6.1,0.2,8.5,1.1c0.3,0.1,0.5,0.2,0.7,0.3  c0.1,0,0.2-0.1,0.2-0.1c1.9-0.9,4.1-1,5.6-1h14.6c1.8,0,3.6,0.8,4.8,2.2c0.9,1,1.3,2.1,1.5,2.8C68.3,6.6,68.4,8,68.4,9  c0,1.8-0.1,3.7-0.5,5.3c-0.2,0.7-0.4,1.5-0.8,2.1c0.1,0.7,0.1,1.3,0.1,1.8c0,0.9,0,1.9-0.2,2.9c0.5,0.7,1,1.5,1.2,2.4  c0.4,1.3,0.4,2.6,0.4,3.7c0,1.8-0.1,3.7-0.5,5.3c-0.2,0.7-0.5,1.8-1.2,2.9c-0.7,1.1-2.5,3-5.5,3H46c-0.7,0-1.4,0-2.1-0.1  c-0.6-0.1-1.6-0.2-2.6-0.6c-0.2-0.1-0.5-0.2-0.7-0.3c-0.6,0.3-1.3,0.5-2,0.6c-1.2,0.3-2.5,0.5-3.8,0.6c-1.2,0.1-2.3,0.2-3.5,0.2  c-1,0-2,0-2.8-0.1l0,0c-0.9-0.1-1.9-0.3-2.8-0.5c-1.2-0.3-2.5-0.7-3.6-1.3c-0.6-0.3-1.2-0.6-1.8-1c-0.4,0.4-0.8,0.7-1,0.9  c-0.8,0.5-1.6,0.8-2,0.9C16.5,37.8,15.5,38,14.7,38.1L14.7,38.1z M22.3,29.6c0.1,0.1,0.2,0.2,0.3,0.3c0.8,0.7,1.6,1.2,2.3,1.5  c0.7,0.3,1.5,0.6,2.3,0.8c0.9,0.2,1.5,0.3,2,0.4c0.5,0,1.3,0.1,2.2,0.1c1,0,2,0,2.9-0.1c1-0.1,2-0.2,3-0.4c0.8-0.2,1.4-0.5,1.9-0.8  c0.1-0.1,0.2-0.2,0.4-0.3c0.5-0.5,0.8-1.2,0.8-2c0-0.8-0.2-2-0.7-3.3c-0.4-1.4-1-2.1-1.7-2.1c-0.1,0-0.5,0.1-1,0.2  c-0.5,0.1-1,0.3-1.8,0.5c-1.6,0.5-2.7,0.7-3.3,0.7c-0.9,0-1.5-0.5-2.1-1.5c-0.5-1-0.8-2.3-0.8-4.1c0-1.7,0.3-3.1,0.9-4  c0.6-0.9,1.3-1.4,2.2-1.4c0.6,0,1.6,0.2,3.2,0.6c0.7,0.2,1.2,0.3,1.7,0.4c0.6,0.1,0.9,0.2,1,0.2c0.8,0,1.4-0.7,1.8-2  c0.4-1.3,0.7-2.4,0.7-3.3c0-0.7-0.1-1.2-0.4-1.6C40,8,39.9,7.9,39.8,7.8c-0.5-0.5-1-0.8-1.6-1c-0.3-0.1-0.7-0.2-1.1-0.3  c-1.3-0.3-3-0.4-5.3-0.4c-2.1,0-4.1,0.5-6.1,1.4c-1.3,0.6-2.4,1.3-3.4,2.2c-1,0.9-1.8,2.2-2.5,3.9c-0.7,1.7-1,3.7-1,5.9  c0,3.3,0.6,6,1.9,8.1C21.1,28.3,21.6,29,22.3,29.6z M43,31.2c0,0.4,0.2,0.6,0.6,0.8c0.4,0.2,1.1,0.2,2.2,0.3h15.6  c0.4,0,0.7-0.4,0.9-1.3c0.2-0.7,0.3-1.6,0.3-2.7c0-0.4,0-0.7,0-1.2c0-1.7-0.3-2.5-0.8-2.5c-0.7,0-1.5,0-2.2,0.1c-0.2,0-0.3,0-0.5,0  c-1.6,0.1-3.6,0.2-6.1,0.4v-2.3l6.6,0.1c0.4,0,0.8-0.4,1-1.2c0.1-0.4,0.2-0.9,0.3-1.5c0-0.2,0-0.5,0.1-0.7c0-0.4,0-0.9,0-1.3  c0-0.3,0-0.6,0-0.8c-0.1-1-0.4-1.5-0.9-1.5c-0.3,0-0.6,0-1,0c-2,0.1-4,0.1-6.1,0.2v-2.4c2.5,0.2,4.5,0.4,6.1,0.4c0.3,0,0.7,0,1,0  c0.3,0,0.7,0,0.9,0c0.4,0,0.7-0.4,0.9-1.3c0.2-0.7,0.3-1.6,0.3-2.7c0-0.4,0-0.8,0-1.2c0-1.7-0.3-2.5-0.8-2.5H46.9c-0.4,0-0.7,0-1,0  c-1,0.1-1.6,0.2-2.1,0.4C43.3,7.1,43,7.5,43,8.2C43,8.2,43,31.2,43,31.2z"/>
<path class="st1" d="M29.1,26.5c1.1-0.3,2.4-0.7,3.6-0.4c0.8,0.1,1.6,0.6,2.1,1.2c1.2,1.1,1.9,2.8,1.7,4.4c-0.1,0.5,0.1,1.1,0.6,1.3  c0.5,0.1,1,0.1,1.4-0.1c0.7-0.3,1.4-0.5,2.1-0.6c0.6,0,1.3,0.2,1.9,0.4c0.8-0.7,2.2-0.6,2.9,0.2c0.5,0.5,0.6,1.2,0.8,1.9  c0.1,0.4,0.7,0.5,1,0.3c0.5-0.5,0.5-1.3,0.9-1.9c0.6-1,1.6-1.8,2.8-2c0.7-0.2,1.6,0.1,2.1,0.6c0.4,0.5,0.6,1.3,0.4,1.9  c-0.1,0.5-0.4,0.9-0.5,1.4c0,0.8,0,1.7,0.1,2.5c0.8-1.6,1.6-3.2,2.7-4.6c0.6-0.7,0.4-1.7,0.9-2.4c0.5-0.8,1.5-1.4,2.4-1.3  c1.4,0.2,2.6,1.5,2.7,2.9c0.5-0.5,1.2-0.6,1.9-0.4c0.5,0.1,0.9,0.6,1.2,1c1.1-0.7,2.4-1.3,3.7-0.7c1.1,0.5,1.8,1.7,1.9,2.9  c1-1.5,2.5-2.7,4.3-3c1.3-0.3,2.7,0,3.6,1c0.5,0.6,1.1,1.1,1.6,1.8c0.4,0.6,0.4,1.3,0.6,2c0.3,0.5,0.7,1,0.5,1.6  c-0.1,0.6-0.5,1.1-1,1.5c-0.7,2.3-2.1,4.5-4.2,5.7C74,46.7,71.5,46.5,70,45c-1.1,0.9-2.5,1.5-3.9,1.5c-1.2-0.1-2.5-0.4-3.2-1.4  c-0.6-0.6-0.7-1.5-0.8-2.3c-0.4,1-0.9,2-1.3,3c-0.2,0.5-0.7,0.8-1.2,0.8c-0.6,0-1.1-0.3-1.6-0.4c-0.9,0.1-1.8,0.5-2.7,0.4  c-0.8-0.1-1.7-0.3-2.3-0.8c-2.3,1.3-5.5,1.4-7.7-0.2c-1,0.8-2.3,1.3-3.7,1.3c-0.9-0.1-1.9-0.3-2.6-1c-1.1,0.7-2.5,1.2-3.8,0.8  c-1.4-0.2-2.4-1.3-2.8-2.6c-1.5,1.8-3.9,2.8-6.2,2.7c-1.2-0.1-2.5-0.4-3.4-1.2c-1.9-1.5-2.7-4-2.6-6.3c0.2-2.4,1-4.7,2.3-6.8  c0.8-1.3,1.8-2.5,2.9-3.5C26.4,28.1,27.6,27,29.1,26.5L29.1,26.5z"/>
<path class="st0" d="M30.8,27.8c0.9-0.2,2-0.2,2.8,0.4c0.7,0.6,1.3,1.3,1.6,2.2c0.3,0.8,0.1,1.7-0.3,2.5c-0.4,0.8-0.7,1.6-1,2.4  c-0.1,0.3-0.5,0.5-0.8,0.4c-0.8-0.3-1.3-1.2-1.2-2c0.1-1.3,0.8-2.4,1.1-3.7c0-0.3,0-0.6-0.2-0.7c-0.4-0.1-0.9,0.1-1.3,0.3  c-1.3,0.7-2.4,1.6-3.3,2.6c-1.6,1.7-2.9,3.8-3.4,6.2c-0.3,1.4-0.4,3,0.1,4.4c0.3,0.7,1,1.4,1.8,1.3c1.2-0.1,2.2-1,2.9-1.9  c0.8-0.9,1.4-1.9,1.9-2.9c0.1-0.4,0.7-0.5,1-0.2c0.4,0.5,0.4,1.3,0.3,1.9c-0.3,1-0.9,1.9-1.7,2.7c-1.4,1.5-3.7,2.1-5.7,1.6  c-1-0.3-1.9-0.9-2.5-1.8c-1-1.5-1.1-3.4-0.8-5.1c0.5-3,2.2-5.7,4.4-7.8C27.7,29.3,29.1,28.1,30.8,27.8L30.8,27.8z M58.4,31  c1.4-0.1,2.3,2,1.2,3c-0.7,0.5-1.7,0-2-0.7C57.1,32.5,57.5,31.3,58.4,31L58.4,31z"/>
<path class="st0" d="M49.2,34.3c0.4-0.7,1.1-1.3,1.9-1.5c0.3-0.1,0.7,0,0.8,0.4c0.1,0.8-0.6,1.3-0.6,2.1c-0.1,1.8,0.3,3.5,0.4,5.3  c0,0.9-0.1,1.8-0.4,2.6c0.7-0.6,1.6-1.2,1.8-2.2c0.6-1.9,1.6-3.7,2.6-5.4c0.4-0.5,0.6-1.2,1.1-1.6c0.3-0.2,0.7,0.1,0.8,0.3  c0.5,0.7,0.5,1.7,0.2,2.5c-0.4,1.1-1,2.1-1.5,3.1c-0.5,1-1.1,2-1.2,3.2c0,0.3,0,0.6,0.2,0.8c0.4,0.1,0.8-0.1,1.1-0.3  c0.8-0.6,1.4-1.4,1.7-2.3c1.1-2.5,2.4-4.9,3.9-7.3c0.2-0.3,0.4-0.7,0.8-0.6c0.7,0.5,0.7,1.4,0.7,2.2c0.9-0.9,1.9-1.7,3.2-2  c0.9-0.2,1.6,0.7,1.8,1.5c0.2,0.8-0.2,1.5-0.5,2.2c-0.9,1.7-2.1,3.3-2.4,5.2c-0.1,0.4-0.1,1.1,0.4,1.3c0.5,0,0.9-0.3,1.2-0.6  c0.9-0.8,1.5-1.8,2-2.8c0.3-0.5,0.3-1.1,0.5-1.6c0.5-1.5,1.4-3,2.5-4c0.9-0.8,2.1-1.4,3.3-1.2c0.9,0.1,1.4,1,2,1.6  c0.8,0.7,0.8,1.8,0.7,2.7c0.2,0.1,0.4,0.1,0.7,0.2v0.1c-0.1,0.4-0.5,0.5-0.8,0.7c-0.5,1.8-1.4,3.5-2.7,4.7c-0.8,0.7-1.9,1.3-3,1.2  c-1.2-0.1-2.2-1-2.7-2c-0.9,1.1-2,1.9-3.4,2.2c-1,0.1-2.1,0-2.7-0.8c-0.6-0.8-0.5-1.9-0.2-2.8c0.5-1.8,1.4-3.4,2.4-5  c0.2-0.3,0.4-0.7,0.5-1.1c-1.1,0.5-2,1.4-2.8,2.3c-1.9,2-2.9,4.6-4,7.1c-0.1,0.2-0.3,0.5-0.6,0.5c-0.4-0.1-0.6-0.5-0.9-0.8  c-1.1,0.7-2.5,1.2-3.7,0.7c-0.5-0.2-0.9-0.6-1.2-1.2c-1.4,1.2-3.4,1.7-5.3,1.4c-1-0.2-2-0.8-2.5-1.7c-1,1.2-2.5,2.2-4.1,1.9  c-0.9-0.1-1.5-0.8-1.7-1.6c-0.7,0.7-1.5,1.2-2.4,1.5c-0.9,0.3-2,0.1-2.7-0.7c-0.7-0.9-0.7-2-0.5-3c0.4-1.9,1.5-3.4,2.7-4.8  c1.1-1.2,2.3-2.3,3.9-2.6c0.9-0.2,2,0.2,2.3,1.1c0.3-0.4,0.4-0.9,0.8-1.2c0.4-0.2,0.8,0.1,0.9,0.4c0.5,0.9,0.3,2.1-0.1,3  c-0.9,1.7-2,3.3-2.7,5.1c-0.2,0.5-0.3,1.1-0.2,1.7c0.1,0.4,0.6,0.2,0.8,0.1c0.9-0.5,1.4-1.4,2-2.2c0.3-0.4,0.1-1,0.3-1.5  c0.2-0.6,0.6-1.3,1.2-1.5c0.4-0.1,0.5,0.3,0.6,0.6c0.8-1.2,1.6-2.4,2.3-3.6C49,35.4,49,34.8,49.2,34.3z M75.8,35.7  c0,0.6,0.1,1.2,0.4,1.7c0.2-0.5,0.4-1.1,0.4-1.7c0-0.2-0.1-0.5-0.3-0.5C75.9,35.1,75.8,35.4,75.8,35.7z M38.9,37.5  c-1.3,1.5-2.4,3.3-2.8,5.2c-0.1,0.5-0.1,1.1,0.3,1.4c1-0.2,1.6-1.2,2.2-2c0.9-1.3,1.7-2.8,2.3-4.2c0.2-0.6,0.5-1.3,0.5-2  c0-0.2-0.3-0.4-0.5-0.3C40.2,36.1,39.5,36.8,38.9,37.5L38.9,37.5z M71.5,41.5c-0.1,0.5-0.1,1.1,0.2,1.6c0.2,0.3,0.7,0.2,1,0  c0.7-0.4,1.2-1.2,1.7-1.9c0.5-0.9,1.1-1.8,1.4-2.8c-0.8-0.5-1.5-1.3-1.7-2.2C72.7,37.7,71.8,39.5,71.5,41.5z M48.9,38.3  c-0.7,1.1-1.4,2.3-2.2,3.4c0.2,0.7,0.5,1.5,1,2c0.2,0.2,0.6,0.4,0.8,0.1c0.3-0.4,0.4-1,0.4-1.5C49.1,41,49,39.6,48.9,38.3z"/>
<path class="st0" d="M15.5,31.6c-0.3,0.2-1,0.3-2,0.4c-1.5,0.1-3,0.2-4.5,0.2c-1.5,0-2.4-0.1-2.8-0.2c-0.4-0.1-0.6-0.4-0.6-0.7V8.8  c0-0.5,0.7-1.1,2.1-1.6c1.4-0.5,3-0.8,4.7-0.8c1.6,0,2.6,0.3,3.1,1c0.1,0.1,0.1,0.2,0.2,0.3c0.1,0.1,0.1,0.3,0.1,0.4v23.3  C15.7,31.5,15.7,31.5,15.5,31.6L15.5,31.6z"/>
</svg>
