<svg xmlns="http://www.w3.org/2000/svg" viewBox="0 0 512 544.82"><defs><style>.cls-1{fill:#5a9493;}.cls-2{fill:#6abe61;}.cls-3{fill:#30a749;}.cls-4{fill:#66be77;}.cls-5{fill:#f71e78;}.cls-6{fill:#ff4f75;}.cls-7{fill:#ffcc4a;}.cls-8{fill:#ffe278;}.cls-9{fill:#ffb54c;}.cls-10{fill:#e5f7ff;}.cls-11{fill:#fff;}.cls-12{fill:#455f80;}.cls-13{fill:#587aa1;}</style></defs><title>Ресурс 15</title><g id="Слой_2" data-name="Слой 2"><g id="Слой_1-2" data-name="Слой 1"><circle class="cls-1" cx="256" cy="256" r="256"/><path class="cls-2" d="M439.47,434.52q-5.06,5.2-10.41,10.1l-.16.15q-6.13,5.64-12.63,10.86-9,7.29-18.77,13.74l-1.92,1.26A254.77,254.77,0,0,1,256,512l-2.8,0h-.63q-7.52-.09-14.93-.64-7.05-.49-14-1.37c-1.27-.16-2.55-.32-3.81-.51q-6.29-.88-12.47-2.08-3.7-.71-7.37-1.53l-.33-.07h0q-5-1.11-9.88-2.43l-2.32-.63q-4.61-1.27-9.13-2.73c-1-.3-1.93-.62-2.9-.94s-2.06-.68-3.08-1c-1.47-.5-2.95-1-4.41-1.57s-3.1-1.16-4.65-1.76L20.78,154.84.91,107.49,72.57,77.44,257.24,0h0L270,30.29l8.86,21.14,4.72,11.25,7.15,17.05,2,4.82,7.21,17.18,67.74,161.55,1.73,4.14L403.59,349l3.36,8h0l19.8,47.21Z"/><path class="cls-3" d="M416.27,455.63q-9,7.29-18.77,13.74l-1.92,1.26A254.77,254.77,0,0,1,256,512l-2.8,0h-.63q-7.52-.09-14.93-.64-7.05-.49-14-1.37c-1.27-.16-2.55-.32-3.81-.51q-6.29-.88-12.47-2.08-3.7-.71-7.37-1.53l-32.08-76.49L58.35,168.06a48.71,48.71,0,0,0,11.31-6.95,47.11,47.11,0,0,0,5.65-5.52,48.45,48.45,0,0,0,8.21-50.71l70.3-29.48,28.72-12,14.11-5.91c.56,1.35,1.19,2.66,1.86,3.94a48.8,48.8,0,0,0,31.05,24.37,44.75,44.75,0,0,0,4.86,1,48.14,48.14,0,0,0,25.51-3.16l.25-.1,0,.07,20.23,48.25L331,252.37l2,4.7,5.68,13.56,27.8,66.28h0L389,390.71l13.9,33.12Z"/><circle class="cls-4" cx="240.45" cy="319.33" r="83.52"/><path class="cls-2" d="M453,419.53c-1.76,2.12-3.54,4.2-5.38,6.26-2.62,3-5.34,5.89-8.11,8.73q-5.06,5.2-10.41,10.1l-.16.15q-6.13,5.64-12.63,10.86-9,7.29-18.77,13.74l-1.92,1.26A254.77,254.77,0,0,1,256,512l-2.8,0h-.63q-7.52-.09-14.93-.64-7.05-.49-14-1.37c-1.27-.16-2.55-.32-3.81-.51q-6.29-.88-12.47-2.08-3.7-.71-7.37-1.53l-.33-.07h0q-5-1.11-9.88-2.43l-2.32-.63-19.53-73.35L87.24,126.3,75.47,82.07,270,30.29l66-17.57,8.16-2.17,1.47,5.55,7,26.2,5.42,20.39,7.87,29.54,1.85,6.93,50.3,189,23.47,88.16.32,1.21Z"/><path class="cls-3" d="M429.06,444.62l-.16.15q-6.13,5.64-12.63,10.86-9,7.29-18.77,13.74l-1.92,1.26A254.77,254.77,0,0,1,256,512l-2.8,0h-.63q-7.52-.09-14.93-.64-7.05-.49-14-1.37c-1.27-.16-2.55-.32-3.81-.51L197,423.72,186.1,382.77l-24.35-91.43h0L124.11,149.91a48.7,48.7,0,0,0,12.14-5.34,47.82,47.82,0,0,0,6.35-4.69,48.47,48.47,0,0,0,15.06-49.12L211,76.55l12.61-3.35,39.48-10.51L276.2,59.2c.31,1.18.67,2.34,1.08,3.48a48.37,48.37,0,0,0,10.56,17.41,49,49,0,0,0,17.11,11.64l1.27.49a48.29,48.29,0,0,0,29.37,1.4l46.83,175.9,1.61,6L403.58,349l2.74,10.26h0l13.83,52Z"/><circle class="cls-4" cx="283.86" cy="324.61" r="83.52"/><path class="cls-2" d="M473.12,391.68l-1.07,1.68A256.94,256.94,0,0,1,453,419.52c-1.76,2.12-3.54,4.2-5.38,6.26-2.62,3-5.34,5.89-8.11,8.73q-5.06,5.2-10.41,10.1l-.16.15q-6.13,5.64-12.63,10.86-9,7.29-18.77,13.74l-1.92,1.26A254.77,254.77,0,0,1,256,512l-2.8,0h-.63q-7.52-.09-14.93-.64-7.05-.49-14-1.37c-1.27-.16-2.55-.32-3.81-.51q-6.29-.88-12.47-2.08L197,423.71l-4.46-36L177.29,264.65,158.42,112.47l-4.6-37.06-1-8.36,29.76-3.69,16-2,80.3-10,73.71-9.13,37.24-4.62,38.88-4.82,3.7,29.82,1.09,8.77,7.16,57.74L472.06,383.1Z"/><path class="cls-3" d="M447.58,425.79c-2.62,3-5.34,5.89-8.11,8.73q-5.06,5.2-10.41,10.1l-.16.15q-6.13,5.64-12.63,10.86-9,7.29-18.77,13.74l-1.92,1.26A254.77,254.77,0,0,1,256,512l-2.8,0h-.63q-7.52-.09-14.93-.64L224,401.22l-.35-2.75L221.37,380l-11.64-93.88-5.22-42.2-12.78-103a48.74,48.74,0,0,0,12.76-3.63,47.69,47.69,0,0,0,6.93-3.78A48.46,48.46,0,0,0,233,86.88l1.4-.18,25.51-3.16.28,0,27.63-3.43,2.84-.36,64.08-7.94a48.23,48.23,0,0,0,7.44,20.43,46.72,46.72,0,0,0,5.45,6.93A48.48,48.48,0,0,0,408.91,114L432.6,305.06l8.83,71.21.2,1.58Z"/><circle class="cls-2" cx="326.14" cy="335.76" r="83.52"/><path class="cls-2" d="M501.61,62.68V328.43a254.49,254.49,0,0,1-28.48,63.25l-1.07,1.68A256.94,256.94,0,0,1,453,419.52c-1.76,2.12-3.54,4.2-5.38,6.26-2.62,3-5.34,5.89-8.11,8.73q-5.06,5.2-10.41,10.1l-.16.15q-6.13,5.64-12.63,10.86-9,7.29-18.77,13.74l-1.92,1.26A254.77,254.77,0,0,1,256,512l-2.8,0h-.63q-7.52-.09-14.93-.64-7.05-.49-14-1.37V62.68Z"/><path class="cls-3" d="M472.06,140.77V393.36A256.94,256.94,0,0,1,453,419.53c-1.76,2.12-3.54,4.2-5.38,6.26-2.62,3-5.34,5.89-8.11,8.73q-5.06,5.2-10.41,10.1l-.16.15q-6.13,5.64-12.63,10.86-9,7.29-18.77,13.74l-1.92,1.26A254.77,254.77,0,0,1,256,512l-2.8,0V140.75a48.47,48.47,0,0,0,27.25-9,48.43,48.43,0,0,0,19.47-30,50,50,0,0,0,.92-9.51H423.51a48.47,48.47,0,0,0,17.07,37c.75.65,1.54,1.27,2.33,1.87A48.39,48.39,0,0,0,472.06,140.77Z"/><circle class="cls-2" cx="362.63" cy="350.67" r="83.52"/><path class="cls-5" d="M372.29,271.44,289.55,408.13l82.73,136.69C447.66,544.82,509,483.5,509,408.13S447.66,271.44,372.29,271.44Z"/><path class="cls-6" d="M235.6,408.13c0,75.37,61.32,136.69,136.69,136.69V271.44C296.92,271.44,235.6,332.76,235.6,408.13Z"/><path class="cls-7" d="M424.62,317.48a104.16,104.16,0,0,0-52.33-14l-24,52.33,24,52.33,52.33-50.6Z"/><path class="cls-8" d="M372.29,303.46a104.17,104.17,0,0,0-52.33,14l5.35,57.33,47,33.3Z"/><path class="cls-7" d="M320,317.48a104.17,104.17,0,0,0-38.3,38.32l33.3,47,57.33,5.35Z"/><path class="cls-8" d="M281.64,355.8a104.16,104.16,0,0,0-14,52.33l52.33,24,52.33-24Z"/><path class="cls-7" d="M267.62,408.13a104.17,104.17,0,0,0,14,52.33L339,455.1l33.3-47Z"/><path class="cls-8" d="M281.64,460.46A104.17,104.17,0,0,0,320,498.76l47-33.3,5.35-57.33Z"/><path class="cls-7" d="M320,498.77a104.16,104.16,0,0,0,52.33,14l24-52.33-24-52.33Z"/><path class="cls-9" d="M372.29,512.8a104.17,104.17,0,0,0,52.33-14l-5.35-57.33-47-33.3Z"/><path class="cls-7" d="M424.62,498.77a104.17,104.17,0,0,0,38.3-38.32l-33.3-47-57.33-5.35Z"/><path class="cls-9" d="M462.93,460.46a104.16,104.16,0,0,0,14-52.33l-52.33-24-52.33,24Z"/><path class="cls-7" d="M477,408.13a104.17,104.17,0,0,0-14-52.33l-57.33,5.35-33.3,47Z"/><path class="cls-9" d="M462.93,355.8a104.17,104.17,0,0,0-38.32-38.3l-52.33,90.63Z"/><path class="cls-10" d="M372.29,335.51l-44,72.62,44,72.62a72.62,72.62,0,1,0,0-145.23Z"/><path class="cls-11" d="M299.67,408.13a72.7,72.7,0,0,0,72.62,72.62V335.51A72.7,72.7,0,0,0,299.67,408.13Z"/><path class="cls-12" d="M380.3,367.55h-8l-4,24,4,25.8,8-4.62Z"/><path class="cls-13" d="M364.28,367.55v36l-31.14,18,8,13.87,31.14-18V367.55Z"/></g></g></svg>