<svg xmlns="http://www.w3.org/2000/svg" xmlns:xlink="http://www.w3.org/1999/xlink" viewBox="0 0 531.06 575.55"><defs><style>.cls-1{fill:none;}.cls-2{fill:#5a9493;}.cls-3{clip-path:url(#clip-path);}.cls-4{fill:#8b9ba9;}.cls-5{fill:#6c7a88;}.cls-6{fill:#596775;}.cls-7{fill:#35404a;}.cls-8{fill:#60f375;}.cls-9{fill:#28d05b;}.cls-10{fill:#00b04b;}</style><clipPath id="clip-path"><circle class="cls-1" cx="259.01" cy="303.16" r="256"/></clipPath></defs><title>Ресурс 17</title><g id="Слой_2" data-name="Слой 2"><g id="Слой_1-2" data-name="Слой 1"><circle class="cls-2" cx="259.01" cy="303.16" r="256"/><g class="cls-3"><path class="cls-4" d="M512,342.46v206.6c0,14.63-6.91,26.49-15.44,26.49H16C7.44,575.55.52,563.69.52,549.06V342.46l255.74-70.64Z"/><path class="cls-5" d="M132.9,575.55h132.9V370.15L0,377.4V553C0,565.47,59.5,575.55,132.9,575.55Z"/><path class="cls-5" d="M.54,236.7c0-8.52,7.17-15.44,16-15.44h498.5c8.84,0,16,6.91,16,15.44V375.64H.54Z"/><path class="cls-6" d="M31.4,252.14H512V236.7a15.44,15.44,0,0,0-15.44-15.44H16A15.44,15.44,0,0,0,.52,236.7V375.64H31.4V252.14Z"/><path class="cls-7" d="M441.51,267.58v30.87a15.44,15.44,0,0,1-15.44,15.44H86.46A15.44,15.44,0,0,1,71,298.45V267.58a15.44,15.44,0,0,1,15.44-15.44H426.07A15.44,15.44,0,0,1,441.51,267.58Z"/><path class="cls-8" d="M382.33,313.89V15.44A15.44,15.44,0,0,0,366.9,0H145.63A15.44,15.44,0,0,0,130.2,15.44V313.89Z"/><path class="cls-9" d="M161.07,313.89v-283H382.33V15.44A15.44,15.44,0,0,0,366.9,0H145.63A15.44,15.44,0,0,0,130.2,15.44V313.89Z"/><ellipse class="cls-8" cx="256.27" cy="198.11" rx="64.32" ry="51.46"/><path class="cls-10" d="M168.79,313.89v-214a69.61,69.61,0,0,0,61.32-61.32h52.31a69.61,69.61,0,0,0,61.32,61.32v214h15.44V92.62a7.72,7.72,0,0,0-7.72-7.72,54.09,54.09,0,0,1-54-54,7.72,7.72,0,0,0-7.72-7.72H222.82a7.72,7.72,0,0,0-7.72,7.72,54.09,54.09,0,0,1-54,54,7.72,7.72,0,0,0-7.72,7.72V313.89h15.44Z"/><path class="cls-10" d="M256.27,138.93c-39.72,0-72,26.55-72,59.18s32.32,59.18,72,59.18,72-26.55,72-59.18S296,138.93,256.27,138.93Zm0,15.44c31.21,0,56.6,19.62,56.6,43.74s-25.39,43.74-56.6,43.74-56.6-19.62-56.6-43.74S225.05,154.37,256.27,154.37Z"/><path class="cls-10" d="M264.24,198.11a3.86,3.86,0,1,0,7.72,0v-10a7.72,7.72,0,0,1,15.44,0v2.57a7.72,7.72,0,0,1,0,15.44h-1.74a19.28,19.28,0,0,1-36.84-8,3.86,3.86,0,1,0-7.72,0v11.58a7.72,7.72,0,1,1-15.44,0v-3.6h-.52a7.72,7.72,0,1,1,0-15.44h2a19.29,19.29,0,0,1,37.08,7.46Z"/><path class="cls-10" d="M185.86,39.65a7.72,7.72,0,0,1-10.92,0,3.6,3.6,0,0,0-5.09,5.09,7.72,7.72,0,1,1-10.92,10.92,19,19,0,1,1,26.93-26.93A7.72,7.72,0,0,1,185.86,39.65Z"/><path class="cls-10" d="M342.69,44.74a3.6,3.6,0,1,0-5.09-5.09,7.72,7.72,0,0,1-10.91-10.92A19,19,0,0,1,353.6,55.66a7.72,7.72,0,0,1-10.92-10.91Z"/></g><path class="cls-7" d="M441.51,267.58v30.87a15.44,15.44,0,0,1-15.44,15.44H86.46A15.44,15.44,0,0,1,71,298.45V267.58a15.44,15.44,0,0,1,15.44-15.44H426.07A15.44,15.44,0,0,1,441.51,267.58Z"/><path class="cls-8" d="M382.33,313.89V15.44A15.44,15.44,0,0,0,366.9,0H145.63A15.44,15.44,0,0,0,130.2,15.44V313.89Z"/><path class="cls-9" d="M161.07,313.89v-283H382.33V15.44A15.44,15.44,0,0,0,366.9,0H145.63A15.44,15.44,0,0,0,130.2,15.44V313.89Z"/><ellipse class="cls-8" cx="256.27" cy="198.11" rx="64.32" ry="51.46"/><path class="cls-10" d="M168.79,313.89v-214a69.61,69.61,0,0,0,61.32-61.32h52.31a69.61,69.61,0,0,0,61.32,61.32v214h15.44V92.62a7.72,7.72,0,0,0-7.72-7.72,54.09,54.09,0,0,1-54-54,7.72,7.72,0,0,0-7.72-7.72H222.82a7.72,7.72,0,0,0-7.72,7.72,54.09,54.09,0,0,1-54,54,7.72,7.72,0,0,0-7.72,7.72V313.89h15.44Z"/><path class="cls-10" d="M256.27,138.93c-39.72,0-72,26.55-72,59.18s32.32,59.18,72,59.18,72-26.55,72-59.18S296,138.93,256.27,138.93Zm0,15.44c31.21,0,56.6,19.62,56.6,43.74s-25.39,43.74-56.6,43.74-56.6-19.62-56.6-43.74S225.05,154.37,256.27,154.37Z"/><path class="cls-10" d="M264.24,198.11a3.86,3.86,0,1,0,7.72,0v-10a7.72,7.72,0,0,1,15.44,0v2.57a7.72,7.72,0,0,1,0,15.44h-1.74a19.28,19.28,0,0,1-36.84-8,3.86,3.86,0,1,0-7.72,0v11.58a7.72,7.72,0,1,1-15.44,0v-3.6h-.52a7.72,7.72,0,1,1,0-15.44h2a19.29,19.29,0,0,1,37.08,7.46Z"/><path class="cls-10" d="M185.86,39.65a7.72,7.72,0,0,1-10.92,0,3.6,3.6,0,0,0-5.09,5.09,7.72,7.72,0,1,1-10.92,10.92,19,19,0,1,1,26.93-26.93A7.72,7.72,0,0,1,185.86,39.65Z"/><path class="cls-10" d="M342.69,44.74a3.6,3.6,0,1,0-5.09-5.09,7.72,7.72,0,0,1-10.91-10.92A19,19,0,0,1,353.6,55.66a7.72,7.72,0,0,1-10.92-10.91Z"/></g></g></svg>