<svg xmlns="http://www.w3.org/2000/svg" width="51" height="52" fill="none"><path fill="#fff" stroke="#24B90C" stroke-width="3" d="M23 50.5c11.874 0 21.5-9.626 21.5-21.5S34.874 7.5 23 7.5 1.5 17.126 1.5 29 11.126 50.5 23 50.5Z"/><mask id="a" width="40" height="40" x="3" y="9" mask-type="alpha" maskUnits="userSpaceOnUse"><path fill="#24B90C" d="M23 49c11.046 0 20-8.954 20-20S34.046 9 23 9 3 17.954 3 29s8.954 20 20 20Z"/></mask><g mask="url(#a)"><path fill="#F43434" d="M42.198 25.658 9.881 17c-.338-.09-.717.227-.847.71L1.766 44.836c-.13.483.04.948.378 1.038l32.317 8.66c.339.09.718-.227.847-.71l7.269-27.127c.13-.483-.04-.948-.379-1.039Z"/><path fill="#DF1010" d="M41.566 28.012 9.25 19.352a.622.622 0 0 0-.771.425l-.63 2.354L41.39 31.12l.63-2.354a.622.622 0 0 0-.455-.753Z"/><path fill="#FFDB57" d="M29.238 22.186 22.84 20.47c-.346-.092-.728.212-.853.679l-7.034 26.253c-.126.467.053.921.4 1.014l6.397 1.714c.346.093.727-.211.853-.678L29.637 23.2c.125-.468-.053-.922-.4-1.014Z"/><path fill="#F5BA3D" d="m29.126 22.153-6.17-1.653a.629.629 0 0 0-.768.448l-.65 2.428 7.378 1.977.65-2.428a.629.629 0 0 0-.44-.772Z"/><path fill="#FFDB57" d="M43.81 14.004c-.175-1.718-.701-3.492-1.408-4.745-.26-.46-.69-.773-1.241-.907-1.825-.444-5.396 1.064-10.614 4.482a.636.636 0 0 0-.266.367l-.865 3.228a.628.628 0 0 0 .44.772l9.29 2.49c2.07.554 3.198-.235 3.779-.994.775-1.012 1.089-2.679.885-4.693Z"/><path fill="#EF9325" d="M43.871 15.16a.633.633 0 0 0-.032-.197c-.538-1.638-2.649-1.645-4.324-1.362-4.867.822-7.39 3.074-7.495 3.17a.637.637 0 0 0-.191.617.624.624 0 0 0 .445.46l6.874 1.843c1.317.353 2.403.206 3.228-.437.98-.763 1.498-2.179 1.495-4.094Z"/><path fill="#FFDB57" d="M26.383 11.718c-2.81-5.568-5.149-8.66-6.95-9.188-.546-.16-1.075-.103-1.53.165-1.238.731-2.58 2.005-3.59 3.406-1.184 1.642-1.746 3.242-1.581 4.506.123.948.705 2.195 2.775 2.75l9.29 2.489a.629.629 0 0 0 .767-.449l.865-3.228a.635.635 0 0 0-.046-.45Z"/><path fill="#EF9325" d="M23.14 14.391c-.044-.135-1.102-3.347-4.907-6.492-1.31-1.083-3.14-2.132-4.426-.983a.635.635 0 0 0-.126.155c-.96 1.657-1.22 3.142-.753 4.293.394.969 1.261 1.64 2.578 1.992l6.874 1.842a.624.624 0 0 0 .617-.177.638.638 0 0 0 .142-.63Z"/><path fill="#F5BA3D" d="m31.21 12.149-5.06-1.356a.629.629 0 0 0-.767.449l-1.026 3.831a.628.628 0 0 0 .44.772l5.06 1.356a.629.629 0 0 0 .767-.448l1.027-3.832a.629.629 0 0 0-.44-.772Z"/><path fill="#F43434" d="M47.277 20.712 7.955 10.176c-.355-.095-.73.161-.84.572l-1.967 7.34c-.11.41.087.82.441.915l39.322 10.536c.355.095.73-.161.84-.572l1.967-7.34c.11-.41-.087-.82-.441-.915Z"/><path fill="#FFDB57" d="m32.03 16.627-8.828-2.365-2.365 8.826 8.827 2.366 2.365-8.827Z"/></g><path fill="#F43434" d="M42.198 25.658 9.881 17c-.338-.09-.66.015-.72.236l-3.325 12.41c-.06.22.167.473.506.564l32.317 8.66c.338.09.66-.016.72-.236l3.325-12.41c.06-.221-.167-.474-.506-.565Z"/><path fill="#DF1010" d="M41.566 28.012 9.25 19.352a.622.622 0 0 0-.771.425l-.63 2.354L41.39 31.12l.63-2.354a.622.622 0 0 0-.455-.753Z"/><path fill="#FFDB57" d="M29.238 22.186 22.84 20.47c-.346-.092-.696.093-.782.415l-4.842 18.071c-.087.322.124.658.47.75l6.398 1.715c.345.092.696-.093.782-.415l4.842-18.071c.086-.322-.124-.658-.47-.75Z"/><path fill="#F5BA3D" d="m29.126 22.153-6.17-1.653a.629.629 0 0 0-.768.448l-.65 2.428 7.378 1.977.65-2.428a.629.629 0 0 0-.44-.772Z"/><path fill="#FFDB57" d="M43.81 14.004c-.175-1.718-.701-3.492-1.408-4.745-.26-.46-.69-.773-1.241-.907-1.825-.444-5.396 1.064-10.614 4.482a.636.636 0 0 0-.266.367l-.865 3.228a.628.628 0 0 0 .44.772l9.29 2.49c2.07.554 3.198-.235 3.779-.994.775-1.012 1.089-2.679.885-4.693Z"/><path fill="#EF9325" d="M43.871 15.16a.633.633 0 0 0-.032-.197c-.538-1.638-2.649-1.645-4.324-1.362-4.867.822-7.39 3.074-7.495 3.17a.637.637 0 0 0-.191.617.624.624 0 0 0 .445.46l6.874 1.843c1.317.353 2.403.206 3.228-.437.98-.763 1.498-2.179 1.495-4.094Z"/><path fill="#FFDB57" d="M26.383 11.718c-2.81-5.568-5.149-8.66-6.95-9.188-.546-.16-1.075-.103-1.53.165-1.238.731-2.58 2.005-3.59 3.406-1.184 1.642-1.746 3.242-1.581 4.506.123.948.705 2.195 2.775 2.75l9.29 2.489a.629.629 0 0 0 .767-.449l.865-3.228a.635.635 0 0 0-.046-.45Z"/><path fill="#EF9325" d="M23.14 14.391c-.044-.135-1.102-3.347-4.907-6.492-1.31-1.083-3.14-2.132-4.426-.983a.635.635 0 0 0-.126.155c-.96 1.657-1.22 3.142-.753 4.293.394.969 1.261 1.64 2.578 1.992l6.874 1.842a.624.624 0 0 0 .617-.177.638.638 0 0 0 .142-.63Z"/><path fill="#F5BA3D" d="m31.21 12.149-5.06-1.356a.629.629 0 0 0-.767.449l-1.026 3.831a.628.628 0 0 0 .44.772l5.06 1.356a.629.629 0 0 0 .767-.448l1.027-3.832a.629.629 0 0 0-.44-.772Z"/><path fill="#F43434" d="M47.277 20.712 7.955 10.176c-.355-.095-.73.161-.84.572l-1.967 7.34c-.11.41.087.82.441.915l39.322 10.536c.355.095.73-.161.84-.572l1.967-7.34c.11-.41-.087-.82-.441-.915Z"/><path fill="#FFDB57" d="m32.03 16.627-8.828-2.365-2.365 8.826 8.827 2.366 2.365-8.827Z"/></svg>