<svg xmlns="http://www.w3.org/2000/svg" width="33" height="34" fill="none"><path fill="#fff" stroke="#17A400" stroke-width="2" d="M15.342 32.35c7.62 0 13.796-6.177 13.796-13.796 0-7.62-6.176-13.796-13.796-13.796-7.619 0-13.796 6.176-13.796 13.796 0 7.62 6.177 13.796 13.796 13.796Z"/><mask id="a" width="27" height="27" x="2" y="5" maskUnits="userSpaceOnUse" style="mask-type:alpha"><path fill="#24B90C" d="M15.342 31.35c7.067 0 12.796-5.73 12.796-12.796 0-7.067-5.729-12.796-12.796-12.796-7.067 0-12.796 5.729-12.796 12.796 0 7.067 5.73 12.796 12.796 12.796Z"/></mask><g mask="url(#a)"><path fill="#F43434" d="M27.625 16.417 6.95 10.877c-.217-.059-.46.145-.542.454l-4.65 17.356c-.083.308.025.606.242.664l20.676 5.54c.217.058.46-.145.542-.454l4.65-17.356c.083-.309-.025-.606-.242-.664Z"/><path fill="#DF1010" d="m27.221 17.923-20.676-5.54a.398.398 0 0 0-.493.27L5.65 14.16l21.46 5.75.404-1.506a.398.398 0 0 0-.292-.481Z"/><path fill="#FFDB57" d="m19.334 14.194-4.094-1.096c-.22-.06-.465.135-.545.434l-4.5 16.796c-.081.3.033.59.255.649l4.093 1.097c.221.059.466-.135.546-.434l4.5-16.797c.08-.299-.034-.59-.255-.649Z"/><path fill="#F5BA3D" d="m19.262 14.173-3.948-1.058a.402.402 0 0 0-.491.287l-.416 1.554 4.72 1.265.417-1.554a.402.402 0 0 0-.282-.494Z"/><path fill="#FFDB57" d="M28.656 8.96c-.111-1.1-.448-2.235-.9-3.036a1.214 1.214 0 0 0-.795-.58c-1.167-.284-3.452.68-6.79 2.867a.406.406 0 0 0-.17.235l-.554 2.065a.402.402 0 0 0 .282.494l5.944 1.593c1.324.355 2.046-.15 2.417-.636.496-.647.697-1.714.566-3.002Z"/><path fill="#EF9325" d="M28.695 9.699a.404.404 0 0 0-.02-.127c-.345-1.048-1.695-1.052-2.767-.871-3.114.526-4.728 1.967-4.795 2.028-.11.1-.156.25-.122.395a.4.4 0 0 0 .285.295l4.398 1.178c.842.226 1.537.132 2.065-.28.627-.488.958-1.393.956-2.618Z"/><path fill="#FFDB57" d="M17.507 7.498c-1.798-3.563-3.294-5.541-4.447-5.88a1.212 1.212 0 0 0-.978.107c-.793.467-1.652 1.282-2.298 2.178-.757 1.051-1.116 2.075-1.011 2.884.079.606.451 1.404 1.775 1.759l5.944 1.592a.402.402 0 0 0 .491-.287l.554-2.065a.406.406 0 0 0-.03-.288Z"/><path fill="#EF9325" d="M15.432 9.207c-.028-.087-.705-2.142-3.14-4.154-.837-.693-2.008-1.364-2.83-.629a.407.407 0 0 0-.082.1c-.614 1.06-.78 2.01-.481 2.746.251.62.806 1.049 1.65 1.274l4.397 1.179a.4.4 0 0 0 .394-.113.408.408 0 0 0 .092-.403Z"/><path fill="#F5BA3D" d="m20.595 7.774-3.237-.868a.402.402 0 0 0-.49.287l-.658 2.452a.402.402 0 0 0 .282.494l3.237.867a.402.402 0 0 0 .491-.287l.657-2.451a.402.402 0 0 0-.282-.494Z"/><path fill="#F43434" d="M30.875 13.251 5.717 6.511c-.227-.061-.468.102-.538.365L3.92 11.572c-.07.263.056.525.282.586l25.158 6.74c.227.062.468-.102.538-.365l1.258-4.696c.07-.263-.056-.525-.282-.586Z"/><path fill="#FFDB57" d="m21.12 10.638-5.648-1.513-1.513 5.648 5.647 1.513 1.513-5.648Z"/></g><path fill="#F43434" d="M27.625 16.417 6.95 10.877c-.217-.059-.423.01-.46.15l-2.128 7.94c-.038.142.107.303.323.361l20.677 5.54c.216.059.423-.009.46-.15l2.128-7.94c.038-.142-.107-.303-.324-.361Z"/><path fill="#DF1010" d="m27.221 17.923-20.676-5.54a.398.398 0 0 0-.493.27L5.65 14.16l21.46 5.75.404-1.506a.398.398 0 0 0-.292-.481Z"/><path fill="#FFDB57" d="m19.334 14.194-4.093-1.096c-.222-.06-.446.06-.5.265l-3.099 11.562c-.055.205.08.42.3.48l4.094 1.096c.221.06.445-.06.5-.265l3.099-11.562c.055-.205-.08-.42-.301-.48Z"/><path fill="#F5BA3D" d="m19.262 14.173-3.948-1.058a.402.402 0 0 0-.491.287l-.416 1.554 4.72 1.265.417-1.554a.402.402 0 0 0-.282-.494Z"/><path fill="#FFDB57" d="M28.656 8.96c-.111-1.1-.448-2.235-.9-3.036a1.214 1.214 0 0 0-.794-.58c-1.168-.284-3.453.68-6.791 2.867a.406.406 0 0 0-.17.235l-.553 2.065a.402.402 0 0 0 .281.494l5.944 1.593c1.325.355 2.046-.15 2.417-.636.496-.647.697-1.714.566-3.002Z"/><path fill="#EF9325" d="M28.696 9.699a.407.407 0 0 0-.02-.127c-.345-1.048-1.695-1.052-2.767-.871-3.115.526-4.729 1.967-4.796 2.028-.11.1-.156.25-.122.395a.4.4 0 0 0 .285.295l4.398 1.178c.842.226 1.537.132 2.065-.28.628-.488.958-1.393.957-2.618Z"/><path fill="#FFDB57" d="M17.507 7.498c-1.798-3.563-3.294-5.541-4.447-5.88a1.212 1.212 0 0 0-.978.107c-.792.467-1.651 1.282-2.298 2.178-.757 1.051-1.116 2.075-1.01 2.884.078.606.45 1.404 1.775 1.759l5.943 1.592a.402.402 0 0 0 .491-.287l.554-2.065a.406.406 0 0 0-.03-.288Z"/><path fill="#EF9325" d="M15.432 9.207c-.028-.087-.705-2.142-3.14-4.154-.837-.693-2.008-1.364-2.83-.629a.407.407 0 0 0-.081.1c-.615 1.06-.781 2.01-.482 2.746.252.62.807 1.049 1.65 1.274l4.397 1.179a.4.4 0 0 0 .395-.113.408.408 0 0 0 .091-.403Z"/><path fill="#F5BA3D" d="m20.595 7.774-3.237-.868a.402.402 0 0 0-.49.287l-.658 2.452a.402.402 0 0 0 .282.494l3.237.867a.402.402 0 0 0 .491-.287l.657-2.451a.402.402 0 0 0-.282-.494Z"/><path fill="#F43434" d="M30.875 13.251 5.717 6.511c-.227-.061-.468.102-.538.365l-1.258 4.696c-.07.263.056.525.282.586l25.159 6.74c.226.062.467-.102.537-.365l1.258-4.696c.07-.263-.056-.525-.282-.586Z"/><path fill="#FFDB57" d="m21.12 10.638-5.648-1.513-1.513 5.648 5.648 1.513 1.513-5.648Z"/></svg>