<?xml version="1.0" encoding="utf-8"?>
<!-- Generator: Adobe Illustrator 26.2.1, SVG Export Plug-In . SVG Version: 6.00 Build 0)  -->
<svg xmlns="http://www.w3.org/2000/svg" xmlns:xlink="http://www.w3.org/1999/xlink" version="1.1" id="Layer_1" x="0px" y="0px" viewBox="0 0 300 104" style="enable-background:new 0 0 300 104;" xml:space="preserve" width="100" height="100">
<style type="text/css">
	.st0{fill:#B5B5B5;}
	.st1{fill:url(#SVGID_1_);}
	.st2{fill:url(#SVGID_00000088817165124672296380000014080118698290428077_);}
	.st3{fill:#F9F9F9;}
</style>
<g id="Casino_2_">
	<path class="st0" d="M117.4,63.7c0.5,0,0.9,0.1,1.3,0.2c0.4,0.1,0.7,0.3,1,0.6v1.7c-0.2-0.1-0.4-0.3-0.6-0.4   c-0.2-0.1-0.4-0.2-0.7-0.3c-0.3-0.1-0.6-0.1-0.9-0.1c-0.5,0-0.9,0.1-1.3,0.3c-0.4,0.2-0.7,0.5-0.9,0.9c-0.2,0.4-0.3,0.8-0.3,1.3   c0,0.5,0.1,0.9,0.3,1.3c0.2,0.4,0.5,0.7,0.9,0.9c0.4,0.2,0.8,0.3,1.3,0.3c0.5,0,1-0.1,1.3-0.2c0.4-0.2,0.7-0.4,1-0.6v1.6   c-0.3,0.2-0.6,0.4-1,0.6c-0.4,0.1-0.9,0.2-1.4,0.2c-0.6,0-1.1-0.1-1.6-0.3c-0.5-0.2-1-0.5-1.4-0.9c-0.4-0.4-0.7-0.8-0.9-1.3   c-0.2-0.5-0.3-1.1-0.3-1.7c0-0.6,0.1-1.2,0.3-1.7c0.2-0.5,0.5-1,0.9-1.3c0.4-0.4,0.8-0.7,1.4-0.9C116.3,63.9,116.9,63.7,117.4,63.7   z"/>
	<path class="st0" d="M129.9,63.9l3.7,8.1h-1.9l-0.6-1.5h-3.2l-0.6,1.5h-1.9l3.7-8.1H129.9z M129.5,66.6l-1,2.5h2L129.5,66.6z"/>
	<path class="st0" d="M142.1,63.8c0.5,0,0.9,0.1,1.3,0.2c0.4,0.1,0.7,0.3,1,0.4V66c-0.3-0.2-0.6-0.3-0.9-0.5   c-0.3-0.2-0.7-0.2-1.1-0.2c-0.2,0-0.4,0-0.6,0.1c-0.2,0.1-0.4,0.2-0.5,0.3c-0.1,0.1-0.2,0.3-0.2,0.5c0,0.3,0.1,0.5,0.3,0.6   c0.2,0.1,0.5,0.3,0.8,0.4l1,0.4c0.6,0.2,1,0.5,1.2,0.9c0.3,0.3,0.4,0.7,0.4,1.2c0,0.5-0.1,0.9-0.4,1.3c-0.3,0.4-0.6,0.6-1.1,0.9   c-0.5,0.2-1,0.3-1.5,0.3c-0.5,0-0.9-0.1-1.4-0.2c-0.4-0.2-0.8-0.4-1.1-0.6v-1.6c0.4,0.3,0.7,0.5,1.2,0.6c0.4,0.2,0.9,0.3,1.4,0.3   c0.3,0,0.6-0.1,0.9-0.2c0.2-0.1,0.4-0.3,0.4-0.6c0-0.2-0.1-0.4-0.3-0.5c-0.2-0.1-0.4-0.2-0.6-0.3l-1.2-0.5c-0.6-0.2-1-0.6-1.3-0.9   c-0.2-0.4-0.3-0.8-0.3-1.3c0-0.5,0.1-0.9,0.4-1.3c0.3-0.4,0.6-0.6,1-0.8C141.1,63.9,141.5,63.8,142.1,63.8z"/>
	<path class="st0" d="M154.7,63.9v8H153v-8"/>
	<path class="st0" d="M170.6,63.9V72H170l-4.7-4.9v4.8h-1.7v-8.1h0.6l4.7,5v-4.9H170.6z"/>
	<path class="st0" d="M181.5,63.7c0.6,0,1.1,0.1,1.6,0.3c0.5,0.2,0.9,0.5,1.3,0.9c0.4,0.4,0.7,0.8,0.9,1.3c0.2,0.5,0.3,1.1,0.3,1.7   c0,0.6-0.1,1.2-0.3,1.7c-0.2,0.5-0.5,1-0.9,1.3c-0.4,0.4-0.8,0.7-1.3,0.9c-0.5,0.2-1,0.3-1.6,0.3s-1.1-0.1-1.6-0.3   c-0.5-0.2-1-0.5-1.3-0.9c-0.4-0.4-0.7-0.8-0.9-1.3c-0.2-0.5-0.3-1.1-0.3-1.7c0-0.6,0.1-1.2,0.3-1.7c0.2-0.5,0.5-1,0.9-1.3   c0.4-0.4,0.8-0.7,1.3-0.9C180.4,63.9,180.9,63.7,181.5,63.7z M181.5,65.3c-0.5,0-0.9,0.1-1.3,0.3c-0.4,0.2-0.7,0.5-0.9,0.9   c-0.2,0.4-0.3,0.8-0.3,1.3c0,0.5,0.1,0.9,0.3,1.3c0.2,0.4,0.5,0.7,0.9,0.9c0.4,0.2,0.8,0.3,1.3,0.3c0.5,0,0.9-0.1,1.3-0.3   c0.4-0.2,0.7-0.5,0.9-0.9c0.2-0.4,0.3-0.8,0.3-1.3c0-0.5-0.1-0.9-0.3-1.3c-0.2-0.4-0.5-0.7-0.9-0.9   C182.4,65.4,181.9,65.3,181.5,65.3z"/>
</g>
<g id="B2_4_">
	<linearGradient id="SVGID_1_" gradientUnits="userSpaceOnUse" x1="6.2347" y1="50.9967" x2="274.7562" y2="50.9967">
		<stop offset="0" style="stop-color:#640587"/>
		<stop offset="0.1118" style="stop-color:#110017"/>
		<stop offset="0.4" style="stop-color:#BD0AFF"/>
		<stop offset="0.6" style="stop-color:#BD0AFF"/>
		<stop offset="0.85" style="stop-color:#110017"/>
		<stop offset="1" style="stop-color:#640587"/>
	</linearGradient>
	<path class="st1" d="M140.6,11L140.6,11L6.2,51l134.2,39.9l0.1,0l134.3-40L140.6,11z M140.5,13.6L266,51L140.5,88.4L15,51   L140.5,13.6z"/>
</g>
<g id="B1_4_">
	
		<linearGradient id="SVGID_00000075847758523862538050000008095920232621448626_" gradientUnits="userSpaceOnUse" x1="24.2657" y1="50.9967" x2="292.797" y2="50.9967">
		<stop offset="0" style="stop-color:#640587"/>
		<stop offset="0.1118" style="stop-color:#110017"/>
		<stop offset="0.4" style="stop-color:#BD0AFF"/>
		<stop offset="0.6" style="stop-color:#BD0AFF"/>
		<stop offset="0.85" style="stop-color:#110017"/>
		<stop offset="1" style="stop-color:#640587"/>
	</linearGradient>
	<path style="fill:url(#SVGID_00000075847758523862538050000008095920232621448626_);" d="M158.6,11L158.6,11L24.3,51l134.2,39.9   l0.1,0l134.3-40L158.6,11z M158.5,13.6L284,51L158.5,88.4L33.1,51L158.5,13.6z"/>
</g>
<g id="JackpotCity">
	<path class="st3" d="M19.5,29.5v29.2c0,2.6-0.5,4.7-1.4,6.5c-1,1.8-2.3,3.2-3.9,4.3c-1.7,1.1-3.6,2-5.7,2.6L6,66.4   c4.8-1.4,7.2-3.9,7.2-7.5V29.5H19.5z"/>
	<path class="st3" d="M39.2,29.5L53.3,60h-7.4l-2.3-5.7h-12L29.3,60h-7.4L36,29.5H39.2z M37.6,39.7l-3.8,9.3h7.6L37.6,39.7z"/>
	<path class="st3" d="M69,29.5c1.8,0,3.4,0.3,4.8,0.8c1.3,0.5,2.5,1.2,3.5,2.1v6.1c-0.7-0.5-1.4-1-2.2-1.5c-0.8-0.5-1.6-0.9-2.6-1.2   c-0.9-0.3-2.1-0.5-3.4-0.5c-1.8,0-3.3,0.4-4.8,1.3c-1.4,0.8-2.6,2-3.4,3.4c-0.8,1.4-1.3,3.1-1.3,4.9c0,1.8,0.4,3.4,1.3,4.9   c0.8,1.4,2,2.6,3.4,3.4c1.4,0.8,3,1.2,4.8,1.2c2,0,3.6-0.3,4.9-0.9c1.3-0.6,2.5-1.3,3.6-2.2v5.9c-1,0.9-2.2,1.6-3.7,2.2   c-1.5,0.5-3.2,0.8-5,0.8c-2.1,0-4.1-0.4-6-1.1c-1.9-0.7-3.5-1.8-4.9-3.2c-1.4-1.4-2.6-3-3.4-4.8c-0.8-1.9-1.2-3.9-1.2-6.2   c0-2.3,0.4-4.4,1.2-6.2c0.8-1.9,1.9-3.5,3.4-4.8c1.4-1.4,3.1-2.4,4.9-3.2C64.9,29.9,66.9,29.5,69,29.5z"/>
	<path class="st3" d="M89.1,29.6v13.6l11.6-13.6h8L96.7,42.9L110,60h-8.2l-9.3-12.3l-3.3,3.7V60h-6.3V29.6H89.1z"/>
	<path class="st3" d="M125.7,29.6c1.4,0,2.8,0.2,4.2,0.7c1.4,0.5,2.6,1.2,3.7,2.1c1.1,0.9,2,2.1,2.6,3.4c0.6,1.3,1,2.8,1,4.5   c0,2.1-0.5,3.9-1.6,5.5c-1,1.6-2.4,2.8-4.1,3.7c-1.7,0.9-3.6,1.4-5.6,1.4c-1.4,0-2.6-0.1-3.7-0.4c-1.1-0.3-2-0.6-2.7-1V60h-6.3   V29.6H125.7z M119.5,35.5v9c0.7,0.3,1.5,0.5,2.4,0.7c1,0.2,1.9,0.3,2.9,0.3c1.8,0,3.3-0.5,4.3-1.5c1.1-1,1.6-2.2,1.6-3.6   c0-1.6-0.6-2.8-1.8-3.6c-1.2-0.8-2.6-1.2-4.3-1.2H119.5z"/>
	<path class="st3" d="M154.8,29.6c2.1,0,4.1,0.4,5.9,1.1s3.5,1.8,4.9,3.2c1.4,1.4,2.5,3,3.3,4.8c0.8,1.9,1.2,3.9,1.2,6.2   c0,2.3-0.4,4.4-1.2,6.2c-0.8,1.9-1.9,3.5-3.3,4.8c-1.4,1.4-3,2.4-4.9,3.2s-3.8,1.1-5.9,1.1c-2.1,0-4.1-0.4-5.9-1.1   c-1.9-0.7-3.5-1.8-4.9-3.2c-1.4-1.4-2.5-3-3.3-4.8c-0.8-1.9-1.2-3.9-1.2-6.2c0-2.3,0.4-4.3,1.2-6.2c0.8-1.9,1.9-3.5,3.3-4.8   c1.4-1.4,3.1-2.4,4.9-3.2C150.7,30,152.7,29.6,154.8,29.6z M154.8,35.3c-1.8,0-3.3,0.4-4.7,1.3c-1.4,0.8-2.5,2-3.3,3.4   c-0.8,1.4-1.2,3.1-1.2,4.9c0,1.8,0.4,3.4,1.2,4.9c0.8,1.4,1.9,2.6,3.3,3.4c1.4,0.8,3,1.2,4.7,1.2c1.8,0,3.3-0.4,4.7-1.2   s2.5-2,3.2-3.4c0.8-1.4,1.2-3.1,1.2-4.9c0-1.8-0.4-3.5-1.2-4.9c-0.8-1.4-1.9-2.6-3.2-3.4C158.1,35.8,156.6,35.3,154.8,35.3z"/>
	<path class="st3" d="M195.3,29.6v5.7h-9.7v24.6h-6.3V35.3h-9.7v-5.7H195.3z"/>
	<path class="st3" d="M210.8,29.5c1.8,0,3.4,0.3,4.8,0.8c1.3,0.5,2.5,1.2,3.5,2.1v6.1c-0.7-0.5-1.4-1-2.2-1.5   c-0.8-0.5-1.6-0.9-2.6-1.2c-1-0.3-2.1-0.5-3.4-0.5c-1.8,0-3.4,0.4-4.8,1.3c-1.4,0.8-2.6,2-3.4,3.4c-0.8,1.4-1.3,3.1-1.3,4.9   c0,1.8,0.4,3.4,1.3,4.9c0.8,1.4,2,2.6,3.4,3.4c1.4,0.8,3,1.3,4.8,1.3c2,0,3.6-0.3,4.9-0.9c1.3-0.6,2.5-1.3,3.6-2.2v5.9   c-1,0.9-2.2,1.6-3.7,2.2c-1.5,0.5-3.2,0.8-5,0.8c-2.1,0-4.1-0.4-6-1.1c-1.9-0.7-3.5-1.8-5-3.2c-1.4-1.4-2.6-3-3.4-4.8   c-0.8-1.9-1.2-3.9-1.2-6.2s0.4-4.4,1.2-6.2c0.8-1.9,1.9-3.5,3.4-4.8c1.4-1.4,3.1-2.4,5-3.2C206.7,29.9,208.7,29.5,210.8,29.5z"/>
	<path class="st3" d="M230.8,29.7v30.2h-6.3V29.7"/>
	<path class="st3" d="M261.3,29.6v5.7h-9.7v24.6h-6.3V35.3h-9.7v-5.7H261.3z"/>
	<path class="st3" d="M293,29.6l-11.7,18.9V60h-6.4V48.8L263,29.6h7.4l7.6,12.8l7.6-12.8H293z"/>
</g>
</svg>
