<?xml version="1.0"?>
<svg xmlns="http://www.w3.org/2000/svg" fill="none" viewBox="0 0 233 42" width="160" height="160"><g clip-path="url(#a)"><path d="M47.484 11.242c-.076.241.026.07-.167.305l-3.16 3.154c-1.11 1.142-2.285 2.22-4.466 2.227-3.274.01-4.456-2.206-5.961-4.176-.54-.707-.91-1.274-1.4-1.913-1-1.308-1.922-2.553-2.899-3.849-.176-.233-.695-.869-.72-1.012a.324.324 0 0 1 .022-.192 3.096 3.096 0 1 0-5.39-1.58c.038.38.135.64.27.878.123.258.282.497.47.71l.084.131c.028.162-3.563 4.803-3.791 5.112l-2.87 3.813c-2.101 2.417-5.216 2.782-7.78.853L6.38 12.368c-.272-.266-.885-.778-1.051-1.126a1.02 1.02 0 0 1 .084-.138 3.096 3.096 0 1 0-4.338-.103c.1.11.2.197.3.271.275.219.588.391.928.506l.063.039c.116.896 2.045 8.544 2.4 9.837.884 3.22.705 4.281 1.915 4.604h35.546l.554-.001.464.001h2.564c.811-.104 1.277-.46 1.55-1.515l1.21-4.925c.433-1.468 1.505-5.698 1.844-7.35.102-.495.041-.602.163-.703a3.097 3.097 0 0 0-1.03-6.015 3.095 3.095 0 0 0-2.72 1.614l-.003.006-.003.005a3.054 3.054 0 0 0 .002 2.985c.112.199.198.33.325.469l.338.413ZM7.561 29.473h37.835c.855 0 1.556.7 1.556 1.556v3.412c0 .855-.7 1.555-1.556 1.555H7.561a1.56 1.56 0 0 1-1.555-1.556v-3.41c0-.856.7-1.556 1.555-1.556Z" fill="#FF6B01" fill-rule="evenodd" clip-rule="evenodd"/><path d="M47.484 10.592c-.076.241.026.07-.167.305l-3.16 3.154c-1.11 1.142-2.285 2.22-4.466 2.226-3.274.011-4.456-2.205-5.961-4.175-.54-.707-.91-1.274-1.4-1.912-1-1.31-1.922-2.554-2.899-3.85-.176-.234-.695-.87-.72-1.013a.324.324 0 0 1 .022-.191 3.096 3.096 0 1 0-5.39-1.58c.038.38.135.64.27.878.123.259.282.497.47.71.027.042.056.085.084.132.028.161-3.563 4.802-3.791 5.11l-2.87 3.814c-2.101 2.417-5.216 2.781-7.78.854L6.38 11.717c-.272-.265-.885-.777-1.051-1.125.023-.046.051-.091.084-.138a3.096 3.096 0 1 0-4.338-.103c.1.11.2.198.3.271.275.219.588.391.928.506l.063.039c.116.896 2.045 8.544 2.4 9.836.884 3.222.705 4.282 1.915 4.605h35.546l.554-.001.464.001h2.564c.811-.105 1.277-.46 1.55-1.515l1.21-4.925c.433-1.468 1.505-5.698 1.844-7.35.102-.495.041-.602.163-.703a3.097 3.097 0 0 0-1.03-6.015 3.095 3.095 0 0 0-2.72 1.614l-.003.005-.003.006a3.053 3.053 0 0 0 .002 2.985c.112.199.198.33.325.469l.338.413ZM7.561 28.823h37.835c.855 0 1.556.7 1.556 1.556v3.411c0 .856-.7 1.556-1.556 1.556H7.561a1.56 1.56 0 0 1-1.555-1.556v-3.41c0-.856.7-1.556 1.555-1.556Z" fill="url(#b)" fill-rule="evenodd" clip-rule="evenodd"/><path d="m47.33 10.881-.013.016-3.16 3.154c-1.11 1.142-2.285 2.22-4.466 2.226-3.274.011-4.456-2.205-5.96-4.175-.54-.707-.911-1.274-1.4-1.912-1.002-1.31-1.923-2.554-2.9-3.85-.131-.174-.453-.571-.618-.821a3.945 3.945 0 0 1-.08.095.326.326 0 0 0-.021.191c.024.144.543.78.72 1.013.976 1.296 1.897 2.54 2.899 3.85.489.638.86 1.205 1.4 1.912 1.504 1.97 2.686 4.186 5.96 4.175 2.181-.006 3.356-1.084 4.466-2.226l3.16-3.154c.193-.235.09-.064.167-.305l-.154-.189ZM29.49 3.335a3.096 3.096 0 1 0-6.173 0 3.096 3.096 0 0 1 6.173 0ZM24.014 5.54c-.685 1.017-3.439 4.578-3.638 4.847l-2.87 3.813c-2.101 2.416-5.216 2.781-7.78.854L6.38 11.717c-.211-.205-.627-.56-.88-.87a3.724 3.724 0 0 1-.087.085 1.02 1.02 0 0 0-.084.138c.166.348.779.86 1.051 1.125l3.347 3.336c2.564 1.928 5.679 1.563 7.78-.853l2.87-3.813c.228-.309 3.819-4.95 3.791-5.111a8.002 8.002 0 0 0-.084-.133 2.88 2.88 0 0 1-.07-.08ZM6.382 8.434a3.096 3.096 0 1 0-6.173 0 3.096 3.096 0 0 1 6.173 0Zm46.249 0a3.096 3.096 0 0 0-5.805-1.72l-.004.005-.003.006a3.101 3.101 0 0 0-.379 1.74c.035-.448.168-.878.38-1.262l.002-.006.003-.005a3.095 3.095 0 0 1 5.806 1.242ZM7.56 28.824h37.835c.855 0 1.556.7 1.556 1.555v.478c0-.856-.7-1.556-1.556-1.556H7.561c-.855 0-1.555.7-1.555 1.556v-.478c0-.856.7-1.556 1.555-1.556Z" fill="#fff" fill-rule="evenodd" clip-rule="evenodd"/><path d="M69.387 11.087h-5.926v24.259h5.926v-9.773l7.07 9.773h6.793l-9.254-12.65 9.08-11.61h-6.619l-7.07 9.358v-9.357Zm21.556 6.064h-5.787v18.195h5.787V17.151Zm-2.945-1.108c1.836 0 3.257-1.317 3.257-3.12 0-1.836-1.421-3.153-3.257-3.153-1.837 0-3.224 1.317-3.224 3.153 0 1.803 1.387 3.12 3.224 3.12Zm16.946 19.303h5.788V25.261c0-3.708-.555-8.56-6.238-8.56-2.288 0-3.882 1.247-4.575 2.322V17.15h-5.65v18.195h5.789V24.499c0-1.456.901-2.6 2.495-2.6 1.386 0 2.391.901 2.391 2.6v10.847Zm21.487-.936c0 2.218-2.149 2.703-4.297 2.703-2.461 0-4.506-.866-5.026-1.108l-1.698 4.435c1.629.832 4.159 1.56 6.724 1.56 5.406 0 10.085-2.114 10.085-8.837V17.15h-5.407v1.422c-.519-.59-2.252-1.872-4.921-1.872-5.233 0-8.907 3.95-8.907 9.53 0 5.65 3.328 9.565 8.595 9.565 2.773 0 4.471-1.386 4.852-1.836v.45Zm.174-8.213c0 2.876-1.629 4.505-3.917 4.505-2.357 0-3.916-1.837-3.916-4.505 0-2.703 1.559-4.401 3.882-4.401 2.495 0 3.951 1.975 3.951 4.4Zm24.779-1.698c0-1.56.866-2.6 2.218-2.6 1.386 0 2.218.97 2.218 2.6v10.847h5.787V23.251c0-3.847-1.975-6.55-6.169-6.55-2.356 0-4.054.97-5.164 2.391-.97-1.49-2.564-2.391-4.713-2.391-2.426 0-3.881 1.213-4.505 2.322V17.15h-5.649v18.195h5.787V24.499c0-1.664.867-2.6 2.219-2.6 1.386 0 2.183.97 2.183 2.6v10.847h5.788V24.499Zm12.441 5.198c0 3.95 3.188 6.1 6.758 6.1 1.871 0 3.188-.52 4.124-1.456l.312 1.005h5.164V24.083c0-4.159-1.595-7.382-7.867-7.382-3.015 0-5.476.97-7.416 2.253l2.148 3.881c1.421-.693 2.981-1.144 4.575-1.144 1.871 0 2.772.867 2.772 1.976v.658c-.659-.277-1.906-.658-3.5-.658-4.298 0-7.07 2.391-7.07 6.03Zm5.788-.208c0-1.178 1.039-1.94 2.426-1.94 1.386 0 2.46.692 2.46 1.94 0 1.213-1.04 1.871-2.426 1.871-1.351 0-2.46-.658-2.46-1.871Zm30.878-12.338h-6.481l-4.921 7.313V10.29h-5.787v25.056h5.787v-8.49l5.095 8.49h6.792l-6.342-9.877 5.857-8.318Zm19.13 10.605c.035-.416.035-.797.035-1.143 0-6.204-3.154-9.912-8.941-9.912-5.337 0-8.942 4.263-8.942 9.6 0 5.371 3.674 9.495 9.67 9.495 4.713 0 7.208-2.945 7.728-4.02l-3.812-2.945c-.347.52-1.629 1.94-3.812 1.94-2.149 0-3.709-1.386-3.847-3.015h11.921Zm-8.802-6.377c1.802 0 2.876 1.248 2.946 2.704h-5.892c.139-1.282 1.04-2.704 2.946-2.704Zm21.625-4.678c-2.252 0-3.951 1.109-4.817 2.877V17.15h-5.649v18.195h5.787v-8.04c0-2.738.936-4.783 3.743-4.783.416 0 .693.035.936.07V16.7Z" fill="#EDE9F2"/></g><defs><linearGradient id="b" x1="8.956" x2="43.883" y1="2.714" y2="32.632" gradientUnits="userSpaceOnUse"><stop stop-color="#FCE224"/><stop offset=".451" stop-color="#FDDC27"/><stop offset=".6" stop-color="#FFD62A"/><stop offset="1" stop-color="#FF6B01"/></linearGradient><clipPath id="a"><path d="M0 0h232.643v42H0z" fill="#fff"/></clipPath></defs></svg>
