<?xml version="1.0"?>
<svg xmlns="http://www.w3.org/2000/svg" width="80" height="80" viewBox="0 0 693 175" fill="none">
<g clip-path="url(#clip0)">
<path d="M103.45 2.17999H54.29C53.19 2.17999 52.1 2.17999 51.02 2.27999C37.2128 3.11314 24.2443 9.18511 14.7624 19.2561C5.28055 29.3272 0.000364612 42.6377 0 56.47L0 105.63C0 106.654 0.406677 107.636 1.13057 108.359C1.85446 109.083 2.83626 109.49 3.86 109.49H49.15C56.7877 109.49 64.3506 107.986 71.4069 105.063C78.4632 102.14 84.8747 97.856 90.2753 92.4553C95.676 87.0547 99.96 80.6432 102.883 73.5869C105.806 66.5306 107.31 58.9677 107.31 51.33V5.99999C107.299 4.9832 106.888 4.01164 106.165 3.29638C105.443 2.58112 104.467 2.17994 103.45 2.17999ZM92.45 51.6C92.45 63.0043 87.9197 73.9415 79.8556 82.0056C71.7915 90.0696 60.8543 94.6 49.45 94.6H18.91C17.8863 94.6 16.9045 94.1933 16.1806 93.4694C15.4567 92.7455 15.05 91.7637 15.05 90.74V56.38C15.0497 46.4051 18.8569 36.8063 25.6942 29.5434C32.5315 22.2805 41.8832 17.9013 51.84 17.3C52.62 17.25 53.41 17.23 54.2 17.23H88.57C89.0777 17.2287 89.5808 17.3275 90.0502 17.5209C90.5197 17.7143 90.9464 17.9985 91.3059 18.357C91.6654 18.7156 91.9506 19.1416 92.1452 19.6105C92.3398 20.0795 92.44 20.5822 92.44 21.09L92.45 51.6Z" fill="#FFD36C"/>
<path d="M75.14 30.49H54C53.48 30.49 53 30.49 52.45 30.54C45.928 30.9348 39.8025 33.8038 35.3238 38.5612C30.8451 43.3187 28.3508 49.606 28.35 56.14V77.32C28.35 77.8277 28.4502 78.3305 28.6448 78.7995C28.8394 79.2684 29.1246 79.6944 29.4841 80.053C29.8436 80.4115 30.2703 80.6957 30.7398 80.889C31.2092 81.0824 31.7123 81.1813 32.22 81.18H49.49C57.3165 81.18 64.8225 78.0709 70.3567 72.5367C75.8909 67.0025 79 59.4965 79 51.67V34.36C79.0013 33.8522 78.9025 33.3492 78.7091 32.8798C78.5157 32.4103 78.2315 31.9836 77.873 31.6241C77.5144 31.2646 77.0884 30.9794 76.6195 30.7848C76.1505 30.5902 75.6478 30.49 75.14 30.49Z" fill="#FFD36C"/>
<path d="M479.33 95.49C468.93 84.93 463.74 71.78 463.74 55.7C463.74 40.11 469.26 26.96 480.14 16.24C491.18 5.51997 504.983 0.159973 521.55 0.159973C538.28 0.159973 552.08 5.51997 562.8 16.24C573.52 26.8 578.88 39.9533 578.88 55.7C578.88 71.46 573.52 84.77 562.64 95.33C551.92 105.88 538.11 111.08 521.39 111.08C503.85 111.08 489.88 105.88 479.33 95.49ZM497.52 30.37C491.18 37.19 488.1 45.63 488.1 55.7C488.1 66.1 491.18 74.7 497.19 81.52C503.36 88.35 511.48 91.76 521.71 91.76C531.62 91.76 539.71 88.35 545.71 81.36C551.88 74.36 554.96 65.93 554.96 55.7C554.96 45.6266 551.877 37.1833 545.71 30.37C539.71 23.55 531.58 20.14 521.71 20.14C511.84 20.14 503.85 23.55 497.52 30.37Z" fill="#FFD36C"/>
<path d="M156.32 2.10999H180.52V90.62H230.05V109.29H156.32V2.10999Z" fill="white"/>
<path d="M318.39 90.62V109.29H242.71V2.10999H315.31V20.79H266.91V44.5H310.27V62.5H266.91V90.6L318.39 90.62Z" fill="white"/>
<path d="M392.28 89.48H388.71L358.83 56.84C358.765 56.9008 358.687 56.9467 358.603 56.9743C358.518 57.002 358.428 57.0107 358.34 57V109.29H335.12V0.330017H338.69L390.5 60.25L442.14 0.330017H445.55V109.33H422.16V57C422 56.84 421.84 56.84 421.51 56.84L392.28 89.48Z" fill="white"/>
<path d="M621.26 109.29H597.26V0H600.83C608.46 7.47 619.67 17.86 634.45 31.34C649.23 44.66 660.45 54.89 667.74 62.04H668.39V2.11H692.39V111.11H689L621.75 47.42H621.26V109.29Z" fill="white"/>
<path d="M184.65 169.23C182.946 171.006 180.89 172.406 178.613 173.341C176.337 174.276 173.89 174.725 171.43 174.66C161.43 174.66 153.2 168.66 153.2 156.49C153.2 144.32 161.48 138.33 171.43 138.33C173.737 138.253 176.034 138.666 178.17 139.542C180.305 140.417 182.231 141.736 183.82 143.41L178.46 149.05C176.573 147.333 174.121 146.369 171.57 146.34C165.87 146.34 161.69 150.51 161.69 156.49C161.69 163.04 166.14 166.49 171.43 166.49C172.81 166.543 174.188 166.318 175.479 165.828C176.771 165.339 177.951 164.595 178.95 163.64L184.65 169.23Z" fill="white"/>
<path d="M215.62 139.31H223.76V173.61H215.76L215.35 168.61C213.35 172.61 208.04 174.61 204.21 174.67C194.06 174.73 186.54 168.47 186.54 156.43C186.54 144.61 194.4 138.43 204.42 138.48C209.02 138.48 213.42 140.64 215.35 144.05L215.62 139.31ZM195 156.42C195 162.97 199.52 166.86 205.16 166.86C218.52 166.86 218.52 146.06 205.16 146.06C199.54 146.06 195 149.88 195 156.42Z" fill="white"/>
<path d="M253.33 148.42C252.191 147.369 250.853 146.556 249.395 146.031C247.937 145.505 246.388 145.277 244.84 145.36C240.84 145.36 238.58 146.61 238.58 148.77C238.58 150.93 240.58 152.25 244.98 152.53C251.45 152.95 259.66 154.41 259.66 163.53C259.66 169.59 254.72 174.8 244.91 174.8C239.48 174.8 234.05 173.9 229.04 168.68L233.22 162.68C235.65 165.39 241.22 167.41 245.05 167.48C248.25 167.55 251.24 165.88 251.24 163.37C251.24 160.86 249.24 160.03 244.42 159.76C237.95 159.27 230.23 156.9 230.23 149.11C230.23 141.32 238.44 138.39 244.7 138.39C250.06 138.39 254.09 139.39 258.06 142.92L253.33 148.42Z" fill="white"/>
<path d="M274.34 129.64C274.34 136.25 264.34 136.25 264.34 129.64C264.34 123.03 274.34 123 274.34 129.64ZM265.09 139.17V173.61H273.57V139.17H265.09Z" fill="white"/>
<path d="M306.49 173.61V155.61C306.49 150.39 303.63 146.42 298.21 146.42C292.99 146.42 289.44 150.81 289.44 156.03V173.56H281V139.24H288.58L289.14 143.9C292.62 140.49 296.14 138.75 300.41 138.75C308.48 138.75 314.96 144.8 314.96 155.59V173.59L306.49 173.61Z" fill="white"/>
<path d="M356.38 156.49C356.38 166.38 349.63 174.38 338.49 174.38C327.35 174.38 320.68 166.38 320.68 156.49C320.68 146.6 327.5 138.61 338.42 138.61C349.34 138.61 356.38 146.68 356.38 156.49ZM329.17 156.49C329.17 161.71 332.3 166.58 338.49 166.58C344.68 166.58 347.82 161.71 347.82 156.49C347.82 151.27 344.2 146.34 338.49 146.34C332.37 146.34 329.17 151.35 329.17 156.49Z" fill="white"/>
</g>
<defs>
<clipPath id="clip0">
<rect width="692.39" height="174.79" fill="white"/>
</clipPath>
</defs>
</svg>
