<?xml version="1.0"?>
<svg xmlns="http://www.w3.org/2000/svg" width="260" height="40" viewBox="0 0 249 42" fill="none">
<path d="M67.1216 25.0439V25.1399C67.2144 26.0715 67.1057 27.0121 66.8027 27.8982C66.4997 28.7843 66.0095 29.5951 65.3654 30.2759C63.9236 31.4943 62.0673 32.113 60.1809 32.0039C59.1825 32.0514 58.1847 31.8984 57.2467 31.5542C56.3086 31.21 55.4493 30.6814 54.7197 29.9999C54.0095 29.2254 53.4625 28.3164 53.1112 27.327C52.76 26.3375 52.6115 25.2877 52.6748 24.2399V17.8799C52.6007 16.8177 52.7379 15.7513 53.0786 14.7422C53.4192 13.7331 53.9565 12.8011 54.6596 11.9999C55.3486 11.3031 56.1772 10.7591 57.0913 10.4035C58.0054 10.0478 58.9844 9.8885 59.9644 9.93591C61.9136 9.80475 63.8412 10.4086 65.3654 11.6279C66.0307 12.3042 66.5392 13.1178 66.8551 14.0114C67.171 14.905 67.2866 15.8569 67.1938 16.7999V16.8959H63.1039C63.1968 15.8821 62.9424 14.8668 62.3822 14.0159C62.0643 13.7143 61.6845 13.4852 61.2691 13.3443C60.8538 13.2034 60.4127 13.1542 59.9764 13.1999C59.512 13.1656 59.0466 13.2514 58.6251 13.449C58.2037 13.6466 57.8404 13.9493 57.5706 14.3279C56.9696 15.3717 56.6971 16.5717 56.7887 17.7719V24.1319C56.6945 25.3401 56.9895 26.5467 57.6307 27.5759C57.9296 27.956 58.3171 28.2575 58.7595 28.4541C59.2018 28.6507 59.6857 28.7365 60.1688 28.7039C60.577 28.7384 60.9878 28.6832 61.3723 28.5422C61.7568 28.4012 62.1056 28.1779 62.3942 27.8879C62.9351 27.0164 63.1759 25.9925 63.0799 24.9719H67.1216V25.0439Z" fill="white"/>
<path d="M79.2469 27.0719H73.882L72.6791 31.7039H68.3486L74.4473 10.3199H78.7537L84.8404 31.7159H80.5099L79.2469 27.0719ZM74.7601 23.7839H78.3688L76.5765 16.9919H76.4802L74.7601 23.7839Z" fill="white"/>
<path d="M95.9793 26.1359C96.022 25.4083 95.7855 24.6918 95.3177 24.1319C94.631 23.4822 93.8097 22.9906 92.9119 22.6919C91.1119 22.1275 89.4318 21.2366 87.956 20.0639C87.3948 19.5429 86.9553 18.9053 86.6684 18.1961C86.3816 17.4869 86.2544 16.7235 86.2959 15.9599C86.2735 15.1492 86.4312 14.3435 86.7577 13.6008C87.0842 12.8581 87.5715 12.1966 88.1845 11.6639C89.5215 10.5261 91.2402 9.93455 92.9961 10.0079C94.8563 9.90787 96.6821 10.5365 98.0844 11.7599C98.7208 12.365 99.2164 13.102 99.5365 13.9188C99.8566 14.7357 99.9932 15.6126 99.9368 16.4879V16.5839H95.883C95.947 15.6835 95.6773 14.7911 95.1252 14.0759C94.8531 13.7862 94.5198 13.5606 94.1495 13.4153C93.7792 13.27 93.3811 13.2087 92.9841 13.2359C92.636 13.2155 92.2879 13.2752 91.9667 13.4105C91.6455 13.5457 91.3598 13.7529 91.1316 14.0159C90.6834 14.5725 90.4488 15.2703 90.47 15.9839C90.4645 16.3181 90.5291 16.6498 90.6596 16.9577C90.7901 17.2656 90.9837 17.543 91.2278 17.7719C92.0121 18.4106 92.8879 18.9283 93.8261 19.3079C95.5718 19.8169 97.1823 20.7063 98.5415 21.9119C99.0866 22.4672 99.5103 23.1293 99.7857 23.8564C100.061 24.5835 100.182 25.3597 100.141 26.1359C100.176 26.9518 100.024 27.7648 99.6969 28.5134C99.3696 29.2619 98.8758 29.9262 98.2528 30.4559C96.8408 31.5513 95.0836 32.1087 93.2968 32.0279C91.4173 32.0778 89.5779 31.4803 88.0883 30.3359C87.3467 29.7133 86.7669 28.9212 86.3982 28.0269C86.0296 27.1327 85.8831 26.1628 85.9712 25.1999V25.1039H90.0249C89.9303 26.1319 90.2218 27.1582 90.8429 27.9839C91.1618 28.2873 91.5401 28.5217 91.9541 28.6725C92.3681 28.8232 92.8088 28.887 93.2487 28.8599C93.6152 28.8849 93.983 28.8338 94.3287 28.7099C94.6745 28.5859 94.9908 28.3919 95.2575 28.1399C95.7351 27.5985 95.9812 26.8921 95.9432 26.1719L95.9793 26.1359Z" fill="white"/>
<path d="M107.226 31.6799H103.076V10.2839H107.226V31.6799Z" fill="white"/>
<path d="M125.943 31.6799H121.793L114.985 17.9999H114.888V31.6799H110.738V10.2839H114.912L121.733 23.9999H121.829V10.3199H125.979V31.6799H125.943Z" fill="white"/>
<path d="M144.468 23.9999C144.528 25.0754 144.37 26.1518 144.002 27.1644C143.634 28.177 143.064 29.1048 142.327 29.8919C140.76 31.264 138.746 32.0206 136.662 32.0206C134.577 32.0206 132.563 31.264 130.996 29.8919C130.259 29.1048 129.689 28.177 129.321 27.1644C128.953 26.1518 128.795 25.0754 128.855 23.9999V17.9999C128.789 16.927 128.942 15.8518 129.303 14.8393C129.665 13.8267 130.229 12.8976 130.96 12.1079C132.527 10.7359 134.54 9.97931 136.625 9.97931C138.71 9.97931 140.724 10.7359 142.291 12.1079C143.028 12.8951 143.598 13.8229 143.966 14.8355C144.334 15.8481 144.492 16.9245 144.432 17.9999V23.9999H144.468ZM140.318 17.9999C140.406 16.7489 140.076 15.5041 139.38 14.4599C139.056 14.0544 138.639 13.7334 138.163 13.5244C137.687 13.3154 137.168 13.2246 136.649 13.2599C136.132 13.2326 135.615 13.3269 135.141 13.5354C134.667 13.7438 134.248 14.0605 133.919 14.4599C133.242 15.5117 132.921 16.7527 133.005 17.9999V23.9999C132.911 25.267 133.232 26.5303 133.919 27.5999C134.268 27.9743 134.69 28.2728 135.16 28.477C135.63 28.6811 136.137 28.7865 136.649 28.7865C137.162 28.7865 137.669 28.6811 138.139 28.477C138.608 28.2728 139.031 27.9743 139.38 27.5999C140.077 26.5335 140.406 25.2698 140.318 23.9999V17.9999Z" fill="white"/>
<path d="M161.393 25.0439V25.1399C161.486 26.0715 161.377 27.0121 161.074 27.8982C160.771 28.7843 160.281 29.5951 159.637 30.2759C158.194 31.4932 156.339 32.1118 154.452 32.0039C153.445 32.0515 152.439 31.8953 151.495 31.5447C150.55 31.1941 149.686 30.6564 148.955 29.9639C148.245 29.1894 147.698 28.2804 147.347 27.291C146.995 26.3015 146.847 25.2517 146.91 24.2039V17.8439C146.777 15.7073 147.499 13.6053 148.919 11.9999C149.608 11.3031 150.437 10.7591 151.351 10.4035C152.265 10.0478 153.244 9.8885 154.224 9.93591C156.173 9.80475 158.101 10.4086 159.625 11.6279C160.29 12.3042 160.799 13.1178 161.115 14.0114C161.43 14.905 161.546 15.8569 161.453 16.7999V16.8959H157.436C157.528 15.8821 157.274 14.8668 156.714 14.0159C156.396 13.7143 156.016 13.4852 155.601 13.3443C155.185 13.2034 154.744 13.1542 154.308 13.1999C153.844 13.1656 153.378 13.2514 152.957 13.449C152.535 13.6466 152.172 13.9493 151.902 14.3279C151.301 15.3717 151.029 16.5717 151.12 17.7719V24.1319C151.026 25.3401 151.321 26.5467 151.962 27.5759C152.261 27.956 152.649 28.2575 153.091 28.4541C153.533 28.6507 154.017 28.7365 154.5 28.7039C154.909 28.7384 155.319 28.6832 155.704 28.5422C156.088 28.4012 156.437 28.1779 156.726 27.8879C157.281 27.0222 157.522 25.9934 157.411 24.9719H161.405L161.393 25.0439Z" fill="white"/>
<path d="M173.542 27.0719H168.165L166.962 31.7039H162.632L168.731 10.3199H173.001L179.088 31.7159H174.757L173.542 27.0719ZM169.019 23.7839H172.688L170.896 16.9919H170.812L169.019 23.7839Z" fill="white"/>
<path d="M196.073 31.6799H191.899L185.03 17.9999H184.934V31.6799H180.796V10.2839H184.946L191.754 23.9999H191.851V10.3199H196.001V31.6799H196.073Z" fill="white"/>
<path d="M209.088 27.0719H203.723L202.52 31.7039H198.189L204.276 10.3199H208.582L214.669 31.7159H210.339L209.088 27.0719ZM204.565 23.7839H208.174L206.381 16.9919H206.285L204.565 23.7839Z" fill="white"/>
<path d="M216.365 31.6799V10.2839H222.957C224.018 10.2607 225.07 10.4738 226.038 10.9076C227.005 11.3415 227.864 11.9852 228.551 12.7919C230.049 14.5835 230.821 16.8692 230.716 19.1999V22.7999C230.827 25.1314 230.054 27.4192 228.551 29.2079C227.868 30.0072 227.014 30.644 226.053 31.0717C225.091 31.4994 224.046 31.7072 222.993 31.6799H216.365ZM220.515 13.5479V28.4519H222.921C223.46 28.446 223.987 28.2944 224.447 28.0134C224.907 27.7324 225.281 27.3324 225.531 26.8559C226.235 25.6059 226.572 24.1839 226.506 22.7519V19.1999C226.568 17.7797 226.231 16.3704 225.531 15.1319C225.285 14.6528 224.911 14.2507 224.45 13.9692C223.99 13.6878 223.461 13.5379 222.921 13.5359H220.515V13.5479Z" fill="white"/>
<path d="M242.841 27.0719H237.476L236.273 31.7039H231.942L238.029 10.3199H242.335L248.422 31.7159H244.092L242.841 27.0719ZM238.318 23.7839H241.926L240.134 16.9919H240.038L238.318 23.7839Z" fill="white"/>
<path d="M21.0507 42C32.6767 42 42.1014 32.598 42.1014 21C42.1014 9.40202 32.6767 0 21.0507 0C9.42473 0 0 9.40202 0 21C0 32.598 9.42473 42 21.0507 42Z" fill="white"/>
<path d="M28.7852 25.788L36.3514 21.48L34.6193 20.616C34.3806 20.498 34.1849 20.3084 34.0598 20.0738C33.9347 19.8392 33.8863 19.5714 33.9216 19.308L34.4869 15.084L31.2752 16.008C31.1077 16.0564 30.932 16.07 30.759 16.0479C30.5859 16.0259 30.4193 15.9687 30.2694 15.8798C30.1194 15.791 29.9893 15.6724 29.8871 15.5314C29.785 15.3903 29.7129 15.2299 29.6753 15.06L29.3626 13.68L26.3553 17.196C26.2666 17.302 26.145 17.3756 26.0098 17.4053C25.8746 17.435 25.7333 17.4191 25.6081 17.3601C25.4829 17.3011 25.3809 17.2023 25.318 17.0792C25.2551 16.9561 25.235 16.8157 25.2607 16.68L26.5478 9.228L24.5871 9.76801C24.3095 9.84299 24.0146 9.82215 23.7504 9.70887C23.4862 9.59559 23.2681 9.39652 23.1316 9.144L21.0506 5.26801L18.9816 9.132C18.8451 9.38452 18.627 9.58359 18.3628 9.69687C18.0985 9.81015 17.8037 9.83099 17.5261 9.756L15.5653 9.216L16.8404 16.68C16.8604 16.8154 16.8362 16.9536 16.7712 17.0742C16.7062 17.1947 16.6039 17.2911 16.4797 17.349C16.3554 17.407 16.2157 17.4234 16.0813 17.3958C15.9469 17.3683 15.825 17.2982 15.7337 17.196L12.7265 13.68L12.4137 15.06C12.376 15.2286 12.3043 15.3877 12.2029 15.5278C12.1016 15.6678 11.9726 15.7857 11.8241 15.8744C11.6755 15.9632 11.5104 16.0207 11.3388 16.0437C11.1672 16.0667 10.9927 16.0545 10.8259 16.008L7.62621 15.084L8.19157 19.308C8.22681 19.5714 8.17848 19.8392 8.05334 20.0738C7.92821 20.3084 7.73257 20.498 7.49389 20.616L5.76172 21.48L13.328 25.788C13.7052 26.0048 13.9933 26.348 14.1408 26.7567C14.2884 27.1654 14.2859 27.613 14.1339 28.02L13.4843 29.748L19.968 29.196C20.0519 29.1893 20.1363 29.2002 20.2158 29.2281C20.2953 29.2559 20.368 29.3002 20.4292 29.3579C20.4904 29.4156 20.5388 29.4854 20.5713 29.563C20.6037 29.6405 20.6195 29.724 20.6175 29.808L20.4491 36.744H21.652L21.4475 29.82C21.4456 29.736 21.4613 29.6525 21.4938 29.575C21.5262 29.4974 21.5746 29.4276 21.6358 29.3699C21.6971 29.3122 21.7698 29.2679 21.8492 29.2401C21.9287 29.2122 22.0131 29.2013 22.0971 29.208L28.5807 29.76L27.9311 28.032C27.7798 27.618 27.7829 27.1635 27.9397 26.7515C28.0965 26.3395 28.3966 25.9975 28.7852 25.788Z" fill="#7D0000"/>
</svg>
