<?xml version="1.0"?>
<svg xmlns="http://www.w3.org/2000/svg" width="160" height="160" fill="none" viewBox="0 0 178 69"><path d="M31.726 68.655c-1.865 0-3.657-.487-5.306-1.393L5.483 55.486C2.185 53.675.177 50.261.177 46.569v-23.48c0-3.693 2.008-7.107 5.306-8.919L26.42 2.394a11.04 11.04 0 0 1 10.611 0l20.937 11.775c3.298 1.812 5.306 5.226 5.306 8.918v23.481c0 3.693-2.008 7.107-5.306 8.919L37.03 67.261c-1.649.906-3.441 1.393-5.305 1.393zm0-66.47c-1.291 0-2.582.348-3.8.975L5.41 15.841c-2.294 1.324-3.8 3.763-3.8 6.34v25.293c0 2.648 1.434 5.017 3.8 6.34l22.514 12.611c2.295 1.324 5.234 1.324 7.529 0l22.514-12.61c2.294-1.325 3.8-3.763 3.8-6.341V22.182c0-2.648-1.434-5.017-3.8-6.34L35.526 3.16a8.1 8.1 0 0 0-3.8-.975z" fill="#FEC882"/><path d="M91.972 31.569h-3.951l-6.608-9.787v9.787h-3.951V15.625h3.95l6.609 9.878v-9.878h3.951v15.944zM99.6 18.827c.985 0 1.833.218 2.541.654a3.953 3.953 0 0 1 1.571 1.782v-2.278h3.929v12.584h-3.929V29.29a3.953 3.953 0 0 1-1.571 1.782c-.708.436-1.556.654-2.541.654-1.063 0-2.018-.256-2.866-.767-.831-.526-1.494-1.278-1.987-2.255-.477-.977-.716-2.12-.716-3.428 0-1.323.239-2.466.716-3.428.493-.977 1.156-1.721 1.987-2.233.848-.526 1.803-.789 2.866-.789zm1.27 3.383c-.847 0-1.532.27-2.056.812-.508.541-.763 1.293-.763 2.255s.254 1.714.763 2.255c.524.541 1.209.812 2.056.812.832 0 1.51-.278 2.034-.834.539-.557.808-1.301.808-2.233 0-.947-.269-1.692-.808-2.233-.524-.556-1.202-.834-2.034-.834zM117.662 28.254v3.315h-1.779c-1.509 0-2.688-.361-3.535-1.083-.832-.736-1.248-1.947-1.248-3.63v-4.623h-1.733v-3.248h1.733v-3.09h3.951v3.09h2.588v3.248h-2.588v4.69c0 .496.101.842.301 1.038.216.195.57.293 1.063.293h1.247zM119.513 15.445c0-.587.216-1.068.647-1.444.432-.39 1.002-.586 1.71-.586.709 0 1.279.196 1.71.587.432.375.647.856.647 1.443a1.87 1.87 0 0 1-.647 1.443c-.431.376-1.001.564-1.71.564-.708 0-1.278-.188-1.71-.564a1.873 1.873 0 0 1-.647-1.443zm4.321 3.54V31.57h-3.951V18.985h3.951zM132.593 18.827c1.279 0 2.419.263 3.42.79a5.619 5.619 0 0 1 2.38 2.232c.585.977.878 2.12.878 3.428 0 1.308-.293 2.45-.878 3.428a5.763 5.763 0 0 1-2.38 2.255c-1.001.511-2.141.767-3.42.767-1.278 0-2.426-.256-3.443-.767a5.926 5.926 0 0 1-2.403-2.255c-.57-.977-.855-2.12-.855-3.428 0-1.308.285-2.45.855-3.428a5.775 5.775 0 0 1 2.403-2.233c1.017-.526 2.165-.789 3.443-.789zm0 3.338c-.755 0-1.394.27-1.918.812-.508.526-.762 1.293-.762 2.3s.254 1.774.762 2.3c.524.526 1.163.79 1.918.79.755 0 1.387-.264 1.895-.79s.763-1.293.763-2.3-.255-1.774-.763-2.3c-.508-.542-1.14-.812-1.895-.812zM149.499 18.85c1.479 0 2.65.48 3.512 1.443.879.962 1.318 2.285 1.318 3.969v7.307h-3.951v-6.856c0-.842-.232-1.496-.694-1.962-.447-.481-1.047-.722-1.802-.722-.801 0-1.44.248-1.918.745-.462.496-.694 1.202-.694 2.12v6.675h-3.951V18.985h3.951v2.3a4.21 4.21 0 0 1 1.642-1.781c.738-.436 1.602-.654 2.587-.654zM161.833 18.827c.986 0 1.833.218 2.542.654a3.964 3.964 0 0 1 1.571 1.782v-2.278h3.928v12.584h-3.928V29.29a3.965 3.965 0 0 1-1.571 1.782c-.709.436-1.556.654-2.542.654-1.063 0-2.019-.256-2.865-.767-.833-.526-1.494-1.278-1.988-2.255-.477-.977-.716-2.12-.716-3.428 0-1.323.239-2.466.716-3.428.494-.977 1.155-1.721 1.988-2.233.846-.526 1.802-.789 2.865-.789zm1.271 3.383c-.848 0-1.533.27-2.056.812-.509.541-.763 1.293-.763 2.255s.254 1.714.763 2.255c.523.541 1.208.812 2.056.812.831 0 1.509-.278 2.034-.834.538-.557.808-1.301.808-2.233 0-.947-.27-1.692-.808-2.233-.525-.556-1.203-.834-2.034-.834zM176.545 14.88v16.69h-3.951V14.88h3.951zM83.354 41.536c1.648 0 3.011.429 4.09 1.286 1.078.841 1.748 1.992 2.01 3.45h-2.796c-.154-.782-.532-1.39-1.132-1.827-.586-.45-1.325-.676-2.219-.676-1.016 0-1.864.353-2.541 1.06-.678.691-1.017 1.714-1.017 3.067 0 1.353.339 2.383 1.017 3.09.677.706 1.525 1.06 2.541 1.06.894 0 1.633-.226 2.219-.677.6-.451.978-1.068 1.132-1.85h2.796c-.262 1.459-.932 2.617-2.01 3.473-1.079.857-2.442 1.286-4.09 1.286-1.233 0-2.326-.256-3.281-.767a5.54 5.54 0 0 1-2.219-2.21c-.539-.962-.808-2.097-.808-3.405 0-1.293.27-2.42.808-3.383a5.54 5.54 0 0 1 2.219-2.21c.955-.511 2.048-.767 3.28-.767zM97.105 41.536c1.155 0 2.141.278 2.958.835a4.508 4.508 0 0 1 1.733 2.21v-2.887h2.634V54.12h-2.634v-2.887a4.51 4.51 0 0 1-1.733 2.21c-.817.557-1.803.835-2.958.835-1.109 0-2.103-.256-2.98-.767-.863-.511-1.541-1.248-2.034-2.21-.493-.962-.74-2.097-.74-3.405 0-1.293.247-2.42.74-3.383.493-.962 1.17-1.699 2.033-2.21.878-.511 1.872-.767 2.981-.767zm.809 2.255c-1.17 0-2.11.369-2.82 1.105-.692.722-1.039 1.722-1.039 3s.347 2.285 1.04 3.022c.708.721 1.648 1.082 2.819 1.082.74 0 1.402-.165 1.987-.496a3.726 3.726 0 0 0 1.386-1.443c.339-.617.509-1.338.509-2.165 0-.812-.17-1.526-.509-2.143a3.53 3.53 0 0 0-1.386-1.443c-.585-.346-1.248-.519-1.987-.519zM111.773 41.536c1.494 0 2.688.376 3.581 1.128.909.736 1.464 1.729 1.664 2.977h-2.495c-.108-.677-.409-1.218-.902-1.624-.477-.421-1.116-.632-1.917-.632-.663 0-1.179.158-1.548.474-.355.3-.532.714-.532 1.24 0 .391.131.707.393.948.262.24.585.428.97.563.401.136.963.286 1.687.451.955.21 1.725.429 2.311.654a3.618 3.618 0 0 1 1.525 1.083c.431.48.647 1.142.647 1.984 0 1.038-.408 1.88-1.225 2.526-.801.647-1.887.97-3.258.97-1.587 0-2.873-.361-3.859-1.083-.97-.721-1.555-1.729-1.756-3.022h2.565a2.35 2.35 0 0 0 .924 1.647c.539.42 1.248.631 2.126.631.632 0 1.125-.158 1.479-.473.37-.331.554-.745.554-1.24 0-.437-.138-.783-.415-1.038a2.78 2.78 0 0 0-1.04-.586c-.416-.15-.986-.301-1.71-.451-.924-.211-1.679-.421-2.265-.632a3.661 3.661 0 0 1-1.478-1.015c-.401-.481-.601-1.127-.601-1.94 0-1.052.4-1.901 1.202-2.547.816-.662 1.94-.993 3.373-.993zM119.429 38.086c0-.436.154-.797.462-1.082.308-.286.716-.429 1.224-.429.509 0 .917.143 1.225.429.324.285.485.646.485 1.082 0 .436-.161.79-.485 1.06-.308.27-.716.406-1.225.406-.508 0-.916-.135-1.224-.406-.308-.27-.462-.624-.462-1.06zm3.003 3.608V54.12h-2.634V41.694h2.634zM132.737 41.491c1.479 0 2.665.466 3.558 1.398.894.933 1.34 2.263 1.34 3.992v7.24h-2.634v-6.97c0-1.112-.292-1.969-.878-2.57-.585-.617-1.386-.925-2.403-.925-1.047 0-1.887.33-2.519.992-.631.647-.947 1.602-.947 2.865v6.607h-2.634V41.694h2.634v2.729c.339-.932.909-1.654 1.71-2.165.801-.511 1.725-.767 2.773-.767zM146.539 41.536c1.232 0 2.34.256 3.327.767a5.579 5.579 0 0 1 2.31 2.21c.555.962.832 2.09.832 3.383 0 1.308-.277 2.443-.832 3.405a5.578 5.578 0 0 1-2.31 2.21c-.987.511-2.095.767-3.327.767-1.232 0-2.342-.256-3.328-.767a5.783 5.783 0 0 1-2.311-2.21c-.553-.977-.831-2.112-.831-3.405 0-1.293.278-2.42.831-3.383a5.784 5.784 0 0 1 2.311-2.21c.986-.511 2.096-.767 3.328-.767zm0 2.233a3.94 3.94 0 0 0-1.871.45c-.571.301-1.033.767-1.388 1.399-.338.616-.507 1.376-.507 2.278 0 .917.169 1.684.507 2.3.355.616.817 1.075 1.388 1.376a3.94 3.94 0 0 0 1.871.45c.677 0 1.302-.15 1.871-.45.57-.301 1.024-.76 1.364-1.376.354-.616.531-1.383.531-2.3 0-.902-.177-1.662-.531-2.278-.34-.632-.794-1.098-1.364-1.398a3.946 3.946 0 0 0-1.871-.451z" fill="#FFFAF3"/><path fill-rule="evenodd" clip-rule="evenodd" d="m36.4 8.852 16.993 9.546c2.581 1.463 4.23 4.25 4.23 7.246v18.952c0 2.996-1.649 5.783-4.302 7.246L36.4 61.388a8.608 8.608 0 0 1-4.302 1.114c-1.506 0-3.011-.348-4.302-1.114l-16.921-9.476c-2.653-1.533-4.302-4.25-4.302-7.247v-19.02c0-2.997 1.649-5.784 4.302-7.247l16.92-9.546a8.981 8.981 0 0 1 8.605 0zm1.151 39.15h6.521V21.688h-6.521V37.99L26.644 21.688h-6.52v26.314h6.52V31.849l10.907 16.153z" fill="#FEC882"/></svg>
