<svg width="143" height="29" viewBox="0 0 143 29" fill="none" xmlns="http://www.w3.org/2000/svg">
<path d="M11.6773 11.6667V24.0648H9.29552L3.08619 16.5321V24.0648H0.259552V11.6667H2.64134L8.8136 19.1994V11.6667H11.6773Z" fill="white"/>
<path d="M14.6152 11.6667H17.4789V24.0648H14.6152V11.6667Z" fill="white"/>
<path d="M31.7974 11.6667V24.0648H29.4156L23.2434 16.5413V24.074H20.4167V11.6667H22.7985L28.9708 19.1994V11.6667H31.7974Z" fill="white"/>
<path d="M44.3736 21.7746V24.074H34.7352V11.6667H44.1327V13.9661H37.599V16.6609H43.3727V18.8775H37.6082V21.7746H44.3736Z" fill="white"/>
<path d="M71.1757 18.105C71.1757 14.3616 74.0394 11.7036 77.9132 11.7036C80.0541 11.7036 81.8613 12.467 83.0383 13.9202L81.1847 15.6125C80.3414 14.6468 79.2941 14.1593 78.0801 14.1593C75.7446 14.1593 74.0857 15.7688 74.0857 18.1418C74.0857 20.5147 75.7353 22.1242 78.0801 22.1242C79.3312 22.1242 80.3784 21.6367 81.1847 20.6342L83.0383 22.3265C81.8705 23.7797 80.0911 24.5431 77.9132 24.5431C74.0394 24.5063 71.1757 21.8115 71.1757 18.105Z" fill="white"/>
<path d="M92.8713 21.6457H87.1068L86.0132 24.3038H83.0661L88.5989 11.9058H91.4255L96.9861 24.3038H93.9648L92.8713 21.6457ZM91.9816 19.4292L90.0075 14.6742L88.0335 19.4292H91.9816Z" fill="white"/>
<path d="M97.3012 23.0531L98.265 20.8825C99.3123 21.6459 100.888 22.1701 102.38 22.1701C104.076 22.1701 104.762 21.6091 104.762 20.8457C104.762 18.5096 97.5422 20.1191 97.5422 15.5296C97.5422 13.4326 99.2381 11.6667 102.788 11.6667C104.363 11.6667 105.929 12.0254 107.106 12.752L106.217 14.9226C105.049 14.2788 103.881 13.9569 102.788 13.9569C101.092 13.9569 100.406 14.6007 100.406 15.3641C100.406 17.6634 107.625 16.0907 107.625 20.6434C107.625 22.6944 105.892 24.4694 102.343 24.4694C100.406 24.5062 98.3948 23.8992 97.3012 23.0531Z" fill="white"/>
<path d="M109.599 11.9058H112.463V24.3038H109.599V11.9058Z" fill="white"/>
<path d="M126.819 11.9058V24.3038H124.437L118.228 16.7712V24.3038H115.401V11.9058H117.783L123.955 19.4384V11.9058H126.819Z" fill="white"/>
<path d="M128.997 18.105C128.997 14.3984 131.86 11.7036 135.808 11.7036C139.719 11.7036 142.62 14.3984 142.62 18.105C142.62 21.8115 139.719 24.5063 135.808 24.5063C131.86 24.5063 128.997 21.7655 128.997 18.105ZM139.645 18.105C139.645 15.732 137.995 14.1225 135.771 14.1225C133.556 14.1225 131.897 15.732 131.897 18.105C131.897 20.4779 133.547 22.0874 135.771 22.0874C137.995 22.0506 139.645 20.4411 139.645 18.105Z" fill="white"/>
<path d="M51.806 17.8656C51.806 17.8565 51.7969 17.8565 51.7969 17.8474C51.7969 17.8474 51.7969 17.8474 51.806 17.8474C51.7969 17.8565 51.7969 17.8656 51.806 17.8656C51.7969 17.8656 51.806 17.8656 51.806 17.8656Z" fill="#F84B00"/>
<path d="M59.5077 9.82739L59.4984 9.8367V9.82739C59.4984 9.82739 59.4984 9.82739 59.5077 9.82739Z" fill="#F84B00"/>
<path d="M64.772 25.5962C64.5957 25.5919 64.4189 25.5891 64.2426 25.5782C63.7566 25.549 63.2806 25.4289 62.8397 25.2245C61.8662 24.7741 61.1509 24.0694 60.7163 23.0902C60.5233 22.6679 60.4118 22.2136 60.3875 21.7507C60.3502 21.1007 60.5072 20.4542 60.8388 19.8919C60.8812 19.8202 60.9265 19.7504 60.9751 19.6711H60.8903C60.6906 19.6754 60.4909 19.6909 60.2922 19.6815C59.9257 19.6622 59.5644 19.5871 59.221 19.4589C58.1846 19.0792 57.4164 18.4146 57.0057 17.3836C56.8084 16.8879 56.714 16.3728 56.7741 15.8379C56.8254 15.3528 56.9779 14.8835 57.222 14.4597C57.2406 14.4272 57.2573 14.3932 57.2773 14.3555C57.1689 14.3428 57.06 14.3362 56.9509 14.3357C56.7707 14.3447 56.5906 14.3621 56.4114 14.3852C55.4738 14.5054 54.5579 14.7553 53.6905 15.1276C52.7707 15.5169 51.9223 16.0542 51.1797 16.7176C50.3973 17.4251 49.7754 18.2411 49.3622 19.2108C49.1429 19.7273 49.0022 20.2731 48.9448 20.8305C48.911 21.1507 48.942 21.48 48.9648 21.8035C48.9859 22.0174 49.0207 22.2298 49.0692 22.4393C49.1688 22.9715 49.3566 23.4837 49.6248 23.9553C49.6963 24.0774 49.7864 24.1911 49.8712 24.3118C49.8683 24.0986 49.8454 23.902 49.8669 23.7095C49.9146 23.3368 50.0261 22.9749 50.1966 22.6393C50.4233 22.1745 50.7202 21.7467 51.0773 21.3705C51.1907 21.2507 51.3198 21.146 51.4423 21.0347C51.4397 21.0548 51.4346 21.0744 51.427 21.0932C51.2717 21.379 51.1282 21.67 51.052 21.9894C50.9929 22.2351 50.9238 22.4789 50.8785 22.727C50.8522 22.9015 50.838 23.0775 50.8361 23.2539C50.8167 23.6006 50.8339 23.9484 50.8876 24.2915C50.94 24.6307 51.0389 24.9613 51.1816 25.274C51.2769 25.4716 51.3665 25.6716 51.4761 25.8603C51.7595 26.3455 52.1294 26.7759 52.5678 27.1305C52.9585 27.4509 53.3892 27.7204 53.8492 27.9323C54.2217 28.1032 54.6097 28.2389 55.0081 28.3375C55.0519 28.3483 55.0977 28.3535 55.1615 28.3644C55.1401 28.3243 55.1305 28.3016 55.1167 28.2818C54.6493 27.5937 54.4715 26.8197 54.4496 26.0065C54.4401 25.7089 54.4476 25.4109 54.472 25.1141C54.4976 24.8559 54.5375 24.5992 54.5916 24.3453C54.6678 23.9534 54.7722 23.569 54.959 23.2133C54.9849 23.1696 55.0134 23.1273 55.0443 23.0869C55.0581 23.0992 55.0615 23.1011 55.0619 23.103C55.0657 23.1166 55.0696 23.1303 55.0724 23.144C55.2425 24.0119 55.5489 24.8264 56.0526 25.5613C56.5139 26.2329 57.0943 26.781 57.8158 27.1692C58.6339 27.6092 59.5112 27.8243 60.4452 27.7724C60.7333 27.7621 61.02 27.7295 61.3029 27.6748C62.5819 27.4022 63.7084 26.839 64.6324 25.9084C64.7223 25.81 64.8071 25.707 64.8864 25.5999L64.8688 25.5782C64.8372 25.5875 64.8048 25.5935 64.772 25.5962ZM51.4451 21.0319L51.4528 21.0234C51.4528 21.0267 51.4528 21.0295 51.4528 21.0328L51.4451 21.0319Z" fill="#E45809"/>
<path d="M66.559 20.9386C66.4079 20.9744 66.2766 21.0665 66.1925 21.1957C66.0544 21.3886 65.8861 21.5598 65.6388 21.5843C65.3865 21.6055 65.133 21.609 64.8802 21.5947C64.5976 21.5834 64.3155 21.5537 64.0339 21.5263C63.9029 21.5136 63.7732 21.4895 63.6432 21.4688C63.5202 21.449 63.3977 21.4164 63.2743 21.4089C63.2251 21.4046 63.1758 21.4161 63.1336 21.4415C63.0914 21.467 63.0586 21.5051 63.0399 21.5504C62.9975 21.6447 63.0399 21.7282 63.1104 21.7938C63.4506 22.1197 63.809 22.4178 64.2588 22.5928C64.515 22.6893 64.7439 22.8456 64.9259 23.0484C65.078 23.2201 65.1909 23.4059 65.0937 23.6507C65.0656 23.7219 65.1332 23.8191 65.2009 23.8111C65.2704 23.8055 65.3385 23.7881 65.402 23.7597C65.8347 23.5375 66.2238 23.2405 66.5509 22.8828C66.8587 22.5569 66.9798 22.1692 66.996 21.7763C66.9936 21.5094 66.9574 21.2881 66.8559 21.0816C66.7911 20.9443 66.7081 20.9061 66.559 20.9386Z" fill="#E45809"/>
<path d="M67.6841 17.1893C67.5711 16.8195 67.3419 16.5318 67.0355 16.3049C66.8449 16.1634 66.6376 16.0531 66.4465 15.9168C65.5815 15.3017 64.7941 14.5863 64.1011 13.7858C64.0138 13.679 63.9462 13.5578 63.9014 13.4278C63.8576 13.3094 63.8585 13.1759 63.829 13.0505C63.7516 12.7068 63.5656 12.3964 63.2981 12.1642C63.027 11.9353 62.725 11.7449 62.4009 11.5982C62.2603 11.5317 62.1149 11.4718 61.993 11.4171C62.6563 10.9714 62.6934 10.512 62.5572 10.1587C62.185 9.49035 61.0208 9.14746 60.4938 9.02294C60.2079 8.95879 59.8853 8.89889 59.5246 8.84937C53.4713 7.83623 50.2524 12.2406 50.2524 12.2406C48.3187 14.4405 47.9213 16.9214 47.9508 18.6986C47.9508 18.751 47.9508 18.8038 47.9508 18.8562C47.9508 18.8746 47.9508 18.8925 47.9508 18.9109C47.9508 18.9609 47.9541 19.0109 47.9556 19.0609C47.9556 19.0882 47.9599 19.1156 47.9618 19.1434C47.9856 19.7419 48.0628 20.4909 48.2763 21.0947C48.2763 21.0546 48.2763 21.0154 48.2763 20.9758C48.2846 20.6651 48.3127 20.3553 48.3601 20.048C48.4377 19.6684 48.5397 19.2941 48.6656 18.9274C48.6858 18.8799 48.703 18.8312 48.717 18.7816C48.8006 18.5505 48.8932 18.3222 48.9949 18.0968C49.6802 16.5927 50.7291 15.2786 52.0489 14.2707C52.796 13.6953 53.6299 13.2401 54.5201 12.9217C55.2026 12.6737 55.9182 12.5264 56.644 12.4845C57.1635 12.4606 57.6841 12.4903 58.1975 12.5731C58.3971 12.6038 58.5896 12.6415 58.7983 12.5934C59.23 12.495 59.6453 12.3362 60.0316 12.1218C59.6447 12.3736 57.659 13.8089 58.572 16.2016C59.525 18.6981 62.1292 18.3883 62.8354 18.0803C62.8159 18.1543 62.7992 18.2156 62.7845 18.2774C62.712 18.5783 62.6563 18.8802 62.7049 19.1929C62.7346 19.4332 62.8105 19.6657 62.9284 19.8778C63.292 20.4881 63.869 20.7301 64.5485 20.7772C64.8804 20.7931 65.2126 20.7544 65.5316 20.6626C66.1854 20.49 66.7339 20.1645 67.1232 19.6019C67.2271 19.4519 67.2661 19.292 67.209 19.1222C67.1364 18.8887 67.0162 18.6726 66.8557 18.4871C66.6952 18.3016 66.4978 18.1508 66.2759 18.044C66.0958 17.9567 65.9981 17.8152 65.9995 17.6143C65.9995 17.4822 66.0949 17.4015 66.2259 17.3893C66.4165 17.3714 66.5876 17.5223 66.6405 17.7058C66.6824 17.8329 66.7412 17.9539 66.8154 18.0656C66.8606 18.1271 66.9176 18.1792 66.9831 18.2189C67.2719 18.4246 67.5697 18.2609 67.6707 18.0006C67.768 17.7395 67.7727 17.4534 67.6841 17.1893ZM60.1021 12.1029L60.0978 12.0883L60.1107 12.0817C60.1085 12.089 60.1056 12.0961 60.1021 12.1029ZM64.0429 15.6493C63.5509 15.5012 63.0585 15.3525 62.5657 15.2031C62.4366 15.164 62.306 15.1286 62.1788 15.0833C62.1431 15.0711 62.0964 15.0324 62.0925 15.0013C62.0854 14.9414 62.1454 14.9414 62.1907 14.9381L63.566 14.8277C63.5662 14.8294 63.5662 14.8312 63.566 14.8329C63.6703 14.8267 63.7742 14.8187 63.8785 14.815C63.9129 14.8106 63.9476 14.8198 63.9753 14.8405C64.0029 14.8613 64.0212 14.8919 64.0263 14.9258C64.0739 15.1267 64.1216 15.3272 64.1721 15.5281C64.2002 15.6408 64.1559 15.6833 64.0429 15.6493Z" fill="#E45809"/>
<path d="M59.9097 7.84628C60.3698 7.90995 60.7813 7.98695 61.1459 8.06941C61.5791 8.17116 62.0028 8.30928 62.4126 8.48231L64.2968 3.12067C63.7601 3.43656 63.2593 3.74457 62.7426 4.01741C62.3816 4.20658 62.2193 4.39393 62.2825 4.84199C62.3271 5.2101 62.2431 5.58227 62.0447 5.89582C61.8463 6.20936 61.5456 6.4451 61.1933 6.56332C60.8432 6.70045 60.4581 6.72143 60.0951 6.62315C59.7321 6.52486 59.4105 6.31254 59.1779 6.01764C58.9501 5.72571 58.8225 5.36834 58.8142 4.99847C58.8059 4.62859 58.9172 4.26588 59.1317 3.96405C59.2454 3.80277 59.3803 3.66089 59.4739 3.54327C58.8795 2.53072 58.1313 1.55092 57.5806 0.618408C57.0372 1.55577 56.3 2.54164 55.7134 3.55782C55.8083 3.67302 55.9444 3.8155 56.0587 3.97618C56.2756 4.2762 56.3898 4.63792 56.3846 5.00778C56.3793 5.37765 56.2548 5.73599 56.0295 6.02976C55.7996 6.32682 55.4798 6.542 55.1176 6.64336C54.7554 6.74472 54.3701 6.72686 54.0189 6.59242C53.6654 6.47746 53.3626 6.24428 53.1616 5.9323C52.9606 5.62032 52.8738 5.24868 52.9157 4.88019C52.9765 4.43152 52.8106 4.24599 52.4489 4.05924C51.9268 3.79125 51.4236 3.48688 50.8839 3.17524L52.6337 7.46612C52.6337 7.46612 52.6428 7.48734 52.6605 7.52008L52.8258 7.9245L53.0592 8.49989H53.1394C54.9391 7.78868 57.2019 7.38912 59.9097 7.84628Z" fill="#E45809"/>
</svg>
