<?xml version="1.0" encoding="UTF-8"?>
<svg xmlns="http://www.w3.org/2000/svg" id="_Слой_2" data-name="Слой 2" viewBox="0 0 365.97 134.76" width="65" height="35">
  <defs>
    <style>
      .cls-1 {
        fill: #232121;
      }
    </style>
  </defs>
  <g id="_Слой_1-2" data-name="Слой 1">
    <path class="cls-1" d="m142.16,128.1c7.21-.56,14.48.31,21.77.46,11.43.24,22.85-.72,34.27-1.6,16.83-1.29,33.42-4.01,49.73-8.19,22.04-5.65,43.28-13.45,60.92-28.37,10.7-9.05,18.14-20.19,16.19-35.35-1.3-10.09-6.92-17.73-14.07-24.29-17.3-15.86-38.58-23.8-60.74-29.88-.25-.07-.46-.31-1.26-.86,8.66-.25,16.43,1.77,24.21,3.26,23.01,4.4,45.19,11.21,65.25,23.75,8.22,5.13,15.5,11.3,21.17,19.27,9.81,13.77,8.14,31.25-4.12,44.51-12.48,13.5-28.31,21.48-45.19,27.68-21.54,7.91-43.84,12.18-66.68,14.41-16.07,1.56-32.11,2.25-48.2,1.65-17.86-.67-35.58-2.77-53.25-6.44Z"/>
    <path class="cls-1" d="m104.77,24.51c4.17.24,7.8-.45,11.52.48-1.86,9.34-3.67,18.47-5.73,28.82,5.17-5,10.16-8.13,16.68-7.9,7.52.27,11.7,4.11,11.98,11.63.35,9.65-2.86,18.8-4.21,28.22-.46,3.21-1.33,6.37-2.02,9.64h-11.41c1.8-9.52,3.56-18.69,5.27-27.86.79-4.22,2.05-8.71-2.65-11.54-3.32-2-8.42.11-12.01,4.67-4.83,6.13-5.18,13.73-6.69,20.93-.97,4.61-1.87,9.24-2.79,13.8h-11.47c4.53-23.75,9-47.12,13.54-70.89Z"/>
    <path class="cls-1" d="m268.25,95.57c-3.42-7.45-6.7-14.6-10.18-22.19-2.1,1.94-3.79,3.49-5.46,5.04-1.21,5.76-2.4,11.47-3.57,17.04h-10.92c1-7.91,11.77-67.6,13.84-70.78h10.34c-.29,7.23-2.52,13.94-3.71,20.8-1.2,6.97-2.53,13.93-4.04,22.15,6.89-7.51,12.88-14.03,18.87-20.56h12.71c-6.09,6.49-12.34,13.14-18.89,20.12,4.25,9.27,9.5,18.39,13.38,28.38h-12.37Z"/>
    <path class="cls-1" d="m44.27,64.18c-7.95,9.88-4.63,9.35-30.99,12.6.64,10.17,7.48,12.51,23.41,7.9,1.5,2.29.61,5.1,1.73,7.51-2.88,2.95-6.6,3.14-10.02,3.95-5.05,1.2-10.27,1.24-15.21-.04-9.58-2.48-14.4-10.5-12.93-23.21,1.49-12.85,8.68-24.65,23.06-27.39,5.15-.98,10.27-.72,14.91,2,6.25,3.66,6.94,9.61,6.04,16.68Zm-29.54,1.59c4.73.76,9.01.13,13.28-1.25,3.21-1.04,5.83-2.75,4.31-6.27-1.33-3.08-4.34-4.27-7.87-2.91-4.88,1.88-8.18,5.16-9.71,10.43Z"/>
    <path class="cls-1" d="m158.52,75.6c1.97,12.68,7.71,14.75,24.52,9.34.8,2.51,1.2,5.05,1.12,7.94-6.96,3.46-14.39,4.73-21.98,3.35-9.73-1.76-14.79-8.92-14.8-19.81,0-13.98,8.82-26.4,21.04-29.77,2.95-.81,5.93-.82,8.9-.63,6.9.44,12.03,4.59,12.92,10.28,1.19,7.59-1.7,13.18-8.48,16.09-5.21,2.23-10.76,2.92-16.36,3.2-2.27.12-4.54.02-6.88.02Zm1.97-9.23c12.52,2.17,19.97-1.8,18.28-9.75-7.95-4.81-16.81-.08-18.28,9.75Z"/>
    <path class="cls-1" d="m236.35,47.79c-.92,2.94-1.74,5.58-2.64,8.44-5.86-1.04-11.64-1.66-16.84,1.71-3.72,2.4-6.26,5.92-7.59,10.11-1.79,5.62-2.9,11.38,1.85,16.22,4.42,4.5,9.73,3.01,14.92,1.72.8-.2,1.59-.44,2.8-.78v8.93c-7.44,2.76-15.06,3.95-22.58.65-9.42-4.14-12.84-14.48-9.31-26.78,4.83-16.85,21.94-25.87,39.4-20.23Z"/>
    <path class="cls-1" d="m82.6,85.16v8.49c-11.01,5.39-23.51,3.79-29.49-4.13-5.84-7.73-4.55-16.22-1.5-24.55,5.5-15.02,22.95-22.86,38.02-17.07-.13,2.79-1.41,5.28-2.51,8.21-6.58-1.03-13.21-1.59-18.64,3.49-5.77,5.39-7.99,12.24-6.64,19.79,1.18,6.58,7.74,9.26,16.05,7.3,1.44-.34,2.82-.91,4.71-1.54Z"/>
  </g>
</svg>
