<?xml version="1.0"?>
<svg xmlns="http://www.w3.org/2000/svg" id="&#x421;&#x43B;&#x43E;&#x439;_1" data-name="&#x421;&#x43B;&#x43E;&#x439; 1" viewBox="0 0 40 40" width="65" height="35"><defs><style>.cls-1{fill:#29487f;}.cls-2{fill:none;}.cls-3{fill:#f48623;}</style></defs><title>Instadebit</title><path class="cls-1" d="M7.37,26.2c-.31,1.67-.62,3.31-.92,5,0,.14-.07.19-.22.18-.3,0-.6,0-.91,0s-.22-.06-.27-.21c-.28-.82-.58-1.64-.88-2.46l-.09-.22-.24,1.32c-.08.47-.17.93-.24,1.4,0,.12-.05.17-.18.17-.32,0-.64,0-1,0-.17,0-.18,0-.16-.2.23-1.23.45-2.47.67-3.71.06-.35.12-.69.17-1,0-.14.07-.2.21-.2h1c.13,0,.16.07.19.17l.82,2.3a.84.84,0,0,0,.2.36l.15-.79L6,26.38c0-.09,0-.18.14-.18Z"/><path class="cls-1" d="M10.94,27.68h-.12c-.29.06-.5,0-.58-.33S9.95,27,9.72,27a.59.59,0,0,0-.49.32c-.07.1,0,.15.06.21a1.83,1.83,0,0,0,.65.43,4.57,4.57,0,0,1,.67.35,1.52,1.52,0,0,1,.71,1.51,1.6,1.6,0,0,1-1.1,1.43,2.58,2.58,0,0,1-2-.09,1.59,1.59,0,0,1-.79-1.5c0-.1.07-.11.15-.12l1-.06c.11,0,.17,0,.17.14a1.12,1.12,0,0,0,0,.22.65.65,0,0,0,1.08.33.44.44,0,0,0-.05-.72,7.28,7.28,0,0,0-.68-.34,3.81,3.81,0,0,1-.58-.32A1.39,1.39,0,0,1,8,27.21a1.49,1.49,0,0,1,1.35-1.07,3.89,3.89,0,0,1,1.14.06,1.41,1.41,0,0,1,1.08,1.27c0,.16,0,.2-.18.19h-.46Z"/><path class="cls-1" d="M.66,31.33c-.16,0-.33,0-.49,0S0,31.3,0,31.14c.28-1.51.54-3,.82-4.52.08-.42.08-.42.5-.42h.76c.16,0,.19,0,.16.19-.28,1.5-.54,3-.81,4.5-.08.45-.08.45-.53.45Z"/><path class="cls-2" d="M30.55,27.75c0-.36,0-.51.29-.52-.24,0-.29.16-.29.52,0,.08,0,.16,0,.24C30.55,27.91,30.55,27.83,30.55,27.75Z"/><path class="cls-2" d="M21.52,28.76c0-.41,0-.81,0-1.22,0,.41,0,.81,0,1.22s0,.8,0,1.2C21.52,29.55,21.52,29.15,21.52,28.76Z"/><path class="cls-1" d="M39.82,26.19H36.1c-.13,0-.17,0-.17.17,0,.32,0,.64,0,1,0,.13,0,.17.16.16.31,0,.62,0,.93,0s.26.06.25.26c0,1.13,0,2.25,0,3.38,0,.16,0,.24.21.23s.64,0,1,0c.15,0,.2,0,.2-.21,0-1.15,0-2.3,0-3.45,0-.14,0-.19.17-.19H40V26.25A.31.31,0,0,0,39.82,26.19Z"/><path class="cls-1" d="M32.38,28.59A1.3,1.3,0,0,0,33,27.07a1.16,1.16,0,0,0-1.23-.87H29.4c-.11,0-.21,0-.21.15q0,2.41,0,4.83c0,.11,0,.16.15.16.88,0,1.76,0,2.64,0a1.32,1.32,0,0,0,1.22-1.49A1.26,1.26,0,0,0,32.38,28.59Zm-1.84-.53s0-.05,0-.08,0-.16,0-.24c0-.36,0-.51.29-.52a2,2,0,0,1,.46,0,.44.44,0,0,1,.36.59.4.4,0,0,1-.34.31,5.12,5.12,0,0,1-.66,0C30.57,28.2,30.54,28.16,30.55,28.07Zm1,2.1a2.88,2.88,0,0,1-.9,0c-.11,0-.09-.1-.09-.16s0-.41,0-.61,0-.27.24-.24h.16a1.86,1.86,0,0,1,.57,0,.43.43,0,0,1,.34.45A.45.45,0,0,1,31.54,30.16Z"/><path class="cls-1" d="M22.35,26.21h-2c-.17,0-.18.07-.18.2,0,.78,0,1.57,0,2.35s0,1.58,0,2.37c0,.15,0,.22.19.22.61,0,1.22,0,1.84,0a1.69,1.69,0,0,0,1.76-1.22,4.15,4.15,0,0,0-.07-2.85A1.55,1.55,0,0,0,22.35,26.21Zm.35,3.36a.88.88,0,0,1-1.11.57c-.1,0-.06-.12-.06-.18,0-.4,0-.8,0-1.2s0-.81,0-1.22c0-.14,0-.17.18-.17.72,0,1,.26,1.05,1A3.48,3.48,0,0,1,22.7,29.57Z"/><path class="cls-1" d="M28.5,30.39c0-.21-.07-.24-.25-.23H26.41c-.16,0-.24,0-.23-.21a4.38,4.38,0,0,0,0-.59c0-.16,0-.21.2-.2h1.71c.15,0,.2,0,.19-.19a5.78,5.78,0,0,1,0-.68c0-.17-.06-.2-.21-.2-.45,0-.9,0-1.35,0s-.54,0-.55-.56c0-.18.06-.21.22-.21h1.84c.14,0,.21,0,.2-.18s0-.51,0-.76,0-.18-.18-.18H25c-.13,0-.19,0-.19.17,0,.8,0,1.6,0,2.4h0q0,1.17,0,2.35c0,.12,0,.22.16.22h3.33c.15,0,.17-.06.17-.19A6.81,6.81,0,0,1,28.5,30.39Z"/><path class="cls-1" d="M19.14,26.2c-.45,0-.9,0-1.35,0a.44.44,0,0,0-.49.32c-.57,1.29-1.16,2.57-1.74,3.85l-.44,1c.33,0,.63,0,.93,0a.38.38,0,0,0,.47-.3c.12-.41.34-.65.82-.55.22,0,.5-.09.66,0s0,.4.05.61a.14.14,0,0,1,0,0c0,.12,0,.16.15.16h1c.14,0,.16-.06.16-.18q0-2.4,0-4.8C19.32,26.22,19.27,26.19,19.14,26.2Zm-1.23,3.17h-.41c-.15,0-.16-.06-.1-.17l.6-1.33H18c0,.46,0,.92,0,1.38C18,29.35,18,29.36,17.91,29.36Z"/><path class="cls-1" d="M16,27.47c.13,0,.19,0,.21-.17,0-.31.09-.61.15-.92s0-.19-.16-.19H12.47c-.12,0-.19,0-.21.16,0,.31-.11.63-.18.94,0,.15,0,.18.16.18.3,0,.6,0,.9,0s.23,0,.2.22c-.08.42-.14.84-.21,1.25-.13.73-.27,1.46-.4,2.19,0,.07-.1.2.09.2h.9c.25,0,.37-.08.41-.35.18-1.1.4-2.2.59-3.3,0-.16.08-.24.26-.23S15.65,27.46,16,27.47Z"/><path class="cls-1" d="M35,28.09a7.31,7.31,0,0,1-.88,0c-.15,0-.19,0-.19.2,0,.47,0,.95,0,1.42h0c0,.47,0,.93,0,1.4,0,.19.06.24.24.23s.41,0,.61,0c.51,0,.51,0,.51-.5,0-.82,0-1.63,0-2.45C35.29,28.18,35.25,28.07,35,28.09Z"/><path class="cls-1" d="M35.13,26.2h-.59c-.65,0-.65,0-.62.65,0,.21-.09.5.05.6s.41,0,.62,0h0c.17,0,.34,0,.51,0s.18-.05.17-.18c0-.31,0-.62,0-.93C35.3,26.24,35.26,26.19,35.13,26.2Z"/><polygon class="cls-3" points="22.64 8.55 28.79 8.55 27.76 14.7 21.61 14.7 22.64 8.55"/><polygon class="cls-3" points="21.19 17.05 27.34 17.05 26.31 23.2 20.16 23.2 21.19 17.05"/><polygon class="cls-3" points="12.24 17.05 18.39 17.05 17.36 23.2 11.21 23.2 12.24 17.05"/></svg>
