<?xml version="1.0"?>
<svg xmlns="http://www.w3.org/2000/svg" id="&#x421;&#x43B;&#x43E;&#x439;_1" data-name="&#x421;&#x43B;&#x43E;&#x439; 1" viewBox="0 0 40 40" width="65" height="35"><defs><style>.cls-1{fill:#0099df;}.cls-2{fill:#6c6bbd;}.cls-3{fill:#eb001b;}.cls-4{fill:#231f20;}</style></defs><title>maestro</title><path class="cls-1" d="M39.62,24.47V24H39.5l-.14.33L39.21,24h-.13v.48h.09V24.1l.14.31h.09l.14-.31v.36Zm-.79,0v-.4H39V24h-.41v.08h.16v.4Z"/><path class="cls-2" d="M25.41,26.53H14.59V7.08H25.41Z"/><path class="cls-3" d="M15.28,16.81A12.34,12.34,0,0,1,20,7.08a12.37,12.37,0,1,0,0,19.44,12.34,12.34,0,0,1-4.72-9.72"/><path class="cls-1" d="M40,16.81a12.36,12.36,0,0,1-20,9.72A12.37,12.37,0,0,0,20,7.08a12.36,12.36,0,0,1,20,9.72"/><path class="cls-4" d="M29.06,32a1.52,1.52,0,0,1,.51.09l-.22.67a1.16,1.16,0,0,0-.45-.08c-.47,0-.7.3-.7.84v1.84h-.71V32.1h.71v.4a1,1,0,0,1,.87-.48m-2.64.74H25.25v1.48c0,.33.12.55.47.55a1.32,1.32,0,0,0,.63-.19l.21.61a1.68,1.68,0,0,1-.89.25c-.85,0-1.14-.45-1.14-1.22v-1.5h-.67V32.1h.67v-1h.72v1h1.17Zm-9.14.7a.85.85,0,0,1,.87-.8.82.82,0,0,1,.83.8Zm2.45.29A1.57,1.57,0,0,0,18.16,32a1.73,1.73,0,0,0,0,3.45A2,2,0,0,0,19.55,35l-.35-.53a1.56,1.56,0,0,1-1,.34.91.91,0,0,1-1-.8h2.44c0-.09,0-.18,0-.27m3.14-.8a2.11,2.11,0,0,0-1-.28c-.39,0-.63.14-.63.39s.25.28.56.32l.34,0c.71.1,1.15.41,1.15,1s-.55,1.07-1.5,1.07A2.37,2.37,0,0,1,20.33,35l.34-.56a1.75,1.75,0,0,0,1.09.34c.49,0,.75-.14.75-.4s-.19-.29-.58-.34l-.34,0c-.74-.1-1.13-.43-1.13-1S21,32,21.83,32a2.45,2.45,0,0,1,1.34.34Zm8.81-.24a1.08,1.08,0,0,0-.41.08,1,1,0,0,0-.33.22,1,1,0,0,0-.22.33,1.21,1.21,0,0,0,0,.86,1,1,0,0,0,.22.33,1,1,0,0,0,.33.22,1.13,1.13,0,0,0,.82,0,1,1,0,0,0,.33-.22,1,1,0,0,0,.22-.33,1.21,1.21,0,0,0,0-.86,1,1,0,0,0-.22-.33,1,1,0,0,0-.33-.22,1.08,1.08,0,0,0-.41-.08m0-.68a1.85,1.85,0,0,1,.71.13,1.72,1.72,0,0,1,.56.36,1.67,1.67,0,0,1,.37.55,1.83,1.83,0,0,1,0,1.38,1.67,1.67,0,0,1-.37.55,1.73,1.73,0,0,1-.56.36,2,2,0,0,1-1.42,0A1.71,1.71,0,0,1,30.4,35a1.69,1.69,0,0,1-.37-.55,1.83,1.83,0,0,1,0-1.38,1.67,1.67,0,0,1,.93-.91,1.85,1.85,0,0,1,.71-.13M13.1,33.74a1,1,0,1,1,1,1.05,1,1,0,0,1-1-1.05m2.66,0V32.1H15v.4A1.25,1.25,0,0,0,14,32a1.73,1.73,0,0,0,0,3.45A1.25,1.25,0,0,0,15,35v.4h.71Zm-4,1.64V33.32A1.22,1.22,0,0,0,10.44,32a1.27,1.27,0,0,0-1.15.58A1.21,1.21,0,0,0,8.2,32a1.09,1.09,0,0,0-1,.49v-.4H6.53v3.28h.72V33.56a.77.77,0,0,1,.8-.87c.47,0,.71.31.71.87v1.83h.72V33.56a.77.77,0,0,1,.8-.87c.49,0,.72.31.72.87v1.83Z"/><path class="cls-4" d="M34.21,35.14v.08h.11a0,0,0,0,0,0,0,0,0,0,0,0,0,0h-.11Zm.08-.06a.14.14,0,0,1,.09,0,.09.09,0,0,1,0,.07.08.08,0,0,1,0,.06l-.07,0,.1.11h-.08l-.09-.11h0v.11h-.06v-.3Zm0,.41.1,0,.08-.05a.25.25,0,0,0,.05-.08.26.26,0,0,0,0-.2.26.26,0,0,0-.05-.08L34.37,35l-.1,0-.1,0-.08.05a.26.26,0,0,0-.05.28.24.24,0,0,0,.05.08l.08.05.1,0m0-.58.13,0a.32.32,0,0,1,.11.07.32.32,0,0,1,.07.1.32.32,0,0,1,0,.25.33.33,0,0,1-.07.1l-.11.07-.13,0-.13,0L34,35.46a.33.33,0,0,1-.07-.1.32.32,0,0,1,0-.25A.32.32,0,0,1,34,35a.32.32,0,0,1,.11-.07l.13,0"/></svg>
