<?xml version="1.0"?>
<svg xmlns="http://www.w3.org/2000/svg" id="&#x421;&#x43B;&#x43E;&#x439;_1" data-name="&#x421;&#x43B;&#x43E;&#x439; 1" viewBox="0 0 40 40" width="65" height="35"><defs><style>.cls-1{fill:#134775;}</style></defs><title>Credit Card</title><path class="cls-1" d="M38.47,7.4,14,2.21A1.93,1.93,0,0,0,11.69,3.7l-.47,3,28.27,6,.47-3A1.93,1.93,0,0,0,38.47,7.4Z"/><path class="cls-1" d="M28.17,13.31A2,2,0,0,0,25.78,12l-4.65,1.29-11-2.32L9,16.62,1.42,18.71A2,2,0,0,0,.07,21.1L4.32,36.4a2,2,0,0,0,2.39,1.35L31.06,31a2,2,0,0,0,1.35-2.39L31.69,26l2.73.58a1.93,1.93,0,0,0,2.28-1.49l1.73-8.17-9.84-2.08ZM31,21.08l.6-2.85a.8.8,0,0,1,.94-.61l2.85.6a.79.79,0,0,1,.61.94L35.38,22a.79.79,0,0,1-.94.61L31.59,22A.79.79,0,0,1,31,21.08ZM1.85,20.24l6.74-1.87L24.49,14l1.71-.48h.09a.37.37,0,0,1,.35.26l.2.72.63,2.27-25,7-.83-3A.36.36,0,0,1,1.85,20.24Zm29,8.79a.37.37,0,0,1-.25.44L6.29,36.23H6.19A.37.37,0,0,1,5.84,36L3.37,27.06l25-7,1.53,5.5Z"/><path class="cls-1" d="M10.22,29.64a.79.79,0,0,0-1-.55l-2.84.79a.79.79,0,0,0-.55,1l.79,2.84a.79.79,0,0,0,1,.55l2.84-.79a.79.79,0,0,0,.55-1Z"/></svg>
