<?xml version="1.0"?>
<svg xmlns="http://www.w3.org/2000/svg" xmlns:xlink="http://www.w3.org/1999/xlink" height="35" viewBox="0 0 512 512" width="65"><linearGradient id="a" gradientUnits="userSpaceOnUse" x1="0" x2="512" y1="256" y2="256"><stop offset="0" stop-color="#00f38d"/><stop offset="1" stop-color="#009eff"/></linearGradient><path d="m512 256c0 141.386719-114.613281 256-256 256s-256-114.613281-256-256 114.613281-256 256-256 256 114.613281 256 256zm0 0" fill="url(#a)"/><g fill="#fff"><path d="m256 76.960938c-98.722656 0-179.039062 80.316406-179.039062 179.039062s80.316406 179.039062 179.039062 179.039062 179.039062-80.316406 179.039062-179.039062-80.316406-179.039062-179.039062-179.039062zm0 328.078124c-82.179688 0-149.039062-66.855468-149.039062-149.039062 0-82.179688 66.859374-149.039062 149.039062-149.039062s149.039062 66.859374 149.039062 149.039062c0 82.183594-66.859374 149.039062-149.039062 149.039062zm0 0"/><path d="m231.804688 251.78125 45.742187-16.632812 8.667969-32.777344-45.738282 16.632812 21.648438-81.863281h-28.785156l-24.726563 93.449219-44.730469 16.265625-8.667968 32.777343 44.722656-16.261718-23.066406 87.160156h159.757812l7.398438-27.804688h-130.984375zm0 0"/></g></svg>
