<?xml version="1.0"?>
<svg xmlns="http://www.w3.org/2000/svg" id="&#x421;&#x43B;&#x43E;&#x439;_1" data-name="&#x421;&#x43B;&#x43E;&#x439; 1" viewBox="0 0 40 40" width="65" height="35"><defs><style>.cls-1{fill:#f69220;}.cls-2{fill:#606060;}</style></defs><title>MuchBetter</title><path class="cls-1" d="M18,19.74a.78.78,0,0,1-.64-.36L14.21,14a.76.76,0,0,1,1.31-.76l3.13,5.37a.77.77,0,0,1-.28,1A.7.7,0,0,1,18,19.74Z"/><path class="cls-2" d="M25.88,16.81a2.3,2.3,0,0,0-.36-1.15,2.74,2.74,0,0,0-1.26-1.26,2.62,2.62,0,0,0-1.45-.28A3.18,3.18,0,0,0,23.11,13a2.86,2.86,0,0,0-.48-1.68,2.81,2.81,0,0,0-.81-.9,2.41,2.41,0,0,0-1.06-.36,4.44,4.44,0,0,0-1.2.08l-.42.11-.17.08a8.52,8.52,0,0,0-1.12.59l-1.09.64h0a.89.89,0,0,0-.31,1.17.84.84,0,0,0,.73.42.79.79,0,0,0,.42-.11h0l1.76-1a1.78,1.78,0,0,1,.5-.17,1.53,1.53,0,0,1,.5,0,2,2,0,0,1,.48.25,1.79,1.79,0,0,1,.36.42,1.73,1.73,0,0,1,.2.53,1.69,1.69,0,0,1,0,.53.92.92,0,0,1-.2.45,1,1,0,0,1-.36.34l-1.06.64-.45.25-.28.17a.78.78,0,0,0-.28,1.09.8.8,0,0,0,.7.39.64.64,0,0,0,.39-.11l.59-.34L22,15.72a1,1,0,0,1,.48-.14,1.31,1.31,0,0,1,.48.08,1.42,1.42,0,0,1,.45.25,1.39,1.39,0,0,1,.53.92,1.14,1.14,0,0,1,0,.53,1.22,1.22,0,0,1-.22.48,1.79,1.79,0,0,1-.42.36l-2.6,1.48h-.14L20,20l-.92.5a.83.83,0,0,0-.34,1.12.81.81,0,0,0,.73.45.64.64,0,0,0,.39-.11l2.24-1.2,1.82-1A5.09,5.09,0,0,0,25,18.93a3.07,3.07,0,0,0,.67-1A2.4,2.4,0,0,0,25.88,16.81Z"/><path class="cls-2" d="M19.33,29.89a.53.53,0,0,1-.64-.64v-4.2a.53.53,0,0,1,.64-.64H20.9a1.5,1.5,0,0,1,1.71,1.54,1.26,1.26,0,0,1-.7,1.15,1.29,1.29,0,0,1,.76,1.23A1.52,1.52,0,0,1,21,29.92H19.33Zm.45-4.53v1.26h1.06a.65.65,0,1,0,0-1.29H19.78Zm1.12,3.58a.66.66,0,0,0,.73-.67.65.65,0,0,0-.73-.67H19.78v1.34Z"/><path class="cls-2" d="M24.36,28.18a.82.82,0,0,0,.9.9,1,1,0,0,0,.7-.22.6.6,0,0,1,.36-.14.43.43,0,0,1,.39.42c0,.2-.17.36-.39.5a1.86,1.86,0,0,1-1.09.28c-1,0-1.87-.42-1.87-2.07,0-1.31.7-2.07,1.76-2.07a1.73,1.73,0,0,1,1.76,1.79.62.62,0,0,1-.14.45.54.54,0,0,1-.45.14H24.36Zm1.45-1.12a.75.75,0,0,0-1.34,0,1.07,1.07,0,0,0-.08.45h1.54A1.74,1.74,0,0,0,25.82,27.06Z"/><path class="cls-2" d="M27.86,26.76h-.11c-.2,0-.25,0-.34-.06a.36.36,0,0,1-.2-.34.34.34,0,0,1,.2-.34c.08-.06.14-.06.34-.06h.11v-.53a.9.9,0,0,1,.06-.45.49.49,0,0,1,.45-.25.47.47,0,0,1,.45.25.9.9,0,0,1,.06.45V26h.31c.2,0,.25,0,.34.06a.36.36,0,0,1,.2.34.34.34,0,0,1-.2.34c-.08.06-.14.06-.34.06h-.31v1.93c0,.2.06.34.34.36a.86.86,0,0,1,.31.06.37.37,0,0,1,.2.36.4.4,0,0,1-.2.36.84.84,0,0,1-.42.06H29a1.08,1.08,0,0,1-1.17-1.15v-2Z"/><path class="cls-2" d="M30.57,26.76h-.11c-.2,0-.25,0-.34-.06a.36.36,0,0,1-.2-.34.34.34,0,0,1,.2-.34c.08-.06.14-.06.34-.06h.11v-.53a.9.9,0,0,1,.06-.45.49.49,0,0,1,.45-.25.47.47,0,0,1,.45.25.9.9,0,0,1,.06.45V26h.31c.2,0,.25,0,.34.06a.36.36,0,0,1,.2.34.34.34,0,0,1-.2.34c-.08.06-.14.06-.34.06h-.31v1.93c0,.2.06.34.34.36a.86.86,0,0,1,.31.06.37.37,0,0,1,.2.36.4.4,0,0,1-.2.36.84.84,0,0,1-.42.06h-.06a1.08,1.08,0,0,1-1.17-1.15v-2Z"/><path class="cls-2" d="M33.82,28.18a.82.82,0,0,0,.9.9,1,1,0,0,0,.7-.22.6.6,0,0,1,.36-.14.43.43,0,0,1,.39.42c0,.2-.17.36-.39.5a1.86,1.86,0,0,1-1.09.28c-1,0-1.87-.42-1.87-2.07,0-1.31.7-2.07,1.76-2.07a1.73,1.73,0,0,1,1.76,1.79.62.62,0,0,1-.14.45.54.54,0,0,1-.45.14H33.82Zm1.45-1.12a.75.75,0,0,0-1.34,0,1.07,1.07,0,0,0-.08.45h1.54C35.33,27.32,35.33,27.2,35.27,27.06Z"/><path class="cls-2" d="M39,25.81a1.09,1.09,0,0,1,.7.2.56.56,0,0,1,.25.42.53.53,0,0,1-.14.36.52.52,0,0,1-.34.14.6.6,0,0,1-.34-.11.91.91,0,0,0-.39-.11.66.66,0,0,0-.67.73v1.79a.9.9,0,0,1-.06.45.49.49,0,0,1-.45.25.45.45,0,0,1-.45-.25.9.9,0,0,1-.06-.45V26.51c0-.25,0-.34.08-.45a.49.49,0,0,1,.42-.22.45.45,0,0,1,.31.11.4.4,0,0,1,.14.31A1.46,1.46,0,0,1,39,25.81Z"/><path class="cls-1" d="M2,28.44l-.9-1.76v2.46a.76.76,0,0,1-.08.48.54.54,0,0,1-.48.25.54.54,0,0,1-.48-.25A1,1,0,0,1,0,29.13V25a.59.59,0,0,1,.17-.5.53.53,0,0,1,.36-.14.5.5,0,0,1,.31.08.86.86,0,0,1,.28.34l1.37,2.6,1.37-2.6a.82.82,0,0,1,.28-.34.56.56,0,0,1,.31-.08.59.59,0,0,1,.36.14A.62.62,0,0,1,5,25v4.14a.76.76,0,0,1-.08.48.57.57,0,0,1-1,0,1,1,0,0,1-.08-.48V26.7l-.81,1.73c-.14.25-.25.36-.5.36A.52.52,0,0,1,2,28.44Z"/><path class="cls-1" d="M4.5,29.92a.55.55,0,0,1-.5-.28.76.76,0,0,1-.08-.48V26.87L3.1,28.46c-.14.25-.25.39-.56.39A.6.6,0,0,1,2,28.46l-.81-1.59v2.29a.76.76,0,0,1-.08.48.55.55,0,0,1-.5.28.55.55,0,0,1-.5-.28A.81.81,0,0,1,0,29.16V25a.79.79,0,0,1,.17-.56.51.51,0,0,1,.39-.17.6.6,0,0,1,.34.08,1,1,0,0,1,.28.34l1.31,2.52L3.8,24.72a1,1,0,0,1,.28-.34.6.6,0,0,1,.34-.08.51.51,0,0,1,.39.17A.71.71,0,0,1,5,25v4.14a.76.76,0,0,1-.08.48C4.92,29.81,4.73,29.92,4.5,29.92ZM4,26.51v2.66a.9.9,0,0,0,.06.45.49.49,0,0,0,.42.22.46.46,0,0,0,.42-.22A.9.9,0,0,0,5,29.16V25a.61.61,0,0,0-.14-.48.46.46,0,0,0-.34-.14.64.64,0,0,0-.31.08,1,1,0,0,0-.25.31l-1.4,2.66L1.12,24.8a1,1,0,0,0-.25-.31.5.5,0,0,0-.31-.08.46.46,0,0,0-.34.14A.65.65,0,0,0,.08,25v4.14a.9.9,0,0,0,.06.45.49.49,0,0,0,.42.22A.46.46,0,0,0,1,29.61c.14-.11.14-.2.14-.45V26.51l1,1.9c.14.28.25.36.48.36s.34-.08.48-.36Z"/><path class="cls-1" d="M7.41,29.89a1.33,1.33,0,0,1-1-.36A1.47,1.47,0,0,1,6,28.38v-1.9A.9.9,0,0,1,6.1,26a.46.46,0,0,1,.42-.22.43.43,0,0,1,.42.22.9.9,0,0,1,.06.45v1.76a.67.67,0,1,0,1.34,0V26.48A.9.9,0,0,1,8.39,26a.46.46,0,0,1,.42-.22.43.43,0,0,1,.42.22.9.9,0,0,1,.06.45v2.69c0,.25,0,.34-.08.45a.49.49,0,0,1-.42.22.45.45,0,0,1-.31-.11.53.53,0,0,1-.14-.28A1,1,0,0,1,7.41,29.89Z"/><path class="cls-1" d="M7.41,29.95a1.45,1.45,0,0,1-1-.36A1.55,1.55,0,0,1,6,28.41v-1.9A1.1,1.1,0,0,1,6.07,26a.49.49,0,0,1,.48-.25A.49.49,0,0,1,7,26a1,1,0,0,1,.06.48v1.76a.62.62,0,1,0,1.23,0V26.51A1.1,1.1,0,0,1,8.36,26a.49.49,0,0,1,.48-.25.49.49,0,0,1,.48.25,1,1,0,0,1,.06.48v2.69a.76.76,0,0,1-.08.48.54.54,0,0,1-.48.25.46.46,0,0,1-.34-.14.38.38,0,0,1-.14-.22A1.18,1.18,0,0,1,7.41,29.95Zm-.84-4.08a.39.39,0,0,0-.39.22.78.78,0,0,0-.06.42v1.9a1.34,1.34,0,0,0,.39,1.09,1.25,1.25,0,0,0,.92.34,1.31,1.31,0,0,0,1-.42l.06-.06,0,.08a.45.45,0,0,0,.14.28.5.5,0,0,0,.28.11.45.45,0,0,0,.39-.2.78.78,0,0,0,.06-.42V26.53c0-.25,0-.34-.06-.42a.45.45,0,0,0-.78,0,.78.78,0,0,0-.06.42V28.3a.7.7,0,1,1-1.4,0V26.53c0-.25,0-.34-.06-.42A.58.58,0,0,0,6.57,25.86Z"/><path class="cls-1" d="M12.76,26c.22.11.48.31.48.56a.52.52,0,0,1-.14.34.4.4,0,0,1-.31.14.48.48,0,0,1-.34-.14.76.76,0,0,0-.48-.17.7.7,0,0,0-.56.25,1.4,1.4,0,0,0-.22.87,1.32,1.32,0,0,0,.22.9A.7.7,0,0,0,12,29a.76.76,0,0,0,.48-.17.48.48,0,0,1,.34-.14.45.45,0,0,1,.31.14.46.46,0,0,1,.14.34c0,.25-.25.45-.48.56a1.42,1.42,0,0,1-.78.2c-.78,0-1.79-.42-1.79-2s1-2,1.79-2A1.25,1.25,0,0,1,12.76,26Z"/><path class="cls-1" d="M11.94,29.95a2,2,0,0,1-1.23-.42,2.17,2.17,0,0,1-.62-1.65,2,2,0,0,1,.62-1.65,1.77,1.77,0,0,1,1.23-.42,1.58,1.58,0,0,1,.81.2c.22.11.5.31.5.59a.59.59,0,0,1-.14.36.52.52,0,0,1-.34.14.55.55,0,0,1-.36-.14.74.74,0,0,0-.45-.17.65.65,0,0,0-.53.25,1.37,1.37,0,0,0-.22.84,1.24,1.24,0,0,0,.22.87A.65.65,0,0,0,12,29a.69.69,0,0,0,.45-.17c.14-.08.22-.17.36-.17a.52.52,0,0,1,.34.14.46.46,0,0,1,.14.36c0,.22-.17.42-.5.62A1.83,1.83,0,0,1,11.94,29.95Zm0-4.08c-.53,0-1.73.2-1.73,2s1.2,2,1.73,2a1.32,1.32,0,0,0,.76-.2c.31-.17.45-.34.45-.53a.51.51,0,0,0-.14-.31.43.43,0,0,0-.28-.11.39.39,0,0,0-.31.14.69.69,0,0,1-.5.17.67.67,0,0,1-.59-.28,1.32,1.32,0,0,1-.22-.9,1.5,1.5,0,0,1,.22-.9.74.74,0,0,1,.59-.28.78.78,0,0,1,.5.17.7.7,0,0,0,.31.14.5.5,0,0,0,.28-.11.45.45,0,0,0,.14-.31c0-.25-.28-.45-.45-.53h0A1.58,1.58,0,0,0,12,25.86Z"/><path class="cls-1" d="M17.17,29.64a.46.46,0,0,1-.42.22.43.43,0,0,1-.42-.22.9.9,0,0,1-.06-.45V27.43a.65.65,0,0,0-.67-.73.63.63,0,0,0-.67.73v1.76a.9.9,0,0,1-.06.45.46.46,0,0,1-.42.22.43.43,0,0,1-.42-.22.9.9,0,0,1-.06-.45V25.05A.9.9,0,0,1,14,24.6a.46.46,0,0,1,.42-.22.43.43,0,0,1,.42.22.9.9,0,0,1,.06.45v1.17a1.28,1.28,0,0,1,1-.42,1.33,1.33,0,0,1,1,.36,1.47,1.47,0,0,1,.42,1.15v1.9A1.1,1.1,0,0,1,17.17,29.64Z"/><path class="cls-1" d="M16.76,29.92a.49.49,0,0,1-.48-.25,1,1,0,0,1-.06-.48V27.43a.62.62,0,1,0-1.23,0v1.76a1.1,1.1,0,0,1-.06.48.57.57,0,0,1-1,0,1,1,0,0,1-.06-.48V25.05a1.1,1.1,0,0,1,.06-.48.57.57,0,0,1,1,0,1,1,0,0,1,.06.48v1.09a1.29,1.29,0,0,1,.92-.36,1.45,1.45,0,0,1,1,.36,1.55,1.55,0,0,1,.42,1.17v1.9a1.1,1.1,0,0,1-.06.48A.61.61,0,0,1,16.76,29.92Zm-1.15-3.24a.67.67,0,0,1,.7.76v1.76c0,.25,0,.34.06.42a.45.45,0,0,0,.78,0h0a.78.78,0,0,0,.06-.42v-1.9a1.34,1.34,0,0,0-.39-1.09,1.25,1.25,0,0,0-.92-.34,1.23,1.23,0,0,0-1,.39l-.08.08V25.05c0-.25,0-.34-.06-.42a.42.42,0,0,0-.39-.22.39.39,0,0,0-.39.22.78.78,0,0,0-.06.42v4.17c0,.25,0,.34.06.42a.45.45,0,0,0,.78,0,.78.78,0,0,0,.06-.42V27.46A.72.72,0,0,1,15.61,26.67Z"/></svg>
