<?xml version="1.0"?>
<svg xmlns="http://www.w3.org/2000/svg" id="&#x421;&#x43B;&#x43E;&#x439;_1" data-name="&#x421;&#x43B;&#x43E;&#x439; 1" viewBox="0 0 40 40" width="110" height="60"><defs><style>.cls-1{fill:#f39;}</style></defs><title>Neosurf</title><path class="cls-1" d="M0,24.48V17a1.18,1.18,0,0,1,1.25-1.17,1.47,1.47,0,0,1,1.46.9L4.6,20.45h0V15.93H6.74v7.44a1.18,1.18,0,0,1-1.12,1.25c-.55,0-.95-.25-1.51-1.34l-2-3.81h0v5H0Zm10.58-2.35-.79-1.27,1.7-1.13a1.35,1.35,0,0,0-.8-.23c-.85,0-1.32.89-1.32,1.65a1.54,1.54,0,0,0,1.4,1.62,2.27,2.27,0,0,0,1.85-1.44l1.49.78a3.84,3.84,0,0,1-3.49,2.51,3.36,3.36,0,0,1,0-6.72,3.38,3.38,0,0,1,3.09,2Zm5.53-.87a1.26,1.26,0,1,1,1.26,1.36,1.3,1.3,0,0,1-1.26-1.36Zm-2,0a3.36,3.36,0,0,0,3.26,3.36,3.36,3.36,0,0,0,0-6.72A3.36,3.36,0,0,0,14.11,21.26Zm6.95,1.39h2c.24,0,.36-.12.36-.29,0-.6-2.26-.37-2.26-2.47a1.85,1.85,0,0,1,2-1.79h2v1.69H23.5c-.24,0-.42.13-.42.3,0,.51,2.39.63,2.39,2.33a1.87,1.87,0,0,1-2.13,2H21V22.65Zm7.07-.9c0,.55.27.89.72.89s.72-.34.72-.89V18.11h2v3.64a2.74,2.74,0,1,1-5.48,0V18.11h2v3.64ZM34,19.16h0c.31-.89.89-1.05,1.78-1.05V20c-1.41.05-1.54.36-1.54,1.45v3h-2V18.11H34Zm2.23,5.25V17.65a2.34,2.34,0,0,1,2.61-2.27H40v1.89H39c-.53,0-.67.3-.67.83h1.24V20H38.35v4.44Z"/></svg>
