<?xml version="1.0"?>
<svg xmlns="http://www.w3.org/2000/svg" xmlns:xlink="http://www.w3.org/1999/xlink" id="&#x421;&#x43B;&#x43E;&#x439;_1" data-name="&#x421;&#x43B;&#x43E;&#x439; 1" viewBox="0 0 40 40" width="110" height="60"><defs><style>.cls-1{fill:none;}.cls-2{clip-path:url(#clip-path);}.cls-3{fill:#fdb913;}.cls-4{fill:#fff;}.cls-5{fill:#231f20;}</style><clipPath id="clip-path"><rect class="cls-1" width="40" height="40"/></clipPath></defs><title>interac</title><g class="cls-2"><path class="cls-3" d="M3.9.68H36.1A3.22,3.22,0,0,1,39.32,3.9h0V36.1a3.22,3.22,0,0,1-3.22,3.22H3.9A3.22,3.22,0,0,1,.68,36.1h0V3.9A3.22,3.22,0,0,1,3.9.68Z"/><path class="cls-4" d="M36.1.68A3.22,3.22,0,0,1,39.32,3.9V36.1a3.22,3.22,0,0,1-3.22,3.22H3.9A3.22,3.22,0,0,1,.68,36.1h0V3.9A3.22,3.22,0,0,1,3.9.68H36.1m0-.68H3.9A3.91,3.91,0,0,0,0,3.9V36.1A3.91,3.91,0,0,0,3.9,40H36.1A3.91,3.91,0,0,0,40,36.1V3.9A3.91,3.91,0,0,0,36.1,0"/><path class="cls-5" d="M22.25,20.42V13.5l1.81-.43V14a2.6,2.6,0,0,1,1.55-1.47,1,1,0,0,1,.5,0v1.77a2.53,2.53,0,0,0-.95.2,1.65,1.65,0,0,0-1,1.72V20Z"/><path class="cls-5" d="M12.74,22.67a4.12,4.12,0,0,1-.29-2V17.23l-.93.22V16l.93-.22V14.26l1.92-.45v1.55L15.72,15v1.42l-1.36.32s0,2.82,0,3.51c0,1.59.42,1.9.42,1.9Z"/><path class="cls-5" d="M15.92,18.55a5.81,5.81,0,0,1,.55-2.82,3.21,3.21,0,0,1,2.25-1.59c2.11-.48,2.87.77,2.84,2.44,0,.6,0,.89,0,.89l-3.71.87v.06c0,1.17.24,1.72,1,1.57a1,1,0,0,0,.87-1c0-.08,0-.28,0-.28l1.74-.42s0,.14,0,.3c0,.66-.21,2.31-2.62,2.88s-2.9-.85-2.9-2.87m2.88-3.12c-.61.14-.94.74-1,1.74l1.87-.44s0-.14,0-.3c0-.75-.24-1.15-.92-1"/><path class="cls-5" d="M32.61,14.51c-.07-2.11.47-3.78,2.83-4.31,1.5-.34,2.07,0,2.36.43a2.41,2.41,0,0,1,.38,1.52v.12l-1.84.44v-.26c0-.81-.22-1.11-.81-1s-1,.83-1,2.15c0,.47,0,.55,0,.61,0,1.33.18,1.94,1,1.78s.79-.75.8-1.29c0-.08,0-.35,0-.35l1.84-.43s0,.14,0,.29a3.1,3.1,0,0,1-2.65,3.25c-2.38.56-2.85-.82-2.92-3"/><path class="cls-5" d="M26.25,17.46c0-1.6.94-2.11,2.35-2.69s1.3-.79,1.3-1.24-.17-.71-.8-.55a1,1,0,0,0-.77.91,3.3,3.3,0,0,0,0,.36l-1.78.42a3.54,3.54,0,0,1,.12-1.05c.28-1,1.13-1.6,2.59-1.94,1.9-.44,2.53.4,2.53,1.69v3.06c0,1.48.27,1.7.27,1.7l-1.75.41a3.8,3.8,0,0,1-.23-.63,2.39,2.39,0,0,1-1.7,1.28,1.59,1.59,0,0,1-2.12-1.71m3.64-2.19a6.6,6.6,0,0,1-.93.54A1.24,1.24,0,0,0,28.12,17a.6.6,0,0,0,.82.65,1.35,1.35,0,0,0,1-1.4Z"/><path class="cls-5" d="M2.7,27.52a1.11,1.11,0,0,1-.93-1.71v0h0l2.61-.62v2h0l-1.45.34-.23,0"/><path class="cls-5" d="M2.7,30.05a1.11,1.11,0,0,1-1.11-1.11,1.1,1.1,0,0,1,.18-.6v0h0l2.61-.62v2h0L2.92,30l-.23,0"/><path class="cls-5" d="M2.7,32.59a1.11,1.11,0,0,1-1.11-1.11,1.09,1.09,0,0,1,.18-.6v0l2.63-.62v2h0l-1.45.34-.23,0"/><polygon class="cls-5" points="2.39 25.09 2.39 13.99 4.41 13.51 4.41 24.61 2.39 25.09"/><path class="cls-5" d="M7.43,24.14a1.25,1.25,0,0,0-2.5,0h0V34.51a3.38,3.38,0,0,0,3.38,3.38h3.53V33.56c0-2.36,0-4.77,0-4.83a1.63,1.63,0,0,0-.73-1.36L8,25.24s0,4.64,0,4.86a.27.27,0,0,1-.54,0c0-.05,0-5.31,0-6"/><path class="cls-5" d="M9.11,16.4a2.73,2.73,0,0,0-1.8,1.39V17l-1.82.43v5a1.86,1.86,0,0,1,1.92.34V19.55A1.43,1.43,0,0,1,8.34,18c.41-.09.76.06.76.79v4.69L11,23.07v-5c0-1.2-.46-2-1.9-1.71"/><path class="cls-5" d="M37,9.3a1.19,1.19,0,1,1,1.19-1.19h0A1.19,1.19,0,0,1,37,9.3m0-2.22a1,1,0,1,0,1,1,1,1,0,0,0-1-1"/><path class="cls-5" d="M36.56,7.41h.51a.33.33,0,0,1,.37.37c0,.19-.08.33-.24.36h0c.14,0,.22.09.23.3s0,.21,0,.29a.15.15,0,0,0,.07.13h-.26a.24.24,0,0,1,0-.13c0-.09,0-.17,0-.27s-.05-.23-.21-.23h-.19v.63h-.23Zm.42.64a.21.21,0,0,0,.23-.23c0-.15-.07-.24-.22-.24h-.2v.47Z"/></g></svg>
