<?xml version="1.0"?>
<svg xmlns="http://www.w3.org/2000/svg" viewBox="0 0 22 18.48" width="65" height="35"><title>Debit Card</title><g id="&#x421;&#x43B;&#x43E;&#x439;_2" data-name="&#x421;&#x43B;&#x43E;&#x439; 2"><g id="&#x421;&#x43B;&#x43E;&#x439;_1-2" data-name="&#x421;&#x43B;&#x43E;&#x439; 1"><path d="M11.46,3.35A4,4,0,0,1,11.71,2h-9A2.75,2.75,0,0,0,0,4.73V6.1H12.54A4.06,4.06,0,0,1,11.46,3.35Z"/><path d="M0,15.73a2.75,2.75,0,0,0,2.75,2.75h16.5A2.75,2.75,0,0,0,22,15.73V8.85H0ZM2.75,13A1.37,1.37,0,0,1,4.13,11.6H5.5A1.38,1.38,0,0,1,6.88,13v1.38A1.38,1.38,0,0,1,5.5,15.73H4.13a1.38,1.38,0,0,1-1.37-1.37Z"/><path d="M21.19,2.78A2.74,2.74,0,0,0,19.37,2a4,4,0,0,1,.25,1.36A4.06,4.06,0,0,1,18.54,6.1H22V4.73A2.75,2.75,0,0,0,21.19,2.78Z"/><path d="M15.6,0A3.35,3.35,0,1,0,19,3.35,3.35,3.35,0,0,0,15.6,0Zm2,2.54L15.24,5,13.75,3.53a.5.5,0,0,1,.71-.71l.76.76,1.67-1.74a.5.5,0,0,1,.72.69Z"/></g></g></svg>
