<?xml version="1.0"?>
<svg xmlns="http://www.w3.org/2000/svg" id="&#x421;&#x43B;&#x43E;&#x439;_1" data-name="&#x421;&#x43B;&#x43E;&#x439; 1" viewBox="0 0 40 40" width="110" height="60"><defs><style>.cls-1{fill:#852165;}</style></defs><title>Skrill</title><path class="cls-1" d="M9.5,17.52a12.75,12.75,0,0,0-1.25-.45,9.74,9.74,0,0,0-3.14-.42,2.53,2.53,0,0,0-.85.18.89.89,0,0,0-.59.94.85.85,0,0,0,.67.77,4.71,4.71,0,0,0,1,.14,6.82,6.82,0,0,1,2.8.83,3.73,3.73,0,0,1,.16,6.32,5.67,5.67,0,0,1-2.91,1,17.06,17.06,0,0,1-5-.43c-.14,0-.18-.08-.18-.22q0-1.32,0-2.64c0-.16,0-.16.17-.11a10.33,10.33,0,0,0,3.33.67,4.15,4.15,0,0,0,1.46-.17,1.49,1.49,0,0,0,.65-.38A.9.9,0,0,0,5.54,22a3.35,3.35,0,0,0-1.05-.17,7.39,7.39,0,0,1-2.21-.53A3.56,3.56,0,0,1,0,17.68a3.78,3.78,0,0,1,2.47-3.31,6.4,6.4,0,0,1,2.43-.46,12.6,12.6,0,0,1,4.38.63.25.25,0,0,1,.21.29C9.49,15.72,9.5,16.61,9.5,17.52Z"/><path class="cls-1" d="M19.86,26.7H15.92c-.13,0-.17,0-.21-.16a12.84,12.84,0,0,0-1.23-3.23,1.41,1.41,0,0,0-.22-.3v.17c0,1.12,0,2.23,0,3.35,0,.13,0,.17-.17.17H11c-.13,0-.16,0-.16-.16q0-5.9,0-11.8c0-.13,0-.16.16-.19l3.12-.61c.16,0,.16,0,.16.15q0,3.15,0,6.29v.16c.08,0,.1-.08.14-.13a11.39,11.39,0,0,0,1.68-2.9.25.25,0,0,1,.28-.18h3.72A13.63,13.63,0,0,1,19.42,19a14.26,14.26,0,0,1-1.65,2.73.21.21,0,0,0,0,.27,29,29,0,0,1,1.87,3.91A5.93,5.93,0,0,1,19.86,26.7Z"/><path class="cls-1" d="M35.14,20.33q0,3.07,0,6.15c0,.17,0,.22-.21.22H32c-.14,0-.18,0-.18-.18q0-5.92,0-11.84c0-.14,0-.19.17-.21l3-.54c.14,0,.18,0,.18.16Q35.13,17.21,35.14,20.33Z"/><path class="cls-1" d="M40,20.33c0,2,0,4.1,0,6.14,0,.19-.05.23-.23.22H36.84c-.14,0-.18,0-.18-.18q0-5.92,0-11.83c0-.15,0-.19.19-.21l2.95-.53c.17,0,.2,0,.2.17Q40,17.22,40,20.33Z"/><path class="cls-1" d="M20.56,23.76c0-.85,0-1.7,0-2.55a4,4,0,0,1,.86-2.58,3.43,3.43,0,0,1,1.45-1,7.12,7.12,0,0,1,3-.4c.15,0,.17.07.17.2q0,1.19,0,2.38c0,.14,0,.19-.18.19a3.3,3.3,0,0,0-.81.11A1.35,1.35,0,0,0,24,21.34a5.84,5.84,0,0,0-.07.89q0,2.14,0,4.27c0,.15,0,.21-.19.2h-3c-.16,0-.19,0-.19-.19,0-.92,0-1.83,0-2.75Z"/><path class="cls-1" d="M27.07,22c0-1.49,0-3,0-4.47,0-.15,0-.19.18-.19h3c.13,0,.17,0,.17.17q0,4.51,0,9c0,.13,0,.17-.17.17h-3c-.13,0-.17,0-.17-.17C27.07,25,27.07,23.51,27.07,22Z"/><path class="cls-1" d="M27.1,14.8a1.64,1.64,0,1,1,1.63,1.65A1.63,1.63,0,0,1,27.1,14.8Z"/></svg>
