<?xml version="1.0"?>
<svg xmlns="http://www.w3.org/2000/svg" viewBox="0 0 586.8 367.1" width="65" height="35"><defs><style>.cls-1{fill:#f4a929;}.cls-2{fill:#1b4da2;}.cls-3{fill:#fff;}</style></defs><g id="&#x421;&#x43B;&#x43E;&#x439;_2" data-name="&#x421;&#x43B;&#x43E;&#x439; 2"><g id="&#x421;&#x43B;&#x43E;&#x439;_1-2" data-name="&#x421;&#x43B;&#x43E;&#x439; 1"><path class="cls-1" d="M30.55,4.63C37.61,1,45.68,2.45,53.27,2.3c17.37.46,34.78-.42,52.15.36,7.83,0,14.54,6.5,15.62,14.13,5.45,26.59,10.45,53.28,15.8,79.93C128,65.5,104.65,40,77.21,23.79,62.71,15,46.52,9.94,30.55,4.63Z"/><path class="cls-2" d="M182,2.13c15.09.17,30.15.1,45.2,0-22.89,54.77-44.25,110.18-67.64,164.74-14.71-.45-29.42-.24-44.13-.24-13-47.63-25.17-95.5-38.09-143.16C104.8,39.62,128.2,65,137.05,96.15c1.34,6,2.28,12.2,3.44,18.3Q161.07,58.25,182,2.13Z"/><path class="cls-2" d="M242.9,2.13q21.37.15,42.74,0c-8.76,54.91-18,109.76-26.52,164.72q-21.27,0-42.56,0C224.72,111.86,234.32,57.08,242.9,2.13Z"/><path class="cls-2" d="M326.22,13.31C351.7-3.32,385-2.83,413.19,6.37c-1.3,12.11-3.33,24.1-5.44,36.07-15-7.15-32.47-10.33-48.75-6.18-7.69,1.82-15.27,11.3-8.88,18.42,13.13,13.35,33.8,16.39,46.15,30.93,14.32,13.92,13.8,37.35,4,53.64C390,156.45,370.13,165.44,350.79,168c-21.87,2.27-44.65.91-65.15-7.5,2.18-12.2,4-24.48,6.22-36.68,17.72,9.1,38.29,13.67,58.05,9.31,6.7-2.23,13.62-7.71,13-15.52-2.21-9.31-12-13.29-19.62-17.51C328.53,92.9,312.63,84,306,68.17,297.75,48.12,308.67,24.65,326.22,13.31Z"/><path class="cls-2" d="M465.75,18.86c2.8-7.58,8.34-15.82,17.1-16.28,12.89-.91,25.84-.14,38.73-.38,11.53,54.86,22.68,109.75,34,164.6-13,0-25.91,0-38.86.07Q514,154.51,511.53,142c-18,0-35.91,0-53.85-.07-2.88,8.31-5.86,16.63-8.94,24.87q-22,0-44.05,0C425,117.52,445.49,68.24,465.75,18.86Z"/><path class="cls-3" d="M469.53,108.38c7.87-20.47,14.31-41.53,23.12-61.61,2.61,20.78,7.74,41.14,12,61.64C492.9,108.41,481.23,108.41,469.53,108.38Z"/><path class="cls-2" d="M45.45,233q13.95,0,24.15,4.65a35.93,35.93,0,0,1,15.9,13.2q5.55,8.55,5.55,20.25a36.83,36.83,0,0,1-5.55,20.25,35.93,35.93,0,0,1-15.9,13.2q-10.2,4.5-24.15,4.5H24.3V338H0V233ZM44.1,289.25q10.95,0,16.65-4.65,5.7-4.8,5.7-13.5,0-8.85-5.7-13.5-5.7-4.8-16.65-4.8H24.3v36.45Zm85-21.3a26.09,26.09,0,0,1,11.25-8.85,42.59,42.59,0,0,1,16.5-3v21.6q-3.9-.3-5.25-.3-10,0-15.75,5.7-5.7,5.55-5.7,16.8V338h-23.4V257.3H129.1Zm120,30q0,.45-.45,6.3h-61a19,19,0,0,0,7.8,11.85q6.15,4.35,15.3,4.35a31.51,31.51,0,0,0,11.1-1.8,27.87,27.87,0,0,0,9.15-6l12.45,13.5Q232,339.2,210.08,339.2A53.3,53.3,0,0,1,185.93,334a39.53,39.53,0,0,1-16.2-14.85,40.71,40.71,0,0,1-5.7-21.45,41.27,41.27,0,0,1,5.55-21.3A39.38,39.38,0,0,1,185,261.5a47.69,47.69,0,0,1,43.5-.3,36.61,36.61,0,0,1,15,14.7Q249.08,285.35,249.08,298ZM207.23,273.8a20.15,20.15,0,0,0-13.35,4.5,19.16,19.16,0,0,0-6.6,12.3H227a19,19,0,0,0-6.6-12.15A19.53,19.53,0,0,0,207.23,273.8Zm105.13-17.7a40.25,40.25,0,0,1,20.4,5.25,36.38,36.38,0,0,1,14.55,14.55q5.25,9.3,5.25,21.75a44.35,44.35,0,0,1-5.25,21.9,37.68,37.68,0,0,1-14.55,14.55,41.18,41.18,0,0,1-20.4,5.1q-15.45,0-24.3-9.75V367.1h-23.4V257.3H287v9.3Q295.71,256.1,312.36,256.1ZM308.31,320a19.37,19.37,0,0,0,14.7-6q5.85-6.15,5.85-16.35T323,281.45a19.14,19.14,0,0,0-14.7-6.15,19.61,19.61,0,0,0-14.85,6.15q-5.7,6-5.7,16.2t5.7,16.35A19.86,19.86,0,0,0,308.31,320Zm91.14-63.9q18.75,0,28.8,9,10,8.85,10.06,26.85V338h-21.9V328q-6.62,11.25-24.6,11.25a38.71,38.71,0,0,1-16.21-3.15,24.17,24.17,0,0,1-10.35-8.7,22.64,22.64,0,0,1-3.59-12.6q0-11.25,8.4-17.7t26.25-6.45h18.6q0-7.65-4.66-11.7c-3.09-2.8-7.75-4.2-13.94-4.2a40,40,0,0,0-12.75,2.1,32.33,32.33,0,0,0-10.5,5.4l-8.4-16.35a50.77,50.77,0,0,1,15.75-7.2A71.59,71.59,0,0,1,399.45,256.1Zm-1.79,67.35a20.84,20.84,0,0,0,10.65-2.7,15.58,15.58,0,0,0,6.6-8.25v-8.25H398.85q-14.4,0-14.4,9.45a8.66,8.66,0,0,0,3.46,7.2Q391.51,323.45,397.66,323.45Zm61.82-66.15h23.4V338h-23.4Zm11.7-11.25a14.84,14.84,0,0,1-10.5-3.75,12.7,12.7,0,0,1,0-18.6,14.84,14.84,0,0,1,10.5-3.75,15.21,15.21,0,0,1,10.5,3.6,11.54,11.54,0,0,1,4.05,9,13,13,0,0,1-4.05,9.75A14.84,14.84,0,0,1,471.18,246.05ZM586.8,226.7V338H564.45v-9.3q-8.7,10.5-25.2,10.5a42.33,42.33,0,0,1-20.7-5.1,36.65,36.65,0,0,1-14.4-14.55,48.3,48.3,0,0,1,0-43.8,36.65,36.65,0,0,1,14.4-14.55,42.33,42.33,0,0,1,20.7-5.1q15.45,0,24.15,9.75V226.7ZM543.3,320a19.68,19.68,0,0,0,14.7-6q5.85-6.15,5.85-16.35T558,281.45a20.82,20.82,0,0,0-29.55,0q-5.85,6-5.85,16.2T528.45,314A19.86,19.86,0,0,0,543.3,320Z"/></g></g></svg>
