<?xml version="1.0" encoding="UTF-8" standalone="no"?>
<svg xmlns:dc="http://purl.org/dc/elements/1.1/" xmlns:cc="http://creativecommons.org/ns#" xmlns:rdf="http://www.w3.org/1999/02/22-rdf-syntax-ns#" xmlns:svg="http://www.w3.org/2000/svg" xmlns="http://www.w3.org/2000/svg" style="fill:none" id="svg6" version="1.1" viewBox="0 0 1236.1 643.3017" height="35" width="65">
  <metadata id="metadata12">
    <rdf:RDF>
      <cc:Work rdf:about="">
        <dc:format>image/svg+xml</dc:format>
        <dc:type rdf:resource="http://purl.org/dc/dcmitype/StillImage"/>
      </cc:Work>
    </rdf:RDF>
  </metadata>
  <defs id="defs10"/>
  <path style="fill:#158ac8" id="path2" d="M 111.5,72.101709 H 43.7 c -6.6,0 -10.9,2.2 -17.5,4.4 -6.6,2.2 -10.9,6.6 -15.3,8.8 C 4.29999,94.101709 0,107.20171 0,122.50171 v 216.6 h 48 v -72.2 h 65.6 c 13.1,0 21.9,-4.4 30.6,-13.1 8.8,-8.8 13.1,-17.5 13.1,-30.6 v -100.8 C 157.4,89.601709 142.1,72.101709 111.5,72.101709 Z m -2.2,133.400001 c 0,2.2 -2.2,6.6 -4.4,8.8 -2.2,2.2 -4.4,4.4 -8.8,4.4 h -35 c -10.9,0 -15.3,-4.4 -15.3,-15.3 v -67.9 c 0,-8.8 4.4,-13.1 13.1,-15.3 h 37.2 c 6.6,0 10.9,4.4 10.9,10.9 v 74.4 z M 306.2,72.101709 H 196.8 v 48.100001 h 96.3 c 8.8,0 13.1,2.2 13.1,10.9 v 4.4 h -63.5 c -30.6,0 -45.9,15.3 -45.9,45.9 v 39.4 c 0,28.4 17.5,43.8 48.1,43.8 h 65.6 c 13.1,0 24.1,-4.4 30.6,-13.1 8.8,-8.8 10.9,-19.7 13.1,-32.8 v -100.7 C 354.3,87.401709 339,72.101709 306.2,72.101709 Z m 2.2,135.600001 c 0,6.6 -4.4,8.8 -13.1,8.8 h -37.2 c -4.4,0 -6.6,0 -8.8,-2.2 -2.2,-2.2 -4.4,-4.4 -4.4,-6.6 v -13.1 c 0,-4.4 0,-8.8 2.2,-10.9 2.2,-2.2 4.4,-2.2 10.9,-2.2 h 37.2 c 8.8,0 13.1,4.4 13.1,10.9 z m 194.7,-2.2 c 0,2.2 -2.2,6.6 -4.4,8.8 -2.2,2.2 -6.6,4.4 -10.9,4.4 H 455 c -8.8,0 -13.1,-4.4 -13.1,-15.3 V 72.101709 H 393.8 V 216.50171 c 0,8.8 2.2,15.3 4.4,19.7 2.2,6.6 6.6,10.9 10.9,15.3 4.3,4.4 10.9,8.8 15.3,10.9 4.4,2.1 10.9,2.2 19.7,2.2 h 61.3 v 10.9 c 0,2.2 -2.2,6.6 -4.4,8.8 -2.2,2.2 -6.6,4.4 -8.8,4.4 h -96.3 v 50.3 h 111.6 c 13.1,0 24.1,-4.4 32.8,-15.3 8.8,-8.8 10.9,-21.9 13.1,-37.2 V 72.101709 H 505.3 V 205.50171 Z m 87.5,-89.7 v 37.2 c 0,10.9 4.4,19.7 13.1,28.4 8.8,8.8 19.7,13.1 32.8,13.1 h 41.6 c 2.2,0 4.4,2.2 6.6,6.6 0,2.2 2.2,2.2 2.2,4.4 v 2.2 c 0,6.6 -4.4,8.8 -13.1,8.8 h -85.3 v 48.1 h 100.7 c 8.8,0 15.3,0 19.7,-2.2 4.4,-2.2 8.8,-4.4 13.1,-10.9 8.8,-10.9 13.1,-19.7 13.1,-30.6 v -35 c 0,-10.9 -4.4,-21.9 -13.1,-30.6 -8.8,-8.8 -17.5,-13.1 -28.4,-13.1 H 652 c -10.9,0 -15.3,-2.2 -15.3,-8.8 v -2.2 c 0,-6.6 4.4,-8.8 15.3,-8.8 h 85.3 V 72.101709 h -98.5 c -32.8,0 -48.2,15.3 -48.2,43.700001 z M 879.5,72.101709 H 770.1 v 48.100001 h 96.3 c 8.8,0 13.1,2.2 13.1,10.9 v 4.4 H 816 c -30.6,0 -45.9,15.3 -45.9,45.9 v 39.4 c 0,28.4 17.5,43.8 48.1,43.8 h 65.6 c 13.1,0 24.1,-4.4 30.6,-13.1 8.8,-8.8 10.9,-19.7 10.9,-32.8 v -100.7 c 2.3,-30.600001 -13,-45.900001 -45.8,-45.900001 z m 2.2,135.600001 c 0,6.6 -4.4,8.8 -13.1,8.8 h -37.2 c -4.4,0 -6.6,0 -8.8,-2.2 -2.2,-2.2 -4.4,-4.4 -4.4,-6.6 v -13.1 c 0,-4.4 0,-8.8 2.2,-10.9 2.2,-2.2 4.4,-2.2 10.9,-2.2 h 37.2 c 8.8,0 13.1,4.4 13.1,10.9 z M 982.3,13.001709 c -8.8,8.8 -15.3,19.7 -15.3,32.8 V 266.80171 h 48.1 v -144.4 h 35 V 72.101709 h -35 v -10.9 c 0,-8.8 4.4,-13.1 15.3,-15.3 h 17.5 V 0.0017044 h -30.6 c -13.1,-0.1 -24,4.200005 -35,13.0000046 z m 207.9,59.1 h -65.6 c -30.6,0 -45.9,15.3 -45.9,45.900001 v 98.5 c 0,8.8 0,17.5 2.2,21.9 2.2,4.4 4.4,10.9 10.9,15.3 4.4,4.4 8.8,6.6 15.3,8.8 4.4,2.2 13.1,2.2 21.9,2.2 h 105 v -48.2 h -98.5 c -2.2,0 -4.4,-2.2 -6.6,-4.4 -2.2,-2.2 -2.2,-4.4 -2.2,-8.8 v -2.2 l 109.4,-41.6 v -39.4 c 0,-32.700001 -15.3,-48.000001 -45.9,-48.000001 z m -2.2,59.000001 -61.3,21.9 v -19.7 c 0,-4.4 2.2,-6.6 4.4,-8.8 2.2,-2.2 6.6,-4.4 10.9,-4.4 h 32.8 c 4.4,0 6.6,0 8.8,2.2 2.2,2.3 4.4,4.5 4.4,8.8 z m -722.7,492.5 c -5.6,0 -14,-5.6 -19.6,-8.4 -5.6,-5.6 -11.2,-11.2 -14,-19.6 -2.8,-8.4 -2.8,-16.8 -2.8,-25.2 v -117.6 c 0,-16.8 5.6,-30.8 14,-36.4 8.4,-5.6 22.4,-11.2 39.2,-11.2 h 92.4 v -14 h -95.2 c -11.2,0 -19.6,0 -25.2,2.8 -8.4,2.8 -16.8,8.4 -22.4,14 -5.6,5.6 -11.2,14 -14,22.4 -2.8,8.4 -2.8,16.8 -2.8,25.2 v 117.6 c 0,11.2 2.8,22.4 5.6,30.8 2.8,8.4 8.4,16.8 16.8,25.2 8.4,5.6 16.8,11.2 25.2,11.2 8.4,2.8 16.8,2.8 25.2,2.8 h 89.6 v -14 h -86.8 c -11.2,-2.8 -19.6,-5.6 -25.2,-5.6 z m 335.9,-226.8 c -2.8,-2.8 -8.4,-5.6 -14,-5.6 -8.4,-2.8 -19.6,-2.8 -30.8,-2.8 h -126 v 14 h 134.4 c 8.4,0 16.8,0 22.4,2.8 5.6,2.8 14,5.6 16.8,14 8.4,11.2 11.2,22.4 11.2,36.4 v 16.8 H 692 c -42,0 -64.4,22.4 -64.4,64.4 v 39.2 c 0,19.6 5.6,36.4 19.6,47.6 11.2,11.2 28,16.8 47.6,16.8 h 72.8 c 19.6,0 36.4,-5.6 47.6,-19.6 5.6,-8.4 11.2,-14 11.2,-22.4 0,-8.4 2.8,-16.8 2.8,-25.2 v -112 c 0,-19.6 -5.6,-36.4 -16.8,-50.4 -2.8,-5.6 -5.6,-11.2 -11.2,-14 z m 14,179.2 c 0,33.6 -16.8,47.6 -47.6,50.4 H 692 c -14,0 -25.2,-5.6 -36.4,-14 -5.6,-5.6 -11.2,-11.2 -11.2,-16.8 0,-5.6 0,-14 0,-19.6 v -39.2 c 0,-16.8 5.6,-28 14,-36.4 8.4,-8.4 19.6,-14 33.6,-14 h 123.2 z m 89.6,-114.8 v 179.2 h 14 v -179.2 c 0,-36.4 16.8,-56 50.4,-56 h 19.6 v -14 H 972 c -44.8,0 -70,22.4 -67.2,70 z m 313.5,-151.2 v 81.2 h -114.8 c -47.6,0 -72.8,22.4 -72.8,72.8 v 106.4 c 0,11.2 0,19.6 2.8,28 2.8,8.4 5.6,16.8 11.2,25.2 8.4,8.4 16.8,14 28,16.8 8.4,2.8 19.6,2.8 30.8,2.8 h 56 c 50.4,0 75.6,-22.4 75.6,-70 v -263.2 z m 0,260.4 c 0,19.6 -5.6,33.6 -19.6,42 -11.2,8.4 -28,14 -47.6,14 h -50.4 c -8.4,0 -16.8,0 -22.4,-2.8 -5.6,-2.8 -14,-2.8 -19.6,-8.4 -11.2,-5.6 -16.8,-19.6 -16.8,-39.2 v -114.8 c 0,-8.4 0,-16.8 2.8,-22.4 2.8,-5.6 5.6,-11.2 11.2,-19.6 5.6,-5.6 14,-11.2 19.6,-14 5.6,-2.8 14,-2.8 22.4,-2.8 h 117.6 z"/>
  <path style="fill:#e12730" id="path4" d="m 125.7,437.50171 c 6.6,-32.8 37.2,-56.9 72.2,-56.9 35,0 65.6,24.1 72.2,56.9 10.9,2.2 19.7,6.6 26.3,13.1 0,-6.6 0,-13.1 0,-17.5 -6.6,-50.3 -48.1,-89.7 -100.7,-89.7 -52.6,0 -94.1,41.6 -98.5,94.1 0,4.4 0,8.8 0,13.1 4.4,-4.4 8.8,-6.6 15.3,-8.8 4.4,-2.1 8.8,-4.3 13.2,-4.3 z m 126.9,10.9 h -116 c -6.6,0 -10.9,2.2 -17.5,4.4 -6.6,2.2 -10.9,4.4 -15.3,8.8 -6.6,8.8 -10.9,21.9 -10.9,39.4 v 91.9 c 0,17.5 4.4,28.4 10.9,37.2 4.4,4.4 8.8,6.6 15.3,8.8 6.6,2.2 10.9,4.4 17.5,4.4 h 118.2 c 30.6,0 45.9,-17.5 45.9,-50.3 v -94.1 c -2.2,-33 -17.5,-50.5 -48.1,-50.5 z"/>
</svg>
