<?xml version="1.0"?>
<svg xmlns="http://www.w3.org/2000/svg" id="&#x421;&#x43B;&#x43E;&#x439;_1" data-name="&#x421;&#x43B;&#x43E;&#x439; 1" viewBox="0 0 40 40" width="65" height="35"><defs><style>.cls-1{fill:#ee0005;}.cls-2{fill:#f9a000;}.cls-3{fill:#ff6300;}.cls-4{fill:#171614;}</style></defs><title>Mastercard</title><circle class="cls-1" cx="12.34" cy="15.99" r="12.34"/><circle class="cls-2" cx="27.66" cy="15.99" r="12.34"/><path class="cls-3" d="M15.33,16A12.31,12.31,0,0,0,20,25.66,12.34,12.34,0,0,0,20,6.32,12.31,12.31,0,0,0,15.33,16Z"/><path class="cls-4" d="M4.87,32a1.49,1.49,0,0,0-1.33.88A1.26,1.26,0,0,0,2.39,32a1.31,1.31,0,0,0-1.17.67v-.32c0-.18-.19-.3-.41-.3s-.46.12-.46.3V36c0,.21.25.3.46.3s.47-.09.47-.3V33.76a.84.84,0,0,1,.82-.92.85.85,0,0,1,.82.91V36c0,.21.25.3.46.3s.47-.09.47-.3V33.75a.85.85,0,0,1,.83-.91.85.85,0,0,1,.82.93v2.19c0,.15.22.31.46.31s.47-.16.47-.31V33.76A1.58,1.58,0,0,0,4.87,32Z"/><path class="cls-4" d="M8.67,32c-.6,0-1.33.25-1.33.56s.12.47.34.47.34-.26,1-.26a.86.86,0,0,1,.87,1v.16H9.13c-1.22,0-2.06.26-2.06,1.26a1.08,1.08,0,0,0,1.17,1.16,1.73,1.73,0,0,0,1.33-.69v.31c0,.17.18.31.42.31s.45-.14.45-.31V33.74A1.6,1.6,0,0,0,8.67,32Zm.85,2.71a1,1,0,0,1-.94.88A.52.52,0,0,1,8,35c0-.56.63-.63,1.29-.63h.22Z"/><path class="cls-4" d="M12.07,33.25c0-.22.19-.51.71-.51s.77.26,1,.26.35-.32.35-.45c0-.28-.66-.52-1.32-.52-1.11,0-1.51.66-1.51,1.27,0,1.46,2.12.92,2.12,1.84,0,.24-.17.48-.75.48-.76,0-.94-.41-1.17-.41s-.32.26-.32.41c0,.34.64.7,1.52.7s1.55-.48,1.55-1.22C14.21,33.52,12.07,34,12.07,33.25Z"/><path class="cls-4" d="M16.79,35.46h-.31c-.46,0-.62-.16-.62-.58V32.77h1.07c.16,0,.26-.17.26-.34s-.1-.34-.26-.34H15.86V30.47c0-.18-.24-.3-.47-.3s-.46.12-.46.3v4.41c0,1,.54,1.37,1.54,1.37h.31a.4.4,0,0,0,0-.79Z"/><path class="cls-4" d="M20.83,35.24c-.24,0-.45.34-1.07.34s-1.15-.37-1.15-1v-.2h1.86c.4,0,.8,0,.8-.76A1.67,1.67,0,0,0,19.52,32a1.79,1.79,0,0,0-1.83,1.71v.84a1.83,1.83,0,0,0,2,1.75c.89,0,1.46-.41,1.46-.67S21.05,35.24,20.83,35.24Zm-2.22-1.68a.9.9,0,0,1,1.79,0c0,.21-.07.26-.33.26H18.61v-.28Z"/><path class="cls-4" d="M24.29,32H24a1.31,1.31,0,0,0-1.12.74v-.39c0-.18-.19-.3-.42-.3s-.45.12-.45.3v3.57c0,.15.19.31.45.31s.48-.16.48-.31V34.14A1.18,1.18,0,0,1,24,32.85h.28a.41.41,0,0,0,0-.82Z"/><path class="cls-4" d="M27.88,35.22c-.2,0-.34.29-.93.29a.85.85,0,0,1-1-.93v-.79a.85.85,0,0,1,1-.93c.56,0,.72.27.91.27s.37-.27.37-.45S27.68,32,26.88,32a1.64,1.64,0,0,0-1.82,1.75v.79a1.63,1.63,0,0,0,1.83,1.75c.81,0,1.39-.36,1.39-.67A.44.44,0,0,0,27.88,35.22Z"/><path class="cls-4" d="M30.28,32c-.6,0-1.33.25-1.33.56s.12.47.34.47.34-.26,1-.26a.86.86,0,0,1,.87,1v.16h-.39c-1.22,0-2.06.26-2.06,1.26a1.08,1.08,0,0,0,1.17,1.16,1.73,1.73,0,0,0,1.33-.69v.31c0,.17.18.31.42.31s.45-.14.45-.31V33.74A1.6,1.6,0,0,0,30.28,32Zm.85,2.71a1,1,0,0,1-.94.88.52.52,0,0,1-.57-.57c0-.56.63-.63,1.29-.63h.22v.33Z"/><path class="cls-4" d="M35.27,32H35a1.3,1.3,0,0,0-1.12.74v-.39c0-.18-.19-.3-.42-.3s-.45.12-.45.3v3.57c0,.15.18.31.45.31s.48-.16.48-.31V34.14A1.18,1.18,0,0,1,35,32.85h.28a.41.41,0,0,0,0-.82Z"/><path class="cls-4" d="M39.2,29.6c-.26,0-.47.12-.47.3v2.8A1.31,1.31,0,0,0,37.59,32,1.67,1.67,0,0,0,36,33.76v.81a1.86,1.86,0,0,0,.58,1.33,1.13,1.13,0,0,0,1,.45,1.55,1.55,0,0,0,1.24-.69V36c0,.17.18.31.42.31s.45-.14.45-.31V29.9C39.66,29.72,39.46,29.6,39.2,29.6Zm-2.26,4.17a.94.94,0,0,1,.9-.92.9.9,0,0,1,.9.92v1a1,1,0,0,1-.91.73.94.94,0,0,1-.89-.93Zm1.64,1.52,0,0,.08-.1Z"/></svg>
