<?xml version="1.0"?>
<svg xmlns="http://www.w3.org/2000/svg" id="&#x421;&#x43B;&#x43E;&#x439;_1" data-name="&#x421;&#x43B;&#x43E;&#x439; 1" viewBox="0 0 40 40" width="110" height="60"><defs><style>.cls-1{fill:#ef5232;}.cls-2{fill:#59595a;}</style></defs><title>idebit</title><path id="_&#x421;&#x43E;&#x441;&#x442;&#x430;&#x432;&#x43D;&#x43E;&#x439;_&#x43A;&#x43E;&#x43D;&#x442;&#x443;&#x440;_" data-name="&lt;&#x421;&#x43E;&#x441;&#x442;&#x430;&#x432;&#x43D;&#x43E;&#x439; &#x43A;&#x43E;&#x43D;&#x442;&#x443;&#x440;&gt;" class="cls-1" d="M1.32,10.77a1.94,1.94,0,0,1,2.18.71A2,2,0,0,1,3,14.23a1.94,1.94,0,1,1-1.68-3.46Zm-.9,5.28H3.47q0,6.6,0,13.2H.42Q.41,22.65.42,16.05Z"/><path class="cls-2" d="M30.9,10.76a1.94,1.94,0,1,0,2.38,1.19A1.93,1.93,0,0,0,30.9,10.76Z"/><path class="cls-2" d="M7.28,11.58A7,7,0,0,0,5,11l.13.39a3.72,3.72,0,0,1-.2,2.88,2.37,2.37,0,0,1,1.21.4,2.29,2.29,0,0,1,.71,1.83q0,3.68,0,7.36a2.25,2.25,0,0,1-.57,1.69,2,2,0,0,1-1.35.34q0,1.67,0,3.35a7.43,7.43,0,0,0,1.87-.11A3.65,3.65,0,0,0,9,27.57a7.63,7.63,0,0,0,1.09-4.11q0-3.27,0-6.53a7.57,7.57,0,0,0-.54-3A4.56,4.56,0,0,0,7.28,11.58Z"/><path class="cls-2" d="M40,18.55q0-1.21,0-2.43H37.6q0-1.87,0-3.75h-3q0,6.3,0,12.6a4.6,4.6,0,0,0,1.11,3.2,3.45,3.45,0,0,0,2.5,1.08h.94c0-1,0-2.08,0-3.12a2,2,0,0,1-1-.36,1.89,1.89,0,0,1-.5-1.49c0-1.91,0-3.82,0-5.73Z"/><path class="cls-2" d="M29.93,29.25H33q0-6.6,0-13.2H29.93Q29.93,22.65,29.93,29.25Z"/><path class="cls-2" d="M15.28,15.42a4,4,0,0,0-2,.32A3.82,3.82,0,0,0,11.6,18a8,8,0,0,0-.42,2.57q0,2.23,0,4.45a5.06,5.06,0,0,0,.57,2.56,3.56,3.56,0,0,0,3.11,1.79,3.81,3.81,0,0,0,2.65-.59A4.62,4.62,0,0,0,19,25H16.14c-.06.44,0,.94-.41,1.22a1.1,1.1,0,0,1-1.57-.72,16.11,16.11,0,0,1,0-2.12H19c0-1.33,0-2.66,0-4a4.48,4.48,0,0,0-.29-1.79A3.68,3.68,0,0,0,15.28,15.42Zm.83,5.53H14.17a14,14,0,0,1,0-1.92.92.92,0,0,1,1.58-.4C16.25,19.22,16.08,20.24,16.11,20.95Z"/><path class="cls-2" d="M25.69,15.37a3.27,3.27,0,0,0-2.26.88c0-1.7,0-3.4,0-5.1H20.55q0,9,0,18.09h2.88q0-.46,0-.92a2.74,2.74,0,0,0,1.7,1,3.1,3.1,0,0,0,2-.37,3.45,3.45,0,0,0,1.24-2.72c0-2.27,0-4.54,0-6.81a5.39,5.39,0,0,0-.59-2.68A2.61,2.61,0,0,0,25.69,15.37Zm-.2,9.47a4,4,0,0,1-.05.83,1,1,0,0,1-1.24.65,1,1,0,0,1-.66-1.07c0-1.9,0-3.8,0-5.7a1.05,1.05,0,0,1,.66-1.07,1,1,0,0,1,1.27.79c.05.51,0,1,0,1.53C25.49,22.15,25.48,23.5,25.49,24.84Z"/></svg>
