<?xml version="1.0"?>
<svg xmlns="http://www.w3.org/2000/svg" viewBox="0 0 783 376" width="65" height="35"><defs><style>.cls-1{fill:#9e1f26;}.cls-2{fill:#0055a5;}.cls-3{fill:#fff;}</style></defs><g id="&#x421;&#x43B;&#x43E;&#x439;_2" data-name="&#x421;&#x43B;&#x43E;&#x439; 2"><g id="&#x421;&#x43B;&#x43E;&#x439;_1-2" data-name="&#x421;&#x43B;&#x43E;&#x439; 1"><rect class="cls-1" y="274" width="783" height="102"/><rect class="cls-2" width="783" height="274"/><path class="cls-3" d="M30.45,21h24.3V126H30.45ZM185,21V126H165L112.67,62.25V126h-24V21h20.1L161,84.75V21Zm68.34,106.8a88.54,88.54,0,0,1-24.15-3.3q-11.55-3.45-18.6-8.85l8.25-18.3a56,56,0,0,0,16.05,8,60.29,60.29,0,0,0,18.6,3q10.35,0,15.3-3t4.95-8.25a7.53,7.53,0,0,0-3-6.15,20.56,20.56,0,0,0-7.5-4.05q-4.5-1.5-12.3-3.3a171.07,171.07,0,0,1-19.65-5.7,32.49,32.49,0,0,1-13.2-9.15q-5.4-6.3-5.4-16.8a28.87,28.87,0,0,1,5-16.5q4.95-7.5,14.85-11.85t24.45-4.35a80.71,80.71,0,0,1,19.65,2.4,58,58,0,0,1,16.8,6.9L285.86,47q-14.55-8.25-29.1-8.25-10.2,0-15.15,3.3a10.11,10.11,0,0,0-4.8,8.7q0,5.4,5.55,8.1t17.25,5.1a171.07,171.07,0,0,1,19.65,5.7,32,32,0,0,1,13.05,9q5.55,6.15,5.55,16.65a28.72,28.72,0,0,1-5.1,16.5q-5,7.35-15,11.7T253.31,127.8Zm90.44-87h-33.6V21h91.5V40.8h-33.6V126h-24.3ZM487.6,103.5H438.85l-9.3,22.5h-24.9l46.8-105h24L522.4,126H496.9ZM480,85.05,463.3,44.85l-16.65,40.2ZM638.6,21V126h-20L566.3,62.25V126h-24V21h20.1l52.2,63.75V21Zm55.59,19.8h-33.6V21h91.5V40.8h-33.6V126h-24.3Z"/><path class="cls-3" d="M82.7,323.6a18.37,18.37,0,0,1,9.4,6.4,17.27,17.27,0,0,1,3.4,10.9q0,9.19-7.2,14.2T67.5,360H31.3V290H65.5q12.8,0,19.6,4.9A15.48,15.48,0,0,1,92,308.2a17.06,17.06,0,0,1-9.3,15.4ZM47.4,302.2v16.5H63.5q6,0,9.1-2.1a7,7,0,0,0,3.1-6.2,6.75,6.75,0,0,0-3.1-6.1q-3.1-2.1-9.1-2.1Zm18.9,45.6q6.4,0,9.6-2.1a7.16,7.16,0,0,0,3.3-6.5q0-8.7-12.9-8.7H47.4v17.3Zm85.6-12.6V360H135.7V335l-27.1-45h17.2l18.7,31.1L163.2,290h15.9Zm119.8,26a40.83,40.83,0,0,1-19.4-4.6,35.6,35.6,0,0,1-13.6-12.9,36.05,36.05,0,0,1-4.9-18.7,35.54,35.54,0,0,1,4.9-18.6,34.73,34.73,0,0,1,13.6-12.9,43.17,43.17,0,0,1,35.9-1.5,32.83,32.83,0,0,1,12.4,9.2l-10.4,9.6a22.36,22.36,0,0,0-17.6-8.2,23.09,23.09,0,0,0-11.6,2.9,20.26,20.26,0,0,0-8,7.9,25.43,25.43,0,0,0,0,23.2,20.91,20.91,0,0,0,8,8,23.68,23.68,0,0,0,11.6,2.8,22.27,22.27,0,0,0,17.6-8.3l10.4,9.6a32.35,32.35,0,0,1-12.4,9.3A41.19,41.19,0,0,1,271.7,361.2ZM323.54,290h16.2v70h-16.2Zm59.31,13.2h-22.4V290h61v13.2h-22.4V360h-16.2ZM484.75,345h-32.5l-6.2,15h-16.6l31.2-70h16L508,360H491Zm-5.1-12.3-11.1-26.8-11.1,26.8ZM527.21,290H559a44,44,0,0,1,20.1,4.4,31.83,31.83,0,0,1,13.6,12.2,37,37,0,0,1,0,36.8,32.44,32.44,0,0,1-13.6,12.3A44.76,44.76,0,0,1,559,360h-31.8Zm31,56.7q10.5,0,16.7-5.8t6.3-15.9q0-10-6.3-15.8t-16.7-5.9h-14.8v43.4ZM676,347v13h-54.2V290h52.9v13h-36.8v15.2h32.5v12.6h-32.5V347Zm24.89-57h16.2v56.8h35.1V360h-51.3Z"/><path class="cls-3" d="M103.58,204a25.64,25.64,0,0,1,13.16,9q4.76,6.17,4.76,15.26,0,12.88-10.08,19.88T82.3,255H31.62V157H79.5q17.93,0,27.44,6.86a21.66,21.66,0,0,1,9.66,18.62,23.88,23.88,0,0,1-13,21.56Zm-49.42-30v23.1H76.7q8.4,0,12.74-2.94a9.81,9.81,0,0,0,4.34-8.68q0-5.75-4.34-8.54T76.7,174.08Zm26.46,63.84q9,0,13.44-2.94t4.62-9.1q0-12.18-18.06-12.18H54.16v24.22ZM210.21,234h-45.5L156,255H132.79l43.68-98h22.4l43.82,98h-23.8Zm-7.14-17.22-15.54-37.52L172,216.78ZM349.74,157v98H331.12l-48.86-59.5V255h-22.4V157h18.76l48.72,59.5V157Zm65.89,59.5-13.17,13.72V255H379.92V157h22.54v45.78L445.86,157h25.21l-40.61,43.68,43,54.32H447ZM490.56,157h22.68v98H490.56Zm142.82,0v98H614.76L565.9,195.5V255H543.49V157h18.77L611,216.5V157Zm96.4,47.46H750.5v39.76A59.34,59.34,0,0,1,732,253.46a71.65,71.65,0,0,1-21.14,3.22,57.84,57.84,0,0,1-27.44-6.44,49.71,49.71,0,0,1-19.18-18.06A50.55,50.55,0,0,1,657.4,206a49.79,49.79,0,0,1,6.86-26,48.07,48.07,0,0,1,19.32-18.06,57.85,57.85,0,0,1,27.72-6.58,60.71,60.71,0,0,1,23.38,4.34,46.26,46.26,0,0,1,17.64,12.6L737.76,185.7a33.68,33.68,0,0,0-25.34-11.06,34.62,34.62,0,0,0-16.66,3.92,28.14,28.14,0,0,0-11.34,11.06,34.79,34.79,0,0,0,0,32.62,29.39,29.39,0,0,0,11.2,11.2,34.32,34.32,0,0,0,16.52,3.92,36.78,36.78,0,0,0,17.64-4.2Z"/></g></g></svg>
