<?xml version="1.0"?>
<svg xmlns="http://www.w3.org/2000/svg" width="60" height="40" viewBox="0 0 8000 1700">

 <g>
  <title>Layer 1</title>
  <g id="svg_126">
   <g id="svg_1" fill="rgb(10,10,9)">
    <g id="svg_2">
     <path id="svg_3" d="m3008,1640c-31,-32 -71,-66 -90,-76c-18,-9 -47,-27 -64,-40c-16,-13 -55,-34 -85,-48c-29,-13 -63,-33 -73,-45c-25,-28 -61,-27 -98,4c-16,13 -46,29 -66,34c-31,9 -991,8 -1112,-1c-19,-1 -313,1 -653,5c-692,8 -647,13 -711,-66c-34,-41 -36,-49 -36,-114c0,-51 4,-74 15,-83c8,-7 15,-18 15,-26c0,-7 16,-26 35,-41l35,-28l0,-271l0,-270l-35,-34c-19,-19 -35,-42 -35,-52c0,-9 -9,-25 -20,-36c-16,-15 -19,-29 -17,-83l2,-64l54,-48l55,-48l200,1c194,1 203,2 256,27c30,14 69,36 86,49c41,32 82,32 94,0c5,-13 24,-36 43,-50l35,-27l308,1c279,0 478,0 984,-1c90,0 174,-2 187,-5c12,-3 39,0 60,7c21,7 45,13 53,13c8,1 17,11 20,23c3,12 21,32 40,45c33,22 87,112 90,148c0,8 9,33 20,55c11,22 19,52 20,66c0,31 15,39 71,39c45,0 47,7 18,67c-34,71 -13,122 26,60c13,-21 30,-33 48,-35c25,-3 27,-1 27,31c0,21 6,37 14,40c20,8 26,-2 26,-45l0,-38l43,0c23,1 53,7 67,15c33,19 157,19 190,0c14,-8 47,-14 74,-15c46,0 48,1 42,23c-13,40 -11,51 6,55c12,2 17,-5 20,-30c4,-45 46,-52 77,-12c29,36 38,23 21,-29c-12,-34 -24,-46 -63,-66c-46,-23 -51,-23 -165,-13c-124,11 -185,5 -227,-22c-32,-21 -32,-39 1,-65c30,-24 54,-27 72,-9c9,9 20,2 47,-26c26,-28 41,-37 56,-33c14,4 31,-4 51,-24c36,-34 78,-39 78,-10c0,44 10,51 71,51c50,0 59,-3 59,-18c0,-10 -5,-23 -11,-29c-7,-7 -9,-22 -4,-40c5,-15 7,-37 6,-48c-4,-30 51,-185 66,-185c7,0 13,6 13,13c0,8 8,21 18,30c19,17 32,17 1250,17c497,0 587,2 618,15c48,20 66,19 109,-6c25,-15 52,-21 93,-21c61,0 253,10 312,15c19,2 46,1 60,-3c14,-4 93,-4 175,0c141,6 154,8 210,37c33,17 88,59 122,93c70,70 98,76 122,25c32,-68 115,-138 194,-164c62,-21 149,-5 215,40c67,46 81,47 112,14l23,-25l201,0c111,0 207,4 215,9c8,5 25,2 45,-7c21,-11 53,-16 101,-14c39,1 114,-3 169,-8c84,-9 103,-8 132,6c19,9 34,21 35,28c4,39 -6,1182 -10,1207c-4,22 -116,29 -463,29l-373,0l-47,-25c-60,-32 -81,-31 -161,5c-109,49 -207,38 -302,-34c-18,-13 -18,-16 -5,-30c11,-11 47,-17 125,-22c139,-9 172,-24 224,-104c47,-72 68,-154 81,-308c22,-267 -35,-539 -127,-612c-52,-41 -90,-51 -141,-38c-55,14 -123,77 -143,132c-7,20 -20,36 -29,36c-8,0 -28,16 -43,35c-27,34 -29,44 -34,153c-6,114 -7,255 -3,439c1,88 3,94 36,137c87,114 64,176 -28,74l-48,-53l-57,62c-32,34 -84,76 -115,93c-76,41 -202,63 -329,58c-88,-3 -99,-6 -147,-37l-52,-33l-40,27c-51,35 -105,54 -157,55c-61,0 -167,-37 -200,-71c-36,-36 -52,-36 -88,1c-39,40 -119,64 -188,55c-29,-3 -74,-6 -102,-6c-27,0 -378,0 -779,0c-620,0 -733,-2 -757,-14c-38,-20 -48,-19 -89,9c-19,13 -46,27 -59,31c-22,7 -113,61 -169,101c-13,9 -28,28 -35,42c-12,30 -37,62 -46,62c-3,-1 -32,-27 -63,-60zm2668,-290c39,-25 84,-85 84,-114c0,-26 22,-88 37,-103c20,-22 35,-114 31,-198l-3,-80l-115,-8c-134,-9 -139,-6 -141,70c-2,59 12,83 49,83l25,0l-8,92c-4,51 -11,101 -16,110c-14,26 -65,24 -79,-3c-7,-11 -15,-84 -20,-162c-5,-87 -12,-143 -19,-145c-23,-8 -6,-352 18,-360c6,-2 11,-13 11,-23c0,-50 36,-72 80,-49c19,10 40,85 40,144c0,54 17,67 70,54c25,-6 51,-18 58,-26c17,-22 17,-283 0,-300c-15,-15 -79,-15 -113,0c-22,10 -32,8 -65,-11c-50,-28 -87,-22 -136,21c-38,34 -55,66 -80,153c-9,33 -20,62 -23,65c-10,7 -31,106 -31,146c0,19 5,34 10,34c6,0 10,40 10,100c0,68 -4,100 -11,100c-17,0 -3,157 20,230c34,107 109,191 187,208c45,10 80,2 130,-28zm-3755,10c15,-9 19,-22 19,-65c0,-30 -4,-55 -10,-55c-5,0 -10,-13 -10,-30c0,-16 5,-30 10,-30c15,0 12,-113 -3,-134c-10,-14 -25,-17 -72,-14l-60,3l-3,93l-3,93l-52,-3c-45,-3 -52,-6 -55,-25c-2,-13 -8,-23 -13,-23c-5,0 -9,-53 -9,-120c0,-66 4,-120 9,-120c5,0 11,-9 14,-20c4,-16 14,-20 44,-20c52,0 63,-14 63,-82c0,-62 3,-59 -65,-62l-30,-1l-3,-93c-1,-50 -7,-92 -12,-92c-6,0 -10,-9 -10,-20c0,-11 4,-20 9,-20c5,0 11,-12 13,-27c3,-26 6,-28 48,-28c42,0 45,2 48,27c2,16 8,28 13,28c5,0 9,11 9,25c0,14 -5,25 -11,25c-6,0 -9,12 -7,27c4,34 39,49 92,39c25,-5 40,-14 45,-29c5,-12 5,-23 0,-25c-13,-5 -11,-222 1,-222c15,0 12,-16 -6,-34c-13,-14 -49,-16 -238,-16c-167,0 -226,3 -233,13c-5,6 -9,39 -8,72c0,59 0,60 27,57c14,-1 30,3 34,10c5,7 9,89 9,181c0,118 3,170 12,175c14,9 10,149 -5,178c-5,11 -9,63 -7,117c1,64 -2,100 -9,102c-6,2 -23,6 -37,9c-25,5 -26,9 -25,68l1,63l65,6c117,10 390,9 411,-1zm605,-15c7,-28 -20,-110 -43,-133c-15,-16 -18,-72 -3,-72c15,0 12,-56 -4,-69c-22,-19 -19,-102 5,-124c31,-29 18,-42 -42,-42c-48,0 -54,2 -57,23c-2,12 1,22 7,22c7,0 11,40 11,115c0,70 -4,115 -10,115c-5,0 -10,9 -10,20c0,18 -7,20 -55,20c-52,0 -55,-1 -55,-25c0,-14 -4,-25 -10,-25c-6,0 -10,-117 -10,-330c0,-213 4,-330 10,-330c6,0 10,-11 10,-25c0,-19 5,-25 21,-25c32,0 59,-19 59,-40c0,-11 -4,-20 -10,-20c-5,0 -10,-7 -10,-15c0,-8 5,-15 10,-15c15,0 12,-36 -4,-49c-9,-8 -60,-11 -157,-9c-141,3 -144,4 -147,25c-2,13 1,23 7,23c6,0 11,9 11,20c0,11 -4,20 -10,20c-5,0 -10,11 -10,25c0,19 5,25 23,25c43,0 45,7 49,209c2,144 6,195 16,199c15,5 18,302 2,302c-5,0 -10,11 -10,25c0,26 -4,29 -52,39c-27,6 -28,9 -28,66c0,46 4,61 18,69c10,6 109,11 244,11l228,0l6,-25zm1252,-42c3,-54 0,-64 -18,-75c-11,-7 -20,-23 -20,-35c0,-13 -4,-23 -10,-23c-14,0 -13,-118 2,-197c10,-54 15,-63 30,-61c15,2 29,31 60,123c22,66 44,124 49,130c17,17 10,52 -13,62c-21,9 -23,16 -20,71l4,61l130,3c71,2 135,0 140,-3c11,-7 19,-94 10,-116c-2,-7 -16,-13 -31,-13c-37,0 -47,-9 -66,-60c-9,-25 -29,-81 -45,-125c-16,-44 -40,-111 -54,-148c-14,-37 -26,-82 -26,-99c0,-34 115,-329 133,-340c7,-4 22,-8 33,-8c12,0 25,-7 28,-16c8,-22 7,-87 -2,-101c-21,-33 -117,-47 -287,-40c-16,0 -34,-1 -40,-2c-5,-2 -27,-3 -48,-2c-31,1 -40,6 -44,22c-6,20 -10,21 -62,15c-102,-13 -111,-9 -111,56c0,49 8,68 30,68c47,0 50,7 50,107c0,86 -2,95 -20,100c-11,3 -20,6 -20,8c0,1 9,29 20,63c13,40 17,68 12,83c-6,16 0,39 25,90c34,70 45,153 22,176c-6,6 -11,45 -12,88c-2,64 -5,80 -22,93c-22,18 -65,87 -65,103c0,6 50,9 128,7l127,-3l3,-62zm2457,38c49,-22 115,-85 115,-110c0,-10 8,-29 19,-42c62,-80 87,-320 55,-522c-25,-155 -81,-263 -152,-293c-19,-8 -41,-22 -48,-32c-11,-15 -29,-17 -151,-14c-76,2 -142,7 -146,11c-5,5 -7,28 -5,52c3,38 6,44 28,47c34,5 50,20 50,47c0,13 -6,25 -12,27c-10,4 -13,85 -15,354l-1,349l-29,3c-15,2 -31,9 -35,15c-13,20 -9,104 5,115c31,26 259,21 322,-7zm-5787,7c13,-13 16,-86 4,-105c-4,-6 -21,-13 -37,-15l-30,-3l0,-170c0,-143 2,-170 15,-172c8,-2 21,1 28,5c10,7 50,146 109,387c8,33 19,66 25,73c8,9 36,12 97,10l86,-3l3,-39c5,-61 -4,-82 -40,-92c-32,-10 -34,-12 -69,-144c-20,-74 -42,-148 -48,-163c-17,-45 -13,-67 20,-105c136,-154 92,-381 -91,-472c-39,-20 -65,-23 -202,-28c-183,-6 -188,-4 -188,67c0,59 7,69 50,73l35,3l3,383l2,382l-26,0c-49,0 -64,16 -64,68c0,27 5,53 12,60c8,8 57,12 153,12c96,0 145,-4 153,-12zm888,0c5,-7 7,-80 4,-163l-5,-150l-48,-3c-70,-5 -77,5 -77,103c0,92 -2,95 -70,95c-20,0 -42,-6 -47,-12c-6,-10 -10,-268 -4,-320c1,-5 16,-8 35,-8c60,0 66,-6 66,-70c0,-64 -6,-70 -66,-70l-34,0l0,-144c0,-158 -1,-156 65,-156c48,0 58,18 54,102l-4,73l64,3c45,2 67,-1 72,-10c5,-7 9,-74 9,-149c0,-104 -3,-139 -14,-148c-9,-8 -83,-11 -247,-9l-234,3l-3,27c-2,16 1,28 7,28c6,0 11,7 11,15c0,8 -5,15 -11,15c-6,0 -9,10 -7,22c2,16 11,24 30,26c14,2 31,9 37,16c8,9 10,128 9,381l-3,367l-35,12c-33,10 -35,14 -38,60c-2,27 -1,55 2,62c7,19 469,21 482,2zm1850,-21c47,-25 144,-117 144,-137c0,-10 -7,-21 -16,-24c-12,-5 -15,-15 -11,-39c6,-42 -12,-84 -57,-126c-38,-37 -44,-59 -24,-91c16,-26 -5,-65 -56,-102c-50,-36 -71,-36 -85,2c-5,17 -17,30 -25,30c-9,0 -22,-13 -31,-30c-20,-39 -42,-38 -97,5c-33,26 -47,45 -51,68c-3,20 -20,48 -41,69c-20,20 -36,46 -36,58c0,12 -9,34 -21,48c-17,22 -19,35 -14,72c9,58 25,87 72,131c54,52 118,82 188,89c71,6 118,-1 161,-23zm1343,19c7,-8 11,-36 9,-63c-3,-47 -4,-48 -38,-53l-35,-5l-3,-365c-1,-201 0,-374 2,-385c3,-13 18,-24 38,-30c30,-9 33,-14 36,-51c5,-68 -8,-74 -157,-74c-85,0 -131,4 -139,12c-16,16 -15,93 1,106c6,5 23,12 37,14l25,3l3,382l2,383l-27,6c-16,3 -34,7 -40,10c-17,5 -17,96 -1,112c18,18 272,17 287,-2zm681,-16c0,-16 -4,-30 -10,-30c-14,0 -12,-28 3,-32c9,-4 13,-96 15,-406l3,-401l29,-6c26,-6 51,-35 30,-35c-14,0 -13,-57 1,-62c7,-2 4,-12 -8,-26c-17,-22 -24,-23 -143,-20c-121,3 -125,4 -128,25c-2,13 1,23 7,23c6,0 11,9 11,20c0,11 -5,20 -11,20c-6,0 -9,12 -7,27c2,19 10,29 28,33c25,6 25,7 28,128c2,100 0,122 -12,122c-9,0 -19,-19 -26,-50c-7,-28 -23,-81 -37,-118c-13,-37 -35,-98 -48,-136c-14,-38 -30,-75 -36,-82c-15,-18 -219,-20 -237,-2c-15,15 -16,82 -1,110c9,16 17,19 45,13l34,-6l0,389c0,412 0,412 -48,412c-22,0 -23,3 -20,53l3,52l119,3c66,1 123,-1 127,-5c4,-4 9,-33 11,-63c3,-53 2,-55 -27,-60c-20,-3 -31,-13 -36,-30c-9,-32 -11,-289 -3,-357c7,-58 29,-72 40,-25c4,15 12,32 19,37c18,14 38,91 30,115c-3,11 14,76 40,152c26,73 54,156 62,183c8,28 20,53 27,57c6,4 37,8 69,8c57,0 57,0 57,-30zm2195,-35c0,-58 -1,-60 -27,-63c-50,-6 -53,-19 -56,-239c-2,-140 0,-203 7,-203c7,0 11,-22 11,-55c0,-42 3,-55 15,-55c9,0 15,9 15,21c0,12 9,47 20,78c10,31 31,128 45,216c14,88 30,179 35,203c6,23 10,58 10,76c0,46 16,86 34,86c19,0 38,-34 30,-53c-3,-8 2,-31 10,-52c9,-21 16,-48 16,-60c0,-13 6,-25 13,-28c8,-3 20,-26 27,-51c7,-25 18,-46 25,-46c12,0 35,62 35,93c0,8 5,17 11,19c7,2 9,13 5,26c-6,17 -14,21 -43,19l-37,-2l3,55c1,30 8,59 15,65c7,6 69,11 138,13c145,4 151,1 146,-75c-3,-48 -3,-48 -43,-53l-40,-5l-3,-112c-2,-73 1,-113 8,-113c6,0 10,-49 10,-135c0,-83 -4,-135 -10,-135c-6,0 -10,-42 -10,-105c0,-63 4,-105 10,-105c6,0 10,-11 10,-24c0,-26 15,-42 45,-48c21,-3 35,-48 16,-48c-6,0 -11,-7 -11,-15c0,-8 5,-15 10,-15c16,0 11,-47 -6,-54c-9,-3 -75,-6 -149,-6c-96,0 -135,4 -143,13c-14,16 -38,139 -47,232c-9,99 -14,115 -36,115c-10,0 -19,-3 -20,-7c-10,-124 -41,-322 -53,-341c-10,-17 -297,-17 -314,0c-16,16 -16,117 1,122c6,3 24,7 40,10l27,6l0,380l0,380l-28,0c-15,0 -33,5 -40,12c-13,13 -17,110 -5,122c4,3 68,5 142,4l136,-3l0,-60zm-4860,-513c0,-47 6,-75 18,-94c26,-38 4,-46 -38,-13c-32,24 -35,31 -35,76c0,50 13,87 34,101c17,11 21,0 21,-70z"/>
     <path id="svg_4" d="m6777,1218c-23,-17 -36,-99 -43,-273c-8,-172 10,-440 32,-473c21,-32 64,-27 82,11c34,70 38,618 5,697c-20,50 -44,61 -76,38z"/>
    </g>
   </g>
   <g id="svg_5" fill="rgb(240,240,240)">
    <g id="svg_6">
     <path id="svg_7" d="m1628,1473c56,-2 148,-2 205,0c56,1 10,3 -103,3c-113,0 -159,-2 -102,-3z"/>
     <path id="svg_8" d="m2173,1473c65,-2 168,-2 230,0c62,1 9,3 -118,3c-126,0 -177,-2 -112,-3z"/>
     <path id="svg_9" d="m4647,1473c-3,-5 34,-7 81,-5c153,4 170,8 45,10c-67,1 -124,-1 -126,-5z"/>
     <path id="svg_10" d="m7307,1473c105,-2 281,-2 390,0c109,1 23,2 -192,2c-214,0 -304,-1 -198,-2z"/>
     <path id="svg_11" d="m5494,1364c-80,-39 -135,-132 -149,-251c-11,-100 -13,-456 -3,-503c17,-76 49,-183 64,-216c20,-45 77,-92 121,-100c29,-5 46,-2 76,14c29,16 44,19 57,12c26,-14 114,-12 128,2c18,18 17,298 -1,322c-10,14 -28,19 -73,20l-59,1l-2,-35c-5,-71 -26,-140 -50,-161l-23,-22l-23,21c-40,38 -52,123 -50,362c2,299 20,390 74,390c28,0 48,-39 61,-122c13,-86 5,-108 -38,-108c-27,0 -35,-21 -31,-90l2,-45l119,-3c66,-1 123,1 126,5c10,11 -4,266 -16,283c-14,24 -33,83 -29,91c11,17 -62,105 -105,127c-52,26 -130,29 -176,6z"/>
     <path id="svg_12" d="m6705,1366c-65,-28 -122,-145 -146,-296c-25,-162 1,-574 39,-599c4,-3 15,-22 22,-41c38,-92 158,-159 233,-129c89,35 133,96 166,230c45,181 47,456 5,625c-22,87 -81,177 -133,204c-47,23 -139,27 -186,6zm133,-163c32,-47 34,-62 37,-278c3,-170 0,-231 -15,-324c-11,-62 -25,-119 -31,-127c-30,-36 -63,1 -84,93c-16,70 -13,538 4,592c12,38 38,71 57,71c7,0 21,-12 32,-27z"/>
     <path id="svg_13" d="m10,1295c0,-43 4,-75 10,-75c6,0 10,32 10,75c0,43 -4,75 -10,75c-6,0 -10,-32 -10,-75z"/>
     <path id="svg_14" d="m550,1335c-6,-15 -10,-32 -10,-39c0,-6 -4,-16 -9,-21c-8,-10 -72,-242 -87,-315c-9,-49 -23,-72 -41,-68c-13,3 -16,27 -16,168l-1,165l32,3c35,4 42,19 39,82l-2,35l-158,3l-158,3l3,-58c3,-56 4,-58 33,-61c56,-7 55,2 54,-346c-1,-176 -4,-346 -7,-376c-7,-55 -7,-55 -45,-58l-37,-3l0,-66l0,-65l183,4c156,4 188,8 228,25c78,36 149,145 149,231c0,90 -47,204 -106,256l-24,21l30,100c74,238 83,260 113,263c36,4 51,40 40,96l-9,41l-92,3c-91,3 -92,2 -102,-23zm-91,-604c45,-23 63,-61 63,-129c0,-62 -21,-103 -65,-127c-59,-32 -67,-16 -67,135c0,69 3,130 7,133c10,11 21,8 62,-12z"/>
     <path id="svg_15" d="m1435,1348c-2,-7 -3,-38 -2,-68c2,-53 3,-55 32,-58c17,-2 35,-8 40,-13c6,-6 11,-67 12,-137c1,-70 4,-153 5,-185c2,-32 0,-61 -4,-63c-4,-2 -6,-81 -5,-175c1,-94 0,-174 -3,-179c-3,-5 -21,-10 -40,-12l-35,-3l-1,-55c-3,-99 -26,-91 253,-88l246,3l0,151c0,83 -3,156 -7,162c-9,14 -90,16 -116,2c-15,-8 -18,-22 -18,-79c1,-37 -2,-74 -6,-80c-4,-6 -27,-11 -52,-11c-43,0 -44,1 -45,33c0,17 -2,74 -5,124c-6,114 1,131 59,135l42,3l0,65l0,65l-42,6c-24,3 -44,7 -45,10c-24,37 -28,61 -28,146c0,54 5,115 11,136c10,38 11,38 57,35l47,-3l9,-91l9,-92l58,0c45,0 61,4 68,17c4,9 7,81 7,161l-1,145l-248,3c-193,2 -248,0 -252,-10z"/>
     <path id="svg_16" d="m2037,1353c-4,-3 -7,-35 -7,-70c0,-63 0,-63 29,-63c56,0 56,-1 53,-379c-2,-190 -8,-353 -13,-362c-5,-10 -21,-19 -36,-21c-27,-3 -28,-4 -30,-76l-2,-73l157,3l157,3l0,70l0,70l-35,5c-31,4 -35,9 -43,45c-4,22 -7,188 -5,368c3,362 1,350 68,345c54,-4 62,-29 57,-184l-4,-132l49,-6c27,-4 53,-4 58,-1c15,9 12,62 -4,68c-8,3 -14,20 -14,42c0,20 -3,39 -6,42c-3,4 1,17 10,31c12,18 14,36 10,65c-5,26 -2,47 7,61c18,28 41,122 33,141c-4,13 -42,15 -244,15c-131,0 -242,-3 -245,-7z"/>
     <path id="svg_17" d="m3520,1347c0,-16 41,-77 51,-77c16,0 39,-66 39,-111c0,-22 7,-54 17,-69c14,-24 15,-36 5,-84c-6,-31 -24,-81 -38,-111c-25,-51 -27,-59 -15,-91c10,-28 10,-62 2,-157c-5,-67 -9,-135 -8,-152c2,-26 -2,-30 -25,-33c-40,-5 -47,-20 -41,-91l6,-63l74,6c51,5 73,4 68,-4c-4,-6 16,-10 58,-10c75,0 77,2 77,90c0,49 -3,61 -20,70c-18,10 -20,19 -18,108c2,53 -1,124 -5,157c-12,82 9,61 28,-27c16,-78 65,-198 81,-198c25,0 25,-34 0,-54c-22,-19 -24,-26 -19,-75l6,-54l114,6c63,3 116,7 118,9c1,2 5,27 9,56c7,51 6,52 -18,52c-33,0 -44,19 -94,155c-76,210 -75,197 -19,342c19,48 47,129 62,178c31,103 38,115 71,115c31,0 34,9 28,67l-6,49l-129,2l-129,3l0,-33c0,-18 -3,-43 -6,-55c-5,-18 -1,-25 20,-33c26,-10 26,-10 10,-47c-8,-21 -22,-58 -31,-82c-8,-25 -25,-68 -38,-95c-12,-28 -28,-70 -35,-93c-27,-88 -33,-53 -34,194c0,82 2,95 22,116c29,31 32,122 5,131c-30,10 -243,3 -243,-7z"/>
     <path id="svg_18" d="m4667,1353c-4,-3 -7,-33 -7,-65c0,-54 1,-58 24,-58c13,0 28,-6 34,-13c8,-9 11,-135 12,-388l0,-376l-28,5c-41,6 -51,-13 -45,-86l6,-62l111,0c61,0 116,4 122,8c17,10 100,265 149,456c10,37 21,62 24,55c3,-8 4,-90 1,-183c-4,-137 -8,-170 -20,-176c-47,-22 -55,-29 -58,-54c-2,-14 1,-26 6,-26c6,0 8,-17 5,-40l-6,-41l144,3l144,3l0,69l0,70l-33,8c-18,5 -35,14 -37,21c-3,7 -6,206 -7,442l-3,430l-65,0l-64,0l-13,-35c-81,-228 -123,-356 -119,-366c6,-15 -14,-94 -24,-94c-8,0 -11,-13 -28,-103c-11,-57 -30,-83 -25,-35c1,18 3,121 3,228c1,238 5,263 45,270c29,6 30,7 27,60c-1,30 -4,61 -7,68c-3,9 -39,12 -133,12c-71,0 -132,-3 -135,-7z"/>
     <path id="svg_19" d="m5910,1296c0,-66 0,-67 30,-73c17,-3 33,-10 36,-15c9,-14 6,-740 -3,-749c-4,-4 -19,-9 -33,-11c-23,-3 -25,-8 -28,-57c-2,-30 1,-58 5,-62c5,-5 75,-10 157,-11c129,-2 150,0 161,15c6,9 28,23 47,31c122,51 192,328 158,625c-10,91 -34,176 -57,202c-7,9 -16,27 -18,39c-6,32 -37,63 -97,95c-49,27 -61,29 -205,33l-153,5l0,-67zm293,-114c15,-15 33,-53 42,-87c22,-80 29,-315 14,-430c-12,-93 -27,-134 -62,-173c-46,-50 -47,-47 -47,341c0,200 3,367 7,370c11,11 18,8 46,-21z"/>
     <path id="svg_20" d="m7124,1346c-3,-7 -4,-35 -2,-62c3,-45 5,-49 34,-55c59,-12 56,8 53,-373c-2,-193 -6,-361 -10,-372c-5,-14 -19,-24 -43,-28l-36,-7l0,-57c0,-32 5,-63 12,-70c8,-8 59,-12 165,-12c150,0 153,0 157,23c45,233 54,290 55,366c1,79 22,52 27,-36c5,-75 30,-247 45,-305c12,-48 20,-49 189,-46l135,3l2,67l3,68l-33,8c-44,11 -45,25 -44,422c2,262 5,334 15,332c6,-1 12,2 12,7c0,5 10,11 23,13c20,3 22,8 19,53c-2,27 -4,51 -6,52c-6,6 -111,5 -178,-2l-78,-8l0,-38c0,-32 4,-39 19,-39c24,0 37,-36 21,-55c-8,-10 -11,-93 -8,-299c2,-156 0,-279 -3,-273c-3,7 -11,57 -18,112c-12,94 -18,132 -41,258c-5,28 -12,75 -16,102c-3,28 -12,73 -19,100c-8,28 -17,72 -20,99c-8,62 -10,66 -44,66c-31,0 -41,-18 -41,-77c0,-18 -4,-52 -10,-75c-10,-44 -61,-334 -86,-493c-17,-112 -25,-148 -30,-143c-8,9 -15,566 -7,603c7,32 14,41 33,43c14,2 30,8 37,14c15,12 15,111 0,120c-7,4 -72,8 -145,8c-103,0 -134,-3 -138,-14z"/>
     <path id="svg_21" d="m860,1290c0,-57 1,-60 24,-60c14,0 28,-5 31,-10c10,-16 8,-742 -2,-751c-4,-4 -19,-9 -33,-11c-24,-3 -25,-6 -25,-73l0,-70l244,0l244,0l-1,150c0,83 -1,154 -1,158c-1,4 -31,7 -68,5l-68,-3l3,-62c6,-96 0,-105 -61,-101l-52,3l-8,65c-10,80 -3,185 13,205c6,7 30,15 53,17l42,3l0,65l0,65l-45,5c-35,4 -47,10 -57,30c-15,29 -18,267 -4,289c5,7 29,15 54,18c39,5 47,2 61,-18c11,-18 13,-33 6,-63c-4,-21 -6,-53 -3,-72l6,-34l62,0l62,0l7,38c8,48 8,133 0,211l-7,61l-238,0l-239,0l0,-60z"/>
     <path id="svg_22" d="m4362,1308c-14,-14 -15,-87 -2,-143c6,-25 6,-60 0,-95c-16,-92 -31,-266 -39,-442c-8,-175 -15,-198 -55,-198c-32,0 -46,-19 -46,-60c0,-20 5,-41 12,-48c8,-8 56,-12 149,-12c161,0 169,4 169,81c0,45 -3,50 -27,60c-59,23 -58,22 -59,105c-1,43 -7,209 -13,369c-9,262 -9,291 6,307c9,10 24,18 35,18c14,0 18,8 18,35l0,35l-68,0c-40,0 -73,-5 -80,-12z"/>
     <path id="svg_23" d="m17,443c-11,-11 -8,-145 3,-138c7,4 11,145 4,145c0,0 -4,-3 -7,-7z"/>
    </g>
   </g>
   <g id="svg_24" fill="rgb(32,34,33)">
    <g id="svg_25">
     <path id="svg_26" d="m6566,1374c-43,-56 -48,-88 -7,-42c58,65 47,1 -14,-79c-33,-44 -35,-49 -36,-137c-3,-189 -2,-345 3,-458c5,-109 7,-118 34,-152c26,-33 54,-47 54,-28c0,4 -7,32 -16,62c-21,74 -31,416 -15,520c25,162 86,277 159,301c36,12 36,13 12,20c-14,4 -43,7 -64,8c-22,1 -47,8 -57,17c-16,14 -20,12 -53,-32z"/>
     <path id="svg_27" d="m6147,1213c-4,-3 -7,-174 -7,-379c0,-405 0,-405 55,-362c40,31 61,85 75,188c15,121 7,363 -15,445c-22,81 -79,138 -108,108z"/>
     <path id="svg_28" d="m2990,961c-80,-20 -109,-90 -51,-124c43,-25 59,-21 75,18c10,24 21,35 36,35c13,0 28,-13 41,-35c26,-43 59,-46 88,-9c27,34 26,55 -2,82c-39,37 -118,51 -187,33z"/>
     <path id="svg_29" d="m3734,767c-2,-7 0,-43 5,-79c5,-36 7,-102 4,-146c-5,-74 -4,-81 16,-91c17,-10 21,-21 21,-61c0,-76 -4,-80 -71,-80c-32,0 -59,-4 -59,-10c0,-16 42,-22 150,-20c14,0 67,0 118,1c52,0 105,4 118,9c49,19 22,29 -83,32l-108,3l-3,52c-3,44 0,54 17,65c23,14 28,53 8,65c-25,15 -93,195 -81,214c2,4 -1,19 -7,33c-13,28 -36,34 -45,13z"/>
     <path id="svg_30" d="m6932,253c-28,-21 -49,-39 -47,-41c2,-2 27,8 55,22c64,32 70,32 117,0l38,-25l240,1c132,1 315,0 407,-2c92,-2 155,0 140,5c-15,4 -92,10 -171,12c-101,4 -154,10 -177,21c-24,12 -37,13 -53,5c-12,-7 -93,-11 -209,-11c-188,0 -189,0 -212,25c-33,35 -68,32 -128,-12z"/>
    </g>
   </g>
   <g id="svg_31" fill="rgb(141,141,142)">
    <g id="svg_32">
     <path id="svg_33" d="m1500,1371l-65,-6l-2,-35c-2,-29 -1,-31 6,-10l7,25l239,0l240,0l1,-30c3,-75 5,-85 14,-85c6,0 10,28 10,65c0,53 -3,66 -19,75c-21,10 -313,11 -431,1z"/>
     <path id="svg_34" d="m3510,1361c0,-25 38,-90 65,-113c17,-14 20,-28 20,-92c1,-45 6,-81 13,-88c22,-22 13,-87 -23,-162c-28,-56 -34,-78 -27,-96c6,-17 2,-42 -14,-87l-22,-64l24,-9c17,-7 24,-17 24,-35c0,-14 4,-25 9,-25c15,0 25,187 11,219c-9,24 -7,35 16,80c14,29 31,82 37,117c10,56 9,68 -6,93c-9,16 -17,47 -17,69c0,50 -17,100 -39,111c-9,5 -23,22 -33,38l-16,28l101,2c56,2 110,0 120,-3c25,-8 24,-85 -3,-109c-21,-19 -28,-75 -10,-75c6,0 10,10 10,23c0,12 9,28 20,35c18,11 21,21 18,85l-3,72l-137,3c-132,2 -138,2 -138,-17z"/>
     <path id="svg_35" d="m7117,1364c-12,-12 -8,-129 5,-142c7,-7 25,-12 40,-12l28,0l0,-370l0,-370l-27,-6c-16,-3 -34,-7 -40,-10c-17,-5 -17,-126 -1,-142c17,-17 324,-17 334,0c4,6 14,48 21,92c25,144 26,162 15,151c-6,-5 -18,-50 -27,-100c-9,-50 -19,-100 -21,-112c-4,-23 -7,-23 -147,-23c-98,0 -147,4 -155,12c-7,7 -12,33 -12,60c0,46 1,47 36,54c23,4 38,14 43,28c4,11 9,184 10,382c3,391 5,372 -53,384c-30,6 -31,8 -31,55l0,50l115,3c136,3 157,-1 163,-31c3,-12 4,-6 4,13l-2,35l-146,3c-80,1 -148,-1 -152,-4z"/>
     <path id="svg_36" d="m7411,1275c-1,-28 -20,-45 -48,-45c-24,0 -49,-42 -37,-61c9,-15 24,-10 18,6c-9,21 14,45 43,45c27,0 37,17 30,52c-4,20 -4,20 -6,3z"/>
     <path id="svg_37" d="m1100,1232c-27,-9 -30,-25 -30,-162c0,-165 7,-183 70,-190c37,-4 45,-9 50,-30c5,-22 7,-23 13,-7c9,24 9,23 -9,41c-9,9 -32,16 -55,16c-21,0 -39,3 -40,8c0,4 -1,71 -1,149c-1,104 2,146 12,158c15,18 11,24 -10,17z"/>
     <path id="svg_38" d="m6766,1221c-25,-27 -36,-75 -43,-183c-4,-67 -3,-98 5,-98c6,0 13,26 17,58c15,150 25,197 40,209c10,6 23,9 30,7c23,-9 45,-82 45,-152c0,-81 9,-142 21,-142c11,0 11,104 0,192c-14,108 -69,160 -115,109z"/>
     <path id="svg_39" d="m1676,1214c-10,-27 -7,-54 7,-54c8,0 13,10 13,23c-1,19 5,22 41,25l42,3l3,-93l3,-93l70,-3c57,-2 72,0 82,14c15,20 18,154 4,154c-11,0 -25,-86 -16,-100c15,-24 -13,-45 -64,-46l-51,-1l-2,46c-6,145 -4,141 -72,141c-40,0 -55,-4 -60,-16z"/>
     <path id="svg_40" d="m7826,973c-13,-84 -3,-253 15,-253c5,0 9,65 9,145c0,139 -10,187 -24,108z"/>
     <path id="svg_41" d="m3785,965c-3,-8 -7,-22 -10,-30c-7,-24 -25,-17 -25,10c0,14 -4,25 -10,25c-5,0 -10,-25 -10,-55c0,-46 3,-55 18,-55c18,0 42,50 48,98c3,25 -4,30 -11,7z"/>
     <path id="svg_42" d="m6866,793c-9,-56 -7,-163 3,-163c11,0 21,61 21,138c0,68 -14,83 -24,25z"/>
     <path id="svg_43" d="m1190,790c-4,-21 -11,-25 -47,-28c-23,-2 -47,-10 -54,-18c-16,-19 -22,-133 -12,-219l8,-70l59,-3c40,-2 62,1 68,10c5,7 7,45 6,83l-3,70l58,3c31,2 57,-1 57,-5c0,-4 1,-71 1,-148l1,-140l-233,0l-234,0l-3,28c-5,42 -24,32 -20,-11l3,-37l244,-3c171,-2 248,1 257,9c11,9 14,46 14,158c0,80 -4,151 -8,158c-9,14 -131,21 -150,9c-10,-6 -11,-26 -6,-77c7,-76 -2,-99 -41,-99c-54,0 -55,2 -55,146l0,134l38,0c50,0 64,11 60,46c-4,28 -4,28 -8,4z"/>
     <path id="svg_44" d="m7329,748c-2,-29 -2,-98 1,-153c5,-98 5,-99 18,-60c18,56 42,193 41,235c0,34 -1,34 -11,10c-6,-14 -14,-41 -18,-60c-7,-31 -8,-29 -9,23c-1,71 -17,75 -22,5z"/>
     <path id="svg_45" d="m6720,698c0,-79 19,-188 33,-188c8,0 5,74 -9,208c-8,76 -24,64 -24,-20z"/>
     <path id="svg_46" d="m7505,758c-8,-29 -12,-147 -4,-142c5,3 9,14 9,25c0,28 14,23 27,-8c10,-27 11,-26 12,17c2,77 -29,153 -44,108z"/>
     <path id="svg_47" d="m920,506c0,-28 -16,-43 -50,-48c-20,-2 -26,-9 -28,-35c-4,-40 15,-45 20,-5c2,20 9,28 28,30c14,2 31,9 38,14c14,12 16,68 2,68c-5,0 -10,-11 -10,-24z"/>
     <path id="svg_48" d="m7832,493c3,-32 7,-38 36,-45c25,-7 32,-14 32,-33c0,-14 5,-25 10,-25c18,0 11,60 -7,66c-37,11 -48,22 -51,48c-5,40 -24,31 -20,-11z"/>
     <path id="svg_49" d="m3570,496c0,-24 -16,-36 -50,-36c-10,0 -21,-7 -24,-16c-8,-22 -7,-107 2,-120c11,-18 45,-24 77,-15c29,9 29,9 -12,10l-41,1l-4,53c-5,60 3,75 40,79c22,2 28,9 30,36c2,18 -1,32 -7,32c-6,0 -11,-11 -11,-24z"/>
     <path id="svg_50" d="m7551,483c1,-40 13,-76 25,-80c8,-3 8,13 1,52c-11,57 -28,76 -26,28z"/>
     <path id="svg_51" d="m7575,353c13,-51 18,-53 170,-53c79,0 150,3 159,6c10,4 16,18 16,40c0,41 -17,46 -22,7l-3,-28l-125,-3c-149,-3 -168,0 -176,33c-3,14 -11,25 -16,25c-6,0 -7,-11 -3,-27z"/>
    </g>
   </g>
   <g id="svg_52" fill="rgb(202,205,205)">
    <g id="svg_53">
     <path id="svg_54" d="m4232,1358c-16,-16 -16,-127 1,-132c6,-3 24,-7 40,-10l27,-6l-2,-373l-3,-372l-25,-3c-38,-6 -50,-21 -50,-61c0,-35 0,-36 13,-11c8,15 23,26 39,28c46,5 50,22 59,200c8,181 24,353 40,445c7,41 7,74 0,108c-14,66 -14,112 1,127c7,7 38,12 70,12c55,0 58,-1 58,-25c0,-18 -5,-25 -18,-25c-11,0 -26,-8 -35,-18c-15,-16 -16,-45 -12,-268c6,-276 12,-354 26,-354c5,0 10,127 11,298l3,297l35,5c34,5 35,7 41,55c5,35 2,57 -7,73c-14,21 -20,22 -157,22c-98,0 -147,-4 -155,-12z"/>
     <path id="svg_55" d="m7616,1356c-8,-6 -16,-38 -19,-74c-5,-59 -4,-62 19,-68c13,-3 31,-4 39,0c13,5 20,-5 16,-26c-2,-12 6,-9 23,7c20,20 2,65 -26,65c-13,0 -18,7 -18,29c0,28 1,28 78,35c68,7 153,8 158,3c1,-1 4,-20 6,-42c3,-35 0,-40 -19,-43c-13,-2 -23,-9 -23,-16c0,-10 9,-12 33,-7c30,6 32,9 38,61c9,87 2,91 -158,89c-80,-1 -138,-6 -147,-13z"/>
     <path id="svg_56" d="m3253,1253c-7,-2 -13,-10 -13,-17c0,-7 -26,-26 -57,-41c-32,-16 -69,-37 -83,-47c-14,-9 -56,-27 -94,-39c-68,-21 -136,-22 -219,-3c-25,6 -27,4 -27,-24c0,-36 15,-47 80,-57c68,-10 232,21 302,56c10,5 26,9 36,9c21,0 95,34 135,62c34,25 34,47 -1,81c-28,27 -36,30 -59,20z"/>
     <path id="svg_57" d="m2690,718c0,-50 39,-111 80,-125c48,-16 112,-16 195,2c59,12 90,13 195,3c119,-11 127,-10 173,10c36,16 51,30 62,56c33,79 7,114 -41,57c-44,-52 -88,-58 -189,-26c-52,17 -199,11 -247,-9c-21,-9 -56,-16 -79,-16c-35,0 -46,6 -78,40c-46,50 -71,53 -71,8z"/>
    </g>
   </g>
   <g id="svg_58" fill="rgb(157,159,160)">
    <g id="svg_59">
     <path id="svg_60" d="m638,1373c-45,-2 -80,-9 -87,-16c-5,-7 -14,-32 -20,-55c-12,-56 8,-52 24,4l11,39l84,0l85,0l3,-27c5,-40 22,-34 22,7c0,24 -6,37 -19,45c-11,5 -21,9 -23,8c-2,-1 -37,-4 -80,-5z"/>
     <path id="svg_61" d="m3835,1365c-2,-5 -6,-38 -8,-73c-5,-59 -4,-64 19,-74c25,-12 30,-27 15,-43c-14,-15 -73,-196 -67,-203c8,-8 9,-6 41,73c15,39 36,91 46,117c24,60 24,67 -4,77c-20,8 -22,14 -19,56l4,46l119,-3l119,-3l1,-32c1,-18 2,-39 3,-45c1,-7 -11,-14 -26,-16c-14,-2 -31,-9 -36,-15c-14,-17 -45,-117 -39,-124c7,-6 37,51 37,71c0,24 29,46 60,46c19,0 30,6 33,18c8,27 6,108 -3,122c-10,16 -291,21 -295,5z"/>
     <path id="svg_62" d="m132,1358c-7,-7 -12,-38 -12,-70c0,-62 13,-78 64,-78l26,0l-2,-372l-3,-373l-35,-3c-19,-2 -38,-9 -42,-15c-14,-23 -9,-124 7,-137c12,-10 57,-12 183,-8c148,4 172,8 212,28c52,26 115,83 136,122c17,32 17,38 4,38c-5,0 -10,-5 -10,-11c0,-26 -75,-102 -119,-122c-39,-17 -72,-21 -218,-25l-173,-4l0,55l0,56l38,3c37,3 37,3 44,58c3,30 6,204 7,386c1,358 2,349 -54,356c-28,3 -30,6 -33,51l-3,48l148,-3l147,-3l1,-37c2,-47 -3,-55 -40,-60c-27,-3 -30,-7 -33,-40c-4,-43 15,-53 20,-10c2,22 9,28 33,30c16,2 33,9 37,15c12,19 9,112 -4,125c-17,17 -309,17 -326,0z"/>
     <path id="svg_63" d="m844,1356c-3,-7 -4,-40 -2,-72c3,-58 4,-59 38,-70c27,-9 36,-18 38,-38c5,-37 22,-32 22,7c0,39 -15,57 -47,57c-21,0 -23,4 -23,50l0,50l230,0l230,0l0,-40c0,-52 16,-51 24,1c11,70 14,69 -261,69c-196,0 -245,-3 -249,-14z"/>
     <path id="svg_64" d="m737,1251c-3,-12 -15,-21 -33,-23c-35,-4 -38,-13 -131,-326l-16,-53l36,-35c40,-40 75,-105 84,-158c7,-45 23,-47 23,-3c0,42 -38,123 -80,171l-34,38l18,51c9,29 32,106 49,171c30,113 34,120 62,129c31,10 45,23 45,45c0,19 -17,14 -23,-7z"/>
     <path id="svg_65" d="m1110,1230c0,-5 13,-10 29,-10c53,0 61,-8 61,-61c0,-60 15,-64 24,-8c10,62 -11,89 -69,89c-25,0 -45,-4 -45,-10z"/>
     <path id="svg_66" d="m1200,1071c0,-41 20,-52 87,-49l58,3l3,38c2,21 -1,37 -7,37c-6,0 -11,-11 -11,-25c0,-24 -3,-25 -55,-25c-52,0 -55,1 -55,25c0,14 -4,25 -10,25c-5,0 -10,-13 -10,-29z"/>
     <path id="svg_67" d="m372,918c3,-29 7,-33 32,-33c24,0 32,6 43,33c8,19 9,32 3,32c-5,0 -10,-6 -10,-14c0,-19 -29,-48 -41,-41c-5,4 -9,17 -9,31c0,13 -5,24 -11,24c-6,0 -9,-14 -7,-32z"/>
     <path id="svg_68" d="m2840,941c-12,-9 -12,-11 3,-17c10,-4 20,-22 23,-45c5,-30 16,-46 52,-74c58,-45 95,-47 117,-5c9,17 18,30 21,30c3,0 10,-13 15,-30c15,-41 53,-40 110,2c39,29 42,33 22,36c-13,2 -23,8 -23,14c0,6 -8,4 -18,-5c-26,-24 -39,-21 -57,13c-31,60 -83,60 -103,0c-13,-35 -15,-35 -53,-13c-35,21 -38,54 -6,76c22,16 22,16 -13,17c-19,0 -44,3 -55,5c-11,3 -27,1 -35,-4z"/>
     <path id="svg_69" d="m3915,718c16,-54 89,-245 101,-265c9,-14 24,-23 38,-23c22,0 24,-3 19,-42c-3,-24 -7,-44 -8,-46c-2,-2 -50,-6 -108,-9l-105,-6l-4,47c-3,41 0,50 21,65c19,14 23,23 17,44c-3,15 -11,27 -17,27c-6,0 -8,-9 -4,-21c5,-15 1,-25 -14,-35c-17,-13 -21,-26 -21,-74c0,-32 3,-61 8,-64c4,-2 63,-6 130,-7c140,-4 142,-3 142,73c0,59 -7,78 -30,78c-39,0 -50,16 -101,146c-29,74 -56,134 -61,134c-5,0 -6,-10 -3,-22z"/>
    </g>
   </g>
   <g id="svg_70" fill="rgb(246,172,21)">
    <g id="svg_71">
     <path id="svg_72" d="m2644,503c-35,-54 -64,-118 -64,-144c0,-41 47,-89 87,-89c23,0 33,5 38,20c14,44 38,13 49,-63c5,-31 3,-53 -4,-62c-6,-8 -10,-24 -8,-37c5,-34 52,-33 56,2c6,37 47,87 108,127l55,36l35,-34c45,-43 87,-126 80,-155c-9,-33 3,-54 29,-54c20,0 23,6 27,54c3,38 13,68 32,97c26,38 29,40 44,25c9,-8 16,-30 16,-48c1,-31 3,-33 38,-33c25,0 42,-6 51,-19c20,-28 47,-14 47,24c0,18 6,33 15,36c19,8 19,40 1,93c-14,39 -20,109 -14,161c3,24 1,25 -57,25c-50,0 -60,-3 -63,-18c-2,-10 4,-27 14,-38c9,-10 15,-21 12,-24c-7,-7 -94,31 -102,44c-10,16 -46,14 -52,-3c-4,-11 -13,-12 -37,-5c-47,13 -77,11 -77,-6c0,-24 -13,-18 -55,24c-29,31 -57,46 -117,65c-44,15 -99,26 -122,26c-37,0 -47,-5 -62,-27z"/>
    </g>
   </g>
   <g id="svg_73" fill="rgb(45,46,45)">
    <g id="svg_74">
     <path id="svg_75" d="m387,753c-13,-12 -8,-278 5,-291c29,-29 107,7 129,60c17,40 16,127 -1,168c-18,44 -109,87 -133,63z"/>
    </g>
   </g>
   <g id="svg_76" fill="rgb(176,184,184)">
    <g id="svg_77">
     <path id="svg_78" d="m2975,1353c-50,-12 -104,-46 -149,-91c-40,-41 -49,-58 -53,-96c-6,-49 0,-53 42,-37c11,5 32,4 47,-1c43,-15 163,9 233,46c33,18 86,40 117,50c32,10 61,23 65,29c8,13 -49,63 -102,88c-39,18 -148,24 -200,12z"/>
     <path id="svg_79" d="m3240,1095c-7,-8 -23,-15 -35,-15c-13,0 -25,-7 -29,-15c-3,-8 -18,-15 -33,-15c-14,0 -52,-6 -82,-14c-152,-38 -201,-46 -225,-40c-23,5 -26,3 -26,-19c0,-13 6,-29 12,-34c17,-13 135,-16 142,-4c10,15 101,23 143,12c54,-15 89,-52 74,-79c-16,-31 -13,-42 10,-42c41,0 63,58 37,99c-10,17 -6,26 35,70c35,37 47,58 47,81c0,26 -3,30 -29,30c-16,0 -34,-7 -41,-15z"/>
    </g>
   </g>
   <g id="svg_80" fill="rgb(106,109,109)">
    <g id="svg_81">
     <path id="svg_82" d="m855,1470c4,-6 105,-10 273,-9c169,1 252,4 227,10c-59,12 -508,11 -500,-1z"/>
     <path id="svg_83" d="m3556,1470c9,-9 1081,-16 1091,-7c9,10 -243,16 -657,17c-299,0 -441,-3 -434,-10z"/>
     <path id="svg_84" d="m5536,1389c-79,-19 -154,-103 -187,-211c-22,-70 -37,-248 -21,-248c10,0 15,31 27,162c19,208 156,325 302,259c37,-17 93,-77 106,-114c2,-7 8,-9 12,-5c15,14 -50,102 -95,129c-54,33 -92,40 -144,28z"/>
     <path id="svg_85" d="m2037,1368c-17,-13 -29,-129 -15,-144c4,-3 22,-9 40,-13c26,-5 34,-12 36,-34c4,-36 22,-35 22,1c0,36 -16,52 -52,52c-29,0 -29,0 -26,58l3,57l229,3c126,1 234,-2 239,-7c7,-7 2,-41 -19,-113c-3,-10 -1,-18 3,-18c11,0 43,87 43,117c0,54 7,53 -249,53c-174,0 -242,-3 -254,-12z"/>
     <path id="svg_86" d="m5990,1373c-41,-2 -80,-9 -87,-15c-14,-11 -18,-115 -5,-135c4,-6 20,-13 35,-15l28,-3l2,-347c2,-307 6,-373 21,-357c8,7 11,704 4,715c-4,6 -21,14 -38,17c-29,6 -30,8 -30,62l0,55l143,-3c135,-3 145,-5 195,-32c30,-16 64,-42 77,-57c31,-36 42,-36 18,1c-61,96 -156,125 -363,114z"/>
     <path id="svg_87" d="m3015,1360c-70,-7 -134,-37 -188,-89c-49,-46 -64,-75 -73,-140c-6,-44 -4,-57 15,-81c11,-16 21,-38 21,-48c0,-22 36,-72 52,-72c6,0 4,8 -5,18c-23,26 -21,41 4,35c19,-5 90,8 230,43c30,8 68,14 82,14c15,0 30,7 33,15c4,8 16,15 29,15c12,0 28,7 35,15c7,8 21,15 32,15c16,0 19,-5 16,-25c-7,-34 5,-32 18,3c8,20 8,33 0,45c-9,14 -7,21 7,31c33,25 21,60 -39,115c-93,85 -148,104 -269,91zm151,-29c23,-10 70,-46 105,-79c54,-50 62,-62 51,-75c-17,-21 -129,-77 -153,-77c-11,0 -27,-4 -37,-9c-35,-18 -119,-41 -185,-51c-102,-16 -177,2 -177,41c0,16 4,19 18,14c9,-4 49,-10 88,-12c77,-6 182,19 234,55c14,10 51,31 83,47c55,27 75,55 40,55c-27,0 -91,-25 -153,-58c-67,-36 -174,-57 -217,-42c-21,8 -38,8 -58,0l-28,-11l6,38c11,63 115,155 202,176c49,12 142,6 181,-12z"/>
     <path id="svg_88" d="m1431,1253c-1,-28 3,-34 27,-39c15,-3 32,-7 37,-9c6,-1 9,-40 8,-96c-2,-90 3,-136 14,-125c3,2 7,54 10,114c5,119 1,128 -52,134c-21,2 -31,10 -36,28c-6,23 -7,23 -8,-7z"/>
     <path id="svg_89" d="m5546,1218c-19,-17 -28,-39 -36,-88c-13,-85 -13,-250 0,-250c6,0 10,1 10,3c1,1 5,66 10,144c9,149 18,183 50,183c28,0 37,-24 45,-117l7,-83l-25,0c-39,0 -52,-25 -49,-94c4,-87 6,-89 153,-79l124,8l3,99c3,101 -17,206 -39,206c-7,0 -8,-7 -4,-17c10,-24 23,-256 15,-266c-4,-4 -56,-6 -116,-5l-109,3l-1,40c-2,59 5,75 30,75c47,0 55,32 35,148c-8,45 -19,73 -35,89c-29,29 -36,29 -68,1z"/>
     <path id="svg_90" d="m2273,1223c-15,-6 -18,-63 -3,-63c6,0 10,11 10,25c0,23 4,25 45,25c38,0 45,-3 45,-20c0,-11 5,-20 10,-20c14,0 13,33 -2,48c-12,12 -81,15 -105,5z"/>
     <path id="svg_91" d="m2480,1130c0,-12 -7,-31 -15,-44c-16,-24 -11,-86 7,-86c6,0 7,11 4,24c-4,15 0,28 9,36c17,14 21,90 5,90c-5,0 -10,-9 -10,-20z"/>
     <path id="svg_92" d="m2372,928c3,-33 3,-33 62,-36c67,-3 81,5 72,42c-8,33 -25,34 -19,2c6,-31 -4,-36 -55,-29c-36,5 -42,9 -42,29c0,13 -5,24 -11,24c-6,0 -9,-14 -7,-32z"/>
     <path id="svg_93" d="m5041,803c-64,-238 -138,-464 -155,-475c-6,-4 -57,-8 -113,-8l-101,0l-4,53c-5,57 2,74 35,80c15,3 12,5 -10,6c-23,1 -35,-5 -43,-18c-14,-27 -13,-114 2,-129c17,-17 242,-17 256,1c13,15 61,145 98,262c14,44 30,91 34,105c6,16 8,-16 7,-90c-2,-112 -3,-115 -25,-118c-22,-3 -40,-27 -29,-38c3,-3 16,0 29,7c12,7 30,15 38,19c23,11 34,430 11,430c-4,0 -17,-39 -30,-87z"/>
     <path id="svg_94" d="m2096,833c-3,-21 -6,-111 -6,-200c0,-101 -4,-163 -10,-164c-5,-1 -14,-3 -20,-4c-5,-1 -17,-3 -25,-4c-10,-1 -15,-12 -15,-36c0,-41 17,-47 22,-7c2,20 9,28 28,30c47,6 50,22 50,229c0,181 -9,242 -24,156z"/>
     <path id="svg_95" d="m2506,855c-17,-18 -22,-34 -30,-104c-4,-41 -2,-48 30,-78c57,-53 108,-35 68,25c-13,19 -18,46 -19,97c0,56 -3,70 -16,73c-9,2 -24,-4 -33,-13z"/>
     <path id="svg_96" d="m1505,803c-4,-16 -5,-94 -4,-175c2,-81 0,-150 -4,-154c-4,-5 -20,-8 -35,-9c-24,0 -27,-4 -29,-35c-2,-29 -1,-31 5,-10c6,20 15,26 45,28c20,2 38,9 39,15c4,39 2,367 -3,367c-4,0 -10,-12 -14,-27z"/>
     <path id="svg_97" d="m5320,708c0,-56 22,-158 33,-158c6,0 7,19 2,48c-8,48 -12,82 -14,127c-2,43 -21,27 -21,-17z"/>
     <path id="svg_98" d="m5650,661c-5,-11 -10,-33 -10,-50c0,-16 -5,-53 -11,-81c-8,-39 -17,-54 -36,-63c-21,-9 -27,-8 -39,8c-8,10 -14,29 -14,42c0,13 -4,23 -10,23c-5,0 -10,-13 -10,-28c0,-30 36,-72 61,-72c38,0 75,80 81,175c3,39 4,40 43,45l40,5l-34,8c-47,10 -49,9 -61,-12z"/>
     <path id="svg_99" d="m2262,488c3,-29 7,-34 38,-38c29,-4 36,-10 38,-32c4,-37 22,-36 22,2c0,31 -22,50 -59,50c-16,0 -21,6 -21,25c0,14 -5,25 -11,25c-6,0 -9,-14 -7,-32z"/>
     <path id="svg_100" d="m2338,353l-3,-28l-147,-3l-148,-3l0,26c0,14 -5,25 -11,25c-6,0 -9,-14 -7,-32l3,-33l154,-3c167,-3 181,1 181,49c0,37 -18,38 -22,2z"/>
     <path id="svg_101" d="m1431,350c-2,-48 7,-50 255,-50c248,0 264,3 264,51c0,27 -18,24 -22,-3l-3,-23l-237,-3l-236,-2l-10,27l-10,28l-1,-25z"/>
    </g>
   </g>
   <g id="svg_102" fill="rgb(86,88,86)">
    <g id="svg_103">
     <path id="svg_104" d="m7955,1273c8,-366 8,-1020 0,-1033c-5,-8 -3,-11 6,-8c21,7 26,1218 5,1218c-12,0 -14,-29 -11,-177z"/>
     <path id="svg_105" d="m5133,1371c-34,-3 -64,-8 -66,-11c-3,-3 -12,-27 -20,-55c-8,-27 -35,-108 -60,-180c-58,-168 -60,-175 -49,-175c5,0 35,73 66,163c31,89 62,178 69,197c13,34 14,35 67,35c53,0 55,-1 58,-27c2,-16 8,-28 13,-28c13,0 7,83 -6,85c-5,1 -38,-1 -72,-4z"/>
     <path id="svg_106" d="m7487,1363c-13,-13 -7,-19 21,-18c21,0 28,-5 30,-22c4,-26 22,-32 22,-7c0,29 -20,54 -44,54c-12,0 -26,-3 -29,-7z"/>
     <path id="svg_107" d="m7550,1264c0,-17 6,-53 14,-80c8,-27 17,-71 20,-99c4,-27 11,-70 15,-95c12,-58 28,-158 46,-288c15,-108 23,-134 34,-111c10,21 1,599 -10,599c-5,0 -9,-10 -10,-22c0,-13 -6,-38 -13,-57l-12,-35l-14,48c-7,26 -19,50 -27,53c-7,3 -13,15 -13,28c0,12 -7,38 -15,56l-14,34l-1,-31z"/>
     <path id="svg_108" d="m4939,1260c-3,-18 -12,-26 -34,-30c-25,-4 -30,-10 -33,-38c-2,-17 1,-32 6,-32c5,0 8,10 8,23c-1,17 5,23 27,25c31,4 41,19 35,54c-4,23 -4,23 -9,-2z"/>
     <path id="svg_109" d="m5202,873l3,-408l35,-11c19,-6 36,-19 38,-28c4,-19 22,-22 22,-3c0,21 -14,35 -43,42l-27,7l0,367c0,361 -4,441 -21,441c-5,0 -8,-177 -7,-407z"/>
     <path id="svg_110" d="m1678,944c-4,-6 -4,-20 -1,-32c5,-21 20,-28 73,-34c23,-3 25,-7 25,-58l0,-55l-40,-3c-22,-2 -46,-10 -52,-19c-14,-18 -17,-94 -7,-155c11,-66 23,-41 26,55c3,85 4,92 23,90c11,-2 32,0 48,3c26,5 27,7 27,74c0,77 -7,87 -65,92c-32,2 -40,7 -45,28c-3,14 -9,20 -12,14z"/>
     <path id="svg_111" d="m4859,808c-1,-29 -3,-70 -5,-90c-6,-74 33,-49 48,30c19,100 21,115 11,109c-6,-4 -14,-21 -19,-39l-8,-33l-3,38c-6,55 -23,45 -24,-15z"/>
     <path id="svg_112" d="m2813,773c-7,-2 -13,-20 -13,-40c0,-27 -4,-34 -17,-31c-10,2 -27,18 -38,36c-27,43 -59,40 -63,-5c-4,-45 37,-133 62,-133c17,0 18,2 4,18c-36,40 -63,122 -41,122c4,0 24,-18 44,-40c34,-37 41,-40 88,-40c28,0 68,7 88,15c50,20 183,25 231,8c68,-23 124,-26 161,-6c19,10 37,25 40,33c4,13 2,13 -12,1c-24,-20 -47,-6 -47,28c0,35 -26,49 -49,26c-13,-12 -13,-21 -4,-45c11,-30 11,-30 -25,-30c-21,1 -48,7 -62,15c-16,9 -54,14 -105,14c-51,0 -89,-5 -105,-14c-14,-8 -39,-14 -57,-15c-30,0 -32,2 -35,42c-3,42 -16,54 -45,41z"/>
     <path id="svg_113" d="m1798,640c-19,-12 -26,-80 -8,-80c6,0 10,11 10,24c0,30 11,38 63,42c44,4 67,-9 67,-37c0,-11 5,-19 11,-19c12,0 4,49 -11,64c-14,14 -112,18 -132,6z"/>
     <path id="svg_114" d="m1680,490l0,-41l58,3l57,3l3,38c4,42 -15,52 -20,10c-3,-25 -7,-28 -38,-28c-31,0 -35,3 -38,28c-5,42 -22,32 -22,-13z"/>
     <path id="svg_115" d="m4992,338l3,-33l135,-3c128,-3 136,-2 153,19c18,23 23,49 8,49c-5,0 -11,-10 -13,-22c-3,-22 -7,-23 -135,-26l-133,-3l0,26c0,14 -5,25 -11,25c-6,0 -9,-14 -7,-32z"/>
    </g>
   </g>
   <g id="svg_116" fill="rgb(96,71,23)">
    <g id="svg_117">
     <path id="svg_118" d="m3234,455c-8,-30 0,-53 21,-61c25,-10 30,4 11,25c-26,28 -13,39 41,35c34,-2 47,-7 43,-16c-9,-25 0,-114 17,-172c16,-54 16,-59 0,-68c-10,-5 -17,-21 -17,-38c0,-41 -16,-45 -36,-11c-16,28 -19,28 -40,14c-30,-19 -47,-8 -39,26c8,35 -27,71 -53,55c-29,-19 -62,-94 -62,-142c0,-39 -2,-44 -20,-39c-14,4 -20,0 -20,-13c0,-22 23,-42 42,-35c20,8 48,59 48,88c0,34 16,37 70,14c36,-15 52,-30 70,-63c17,-34 29,-44 47,-44c35,0 85,26 118,60l27,29l-21,34c-11,19 -21,42 -21,51c0,23 -19,20 -28,-4c-6,-16 -14,-2 -35,60c-16,45 -25,89 -22,100c3,11 1,29 -5,41c-9,15 -9,24 -1,32c6,6 11,24 11,39c0,28 0,28 -70,28c-66,0 -70,-1 -76,-25z"/>
    </g>
   </g>
   <g id="svg_119" fill="rgb(181,127,17)">
    <g id="svg_120">
     <path id="svg_121" d="m2630,561c0,-23 -54,-135 -86,-177c-13,-17 -21,-34 -18,-37c5,-4 -36,-41 -69,-62c-9,-5 -17,-23 -19,-40c-2,-24 1,-31 19,-33c14,-2 23,-11 25,-25c2,-17 11,-23 36,-25c29,-3 34,1 47,31c7,18 20,39 29,46c12,10 16,8 21,-8c13,-41 74,-15 75,32c0,11 -8,17 -23,17c-25,0 -77,53 -77,79c0,17 34,88 64,134c24,35 59,35 164,1c60,-19 88,-34 117,-65c40,-40 75,-51 75,-23c0,13 7,15 40,9c31,-5 40,-4 40,7c0,22 -43,58 -69,58c-20,0 -23,-4 -18,-27l5,-28l-23,26c-36,42 -95,75 -160,89c-33,7 -80,18 -104,26c-63,20 -91,18 -91,-5z"/>
    </g>
   </g>
   <g id="svg_122" fill="rgb(76,56,19)">
    <g id="svg_123">
     <path id="svg_124" d="m2690,612c-69,-5 -80,-11 -80,-40c-1,-15 -9,-45 -20,-67c-11,-22 -20,-47 -20,-55c0,-8 -11,-34 -25,-57c-27,-48 -17,-59 13,-15c30,42 82,152 82,173c0,23 12,24 71,5c24,-8 71,-19 104,-26c64,-14 128,-49 158,-87c25,-32 51,-31 43,2c-9,37 18,32 51,-10c32,-40 40,-42 58,-18c12,16 15,17 32,1c10,-9 35,-23 57,-32c69,-28 86,-17 41,28c-17,17 -25,20 -25,11c0,-24 -25,-17 -59,16c-24,23 -39,29 -56,25c-17,-4 -27,0 -39,20c-24,35 -61,51 -81,34c-13,-11 -20,-10 -42,6c-33,25 -32,35 7,58c25,15 52,19 124,19l91,0l-65,10c-50,7 -82,6 -146,-7c-99,-19 -124,-20 -189,-3c-27,7 -66,11 -85,9z"/>
     <path id="svg_125" d="m2681,270c-25,-54 -47,-64 -57,-25c-3,14 -9,25 -13,25c-12,0 -46,-43 -59,-73c-15,-35 -55,-35 -60,1c-2,13 -10,22 -21,22c-9,0 -22,5 -29,12c-26,26 -10,-9 21,-46c42,-49 75,-51 121,-7c25,24 41,31 72,31c49,0 85,-22 67,-41c-22,-22 -14,-56 18,-84c28,-23 34,-24 53,-12c17,11 51,66 68,110c2,4 33,9 70,12c63,4 68,3 88,-22c12,-15 20,-41 20,-62c0,-47 33,-101 61,-101c21,0 21,1 4,20c-12,13 -17,34 -17,65c1,28 -7,62 -20,88c-26,51 -86,117 -108,117c-24,0 -116,-66 -144,-103c-14,-19 -26,-43 -26,-55c0,-25 -18,-38 -33,-23c-8,8 -7,17 2,34c8,15 11,44 8,74c-10,105 -49,124 -86,43z"/>
    </g>
   </g>
  </g>
 </g>
</svg>
