<?xml version="1.0"?>
<svg xmlns="http://www.w3.org/2000/svg" width="160" height="160" viewBox="0 0 224 96" fill="none">
<g clip-path="url(#clip0_10017_1137)">
<path d="M49.9142 27.2018C45.3945 36.387 41.3565 45.7987 37.885 55.4271C66.352 54.4836 72.2987 12.7525 45.0003 15.9085C22.1563 18.5525 18.7064 35.8059 19.17 41.5855C19.2788 42.42 15.7886 43.9567 12.0912 44.384C10.0065 44.6244 7.91639 44.4891 6.28823 43.7364C0.743511 41.179 -0.788747 33.5405 7.6151 23.8139C15.9256 14.0964 31.8153 10.0906 44.137 8.66608C54.2806 7.49111 80.8807 8.64902 76.3964 33.2668C73.4916 49.1379 59.6461 56.5781 47.5431 60.1429C47.5431 60.1429 54.9877 69.3551 63.5186 68.3669C64.7525 68.2247 65.9816 67.8943 67.2058 67.2799C70.9756 65.4323 67.7293 83.7861 54.4262 82.8796C46.538 82.3807 37.799 62.3966 37.799 62.3966L37.8924 62.2915C37.0416 62.4857 36.2846 62.5704 35.5227 62.6591C32.3574 73.6633 32.068 79.7244 32.1618 79.711C32.1618 79.711 34.387 82.4679 26.6966 82.6981C17.2998 82.9365 17.9857 71.09 24.0955 53.9096C27.1994 45.2649 31.797 35.1311 37.0577 24.542C37.7053 23.2431 39.2096 22.5054 41.0138 22.2965C45.3749 21.7936 51.3917 24.2974 49.9146 27.1974L49.9142 27.2018ZM72.0067 51.4481C74.7111 41.5327 82.5238 30.4614 94.7521 29.046C111.244 27.1363 112.337 43.4842 109.928 54.12C107.344 65.8091 99.702 75.639 88.9929 76.8767C80.8407 77.8203 65.5252 75.6378 72.0111 51.4485L72.0067 51.4481ZM89.1873 64.4275C100.939 63.0653 105.474 35.2406 96.0928 36.6105C85.8607 37.9827 78.8565 65.625 89.1873 64.4275ZM114.465 46.5334C117.169 36.618 124.982 25.5467 137.21 24.1313C153.702 22.2216 154.795 38.5695 152.387 49.2053C149.802 60.8944 142.16 70.7243 131.451 71.9619C123.299 72.9055 107.984 70.7231 114.469 46.5338L114.465 46.5334ZM131.646 59.5128C143.397 58.1506 147.932 30.3259 138.551 31.6958C128.319 33.0679 121.315 60.7103 131.646 59.5128ZM165.363 66.9998C174.25 66.8945 180.049 61.987 183.813 55.6749C184.233 61.3023 186.777 65.2485 193.155 65.1972C208.345 65.1342 215.322 48.7909 217.631 37.6051C217.631 37.6051 218.335 33.9463 215.301 34.1102C213.379 39.1346 209.04 47.5462 202.786 48.2675C195.867 49.0688 203.937 29.3983 207.052 21.6011C208.244 18.7322 202.616 16.7477 198.063 17.277C195.884 17.5308 193.997 18.4086 193.261 20.0923C191.908 23.3787 188.906 30.4224 186.637 37.9857C184.587 43.051 181.115 49.6467 174.998 50.3585C171.301 50.7858 171.33 46.1718 173.128 39.0898C177.251 22.2329 182.932 8.2037 184.31 4.84534C185.502 1.97647 179.678 -0.174086 175.129 0.355651C172.853 0.61816 170.97 1.58801 170.328 3.26698C163.207 22.918 160.673 31.4044 157.865 40.8611C153.975 54.1128 153.117 67.0173 165.366 67.0132L165.363 66.9998ZM205.882 12.8825C209.486 12.4643 212.38 9.21151 212.327 5.54577C212.274 1.88003 209.291 -0.691712 205.692 -0.277452C201.995 0.149812 199.101 3.40698 199.154 7.06839C199.207 10.7341 202.19 13.3059 205.883 12.8782L205.882 12.8825ZM213.612 67.9852L19.8155 90.2792C18.7509 90.4018 18.2575 91.6535 18.9553 92.4579C20.5188 94.2565 22.8361 95.2325 25.2285 95.0982L204.761 85.0592C211.57 84.68 217.224 79.7246 218.439 73.0833C218.966 70.2114 216.538 67.6502 213.607 67.9848L213.612 67.9852Z" fill="#D80027"/>
</g>
<defs>
<clipPath id="clip0_10017_1137">
<rect width="224" height="96" fill="white"/>
</clipPath>
</defs>
</svg>
