<svg width="4000" height="725.0000000000001" xmlns="http://www.w3.org/2000/svg">

 <g>
  <title>Layer 1</title>
  <g id="svg_26">
   <g id="svg_1" fill="rgb(254,207,55)">
    <g id="svg_2">
     <path id="svg_3" d="m1.00009,721.03027c-3,-5 -5,-168 -3,-362l2,-354l283,-3l282,-2l0,365l0,365l-279,0c-154,0 -282,-4 -285,-9zm346,-91c111,-31 154,-165 78,-242c-16,-15 -24,-28 -19,-28c16,0 39,-59 39,-101c0,-100 -62,-139 -220,-139l-100,0l0,253c0,140 3,257 7,260c10,11 174,8 215,-3z"/>
     <path id="svg_4" d="m230.00009,480.03027l0,-60l46,0c52,0 59,8 59,65c0,39 -20,55 -72,55l-33,0l0,-60z"/>
     <path id="svg_5" d="m230.00009,275.03027l0,-55l38,0c30,0 40,5 48,24c23,50 -4,85 -66,86c-18,0 -20,-7 -20,-55z"/>
    </g>
   </g>
   <g id="svg_6" fill="rgb(63,60,61)">
    <g id="svg_7">
     <path id="svg_8" d="m800.00009,603.03027c-11,-3 -34,-16 -52,-29c-45,-34 -56,-82 -51,-235c3,-110 6,-131 24,-156c73,-100 242,-75 268,39c6,25 4,28 -19,28c-18,0 -25,-5 -25,-19c0,-11 -11,-33 -24,-48c-20,-23 -32,-28 -71,-28c-40,0 -51,5 -77,33l-29,34l3,148c3,167 9,180 79,201c31,10 43,9 76,-7l38,-19l3,-72l3,-73l-41,0c-29,0 -40,-4 -40,-15c0,-12 14,-15 65,-15l65,0l0,89l0,90l-34,26c-35,27 -116,41 -161,28z"/>
     <path id="svg_9" d="m1855.00009,375.03027l0,-235l34,0c26,0 35,5 41,23c9,30 49,172 78,280c34,123 43,121 81,-18c16,-55 34,-118 41,-140c7,-22 18,-64 25,-93c12,-52 12,-52 51,-52l39,0l0,235l0,235l-26,0l-26,0l4,-185c3,-171 2,-185 -14,-185c-11,0 -18,7 -18,18c0,9 -23,92 -52,185c-41,133 -55,167 -69,167c-12,0 -20,-11 -24,-32c-4,-18 -21,-76 -37,-128c-85,-273 -91,-275 -82,-26l7,186l-26,0l-27,0l0,-235z"/>
     <path id="svg_10" d="m2615.00009,375.03027l-1,-235l26,0l25,0l0,235l0,235l-24,0l-25,0l-1,-235z"/>
     <path id="svg_11" d="m3095.00009,375.03027l0,-235l28,0c25,0 33,12 116,180c50,99 96,180 103,180c10,0 13,-38 13,-180c0,-173 1,-180 20,-180c19,0 20,7 20,235l0,235l-25,0c-23,0 -34,-17 -113,-179c-118,-243 -124,-243 -120,-1l3,180l-22,0l-23,0l0,-235z"/>
     <path id="svg_12" d="m3745.00009,591.03027c-20,-10 -44,-36 -57,-61c-20,-37 -23,-58 -23,-153c0,-60 5,-127 11,-148c22,-73 98,-116 179,-103c62,11 89,36 104,96c9,41 -27,39 -44,-2c-17,-42 -47,-60 -95,-60c-43,1 -61,11 -88,50c-23,34 -25,266 -2,310c28,54 98,75 154,45c35,-18 41,-32 41,-100c0,-58 -7,-65 -58,-59c-26,3 -32,0 -32,-16c0,-18 7,-20 71,-20l70,0l-2,87c-3,79 -6,90 -29,111c-14,14 -35,28 -48,33c-39,15 -115,10 -152,-10z"/>
    </g>
   </g>
   <g id="svg_13" fill="rgb(96,94,95)">
    <g id="svg_14">
     <path id="svg_15" d="m1292.00009,563.03027c31,-98 63,-202 122,-393c5,-17 16,-26 32,-28c24,-3 27,3 58,105c18,59 37,122 43,138c5,17 20,66 33,110c13,44 27,88 30,98c6,13 2,17 -16,17c-20,0 -27,-9 -42,-59c-11,-33 -26,-62 -34,-65c-27,-11 -129,-6 -147,7c-9,7 -23,35 -30,62c-10,42 -16,50 -38,53l-26,3l15,-48zm220,-140c-14,-79 -53,-203 -64,-203c-7,0 -17,19 -23,43c-7,23 -17,60 -25,82c-7,22 -16,55 -20,73l-7,32l72,0l72,0l-5,-27z"/>
    </g>
   </g>
   <g id="svg_16" fill="rgb(123,124,127)">
    <g id="svg_17">
     <path id="svg_18" d="m1749.00009,490.03027c0,-135 2,-190 3,-122c2,67 2,177 0,245c-1,67 -3,12 -3,-123z"/>
     <path id="svg_19" d="m2940.00009,365.03027c0,-203 1,-285 2,-182c2,104 2,270 0,370c-1,100 -2,16 -2,-188z"/>
     <path id="svg_20" d="m3532.00009,723.03027c-11,-11 -8,-711 3,-718c7,-4 10,118 10,359c0,201 -1,366 -3,366c-2,0 -7,-3 -10,-7z"/>
    </g>
   </g>
   <g id="svg_21" fill="rgb(141,141,144)">
    <g id="svg_22">
     <path id="svg_23" d="m1150.00009,365.03027c0,-203 1,-285 2,-182c2,104 2,270 0,370c-1,100 -2,16 -2,-188z"/>
     <path id="svg_24" d="m2335.00009,365.03027c0,-203 2,-366 5,-363c3,3 6,166 6,363c0,197 -3,360 -6,363c-3,3 -5,-160 -5,-363z"/>
     <path id="svg_25" d="m1749.00009,130.03027c0,-74 1,-105 3,-67c2,37 2,97 0,135c-2,37 -3,6 -3,-68z"/>
    </g>
   </g>
  </g>
 </g>
</svg>