<?xml version="1.0"?>
<svg xmlns="http://www.w3.org/2000/svg" viewBox="0 0 276.61 77.11" width="65" height="35"><g id="Layer_2" data-name="Layer 2"><g id="Layer_1-2" data-name="Layer 1"><path d="M83.33,45.87a18,18,0,0,0,13.76,6A21.21,21.21,0,0,0,105,50.12l.47-8.78-25.71-1A20.92,20.92,0,0,0,83.33,45.87Zm-44-7L36.38,51H50l1.07-6.22h8.87l1,6.22H74.5L72.19,40.1ZM52.77.89,44,37.7l32.91,1.23-8-38Zm4.74,32.26,1.32-7.68.91-5.93c0-.11.07-.41.13-.92s.17-1.42.32-2.73c.08-.65.16-1.26.23-1.81s.14-1,.18-1.49L61,17.22c.1,1,.19,1.74.25,2.37s.12,1.11.16,1.47q.6,4.83.66,5.52a5,5,0,0,0,.13.86l.85,5.71Zm42.5,4a7.27,7.27,0,0,1-2.61-2.47,12.64,12.64,0,0,1-1.62-4,22.64,22.64,0,0,1-.57-5.32c0-4.11.76-7.32,2.27-9.65a7.17,7.17,0,0,1,6.31-3.45c2.07,0,4.07,1,6,2.94v-14A19,19,0,0,0,103.32,0Q93.51,0,87.64,7T81.77,25.57A32.11,32.11,0,0,0,84.4,39.2l25.7,1,.29-5.36Q106.94,38,103.54,38A7.12,7.12,0,0,1,100,37.11ZM157.5,23.4A16.77,16.77,0,0,0,160,26.7a29.41,29.41,0,0,0,3.66,3.21l2.14,1.68q2.34,1.88,2.34,3.84a2.87,2.87,0,0,1-.28,1.26,2.7,2.7,0,0,1-.8,1,4.15,4.15,0,0,1-2.77.91q-4.51,0-8.4-5.33v8.59l23.39.88a17.78,17.78,0,0,0,2-8.65,14.58,14.58,0,0,0-1.83-7.42,20.38,20.38,0,0,0-6-6.19l-2.08-1.55Q168.73,17,168.73,15a2.59,2.59,0,0,1,1-2.07,3.55,3.55,0,0,1,2.49-.88,7,7,0,0,1,4,1.44,14.07,14.07,0,0,1,3.66,4v-15A20.22,20.22,0,0,0,170.46,0a13.42,13.42,0,0,0-9,3.17,13.86,13.86,0,0,0-2.4,2.56,18.07,18.07,0,0,0-3.4,10.35,15.75,15.75,0,0,0,.44,3.81,13.9,13.9,0,0,0,1.39,3.5ZM0,51H13.16V37.9L0,37.41ZM24.12,37l13.16.5V.89H24.12V18.21H17.84V.89H4.69V36.23l13.15.49V30.17h6.28V37ZM19.44,51H32.6V38.62l-13.16-.49V51ZM137.21.89l-7.76,21,.34-21H116.64V40.41l13,.48-.2-13.61,5.34,13.81,13.75.51-8-17.08L151.09.89Zm57.52,0L184.68,43,220,44.27,210.82.89Zm4.73,32.26,1.33-7.68.91-5.93c0-.11.06-.41.13-.92s.17-1.42.31-2.73c.09-.65.16-1.26.24-1.81s.13-1,.17-1.49l.41,4.63c.11,1,.19,1.74.26,2.37s.11,1.11.15,1.47q.6,4.83.67,5.52a6.14,6.14,0,0,0,.12.86l.85,5.71ZM227.72,51h12.81l.65-4.63-14.61-.55ZM112,41.59V51h13.16l-.14-9ZM263.77.89l-2.4,15.19c-.34,2.12-.64,4.47-.92,7.08s-.53,5.58-.75,8.94Q258.53,20.88,257,12.66L254.74.89H243.41l-2.46,14q-1,6.06-1.7,12.78l-.41,3.84L238.4,27q-.48-4.61-1.71-12.66L234.55.89h-13l9.71,43.8,14.6.54L247.7,32.1c.21-1.48.39-2.88.54-4.22s.27-2.6.38-3.8c.21-2.37.37-4,.47-4.86,0,.43.12,1,.23,1.84s.23,1.81.37,3q.45,3.65,1.33,8.62l2.26,12.81L267.5,46,276.61.89ZM249.36,51h12.69l.77-3.82-14.22-.53Zm-47.47-6.1,1,6.1h13.6l-1.18-5.6Zm-50.72,4.9a27.59,27.59,0,0,0,9.94,2.06,14.56,14.56,0,0,0,11.11-4.7,16.17,16.17,0,0,0,2.34-3.28l-23.39-.87ZM130.1,42.26,133.5,51h14.2l-3.85-8.26ZM178.34,51h13.59L193,44.82l-13-.69ZM13,67.3h8.57c0,.81,0,1.61-.11,2.41a9.22,9.22,0,0,1-.44,2A8.11,8.11,0,0,1,19.73,74a7.26,7.26,0,0,1-1.86,1.68,8.56,8.56,0,0,1-2.34,1,10.2,10.2,0,0,1-2.69.36,9.44,9.44,0,0,1-3.53-.64,8,8,0,0,1-2.75-1.81,8.36,8.36,0,0,1-1.78-2.79,10.44,10.44,0,0,1,0-7.17,7.93,7.93,0,0,1,1.78-2.78,8.23,8.23,0,0,1,2.79-1.79A9.79,9.79,0,0,1,13,59.49a8.87,8.87,0,0,1,4.56,1.13,7.77,7.77,0,0,1,3.1,3.49l-4.09,1.71a4.16,4.16,0,0,0-1.49-2,3.74,3.74,0,0,0-2.08-.6,4.27,4.27,0,0,0-1.76.36,3.83,3.83,0,0,0-1.35,1A5,5,0,0,0,9,66.28a6.44,6.44,0,0,0-.32,2.13,6.6,6.6,0,0,0,.27,2A4.48,4.48,0,0,0,9.76,72a3.72,3.72,0,0,0,1.36,1,4.59,4.59,0,0,0,1.9.36,4.65,4.65,0,0,0,1.23-.14,3.5,3.5,0,0,0,1.07-.46,2.81,2.81,0,0,0,.78-.83,3.51,3.51,0,0,0,.42-1.24H13V67.3Zm52.56,6.44H59.37l-1,2.9h-4.6L60.1,60h4.71l6.32,16.69h-4.6Zm-1.14-3.3-1.94-5.55-1.94,5.55ZM104,76.64,106.8,60h4.27l3.33,8.9,3.3-8.9H122l2.82,16.7H120.5L119.07,67l-3.92,9.6h-1.72L109.71,67l-1.43,9.6ZM163.55,60V76.64h-4.31V60Zm35.19,16.69V60h4.32l8,10.21V60h4.29V76.64H211l-8-10.2v10.2ZM258.9,67.3h8.57c0,.89,0,1.69-.11,2.42a9.26,9.26,0,0,1-.44,2A8.11,8.11,0,0,1,265.66,74a7.3,7.3,0,0,1-1.86,1.69,9.06,9.06,0,0,1-2.34,1,10.62,10.62,0,0,1-2.69.35,9.52,9.52,0,0,1-3.54-.64,7.92,7.92,0,0,1-4.52-4.6,10.46,10.46,0,0,1,0-7.17,7.93,7.93,0,0,1,1.78-2.78,8.23,8.23,0,0,1,2.79-1.79,9.79,9.79,0,0,1,3.63-.64,8.87,8.87,0,0,1,4.56,1.13,7.85,7.85,0,0,1,3.11,3.49l-4.1,1.71a4.23,4.23,0,0,0-1.49-2,3.74,3.74,0,0,0-2.08-.6,4.09,4.09,0,0,0-1.76.37,3.63,3.63,0,0,0-1.35,1,4.85,4.85,0,0,0-.89,1.62,6.71,6.71,0,0,0-.32,2.13,6.9,6.9,0,0,0,.28,2,4.48,4.48,0,0,0,.83,1.57,3.62,3.62,0,0,0,1.36,1,4.6,4.6,0,0,0,1.9.37,5.17,5.17,0,0,0,1.23-.15,3.27,3.27,0,0,0,1.07-.46,2.81,2.81,0,0,0,.78-.83,3.51,3.51,0,0,0,.42-1.24H258.9Z"/></g></g></svg>
