<?xml version="1.0"?>
<svg xmlns="http://www.w3.org/2000/svg" width="65" height="35" viewBox="0 0 8000 4000">

 <g>
  <title>Layer 1</title>
  <g id="svg_65">
   <g id="svg_1" fill="rgb(0,0,0)">
    <g id="svg_2">
     <path id="svg_3" d="m3505,3939c-153,-12 -327,-28 -410,-39c-207,-27 -250,-34 -355,-51c-1005,-170 -1828,-534 -2315,-1023c-288,-290 -425,-618 -386,-926c7,-55 11,-107 7,-115c-3,-9 -1,-37 4,-62c13,-55 7,-66 -11,-24c-8,17 -17,31 -21,31c-11,0 -10,-46 1,-68c4,-9 30,-62 57,-117c70,-142 152,-252 289,-390c335,-335 838,-606 1491,-804c225,-68 695,-172 909,-202c458,-62 705,-79 1171,-79c360,0 501,6 759,30c994,95 1865,368 2469,773c226,151 448,356 559,514c172,246 247,497 219,739c-6,55 -10,110 -9,124c1,14 -2,40 -6,59c-6,29 -5,32 8,21c13,-11 15,-7 15,24c0,23 -16,66 -43,119c-186,357 -534,659 -1052,913c-444,216 -938,365 -1575,474c-173,29 -427,58 -713,80c-149,12 -903,11 -1062,-1zm950,-204c473,-26 792,-66 1166,-145c725,-154 1333,-403 1764,-723c216,-160 471,-447 491,-552c8,-43 2,-52 -19,-30c-14,14 -16,4 -15,-107c0,-142 -19,-253 -62,-363c-159,-402 -539,-741 -1139,-1015c-196,-90 -497,-203 -651,-244c-30,-8 -89,-24 -130,-35c-666,-183 -1492,-274 -2211,-242c-465,20 -760,52 -1144,123c-738,136 -1405,392 -1863,715c-213,150 -441,387 -517,537c-29,57 -33,99 -10,90c12,-5 15,3 16,32c6,195 10,230 40,339c22,77 23,79 68,179c206,449 783,852 1611,1125c94,31 111,36 200,61c25,7 56,16 70,21c53,17 322,79 474,109c349,68 621,100 1041,124c306,18 507,18 820,1z"/>
     <path id="svg_4" d="m1670,3056c-47,-12 -120,-58 -157,-98c-33,-35 -53,-91 -53,-148c0,-134 99,-200 200,-134c68,46 97,116 79,191c-12,44 -65,103 -94,103c-8,0 -15,5 -15,10c0,6 16,10 37,10c88,0 153,-109 223,-374c11,-43 18,-81 15,-84c-3,-3 -15,4 -28,15c-48,45 -91,63 -147,63c-62,0 -97,-17 -158,-78c-51,-51 -78,-113 -92,-210c-36,-266 101,-565 306,-663c111,-53 211,-36 281,49l22,26l10,-25c5,-13 12,-32 15,-41c5,-16 21,-18 151,-18c90,0 145,4 145,10c0,6 6,10 14,10c8,0 18,5 21,11c4,5 -21,121 -54,257c-34,136 -66,270 -72,297c-6,28 -19,88 -30,135c-11,47 -22,92 -24,100c-24,108 -82,297 -109,356c-85,184 -293,282 -486,230zm172,-603c90,-98 182,-355 194,-543c9,-144 -18,-209 -60,-144c-19,28 -159,572 -171,662c-8,59 0,64 37,25z"/>
     <path id="svg_5" d="m5770,3055c-7,-8 -19,-15 -26,-15c-23,0 -16,-37 11,-54c52,-34 58,-53 200,-611c52,-203 108,-422 124,-485c41,-152 41,-150 -11,-150c-55,-1 -104,-37 -93,-69c6,-19 14,-21 79,-21c47,0 77,-5 83,-12c6,-7 22,-44 37,-83c41,-104 56,-134 97,-195c74,-111 163,-169 257,-170c57,0 95,15 155,62c49,39 63,69 70,149c5,60 4,70 -20,107c-44,68 -111,69 -180,2c-45,-43 -59,-89 -48,-156c7,-38 6,-38 -9,-17c-23,31 -71,239 -65,283c4,23 9,25 59,28c30,2 58,8 62,15c5,8 13,8 30,-1c13,-6 50,-13 82,-14l59,-3l12,-45c7,-25 27,-108 45,-185c17,-77 37,-156 44,-175l12,-35l129,-2c124,-3 131,-1 159,21c32,27 35,2 -25,258c-17,75 -29,143 -26,152c4,10 19,16 39,16c44,1 81,29 76,61c-3,22 -8,24 -68,27c-36,2 -69,7 -74,12c-11,11 -39,109 -62,220c-9,41 -28,129 -44,195c-57,244 -68,305 -52,305c15,0 56,-57 80,-110c35,-81 62,-152 62,-167c0,-25 27,-25 56,2c26,24 27,28 15,63c-30,87 -56,147 -73,164c-10,10 -18,24 -18,32c0,23 -83,117 -122,137c-46,23 -142,25 -186,4c-50,-25 -107,-87 -120,-131c-25,-85 -13,-162 87,-575c17,-70 31,-132 31,-138c0,-6 -14,-11 -32,-11c-17,0 -40,-7 -50,-17c-17,-15 -19,-15 -36,0c-14,13 -38,17 -95,17l-76,0l-10,38c-6,20 -11,48 -11,62c0,13 -9,67 -20,120c-10,52 -33,174 -50,270c-18,96 -52,265 -77,375c-25,110 -49,223 -54,250c-8,55 -32,144 -48,188l-11,27l-174,0c-142,0 -176,-3 -186,-15z"/>
     <path id="svg_6" d="m3522,2579c-95,-46 -181,-133 -222,-221c-31,-67 -34,-83 -38,-188c-4,-104 -1,-122 23,-194c56,-166 153,-268 318,-335c37,-15 201,-14 246,1c20,7 65,31 101,54c95,62 142,119 179,219c43,116 23,364 -35,422c-8,8 -14,21 -14,29c0,8 -34,50 -76,94c-56,58 -95,89 -143,113c-59,29 -75,32 -171,35c-100,2 -108,1 -168,-29zm138,-76c25,-31 25,-33 110,-401c38,-166 70,-319 70,-341c0,-52 -22,-71 -58,-50c-40,22 -56,62 -107,277c-25,108 -51,217 -57,242c-18,76 -38,182 -45,234c-5,39 -2,52 11,62c23,16 52,7 76,-23z"/>
     <path id="svg_7" d="m4430,2598c-14,-6 -39,-17 -56,-24c-51,-22 -133,-93 -158,-137c-67,-118 -21,-247 88,-247c36,0 53,7 95,40c27,22 55,49 61,59c24,45 4,148 -34,180c-10,8 -33,15 -52,15c-89,2 20,47 117,49c58,1 71,-2 102,-26c40,-30 54,-73 43,-132c-8,-43 -47,-80 -151,-144c-172,-106 -228,-178 -228,-291c0,-133 81,-242 216,-291c72,-27 227,-26 298,0c65,25 151,90 179,136c30,48 30,153 0,195c-40,56 -122,45 -194,-25c-44,-42 -46,-47 -46,-100c0,-67 19,-100 67,-116c44,-14 30,-25 -45,-35c-103,-13 -172,38 -172,126c0,63 27,97 134,170c194,132 236,198 216,339c-13,94 -32,132 -88,182c-46,40 -77,57 -141,78c-43,14 -218,13 -251,-1z"/>
     <path id="svg_8" d="m5285,2590c-110,-43 -229,-169 -263,-280c-24,-79 -23,-256 2,-330c47,-138 147,-258 263,-313c64,-30 74,-32 183,-32c107,0 119,2 175,29c84,41 177,137 218,223c30,65 31,73 31,193c0,142 -10,183 -74,291c-63,107 -168,193 -279,228c-56,18 -199,13 -256,-9zm103,-75c32,-27 47,-67 82,-220c11,-49 31,-137 44,-195c85,-363 84,-355 62,-385c-14,-19 -16,-19 -50,-3c-52,25 -57,38 -113,298c-8,41 -26,122 -40,180c-13,58 -28,126 -33,153c-6,26 -15,69 -22,96c-10,43 -9,53 6,75c21,32 27,32 64,1z"/>
     <path id="svg_9" d="m590,2581c0,-5 -9,-13 -21,-16c-14,-5 -19,-14 -17,-28c3,-19 11,-23 63,-28c33,-3 68,-9 77,-13c22,-10 53,-77 68,-146c16,-78 40,-189 59,-270c60,-261 154,-707 158,-752l6,-58l-38,0c-44,0 -107,-37 -102,-60c2,-13 51,-15 357,-18l355,-2l30,24c25,20 28,26 16,40c-9,11 -30,16 -63,16c-89,0 -110,29 -152,218c-61,273 -98,441 -106,485c-10,48 -25,120 -41,195c-9,44 -18,82 -44,197c-9,39 -15,86 -13,105c3,32 6,35 40,38c20,2 42,10 48,18c7,8 18,14 25,14c15,0 24,19 18,38c-6,15 -723,18 -723,3z"/>
     <path id="svg_10" d="m2477,2566l-28,-23l39,-159c22,-87 54,-222 72,-299c18,-77 41,-173 52,-214c20,-77 18,-97 -7,-65c-26,33 -41,66 -70,154c-31,97 -41,112 -58,89c-7,-8 -20,-18 -29,-22c-10,-3 -18,-12 -18,-18c0,-22 51,-154 85,-219c63,-118 114,-160 197,-160c44,0 63,6 100,30c55,36 73,62 89,124c10,41 29,64 29,35c0,-28 59,-125 94,-155c54,-46 114,-48 173,-5c54,39 70,64 84,127c22,97 -17,216 -82,249c-40,21 -72,13 -125,-30c-37,-31 -49,-49 -69,-110c-6,-18 -8,-17 -20,10c-56,125 -116,317 -155,500c-12,55 -27,118 -34,140l-11,40l-140,2c-133,2 -141,1 -168,-21z"/>
     <path id="svg_11" d="m7470,811c-111,-23 -232,-119 -279,-221c-22,-47 -25,-69 -26,-150c0,-82 4,-103 27,-152c61,-131 191,-218 329,-218c99,0 253,75 313,154c54,71 76,138 76,232c0,76 -4,94 -31,152c-61,126 -166,199 -302,207c-40,2 -88,1 -107,-4zm183,-109c49,-24 61,-42 27,-42c-39,0 -78,-29 -108,-82c-35,-63 -64,-91 -89,-86c-15,3 -19,16 -23,83c-5,74 -7,80 -28,83c-13,2 -34,-4 -48,-12l-24,-16l0,-190l0,-190l26,-6c41,-10 199,3 231,19c38,20 69,56 77,90c9,37 -19,94 -55,113c-16,8 -29,17 -29,20c0,3 15,23 33,45c19,21 42,57 53,79c10,22 22,40 25,40c12,0 38,-36 63,-86c39,-77 37,-173 -4,-260c-18,-36 -45,-74 -64,-89c-138,-105 -342,-53 -428,108c-32,60 -33,203 -1,262c29,54 79,104 128,127c55,26 171,21 238,-10zm-81,-309c38,-34 12,-73 -51,-73c-50,0 -61,9 -61,51l0,39l47,0c29,0 53,-6 65,-17z"/>
    </g>
   </g>
   <g id="svg_12" fill="rgb(255,255,255)">
    <g id="svg_13">
     <path id="svg_14" d="m3670,3938c-30,-3 112,-5 315,-3c267,2 391,-1 445,-10c41,-7 165,-16 275,-20c110,-4 203,-12 206,-17c3,-5 30,-11 60,-13c182,-14 241,-22 247,-31c4,-6 34,-14 67,-18c235,-26 882,-193 1155,-298c102,-39 444,-196 530,-243c145,-80 390,-248 510,-351c188,-162 337,-355 432,-559c32,-69 42,-85 50,-85c12,0 10,58 -2,65c-5,3 -10,15 -10,26c0,10 -4,19 -10,19c-5,0 -10,7 -10,17c0,43 -136,257 -209,327c-22,22 -38,43 -35,48c3,5 2,7 -3,6c-4,-1 -57,46 -118,105c-108,106 -236,209 -345,279c-78,50 -210,128 -215,128c-9,0 -160,74 -195,95c-76,47 -397,172 -595,233c-570,175 -1014,254 -1645,294c-201,13 -811,17 -900,6z"/>
     <path id="svg_15" d="m3370,3922c-14,-1 -68,-7 -120,-12c-79,-7 -69,-8 65,-3c88,3 178,5 200,4c30,-1 36,1 25,9c-13,9 -105,11 -170,2z"/>
     <path id="svg_16" d="m2980,3880c-50,-11 1,-11 60,-1c41,8 42,8 10,8c-19,0 -51,-3 -70,-7z"/>
     <path id="svg_17" d="m2873,3863c15,-2 37,-2 50,0c12,2 0,4 -28,4c-27,0 -38,-2 -22,-4z"/>
     <path id="svg_18" d="m2613,3823c9,-2 25,-2 35,0c9,3 1,5 -18,5c-19,0 -27,-2 -17,-5z"/>
     <path id="svg_19" d="m1760,3060c30,-5 59,-6 65,-2c5,3 5,-1 -2,-9c-10,-12 -3,-17 45,-28c128,-30 242,-154 295,-322c15,-46 56,-208 92,-359c94,-407 161,-664 172,-667c27,-9 17,49 -51,330c-73,295 -100,410 -132,552c-21,95 -62,220 -90,277c-35,69 -127,163 -187,191c-65,31 -142,47 -210,46l-52,-1l55,-8z"/>
     <path id="svg_20" d="m5785,3060c-4,-6 9,-10 32,-10c21,0 49,-3 62,-7c17,-4 22,-3 17,5c-12,20 179,16 198,-4c9,-8 16,-17 16,-18c0,-1 14,-60 30,-132c108,-462 142,-633 206,-1016l28,-168l29,0c15,0 26,4 22,9c-3,6 10,5 31,-1c20,-5 45,-8 54,-5c12,3 22,-4 29,-19c15,-34 43,-32 39,4c-3,26 -5,27 -58,25c-37,-1 -48,1 -35,7c15,6 8,9 -29,11l-50,4l-18,105c-9,58 -22,137 -29,175c-15,92 -116,603 -134,680c-7,33 -28,121 -45,195c-18,74 -35,142 -39,150c-7,12 -39,15 -179,18c-108,1 -173,-1 -177,-8z"/>
     <path id="svg_21" d="m1590,2960c-12,-7 -11,-10 5,-15c86,-26 105,-58 114,-188c1,-5 6,-5 11,-2c6,3 10,39 10,78c0,53 -5,78 -18,93c-32,40 -88,56 -122,34z"/>
     <path id="svg_22" d="m1676,2602c-2,-4 8,-9 24,-10c62,-5 125,-46 185,-122c11,-14 17,-21 13,-16c-14,18 -8,29 8,15c13,-11 14,-9 9,17c-9,39 -74,100 -121,113c-46,13 -111,14 -118,3z"/>
     <path id="svg_23" d="m3595,2600c-16,-8 -12,-9 18,-5c45,7 171,-26 239,-62c65,-35 169,-146 206,-219c50,-98 65,-174 59,-290c-3,-72 -11,-114 -25,-147c-34,-76 -15,-53 25,29c33,70 36,84 36,168c0,89 -18,202 -35,212c-4,3 -8,12 -8,21c0,24 -90,151 -133,188c-21,18 -70,50 -108,70c-63,33 -80,37 -162,41c-51,2 -101,0 -112,-6z"/>
     <path id="svg_24" d="m4465,2599c-23,-6 -17,-7 22,-3c62,5 188,-25 249,-61c87,-51 142,-148 146,-260c2,-39 -1,-79 -6,-90c-9,-18 -8,-19 7,-6c39,31 47,174 13,239c-21,41 -95,121 -135,146c-20,13 -57,28 -83,34c-53,13 -168,14 -213,1z"/>
     <path id="svg_25" d="m5400,2600c160,-36 214,-64 302,-155c128,-134 162,-221 162,-405c0,-86 -5,-124 -17,-148c-8,-18 -11,-32 -6,-32c12,0 29,44 29,76c0,14 4,22 10,19c14,-8 13,228 0,277c-6,21 -11,40 -10,43c2,24 -67,125 -132,191c-109,112 -180,145 -308,143c-56,-1 -60,-2 -30,-9z"/>
     <path id="svg_26" d="m6740,2599c-12,-8 -12,-10 5,-8c85,9 200,-77 241,-180c9,-22 20,-39 24,-36c5,3 6,-4 3,-15c-3,-12 1,-22 10,-26c19,-7 51,-89 41,-105c-4,-8 -3,-9 4,-5c7,4 12,1 12,-8c0,-20 19,-21 26,-2c7,18 -27,119 -70,205c-60,122 -144,191 -234,191c-26,0 -54,-5 -62,-11z"/>
     <path id="svg_27" d="m604,2579c-10,-17 23,-21 129,-14c62,3 204,8 317,10c198,3 206,2 228,-18c19,-18 25,-19 32,-8c24,40 13,42 -352,39c-192,-1 -351,-5 -354,-9z"/>
     <path id="svg_28" d="m2505,2580c-3,-5 3,-10 13,-10c11,0 35,-3 53,-6c26,-4 30,-3 19,5c-11,8 9,11 75,11c79,0 91,-2 92,-17c3,-66 105,-462 131,-509c18,-31 39,-84 63,-156c27,-80 55,-103 44,-36c-4,23 -11,49 -16,58c-13,25 -74,200 -92,265c-47,171 -57,207 -78,293c-12,50 -26,92 -31,92c-5,0 -6,5 -3,10c4,6 -41,10 -129,10c-79,0 -137,-4 -141,-10z"/>
     <path id="svg_29" d="m3540,2496c-11,-29 -4,-75 39,-266c59,-263 121,-495 139,-520c13,-17 30,-26 55,-28c39,-3 51,12 17,23c-47,15 -62,60 -150,440c-18,77 -39,165 -47,195c-7,30 -16,81 -20,113c-7,65 -18,80 -33,43z"/>
     <path id="svg_30" d="m5292,2503c-6,-12 -12,-32 -12,-44c0,-33 149,-698 162,-723c21,-41 41,-56 74,-56c25,0 32,4 28,15c-3,8 -14,17 -25,20c-29,9 -45,49 -79,191c-17,71 -35,146 -41,167c-6,22 -16,69 -24,105c-7,37 -25,119 -39,182c-14,63 -27,126 -28,140l-3,25l-13,-22z"/>
     <path id="svg_31" d="m1144,2486c-9,-22 48,-306 142,-721c26,-110 59,-258 75,-330c38,-171 54,-191 153,-194c22,-1 47,-8 56,-16c15,-14 18,-14 30,0c24,29 -5,45 -84,46c-39,0 -65,3 -58,6c9,3 7,9 -7,21c-27,25 -33,46 -116,422c-42,190 -91,413 -109,495c-34,148 -52,248 -49,273c1,17 -26,15 -33,-2z"/>
     <path id="svg_32" d="m4350,2475c0,-9 11,-20 24,-25c14,-5 32,-21 42,-35c21,-33 30,-106 15,-134c-11,-21 -11,-21 9,-9c26,16 34,46 28,110c-4,42 -11,57 -37,80c-34,31 -81,38 -81,13z"/>
     <path id="svg_33" d="m1765,2460c-6,-18 124,-568 161,-681c17,-54 49,-88 65,-72c7,7 3,25 -14,59c-13,27 -34,90 -47,139c-12,50 -46,189 -76,310c-65,268 -64,265 -74,265c-5,0 -11,-9 -15,-20z"/>
     <path id="svg_34" d="m6849,2458c-3,-34 5,-84 32,-208c45,-202 79,-347 99,-420c10,-36 21,-77 24,-92c6,-27 9,-28 65,-28c43,0 65,-5 83,-20c29,-22 38,-18 38,18c0,23 -2,24 -51,17c-37,-5 -50,-4 -45,4c5,7 -3,11 -23,11c-24,0 -32,5 -36,23c-3,12 -25,105 -49,207c-24,102 -55,237 -70,300c-39,170 -48,200 -57,200c-5,0 -9,-6 -10,-12z"/>
     <path id="svg_35" d="m298,2433c-15,-18 -46,-73 -35,-63c9,8 57,80 53,80c-1,0 -10,-8 -18,-17z"/>
     <path id="svg_36" d="m210,2280c-11,-22 -16,-40 -10,-40c5,0 10,2 10,4c0,2 7,20 15,40c20,48 10,46 -15,-4z"/>
     <path id="svg_37" d="m7886,2245c3,-38 10,-89 16,-112c10,-40 6,-252 -5,-318c-15,-86 -19,-120 -14,-115c3,3 7,16 9,30c1,14 8,31 15,37c18,20 26,129 21,301c-4,135 -7,163 -26,202l-22,45l6,-70z"/>
     <path id="svg_38" d="m160,2153c0,-10 -7,-31 -15,-47c-8,-15 -15,-38 -15,-51c0,-12 -6,-38 -14,-56c-9,-22 -14,-72 -14,-139c0,-90 2,-107 18,-122c18,-17 19,-14 19,105c0,67 5,149 10,181c6,32 8,62 6,67c-3,4 -1,9 5,11c14,5 25,68 11,68c-6,0 -11,-8 -11,-17z"/>
     <path id="svg_39" d="m7943,2025c0,-44 2,-61 4,-37c2,23 2,59 0,80c-2,20 -4,1 -4,-43z"/>
     <path id="svg_40" d="m2475,2050c-8,-12 48,-185 81,-252c21,-41 56,-69 70,-55c3,3 -11,38 -30,78c-20,41 -48,110 -64,153c-28,78 -43,98 -57,76z"/>
     <path id="svg_41" d="m3140,2023c0,-5 15,-15 32,-23c55,-26 70,-58 76,-158c3,-58 0,-97 -7,-113c-11,-22 -10,-22 13,4c30,33 32,70 12,186c-16,85 -37,111 -92,111c-19,0 -34,-3 -34,-7z"/>
     <path id="svg_42" d="m4860,2011c0,-6 -11,-11 -24,-11c-46,0 -34,-15 13,-18c68,-3 91,-35 91,-124c0,-38 4,-68 8,-68c14,0 32,64 32,113c0,37 -6,53 -27,77c-29,31 -93,53 -93,31z"/>
     <path id="svg_43" d="m2874,1885c5,-60 -6,-133 -26,-170c-9,-17 -7,-16 15,4c15,13 33,47 41,75c15,49 14,52 -9,101l-25,50l4,-60z"/>
     <path id="svg_44" d="m4525,1830c-8,-36 10,-102 32,-122c30,-27 153,-52 139,-29c-4,5 0,11 6,14c7,2 -8,7 -34,11c-33,5 -55,16 -77,38c-17,17 -28,35 -25,40c3,4 0,8 -7,8c-7,0 -9,10 -6,29c8,40 -19,51 -28,11z"/>
     <path id="svg_45" d="m43,1758c3,-13 9,-41 13,-62c4,-22 21,-59 38,-82c17,-24 56,-78 86,-120c199,-281 651,-591 1146,-787c265,-105 332,-129 474,-170c85,-25 187,-53 225,-62c39,-9 115,-27 170,-40c175,-42 229,-54 285,-64c62,-10 290,-46 393,-61c37,-5 119,-10 181,-10c73,0 116,-4 118,-11c2,-6 74,-14 193,-19c105,-5 235,-14 290,-20c92,-9 553,-5 564,6c2,2 -126,4 -285,4c-159,0 -316,5 -349,10c-33,6 -130,15 -215,20c-475,30 -939,110 -1465,251c-159,43 -562,189 -670,243c-16,8 -64,30 -105,49c-41,19 -124,63 -185,97c-60,34 -123,70 -140,78c-43,23 -145,95 -305,215c-41,31 -109,91 -151,134c-80,81 -179,205 -179,223c0,5 -4,10 -10,10c-5,0 -10,7 -10,15c0,8 -4,15 -10,15c-5,0 -10,4 -10,10c0,5 -11,20 -25,34c-14,14 -30,45 -37,70c-12,45 -35,67 -25,24z"/>
     <path id="svg_46" d="m2057,1733c-5,-26 -4,-26 9,-8c16,22 18,35 5,35c-5,0 -11,-12 -14,-27z"/>
     <path id="svg_47" d="m6021,1721c-10,-6 2,-9 36,-8c28,1 55,6 59,10c11,10 -78,8 -95,-2z"/>
     <path id="svg_48" d="m6645,1719c-26,-6 -23,-7 19,-8c27,0 46,2 42,6c-9,10 -26,10 -61,2z"/>
     <path id="svg_49" d="m7025,1641c-2,-4 5,-37 15,-72c11,-35 31,-119 45,-186c30,-143 34,-155 49,-150c16,6 12,59 -13,162c-12,50 -29,125 -38,167c-13,57 -22,78 -35,81c-10,3 -20,2 -23,-2z"/>
     <path id="svg_50" d="m6390,1622c0,-39 43,-238 62,-289c10,-29 31,-62 45,-73c27,-21 68,-27 78,-10c3,6 0,10 -8,10c-39,0 -75,57 -97,150c-13,57 -42,194 -45,210c-3,23 -35,25 -35,2z"/>
     <path id="svg_51" d="m6615,1539c-18,-9 -18,-9 3,-5c16,3 34,-6 62,-33c39,-37 40,-40 40,-105c0,-37 -5,-76 -11,-87c-9,-18 -8,-19 10,-7c55,34 53,178 -3,233c-16,17 -70,19 -101,4z"/>
     <path id="svg_52" d="m895,1259c-10,-15 1,-23 20,-15c9,3 13,10 10,16c-8,13 -22,13 -30,-1z"/>
     <path id="svg_53" d="m7660,790c0,-5 4,-10 9,-10c5,0 35,-20 68,-44c90,-69 149,-185 155,-309c3,-84 18,-62 18,28c0,99 -22,159 -86,233c-35,42 -124,110 -124,95c0,-4 -5,-2 -12,5c-15,15 -28,16 -28,2z"/>
     <path id="svg_54" d="m7434,576c-2,-74 0,-84 15,-83c13,1 16,8 13,24c-2,13 -8,23 -11,23c-4,0 -4,24 0,53c3,28 5,55 2,60c-12,21 -18,-1 -19,-77z"/>
     <path id="svg_55" d="m7666,651c-3,-5 5,-11 19,-13c17,-4 25,-1 25,8c0,15 -36,19 -44,5z"/>
     <path id="svg_56" d="m5975,550c-25,-11 1,-11 35,0c20,6 21,8 5,8c-11,0 -29,-3 -40,-8z"/>
     <path id="svg_57" d="m7235,487c-30,-114 64,-291 161,-302l39,-5l-35,16c-70,32 -122,120 -144,241c-11,67 -14,74 -21,50z"/>
     <path id="svg_58" d="m7610,475c0,-5 12,-24 27,-44c19,-24 28,-48 28,-74l0,-39l18,23c19,24 16,49 -12,88c-18,26 -61,58 -61,46z"/>
     <path id="svg_59" d="m7431,363c-1,-41 2,-53 14,-53c10,0 15,10 15,30c0,17 -4,30 -9,30c-5,0 -12,10 -14,23c-2,12 -5,-2 -6,-30z"/>
     <path id="svg_60" d="m5060,350l-35,-7l35,-1c19,0 49,4 65,8l30,8l-30,0c-16,-1 -46,-4 -65,-8z"/>
     <path id="svg_61" d="m4985,343c-16,-2 -52,-8 -79,-13c-27,-6 -87,-13 -135,-16c-97,-7 -119,-14 -45,-14c68,0 277,29 289,41c5,5 7,8 5,8c-3,-1 -18,-4 -35,-6z"/>
     <path id="svg_62" d="m4567,293c-4,-3 -35,-6 -69,-5c-35,0 -83,-3 -108,-8c-34,-6 -18,-8 65,-5c154,5 291,25 168,25c-27,0 -53,-3 -56,-7z"/>
     <path id="svg_63" d="m4270,269l-45,-6l58,-1c31,-1 57,2 57,6c0,10 -7,10 -70,1z"/>
     <path id="svg_64" d="m7498,143c18,-2 45,-2 60,0c15,2 0,4 -33,4c-33,0 -45,-2 -27,-4z"/>
    </g>
   </g>
  </g>
 </g>
</svg>
