<svg xmlns="http://www.w3.org/2000/svg" id="Layer_1" x="0" y="0" viewBox="0 0 879.8 313.2" xml:space="preserve"><style>.st1{fill:#da001f}</style><path fill="#fff" d="M0 0h879.8v313.2H0z"/><path class="st1" d="M24.3 185.6C9 144.3 19.2 107.4 63.2 76.5v-9L105.4 85l-38.2 33.5v-12.7c-24 16.4-39.6 41.5-42.9 79.8zM201 130.2c15.3 41.3 5.1 78.2-38.9 109.1v9l-42.2-17.4 38.2-33.5v12.7c23.9-16.4 39.6-41.6 42.9-79.9z"/><path class="st1" d="M141.5 245.9c-41.1 15.8-78.1 6.2-109.6-37.5l-9 .1 16.9-42.4 34 37.7-12.8.2c16.8 23.8 42.1 39.1 80.5 41.9zM83.8 70c41.1-15.8 78.1-6.2 109.6 37.5l9-.1-16.9 42.4-34-37.7 12.7-.2C147.5 88.1 122.1 72.7 83.8 70z"/><path d="M130.6 156.6v-51.4l-8.8-8.8-62.1 62.8 13.9 13.4H111v36.9l19.3-17.4v-19.3h19.3v-16.3h-19zm-17.9.6H87.6l25.1-25.1v25.1z"/><g><path d="M245.3 198.1v-70.5H219v-9.4h63.3v9.4h-26.4v70.5h-10.6zM290.6 198.1v-79.9h10.6V151h41.5v-32.8h10.6v79.9h-10.6v-37.7h-41.5v37.7h-10.6zM368.2 198.1v-79.9H426v9.4h-47.2v24.5H423v9.4h-44.2v27.2h49.1v9.4h-59.7zM439 198.1v-79.9h25.9c9.8 0 16.2.4 19.2 1.2 4.6 1.2 8.4 3.8 11.5 7.8 3.1 4 4.6 9.2 4.6 15.6 0 4.9-.9 9-2.7 12.4-1.8 3.3-4 6-6.8 7.9-2.7 1.9-5.5 3.2-8.4 3.8-3.9.8-9.4 1.1-16.7 1.1h-10.5v30.1H439zm16.2-66.4v22.7h8.8c6.4 0 10.6-.4 12.8-1.3 2.1-.8 3.8-2.1 5-3.9 1.2-1.8 1.8-3.9 1.8-6.2 0-2.9-.9-5.3-2.6-7.2-1.7-1.9-3.9-3.1-6.5-3.5-1.9-.4-5.8-.5-11.6-.5h-7.7zM511 198.1v-79.3h16.1v65.8h40.1v13.5H511zM647.9 198.1h-17.6l-7-18.2h-31.9l-6.6 18.2h-17.1l31.1-79.9h17.1l32 79.9zm-29.7-31.6l-11-29.7-10.8 29.7h21.8zM664.3 198.1v-33.6L635 118.2h19l18.8 31.6 18.4-31.6h18.6l-29.4 46.4v33.5h-16.1zM714.9 198.1v-79.9h59.3v13.5H731v17.7h40.1v13.5H731v21.7h44.6v13.5h-60.7zM786.5 198.1v-79.9h34c8.5 0 14.7.7 18.6 2.2 3.9 1.4 7 4 9.3 7.7 2.3 3.7 3.5 7.9 3.5 12.6 0 6-1.8 10.9-5.3 14.9-3.5 3.9-8.8 6.4-15.8 7.4 3.5 2 6.4 4.3 8.6 6.7 2.3 2.4 5.3 6.8 9.2 13l9.8 15.6h-19.3l-11.7-17.4c-4.1-6.2-7-10.1-8.5-11.7-1.5-1.6-3.1-2.7-4.9-3.3-1.7-.6-4.4-.9-8.1-.9h-3.3v33.4h-16.1zm16.1-46.1h11.9c7.7 0 12.6-.3 14.5-1 1.9-.7 3.4-1.8 4.5-3.4 1.1-1.6 1.6-3.6 1.6-6 0-2.7-.7-4.9-2.2-6.5-1.4-1.7-3.5-2.7-6.1-3.1-1.3-.2-5.2-.3-11.8-.3h-12.6V152z"/></g><g><path d="M721.3 247.5v-5.2h5.2v5.2h-5.2zM761.5 234.5l4.9 1.2c-1 4-2.9 7.1-5.6 9.2-2.7 2.1-6 3.2-9.8 3.2-4 0-7.3-.8-9.8-2.4-2.5-1.6-4.4-4-5.7-7.1-1.3-3.1-2-6.4-2-10 0-3.9.7-7.2 2.2-10.1 1.5-2.9 3.6-5.1 6.3-6.6 2.7-1.5 5.7-2.2 9-2.2 3.7 0 6.8.9 9.4 2.8 2.5 1.9 4.3 4.6 5.3 8l-4.8 1.1c-.9-2.7-2.1-4.7-3.8-5.9-1.6-1.2-3.7-1.8-6.2-1.8-2.9 0-5.2.7-7.2 2.1-1.9 1.4-3.3 3.2-4 5.5-.8 2.3-1.2 4.7-1.2 7.1 0 3.2.5 5.9 1.4 8.3s2.4 4.1 4.3 5.3c1.9 1.2 4 1.7 6.3 1.7 2.8 0 5.1-.8 7-2.4 2-1.5 3.3-3.9 4-7zM770.9 229.4c0-6.2 1.7-11 5-14.5s7.6-5.2 12.8-5.2c3.4 0 6.5.8 9.3 2.5 2.8 1.6 4.9 3.9 6.3 6.9 1.4 2.9 2.2 6.3 2.2 10 0 3.8-.8 7.1-2.3 10.1-1.5 3-3.7 5.2-6.5 6.8-2.8 1.5-5.8 2.3-9 2.3-3.5 0-6.6-.8-9.4-2.5-2.8-1.7-4.8-4-6.3-6.9-1.3-3.1-2.1-6.2-2.1-9.5zm5.1.1c0 4.5 1.2 8 3.6 10.6 2.4 2.6 5.4 3.9 9.1 3.9 3.7 0 6.7-1.3 9.1-3.9 2.4-2.6 3.6-6.3 3.6-11.1 0-3-.5-5.7-1.5-7.9-1-2.3-2.5-4-4.5-5.2s-4.2-1.9-6.6-1.9c-3.5 0-6.5 1.2-9 3.6-2.5 2.3-3.8 6.3-3.8 11.9zM812.7 247.5v-37.1h7.4l8.8 26.3c.8 2.4 1.4 4.3 1.8 5.5.4-1.4 1.1-3.3 2-6l8.9-25.8h6.6v37.1h-4.7v-31.1l-10.8 31.1h-4.4l-10.7-31.6v31.6h-4.9z"/></g></svg>
