<?xml version="1.0"?>
<svg xmlns="http://www.w3.org/2000/svg" width="100" height="100" viewBox="0 0 100 64" fill="none"><path d="M20.69 25.8a26.2 26.2 0 0 0-2.271-1.575 92.72 92.72 0 0 0-2.436-1.295c-1.073-.56-1.713-.875-1.923-.956a6.622 6.622 0 0 1-.734-.351 5.659 5.659 0 0 1-.63-.352c-.105-.07-.28-.21-.49-.351a.89.89 0 0 1-.323-.799c0-1.015.699-1.541 2.06-1.541 1.258 0 3.74.454 7.515 1.331a1.167 1.167 0 0 0 1.362-.841c0-.036.036-.105.036-.141l.978-9.071a1.082 1.082 0 0 0-.91-1.195 54.852 54.852 0 0 0-10.693-1.085c-3.774 0-6.746 1.195-8.876 3.537C1.225 13.457.21 16.802.21 21.037s1.43 7.565 4.262 9.91c.746.65 1.554 1.225 2.412 1.716.663.351 1.503.806 2.517 1.296s1.748.91 2.27 1.195c.412.24.798.522 1.153.841a1.403 1.403 0 0 1 .42 1.016c0 .956-.559 1.4-1.644 1.4-1.503 0-4.264-.595-8.282-1.785a1.141 1.141 0 0 0-1.398.736.596.596 0 0 0-.036.24l-.591 8.573a1.14 1.14 0 0 0 .803 1.155 39.153 39.153 0 0 0 10.661 1.474c3.915 0 6.918-1.154 9.017-3.501 2.1-2.348 3.146-5.639 3.146-9.877-.071-4.197-1.436-7.417-4.231-9.625zM98.555 8.22h-8.003a1.103 1.103 0 0 0-1.119 1.122v15.163h-.315L83.107 8.921a1.094 1.094 0 0 0-1.05-.7h-9.33a1.103 1.103 0 0 0-1.118 1.12v1.674l-4.65-2.276a1.277 1.277 0 0 1-.629-.841l-.87-5.942A1.172 1.172 0 0 0 64.169 1c-.24.032-.46.143-.63.315l-4.124 4.303a1.033 1.033 0 0 1-.978.315L52.528 4.93a1.134 1.134 0 0 0-1.293.91c-.036.24 0 .484.105.701l2.796 5.323a1.118 1.118 0 0 1 0 1.052l-1.782 3.396c-.49-2.065-1.293-3.676-2.412-4.866-1.992-2.137-5.171-3.222-9.541-3.222H28.626a1.103 1.103 0 0 0-1.119 1.12v37.714a1.108 1.108 0 0 0 1.119 1.121h8.945a1.102 1.102 0 0 0 1.12-1.121V36.796a1.11 1.11 0 0 1 .688-1.04c.136-.056.282-.083.43-.081h1.152c4.125 0 7.13-1.052 9.053-3.108 1.922-2.055 2.862-5.602 2.862-10.54 0-.806-.035-1.542-.069-2.276l5.592-.98a1.117 1.117 0 0 1 1.013.351l3.803 3.868h-6.283a1.104 1.104 0 0 0-1.112 1.13v22.903a1.108 1.108 0 0 0 1.119 1.121h8.98a1.1 1.1 0 0 0 1.038-.69c.056-.136.084-.283.082-.43v-22.84a1.108 1.108 0 0 0-1.12-1.12h-.452c.035-.07.035-.141.069-.21l.873-5.954a1.096 1.096 0 0 1 .622-.842l4.65-2.275V47.13a1.108 1.108 0 0 0 1.118 1.121h7.899a1.102 1.102 0 0 0 1.042-.689c.055-.137.083-.284.081-.432V32.42h.384l6.441 15.092a1.102 1.102 0 0 0 1.014.665h8.912a1.102 1.102 0 0 0 1.119-1.121V9.342a1.108 1.108 0 0 0-1.12-1.121h-.016zM41.543 26.387a1.648 1.648 0 0 1-1.67 1.016H39.6a1.1 1.1 0 0 1-1.038-.69 1.11 1.11 0 0 1-.08-.43v-6.75a1.108 1.108 0 0 1 1.118-1.12c.954 0 1.572.352 1.887 1.016.315.665.498 1.855.498 3.466 0 1.611-.15 2.802-.429 3.502l-.012-.01zM9.227 59.63a3.15 3.15 0 0 0-.35-.309.833.833 0 0 0-.384-.21c-.141-.036-.239-.105-.384-.141a.77.77 0 0 0-.28-.036h-.104c-.177.392-.455.73-.804.98-.39.238-.838.36-1.293.352a2.196 2.196 0 0 1-1.67-.737 2.963 2.963 0 0 1 0-3.781 2.241 2.241 0 0 1 1.713-.7 2.45 2.45 0 0 1 1.224.315c.354.215.634.532.803.91h.105c.105 0 .175-.035.28-.035l.35-.105a3.8 3.8 0 0 0 .384-.21c.125-.097.242-.202.35-.316a1.76 1.76 0 0 0 .28-.42c.068-.168.104-.346.105-.527a1.376 1.376 0 0 0-.14-.63 2.805 2.805 0 0 0-.454-.665 4.123 4.123 0 0 0-.768-.595 3.523 3.523 0 0 0-1.152-.42 7.664 7.664 0 0 0-1.539-.175c-.765 0-1.524.143-2.237.42a4.835 4.835 0 0 0-1.749 1.121 5.02 5.02 0 0 0-1.119 1.716c-.27.701-.404 1.448-.393 2.2.003.988.242 1.96.699 2.837a5.173 5.173 0 0 0 1.925 1.96 5.752 5.752 0 0 0 2.831.7 8.012 8.012 0 0 0 1.572-.174 4.902 4.902 0 0 0 1.193-.455c.286-.17.544-.383.768-.63.193-.19.347-.416.453-.665.097-.196.145-.413.14-.631a1.408 1.408 0 0 0-.104-.526.748.748 0 0 0-.25-.418zm16.636-6.409a1.051 1.051 0 0 0-.558-.664 3.334 3.334 0 0 0-1.43-.21 3.571 3.571 0 0 0-1.468.21c-.274.14-.486.376-.594.664l-3.394 8.823v.07a.478.478 0 0 0 .174.315c.413.378.944.6 1.503.63.803 0 1.397-.49 1.748-1.505l.28-.799h3.4l.28.77a2.5 2.5 0 0 0 .804 1.195c.307.22.672.342 1.05.352.314 0 .626-.071.908-.21.254-.098.48-.254.663-.455a.569.569 0 0 0 .175-.315v-.07l-3.54-8.8zm-3.146 5.183 1.119-3.048 1.119 3.047h-2.238zm23.206-1.052a5.073 5.073 0 0 0-1.12-.631 9.774 9.774 0 0 0-1.43-.454c-.175-.035-.385-.07-.63-.106a5.482 5.482 0 0 1-.558-.105c-.141-.036-.28-.069-.384-.105a.758.758 0 0 1-.28-.174.336.336 0 0 1-.069-.316c0-.526.454-.805 1.398-.805.506 0 1.006.107 1.467.315.47.2.906.473 1.293.806.05.001.098-.011.14-.036a.955.955 0 0 0 .28-.24c.114-.108.219-.226.315-.35.113-.139.207-.292.279-.455.068-.167.104-.345.105-.526 0-.559-.315-1.051-1.014-1.434-.699-.382-1.643-.559-2.936-.559-1.432 0-2.517.316-3.285.956a3.154 3.154 0 0 0-1.152 2.558c.002.394.073.785.21 1.154.106.318.286.606.525.841.228.248.5.45.803.596.301.176.621.317.955.42.35.105.698.21 1.05.28l.488.105.453.105c.105.036.239.07.351.105.111.033.217.08.315.142.074.039.135.1.174.174.06.08.084.18.07.28 0 .56-.49.841-1.468.841a4.64 4.64 0 0 1-1.67-.351 5.126 5.126 0 0 1-1.398-.842.264.264 0 0 0-.14.036c-.101.07-.195.15-.28.24a1.37 1.37 0 0 0-.278.35 2.611 2.611 0 0 0-.239.421 1.078 1.078 0 0 0-.105.454c0 .282.072.56.21.806.178.283.416.522.699.7.4.235.837.4 1.293.49a8.927 8.927 0 0 0 1.922.175c1.54 0 2.727-.316 3.495-.911a3.106 3.106 0 0 0 1.193-2.66 2.657 2.657 0 0 0-.28-1.26 2.251 2.251 0 0 0-.767-1.03zm12.37-5.044h-.453c-.909 0-1.328.49-1.328 1.506v7.635c0 1.016.453 1.506 1.328 1.506h.454c.908 0 1.398-.49 1.398-1.506V53.85c0-1.016-.49-1.542-1.398-1.542zm19.852 0h-.279c-.954 0-1.398.49-1.398 1.506v4.169l-3.74-4.902a2.548 2.548 0 0 0-.63-.596 1.566 1.566 0 0 0-.804-.14h-.315a1.171 1.171 0 0 0-.978.384c-.25.318-.375.717-.35 1.121v7.634c0 1.016.453 1.506 1.362 1.506h.279c.954 0 1.398-.49 1.398-1.506v-4.202l3.816 5.02c.176.222.39.411.63.56.251.116.528.165.804.14h.28a1.106 1.106 0 0 0 .953-.385c.255-.315.38-.716.351-1.12V53.85c0-1.016-.453-1.542-1.362-1.542h-.017zm21.145 2.486a5.014 5.014 0 0 0-1.956-1.96 6.006 6.006 0 0 0-5.661 0 4.804 4.804 0 0 0-1.956 1.96 5.687 5.687 0 0 0-.699 2.838c-.003.755.14 1.504.42 2.206a5.142 5.142 0 0 0 2.862 2.868c.713.28 1.472.423 2.238.42a5.752 5.752 0 0 0 2.83-.697 5.172 5.172 0 0 0 1.955-1.927 6.21 6.21 0 0 0-.036-5.708h.003zm-3.101 4.764a2.36 2.36 0 0 1-3.354 0 2.644 2.644 0 0 1-.63-1.89 2.785 2.785 0 0 1 .63-1.927 2.056 2.056 0 0 1 1.67-.7 2.082 2.082 0 0 1 1.67.736 3.157 3.157 0 0 1 0 3.781h.014z" fill="#fff"/></svg>
