<?xml version="1.0"?>
<svg xmlns="http://www.w3.org/2000/svg" width="120" height="35" fill="#1f3161" viewBox="0 0 640 150"><path d="M0 144.7h639.8v4.4H0v-4.4zm197.5-37.598h.3l26.5-72.4h24.1v2.4c-2.1 0-3.9.2-5.2.6a6.52 6.52 0 0 0-3.2 2c-.8.9-1.3 2.3-1.6 4s-.4 3.8-.4 6.4v67.2c0 2.7.2 4.9.5 6.6s.9 3.1 1.7 4c.8 1 1.8 1.6 3.2 1.9s3.1.5 5.1.5v2.4H212v-2.4c2.4 0 4.4-.1 6-.4s2.9-.9 3.8-1.8 1.6-2.2 2-4c.4-1.7.6-4 .6-6.9v-66h-.3l-29.7 81.6h-1.7l-29.6-79.8h-.3v64.3c0 2.9.2 5.2.5 6.9s1 3 1.9 4c.9.9 2.2 1.5 3.7 1.8 1.6.3 3.5.4 6 .4v2.4h-29.2v-2.4c2.3 0 4.2-.2 5.7-.5s2.7-1 3.6-1.9 1.5-2.2 1.8-4c.3-1.7.5-4 .5-6.8v-67.2c0-2.6-.1-4.7-.4-6.4s-.9-3-1.7-4-2.1-1.6-3.6-2-3.5-.6-5.9-.6v-2.4H171l26.5 72.5zM298.298 124.8c0 1.9.7 3.4 2.1 4.3 1.4 1 4 1.4 7.9 1.3v2.4h-27.9v-2.4c1.8 0 3.4-.2 4.8-.6s2.5-1.1 3.5-2.1 1.9-2.4 2.7-4.2 1.6-4 2.4-6.7l26.4-84.3h2.4l28.4 84.3 2.9 7.6c.9 1.8 1.8 3.2 2.8 4a6.38 6.38 0 0 0 3.3 1.6c1.2.2 2.7.3 4.5.3v2.4h-35.2v-2.4c3.2 0 5.5-.4 6.8-1.3s2-2.3 2-4.3c0-.8-.1-1.6-.3-2.4l-1.2-4.1-5.7-16.8h-26l-5.9 19-.7 4.4zm18.9-63.7l-10.6 35h22.5l-11.6-35h-.3zM424.2 124.2c.4 1.7 1.1 3 2 4 1 .9 2.3 1.5 4.1 1.8s4 .4 6.7.4v2.4h-41v-2.4c2.7 0 5-.1 6.7-.4 1.8-.2 3.1-.8 4.1-1.7s1.6-2.3 2-4c.4-1.8.6-4.1.6-7V40.2h-10.7c-3.1 0-5.8.3-7.9.9-2.2.6-3.9 1.5-5.3 2.9-1.4 1.3-2.4 3.1-3 5.2-.7 2.1-1 4.7-1.1 7.9H379V34.8h75.2V57h-2.4c-.2-6.1-1.6-10.5-4.2-13s-6.9-3.8-13.1-3.8h-10.9v77.1c0 2.9.2 5.2.6 6.9zm100.4-86.998c-2.5 0-4.6.1-6.3.4s-3 .9-3.9 1.9-1.6 2.3-2 4-.5 3.9-.5 6.7v67.2c0 3 .2 5.3.7 7s1.2 3 2.1 4c1 .9 2.2 1.5 3.9 1.7 1.6.2 3.6.4 6 .4v2.4H485v-2.4c2.6 0 4.8-.2 6.4-.5 1.7-.3 2.9-1 3.9-2 .9-1 1.5-2.3 1.9-4s.5-3.9.5-6.5v-67.2c0-2.8-.2-5-.5-6.7-.4-1.7-1-3-2-4s-2.3-1.6-3.9-1.9c-1.7-.3-3.8-.4-6.3-.4v-2.4h39.6v2.3zM630.7 65c-.7-8.4-3.4-15.2-8-20.1-4.6-5-10.6-7.5-17.8-7.5-9.5 0-16.5 4.2-21 12.5s-6.8 20.7-6.8 37c0 7.6.7 14.1 2 19.6 1.4 5.5 3.3 9.9 5.9 13.5 2.6 3.5 5.7 6.1 9.4 7.7s7.8 2.4 12.3 2.4c6 0 11.1-1.5 15.3-4.6 4.1-3.1 8-7.9 11.5-14.5l2.4 1.2c-7.1 15.3-18.3 23-33.4 23-5.3 0-10.5-1-15.6-3.1-5-2.1-9.5-5.1-13.5-9.2s-7.2-9.1-9.6-15.2c-2.4-6-3.6-13-3.6-21 0-7.8 1.1-14.9 3.2-21.5 2.2-6.6 5.2-12.3 9.1-17.1s8.5-8.6 13.7-11.3c5.3-2.7 11.1-4 17.3-4 3 0 5.7.3 8.1.9s4.4 1.3 6.1 2.1l4.5 2.1c1.3.6 2.4.9 3.3.9 1 0 1.8-.5 2.3-1.4s.9-2.5 1.2-4.7h2.6l1.8 32.4h-2.7V65zM31.302 123c0 2.5 1 4.4 3 5.7s5.6 1.8 11 1.7v3.2h-39.2v-3.2c2.5 0 4.8-.3 6.7-.8s3.6-1.4 5-2.8c1.4-1.3 2.7-3.2 3.8-5.5s2.3-5.3 3.4-8.9l37-111.6h3.4l39.6 111.8c1.6 4.3 2.9 7.7 4.1 10.1s2.5 4.2 3.9 5.3 3 1.8 4.7 2.1 3.8.4 6.3.4v3.2h-49.2v-3.2c4.5 0 7.7-.6 9.5-1.7s2.7-3 2.7-5.7c0-1-.1-2.1-.4-3.1a67.52 67.52 0 0 0-1.7-5.4l-8-22.3h-36.3l-8.2 25.1c-.8 2.7-1.1 4.6-1.1 5.6zm26.4-84.4l-14.8 46.3h31.5l-16.3-46.3h-.4z"/></svg>
