<?xml version="1.0" encoding="utf-8"?>
<!-- Generator: Adobe Illustrator 19.0.0, SVG Export Plug-In . SVG Version: 6.00 Build 0)  -->
<svg xmlns="http://www.w3.org/2000/svg" xmlns:xlink="http://www.w3.org/1999/xlink" version="1.1" id="rival" x="0px" y="0px" viewBox="0 0 665.2 300" style="enable-background:new 0 0 665.2 300;" xml:space="preserve" width="60" height="40">
<style type="text/css">
	.st0{fill:#000000;stroke:#818385;stroke-width:1.2144;stroke-miterlimit:10;}
	.st1{fill:#EC2427;}
</style>
<g id="XMLID_2759_">
	<path id="XMLID_2764_" class="st0" d="M248.1,224.9c-3.2,0-7.9-0.4-10.9-0.9c-6.4-0.9-7.9-4.7-8.5-10.5c-0.9-9.2-0.9-26.1-0.9-46.8   v-37.6c0-32.5,0-38.5,0.4-45.3c0.4-7.5,2.1-11.1,7.9-12.2c2.6-0.4,4.3-0.6,6.4-0.6c2.1,0,3.4-0.4,3.4-2.1c0-1.3-1.7-1.7-4.5-1.7   c-8.1,0-20.7,0.6-26.1,0.6c-6.2,0-19.7-0.6-27.8-0.6c-3.4,0-5.1,0.4-5.1,1.7c0,1.7,1.3,2.1,3.4,2.1c2.6,0,5.3,0.2,7.7,0.9   c4.7,1.1,6.8,4.7,7.3,12c0.4,6.8,0.4,12.8,0.4,45.3v37.6c0,20.7,0,37.6-1.1,46.6c-0.6,6.2-1.9,9.8-6.2,10.7   c-1.9,0.4-4.5,0.9-7.7,0.9c-0.2,0-0.3,0-0.5,0c-0.1,0-0.2,0-0.3,0c-1.7,0-3.6-0.2-6-0.6c-3.2-0.6-12-2.1-23.9-14.5   c-12.6-13.3-27.4-32.3-46.4-56.2c21.6-17.5,28.2-32.1,28.2-47.9c0-14.3-8.5-25.2-14.5-29.3c-11.5-7.9-25.9-9.2-39.3-9.2   c-6.6,0-22.9,0.6-30.1,0.6c-4.5,0-18-0.6-29.3-0.6c-3.2,0-4.7,0.4-4.7,1.9c0,1.5,1.3,1.9,3.6,1.9c3,0,6.6,0.2,8.3,0.6   c7.1,1.5,8.8,4.9,9.2,12.2C41,90.7,41,96.7,41,129.2v37.6c0,19.7,0,36.5-1.1,45.5c-0.9,6.2-1.9,10.9-6.2,11.8   c-1.9,0.4-4.5,0.9-7.7,0.9c-2.6,0-3.4,0.6-3.4,1.7c0,1.5,1.5,2.1,4.3,2.1c8.5,0,22-0.6,26.1-0.6c3.2,0,19,0.6,31.4,0.6   c2.8,0,4.3-0.6,4.3-2.1c0-1.1-0.9-1.7-2.6-1.7c-2.6,0-7.3-0.4-10.5-0.9c-6.4-0.9-7.7-5.6-8.3-11.8c-1.1-9-1.1-25.9-1.1-45.7v-3   c0-1.3,0.6-1.7,1.7-1.7l18.6,0.4c1.5,0,2.8,0.2,3.8,1.5c2.8,3.2,12.6,17.7,21.2,29.5c12,16.5,20.1,26.5,29.3,31.4   c5.6,3,10.9,4.1,22.9,4.1H184c0.6,0,1.2,0,1.7-0.1c0.5,0.1,1,0.1,1.5,0.1c8.5,0,22-0.6,26.9-0.6c5.8,0,19.2,0.6,33.3,0.6   c2.4,0,4.1-0.6,4.1-2.1C251.5,225.6,250.5,224.9,248.1,224.9z M99.6,148.4c-3.8,2.8-6.6,3.6-15.2,3.6c-5.3,0-11.8-0.6-16.2-2.1   c-1.5-0.6-1.9-1.5-1.9-3.8v-65c0-1.7,0.4-2.6,1.9-3c2.1-0.6,6-0.9,11.3-0.9c12.6,0,32.7,8.8,32.7,39.1   C112.2,133.9,106,143.7,99.6,148.4z"/>
	<path id="XMLID_2768_" class="st0" d="M277.2,88.1c-4.9-11.8-8.5-14.1-16.2-16.2c-3.2-0.9-6.6-0.9-8.3-0.9c-1.9,0-2.6-0.6-2.6-1.9   c0-1.7,2.4-1.9,5.6-1.9c11.3,0,23.5,0.6,31,0.6c5.3,0,15.6-0.6,26.3-0.6c2.6,0,4.9,0.4,4.9,1.9c0,1.5-1.3,1.9-3.2,1.9   c-3.4,0-6.6,0.2-8.3,1.5c-1.5,1.1-2.1,2.6-2.1,4.5c0,2.8,1.9,8.8,4.9,16.5l36.8,97h0.9C355.8,167,406.6,41,411.8,27   c4.4-11.7,4.2-16.9,19-16.2c3.6,0.2,13.7-0.6,20.1-0.6c2.8,0,4.5,0.4,4.5,1.9c0,1.5-1.3,1.9-3.4,1.9c-2.1,0-6.6,0-10.5,2.6   c-2.8,1.9-6,5.6-11.8,19.2c-8.3,20.1-40.8,88.7-52.4,115c-13.7,31.2-23.7,54.5-28.4,65.2c-5.6,12.4-6.8,15.8-9.8,15.8   c-2.8,0-4.1-3-8.1-13L277.2,88.1z"/>
	<path id="XMLID_2772_" class="st0" d="M376.6,263.5c-2.1,5.3-7.9,22.9-14.5,22.9c-2.4,0-16.5,0.6-27.7,0.6c-2.8,0-4.1-0.4-4.1-2.1   c0-1.3,0.9-1.7,2.6-1.7c1.9,0,4.9-0.2,6.6-0.4c9.8-1.3,15.1-8.5,19.4-19.2L440.5,71c2.6-6.2,3.8-8.5,6-8.5c1.9,0,3.2,1.9,5.3,6.8   c5.1,11.8,40.5,99,54.2,131.4c8.1,19.2,14.3,22.2,18.8,23.3c3.2,0.6,6.4,0.9,9,0.9c1.7,0,2.8,0.2,2.8,1.7c0,1.7-1.9,2.1-9.8,2.1   c-7.7,0-35.4,0-52.5-0.4c-3.8-0.2-6.4-0.2-6.4-1.7c0-1.3,0.9-1.7,3-1.9c1.5-0.4,13.9-2.1,12.1-6.5c-4.5-11.2-40.7-110-40.7-110   c-0.2-0.9-0.4-1.9-1.1-1.9c-0.6,0-1.1,1.1-1.3,1.9L376.6,263.5z"/>
	<path id="XMLID_2842_" class="st0" d="M584.3,166.8c0,27.4,0,42.1,4.5,46c3.6,3.2,9.2,4.7,25.9,4.7c11.3,0,19.7-0.2,25-6   c2.6-2.8,5.1-8.8,5.6-12.8c0.2-1.9,0.6-3.2,2.4-3.2c1.5,0,1.7,1.1,1.7,3.6c0,2.4-1.5,18.4-3.2,24.6c-1.3,4.7-2.4,5.8-13.5,5.8   c-15.4,0-26.5-0.4-36.1-0.6c-9.6-0.4-17.3-0.6-26.1-0.6c-2.4,0-7.1,0-12.2,0.2c-4.9,0-10.5,0.4-14.7,0.4c-2.8,0-4.3-0.6-4.3-2.1   c0-1.1,0.9-1.7,3.4-1.7c3.2,0,5.8-0.4,7.7-0.9c4.3-0.9,5.3-5.6,6.2-11.8c1.1-9,1.1-25.9,1.1-45.5v-37.6c0-32.5,0-38.5-0.4-45.3   c-0.4-7.3-2.1-10.7-9.2-12.2c-1.7-0.4-4.3-0.6-7.1-0.6c-2.4,0-3.6-0.4-3.6-1.9c0-1.5,1.5-1.9,4.7-1.9c10,0,23.5,0.6,29.3,0.6   c5.1,0,20.7-0.6,29.1-0.6c3,0,4.5,0.4,4.5,1.9c0,1.5-1.3,1.9-3.8,1.9c-2.4,0-5.8,0.2-8.3,0.6c-5.8,1.1-7.5,4.7-7.9,12.2   c-0.4,6.8-0.4,12.8-0.4,45.3V166.8z"/>
</g>
<polygon id="XMLID_16_" class="st1" points="444.4,201.5 424.5,188.8 443.6,177.7 461.9,189.8 "/>
</svg>
