<?xml version="1.0"?>
<svg xmlns="http://www.w3.org/2000/svg" width="60" height="40" fill="#231f20" viewBox="0 0 2000 534"><path d="M818.9 423.5h-23.3v108.7h23.3V423.5zm336 108.7h-22.7v-90h-30v-18.7h82.7v18.7h-30v90zm-677.2-91.3c-8.7 0-15.3 3.3-20 10s-7.3 15.3-7.3 27.3c0 24 9.3 36.7 27.3 36.7 7.3 0 16.7-2 28-6v19.3c-8.7 4-18.7 5.3-30 5.3-16 0-28-4.7-36.7-14.7-8.7-9.3-12.7-23.3-12.7-41.3 0-11.3 2-21.3 6-30s10-15.3 18-19.3c8-4.7 16.7-6.7 27.3-6.7s21.3 2.7 32 8l-7.3 18.7c-4-2-8-3.3-12-5.3-4.6-1.4-8.6-2-12.6-2zm1025.1 27.3l22.6-44.7h24.7l-36 66v42.7h-23.3v-41.3l-36-67.4h25.3l22.7 44.7zm52.6-334.7h-25.3c-4.7 0-5.3 0-6-4.7-1.3-10-3.3-20-8-29.3-10-22-27.3-34-50.7-36.7-13.3-1.3-26-.7-39.3 3.3-18.7 6-31.3 18-38.7 35.3-4 8-6 16.7-6.7 26v2.7c0 1.3-.7 2.7-2.7 2.7h-55.9c-2 0-2.7-.7-2.7-2.7-.7-3.3-.7-6.7-2-10-2.7-11.3-6.7-21.3-13.3-31.3-12-17.3-28.7-26-49.3-27.3-8.7-.7-18 0-26.7 2-22.7 5.3-38 19.3-46.7 40.7-3.3 7.3-5.3 15.3-6 23.3-.7 5.3-.7 5.3-6 5.3h-52.7c-3.3 0-3.3-.7-3.3-4s.7-7.3 1.3-10.7c4-22.7 11.3-44 24.7-63.3 18.7-28.7 45.3-46 79.3-52 10.7-2 20.7-2.7 31.3-2.7 26 0 49.3 8.7 70 24.7 9.3 7.3 17.3 16.7 25.3 26 1.3 2 2.7 3.3 4 5.3.7 1.3 2 1.3 2.7 0 1.3-2 3.3-3.3 4.7-5.3 8-9.3 16-18 26-26 20.7-16 44-24 70-24.7 16.7-.7 32.7 2 48 6.7 26 8.7 46 25.3 60.7 48 12 18.7 19.3 38.7 23.3 60.7.7 4 1.3 8.7 2 12.7.7 4.7.7 4.7-4.7 4.7h-26.7l.1.6zM345.1 150.9h26.7c3.3 0 4 .7 4 3.3v14.7c.7 11.3 2 21.3 6 31.3 7.3 18 19.3 32.7 36.7 42.7 10.7 6 22 9.3 34 10.7 14.7 1.3 28.7 1.3 42.7-2.7 33.3-8 54-28.7 64-61.3 2-6.7 2.7-12 2.7-20v-16c0-2.7.7-3.3 2.7-3.3h56c2 0 2.7.7 2.7 3.3.7 18 0 36-4.7 54-5.3 20-14 38.7-26.7 55.3-16.7 22-38.7 36.7-64.7 44.7-16.7 5.3-34.7 8-52 8.7-18.7.7-36.7-.7-54.7-5.3-44.7-11.3-76-38.7-94.7-81.3-6.7-15.3-11.3-31.3-12.7-48-.7-9.3 0-18.7 0-28 0-2 1.3-2.7 2.7-2.7h12.7c6.6-.8 11.9-.1 16.6-.1zm218.6-17.4c-1.3-2-1.3-4-2-5.3-6-28.7-22-48-49.3-58-10.7-4-22-6-34-6.7-15.3-.7-30.7 0-45.3 4-19.3 5.3-35.3 16-46 33.3-5.3 8.7-8.7 18.7-10.7 28.7-.7 3.3-.7 4-4 4h-54.7c-3.3 0-4-.7-3.3-4 .7-4.7 1.3-8.7 2.7-13.3 4.7-21.3 13.3-41.3 26-58.7 18-24.7 42.7-41.3 72-50 14-4 28.7-6 44-6.7 20-.7 40 .7 59.3 5.3 26 6.7 48.7 19.3 66.7 38.7 15.3 16.7 26 36 32.7 57.3 2 6.7 4 14 5.3 21.3.7 2 .7 4 .7 6 0 2.7-.7 3.3-3.3 3.3h-52.7c-.7.8-2.7.8-4.1.8zM66.5 2.2h50.7c11.3 0 22.7 1.3 33.3 4.7 20 5.3 38.7 14 54.7 26.7 23.3 18.7 37.3 42.7 43.3 71.3 1.3 6.7 2 13.3 2.7 19.3v4.7c0 4-.7 4-4 4h-54.6c-2 0-2.7-.7-2.7-2.7 0-4.7-.7-9.3-1.3-14-2-10.7-6-20.7-12-29.3-10-13.3-24-20.7-40-23.3-5.3-1.3-11.3-2-16.7-2H65.3c-1.3 0-2 .7-2 2v62c0 6.7 0 6.7-6 6.7H2c-1.3 0-2-.7-2-2v-4.7C.1 125.5.5 9.7.5 9.5c0-7.3 0-7.3 7.3-7.3h58.7zm722.5 314h-92.7c-1.3 0-2-.7-2-2V158.8c0-8.7-.7-8 8-8H753c1.4 0 2 .7 2 2v93.3c0 8.7-.7 8.7 8 8.7h114c8.7 0 8-.7 8 8v52c0 1.3-.7 2-2 2h-6.7l-87.3-.6zM1897.3.9H1998c1.3 0 2 .7 2 2v56.7c0 1.3-.7 2-2 2h-62c-6 0-6 0-6 6v62c0 2.7-.7 3.3-3.3 3.3h-55.3c-2 0-2.7-.7-2.7-2.7V66.8c0-4.7 0-4.7-4.7-4.7h-58c-12 0-10 1.3-10-10V2.8c0-1.3.7-2 2-2h6.7l92.6.1zm-235.2 232.6v-77.3c0-6-.7-6 6-6h52.6c2 0 2.7 1.3 2.7 2.7v157.4c0 5.3 0 5.3-5.3 5.3h-52.7c-2.7 0-3.3-.7-3.3-3.3v-78.8zm-137.3-.6v-76c0-6.7-.7-6.7 6.7-6.7h52.7c1.3 0 2 .7 2 2v161.4c0 2-.7 2.7-3.3 2.7h-56c-1.3 0-2-.7-2-2v-6.7l-.1-74.7zm-144.6.6v75.3c0 7.3.7 7.3-6.7 7.3h-52.7c-1.3 0-2-.7-2-2V157.4c0-7.3-.7-7.3 6.7-7.3h52.7c1.3 0 2 .7 2 2v81.4zm-413.9 0v-77.3c0-5.3 0-5.3 5.3-5.3h53.4c2 0 2.7 1.3 2.7 2.7v158.6c0 3.3-.7 4-4 4H969c-2.7 0-3.3-.7-3.3-3.3v-6c.6-24 .6-48.7.6-73.4zM51.1 316.3H3.7c-1.3 0-3.2-.8-3.2-2.8V153.4c0-2.7 1.2-3.3 3.8-3.3h55.3c1.4 0 2 .7 2 2v6l.2 150.7v4.3c0 1.7-1.4 3.2-3 3.2h-7.7zm200.6-81.4v77.4c0 3.3-.7 4-4 4h-56c-1.3 0-1.3-.7-2-2V159c0-6 0-6 6-6h52c2.7 0 3.3.7 3.3 3.3v6.7c.7 23.2.7 47.9.7 71.9zm861.2-1.4v-80.7c0-1.3.7-2 2-2h55.3c2.7 0 2.7.7 3.3 2.7v160c0 1.3-.7 2-2 2h-54.7c-3.3 0-4-.7-4-3.3v-6l.1-72.7zm816.4.7v74.7c0 7.3.7 7.3-6.7 7.3h-52c-1.3 0-2-.7-2-2V159.5c0-9.3-.7-8.7 8.7-8.7h50c1.3 0 2 .7 2 2v81.4zM1723.4 67.5v62c0 3.3-.7 4-4 4h-54c-3.3 0-3.3-.7-4-4V4.1c0-2.7.7-3.3 3.3-3.3h54.7c3.3 0 4 .7 4 4v62.7zm-757.1 0v-60c0-6.7 0-6 6-6h53.3c1.3 0 2 .7 2 2v123.4c0 7.3 0 7.3-6.7 7.3h-52.7c-1.4 0-2-.7-2-2v-5.3l.1-59.4zm-210.7 0v60c0 6 0 6-6 6H697c-1.3 0-2-1.3-2-2.7V8.8c0-8.7-.7-8 8-8h50.7c2 0 2.7 1.3 2.7 2.7v5.3c-.8 20.1-.8 39.4-.8 58.7z"/></svg>
