<svg xmlns="http://www.w3.org/2000/svg" width="204" height="251" fill="none"><path d="M199.7 38.7c2.5 1.3 4.9-2 2.8-4C186.9 20.5 156.1.2 108 .2c-61 0-107 34-107 54 0 22.5 44 34.5 45.9 68.7.1 1.3 1.1 2.3 2.4 2.3h73.8c1.7 0 2.9-1.7 2.3-3.3-6.6-19-68.4-31.1-68.4-73.7 0-37.3 88.4-38.2 142.7-9.5z" fill="url(#A)"/><path d="M199.698 211.7c2.5-1.3 4.9 2 2.8 4-15.6 14.2-46.4 34.5-94.6 34.5-61 0-107-34-107-54 0-22.5 44-35.4 45.9-68.7.1-1.3 1.1-2.3 2.4-2.3h73.8c1.7 0 2.9 1.7 2.3 3.3-6.6 19-68.4 31.1-68.4 73.7.1 37.3 88.5 38.2 142.8 9.5z" fill="url(#B)"/><path d="M2 47.2c-1 3-1 5-1 7 0 23 46 35 46 71 0 35-46 48-46 71 0 2 0 4 1 6-6-22 73.9-41 110.9-61 .1 0 .1-.1.2-.1 8-5 12.9-10 12.9-15.9s-5-11-12.9-15.9c-.1 0-.1-.1-.2-.1C75.8 89.2-4 70.2 2 47.2z" fill="url(#C)"/><path d="M106.3 137.3c-3.6 5.6 3.7.9 8.4-1.6.1 0 .1-.1.1-.1 5.1-3.2 8.3-6.4 8.3-10.2s-3.2-6.4-8.3-10.2l-.1-.1c-4.4-2.9-14.5-11.4-12.3-3.8 2.1 7.4 14.8 9.3 3.9 26z" fill="url(#D)"/><defs><linearGradient id="A" x1="102.158" y1="125.198" x2="102.158" y2=".199" gradientUnits="userSpaceOnUse"><stop offset=".135" stop-color="#232157"/><stop offset=".595" stop-color="#28aae2"/></linearGradient><linearGradient id="B" x1="102.157" y1="127.05" x2="102.157" y2="253.682" gradientUnits="userSpaceOnUse"><stop stop-color="#572614"/><stop offset="1" stop-color="#faa31d"/></linearGradient><linearGradient id="C" x1="63.453" y1="202.199" x2="63.453" y2="47.199" gradientUnits="userSpaceOnUse"><stop stop-color="#908f8f"/><stop offset=".07" stop-color="#6a1c24"/><stop offset=".25" stop-color="#dd1f26"/><stop offset=".75" stop-color="#dd1f26"/><stop offset=".93" stop-color="#6a1c24"/></linearGradient><linearGradient id="D" x1="112.647" y1="139.887" x2="112.647" y2="108.198" gradientUnits="userSpaceOnUse"><stop stop-color="#dd1f26"/><stop offset="1" stop-color="#f9b8b8"/></linearGradient></defs></svg>