<?xml version="1.0" encoding="utf-8"?>
<!-- Generator: Adobe Illustrator 19.0.0, SVG Export Plug-In . SVG Version: 6.00 Build 0)  -->
<svg version="1.1" id="Слой_1" xmlns="http://www.w3.org/2000/svg" xmlns:xlink="http://www.w3.org/1999/xlink" x="0px" y="0px"
	 viewBox="0 0 496.9 118.9" style="enable-background:new 0 0 496.9 118.9;" xml:space="preserve">
<style type="text/css">
	.st0{fill:#F26822;}
</style>
<g id="XMLID_494_">
	<path id="XMLID_496_" class="st0" d="M7.6,33.5c4.1,0,7.5-3.4,7.5-7.5c0-6.4,5.6-9.2,11.2-9.2h0.4c5.6,0,11.2,2.8,11.2,9.2
		c0,4.1,3.4,7.5,7.5,7.5S53,30.1,53,26c0-14-11-24.2-26.2-24.2h-0.4C11.1,1.8,0.1,11.9,0.1,26C0.1,30.1,3.4,33.5,7.6,33.5z"/>
	<path id="XMLID_634_" class="st0" d="M53,80c0-4.1-3.4-7.5-7.5-7.5S38,75.8,38,80c0,6.4-5.6,9.2-11.2,9.2h-0.4
		c-5.6,0-11.2-2.8-11.2-9.2c0-4.1-3.4-7.5-7.5-7.5S0.1,75.8,0.1,80c0,14,11,24.2,26.2,24.2h0.4c2,0,4-0.2,5.8-0.5l6.6,12.9
		c1.3,2.5,5.4,3.1,9,1.2l0,0c3.7-1.9,5.6-5.5,4.3-8L46,96.9C50.4,92.6,53,86.7,53,80z"/>
	<path id="XMLID_635_" class="st0" d="M15,72.6V33.4c-1.9,1.9-4.5,3.1-7.5,3.1c-3,0-5.7-1.3-7.6-3.3v39.5c1.9-2,4.6-3.3,7.6-3.3
		C10.5,69.5,13.1,70.6,15,72.6z"/>
	<path id="XMLID_636_" class="st0" d="M37.9,33.2v39.5c1.9-2,4.6-3.3,7.6-3.3c2.9,0,5.5,1.2,7.4,3.1V33.4c-1.9,1.9-4.5,3.1-7.5,3.1
		C42.5,36.5,39.8,35.2,37.9,33.2z"/>
	<path id="XMLID_637_" class="st0" d="M169.2,33.5c4.1,0,7.5-3.4,7.5-7.5c0-6.4,5.6-9.2,11.2-9.2h0.4c5.6,0,11.2,2.8,11.2,9.2
		c0,4.1,3.4,7.5,7.5,7.5s7.5-3.4,7.5-7.5c0-14-11-24.2-26.2-24.2h-0.4c-15.2,0-26.2,10.2-26.2,24.2C161.7,30.1,165,33.5,169.2,33.5z
		"/>
	<path id="XMLID_638_" class="st0" d="M207.1,72.5c-4.1,0-7.5,3.4-7.5,7.5c0,6.4-5.6,9.2-11.2,9.2h-0.4c-5.6,0-11.2-2.8-11.2-9.2
		c0-4.1-3.4-7.5-7.5-7.5s-7.5,3.4-7.5,7.5c0,14,11,24.2,26.2,24.2h0.4c15.2,0,26.2-10.2,26.2-24.2C214.6,75.8,211.2,72.5,207.1,72.5
		z"/>
	<path id="XMLID_639_" class="st0" d="M176.6,72.6V33.4c-1.9,1.9-4.5,3.1-7.5,3.1c-3,0-5.7-1.3-7.6-3.3v39.5c1.9-2,4.6-3.3,7.6-3.3
		C172.1,69.5,174.7,70.7,176.6,72.6z"/>
	<path id="XMLID_640_" class="st0" d="M293.2,33.5c4.1,0,7.5-3.4,7.5-7.5c0-6.4,5.6-9.2,11.2-9.2h0.4c5.6,0,11.2,2.8,11.2,9.2
		c0,4.1,3.4,7.5,7.5,7.5s7.5-3.4,7.5-7.5c0-14-11-24.2-26.2-24.2h-0.4c-15.2,0-26.2,10.2-26.2,24.2
		C285.7,30.1,289.1,33.5,293.2,33.5z"/>
	<path id="XMLID_641_" class="st0" d="M298.9,36.3c-2.5,1.6-5.6,1.8-8.4,0.9l29.7,40.4c0.4-2.9,1.9-5.6,4.5-7.2
		c2.5-1.5,5.4-1.8,8.2-1l-29.6-40.1C302.9,32.2,301.4,34.8,298.9,36.3z"/>
	<path id="XMLID_642_" class="st0" d="M331.1,72.5c-4.1,0-7.5,3.4-7.5,7.5c0,6.4-5.6,9.2-11.2,9.2h-0.4c-5.6,0-11.2-2.8-11.2-9.2
		c0-4.1-3.4-7.5-7.5-7.5s-7.5,3.4-7.5,7.5c0,14,11,24.2,26.2,24.2h0.4c15.2,0,26.2-10.2,26.2-24.2C338.6,75.8,335.2,72.5,331.1,72.5
		z"/>
	<path id="XMLID_643_" class="st0" d="M111.4,72.5c-4.1,0-7.5,3.4-7.5,7.5c0,6.4-5.6,9.2-11.2,9.2h-0.4C86.7,89.2,81,86.3,81,80
		c0-4.1-3.4-7.5-7.5-7.5S66,75.8,66,80c0,14,11,24.2,26.2,24.2h0.4c15.2,0,26.2-10.2,26.2-24.2C118.9,75.8,115.6,72.5,111.4,72.5z"
		/>
	<path id="XMLID_644_" class="st0" d="M111.4,1.8c-4.1,0-7.5,3.4-7.5,7.5v20.6v7.6v34.9c1.9-2,4.6-3.3,7.6-3.3
		c2.9,0,5.5,1.2,7.4,3.1V37.4V30V9.3C118.9,5.1,115.5,1.8,111.4,1.8z"/>
	<path id="XMLID_645_" class="st0" d="M81.1,72.2V37.4V30V9.3c0-4.1-3.4-7.5-7.5-7.5S66,5.1,66,9.3v20.6v7.6v34.9
		c1.9-2,4.6-3.3,7.6-3.3C76.5,69.1,79.2,70.3,81.1,72.2z"/>
	<path id="XMLID_646_" class="st0" d="M147.9,37.4V30V9.3c0-4.1-3.4-7.5-7.5-7.5s-7.5,3.4-7.5,7.5v20.6v7.6v31.9l0,0v27.3
		c0,4.1,3.4,7.5,7.5,7.5h0c4.1,0,7.5-3.4,7.5-7.5V68.5c0,0,0,0,0,0V37.4z"/>
	<path id="XMLID_647_" class="st0" d="M426.6,37.5V30V9.3c0-4.1-3.4-7.5-7.5-7.5s-7.5,3.4-7.5,7.5v20.6v7.6v31.9l0,0v27.3
		c0,4.1,3.4,7.5,7.5,7.5h0c4.1,0,7.5-3.4,7.5-7.5V68.5c0,0,0,0,0,0V37.5z"/>
	<path id="XMLID_648_" class="st0" d="M453.7,48.5l-3-6.1l-3.7-7.5l-8.3-16.8v11.8v7.6v31.9l0,0v27.3c0,4.1,3.4,7.5,7.5,7.5h0
		c4.1,0,7.5-3.4,7.5-7.5V68.5c0,0,0,0,0,0V48.5z"/>
	<path id="XMLID_649_" class="st0" d="M482,64.9C482,64.9,482,64.9,482,64.9l-15.1-30.6l-3.6-7.3L453.1,6.6c-2-4.1-6.7-5.9-10.4-4.1
		c-3.7,1.8-5.1,6.7-3.1,10.7l10,20.3l3.7,7.5l15.6,31.4v0l13.3,26.9c2,4.1,6.7,5.9,10.4,4.1l0,0c3.7-1.8,5.1-6.7,3.1-10.7L482,64.9z
		"/>
	<path id="XMLID_650_" class="st0" d="M496.9,68.5v-31V30V9.3c0-4.1-3.4-7.5-7.5-7.5s-7.5,3.4-7.5,7.5v20.6v7.6v20.5l2.8,5.7
		l12.2,24.7L496.9,68.5C496.9,68.5,496.9,68.5,496.9,68.5z"/>
	<path id="XMLID_651_" class="st0" d="M237.8,43.1L225,61.6c-1.9,2.8-0.7,7,2.7,9.4c3.4,2.3,7.8,2,9.7-0.8l13.2-19.1c0,0,0,0,0,0
		L265.1,30l3.5-5.1l9.7-14.1c1.9-2.8,0.7-7-2.7-9.4c-3.4-2.3-7.8-2-9.7,0.8l-9.6,14l-3.5,5.1L237.8,43.1L237.8,43.1z"/>
	<path id="XMLID_652_" class="st0" d="M271.3,78.8C271.3,78.8,271.3,78.8,271.3,78.8l-9.7-19l-2.3-4.6l-3.3-6.5l-2.8,4.1l-6.9,10
		l2,3.9l10,19.6l0,0l8.6,16.7c1.3,2.5,5.4,3.1,9,1.2l0,0c3.7-1.9,5.6-5.5,4.3-8L271.3,78.8z"/>
	<path id="XMLID_653_" class="st0" d="M239.1,36v-6.5V8.8c0-4.1-3.4-7.5-7.5-7.5S224,4.7,224,8.8v20.6V37v20.8l11.3-16.4L239.1,36z"
		/>
	<path id="XMLID_654_" class="st0" d="M226,73.5c-0.7-0.5-1.4-1.1-2-1.7v24.4c0,4.1,3.4,7.5,7.5,7.5h0c4.1,0,7.5-3.4,7.5-7.5V72.9
		c-1.6,1.7-4,2.7-6.6,2.7C230.2,75.6,227.9,74.8,226,73.5z"/>
	<path id="XMLID_655_" class="st0" d="M382,1.1c0,0,0.1-0.1,0.1-0.1h-10.4h-6.6h-9.4c-3.6,0-6.6,2.9-6.6,7.7c0,4.8,3,7.7,6.6,7.7
		h9.3h6.7h8.5c5.3,0.4,7.6,7.7,7.6,14V31c0,6.3-2.4,14.6-7.6,15h-8.5h-6.6h-9.4c-3.6,0-6.6,2.9-6.6,7.7c0,4.8,3,7.7,6.6,7.7h9.3h6.7
		h10.5c0-0.1-0.1-0.1-0.1-0.2c11.1-1.5,19-13.8,19-30.3v-0.5C401.1,13.9,393.2,2.6,382,1.1z"/>
	<path id="XMLID_656_" class="st0" d="M364.2,64.5h-8.5c-2.6,0-4.9-1-6.6-2.7v7.6l0,0v27.3c0,4.1,3.4,7.5,7.5,7.5h0
		c4.1,0,7.5-3.4,7.5-7.5V68.5c0,0,0,0,0,0V64.5z"/>
	<path id="XMLID_657_" class="st0" d="M364.2,43v-5.6V30V19.5h-8.5c-2.6,0-4.9-1-6.6-2.7v13.1v7.6v8.2c1.7-1.7,3.9-2.7,6.6-2.7
		H364.2z"/>
</g>
</svg>
