<?xml version="1.0" encoding="utf-8"?>
<!-- Generator: Adobe Illustrator 19.0.0, SVG Export Plug-In . SVG Version: 6.00 Build 0)  -->
<svg xmlns="http://www.w3.org/2000/svg" xmlns:xlink="http://www.w3.org/1999/xlink" version="1.1" x="0px" y="0px" viewBox="0 0 554.3 151.4" style="enable-background:new 0 0 554.3 151.4;" xml:space="preserve" width="65" height="35">
<style type="text/css">
	.st0{fill:#282425;}
	.st1{fill:#EA158E;}
	.st2{fill:#2CAFE5;}
	.st3{fill:#EC242A;}
	.st4{fill:#FEE700;}
	.st5{fill:#13B6A7;}
	.st6{fill:#FCB34B;}
</style>
<g id="Слой_1">
</g>
<g id="playson">
	<g id="word">
		<polygon id="XMLID_1669_" class="st0" points="68.5,47.5 76.6,47.6 76.6,91.3 121.9,91.3 121.8,99.2 68.6,99.2 68.5,47.5   "/>
		<polygon id="XMLID_1579_" class="st0" points="180.7,47.7 190.3,47.7 209.4,71 228.4,47.7 238.1,47.7 213.4,79.9 213.4,99.2     205.4,99.2 205.4,79.9 180.7,47.7   "/>
		<path id="XMLID_1578_" class="st0" d="M238.6,55.1c0-4.3,4.6-7.4,9.1-7.5c10.7,0,35.6-0.2,37.3,0.3c3.3,0.9,6.1,3.7,6.8,7.1    c0.4,1.6,0.2,4.9,0.2,4.9l-8.3,0c0,0,0-2.6,0-3.7c0-0.7-1.1-0.8-1.8-0.8c-11.2,0-22.3,0-33.5,0c-1-0.1-1.9,0.8-1.8,1.8    c0,3.5,0,6.9,0,10.4c-0.1,1,0.8,1.9,1.8,1.9c11.6,0,23.3,0,34.9,0c4.7,0.3,8.7,4.4,8.7,9.1c0,3.8,0,7.6,0,11.4    c-0.1,3.6-2.6,7-5.9,8.3c-1.9,0.8-27.3,0.8-38.1,0.8c-3.7-0.1-7.3-2.3-8.8-5.8c-0.9-2.1-0.8-6.7-0.8-6.7l8.1,0c0,0-0.5,3.5,1,4.6    c11.6,0,23.1,0,34.7,0c0.8,0,1.7-0.7,1.6-1.5c0-3,0-6,0-9c0-1.1,0.2-2.3-0.5-3.2c-0.7-0.2-1.4-0.3-2.2-0.3c-11.1,0-22.1,0-33.2,0    c-4.4,0-9.3-2.6-9.3-7.5C238.7,67.6,238.6,55.1,238.6,55.1z"/>
		<polygon id="XMLID_1577_" class="st0" points="355.3,47.6 365.1,47.6 400.6,88.6 400.6,47.6 408.8,47.7 408.6,99.2 399.3,99.2     363.4,58.1 363.3,99.2 355.3,99.2 355.3,47.6   "/>
		<path id="XMLID_1706_" class="st0" d="M64.7,56.6c-0.1-4.9-4.7-8.9-9.4-8.9l-44,0l0,51.4l7.9,0l0.2-18.6l35.5,0.1    c5.1,0,9.8-3.9,9.8-9L64.7,56.6z M56.6,71.4c0,0.9-0.8,1.5-1.7,1.5c-11.5,0-34.4,0-34.4,0c-0.6-0.2-1.2-0.7-1.1-1.5l0-14.6    c0-1,1.1-1.4,2-1.4c0,0,22.4,0,33.6,0c1,0,1.6,0.8,1.6,1.7C56.6,62,56.6,66.7,56.6,71.4z"/>
		<path id="XMLID_1680_" class="st0" d="M179.8,56.9c0-5-3.5-9.3-6.9-9.3h-37.4c-4.8,0.1-9.1,4.2-9.1,9c0,14.2,0,42.5,0,42.5l8,0    l0-18h37.3v14.1l0.2,3.9l7.8,0l0.1-10.1C179.8,89,179.7,67.6,179.8,56.9z M171.7,73.3l-37.3,0c0,0,0-10.7,0-16.1    c-0.2-1,0.7-1.9,1.7-1.8c11.3,0,22.6,0,33.9,0c1-0.1,1.7,0.9,1.6,1.8C171.7,62.6,171.7,73.3,171.7,73.3z"/>
		<path id="XMLID_1677_" class="st0" d="M350.2,88c0-6.6-0.1-28.5-0.1-32.9c0-4.1-4.8-7.4-9.1-7.5c-10.6,0-32.7,0-34.9,0    c-4.1,0-9.4,5-9.4,8.5c0,4.9,0,27.5,0,33.9c0.1,4.9,4.6,9,9.4,9.1c11.5,0,23,0,34.5,0c3.9,0,7.7-2.6,9-6.3    C350.3,91.3,350.2,89.6,350.2,88z M341.2,91.3c-11.1,0-23.8,0-35.3,0c-0.6,0-1.1-0.8-1-1.5c0-11.1,0-33.4,0-33.4    c0.2-0.6,0-1.4,2.1-1.4h33.3c1,0,1.8,0.4,1.8,1.4c0,10.7,0,22.7,0,33.4C342.2,90.5,341.9,91.3,341.2,91.3z"/>
	</g>
	<g id="logo">
		<polygon id="XMLID_1506_" class="st1" points="433.5,19.5 474.1,38 433.5,56.6   "/>
		<polygon id="XMLID_1505_" class="st2" points="474.1,38 514.6,56.5 474.1,75   "/>
		<polygon id="XMLID_1504_" class="st3" points="433.5,56.6 474.1,75 433.5,93.4   "/>
		<polygon id="XMLID_1503_" class="st4" points="554.3,74.8 514.6,93.5 514.6,56.5   "/>
		<polygon id="XMLID_1502_" class="st5" points="514.6,93.5 474.1,112 474.1,75   "/>
		<polygon id="XMLID_1501_" class="st6" points="474.1,112 433.5,130.4 433.5,93.4   "/>
	</g>
</g>
</svg>
