<?xml version="1.0"?>
<svg xmlns="http://www.w3.org/2000/svg" width="60" height="40" fill="none" viewBox="0 0 474 101"><path d="M85.2 26.5c-.5-5.4-1.9-9.7-4.3-12.8S74.9 9 70.2 9c-4 0-7.3 1.2-9.7 3.6s-3.6 5.5-3.6 9.2c0 4.5 1.4 8.2 4.2 11.2s7.1 6.4 12.8 10.4c3.7 2.4 6.7 4.5 8.9 6.3s4.4 3.9 6.4 6.3 3.7 5.2 4.9 8.4c1.3 3.2 1.9 6.8 1.9 10.9 0 7.8-2.2 13.9-6.5 18.3S79 100.2 71 100.2c-7.6 0-13.5-2.5-17.9-7.6-4.4-5-6.6-11.7-6.8-20H56c.2 5.9 1.6 10.4 4.3 13.7s6.6 4.9 11.7 4.9c4.5 0 8-1.4 10.6-4.2s3.8-6.8 3.8-11.9c0-4.7-1.5-8.6-4.4-11.8s-7.4-6.9-13.6-11.1c-3.4-2.4-6.2-4.5-8.4-6.3s-4.3-3.8-6.3-6-3.6-4.8-4.7-7.7c-1.2-2.9-1.8-6.1-1.8-9.6 0-6.8 2.2-12.3 6.5-16.5C58 2 63.7-.1 70.7-.1c7.3.1 13 2.4 17.2 7 4.3 4.6 6.6 11.1 7 19.6h-9.7zM164.1 73c-1.3 6.4-3.2 11.6-5.5 15.6-2.4 4-5.3 6.9-8.6 8.8s-7.2 2.8-11.4 2.8-8-.9-11.3-2.8c-3.3-1.8-6.2-4.8-8.6-8.8s-4.3-9.2-5.6-15.6-2-14-2-22.9.7-16.6 2-23 3.1-11.6 5.5-15.6 5.3-6.9 8.6-8.8c3.4-1.8 7.2-2.8 11.4-2.8s8 .9 11.4 2.8c3.4 1.8 6.3 4.8 8.6 8.8 2.4 4 4.2 9.2 5.5 15.6s2 14 2 23c-.1 8.9-.7 16.5-2 22.9zm-9.9-43.1c-.9-5.4-2-9.6-3.6-12.6-1.5-3.1-3.3-5.2-5.3-6.5s-4.3-1.9-6.8-1.9-4.8.6-6.8 1.9-3.8 3.4-5.3 6.5-2.7 7.3-3.6 12.6c-.9 5.4-1.3 12.1-1.3 20.2s.4 14.8 1.3 20.2 2 9.6 3.6 12.6c1.5 3.1 3.3 5.2 5.3 6.5s4.3 1.9 6.8 1.9 4.8-.6 6.8-1.9 3.8-3.4 5.3-6.5 2.7-7.3 3.6-12.6c.9-5.4 1.3-12.1 1.3-20.2s-.4-14.8-1.3-20.2zm29.3-28.6h41.8v8.9H194v33.2h23.5v8.9H194v46.4h-10.5V1.3zm105.4 0v8.9h-20v88.6h-10.5V10.3h-20v-9h50.5z" fill="#2e5768"/><path d="M300.3 1.3h25.9c7.2 0 12.8 2.2 16.9 6.5 4 4.4 6.1 10.2 6.1 17.5 0 5.2-1.2 9.8-3.6 13.6-2.4 3.9-6.2 6.5-11.2 8v.3c5.7 1.5 9.9 4.4 12.8 8.7 2.8 4.3 4.3 9.6 4.3 15.9 0 18-10.4 27-31.3 27h-19.7V1.3h-.2zm10.5 41.9h5.9c7.7 0 13.3-1.4 16.7-4 3.4-2.7 5.1-7.3 5.1-13.8 0-5.5-1.3-9.4-3.9-11.7s-7.1-3.4-13.4-3.4h-10.5v32.9h.1zm0 46.7h10.5c6.5 0 11.3-1.5 14.6-4.4 3.2-2.9 4.9-7.5 4.9-13.7 0-6.6-1.6-11.5-4.7-14.8s-8-4.9-14.8-4.9h-10.5v37.8zM412.7 1.3v8.9h-34v33.2h25.1v8.9h-25.1v37.5h35.6v8.9h-46.2V1.3h44.6zm61.3 0v8.9h-20v88.6h-10.5V10.3h-20v-9H474zm-462.5 40v58.9h10.1V41.3c-1.6.5-3.3.8-5 .8s-3.5-.3-5.1-.8zm5.3-33.2c4.8 0 8.8 3.9 8.8 8.8 0 4.8-3.9 8.8-8.8 8.8S8 21.7 8 16.8c0-4.8 3.9-8.7 8.8-8.7zm0-8C7.5.1 0 7.6 0 16.8c0 9.3 7.5 16.8 16.8 16.8s16.8-7.5 16.8-16.8C33.5 7.6 26 .1 16.8.1z" fill="#f5b41a"/></svg>
