<?xml version="1.0"?>
<svg xmlns="http://www.w3.org/2000/svg" xmlns:xlink="http://www.w3.org/1999/xlink" width="65" height="35" viewBox="0 0 16000 7350" preserveAspectRatio="xMidYMid meet"><path d="M7850 7330c-30-9-199-78-375-152L3525 5520c-22-10-166-71-320-135l-1615-677-340-143c-30-12-154-64-275-115l-275-115c-262-108-424-181-470-213C90 4023 0 3850 0 3675c0-129 40-239 125-347 79-101 131-128 675-353l380-159 423-178 147-61v-461c0-444 1-462 20-494 24-39 67-59 230-108 154-47 347-89 505-110 162-22 531-25 650-6 250 41 447 126 588 253l66 59 53-21c29-11 109-44 178-73l1395-586c11-6 106-45 210-89l350-146 1525-640c30-12 100-41 155-65 175-75 229-90 324-90 93 0 152 15 281 70l165 70 285 120 250 105 1395 585 1315 553c233 98 297 121 350 126 36 3 78 14 92 23l27 18-19-43c-29-62-26-103 9-138l29-29h1111l26 23c16 14 66 114 138 276 62 139 116 253 121 253 5-1 57-115 117-254 72-167 118-261 134-275l26-23h938l26 25c14 14 25 34 25 44 0 34 13 30 50-18 49-62 101-104 170-138 50-25 65-27 165-27 103 0 114 2 178 31 167 79 269 268 238 444-71 407-617 484-794 112-29-62-32-76-32-165 0-54-3-98-6-98-4 0-19 28-34 63l-76 166-49 106c0 1-20 45-44 96l-71 154-97 213c-39 84-69 155-67 156 5 4 300 130 424 181l240 100 370 155c362 152 403 176 483 285 75 102 105 189 110 312 3 90 1 112-22 180-44 133-131 244-242 309-35 20-211 97-434 189-30 12-154 64-275 115l-275 115c-60 24-57 15-44 116 5 39 3 49-19 75l-25 29-467 10-95 42-755 318-4485 1882c-820 344-734 313-859 312-62-1-115-7-151-19zm381-138l194-80 320-135 5200-2182-156-5c-181-6-182-6-231-105l-34-64c-3-3-328 125-479 190-11 4-168 68-350 142l-657 267-328 134v326h-310l-6-25c-7-30-7-29-46-9-89 46-258 72-388 58l-92-9-142 58-396 162-1760 715c-426 175-512 208-546 214-49 8-79-3-584-209l-700-284-615-251c-968-396-943-386-1035-394-209-16-358-74-469-181l-68-66-304-123-679-276c-844-344-762-313-792-296-22 14-77 16-372 16-191 0-346 4-346 9s73 39 162 76l393 165c18 9 444 187 1335 560l1990 835c30 12 154 64 275 115l1570 660c91 39 146 50 236 46 75-3 100-9 210-54zM4012 4654c-10-90-69-407-97-523-60-241-164-509-291-749l-55-103 59-63c126-135 233-332 283-521 16-62 22-116 24-245 4-192-10-290-59-422-43-115-88-187-166-268-147-153-357-241-645-270-132-14-401-9-525 10-238 36-388 69-567 127l-113 37v3016h870V3660h78l64 158c119 289 174 493 224 829 6 40-22 38 504 37l415-2-3-28zm9125-139l128-290 69-157c8-21 17-38 20-38s23 37 44 83l265 550 18 27h465c255 0 464-4 464-9 0-4-47-116-104-247l-250-579-156-360c-5-11-34-77-63-147-51-117-54-128-41-155l114-248c0-1 20-45 44-96l114-249 107-235 365-806c0-5-175-8-426-7l-425 3-96 220-152 353c-32 73-61 134-65 135s-78-158-165-353l-159-355-516-3c-284-1-516 0-516 4 0 5 103 228 302 654l306 655 135 300c0 10-102 237-194 434l-49 107c0 3-18 44-41 92-115 244-399 872-399 882 0 7 120 9 392 8l392-3 73-170zm-11389-26l-3-172-245-99-936-391c-39-30-68-95-68-152 0-62 38-133 86-163 18-11 164-72 323-137l565-230 275-113 3-171c1-94-1-171-6-171-4 0-87 33-183 74l-549 231c-759 318-712 295-786 371-182 187-154 515 56 669 46 33 196 99 870 380l400 169c96 41 181 75 188 75 10 1 12-37 10-170zm13410-203c281-118 531-228 556-245 130-90 204-268 179-430-26-169-123-289-288-358-27-12-180-76-340-143l-525-220-318-134c-46-20-87-36-91-36-5 0-32 52-60 115l-66 142c-8 15-13 28-12 30 2 1 203 84 448 183l609 248c191 78 230 107 249 189 21 85-19 182-89 218-29 15-233 99-650 267l-233 97c-4 4 20 70 53 147l60 142c0 5 28-6 518-212zm-9268 46c0-10 59-668 68-764l8-78h-816v-180h580l4-22c3-13 7-52 11-88l45-512v-28h-640v-170l298-2 408 1c63 1 114-1 117-7 4-5 15-112 27-238l46-514-885 2-883 11c1 4 2 590 2 1302v1295h805l805-8zm4089-109l57-700 5-53h-801V1730h-879l1 1298 5 1305c2 4 363 7 802 7h798l12-117zm1935 85c8-53 25-236 46-488l26-282 6-48-409-2-408-3-6-175h296l295-4c0-13 41-454 50-531l10-102c0-10-72-13-325-13h-325v-170l715-5h119l27-315 33-378 7-62h-1771v2610h1609l5-32zm-4734-448v-470l302-2 303-3 12-145 33-350 20-217c0-10-74-13-335-13h-335v-170l308-2 424 1c93 2 119 0 122-10 3-8 16-158 30-334l32-367 6-48H6310v2600h870v-470zm5167-1791c-94-202-107-226-138-241-19-9-37-17-40-18-4 0-9 42-13 93-4 50-12 129-17 175-6 46-9 86-6 89 8 7 312 131 315 128 2-1-44-103-101-226zm2983 35c101-30 180-99 227-199 24-52 28-72 28-150 0-82-3-97-33-157-36-74-92-129-168-168-38-19-69-25-139-28-116-5-181 18-262 91-111 102-148 252-95 392 67 177 260 273 442 219zm-11235-27l80-33 5-179c3-99 9-186 14-194 11-17 27-23-171 59l-151 63 43 81c24 45 53 110 65 146 29 90 29 90 32 90 2 0 39-15 83-33zm1336-543l554-225 340-139c11-5 34-14 50-20 37-14 637-258 1160-473 320-131 401-161 451-165 67-5 25-20 584 209l590 239 650 265 859 349 134 56 922-2-55-25c-51-23-415-177-540-228L8950 460c-751-316-817-343-882-353-99-15-179 0-333 66L6725 596l-150 64c-11 5-247 104-525 220l-525 220c-11 5-78 34-150 64l-1075 458c0 4 202 8 448 8h448l235-96zM2012 3153l3-1388 115-33c177-51 437-92 630-99 269-10 477 25 641 107 68 34 102 60 180 139 138 139 185 243 210 461 37 322-75 616-326 859-41 40-75 77-75 83 0 5 23 51 51 101 153 275 274 563 333 789 38 145 77 344 68 353-3 3-139 5-303 5-334 0-301 8-314-80-17-115-83-370-137-525-63-183-170-425-187-425-12 0-251 37-292 46l-26 5 1 456-2 495-4 38h-568l2-1387zm801-198c166-50 310-184 367-342 31-85 25-193-14-275-32-67-43-77-116-114-48-25-66-28-140-28-106 0-184 22-259 70l-58 38-7 104c-3 58-6 208-6 334v228h93c51 0 113-7 140-15zm-83-359v-227l36-15c57-24 152-23 194 2 80 46 109 171 61 263-46 87-165 179-258 197l-33 7v-227zm9773 1932c5-12 124-273 204-448l391-853 41-87-50-108-71-152c-11-25-137-294-279-598l-259-563c0-5 140-9 334-9h333l28 63 55 122 80 180 85 190 101 227c38 87 71 158 74 158s43-89 90-198l188-437 118-272 14-33h270c149 0 270 3 270 7 0 6-202 455-305 678l-385 859c0 8 36 100 81 203l169 393 193 448 105 242h-626l-17-42c-43-109-242-573-284-663l-62-132c-7-18-17-33-20-33-4 0-55 111-114 248l-190 432-82 185-242 3c-193 2-242 0-238-10zm-8066-335c-4-3-7-525-7-1160V1880h730c689 0 730 1 730 18 0 9-9 109-20 222l-20 218c0 9-90 12-419 12h-418l-6 83c-4 45-7 148-7 230v147h641l-5 53-17 172c-6 66-13 123-15 127-3 5-140 8-304 8h-300l3 233 2 232 403 3 404 2-6 48c-3 26-13 128-21 227l-21 233-5 52h-658c-362 0-661-3-664-7zm4316 0l-233-3V1880h570l1 233-2 1507h395c228 0 397 4 400 9 6 8-26 399-40 514l-7 47h-376l-426 3c-27 2-155 2-282 0zm1707-91V1898c0-17 42-18 731-18h731l-6 38c-3 20-13 120-21 222l-20 198c-3 9-97 12-425 12h-420v460h314c211 0 315 3 318 11 3 9-14 196-28 307l-5 42h-599v470h811l-5 33c-3 17-15 140-27 272l-23 241c0 1-299 4-663 7l-663 6v-97zM6460 3035V1880h1489l-5 32c-2 18-11 119-19 223l-20 203c-3 9-99 12-435 12h-430v460h650l-1 43c0 23-8 121-17 217l-17 175-307 3-308 2v940h-580V3035zm8701-996c-82-16-157-80-198-167-21-45-25-64-21-125 5-87 26-136 88-198 60-60 127-83 221-77 79 6 136 35 193 99 52 57 69 102 70 184 2 188-166 322-353 284zm-1-164c0-59 3-75 14-75 18 0 55 48 85 108l21 42h119l-35-62c-20-35-45-73-56-85l-20-21 31-17c46-24 68-74 53-124-20-63-47-75-189-79l-123-4v392h100v-75z" fill="#020209"/><g fill="#fe0000"><use xlink:href="#B"/><use xlink:href="#C"/><path d="M8640 5130v-410h270v820h-270v-410z"/><use xlink:href="#D"/><use xlink:href="#E"/><use xlink:href="#F"/><use xlink:href="#G"/><use xlink:href="#H"/><use xlink:href="#I"/><use xlink:href="#J"/><use xlink:href="#K"/><path d="M12503 4528l204-448 391-853 41-87-50-108-71-152c-11-25-137-294-279-598l-259-563c0-5 140-9 333-9h334l-4 28c-3 19 33 111 122 312l205 475 95 225 16 35-7-61c-6-61-5-64 87-275l319-739h545l-49 28c-27 15-53 34-58 42-9 17-55 116-198 430l-127 280-53 115-55 120-60 130c-17 39-60 131-94 205l-62 136 96 224 115 265c10 22 52 121 95 220l90 210c47 104 155 359 155 366 0 5-116 9-265 9h-265l-12 25c-16 35-23 32-43-17-38-96-236-559-275-643l-70-150c-15-33-30-80-34-105-12-80-20-77-61 22-38 92-204 478-272 633l-89 203c-9 22-13 22-169 25-154 2-162 3-214 30-31 17-52 23-48 15zM2013 3150l2-1385 115-33c275-79 668-120 899-93 245 29 401 93 531 217 44 42 79 79 78 83-1 3 12 35 29 71 83 180 101 446 44 640-60 205-136 329-293 482l-90 87 40 73c130 239 242 475 297 628 46 129 125 461 125 528 0 9-58 12-259 12h-259l-12 30c-17 40-26 31-34-32-29-219-153-613-274-868-29-62-44-106-43-127 2-25-2-33-14-33-16 0-290 45-342 56l-23 4-2 493-3 492-235 3-235 2-22 28-22 27 2-1385zm663-180c99 0 157-15 242-60 121-65 217-174 262-297 61-170-27-384-187-455-118-52-303-25-420 61l-43 31v774l28-27c26-25 34-27 118-27z"/><use xlink:href="#L"/><path d="M4430 3037V1880h1463l-35 28-36 27-11 140c-6 77-14 155-17 173l-5 32h-839v584l56-54h320l319 1-37 32c-36 32-36 34-47 141l-11 118c0 4-135 8-300 8h-300v585l48-60 406 3 406 2-33 30-33 29-19 220-18 221H4486l-56 54V3037zm2030 0V1880h743l742 1-66 54-29 333c0 9-94 12-435 12h-435v592l58-62h326c179 0 326 2 326 5s-14 18-30 33c-29 26-31 33-40 137-5 61-13 131-16 158l-6 47h-618v940h-454l-66 64V3037zm2060 0V1880h574l-64 66v862l8 862c5 0 19-11 32-25l23-25h394c235 0 393 4 393 9s-13 20-29 33l-29 23-17 220c-9 121-19 223-22 227-2 5-275 8-606 8h-601l-56 54V3037zm1940 1062V1898c0-17 41-18 728-18l727 1-33 27-34 28-14 149-14 172v23l-422 2-423 3-3 288c-1 158 1 287 6 287s19-11 32-25l23-25h314c172 0 313 3 313 6 0 4-15 20-34 36-33 28-34 31-40 126-4 53-10 105-12 115-5 16-28 17-305 17h-299v285c0 157 4 285 8 285 5 0 17-9 27-20 18-19 31-20 427-20h410l-34 27c-18 15-34 27-35 28-1 0-9 86-18 190l-21 223-5 32h-1213l-56 54v-95z"/><use xlink:href="#M"/><use xlink:href="#N"/><use xlink:href="#O"/><use xlink:href="#P"/></g><g fill="#0572b0"><use xlink:href="#B"/><use xlink:href="#C"/><path d="M8640 5130v-410h270v820h-270v-410z"/><use xlink:href="#D"/><use xlink:href="#E"/><use xlink:href="#F"/><use xlink:href="#G"/><use xlink:href="#H"/><use xlink:href="#I"/><use xlink:href="#J"/><use xlink:href="#K"/><use xlink:href="#L"/><use xlink:href="#M"/><use xlink:href="#N"/><use xlink:href="#O"/><use xlink:href="#P"/></g><g fill="#fefe01"><use xlink:href="#B"/><use xlink:href="#E"/><use xlink:href="#F"/><use xlink:href="#G"/><use xlink:href="#H"/><path d="M8640 5130v-410h270v820h-270v-410z"/><use xlink:href="#I"/><use xlink:href="#J"/><use xlink:href="#K"/><use xlink:href="#L"/><use xlink:href="#M"/><use xlink:href="#O"/><use xlink:href="#P"/></g><defs><path id="B" d="M7750 6664l-1395-567-993-404c-8-3 16-18 55-33 74-29 83-29 83 1 0 17 7 19 58 19 48 0 86 12 242 76l410 166 255 103c17 8 131 55 255 105l1281 520 257-105 2041-829 295-116c6 0 37 14 70 30 54 28 57 30 35 39-58 22-256 103-274 111-11 6-119 50-240 99l-620 251-1080 439-487 191c-7 0-119-43-248-96z"/><path id="C" d="M7955 6273c-16-9-55-26-85-39l-202-82c-82-33-148-58-148-55s-6 1-12-5c-7-5-60-29-118-52l-221-91c-64-27-122-49-130-49s-19-4-24-9c-6-5-62-30-125-56l-135-55c-11-5-42-18-70-28l-223-91c-95-39-177-71-182-71-6 0-2-16 7-35l17-35h342l18 45c14 33 25 45 40 45s26 11 39 40l17 40 407-3 408-2v-77c-1-79 9-94 21-33 5 30 10 35 34 35 22 0 30 7 43 40l15 40h176c171 0 176-1 190-22 7-13 17-36 21-53 4-16 10-24 12-17 3 6 20 12 38 12 32 0 34 2 37 38l3 37 198 3 197 2v-970h-34c-33 0-35-2-38-37l-3-38-253-3-252-2-12 27c-15 38-72 197-110 311-17 50-35 92-39 92-5 0-9-6-9-12 0-7-26-86-57-175-51-144-61-163-80-163-16 0-28-11-43-40l-21-40-252 2-252 3-3 405-2 405-40-65c-22-36-40-68-40-71 0-4-36-71-80-149s-80-144-80-147c0-2-24-46-52-96l-83-150c-17-33-37-57-46-57s-27-17-40-37l-24-38-192-3-191-2-20 32c-20 34-33 56-92 163l-50 90c-19 32-60 106-95 170-33 60-68 122-113 198l-39 69-7-37c-4-21-4-76-1-124 8-103-7-200-40-256-13-22-61-77-107-122-125-123-220-165-435-191-114-14-147-14-240-3-211 25-345 79-453 181-33 31-60 54-60 50 0-3-24-14-53-24-28-10-68-27-87-37-19-9-57-25-83-35-56-20-62-28-77-114-42-240-130-548-210-735-4-11-24-60-44-110-20-49-41-98-46-107-6-10-10-22-10-28s-18-47-40-91c-22-45-40-84-40-88 0-3 15-22 33-41 82-88 137-169 202-295 70-137 125-349 125-480 0-47 3-57 13-47 9 10 13 204 16 883l3 870 23 27c23 26 27 27 149 31l126 3v118h1609l5-32c5-32 15-134 56-597 10-118 17-218 14-223-3-4-30-8-60-8h-54v-34c0-19 5-68 10-108 15-109-14-168-83-168-23 0-24-3-21-42l40-415 7-53h-62c-69 0-67 6-55-109l7-61h286l5-42 14-118c6-48 10 264 11 876l1 950 30 29c29 28 34 29 150 33l120 4v53c0 39 4 54 16 59 20 8 828 8 848 0 14-5 16-57 16-475v-469h600v-22c0-13 5-66 11-118 19-178 49-515 49-552v-38h-123l7-52 12-85 6-33h286l10-92c6-66 10 175 11 829l1 923 29 32 29 33 126 4 126 3v118h1610l1-67c1-72 15-203 18-167 3 44 24 85 52 99 20 11 61 15 139 15h110v120h1616l13-132 22-238 19-210c12-126 23-263 21-270-1-3-26-5-55-5-30 0-57-2-60-5s-1-46 4-95c15-141 14-153-19-186-17-17-40-29-55-29-14 0-26-6-26-12 0-7 9-107 20-223l20-242v-33h-119l5-53c3-28 7-67 10-84l5-33h70c38 0 77 4 87 9 9 5 28 13 42 19l98 42c41 17 81 33 90 35 10 2 47 17 84 34 36 17 68 31 71 31 2 0 20 6 38 14 19 8 37 15 41 16 4 0 52 21 107 45s102 41 104 39c5-6 57 61 57 73 0 5 9 28 20 51 11 22 20 46 20 51 0 6-16 46-36 88l-75 165-70 155-139 303-130 285-75 160-91 193c-19 39-37 71-41 70-9-3-98 32-353 138-102 42-195 78-207 81-13 3-23 9-23 14 0 19-29 7-70-28-142-127-401-191-657-164-256 28-448 134-529 294-13 26-25 47-27 47-1 0 0-56 2-125l3-125h-82v-80l-197 2-198 3-10 427-150-168c-82-93-173-190-201-216l-51-48h-373v970h35c34 0 35 1 35 40v40l148-6c103-5 155-3 168 4 17 10 17 11 2 12-9 0-63 20-120 44s-114 47-128 51-43 16-65 26-107 45-190 78l-330 134-285 116-135 56c-16 7-61 25-100 40-38 15-74 31-79 36-14 13-37 10-71-8zm1105-1068v-485h-80v-80h-410v970h35c33 0 35 2 35 33 0 19 3 37 7 40 3 4 98 7 210 7h203v-485z"/><path id="D" d="M9540 5449l1-214 57 61c31 34 89 98 127 144l83 96c11 12 10 15-5 21-17 6-223 88-250 100-10 4-13-41-13-208z"/><path id="E" d="M4925 5550c-200-31-348-127-413-269-22-46-26-70-26-141 0-100 12-147 56-215 60-91 175-164 323-205 74-21 330-24 435-6 159 28 294 106 341 197 35 69 34 69-106 69h-124l-48-48c-154-154-499-104-584 83-21 46-25 163-8 216 39 114 163 178 344 179 128 0 231-44 282-119 13-19 23-38 23-42 0-5-64-10-142-11l-143-3-3-67-3-68h541v441l-184-6-14-48-13-47-27 18c-44 32-114 64-167 79-64 17-262 25-340 13z"/><path id="F" d="M10830 5551c-192-28-342-115-407-238-104-195-35-413 168-526 102-57 192-78 359-84 220-8 364 21 478 97 64 43 122 117 122 157 0 23-1 23-129 23h-129l-18-27c-26-41-53-60-113-83-72-28-154-35-237-21-169 30-260 116-272 256-12 151 65 254 218 289 181 43 365-5 427-111l25-43h-292v-140h530v440h-179l-10-37c-6-21-11-44-11-50 0-18-3-17-55 18-79 54-174 80-305 84-63 2-140 0-170-4z"/><path id="G" d="M5820 5531c0-5 29-60 64-123l107-193 159-288 115-207h313l75 138 217 396 147 272c4 12-21 14-139 14h-144l-84-170h-465l-90 170h-137c-77 0-138-4-138-9zm725-365c-38-85-126-259-129-255-2 2-38 73-80 157l-76 152h309l-24-54z"/><path id="H" d="M7180 5130v-410h389l19 53 113 314c51 145 96 259 100 255s55-145 115-314l108-308h386v821l-245-6-10-660-78 225-153 435-261 6-16-43c-9-24-59-171-112-327l-100-290c-3-2-5 145-5 327v332h-250v-410z"/><path id="I" d="M9147 5533c-4-3-7-188-7-410v-403h287l214 242 251 283 37 40 1-282v-283h250v820h-268l-63-72-79-88-190-213c-96-108-178-197-182-197s-8 128-8 285v285h-118c-65 0-122-3-125-7z"/><path id="J" d="M4320 5270l-1165-475 271-6 284 116 415 169 204 82c46 18 76 36 81 49 17 42 37 115 31 114-3 0-58-22-121-49z"/><path id="K" d="M11710 5195c0-51 2-56 28-66 15-5 70-27 122-49l713-290h136c83 0 130 4 121 9-8 5-222 93-475 196l-636 255c-5 0-9-25-9-55z"/><path id="L" d="M1630 4176l-505-206-455-188c-91-44-113-113-57-177 16-18 172-86 576-250l557-225c2 0 4 26 4 58v57l-123 49-826 342c-17 16-17 62 0 79 8 8 86 43 174 78l350 142 305 124 115 47 3 57c2 31-1 57-5 57-4-1-55-20-113-44z"/><path id="M" d="M14462 4080l-20-49 81-34 376-152c318-129 339-142 310-192-8-16-37-35-74-50l-859-349-164-68c-3-3 34-83 43-94 2-2 75 27 725 291 512 208 492 199 517 236 29 43 29 69 0 112-19 28-46 44-162 92l-731 297c-19 8-24 3-42-40z"/><path id="N" d="M10133 3576c10-128-2-173-49-195-17-7-124-11-334-11h-310V1950h-100v-119c0-66-4-131-10-145-21-57-16-57-520-56-522 0-518 0-539 69-6 21-11 86-11 145v106h-41c-34 0-40-3-35-17 3-10 8-68 12-130l7-112-61-61-694-1-748-8c-62-7-66-4 55-49 28-11 70-28 95-39 94-42 219-93 228-93 4 0 26-9 48-19 35-17 358-149 684-280 63-25 118-50 122-56 5-6 8-6 8 0 0 5 5 4 12-3 24-24 78-12 218 51 72 31 564 229 578 231 7 1 18 8 24 14 7 7 18 12 26 12 7 0 37 11 65 24 29 13 72 31 97 40 25 8 103 40 173 71 71 30 132 55 137 55s33 11 62 24c49 23 299 124 413 168 45 17 81 32 140 58 65 29 255 104 283 112l32 9v1739h-75l8-114z"/><path id="O" d="M12530 2543l-220-89-191-82c-10-12 3-102 15-102 6 0 93 33 191 73l180 74 33 67c18 38 32 70 30 71-2 2-19-3-38-12z"/><path id="P" d="M5470 1622c0-5 46-27 103-50l387-157 1720-700c177-72 298-117 320-117s152 48 345 127l2108 857c42 17 77 35 77 40 0 4-55 8-123 8h-123l-829-338-1455-590-248 100-597 242-1438 586h-123c-68 0-124-4-124-8z"/></defs></svg>
