<?xml version="1.0" encoding="utf-8"?>
<!-- Generator: Adobe Illustrator 22.1.0, SVG Export Plug-In . SVG Version: 6.00 Build 0)  -->
<svg xmlns="http://www.w3.org/2000/svg" xmlns:xlink="http://www.w3.org/1999/xlink" version="1.1" id="Layer_1" x="0px" y="0px" viewBox="0 0 2000 1532.7" style="enable-background:new 0 0 2000 1532.7;" xml:space="preserve" width="65" height="35">
<style type="text/css">
	.st0{fill:#FFC20E;}
</style>
<path class="st0" d="M1306.7,628.5c28.5-37.6,56.4-73.8,82.1-109.3h440L2000,297.1h-460.1c98.8-159.4,142-268,113.5-292.4  c-6.3-5.6-17.4-6.3-31.3-2.1c-34.1,9.7-75.9,39.7-105.1,62c-29.9,22.3-64,50.8-101.6,83.5c-82.8,73.1-79.4,71-4.9,8.4  c41.8-34.8,75.2-59.2,100.2-71.7c7.7-3.5,13.9-6.3,20.2-7.7c9.1-2.1,15.3-2.1,19.5,1.4c20.2,16.7-18.1,98.2-97.5,218.6  c-91.2,139.2-238.1,332.1-412.1,537.4l-12.5,14.6c-94.7,111.4-187.3,214.4-272.2,303.5h550.6V839.4h483.1l160.8-208.1h-643.9  L1306.7,628.5L1306.7,628.5z"/>
<path class="st0" d="M1065.1,1424.9v-9.7h23l-23-112.8v-16h7l40.4,191.4h-13.2l-9.7-52.9L1065.1,1424.9L1065.1,1424.9z   M1262.1,1477.1l5.6-191.4h12.5l40.4,172.6l41.1-172.6h13.2l5.6,191.4h-11.1l-4.9-160.1l-39,160.1h-9l-38.3-160.1l-4.9,160.1H1262.1  z M1539.2,1477.1v-191.4h66.1v10.4h-53.6v76.6h43.9v9.7h-43.9v84.2h53.6v10.4H1539.2z M1796.7,1479.9c-27.8,0-43.2-16.7-45.9-49.4  l11.1-3.5c0.7,5.6,1.4,10.4,2.8,13.9c0.7,4.2,2.1,7.7,4.2,11.8c2.1,3.5,4.2,7,6.3,9c2.8,2.1,5.6,4.2,9,5.6c3.5,1.4,8.4,2.1,12.5,2.1  c20.2,0,30.6-10.4,30.6-30.6c0-7.7-2.1-15.3-6.3-21.6c-4.2-6.3-10.4-13.9-18.8-22.3l-34.8-34.8c-11.1-11.1-16.7-23-16.7-36.2  c0-12.5,3.5-22.3,11.1-28.5c7.7-7,17.4-10.4,30.6-10.4h0.7c13.9,0,24.4,3.5,31.3,11.1c7.7,7.7,11.8,19.5,12.5,36.9l-11.1,2.8  c-1.4-13.9-4.2-23.7-9.1-30.6c-4.9-6.3-12.5-9.7-23-9.7h-1.4c-9.1,0-16.7,2.8-22.3,7c-5.6,4.9-8.4,11.8-8.4,20.9  c0,4.9,1.4,9.7,3.5,14.6c2.1,4.9,5.6,9.7,11.1,14.6l34.8,34.1c9.1,9,16,17.4,20.9,25.8c4.9,8.4,7.7,17.4,7.7,26.5  c0,13.9-4.2,24.4-11.8,31.3C1819.7,1476.4,1809.3,1479.9,1796.7,1479.9L1796.7,1479.9z M822.8,1479.9c-7,0-13.2-0.7-18.8-2.8  c-5.6-2.1-9.7-4.2-13.2-7.7c-3.5-3.5-6.3-7.7-8.4-12.5c-2.1-4.9-3.5-10.4-4.2-16c-0.7-5.6-1.4-11.8-1.4-18.8v-81.4  c0-7,0.7-13.2,1.4-18.8c0.7-5.6,2.1-10.4,4.9-15.3c2.1-4.9,4.9-9.1,8.4-11.8c3.5-3.5,7.7-5.6,13.2-7.7c5.6-2.1,11.8-2.8,18.8-2.8  c16,0,27.1,4.9,34.1,13.9c7,9,10.4,23,10.4,40.4v7h-12.5v-7.7c0-14.6-2.1-25.8-7-32.7c-4.9-7-13.2-10.4-25.1-10.4  c-5.6,0-10.4,0.7-14.6,2.1c-4.2,1.4-7,3.5-9.7,6.3c-2.8,2.8-4.2,5.6-5.6,9.7c-1.4,4.2-2.8,8.4-2.8,12.5c-0.7,4.2-0.7,9.7-0.7,15.3  v83.5c0,7.7,0.7,13.9,1.4,18.8c0.7,5.6,2.8,9.7,4.9,13.9c2.8,4.2,6.3,7.7,10.4,9.7c4.2,2.1,9.7,2.8,16.7,2.8  c6.3,0,11.1-0.7,15.3-2.8c4.2-2.1,7.7-4.9,9.7-9c2.1-4.2,4.2-9.1,4.9-13.9c0.7-5.6,1.4-11.8,1.4-18.8V1397h-30.6v-9.7h42.5v91.2  h-8.4l-2.1-21.6C852.8,1472.2,840.9,1479.9,822.8,1479.9L822.8,1479.9z M1065.1,1286.4v16v-0.7l-23,113.5h23v9.7H1040l-10.4,52.9  h-12.5l40.4-191.4L1065.1,1286.4L1065.1,1286.4z"/>
<path d="M1043.5,653.6c10.4-14.6,19.5-32,26.5-51.5c7-19.5,10.4-42.5,10.4-67.5c0-39-7.7-73.8-23.7-103  c-16-29.2-38.3-54.3-67.5-73.8c-29.2-20.2-64.7-34.8-105.8-44.6c-41.1-9.7-87.7-14.6-138.5-14.6l-572.9,0L0,520.6l756.7,0  c18.8,0,35.5,4.2,50.8,11.8c15.3,7.7,23,22.3,23,43.2c0,22.3-7.7,37.6-22.3,45.2c-14.6,8.4-32,11.8-51.5,11.8H549.3v0H0.1v520H550v0  h50.1c-14.6,14.6-32,32.7-50.8,51.5v0c-70.3,70.3-164.3,159.4-237.4,200.5c-7,3.5-13.2,7-18.8,9c-13.9,5.6-23.7,6.3-29.2,1.4  c-31.3-27.1,98.2-193.5,98.2-193.5c-94,103-197,270.1-153.8,306.3c8.4,7,22.3,6.3,41.8-1.4c17.4-7,39-18.8,64-36.2  c9.7-7,20.2-13.9,30.6-22.3c55-41.1,124.6-98.8,204.7-171.9v0c47.3-43.2,98.2-91.2,151.1-143.4c98.2-97.5,204-209.5,308.4-331.4  c14.6-17.4,29.2-34.1,43.2-51.5c-4.2-4.2-8.4-9-12.5-12.5c-15.3-14.6-32-25.8-50.8-34.8c-8.4-3.5-16-7-25.1-9.7  c14.6-4.9,28.5-12.5,43.2-22.3C1020.5,680.7,1033.1,668.2,1043.5,653.6z M814.5,917.4c-12.5,10.4-33.4,15.3-62.7,15.3H549.3v0h-284  V815.1H550v0h201.8c29.2,0,50.1,4.9,62.7,14.6c12.5,9.7,19.5,24.4,19.5,43.2C834,892.3,827.7,907.7,814.5,917.4z"/>
</svg>
