<?xml version="1.0"?>
<svg xmlns="http://www.w3.org/2000/svg" width="60" height="40" fill="none" viewBox="0 0 347 361"><path d="M14.5 0h164.8c9.3-.1 18.6 1.2 27.6 3.8h.1C269.7 22 314.5 61.5 343.3 119.9c1.5 3 4.7 7 1.4 9.9s-6.5-1.1-9.5-2.8c-18.3-10.6-37.5-18.4-58.7-20.1-53.5-4.3-107.1-.9-160.6-1.9-6.4-.1-8.6 3-9 9.3-.7 10.7 5.6 11.6 13.7 11.6l163.9-.1c6.8-.1 13.6.4 20.4 1.5 24.4 4.4 42 25.8 41.6 50.6V346c0 14.9-.1 14.9-15.2 15H184.6C110.3 361 32 308.1 4 239c-1.2-2.9-4.1-6.4-1.4-9 3.4-3.3 6.6.7 9.4 2.4 21 12.7 43.5 20.9 68.2 21.2l149.9.4c6.6 0 11.1-1.6 11.2-9.6.1-8.6-4.8-10-11.7-10.3-45.3-1.8-90.6-.5-135.9-.7-15.4-.1-30.9 1.4-46.3-.2C22 230.5.4 209 .2 183.4l.2-169C.3 6.4 6.7.1 14.5 0z" fill="url(#A)"/><defs><linearGradient id="A" x1="346.754" y1="225.813" x2=".245" y2="132.966" gradientUnits="userSpaceOnUse"><stop stop-color="#34bcd5"/><stop offset="1" stop-color="#a1509e"/></linearGradient></defs></svg>
