<?xml version="1.0" encoding="utf-8"?>
<!-- Generator: Adobe Illustrator 19.0.0, SVG Export Plug-In . SVG Version: 6.00 Build 0)  -->
<svg xmlns="http://www.w3.org/2000/svg" xmlns:xlink="http://www.w3.org/1999/xlink" version="1.1" id="gameart" x="0px" y="0px" viewBox="0 0 681 145.4" style="enable-background:new 0 0 681 145.4;" xml:space="preserve" width="65" height="35">
<style type="text/css">
	.st0{fill:none;}
	.st1{fill:#32347D;}
</style>
<rect id="XMLID_1_" class="st0" width="681" height="145.4"/>
<g id="XMLID_2312_">
	<path id="XMLID_2766_" class="st1" d="M563.9,34.2c0,6.1,0,12.1,0,18.2c12.4,0,24.9,0,37.3,0c0,20.4,0,40.8,0,61.2   c6.6,0,13.2,0,19.8,0c0-20.4,0-40.8,0-61.2c12.4,0,24.9,0,37.3,0c0-6.1,0-12.1,0-18.2C626.9,34.2,595.4,34.2,563.9,34.2z"/>
	<path id="XMLID_2845_" class="st1" d="M144.1,80.4c9.2,0,18.3,0,27.5,0c-4.6-6.8-9.3-13.5-13.9-20.3   C153.2,66.9,148.6,73.7,144.1,80.4z"/>
	<path id="XMLID_2850_" class="st1" d="M22.7,32c0,27.2,0,54.4,0,81.5c111.9,0,223.8,0,335.7,0c3.1-4.6,6.2-9.2,9.3-13.8   c17.6,0,35.2,0,52.8,0c3.2,4.6,6.3,9.2,9.5,13.8c7.5,0,15,0,22.6,0c-18.7-27.2-37.3-54.4-56.1-81.5C271.9,32,147.3,32,22.7,32z    M70.9,102.7c-8.8-0.7-17.9-3.1-24.7-8.9c-11.8-10-12.1-30.4-0.7-40.8c6.8-6.4,16.3-9.2,25.4-9.9c13.1-1,27.2,0.7,37.8,9.2   c-2.3,2.9-4.6,5.8-6.8,8.7c-9-7.7-21.5-8.4-32.7-7.1c-6.2,0.7-12.8,3.1-16.3,8.6C47.2,71.5,49.9,86.3,61,90c12,3.8,25.7,3.4,37-2.2   c0-2.9,0-5.9-0.1-8.9c-9.1,0-18.2,0-27.3,0c0-3.6,0-7.2,0-10.9c13,0,26,0,39,0c0,8.3,0,16.7,0.1,25   C98.9,101.8,84.3,103.7,70.9,102.7z M186.4,101.9c-2.4-3.5-4.9-7.1-7.3-10.6c-14.1,0-28.2,0-42.3,0c-2.4,3.6-4.7,7.1-7.2,10.7   c-4.4,0-8.9,0-13.3,0c13.9-20.3,27-41.1,41.5-61c14.7,19.9,28.2,40.7,42.3,61C195.6,101.9,191,101.9,186.4,101.9z M289.3,101.9   c-4.1,0-8.2,0-12.4,0c0-11.6,0-23.2,0-34.8c-8.7,8.1-17.1,16.7-26.1,24.6c-9.1-8.2-18.1-16.5-27.2-24.7c0,11.6,0,23.3,0,34.9   c-4.2,0-8.3,0-12.4-0.1c0.1-19.8,0-39.7,0.1-59.5c2.6,0.7,4.9,1.9,6.8,3.8C229,56.2,240,66.2,251,76.3c10.7-10.2,21.4-20.3,32-30.5   c1.7-1.9,4-2.8,6.3-3.5C289.4,62.1,289.3,82,289.3,101.9z M370,54.9c-16.1,0-32.1,0-48.2,0c0,3.9,0,7.8,0,11.7c13.5,0,27,0,40.5,0   c-2.4,3.6-4.7,7.3-7.1,10.9c-11.1,0-22.3,0-33.4,0c0,4.4,0,8.8,0,13.2c8.2,0,16.5,0,24.8,0c-2.5,3.8-4.9,7.5-7.4,11.2   c-10-0.1-19.9,0-29.9-0.1c0-19.4,0-38.8,0-58.2c22.7,0,45.4,0,68.1,0C375,47.4,372.5,51.1,370,54.9z M379.5,82.1   C384.2,75,389,68,393.7,61c4.9,7,9.7,14.1,14.5,21.1C398.7,82.1,389.1,82.1,379.5,82.1z"/>
	<path id="XMLID_2864_" class="st1" d="M545.9,77.1c10.6-8.7,10.6-27.5-0.6-35.7c-8.5-6.2-19.5-7-29.7-7.2c-18.1-0.1-36.1,0-54.2,0   c0,26.4,0,52.9,0,79.3c6.6,0,13.2,0,19.8,0c0-9.4,0-18.8,0-28.3c9.5,0,19.1,0,28.6,0c8.6,9.4,17.1,18.9,25.7,28.3   c8.3,0,16.7,0,25,0c-9.1-10-18.1-20.1-27.3-30.1C537.6,81.8,542.3,80.3,545.9,77.1z M525.7,68l-44.5,0.1v-16l44.5-0.1   c4.4,0,8,3.6,8,8C533.7,64.4,530.1,68,525.7,68z"/>
</g>
</svg>
