<?xml version="1.0"?>
<!DOCTYPE svg PUBLIC "-//W3C//DTD SVG 20010904//EN" "http://www.w3.org/TR/2001/REC-SVG-20010904/DTD/svg10.dtd">
<svg xmlns="http://www.w3.org/2000/svg" version="1.0" width="65" height="35" viewBox="0 0 2770 2920" preserveAspectRatio="xMidYMid meet">
<g id="layer101" fill="#f19204" stroke="none">
 <path d="M1215 2721 c-6 -5 -32 -12 -60 -15 -80 -8 -125 -18 -131 -27 -3 -5 -16 -9 -29 -9 -13 0 -27 -4 -30 -10 -3 -5 -13 -10 -22 -10 -43 0 -285 -138 -366 -209 -52 -45 -151 -145 -177 -179 -14 -18 -33 -43 -43 -54 -24 -29 -31 -64 -18 -80 7 -7 27 -38 46 -68 19 -30 38 -60 44 -66 5 -6 17 -26 26 -45 10 -19 21 -36 25 -39 3 -3 17 -25 31 -50 13 -25 27 -49 32 -55 20 -26 56 -85 82 -135 17 -30 33 -57 36 -60 4 -3 17 -25 29 -50 12 -25 30 -56 40 -70 9 -14 32 -54 51 -90 18 -36 36 -67 39 -70 4 -3 26 -44 51 -92 24 -49 47 -88 52 -88 4 0 7 90 7 201 0 290 21 466 76 644 62 199 141 276 282 277 127 1 229 -85 387 -327 41 -63 128 -221 148 -267 6 -16 15 -28 19 -28 4 0 8 -8 8 -18 0 -10 14 -39 30 -65 17 -26 30 -54 30 -62 0 -8 4 -15 8 -15 4 0 16 -22 26 -50 10 -27 21 -50 25 -50 4 0 21 35 39 78 63 153 174 319 275 411 34 30 46 32 60 10 8 -13 3 -28 -25 -65 -103 -142 -177 -380 -219 -703 -11 -83 -16 -97 -42 -123 -24 -23 -39 -28 -77 -28 -62 0 -77 18 -141 161 -28 63 -67 148 -86 189 -19 41 -37 83 -40 93 -3 9 -9 17 -14 17 -5 0 -9 6 -9 14 0 14 -49 112 -122 241 -76 135 -83 145 -90 145 -5 0 -8 5 -8 11 0 20 -89 138 -144 191 -43 40 -71 16 -105 -88 -62 -195 -89 -667 -61 -1059 25 -339 25 -340 2 -377 -25 -40 -94 -70 -114 -50 -7 7 -18 12 -26 12 -23 0 -36 20 -117 180 -44 85 -82 157 -85 160 -3 3 -21 34 -39 70 -19 36 -38 66 -43 68 -4 2 -8 8 -8 13 0 8 -53 100 -129 227 -40 65 -169 265 -181 279 -5 7 -10 15 -10 19 0 3 -18 32 -41 63 -47 65 -135 198 -164 247 -11 19 -23 34 -26 34 -4 0 -11 -20 -18 -45 -6 -25 -17 -66 -23 -92 -9 -31 -13 -117 -12 -243 0 -180 3 -202 28 -293 15 -55 36 -122 47 -150 26 -65 106 -225 122 -243 19 -21 30 -36 61 -82 35 -51 179 -194 233 -230 21 -14 40 -29 41 -34 2 -4 10 -8 18 -8 8 0 14 -4 14 -10 0 -5 5 -10 11 -10 6 0 29 -13 52 -28 35 -23 94 -50 222 -102 57 -23 85 -30 220 -53 74 -13 316 -15 375 -3 123 24 147 29 165 36 11 4 38 13 60 19 118 36 306 139 398 220 75 65 177 174 217 231 14 19 27 37 30 40 6 5 32 49 72 119 29 52 86 196 99 251 4 19 15 67 24 105 25 107 23 372 -4 493 -20 91 -40 159 -65 217 -43 101 -60 135 -68 135 -4 0 -8 5 -8 10 0 14 -69 127 -100 165 -55 66 -198 204 -245 235 -27 19 -51 37 -53 42 -2 4 -8 8 -13 8 -5 0 -39 18 -75 40 -36 22 -70 40 -75 40 -4 0 -23 8 -41 18 -18 10 -53 24 -78 31 -25 7 -54 17 -65 21 -22 9 -86 23 -179 40 -73 12 -338 13 -351 1z"/>
 </g>

</svg>
