<svg xmlns="http://www.w3.org/2000/svg" width="6999" height="1492" fill="#e2b025"><path d="M1641.6.782h1033.9l-243.9 558.015c147.86 12.952 300.03 69.077 399.32 182.407 63.67 71.236 93.9 167.297 93.9 261.196 2.16 137.08-48.56 278.47-152.17 370.2-91.73 84.2-219.08 121.97-343.2 118.73-104.7 3.24-209.37-37.78-283.84-111.17-26.98-25.9-51.8-55.05-74.47-84.2h-430.6l1.08-343.226 109 1.08 1.08-230.977h402.55c4.32 76.632 1.08 154.344 1.08 230.977h129.5V344H2156.4v249.326l-404.7 1.08c-1.08-83.1 0-167.297 1.08-250.405l-111.16 1.08V.782zM3260.44 2.94c224.48-4.317 450.03 0 674.5-2.16l1.08 346.467c-135.98 0-273.04-1.08-409.03 0-91.73 1.08-179.15 47.5-235.27 118.726-52.88 60.443-60.43 147.87-51.8 224.502 9.7 100.378 77.7 189.962 168.36 233.135 46.4 19.428 97.13 25.905 146.77 25.905l384.2 2.158V1294.9c-222.32 4.32-445.72 0-668.04 1.08-92.8-1.08-185.63 2.16-278.44-2.16 79.86-89.58 112.24-212.63 120.87-329.194 9.72-139.234-15.1-289.26-105.76-400.433-88.5-111.17-226.64-174.85-365.86-189.962l82.02-206.153 451.12-1.08 85.26-164.06zM.103 372.07H100.47v236.374h413.343V372.07H616.34l-1.08 578.523H513.813v-239.61H100.47v239.612H.103V372.07zm728.477 0h101.447v578.523H728.58V372.07zm284.92 74.477c57.2-53.967 138.14-74.474 215.84-73.395h322.7l-2.16 102.537s-213.7 0-320.53-1.08c-53.96-2.16-111.16 17.27-147.85 59.363-49.65 51.808-59.36 132.758-37.77 199.676 24.82 67.998 94.97 113.33 166.2 115.5h279.5V723.935h-275.2v-92.822h377.73v319.482h-372.33c-73.4 0-146.78-25.904-199.66-77.712-115.475-111.17-121.95-316.244-6.47-426.336zM4372.04 376.4c36.7-3.238 65.83 25.904 83.1 55.046l306.5 519.16h-129.5c-33.46-52.888-64.75-106.854-97.13-160.82-91.74 1.08-182.4-1.08-274.12 1.08 20.5-34.538 41-67.998 63.67-101.457 50.72 1.08 101.45 0 151.1 0-34.53-51.808-64.75-106.854-98.2-159.74-8.63 7.555-14.03 17.27-20.5 25.904L4116.3 949.52h-127.4l298.95-500.8c18.34-32.38 44.24-67.998 84.18-72.316zm572 58.283c6.48-30.22 26.98-64.76 61.52-66.918 34.53-1.08 52.88 33.46 68 59.363l188.86 370.2 153.25-295.737c21.6-39.935 37.77-83.1 65.83-117.647 19.43-24.825 57.2-19.428 78.8 0 20.5 20.507 22.66 51.808 30.22 77.712l118.7 486.78c-37.77-1.08-75.54 0-114.4 0l-83.1-400.433-195.34 376.688c-23.74 36.697-83.1 41.014-104.68-1.08-68-124.123-133.83-250.405-197.5-376.687l-83.1 400.432h-115.5c46.4-168.376 85.26-341.07 128.43-512.683zm840.7-57.205h497.53v101.457H5886.2v371.3h396.08v100.378h-497.53V377.468zm681 8.635c33.46-10.793 69.07-7.555 104.7-7.555h393.9v100.378h-432.77c-21.58 0-68 17.27-70.15 51.808-5.4 35.618 30.22 63.68 63.68 62.6l280.6 1.08c59.35 1.08 123.03 21.587 160.8 70.157 47.5 70.157 44.25 175.93-18.35 236.374-36.7 36.697-90.65 50.73-141.37 50.73H6363.2v-100.38l424.14 1.08c43.17 1.08 94.97-10.793 114.4-53.967 11.87-21.586 5.4-47.5-6.48-65.84-18.35-26.983-55.04-36.697-88.5-35.618h-284.92c-57.2 0-115.48-26.983-147.85-74.474-24.83-36.697-29.14-84.188-19.43-126.282 14.03-56.125 59.36-96.06 111.16-110.092zm-3072.55 165.14c36.7-55.046 106.84-72.315 169.44-73.394l375.57-1.08v120.885c-135.98-1.08-271.97 0-407.95-1.08v128.44h319.45v96.06h-277.36c-71.23-1.08-147.85-31.3-185.63-94.982-29.13-53.966-23.74-123.044 6.48-174.852zm2534.02 58.282h328.08c0 33.46 1.08 66.92 0 101.458h-327c-1.08-33.46-1.07-66.92-1.07-101.458z"/></svg>