<?xml version="1.0"?>
<svg xmlns="http://www.w3.org/2000/svg" viewBox="0 0 994 324.88" width="65" height="35"><defs><style>.cls-1{fill:#eea16f;}.cls-2{fill:#e05440;}.cls-3{fill:#df4e3d;}.cls-4{fill:#7d0000;}.cls-5{fill:#840001;}.cls-6{fill:#8a0002;}.cls-7{fill:#d82423;}.cls-8{fill:#be000b;}.cls-9{fill:#d92d29;}.cls-10{fill:#d82826;}.cls-11{fill:#b9000a;}.cls-12{fill:#cf000e;}.cls-13{fill:#ec9467;}.cls-14{fill:#a00006;}.cls-15{fill:#b30009;}.cls-16{fill:#ed996a;}.cls-17{fill:#d61b1e;}.cls-18{fill:#cb000d;}.cls-19{fill:#d82926;}.cls-20{fill:#d82524;}.cls-21{fill:#ae0008;}.cls-22{fill:#d41018;}.cls-23{fill:#de493a;}.cls-24{fill:#d0010e;}.cls-25{fill:#d5151b;}.cls-26{fill:#da322c;}.cls-27{fill:#c7000c;}.cls-28{fill:#ea8a61;}.cls-29{fill:#dd4437;}.cls-30{fill:#9b0106;}.cls-31{fill:#e36349;}.cls-32{fill:#e8805b;}.cls-33{fill:#e67655;}.cls-34{fill:#d20511;}.cls-35{fill:#d30b15;}.cls-36{fill:#db372f;}.cls-37{fill:#c2000c;}.cls-38{fill:#e15943;}.cls-39{fill:#e25d46;}.cls-40{fill:#dc3f34;}.cls-41{fill:#c5000c;}.cls-42{fill:#e05340;}.cls-43{fill:#d72021;}.cls-44{fill:#e9845e;}.cls-45{fill:#e56c4f;}.cls-46{fill:#e4684c;}.cls-47{fill:#db362e;}.cls-48{fill:#d72121;}.cls-49{fill:#eb9064;}.cls-50{fill:#de4a3a;}.cls-51{fill:#d61e20;}.cls-52{fill:#dc3b32;}.cls-53{fill:#dc3b31;}.cls-54{fill:#dd4537;}.cls-55{fill:#d92c28;}.cls-56{fill:#df4f3d;}.cls-57{fill:#da312b;}.cls-58{fill:#dd4034;}.cls-59{fill:#d5131a;}.cls-60{fill:#d5181d;}.cls-61{fill:#d30d16;}.cls-62{fill:#d20713;}.cls-63{fill:#900003;}.cls-64{fill:#e25f47;}.cls-65{fill:#e15b45;}.cls-66{fill:#e15843;}.cls-67{fill:#e3644a;}.cls-68{fill:#e9855e;}.cls-69{fill:#ea8960;}.cls-70{fill:#e46c4f;}.cls-71{fill:#ea8c62;}.cls-72{fill:#e77b58;}.cls-73{fill:#e67454;}.cls-74{fill:#e57152;}.cls-75{fill:#e9835d;}.cls-76{fill:#ec996a;}.cls-77{fill:#ed9d6c;}.cls-78{fill:#ea8b61;}.cls-79{fill:#fcfcfc;}.cls-80{fill:#cccbcb;}.cls-81{fill:#d40e16;}.cls-82{fill:#d20712;}.cls-83{fill:#e01525;}.cls-84{fill:#e41324;}.cls-85{fill:#e40012;}.cls-86{fill:#e30617;}.cls-87{fill:#e30a1b;}.cls-88{fill:#e20d1e;}.cls-89{fill:#e11021;}.cls-90{fill:#fefefe;}.cls-91{fill:#c4c4c5;}.cls-92{fill:#e3e3e3;}.cls-93{fill:#d9d9d9;}.cls-94{fill:#cfcfd0;}.cls-95{fill:#fbfbfb;}.cls-96{fill:#b3a8aa;}.cls-97{fill:#810001;}.cls-98{fill:#ecebec;}.cls-99{fill:#f8f7f7;}.cls-100{fill:#f4f3f3;}.cls-101{fill:#9b1e25;}.cls-102{fill:#c7051c;}.cls-103{fill:#c80118;}.cls-104{fill:#b01219;}.cls-105{fill:#020202;}.cls-106{fill:#c7041c;}.cls-107{fill:#b42231;}.cls-108{fill:#c70b22;}.cls-109{fill:#c7041b;}.cls-110{fill:#fcfbfb;}.cls-111{fill:#bf000b;}.cls-112{fill:#d71e20;}.cls-113{fill:#df2632;}.cls-114{fill:#e21626;}.cls-115{fill:#da3d48;}.cls-116{fill:#e1404b;}.cls-117{fill:#dd4b4c;}.cls-118{fill:#b6000a;}.cls-119{fill:#b10009;}.cls-120{fill:#d20612;}.cls-121{fill:#e00e1e;}.cls-122{fill:#d62432;}.cls-123{fill:#d42734;}.cls-124{fill:#d73744;}.cls-125{fill:#de3543;}.cls-126{fill:#dd3d4a;}.cls-127{fill:#e40113;}.cls-128{fill:#eb8f64;}.cls-129{fill:#a60007;}.cls-130{fill:#bc000a;}.cls-131{fill:#e46b4e;}.cls-132{fill:#960004;}.cls-133{fill:#dd444d;}.cls-134{fill:#d9484d;}.cls-135{fill:#df4850;}.cls-136{fill:#e01727;}.cls-137{fill:#d54044;}.cls-138{fill:#da4649;}.cls-139{fill:#e21021;}.cls-140{fill:#d4313a;}.cls-141{fill:#d62f39;}.cls-142{fill:#d92e38;}.cls-143{fill:#d3333c;}.cls-144{fill:#f4f4f4;}.cls-145{fill:#d44246;}.cls-146{fill:#e8e8e8;}.cls-147{fill:#e30415;}.cls-148{fill:#d52e39;}.cls-149{fill:#d82836;}.cls-150{fill:#d32935;}.cls-151{fill:#d1333f;}.cls-152{fill:#e23d49;}.cls-153{fill:#d5181c;}.cls-154{fill:#e0202f;}.cls-155{fill:#e40314;}.cls-156{fill:#e67253;}.cls-157{fill:#e40f20;}.cls-158{fill:#e10e1f;}.cls-159{fill:#e11525;}.cls-160{fill:#e40112;}.cls-161{fill:#dc3f33;}.cls-162{fill:#db3a30;}.cls-163{fill:#eaeaea;}.cls-164{fill:#e36248;}.cls-165{fill:#840203;}.cls-166{fill:#ecebeb;}.cls-167{fill:#c63d4a;}.cls-168{fill:#c80018;}.cls-169{fill:#f8f8f8;}.cls-170{fill:#a59c9e;}.cls-171{fill:#a21b23;}.cls-172{fill:#af1d2a;}.cls-173{fill:#b12331;}.cls-174{fill:#b32735;}.cls-175{fill:#b62230;}.cls-176{fill:#b32632;}.cls-177{fill:#c03643;}.cls-178{fill:#c32d3e;}.cls-179{fill:#c23342;}.cls-180{fill:#d6191d;}.cls-181{fill:#ededed;}.cls-182{fill:#d41118;}.cls-183{fill:#d30c15;}.cls-184{fill:#d5151a;}.cls-185{fill:#db352d;}.cls-186{fill:#e02230;}.cls-187{fill:#df2130;}.cls-188{fill:#e3091a;}.cls-189{fill:#e40617;}.cls-190{fill:#e30719;}.cls-191{fill:#e41021;}.cls-192{fill:#d71f20;}.cls-193{fill:#cc000d;}.cls-194{fill:#d0000e;}.cls-195{fill:#d82424;}.cls-196{fill:#d82927;}.cls-197{fill:#d82725;}.cls-198{fill:#e30314;}.cls-199{fill:#dd4136;}.cls-200{fill:#e61122;}.cls-201{fill:#dc3a31;}.cls-202{fill:#cb010d;}.cls-203{fill:#9c0005;}.cls-204{fill:#a20006;}.cls-205{fill:#a90007;}.cls-206{fill:#ea8a60;}.cls-207{fill:#e9845d;}.cls-208{fill:#e71f2d;}.cls-209{fill:#e25e46;}.cls-210{fill:#ad0008;}.cls-211{fill:#b40009;}.cls-212{fill:#e3654b;}.cls-213{fill:#e05441;}.cls-214{fill:#e9313e;}.cls-215{fill:#f5f4f4;}.cls-216{fill:#f1f1f1;}.cls-217{fill:#bd3743;}.cls-218{fill:#d92e29;}.cls-219{fill:#e57151;}.cls-220{fill:#e0533f;}.cls-221{fill:#e6494e;}.cls-222{fill:#e85357;}.cls-223{fill:#f7f6f7;}.cls-224{fill:#efefef;}.cls-225{fill:#d8d7d8;}.cls-226{fill:#aba7a8;}.cls-227{fill:#b2aeaf;}.cls-228{fill:#aea2a4;}.cls-229{fill:#de0e1e;}.cls-230{fill:#e84f52;}.cls-231{fill:#e55050;}.cls-232{fill:#e64e51;}.cls-233{fill:#e55452;}.cls-234{fill:#e84a50;}.cls-235{fill:#e65453;}.cls-236{fill:#e5504e;}.cls-237{fill:#e75153;}.cls-238{fill:#e95057;}.cls-239{fill:#cecccd;}.cls-240{fill:#de4a3c;}.cls-241{fill:#dc3d33;}.cls-242{fill:#de4638;}.cls-243{fill:#df4c3c;}.cls-244{fill:#ce3b42;}.cls-245{fill:#e5e5e5;}.cls-246{fill:#c3c0c0;}</style></defs><title>KA gaming-logo</title><g id="&#x421;&#x43B;&#x43E;&#x439;_2" data-name="&#x421;&#x43B;&#x43E;&#x439; 2"><g id="&#x421;&#x43B;&#x43E;&#x439;_1-2" data-name="&#x421;&#x43B;&#x43E;&#x439; 1"><path class="cls-1" d="M1.92,119.16C.2,114.55,1.52,109.71.85,105c-.51-.93-.27-1.94-.33-2.93q0-1.11,0-2.23,0-1.84,0-3.67C.31,94.8,1,93.3,0,92V80c.73-.74.41-1.94,1.18-2.67,3.15-9,5.75-10.6,17.33-10.65a14.84,14.84,0,0,1,1.53,0c2.78.2,5.33,1.32,8,2.1,1.6.6,3.3.92,4.89,1.57a5.76,5.76,0,0,1,1.76,1.35c1.43,1.69,1,3.34-.07,5a21.73,21.73,0,0,1-3.73,4.61c-9,8.32-16.33,18.22-25.5,26.33-2.89,2.55-1.81,5.76-2.15,8.78A3.51,3.51,0,0,1,1.92,119.16Z"/><path class="cls-2" d="M131,0h2c2,1.6,2.48,3.82,2.49,6.2,0,10.72.28,21.44-.13,32.15a7.94,7.94,0,0,1-1,3.09,8,8,0,0,1-.87,1.16l-.48.5c-.3.31-.62.61-.95.89l-.46.42c-.28.28-.59.54-.89.8l-.44.37c-.77.53.39.85.16,1.32,0,1.48-.27,3,.83,4.24,1.67,1.94,3.85,3.55,4.07,6.41.53,10.58.2,21.16.19,31.74,0,1.81-.14,3.66-1.62,5a5.88,5.88,0,0,1-4.62.62c-2.18-.69-4.33-1.41-5.26-3.82a18.39,18.39,0,0,1-.59-5.91q0-38,0-76.1c0-2.87-.69-6.13,2.6-8l-.1-.21c.8-.57,1.71-.33,2.58-.39S130.29.75,131,0Z"/><path class="cls-3" d="M134,40.11c0-10.6-.08-21.21,0-31.81A26.69,26.69,0,0,0,133,0h6c.87.94,2.18.2,3.14.81L142,1a6.46,6.46,0,0,1,1.51,4.6c0,10.07.41,20.14-.24,30.2a4.83,4.83,0,0,1-3.35,3.7,12.87,12.87,0,0,1-2.26.75C136.45,40.49,135.22,41,134,40.11Z"/><path class="cls-4" d="M313.09,96c-.51,25.12-.93,50.25-1.55,75.37-.36,14.81-1,29.61-1.55,44.41a68.44,68.44,0,0,1-3.76,21.49,34.17,34.17,0,0,1-10.86,15.17q-35.91,29-71.75,58.1c-2,1.65-4.35,3-6.53,4.49-11.67,4.57-16.5,1.8-20.19-11.62a110.75,110.75,0,0,1-.06-20c7.8-11.69,14.89-23.84,22.57-35.62,1-1.51,2.18-3,4.28-3a1.88,1.88,0,0,1,.95,1.82c-.07.94-.3,1.86-.42,2.79a21.16,21.16,0,0,1-.47,2.76,12,12,0,0,0-.45,3.52c-.59,9.2-4.15,18-4.4,27.49,3.71.52,5.17-2.19,7.36-3.42,7.67-4.3,10.88-11,11.8-19.56s3.32-17,4.27-25.59c.83-7.54,3.69-13.28,10.61-16.69,2.17-1.34,4.17-2.94,6.26-4.4,1.08-.81,2.13-1.66,3.24-2.43.35-.29.72-.56,1.08-.84l.54-.45a9.52,9.52,0,0,1,3.05-1.86c3.16-.55,2.9,2,3.26,3.77q2.35,11.6,4,23.32c.28,2,.06,4.6,3.34,4.38,1.65-.58,2.7-2,4.16-2.87.5-.34,1-.66,1.51-1,.29-.27.6-.53.9-.79l.43-.42c.28-.3.58-.57.89-.84l.47-.4c.49-.4,1-.75,1.53-1.1a14.64,14.64,0,0,0,3.63-3.57,11.5,11.5,0,0,0,1.12-2.49c1.06-6.45-1.58-12.44-2.28-18.67-.43-1.76-.43-3.59-1-5.31-.34-2.35-.89-4.66-1.35-7-.93-6.94-2.67-13.72-4-20.6-.45-4.75-1.69-9.36-2.62-14a16.17,16.17,0,0,1-.47-3.08c-.2-2.76-1.12-5.43-1.06-8.22-.08-.74-.31-1.46-.43-2.2a4.45,4.45,0,0,1,.42-2.92c5.08-6,8.65-13,12.84-19.55,5.36-8.41,10.26-17.11,15.86-25.36C309.36,97.38,310.07,94.62,313.09,96Z"/><path class="cls-5" d="M313.09,96c-5.77,3.84-7.9,10.35-11.41,15.8-6.45,10-12.56,20.28-18.8,30.44a3.28,3.28,0,0,1-2.81,1.76c-3.09-1.27-1.85-4.4-2.82-6.58a9.89,9.89,0,0,1-.33-1.47,24.14,24.14,0,0,0-.85-4.42,6.92,6.92,0,0,1,.41-4.61c11.09-15.63,20.37-32.39,30.67-48.52,1.33-2.09,2.12-5,6.37-4.68-.23,7,.41,13.89-.44,20.8Z"/><path class="cls-6" d="M313.08,94.52v-20l-1.61-.38c-3.27,5.2-6.56,10.39-9.8,15.6-7.06,11.36-14.05,22.76-21.18,34.08-.81,1.29-1.39,3.15-3.46,3.22a2.31,2.31,0,0,1-1.65-1.24,6.58,6.58,0,0,1-.45-1.36c-.2-1.89-.85-3.69-1.08-5.58a28.15,28.15,0,0,1-.08-3.62c.25-4.63,3.52-7.81,5.72-11.44,8.78-14.48,17.56-29,26.68-43.24.88-1.38,1.53-3,3-3.87a2.76,2.76,0,0,1,1.4-.12c.72.24.94,1,1.49,1.44l0-.05c.44.62.35,1.44.76,2.07C314.92,71.48,314.1,83,313.08,94.52Z"/><path class="cls-7" d="M205,17c2.62-.08,5,.87,7.33,1.84-1.51,6.91-1.26,13.84-.35,20.78a5.59,5.59,0,0,1,.4,1.4A4.93,4.93,0,0,1,211,44a6.1,6.1,0,0,0-.83,1.64c-.07.4-.16.8-.24,1.2-.65,2,.06,3.71,1.12,5.36a4.4,4.4,0,0,1,.28,3c-1.79,11.09-.4,22.25-.86,33.36-.12,2.78.79,5.66-.63,8.35-2.52,2.34-5,4.89-8.8,2.29-1.56-2.54-1.6-5.4-1.61-8.23q-.07-32.5,0-65a17.28,17.28,0,0,1,1-6.88C201.27,17.09,202.59,15.8,205,17Z"/><path class="cls-8" d="M144.88,314l-.48,0-.43-.22c-.59-.45-1.44-.29-2-.83h0c.09-3.86,3.19-5.94,5.38-8.35,4.19-4.61,8.7-8.93,12.61-13.79a13.24,13.24,0,0,0,1.22-1.49c.75-1.19.29-2.48.31-3.74a2.69,2.69,0,0,1,.58-1.26c8.16-7.81,15.4-16.49,23.43-24.41,1.55-1.53,2.95-4.19,5.39-1a63.56,63.56,0,0,1,.19,14.69,7.71,7.71,0,0,1-2.34,3.72q-17.91,17.85-34.75,36.7a5.75,5.75,0,0,1-3.28,2.09L146,314.69A5.56,5.56,0,0,1,144.88,314Z"/><path class="cls-9" d="M189.31,12.88c1.65.08,3.31.1,4.69,1.22,1.76,1.91,1.57,4.31,1.58,6.61.11,26.76-.13,53.53.17,80.29-1.66,3.5-4.84,3.59-8.07,3.58a2.33,2.33,0,0,1-1.42-1.15c-1-2.19-.79-4.54-.79-6.84,0-12.08,0-24.16,0-36.24,0-2.81,0-5.63-.93-8.34-.79-2.26-1.56-4.52-1-7a6.46,6.46,0,0,1,.85-1.57c2-6,.74-12.24,1.05-18.36.15-3-.19-6,.23-9C186,14.16,186.25,11.88,189.31,12.88Z"/><path class="cls-10" d="M195,102a26.46,26.46,0,0,1-1-7.81q.08-40,0-80l1,.1c.65.4,1.49.28,2.12.74A18.73,18.73,0,0,1,205,17c-4.57.26-3.91,3.93-4,6.65-.18,10-.07,20-.07,30q0,16,0,32c0,4.81-.3,9.63,1,14.35C200.09,102.09,197.92,103.35,195,102Z"/><path class="cls-11" d="M150.73,316.2c12.51-14.29,25.18-28.42,39.27-41.2a19.26,19.26,0,0,1-4.1,21.49c-8,7.68-14.91,16.45-22.9,24.17l-11-3.87c-.42-.16-.67-.7-1.22-.59Z"/><path class="cls-12" d="M259,31a44.21,44.21,0,0,1,12,3.09c1.36,1.44,1.52,3.27,1.51,5.1,0,8.1.31,16.19-.19,24.28-.38,2.77-2.41,4-4.69,5-.63.31-1.28.58-1.92.87-.39.21-.79.39-1.2.58s-.78.42-1.18.62-.8.45-1.22.65c-1.77.64-3.52,2.14-5.36.14-2-4.67-1.13-9.5-.8-14.3.75-2.77,3.42-4,5-6.12,1.06-1.44.82-3.07.66-4.69a11,11,0,0,0-.21-1.6,4.94,4.94,0,0,0-.78-1.28c-.35-.36-.7-.73-1.07-1.08a15.27,15.27,0,0,0-1.24-1c-.66-.41-1.37-.72-2.07-1.08a3.27,3.27,0,0,1-1.85-1.89,5.67,5.67,0,0,1-.11-1.5C255.26,34.4,253.35,29.59,259,31Z"/><path class="cls-13" d="M2.87,138.28c-1.44-4.37-.7-8.86-.72-13.3a14.27,14.27,0,0,1,3.14-4.44c13.24-13.07,25.49-27.1,38.47-40.42,1.29-1.33,2.19-2.91,3.37-4.3,1.75-.86,3.27,0,4.84.61a6.11,6.11,0,0,1,1.7,1.36,3.12,3.12,0,0,1-.07,4.52C46.75,89,41.31,97.14,33.67,103.13c-4.05.84-6.76,3.05-7.38,7.35a8.74,8.74,0,0,1-.83,1.93c-5.77,6.58-12.39,12.34-18.09,19C5.5,133.6,4.61,136.16,2.87,138.28Z"/><path class="cls-14" d="M198,282q0,11,0,22c.94,1.15.29,2.31-.26,3.21A201.61,201.61,0,0,1,186,324.83a54.84,54.84,0,0,1-19-3.06c.55-2.46,2.77-2,4.38-2.36,10.93-2.69,15.46-7.64,17.43-18.87a93.74,93.74,0,0,0,1.71-20.15c2-3.87,5.68-6.83,5.92-11.63,0-.74,1-1.23,1.92-.56a4.69,4.69,0,0,1,.9,2.38C199.42,274.46,200.21,278.4,198,282Z"/><path class="cls-15" d="M191,280c-.33,7.11.31,14.2-.86,21.35-1.88,11.45-8.72,18.48-20.32,19.64-1,.1-2,0-2.78.79l-4-1.12c.53-1.21.75-2.75,1.63-3.58,8.62-8.05,15.3-18,25.37-25.71,0-5.12,0-10.75,0-16.37s0-11.33,0-17c-2.1-3.29-2-6.62-.2-10a1.25,1.25,0,0,1,1.7.36c2.21,6.42.8,13,1,19.57C192.66,272,193.4,276.23,191,280Z"/><path class="cls-16" d="M47,76.06c.75,1.18.43,2.06-.54,3C31.67,93.93,18.11,109.94,3,124.43a5.15,5.15,0,0,1-.83.54l-.22-5.81L2.07,116c11.87-12.88,23.72-25.79,36-38.26a17.08,17.08,0,0,1,3.73-3.25,4.43,4.43,0,0,1,4.78.92Z"/><path class="cls-17" d="M69.68,287.12,68,286.76c-.38-1.54.64-2.49,1.53-3.44,9.89-10.64,20-21.09,29.79-31.81,1.41-1.55,2.84-3.34,5.36-3.1a5.3,5.3,0,0,1,2,.92c1.69,1.79,3.29,3.62,2.58,6.39-8.45,7.65-16.09,16.1-23.82,24.45A114.08,114.08,0,0,0,77,289.87l-6-2.08A3.65,3.65,0,0,0,69.68,287.12Z"/><path class="cls-18" d="M271,65q0-15.47,0-30.94A68.17,68.17,0,0,1,286,38c-1.22,6.72.15,13.57-1.08,20.29C281.2,62.38,276.93,65.41,271,65Z"/><path class="cls-19" d="M57,282.78l-5-1.91c-1.94-3,.67-4.54,2.23-6.24,5-5.47,11-10.08,14.74-16.68.88-1.63,2.45-2.51,3.85-3.58a6.12,6.12,0,0,0,1.48-2,4.59,4.59,0,0,1,.81-1c6.22-4.63,10.23-11.39,15.94-16.51,1.6-1.43,2.85-3.29,5-4.07a1.79,1.79,0,0,1,1.26.27,6.71,6.71,0,0,1,1.13,1.59,10.69,10.69,0,0,1,.57,1.17,4.64,4.64,0,0,1,.47,1.92,3.65,3.65,0,0,1-.49,1.27c-7.3,9.72-16.6,17.6-24.63,26.67C68.63,270.05,62.46,276.1,57,282.78Z"/><path class="cls-20" d="M57,282.78c.19-4.51,4-6.85,6.54-9.53,11.22-11.94,22.68-23.64,33.6-35.86a11.19,11.19,0,0,1,2-1.44c3,.86,3.46,3.19,3.39,5.84-4.54,4.81-9.21,9.51-13.77,14.3-7.67,8.06-15,16.45-22.93,24.26-1.67,1.64-3.3,3.28-5.81,3.47Z"/><path class="cls-21" d="M297.41,41.81c7.49,2.52,12.66,7.26,14.45,15.19a.55.55,0,0,1-.87,0h0c-2.85-1.19-4.6,1.29-6.46,2.39-4.95,2.94-10.08,5.54-15,8.6-3.36,1.12-5.86,4.34-9.82,4-1.35-2.27,0-4.08,1.06-5.9,1.63-2.83,3.84-5.31,5.16-8.34,1.08-2.24,3.31-3.09,5.22-4.36,2.45-1.64,5.11-3.1,6.08-6.65C298.61,45.42,293.31,43.38,297.41,41.81Z"/><path class="cls-18" d="M124,306.77l-11-4c4.31-6.65,10.14-12,15.53-17.68,1.36-1.44,2.52-3.13,4.78-3.2,4,.5,7.89,1.39,10.86,4.46C137.78,293.48,131.32,300.54,124,306.77Z"/><path class="cls-22" d="M88,293.85l-6-2.07c-.62-2.1.62-3.55,1.91-4.8,7.84-7.61,14.5-16.33,22.6-23.68,1.65-1.49,3.17-3.75,5.9-1.75,1.61,1.87,3.08,3.81,2.81,6.49-8,6.66-14,15.21-21.49,22.37C92.11,292,90.58,293.76,88,293.85Z"/><path class="cls-23" d="M142,37q0-18,0-36a21.13,21.13,0,0,1,9,2c.43,10.92,1.78,21.86-.84,32.71A5.36,5.36,0,0,1,148.81,37C146.57,38.06,144.31,38.9,142,37Z"/><path class="cls-24" d="M133.27,282.88c-5,3.52-9,8.11-12.89,12.69a46.58,46.58,0,0,1-7.34,7.24l-5.05-1.9c-.62-.55-1.51-.37-2.16-.84l-.45,0-.39-.23c-2.94-2.45-.05-3.86,1.2-5.07,5.48-5.28,10.31-11.12,15.33-16.81a2.61,2.61,0,0,1,1.33-.47,8.54,8.54,0,0,1,2.11.42C127.76,279.52,131.53,279.5,133.27,282.88Z"/><path class="cls-25" d="M111.94,262c-.75-.29-1.54-.84-2.29-.1C100,271.4,90.44,281.07,82,291.77l-5-1.9c.44-5.41,5.4-7.72,8.29-11.29,6.11-7.55,13.86-13.68,20-21.32.92-1.15,2-2.4,3.72-1.25l.62.27a8.85,8.85,0,0,1,1.54,1.36C112.06,259,113.3,260.25,111.94,262Z"/><path class="cls-26" d="M189.31,12.88C186.69,13.21,187,15.2,187,17c0,7.24,0,14.47,0,21.71,0,2.33,0,4.64-2,6.3-.4-.32-.92-.42-1.34-.71a10.31,10.31,0,0,1-1.14-1,3.2,3.2,0,0,1-.64-.75s-.29-.39-.29-.38c-.81,0,.15.71-.34.85a1.57,1.57,0,0,1-1.07.37A5.73,5.73,0,0,1,177,41.68a3.1,3.1,0,0,1-.57-1.06,3,3,0,0,1,0-1.16,1.62,1.62,0,0,1,.73-.81c.83-.84-.27-1.78.12-2.66.68-8.15-.45-16.37.68-23.89,1.53-1.78,2.7-1.85,4-1.09A17.07,17.07,0,0,1,189.31,12.88Z"/><path class="cls-27" d="M124,306.77c4.74-6.91,11.39-12.07,16.75-18.41a4.49,4.49,0,0,1,3.48-1.48c3.36-1.34,5.92-.13,8,2.53a6.16,6.16,0,0,1-2.15,4.32c-5.37,5.51-10.32,11.44-16.26,16.38-2.48-.22-4.67-1.32-6.9-2.31a2.67,2.67,0,0,0-1.42-.65Z"/><path class="cls-28" d="M24.91,112l.19-2.16c2.55.77,2.26,3,2.31,4.86.11,4.44.25,8.88,0,13.31a7.34,7.34,0,0,1-.59,2.43c-5.81,6.1-11.84,12-17.59,18.18-2.77,3-3.51,6.49-5.37,9.65-1.46-5.38-.68-10.86-.77-16.3,1.25-3,3.67-5,5.91-7.2,4.49-4.36,8.55-9.13,12.91-13.61C24.57,118.43,22.88,114.7,24.91,112Z"/><path class="cls-29" d="M149,35.91c2.19-6.32.4-12.85,1-19.25.44-4.55-1.14-9.24,1-13.66a17,17,0,0,1,7.1,1.73,7.36,7.36,0,0,1,1.4,4.17c.13,7.44.2,14.89,0,22.33a6.12,6.12,0,0,1-1.22,3.72c-1.85,1.83-4.37,1.2-6.56,1.77A3,3,0,0,1,149,35.91Z"/><path class="cls-30" d="M186,324.83c1.65-5.88,6-10.17,8.95-15.29,1.05-1.83,2.83-3.27,3.06-5.56a15.17,15.17,0,0,1,1,2.16c2.46,8.56,6.94,11.17,15.63,9.11a17.35,17.35,0,0,1,2.47-.23A46.34,46.34,0,0,1,186,324.83Z"/><path class="cls-31" d="M7.09,223l-.17-2.76c-.8-2.61-.29-5.25-.31-8.22,5.89-5.81,11.58-12.07,17.49-18.08,2.45-2.49,2.66-6.25,5.76-8,2.82,4.43,1.46,9.21,1.17,13.89-3.53,5.52-8.51,9.74-13,14.39-2.2,2.27-4.47,4.47-6.45,7C10.5,222.53,9.37,224.37,7.09,223Z"/><path class="cls-32" d="M25.92,131l.17-2.12c2.56.71,2.28,2.93,2.32,4.77a114.06,114.06,0,0,1-.09,13.15,6.28,6.28,0,0,1-.43,1.58c-5.32,5.88-11.2,11.23-16.56,17.12-3.48,3.82-5.6,7.54-5.49,12.6a2.31,2.31,0,0,1-.95,1.14C3.3,172.86,4.26,166.4,4,160c4.52-5.29,9.76-9.89,14.44-15C22.18,140.8,25.07,136.53,25.92,131Z"/><path class="cls-33" d="M26.91,149l.16-1.11c2.44.57,2.27,2.67,2.31,4.37.08,4.14.42,8.29-.25,12.41-.7,2.73-2.93,4.31-4.73,6.21-4.21,4.42-8.51,8.75-12.65,13.23-3.44,3.72-5,7.55-4.53,12.45a3.47,3.47,0,0,1-1.36,2.74c-1.58-6.63-.54-13.39-1-20.07L5.13,178c6.57-7.23,13.69-14,20.4-22.18C26.46,154.22,25,151.19,26.91,149Z"/><path class="cls-34" d="M122.13,277.64c-3.57,7.2-9.73,12.2-15.1,17.89-1.1,1.16-3.42,1.94-2,4.34L96,296.78c-.57-1.67.27-3,1.29-4.06,5.34-5.7,11.05-11,16-17.08a6.46,6.46,0,0,1,3.4-2,3.8,3.8,0,0,1,1.37,0,6.63,6.63,0,0,1,1.27.49C120.75,274.95,122.15,275.75,122.13,277.64Z"/><path class="cls-35" d="M118.16,273.81c-5.16,1.92-7.35,7-10.89,10.54-3.92,4-8.62,7.27-11.22,12.44l-8-2.94c7.19-5.41,12.44-12.71,18.61-19.1,2.47-2.56,4.63-5.57,8.26-6.74a2.43,2.43,0,0,1,.93.68c.39.44.76.9,1.16,1.35C117.82,271.15,119.08,272.14,118.16,273.81Z"/><path class="cls-36" d="M182,11c-3-.25-3,1.73-3,3.86,0,5.61-.07,11.22.06,16.83A26.11,26.11,0,0,1,178,39h0l-1.06,0a1.84,1.84,0,0,1-1.86.47,11,11,0,0,1-1.9-.94,8.59,8.59,0,0,1-2.56-1.69,4.87,4.87,0,0,1-.75-1.55c-.81-7.22-.46-14.45-.25-21.66.07-2.57.48-5.49,4.44-4.7A18,18,0,0,1,182,11Z"/><path class="cls-37" d="M133.87,310.11c5-7.8,12.49-13.38,18.49-20.29a8.5,8.5,0,0,1,8.64,1.36c-5.46,8-13.68,13.68-19,21.82-1.54.22-2.71-.73-4-1.24-.43-.21-.78-.61-1.3-.65l-1.71-.39-1.11-.64Z"/><path class="cls-38" d="M8.94,245.14c-1.39-2.47-1-5.17-1-7.83-1.14-3.75-.08-6.79,2.83-9.36,5.85-5.18,9.94-12.09,16.25-16.79,2.23-1.66.63-5.42,3.91-6.22,2.74,4.36,1.42,9.06,1.16,13.67-4.19,4.57-8.39,9.15-12.92,13.41C15,235.89,11.35,240,8.94,245.14Z"/><path class="cls-39" d="M30,204.91v5.44c-8.72,6.13-13.87,15.37-21.8,21.7l-.35,5.27c-1.55-4.7-.7-9.53-.81-14.31,3.29-.19,3.82-3.39,5.57-5.22,5.15-5.37,11-10.09,15.43-16.14.32-.43,1.2-.45,1.81-.66A2.61,2.61,0,0,1,30,204.91Z"/><path class="cls-40" d="M151,35.92c1.74-1.8,4.19-.29,7.1-1.87V4.73l1.94.45c.69.42,1.53.36,2.24.72,1.33.2,2.82-.22,3.89,1,.84,8.52.32,17.06.24,25.59a5.45,5.45,0,0,1-1.29,3.65C160.38,38,155.66,38.36,151,35.92Z"/><path class="cls-41" d="M297.41,41.81c-1.94,2.26,2,2.6,1.59,3.65-.7,5.34-4.47,7.13-7.7,9.36-1.47,1-3.49,1.27-4.31,3.17-.84.8-1.66,1.7-3,1,0-5.57,0-11.15,0-16.72,0-1.66-.74-3.82,2-4.27l2,.32q.59.28,1.16.61A20,20,0,0,1,297.41,41.81Z"/><path class="cls-42" d="M8.94,245.14C8.59,241.45,10.8,239,13,236.5c4.87-5.38,10.78-9.78,14.9-15.87a2,2,0,0,1,3-.64c1.72,1.49,1.38,3.52,1.46,5.44a9.48,9.48,0,0,1-.55,3.12C25.44,234.31,20.17,241.12,14,247.1c-1.11,1.08-2.12,2.7-4.15,1.95C8.81,247.93,8.94,246.52,8.94,245.14Z"/><path class="cls-43" d="M105,249c-2.68.16-3.9,2.4-5.43,4C89,264.23,78.53,275.51,68,286.76l-3-1.05c-.36-3.84,2.48-6.15,4.68-8.34,9.85-9.8,18.7-20.56,28.84-30.07,1.29-1.21,2.43-2.82,4.59-2.47a4.75,4.75,0,0,1,1.22.67,5,5,0,0,1,.9,1,3.12,3.12,0,0,1,.32,1.32A1.93,1.93,0,0,1,105,249Z"/><path class="cls-44" d="M25.92,131v7.16a269,269,0,0,1-19.26,20.7A3.92,3.92,0,0,1,4,160l-.13-1.72c0-2,0-4,0-5.76,6-6.34,11.83-12.46,17.68-18.53C22.77,132.71,23.83,131.06,25.92,131Z"/><path class="cls-45" d="M5.86,199.28,6.08,196c5.31-5.84,10.83-11.48,16.13-17.34,2.48-2.75,5.08-5.08,4.75-9.23-.08-1.06,0-2.81,2.1-2.4,2.55,4.76,1.24,9.77,1,14.71-2.43,4.63-6.59,7.76-10.08,11.47-2.94,3.13-6.17,6-8.79,9.42-1.2,1.57-2.68,3-5,2.34Z"/><path class="cls-46" d="M6.16,205c4.14-1.29,5.44-5.53,8.39-8.08,5-4.37,9.06-9.84,14.42-13.9a2,2,0,0,1,.1,2.88v4.78C21.21,197.72,15.48,206.45,6.92,213c0,2.33,0,4.8,0,7.27C5.47,215.21,6.11,210.08,6.16,205Z"/><path class="cls-47" d="M38,275.78l-5-2a2.59,2.59,0,0,1,.31-3.62c5.65-6,10.39-12.81,17.08-17.77a4.85,4.85,0,0,1,1.43-.07c.94.16,1.86.39,2.8.59,1.72.65,3.91.55,4.61,2.85-5.69,5-10,11.31-15.39,16.59C42.17,274,40.46,275.45,38,275.78Z"/><path class="cls-48" d="M104.05,246c-1.44-.82-2.4-.15-3.44.89-11.5,11.49-22.7,23.28-33.42,35.5a25.39,25.39,0,0,0-2.13,3.35L64,285.07a1.75,1.75,0,0,0-1.46-.58A1.94,1.94,0,0,1,61,284l-1-.18c11.12-9.24,19.93-20.72,30-31C93.84,249,97,244.39,102.09,242,104.5,242.44,104.95,243.87,104.05,246Z"/><path class="cls-49" d="M24.91,112v7.65c-7.13,7.83-14,15.6-21.83,22.33q-.11-1.86-.22-3.71L3.2,134C10.64,126.34,17,118.4,24.91,112Z"/><path class="cls-50" d="M16.89,263.3A13,13,0,0,1,13,257.09c-.77-1.43-.89-3,.23-4.14,5.49-5.62,10.38-11.88,17-16.26a1.84,1.84,0,0,1,1.3.48,12.1,12.1,0,0,1,1.34,1.67c1,1.61,2.19,3.18,1.49,5.28-2.3,3.66-5.67,6.35-8.71,9.31S19.78,260,16.89,263.3Z"/><path class="cls-51" d="M212,41c-2.87-2.67-3-19.45-.13-22,.11-.1.31-.09.47-.13a21.14,21.14,0,0,1,7.82,2.07c.58,4.94-.24,9.94.58,14.87a4.84,4.84,0,0,1-.08,1.49,2.68,2.68,0,0,1-.76,1.18,11.34,11.34,0,0,1-2.44,1.06c-.75.3-1.49.62-2.22,1a11.14,11.14,0,0,1-2.18.86A1.23,1.23,0,0,1,212,41Z"/><path class="cls-52" d="M51.09,253c-6.24,6.76-13.8,12.38-18.08,20.84a21.57,21.57,0,0,1-7-2.94,3,3,0,0,1,.62-3.23c5.23-5.44,9.79-11.51,15.4-16.58A4.77,4.77,0,0,1,44.76,250,7.54,7.54,0,0,1,47,250a10.48,10.48,0,0,1,4,1.6A1.14,1.14,0,0,1,51.09,253Z"/><path class="cls-53" d="M165,35.92c0-8-.05-16,0-23.93,0-1.74-.65-3.72,1.14-5.09A19.83,19.83,0,0,1,174.07,9c-3,.26-3.09,2.39-3.08,4.68,0,7.77,0,15.54,0,23.31l-.44.37a4.25,4.25,0,0,1-1.16.06c-.6,0-1.19,0-1.79.06a3.65,3.65,0,0,1-2.26-1Z"/><path class="cls-54" d="M16.89,263.3c.37-3.64,3-5.77,5.39-8.06,3.91-3.8,7.87-7.55,11.81-11.32l.51,0c.35-.06.7-.1,1.06-.14a2,2,0,0,1,1.66.41c.87,1.73,3.11,2.72,2.72,5.11a56,56,0,0,0-12.1,11.48c-2.09,2.52-4,5.26-7.12,6.66A8.94,8.94,0,0,1,16.89,263.3Z"/><path class="cls-55" d="M70,257.86C67.25,265,60.84,269,56.09,274.43c-1.69,1.93-4.45,3.21-4.09,6.44l-6-2.12-1.16-.69-.42,0-.36-.2c-.18-2.05,1.66-2.72,2.74-3.85,3.89-4.08,8.11-7.84,11.56-12.34,1.81-2.36,3.88-4.62,7.2-4.89C67.1,256.76,68.7,256.62,70,257.86Z"/><path class="cls-56" d="M31,237c-5.52,5.36-11,10.74-16.58,16.07a5,5,0,0,0-1.45,4,7.82,7.82,0,0,1-2.05-4.86c-.42-.68-.28-1.57-.81-2.21l-.21-1c6.24-4.29,10.14-10.85,15.51-16A18,18,0,0,1,31,229,6.32,6.32,0,0,1,31,237Z"/><path class="cls-57" d="M65.23,257.89c-3.28.48-5,3.13-6.73,5.39A103.62,103.62,0,0,1,44,277.89l-3-1a2.52,2.52,0,0,0-1.41-.7L38,275.78c6.15-4.27,10.41-10.39,15.34-15.84,1.69-1.87,3.33-3.58,5.9-4.07C61.89,254.69,63.95,255.16,65.23,257.89Z"/><path class="cls-58" d="M20.81,267.41A163.4,163.4,0,0,1,36,250.48,5.06,5.06,0,0,1,40,249a1.58,1.58,0,0,1,1-.61,3.78,3.78,0,0,1,1.19.15,16.91,16.91,0,0,1,2.24.88,1.43,1.43,0,0,1,.78,1.49c-.63.17-1.46.15-1.86.55C37.22,257.6,31,263.71,26,270.87A4.67,4.67,0,0,1,23,269a2.55,2.55,0,0,0-1.27-.95Z"/><path class="cls-59" d="M228.07,23A18.4,18.4,0,0,1,236,25c2.39,3.13.46,7.46,3.25,10.39-2.12,2.57-4.6,1.65-6.94,1.5-.08,0-.24.13-.24.18a2.07,2.07,0,0,0,.15.47c-.83,1.57-2.17,1.48-3.6,1.12a2.13,2.13,0,0,1-1-1c-.1-1.29-1.45-1.91-1.69-3.14a25.51,25.51,0,0,1-.24-8.17C225.85,24.94,225.68,23,228.07,23Z"/><path class="cls-60" d="M228.07,23c-2.34,4.17-.48,8.69-1.07,13-.72,1-1.88,1.33-3,1.75a6.62,6.62,0,0,1-1.4.27A3.34,3.34,0,0,1,220,37c-1.37-5.39-1.93-10.77.18-16.13l1.85.3c.66.4,1.5.29,2.14.73C225.53,22.06,227,21.72,228.07,23Z"/><path class="cls-61" d="M232.26,37.13l-2.26-1h8.2c-3.69-3.54-1.63-7.54-2.2-11.14l1,.15a11.83,11.83,0,0,0,2.39.69,20.36,20.36,0,0,1,7.79,2c-.66,2.69-.7,5.51-1.76,8.12a5.6,5.6,0,0,1-2.65,1.78,15.33,15.33,0,0,1-4.09.58C236.5,38.26,234.17,38.77,232.26,37.13Z"/><path class="cls-62" d="M245,35.94c.48-2.75-1.43-6.15,2.19-8l1.83.31c.66.4,1.5.29,2.14.74A19,19,0,0,1,259,31c-1,.07-2,0-2.73.83-.56,2.05,0,4.33-1.31,6.19a2.79,2.79,0,0,1-1,.69,4,4,0,0,1-1.19.08,6.26,6.26,0,0,1-1.16-.28,16.72,16.72,0,0,0-2.88-.66,8.59,8.59,0,0,1-1.18-.31C246.65,37.14,245.6,36.92,245,35.94Z"/><path class="cls-29" d="M162.28,5.89A2.25,2.25,0,0,1,160,5.18,2,2,0,0,1,162.28,5.89Z"/><path class="cls-9" d="M197.16,14.94A2.2,2.2,0,0,1,195,14.2,1.89,1.89,0,0,1,197.16,14.94Z"/><path class="cls-51" d="M224.17,21.93A2.2,2.2,0,0,1,222,21.2,2,2,0,0,1,224.17,21.93Z"/><path class="cls-59" d="M239.42,25.86a2.29,2.29,0,0,1-2.39-.69A2.18,2.18,0,0,1,239.42,25.86Z"/><path class="cls-61" d="M251.17,28.93A2.21,2.21,0,0,1,249,28.2,1.92,1.92,0,0,1,251.17,28.93Z"/><path class="cls-63" d="M312.82,60a2.13,2.13,0,0,1-.76-2.07A1.76,1.76,0,0,1,312.82,60Z"/><path class="cls-42" d="M10.1,250a2.1,2.1,0,0,1,.81,2.21A2.25,2.25,0,0,1,10.1,250Z"/><path class="cls-20" d="M61,284h2a.51.51,0,0,1,.21.57q-.11.29-.21.29A2,2,0,0,1,61,284Z"/><path class="cls-34" d="M105.82,300.07a2.14,2.14,0,0,1,2.16.84A2,2,0,0,1,105.82,300.07Z"/><path class="cls-37" d="M142,313l2,.83A1.8,1.8,0,0,1,142,313Z"/><path class="cls-18" d="M289.21,38.92,288,38.31Z"/><path class="cls-54" d="M21.72,268.1,23,269Z"/><path class="cls-47" d="M39.56,276.14l1.41.7Z"/><path class="cls-57" d="M44.8,278.07l1.16.69Z"/><path class="cls-63" d="M311,57h.87l.22,1Z"/><path class="cls-43" d="M63,284.86q0-.43,0-.86l1,1.07Z"/><path class="cls-43" d="M69.68,287.12l1.29.68Z"/><path class="cls-18" d="M125.55,307.15l1.42.65Z"/><path class="cls-27" d="M133.85,310.09l1.11.64Z"/><path class="cls-27" d="M136.67,311.12l1.3.65Z"/><path class="cls-37" d="M144.88,314l1.08.65Z"/><path class="cls-8" d="M150.75,316.19l1.22.59Z"/><path class="cls-64" d="M108,7.1a10.58,10.58,0,0,1,5-2c2.29,1.47,2.5,3.85,2.51,6.18.15,23.63.11,47.26,0,70.9,0,2-.19,4-1.61,5.64a4.88,4.88,0,0,1-4.48,1.1c-1.79-.55-3.67-1-4-3.32-.2-11.35.79-22.73-.76-34,0-1.51-.14-3-.11-4.55.06-.92.1-1.84.2-2.76,1.42-10,.35-20.08.72-30.11C105.58,11.56,105.18,8.75,108,7.1Z"/><path class="cls-65" d="M113,88.1c1.18-2,1-4.14,1-6.3q0-34.67,0-69.34a24.81,24.81,0,0,0-1-7.34A13.3,13.3,0,0,1,119,3c2.35,1.9,2.5,4.63,2.51,7.27q.2,36.15,0,72.3A13.07,13.07,0,0,1,120,89.35a3.29,3.29,0,0,1-3.16,1.5C115.2,90.43,113.28,90.4,113,88.1Z"/><path class="cls-66" d="M119,90c1.45-5.87,1-11.86,1-17.81q0-27.42,0-54.84c0-4.8.28-9.61-1-14.32a14.9,14.9,0,0,1,7-1.94c-1.36,1.92-1,4.12-1,6.26q0,42.3,0,84.59a1.88,1.88,0,0,1-1.7.63c-.83-.14-1.64-.39-2.47-.57a5.4,5.4,0,0,1-1.21-.42C119.08,91.2,118.63,90.77,119,90Z"/><path class="cls-67" d="M108,7.1c-1.37,2.1-.88,4.47-1,6.76-.5,10.37,1.14,20.82-1,31.14l-.38.41-.56-.08a4,4,0,0,1-.86-.73,9.19,9.19,0,0,0-1.38-1.08l-.53-.34-.53-.38c-.39-.27-.75-.57-1.11-.88a6.75,6.75,0,0,1-2.94-4.5c-.5-7.09-.19-14.17-.21-21.26,0-1.83.16-3.64,1.51-5.08A36.65,36.65,0,0,1,108,7.1Z"/><path class="cls-68" d="M49,33.22,52,32c2.12,2.61,1.24,5.61,1.09,8.51a9.62,9.62,0,0,1-.68,2.12,9.43,9.43,0,0,1-.63,1.23c-.33.55-.71,1.07-1,1.61a4.65,4.65,0,0,0-.6,2.2,4,4,0,0,0,.71,2.11L52,51.28c1.29,1.84,3.84,2.9,3.54,5.72-.81,4.38,1.28,9.21-2,13.21a4.35,4.35,0,0,1-3.28.6,6.39,6.39,0,0,1-3.82-2.05,5.8,5.8,0,0,1-.66-1.7c-.35-10.75-.65-21.49.06-32.23l0,.08A7.17,7.17,0,0,0,47,34.16a1.19,1.19,0,0,1,.84-.22Z"/><path class="cls-69" d="M45.81,34.83c1.24,1.74,1.21,3.73,1.2,5.74,0,9.15,0,18.3,0,27.45a3.73,3.73,0,0,1-2.08,1,7.34,7.34,0,0,1-2.37-.26c-1.55-.77-4.11-.48-3.62-3.42C42,57.78,40,49.93,40.44,42.23c.09-1.78-.69-3.63.54-5.29A8.51,8.51,0,0,1,45.81,34.83Z"/><path class="cls-70" d="M85.05,17.2a28.14,28.14,0,0,1,7.82-3.33c1.61,1.32,1.67,3.22,1.63,5-.13,5.79.72,11.62-.62,17.36a3,3,0,0,1-1.22,1.38c-2.42,1.19-4.78,0-7.16-.18-5-.48-10.07.73-15-.8a1.41,1.41,0,0,1-.71-1.51A3.47,3.47,0,0,1,72,33.81a47.9,47.9,0,0,1,7.72-.22c1.31-.07,2.66.05,4.12-1C85.75,27.77,83.61,22.32,85.05,17.2Z"/><path class="cls-71" d="M41,36.95c2,8.46.73,17,.88,25.58A3.16,3.16,0,0,1,39,66a2.06,2.06,0,0,1-2.5.17A4.05,4.05,0,0,1,34.94,64c-.94-6.88-.37-13.79-.39-20.69A7.26,7.26,0,0,1,36,39.13,11.57,11.57,0,0,1,41,36.95Z"/><path class="cls-49" d="M36,39.13Q36,52.06,36,65c-2.34,1.69-4.39.44-6.47-.63A4.68,4.68,0,0,1,28,62.14c-.42-6.49-1.74-13,.92-19.38A24.09,24.09,0,0,1,36,39.13Z"/><path class="cls-46" d="M93,37q-.06-11.58-.13-23.15v.06q.57-.33,1.11-.72l5-2.12,0,28a1.89,1.89,0,0,1-1.07.54,4.55,4.55,0,0,1-1.23-.15L94.86,39C94,38.61,92.56,38.66,93,37Z"/><path class="cls-72" d="M72,35l-2,0a5.58,5.58,0,0,0-.73,1.29,4.61,4.61,0,0,1-1.2.93c-2.89.7-5.76,3.1-8.73.16C58.51,34,57.53,30.63,61,28A52.18,52.18,0,0,1,72,23.1C73.63,27.06,74.27,31,72,35Z"/><path class="cls-13" d="M28.91,42.76,29,63c-2.3,1.69-4.33.44-6.39-.57A4.55,4.55,0,0,1,21,60.28c-.64-4.53-1.36-9.06.91-13.39A19.34,19.34,0,0,1,28.91,42.76Z"/><path class="cls-13" d="M1.09,77.95.81,76.88a37.23,37.23,0,0,1,12.05-22c2.82-.26,3.29,1.81,3.81,3.82.12,2.39-1.85,4-2.26,6.22.94,2,4.57-.26,4.59,3C10.43,66.63,4.49,70,1.09,77.95Z"/><path class="cls-73" d="M72,35Q72,29,72,23.1a38.23,38.23,0,0,1,9-4c.57,5.34,1.59,10.71-1,15.85Z"/><path class="cls-74" d="M80,34.93c.52-5.27-1.07-10.67,1-15.85l4.06-1.89c2,5.58.52,11.26.9,16.69C83.9,35.58,81.88,34.8,80,34.93Z"/><path class="cls-75" d="M61,28c-1.8,3.15-.68,6.61-1,9.91l-.27.48a7.65,7.65,0,0,1-.86.71c-.45.37-.88.74-1.34,1.1a24.45,24.45,0,0,1-3.1,2.06,3.58,3.58,0,0,1-1.27.29l-.64-.15L52,42l0-10A33.72,33.72,0,0,1,61,28Z"/><path class="cls-76" d="M16,59c-.84-1.51-1.26-3.35-3.13-4.07,2.59-3.17,5.28-6.23,9.09-8q0,7.05,0,14.1a1.51,1.51,0,0,1-1.07.38,12.13,12.13,0,0,1-1.69-.4,7.28,7.28,0,0,1-1.06-.36,9.25,9.25,0,0,1-1.44-.81A7.07,7.07,0,0,1,16,59Z"/><path class="cls-70" d="M94,13.21l-1.11.72Z"/><path class="cls-69" d="M49,33.22l-1.15.73Z"/><path class="cls-69" d="M47,34.16l-1.13.74Z"/><path class="cls-77" d="M42,75c-6,7.28-13.26,13.38-19.29,20.67-5,6.11-10.79,11.65-16.28,17.39-1.23,1.29-2.28,2.94-4.38,3q0-3.47,0-6.94c10.75-9.31,19.29-20.6,29.48-30.3C33.19,77.21,35.89,75.25,34,72l.53-.45c2.47-.45,4.52.77,6.67,1.64C41.81,73.65,42.29,74.13,42,75Z"/><path class="cls-78" d="M21,61h1l1,1c-.11,2.44-1.53,4.22-3,6l-1,0c-1.66-1.92-4.05-.38-6.09-1.35-.72-3.2,2.33-5,3.09-7.65h1c.29.37.69.64,1,1h1C19.51,60.64,20.47,60.39,21,61Z"/><path class="cls-75" d="M20,68c-.26-2.62,1.47-4.25,3-6l6,1,1,1c-.57,2-1.38,4-2,6Z"/><path class="cls-72" d="M28,70c-1.52-2.73-.19-4.5,2-6l6,1,1,1a7.45,7.45,0,0,1-3.36,4.88L33,71A8.38,8.38,0,0,1,28,70Z"/><path class="cls-72" d="M34,72l-1-1,0,0c.91-.28,1.15.12,1,.95Z"/><path class="cls-79" d="M134.12,55.65c-1.35-1.59-3.58-2.33-4.37-4.46-.09-2,1.18-2.82,2.84-3.32,16.09-.77,32.18-.59,48.27-.12a4.11,4.11,0,0,1,3.42,2.43c.5,3.66-2.43,5-4.65,6.76A42.53,42.53,0,0,1,174,59.18a60.29,60.29,0,0,1-8.25,2.07,20.51,20.51,0,0,1-3.27.15c-6.45-.34-13,.82-19.35-1.13q-3.22-1.1-6.44-2.26a5,5,0,0,1-1.8-1.17A3.53,3.53,0,0,1,134.12,55.65Z"/><path class="cls-3" d="M134.12,55.65l.91.48a2.85,2.85,0,0,0,1.32.75l5.69,2a6.37,6.37,0,0,1,1.44,4.15c0,10.77.52,21.55-.29,32.3a4.46,4.46,0,0,1-.75,1.55c-.93.8-2,.54-3.07.44a19.32,19.32,0,0,1-2.82-.51c-.85-.25-1.69-.56-2.52-.88a3.92,3.92,0,0,1-1.11-.69,1.1,1.1,0,0,1,0-1.2C134.63,92.68,134,90.71,134,89,134.06,77.87,134.08,66.76,134.12,55.65Z"/><path class="cls-80" d="M132,49l-2.23,2.21c-1.65-1.77-.63-3.52,0-5.28a.82.82,0,0,1,.34-.9l-.1.08A6.55,6.55,0,0,1,131.08,44l-.09.09A6.46,6.46,0,0,1,132.08,43l-.08.08a2.77,2.77,0,0,1,1.08-.68,14,14,0,0,1,4.34-2.85c1.24.18,2.16-.62,3.21-1,2.4-.5,4.8-1,7.22-1.42,1-.1,2-.46,3.09-.58,4.37,0,8.73,0,13.1,0,1.73.25,3.36,1.16,5.18.82,1.64.83,3.7.4,5.19,1.71a2.76,2.76,0,0,0,1.19.49c.63.23.92.86,1.41,1.26l4,2.05.42-.32.52.12a6.62,6.62,0,0,1,.82.67l.38.37a4.16,4.16,0,0,1,.62.86c0,.18,0,.35,0,.53.74,1.89,1.65,3.76,1.16,5.9l-.36.34-.46-.18L182,49A65.1,65.1,0,0,0,132,49Z"/><path class="cls-81" d="M120,91l1,.07c.56.55,1.47.31,2,.89l2,0,4.12,2c-1.79,2.06-3.39,4.27-5.14,6.38a4,4,0,0,1-1.38.48c-2.34-.12-4.51-.62-6-2.66C115.9,94.89,117.76,92.86,120,91Z"/><path class="cls-82" d="M124,100c.63-2.93,1.67-5.51,5.12-6.07l3.75.13q.08.46.13.93c.6,3.19-1.26,5.17-3.42,7a3.67,3.67,0,0,1-3.17-.17,7.51,7.51,0,0,1-2.09-1.32Z"/><path class="cls-83" d="M137.15,40.46,133,42.71v-.46L134,40.11l3-1A.87.87,0,0,1,137.15,40.46Z"/><path class="cls-84" d="M130.1,45a1.36,1.36,0,0,1-.34.9,2.86,2.86,0,0,1-.07-.71C129.7,45.12,130,45.07,130.1,45Z"/><path class="cls-85" d="M133,42.25v.46l-1,.37Z"/><path class="cls-86" d="M132.08,43,131,44.09Z"/><path class="cls-87" d="M131.08,44,130,45.09Z"/><path class="cls-88" d="M148,37.79l-7.65,1.33A.94.94,0,0,1,139,39L142,37c2,0,4.11,0,6-1a1.25,1.25,0,0,1,.52.88A1.05,1.05,0,0,1,148,37.79Z"/><path class="cls-89" d="M139,39l1.35.14-3.16,1.34-.14-1.4Z"/><path class="cls-90" d="M222.82,252l.32-2.53c.21-.83.39-1.66.66-2.47l.22-2a1.15,1.15,0,0,1-.48-1.05c.11-.81.29-1.61.35-2.43a12.82,12.82,0,0,1,.4-2.46,15.67,15.67,0,0,0,.52-2.48,16.37,16.37,0,0,1,.45-2.61,17.12,17.12,0,0,0,.6-3.37,13.85,13.85,0,0,1,.38-2.15c1.15-4.92,1.66-9.95,2.77-14.87a25.25,25.25,0,0,0,.64-2.95,24.53,24.53,0,0,1,.53-3c1.33-6.57,2.76-13.12,3.78-19.75.18-1,.54-1.86.68-2.82a24.31,24.31,0,0,1,.54-2.7,16.27,16.27,0,0,0,.71-3.2,9,9,0,0,1,.22-1.29,26.38,26.38,0,0,1,1.14-3,9.18,9.18,0,0,0,.59-3.13,13.79,13.79,0,0,1,.39-2.7c.24-.94.42-1.89.58-2.86s.48-2.09,1.63-2.56c2.93,0,3.43,2.33,3.92,4.35,3.65,15.15,7.26,30.31,10.43,45.56a5.63,5.63,0,0,1-.71,4.76l-8.7,7c-2.32,13.41-4.81,27-6.95,40.56-.81,5.14-3,9-7.33,11.83-4,2.62-7.14,6.42-11.57,8.24-2.93-1.6-2.37-3.91-1.94-6.24,1.5-8.16,3-16.32,4.44-24.48C222.81,254.23,222.25,253,222.82,252Z"/><path class="cls-91" d="M292,229a8.13,8.13,0,0,1-4,3.82c-2.77-6.28-3.49-13.09-5-19.68-7-30.47-14.09-60.92-21-91.4-.66-2.91-1.64-5.78-1.45-8.84,1.21-2.62,3.12-3.29,5.71-2.06,3.29,6.65,4,14,5.59,21.1,6.78,29.44,13.59,58.87,20.18,88.35C292.64,223.15,293.51,226.06,292,229Z"/><path class="cls-92" d="M283,236.72l-4,3.13c-3.6-7.56-4.22-15.91-6.25-23.88-3.11-12.19-5.36-24.58-8.66-36.72-2-9.1-3.42-18.3-4.55-27.54-.15-1.2.39-2.92-1.84-2.78-2.86-9.28-4.45-18.84-6.69-28.26a6,6,0,0,1,.09-1.58,4.47,4.47,0,0,1,.61-1.47,5.14,5.14,0,0,1,1.16-1.11,5.72,5.72,0,0,1,1.47-.7,2.38,2.38,0,0,1,1.61.08l.62.55c3,8.81,4.45,18,6.6,27.05,4.4,18.41,8.47,36.91,12.73,55.35,2.39,10.36,4.71,20.73,7.18,31.07C283.56,232.11,284.24,234.47,283,236.72Z"/><path class="cls-93" d="M283,236.72c-3.36-15.12-6.63-30.26-10.11-45.36-3.33-14.46-7-28.86-10.31-43.31-2.31-9.95-4.35-20-6.56-29.93a10.2,10.2,0,0,0-1-2.15c.57-2.74,2.18-3.06,4.42-1.89C263,125.34,265,137,267.69,148.49c6.21,26.4,12.2,52.86,18.21,79.31.48,2.09,1.22,4.2.21,6.35l.05-.06a2.46,2.46,0,0,0-1.14,1l0,0c-.4.25-.68.65-1.08.89Z"/><path class="cls-94" d="M286.11,234.15q-8.54-36.95-17.08-73.9c-3.2-13.85-6.44-27.69-9.6-41.54a38,38,0,0,1-.49-4.93c.08-1.24.78-1.35,1.75-.94,3.35,7.41,4.19,15.49,6.07,23.27,4.77,19.74,9,39.59,13.56,59.39,2.46,10.78,5,21.54,7.44,32.33a27.65,27.65,0,0,1,.23,5Z"/><path class="cls-95" d="M254.1,218.25c-1.93-13-5.63-25.71-8.35-38.58-.82-3.86-1.83-7.68-2.71-11.52-.41-1.78-.58-3.67-2.85-4.15-2.12-2.24-.26-4.59-.22-6.89a13.51,13.51,0,0,1,1-2.58c.16-.42.35-.82.52-1.24.4-1.08.41-2.25.72-3.36a1.9,1.9,0,0,1,1.61-1.42c1.88.21,2.36,1.71,2.7,3.14,2.41,10,5.21,19.83,6.82,30a16.94,16.94,0,0,1-.3,3.19c-.5,1.62.6,2.66,1.19,4A65.76,65.76,0,0,1,260,213.95,20.52,20.52,0,0,1,254.1,218.25Z"/><path class="cls-96" d="M292,229c-.5-8-2.92-15.57-4.67-23.29-6.94-30.63-14.1-61.22-21.15-91.83a17.83,17.83,0,0,1-.19-3c1.1-2.69,2.42-1,3.71-.2,3.11,4,2.82,9,4.13,13.52,1.55,5.35,2.62,10.84,3.64,16.32.12.46.24.92.36,1.38a26.88,26.88,0,0,0,.85,4,15.66,15.66,0,0,1,.42,1.9c.2.82.41,1.64.66,2.46a11.09,11.09,0,0,1,.26,2.54,6,6,0,0,0,.76,2.46,32.1,32.1,0,0,0,.71,3.33,9.78,9.78,0,0,0,.49,2.86c.85,4.32,1.58,8.66,2.49,13,1.14,6.89,2.59,13.71,3.88,20.57.44,2.62,1,5.23,1.47,7.83a27.15,27.15,0,0,0,1.1,5.51c.51,6.26,3.28,12.23,2.43,18.67Z"/><path class="cls-97" d="M225.11,239.32l-.33,2.72a22.69,22.69,0,0,0-.65,2.38l.14.32L224,245c-3.22,1.79-4.68,5-6.5,8q-7.71,12.42-15.4,24.85A11.46,11.46,0,0,1,198,282q0-6,0-12,11.37-18.1,22.46-36.38a23,23,0,0,1,3.78-5.22c1.13-1,1.2-1,2.81.76l-.23,1.87c-.65,1-.11,2.24-.76,3.23l-.34,2.79C225.44,237.78,225.42,238.59,225.11,239.32Z"/><path class="cls-98" d="M264.68,178.89c3.71,6.78,4.06,14.49,6,21.77,3,11.5,5.4,23.15,8,34.76a29.9,29.9,0,0,1,.33,4.44,4.27,4.27,0,0,1-4.34,1.77c-2.25-6-2.13-12.73-3.54-19.11-.86-3.88-1.45-7.82-2-11.75-.2-1.32-.42-2.28-2-1.93-3.06-8.11-4.57-16.59-6-25.1C261.47,181.55,262.2,179.54,264.68,178.89Z"/><path class="cls-99" d="M260,213.95c-1.67-7-3.36-14-5-21-.38-1.64-.73-3.16-2.49-4-2.1-.94-1.82-2.43-.72-4,1.26.58,2.48,1.36,4,.77a6,6,0,0,1,1.38-.15,2.64,2.64,0,0,1,1.3.65c3.14,8,5.32,16.12,5.54,24.72h0a3.56,3.56,0,0,1-1,.78Z"/><path class="cls-100" d="M264,211q-2.49-10-5-20c-.44-1.73-.63-3.57-2-4.94-.41-1.06.38-1.43,1.06-1.87.34-.2.7-.39,1.05-.58l.51-.31a7.54,7.54,0,0,1,1-.6,2.08,2.08,0,0,1,1.18-.08c1.48,6.63,2.82,13.29,4.51,19.86a28.88,28.88,0,0,1,.63,6.41Z"/><path class="cls-101" d="M280.79,158.18l-1-3.25a13.27,13.27,0,0,0-.63-2.12l-.33-2.87c-.3-.71-.32-1.5-.65-2.2L277.9,146c-.85-1.22.12-2.82-.82-4l0,0a1.74,1.74,0,0,1-.46-1.89c.44-1,.25-2.36,1.41-3.07,2,2,.13,5,2,7q0,1.5,0,3,.42.54.89,1c-.44,3.08.88,6,1,9C281.58,157.4,281.47,158.09,280.79,158.18Z"/><path class="cls-102" d="M287.86,195a127.61,127.61,0,0,1-4-21,.69.69,0,0,1,1.06,0,172.39,172.39,0,0,1,4,21C288.59,195.47,288.23,195.51,287.86,195Z"/><path class="cls-102" d="M293.33,226.93l-3.19-19a1.89,1.89,0,0,1,.88-1C292.46,213.55,295.3,220,293.33,226.93Z"/><path class="cls-102" d="M284.93,174l-1.06,0c-1.6-4.21-1.89-8.69-2.68-13.07a1.73,1.73,0,0,1,.88-1.06A55.52,55.52,0,0,1,284.93,174Z"/><path class="cls-103" d="M287.86,195l1.06,0A17.22,17.22,0,0,1,290,202c.54,1,0,1.12-.85,1C288.56,200.36,287.72,197.78,287.86,195Z"/><path class="cls-102" d="M289.18,203l.85-1c1.55,1.43.76,3.33,1,5l-.88,1Z"/><path class="cls-102" d="M282.07,159.9l-.88,1.06-.4-2.78L282,157Z"/><path class="cls-97" d="M222.82,252a3.89,3.89,0,0,1-.76,3.13C222,254,221.79,252.88,222.82,252Z"/><path class="cls-97" d="M223.8,247a2.64,2.64,0,0,1-.66,2.47A2.51,2.51,0,0,1,223.8,247Z"/><path class="cls-100" d="M263,211.77l1-.78Z"/><path class="cls-94" d="M285,235.05l1.14-1Z"/><path class="cls-94" d="M284,235.92l1.08-.89Z"/><path class="cls-5" d="M281,148.05l-.89-1Z"/><path d="M994,135c-1-.76-1.77-2-3.32-2-13.46.45-27-1.38-40.38,1.18-12.23,2.34-18.38,10.56-18.33,23.08a22,22,0,0,0,4.76,14,13.54,13.54,0,0,0-4.53,10.62c.2,4.3,2.27,7.81,5.16,10.78-11,11-7.64,28.32,7.67,32.87,11.94,3.55,24,3.63,35.83-.55,7.83-2.76,11.22-8.1,11.3-16.38S989.4,196,981.25,192.7a59.19,59.19,0,0,0-8-2.64c-7.57-1.9-15.21-3.55-22.77-5.51-5-1.3-5.58-3.41-2.11-7.19,6.51,2.16,13.32,2.11,20.12,1.55,14.25-1.18,22.1-8.76,22.58-21.19A26,26,0,0,0,988.46,146l5.54-3Zm-43.58,62.82c8.4,2.5,17.66,2.82,25.17,7.83.63,6.68-.71,8.54-6.38,9.45a41.43,41.43,0,0,1-12.37.27C946.32,213.9,943.57,206.92,950.42,197.82Zm24-37.06c-2.21,6.17-7.72,5.87-12,6.23-11,0-15.52-4.13-14.36-12.57a11.37,11.37,0,0,1,1-3.32c2.49-5.2,13-7.39,20.25-4.28C974.25,148.92,976.56,154.93,974.47,160.76Z"/><path d="M810.06,147.81c-1.77-10.44-8-15.49-18.59-15.83a42.25,42.25,0,0,0-21.53,5.27c-10.57-8.34-21.11-5.92-31.57-.06-1.08-1.23-.56-3.16-2.63-4.08-4.11.06-8.71-.6-13.19.4V203c5.43-.13,10.31.54,15.46-.55v-51.8c1.54-.89,2.77-1.73,4.1-2.37,10.67-5.16,15.8-2.08,15.86,9.6.07,13.15,0,26.31,0,39.46,0,1.76-.57,3.71,1.57,5.61,4.37-.18,9.26.71,14.35-.53v-53.2a24.88,24.88,0,0,1,13.16-3.13c4,.18,6.65,2,7.09,6.21.28,2.64.59,5.3.6,7.95.06,12.32,0,24.64.05,37,0,1.76-.55,3.69,1.35,5.68,4.45.08,9.31.56,14.79-.47,0-6.3.14-12.25,0-18.19C810.63,172.07,812.1,159.87,810.06,147.81Z"/><path class="cls-104" d="M512.76,121.34c-1.87-7-7-10.69-14.24-11.28-11.4-.94-17.43,3.33-20.35,14.48q-9.47,36.14-18.85,72.3c-.43,1.66-1.55,3.4-.19,5.7h16.43l6.26-25.3H510c2.79,8.5,3.63,17.34,6.83,25.58h15.52a3.41,3.41,0,0,0,.75-3.88C526.33,173.06,519.67,147.17,512.76,121.34Zm-27.65,41.49,9.5-38.39,2.21,0c4.34,12.42,6.4,25.48,9.92,38.4Z"/><path d="M433.85,111.53l-29.81,40-1.16-.4v-40c-5.84-.16-11.05-.56-16.37.25v91.44c5.72.07,10.93.52,16.66-.36V161l.91-.22,28.18,41.94h21.61l-33.48-47.19,33.83-44Z"/><path d="M631.57,111.9A152.25,152.25,0,0,0,606.7,110c-16.16.21-28.57,10.05-31.59,25.81-2.47,12.84-2.27,26-.55,38.81,2.62,19.45,15.47,29.59,35.18,29.33,6.15-.08,12.31-.51,18.43-1.14,2.53-.26,5.37-.15,7.34-2.09V155.21H619.34v33.92c-4,0-7.09,0-10.22,0-9.38.07-15.28-4.11-16.92-13.46a108,108,0,0,1,0-37.75c1.63-9.1,7.41-13.18,16.7-13.07,7.49.09,15-.14,22.46.81,1.5.19,3,.38,4.41-1.1V113.66C634.57,112.15,633.06,112.12,631.57,111.9Z"/><path d="M692.67,134.22c-12.09-4.12-24.2-2.13-36.37.13-.6,4.3-.85,8,0,11.49,1.77,1,3.26.41,4.73.36,7-.22,13.95-.94,20.95-.41,4.53.34,7.05,2.76,7.53,7.14a75.87,75.87,0,0,1,.05,8c-6.24.38-12.21,0-18.16.86-16,2.33-22.59,12.25-18.47,29.67,1.47,6.21,5.85,9.89,11.9,11.57,8.11,2.24,15.8.88,23.16-2.92.7-.36,1.45-.64,2.15-1,.89,1.28.39,3,2.12,3.66h13a11,11,0,0,0,.68-2.38c0-16,.28-32-.15-47.94C705.57,143.78,701.15,137.11,692.67,134.22Zm-3,52.88a22.26,22.26,0,0,1-13,3.88c-4.34,0-8-1-8.6-6.18-.79-6.35,1.28-10.34,6.31-11.9,4.88-1.51,9.86-.75,15.3-.85Z"/><path d="M916.65,150.09c-1.68-10.62-6.05-15.75-15-17.47a33.29,33.29,0,0,0-23.6,3.84,15,15,0,0,1-1.72.73c-1-1.28-.53-3.19-2.86-4.21-3.87.34-8.47-.52-12.91.48v69.48c5.31,0,10.06.45,15.38-.44V150.94a31.87,31.87,0,0,1,9.64-4.41c10.59-2.87,15.29.54,15.37,11.34.09,13.16,0,26.31.07,39.47,0,1.76-.57,3.72,1.59,5.59,4.37-.2,9.26.71,14.56-.59,0-14.52,0-28.65,0-42.78A62,62,0,0,0,916.65,150.09Z"/><path d="M827.31,133.43v69.26h15.19V133.12C837.14,133,832.27,132.64,827.31,133.43Z"/><path class="cls-105" d="M842.58,108.33H826.74c-.56,5.11-.88,9.9.23,15.17a59.86,59.86,0,0,0,16.33-.22C843,118,844,113.16,842.58,108.33Z"/><path class="cls-106" d="M276,126l1,1q0,2.48,0,5c.66,1.13.64,2-.88,2.27-1.46-2-1.37-4.4-1.72-6.7A2,2,0,0,1,276,126Z"/><path class="cls-107" d="M276.21,134l.82-2c1.41,1.09.87,2.62.91,4a1.44,1.44,0,0,1-1.4.44C275.6,135.7,275,135,276.21,134Z"/><path class="cls-102" d="M276.76,136l1.17-.05.12,1c-.08,1.06.11,2.18-.78,3C276,138.84,276.51,137.41,276.76,136Z"/><path class="cls-63" d="M289,67c5.08-3,10.05-6.26,15.29-9,1.91-1,4.13-3.13,6.7-1-3.65,1.61-4.64,5.41-6.49,8.34-9.61,15.22-18.91,30.64-28.39,46A6.57,6.57,0,0,0,275,115c-1.56.41-1.54-.86-1.88-1.75-.12-.7-.12-1.43-.3-2.12a7.17,7.17,0,0,0-.41-.86,8.73,8.73,0,0,0-.6-.71s-.35-.31-.36-.3a8.27,8.27,0,0,0-1.29-.65c-.33-.12-.65-.26-1-.39-.55-.18-1.1-.34-1.64-.56a2.25,2.25,0,0,1-1.24-1.45c-.41-2.4,1.16-4.07,2.24-5.87C275.24,89.16,282.22,78.14,289,67Z"/><path class="cls-108" d="M273.95,112c.08,1.09-.1,2.27,1,3q0,2,0,4a1.57,1.57,0,0,1-1.32.42c-1.94-.81-1.37-2.67-1.74-4.14-.44-1.74-1.11-3.36-2.87-4.22-1-.42-2-1.18-3-.18a7,7,0,0,0-5.28,2l-1.75.94a7.52,7.52,0,0,0-4,2.19h0a1,1,0,0,1-1.14.27,2.32,2.32,0,0,1-1.09-1.49c.06-1.44,1-2.1,2.22-2.55.5-.19,1-.35,1.51-.55l.89-.43a5.92,5.92,0,0,0,1.12-.92,1.59,1.59,0,0,1,1.3-.58c.39-.26.2.88.73.29a2.61,2.61,0,0,1,.77-.64l1.38-.75a10.68,10.68,0,0,1,1-.54,10.11,10.11,0,0,1,1.6-.7,3.54,3.54,0,0,1,1.2-.09,7.2,7.2,0,0,0,2.42.25,2.14,2.14,0,0,1,1.14.41v.1c.54.58,1.45.4,2,1h0c.34.33.67.67,1,1v0C273.57,110.53,273.37,111.44,273.95,112Z"/><path class="cls-106" d="M273.91,119l1,0c.47,2,1.4,3.88,1,6a1.24,1.24,0,0,1-1.5,0C272.85,123.11,272.41,121.15,273.91,119Z"/><path class="cls-109" d="M275,125h1a6.36,6.36,0,0,1,.06,1l-.87,1A1.39,1.39,0,0,1,275,125Z"/><path class="cls-110" d="M262.23,51.23c-1,2.43-3.53,3.18-5.23,4.83-2.73,2.94-6.37,3.71-10.1,4.31a39.87,39.87,0,0,1-8.05,1c-2.46.07-4.92.06-7.38,0a15.29,15.29,0,0,1-3.16-.37c-2.85-.91-5.95-.7-8.73-1.93-2.09-.87-4.32-1.46-6.19-2.83a11.43,11.43,0,0,1-1.47-1.27,2.42,2.42,0,0,1-.59-1.11l-1.33-2c-1-2.64.81-3.35,2.71-4,15.57-.67,31.15-.71,46.72,0C261.09,48.37,262.38,49.2,262.23,51.23Z"/><path class="cls-111" d="M195,102l7-2,7-3,.43.58c.43,2.54-1,4.54-2.2,6.44q-8.29,13-16.79,25.94a6.13,6.13,0,0,1-2.47,2.4,2.51,2.51,0,0,1-2.95-1.09c-.29-.32-.55-.66-.81-1-.4-.5-.76-1-1.12-1.55a17.13,17.13,0,0,0-2.91-3.37c-1.24-1.36-2.75-2.55-2.83-4.61A63.7,63.7,0,0,1,188,104Z"/><path class="cls-112" d="M211.32,53.84a.68.68,0,0,1,.72.44A2.69,2.69,0,0,1,213,55l6.15,2.92c.9,10.76-.12,21.54.56,32.3a6,6,0,0,1-.18,1.69,4.75,4.75,0,0,1-.81,1.42c-2.95,2-5.57,4.86-9.72,3.74l0-.1q0-18.25,0-36.5C209,58,208.88,55.47,211.32,53.84Z"/><path class="cls-80" d="M262.23,51.23,260,49a73,73,0,0,0-48.1,0A3.05,3.05,0,0,0,210,51.87c-2.23-1.6-1.53-3.69-1-5.76a9.68,9.68,0,0,1,.94-1.4c.53-.52,1-1.11,1.48-1.65.25-.26.5-.52.76-.76a9.36,9.36,0,0,1,.78-.71,12,12,0,0,1,1.37-.71,9.59,9.59,0,0,1,.9-.48c.45-.24.93-.42,1.39-.66a10.16,10.16,0,0,1,1-.47,12.9,12.9,0,0,1,1.62-.36c.57-.19,1.11-.44,1.66-.68a13,13,0,0,0,3.78-.91,3.41,3.41,0,0,1,3.33.53,7.27,7.27,0,0,0,4.26-.71h6.47a7.7,7.7,0,0,0,4.37.17,8.74,8.74,0,0,1,4.34,0c1.9.82,4,1,5.9,1.79a15.28,15.28,0,0,0,2.91,1.14,10,10,0,0,1,1.05.51c.66.37,1.21.88,1.83,1.31l.46.28.45.3c.26.24.52.48.77.74l.38.37a5,5,0,0,1,.63.85l.06.53C263,47.08,264.24,49.06,262.23,51.23Z"/><path class="cls-113" d="M212,43.15,210,45l-.46-.51L210,44a3.49,3.49,0,0,1,2-2l.41.28A3.32,3.32,0,0,1,212,43.15Z"/><path class="cls-114" d="M210,45l-1,1.09,0-1.1a.62.62,0,0,1,1,0Z"/><path class="cls-115" d="M212,41h1l.37.28a.64.64,0,0,1-.28.82V42A.8.8,0,0,1,212,42l0,0Q212,41.49,212,41Z"/><path class="cls-116" d="M210,45l-1,0,1-1Z"/><path class="cls-90" d="M104.05,246a7,7,0,0,0-2-4,15.29,15.29,0,0,0-2.95-6l-.35-1c-.2-.42-.55-.76-.72-1.2a.73.73,0,0,0-.28-.8,9.37,9.37,0,0,1-.71-1.22.59.59,0,0,0-.26-.72,5.45,5.45,0,0,1-2.44-2.94c-.29-.55-.55-1.11-.82-1.66a11.68,11.68,0,0,1-.51-1.07c-.24-.51-.46-1-.69-1.56s-.49-1-.74-1.45c-.18-.31-.33-.64-.47-1-.24-.48-.49-1-.75-1.44-.19-.32-.35-.66-.5-1-.26-.51-.51-1-.77-1.54s-.61-1-.9-1.58a10.57,10.57,0,0,1-.57-1.15c-.67-1.62-1.17-3.3-2-4.85q-.59-1.19-1.09-2.42a4.64,4.64,0,0,1-.28-1.34,3.78,3.78,0,0,1,.62-2c13.7-20.22,27.55-40.34,41-60.7,1.45-2.19,2.62-4.67,5.07-6.05a6.09,6.09,0,0,1,2.2-.49c8.09,2.11,16.43,3.49,23.66,8.13a5.11,5.11,0,0,1,.92,1.22,5,5,0,0,1,.61,2.9c-4,7.77-10.43,13.63-15.79,20.33-6.31,7.89-12.94,15.52-19.23,23.43a7.82,7.82,0,0,0-2.07,4.42,16.32,16.32,0,0,0,1.13,7.76c.29.79.59,1.57.94,2.34.19.37.36.74.54,1.12s.39.74.58,1.11.42.74.61,1.13q1.26,2.65,2.65,5.23c1.23,2.6,2.54,5.16,3.86,7.71.92,2,1.86,3.91,2.88,5.82.56,1.12,1,2.29,1.64,3.4.21.36.39.73.56,1.1.35.74.72,1.47,1.1,2.2.47.91.9,1.84,1.38,2.75.21.36.39.73.57,1.1q.55,1.12,1.12,2.23c.93,1.92,1.88,3.83,2.9,5.71a66.79,66.79,0,0,0,4,7.62c1.51,2.3,2.61,4.83,3.94,7.24,1.58,3.35,3.28,6.65,5,9.94,1.44,4.18,4.95,7.53,5,12.28l.36.93a5.44,5.44,0,0,1,.1,3.95l-1.2,1.23c-3.06.67-5.75-1-8.64-1.36a25.13,25.13,0,0,0-8.11-2.94,43.76,43.76,0,0,0-11-4L124.11,279a8.77,8.77,0,0,0-1.09-.76l-.89-.56-3-2.68a2.33,2.33,0,0,1-1-1.17l0,0L115.88,270a3,3,0,0,1-.74-1.38.42.42,0,0,0-.24-.6,17.33,17.33,0,0,0-3-6,7.54,7.54,0,0,0-2-4c-.54-.56-.34-1.48-1-2h0a15.84,15.84,0,0,0-3-6c-.62-.55-.44-1.49-1-2.06l-.32-1a3.17,3.17,0,0,0-.67-1Z"/><path class="cls-41" d="M161.73,285.09a72.25,72.25,0,0,1-6-12,5.52,5.52,0,0,1,1.52-2.51c9.88-9.27,18.28-20,28.22-29.15,1.36-1.26,2.74-4.37,5.43-1.42.57,2.76,1,5.5-.89,8q0,5,0,10c-1.5,0-2.18,1.08-3.11,2.1-7.17,7.8-14.46,15.5-21.71,23.23A4.76,4.76,0,0,1,161.73,285.09Z"/><path class="cls-41" d="M162.2,290l-.1-3.95A2.6,2.6,0,0,1,162.2,290Z"/><path class="cls-26" d="M184.13,51.14A5.29,5.29,0,0,0,185,51c2.59,1.18,2,3.54,2,5.63q0,23.65,0,47.31c-2.61,2-5.31,3.12-8.39.91A12.59,12.59,0,0,1,177.51,99c-.16-12.43-.07-24.86-.06-37.29A9.5,9.5,0,0,1,179,56.07C180.72,54.43,183.12,53.5,184.13,51.14Z"/><path class="cls-41" d="M179,104.93l8-1,1,.09c-2.48,6.16-6.94,11.17-10,17-.94.55-1.69,0-2.48-.39-1.28-.8-2.53-1.63-3.82-2.42a10.57,10.57,0,0,1-1-.7c-.5-.36-1-.75-1.49-1.1a12.71,12.71,0,0,0-3.35-1.42,11.35,11.35,0,0,1-1.2-.44,18.18,18.18,0,0,1-1.85-.8,2.45,2.45,0,0,1-1.36-2.39c1.06-3.26,1.87-6.72,6-7.55a45.64,45.64,0,0,1,5.82-.18C175.26,103.63,177.35,103.34,179,104.93Z"/><path class="cls-117" d="M184,44l1,1-1.19.09H184l-.35-.54Z"/><path class="cls-118" d="M258,72l5-2c1.35,1.92,0,3.39-.86,4.9-1.93,3.59-4.42,6.84-6.22,10.51a4.83,4.83,0,0,1-.83,1.05,10.6,10.6,0,0,1-1,.79l-.52.37a12.57,12.57,0,0,1-1,.72,12.35,12.35,0,0,1-1.1.64c-.37.22-.75.43-1.13.63s-.77.45-1.16.66c-6.19,3.63-12.5,7-18.64,10.76-1.54.62-2.94,2-4.79.87-1.44-2.47-.08-4.44,1.19-6.38,2.25-3.46,4.68-6.81,6.2-10.69,1.18-2.06,3.33-2.8,5.26-3.83,2.78-1.27,5.48-2.72,8.21-4.1C250.57,75.79,253.39,71.79,258,72Z"/><path class="cls-119" d="M255,86c.35-4.53,4.13-7.28,5.82-11.13.71-1.61,2-3,2.18-4.85h0a12.61,12.61,0,0,0,1-1l1,0c.31-.35.7-.62,1-1,1.66-1,3.69-1.41,5-3,4.66-1.29,8.62-4.1,13-6l3-1c-.75,3.37-3.34,5.66-5,8.48-1,1.74-2.12,3.38-2,5.51-2.35,3.6-6.67,4.33-9.81,6.78-3.77,1.58-7,4.11-10.71,5.85C258.06,85.29,256.83,86.66,255,86Z"/><path class="cls-120" d="M258,72l-11,6a24.6,24.6,0,0,1,0-18.78l10-3.13C257.48,61.36,255.93,66.79,258,72Z"/><path class="cls-121" d="M253.89,40.06l-6-1.74a1.38,1.38,0,0,1-.31-1L248,37,249,37c.77,1,2.14.08,2.93,1L253,38a.56.56,0,0,0,1,0l1,0q0,.5,0,1a.83.83,0,0,1,.31.76q-.07.42-.18.42A1.09,1.09,0,0,1,253.89,40.06Z"/><path class="cls-122" d="M257,40a2,2,0,0,1,2,1l-.46.4a6.8,6.8,0,0,1-1.79-.18l0,0a2,2,0,0,1-.09-1Z"/><path class="cls-123" d="M254.94,40q.05-.49.06-1a2,2,0,0,1,2,1h0A1.4,1.4,0,0,1,254.94,40Z"/><path class="cls-124" d="M259,41l1,1-.39.38a1.3,1.3,0,0,1-.94-.46.69.69,0,0,1,.37-.88Z"/><path class="cls-125" d="M261,43l1,1-.53.35-.54-.33,0,0-.34-.53Z"/><path class="cls-125" d="M260,42l1,1,0,0a.81.81,0,0,1-1.09.05l0,0q-.46-.39-.28-.75T260,42Z"/><path class="cls-118" d="M264,69l-1,1Z"/><path class="cls-118" d="M266,68l-1,1Z"/><path class="cls-126" d="M262,44l.6.58-.7.49H262A.77.77,0,0,1,262,44Z"/><path class="cls-127" d="M36,244l-.89,1a6.12,6.12,0,0,1-1.1-1l0,0L32,239a2.33,2.33,0,0,1-.45-1.56c-.29-3.83.57-7.71-.48-11.51q-.08-3-.15-5.93c-.24-5,1.06-10.15-.84-15.08q-.07-2-.15-3.91c-.25-5,1-10.16-.83-15.12q0-1.44-.1-2.88c-.32-5.39.85-10.86-.87-16.18q-.53-.25-.37-.54c.11-.2.22-.29.33-.29-.39-6,.72-12.15-1-18.12-.39-6.33.68-12.74-1-19-.34-6.34.6-12.74-1-19,.64-4.5,3.23-7.07,7.71-7.77,2.35.56,4.9-.19,7.16,1,2.28.79,4.68,1.17,6.94,2,2,.77,4.05,1.37,6.09,2,2.67,1.1,5.59,1.59,8.08,3.18a3.09,3.09,0,0,1,1.21,1.86,2,2,0,0,1-1.47,1.57c-3.15.49-5.83-1.17-8.72-1.9-2.09-.81-4.25-1.44-6.4-2.1-1.29-.41-2.6-.73-3.87-1.22-8.73-1.77-12.11,1.09-11,9.73C32,126.56,32,134.9,32.27,143.16c.86,24.39,2.71,48.74,3.44,73.14.23,7.62.7,15.25.92,22.89C36.68,240.81,37.17,242.51,36,244Z"/><path class="cls-128" d="M40,104l-7.23-1.9c3.53-1.46,5.26-4.88,7.84-7.36,4.17-4,7.87-8.52,11.89-12.7,1.28-1.33,1.42-2.5.47-4l.53-.47c2.49-.49,4.56.86,6.79,1.54a3.56,3.56,0,0,1,2,2c-2,5.48-7.2,8.38-10.41,12.93-2.36,3.34-5.77,5.87-8.55,8.92C42.52,103.92,41.58,105.1,40,104Z"/><path class="cls-67" d="M50,70l3,0c1.42,0,2.87-.08,3.27,1.78a26.32,26.32,0,0,1-3.68,4.93L52,77l-5-1L47,76C45.65,72.79,46.6,70.78,50,70Z"/><path class="cls-67" d="M53,78.06l-1-1L52,77c.85-.24,1.15.09,1,.93Z"/><path class="cls-5" d="M227.07,229.16c-2.89-2.11-3,1.28-3.58,2.23-6.49,10.17-12.7,20.53-19.11,30.76-1.79,2.85-2.9,6.33-6.36,7.86l0-2c-1.91-2.2-1.31-4.76-1-7.27a18,18,0,0,0,.77-4.68,7,7,0,0,1,.74-3c6.23-7.57,10.48-16.42,15.87-24.53,4-6.06,7.52-12.46,11.55-18.53,1.17-1.76,2.18-3.78,4.59-4.18,1.34.56,1,1.51.65,2.47l-.33,2.74c-.33.75-.37,1.58-.65,2.34A78.2,78.2,0,0,1,227.07,229.16Z"/><path class="cls-129" d="M198,260q0,4,0,8c-1.93,1.73-.35,4.14-1.75,7.05A20.3,20.3,0,0,1,191,280V248c-.94-2.24-.37-4.57-.36-6.86,6.29-6.21,6.36-14.05,6-22.11-.16-3.78.13-3.79,2.81-4.67,2.08,6.29.75,12.74.91,19.11a11.33,11.33,0,0,1-.33,2.71c-1.49,6.41.21,13.07-1.55,19.46C198.34,257.09,198.86,258.62,198,260Z"/><path class="cls-130" d="M191,241q0,3.5,0,7h-1q0-4.5,0-9c-3-5.06-1-10.56-1.44-15.85-.23-5,0-9.95,0-14.92-.15-3.07,0-6.13,0-9.19-.22-3.95,0-7.9,0-11.85-.13-2.71,0-5.43,0-8.14-.22-3,.08-6,0-9s0-6,0-8.94c-.1-3.46,0-6.91.05-10.36-.08-3.1.25-6.21-.1-9.3a11.32,11.32,0,0,1-.37-1.37c-.12-.43-.2-.88-.3-1.32-.17-.63-.35-1.26-.55-1.88-.31-1-.67-2-.91-3.08a2,2,0,0,1,.56-1.77c5.48-5.39,8.53-12.45,12.8-18.68,3.52-5.14,7.63-10,9.25-16.26L218,93q.52-.46,1-1h0c2-2.17,4.59-3.4,7.09-4.79q2-.92,4-1.9c.36-.2.73-.38,1.11-.55a5.13,5.13,0,0,1,1.18-.39A1.74,1.74,0,0,1,234,85c-.82,4.36-3.82,7.55-6.1,11.1-1.18,1.84-2.25,3.61-1.9,5.89a3.57,3.57,0,0,1-.82,1c-.51.45-1,.87-1.59,1.27-10.2,5.65-17.06,14-20.24,25.26a7.34,7.34,0,0,1-2.18,3.83c-6.15,6.12-10.19,13-8.87,22.18.54,3.76,0,7.65.2,11.49.16,12,.08,24,0,36,.15,10.43,0,20.85.07,31.27A11.71,11.71,0,0,1,191,241Z"/><path class="cls-131" d="M50,70c-1.51,1.73-3.26,3.34-3,6l-5-1-1-1c-2.29-3-.86-4.73,2-6l2,0c.51.66,1.51.3,2,1C48.1,69,49.28,68.84,50,70Z"/><path class="cls-48" d="M105,247.93a2.27,2.27,0,0,1,1,2.06L105,249Z"/><path class="cls-90" d="M52.1,111l8.56,2.24c.79.25,1.64,0,2.44.26a22,22,0,0,1,2.34,1.06,11.72,11.72,0,0,1,1.78,1.06A13.35,13.35,0,0,1,71,121.9c.79,3.44-.18,7.05,1,10.45.57,2.58.25,5.21.43,7.82.11,3-.1,6,0,9,.25,7.91-.8,15.85.48,23.74.74,3,.48,6.12.47,9.19.55,7.26-.91,14.58.59,21.82,1.29,6.53-.53,13.21.94,19.74a25.72,25.72,0,0,1,.47,3.57c.37,5.92-.81,11.88.6,17.76.39,2.45.73,4.89-1.06,7a.51.51,0,0,0-.09.73c-.4.72-.33,1.62-.88,2.27L70,257.86l-4.73,0a14.78,14.78,0,0,0-6-2A10.68,10.68,0,0,0,54,254c-.53-.6-1.38-.42-2-.82l-.44-.23-.5,0a2.7,2.7,0,0,1-.18-.71c-1.62-2.16-1.53-4.69-1.53-7.19q0-63.5.07-127C49.45,115.56,48.29,112.21,52.1,111Z"/><path class="cls-9" d="M75,252l-.1-6.67a3.69,3.69,0,0,1-.28-2.1c4.57-6.48,10.71-11.48,16.21-17.09.79-.8,1.74-1.55,3-1.11a.5.5,0,0,1,.24.65,3.45,3.45,0,0,0,.73,1.31l2,4.05c-6.64,5.22-11.48,12.19-17.45,18.07C78.12,250.34,77.1,252,75,252Z"/><path class="cls-9" d="M74,255l.88-2.27A2.08,2.08,0,0,1,74,255Z"/><path class="cls-9" d="M97.09,231.75,97.8,233Z"/><path class="cls-9" d="M98.08,233.77l.72,1.2Z"/><path class="cls-132" d="M270,78c2.84-2.83,6.57-4.16,10-6l9-5c-.92,6.14-5.29,10.51-8.19,15.6-4.08,7.17-8.59,14.08-13,21.06A5.77,5.77,0,0,0,267,107c0,.63-.69.64-1,1L265,108c-.54.56-1.46.35-2,1h0c-.55.59-1.48.42-2,1l0,0a.73.73,0,0,1-1,.1l-1,.93a12.2,12.2,0,0,0-1,.94,7.71,7.71,0,0,0-1,.05l-1,1a3,3,0,0,0-2.94,2l-.05.45a3.13,3.13,0,0,1-.33.84,4.42,4.42,0,0,0-.29.85.84.84,0,0,1-.45.74l-.07.07a14.61,14.61,0,0,0-1.79,3.05c-.37.92-.76,1.83-1.15,2.74-.14.38-.29.75-.43,1.12a11,11,0,0,0-.36,3.06c-.14,1.81-.7,3.54-.91,5.33a40.64,40.64,0,0,0-1,5.51,11.88,11.88,0,0,1-.38,2.1,20.72,20.72,0,0,0-.62,2.78,6.28,6.28,0,0,1-1.85,3.92c-3,2.09-4.43,5.35-6.26,8.28q-15.59,25-30.92,50.12a29.4,29.4,0,0,1-3.42,4.91c-1.26,1.36-2.67,2.82-4.48.59-1-3.13-.71-6.31-.35-9.49-.4-11.77,7.48-19.89,13-28.94q27.93-45.57,56.12-91A20.13,20.13,0,0,1,270,78Z"/><path class="cls-85" d="M148,37q0-.43,0-.86l1-.18h16l-.05.17a.76.76,0,0,1,.23.79q-.14.38-.26.38l-14.76-.08A1.79,1.79,0,0,1,148,37Z"/><path class="cls-34" d="M123,278.2l1.09.76Z"/><path class="cls-17" d="M109,256a2.1,2.1,0,0,1,1,2A2.06,2.06,0,0,1,109,256Z"/><path class="cls-85" d="M175.93,40.06a1.63,1.63,0,0,1-.91-.22q-.47-.26-.32-.53c.1-.18.2-.27.3-.27h1.92a6,6,0,0,1,0,.9A.64.64,0,0,1,175.93,40.06Z"/><path class="cls-133" d="M182,42l1,1-.53.37-.55-.33,0,.06a.67.67,0,0,1-.25-.72Q181.83,42,182,42Z"/><path class="cls-127" d="M182,42V43.1l-.93-.25a4.76,4.76,0,0,0,0-.85.7.7,0,0,1,1,0Z"/><path class="cls-134" d="M182,42l-1,0,.53-.53Z"/><path class="cls-36" d="M175.93,40.06l1-.12q0,.43,0,.86Z"/><path class="cls-36" d="M178,39l.42.23L178,39Z"/><path class="cls-135" d="M183,43l1,1h0a.78.78,0,0,1-1.08,0l0,.05A.79.79,0,0,1,183,43Z"/><path class="cls-72" d="M26.91,149v7.75C21,162.91,15.27,169,9.47,175c-1.23,1.27-2.27,2.91-4.33,3,0-2.63,0-5.26,0-7.8C11,164.07,16.75,158,22.56,152,23.79,150.7,24.84,149.06,26.91,149Z"/><path class="cls-74" d="M28,166a1.76,1.76,0,0,1,0,.83c0,2.64,0,5.29,0,8-6.8,5.28-11.26,12.65-17.62,18.19-1.34,1.17-2.3,2.92-4.39,3,0-2.33,0-4.65,0-7.15C12.89,180.81,19.84,172.81,28,166Z"/><path class="cls-35" d="M118.13,273.78l1,1.17Z"/><path class="cls-22" d="M115.14,268.61l.74,1.38Z"/><path class="cls-136" d="M175,39v.8c-1.73-.6-3.68-.49-5.2-1.73.13-.62.76-.69,1.14-1l0-.11q.49,0,1,0c.51.61,1.41.39,2,.93Z"/><path class="cls-137" d="M173.93,37.93a1.93,1.93,0,0,1-2-.93A2,2,0,0,1,173.93,37.93Z"/><path class="cls-138" d="M31,225.92c1.85,3.92.64,8.05.88,12.09a.58.58,0,0,1-.92,0q0-.5,0-1,0-4,0-8Z"/><path class="cls-48" d="M104,245.93l.67,1Z"/><path class="cls-52" d="M52,253.18l2,.82Z"/><path class="cls-56" d="M31,238h.92a4.27,4.27,0,0,1,.05,1Z"/><path class="cls-139" d="M224.3,38.16c-1.1,1.12-2.54.88-3.9,1a3.11,3.11,0,0,0-1,.25,1.17,1.17,0,0,1-.81-.58A.72.72,0,0,1,219,38l1,0c.9-.74,2-.36,3-.44A1.36,1.36,0,0,1,224.3,38.16Z"/><path class="cls-140" d="M223.09,38l-3,0q0-.47,0-.95l3,0q.48.29.36.64T223.09,38Z"/><path class="cls-141" d="M215,40a2,2,0,0,1,2-1l.36.32a1.11,1.11,0,0,1-.22.92l0-.16a2.5,2.5,0,0,1-1.68.34Z"/><path class="cls-142" d="M213,41a2,2,0,0,1,2-1h0q.48.35.37.75t-.27.41l0-.08A1.63,1.63,0,0,1,213,41Z"/><path class="cls-143" d="M219,38v1a1.39,1.39,0,0,1-2,0h0A2,2,0,0,1,219,38Z"/><path class="cls-95" d="M52.1,111C50.17,112.71,51,115,51,117.08q-.13,67.59-.14,135.18L47,250.91c-3.1-2-2.57-5.19-2.58-8.11-.06-20.13,0-40.27,0-60.4q0-32.69,0-65.39c0-2.76-.57-5.72,1.62-8.08A13.24,13.24,0,0,1,52.1,111Z"/><path class="cls-144" d="M46,108.93Q46,177,46,245.11c0,2-.18,4,1,5.8H45.22l-1.24-1c-.59-.52-1.48-.32-2.07-.84h-.47l-.42-.21c-1.51-2-1.64-4.3-1.64-6.65,0-42.61-.07-85.22.11-127.83,0-2.38-1.54-6.53,3.61-6.39A3.31,3.31,0,0,1,46,108.93Z"/><path class="cls-85" d="M171,37.07l-1.14,1c-1.65-.18-3.4.25-4.89-.85l0-1.18,3.08.82a1.44,1.44,0,0,1,1.91,0Z"/><path class="cls-145" d="M170,36.94l-1.91,0C168.71,36,169.34,36,170,36.94Z"/><path class="cls-146" d="M43.09,108c-3.28.75-2,3.42-2,5.31Q41,181,41,248.83a5.17,5.17,0,0,1-1,.16c-2.06-1.09-2.78-3.24-4-5-1.67-9.2-1.23-18.54-1.74-27.81-1.83-33-3.3-66-5-99.06C28.79,106.63,33.15,103.69,43.09,108Z"/><path class="cls-50" d="M34,243.95l1.1,1Z"/><path class="cls-146" d="M41.9,249a2,2,0,0,1,2.07.84A2.11,2.11,0,0,1,41.9,249Z"/><path class="cls-147" d="M223.09,38l-.1-1L224,37a4,4,0,0,1,4,0q0,.42,0,.83l-3.7.32Z"/><path class="cls-148" d="M228,37l-4,0c.7-1.19,1.89-.92,3-1l1.3.24Z"/><path class="cls-149" d="M245,35.94c1.07.1,2.26-.12,3,1h0c-1.37,1-2.91.34-4.37.44L243,37A2.23,2.23,0,0,1,245,35.94Z"/><path class="cls-149" d="M243,37.82a7.33,7.33,0,0,1-4.3-.68L243,37h0q.47.25.33.53C243.23,37.72,243.14,37.82,243,37.82Z"/><path class="cls-150" d="M252,38c-1.07-.06-2.24.21-2.93-1C250.1,37,251.26,36.81,252,38Z"/><path class="cls-151" d="M254,38c-.33.61-.65.57-1,0Z"/><path class="cls-80" d="M50.71,51.18l-1-1.25a4,4,0,0,1-.23-1.68,6,6,0,0,1,.1-1.13c.2-.53.39-1.06.64-1.57l.29-.48.38-.42a4,4,0,0,0,.73-.86,3,3,0,0,1,1.29-1.13c.38-.11.76-.24,1.13-.39.52-.36,1-.81,1.45-1.19a17.22,17.22,0,0,1,6.2-2.57c2.43-.35,4.72-1.32,7.18-1.5a14.36,14.36,0,0,0,3.82-.48c3.46,0,6.92,0,10.37,0a22.27,22.27,0,0,0,3.76.55,11.75,11.75,0,0,0,3.53.45c1.68.53,3.4.94,5.09,1.4a7.58,7.58,0,0,1,1.12.48c.69.33,1.41.61,2.09,1,.48.23.94.51,1.43.72a8.78,8.78,0,0,1,.89.5,6.36,6.36,0,0,0,1.17.92,1.85,1.85,0,0,1,.79.57l-.07,0a8.27,8.27,0,0,0,1,.59l.42.42a7.29,7.29,0,0,0,.59,1l-.14.05c.88.39.56,1.45,1.11,2l0,3.77a1.24,1.24,0,0,1-1.33.32,15.9,15.9,0,0,1-3.06-2.2,22.29,22.29,0,0,0-9.68-3.73c-10.91-1.49-21.8-2-32.53,1.25a14.16,14.16,0,0,0-5.24,2.78A6.44,6.44,0,0,1,50.71,51.18Z"/><path class="cls-67" d="M105.13,51.09a5.7,5.7,0,0,0,.84-.16c2.06,10.93.62,22,1,33,0,.7-.64,1.42-1,2.13a2.68,2.68,0,0,1-2.58.72c-1.13-.25-2.21-.65-3.32-1-.9-.28-1.82-.51-2.73-.78a2.4,2.4,0,0,1-1.67-1.4,2.73,2.73,0,0,1,.39-1.49c3-6.36,1-13.1,1.46-19.65.1-1.49-.4-3-.27-4.47C98.64,54.27,101.79,52.57,105.13,51.09Z"/><path class="cls-20" d="M103,86,106,86l3.13,1.91c-.83,2.51-2.88,4.13-4.41,6.13a3.46,3.46,0,0,1-1.26.59,4.66,4.66,0,0,1-1.41-.05,14.88,14.88,0,0,1-2-.66,3.87,3.87,0,0,1-2.57-2.49C97.81,88.12,98.67,85.25,103,86Z"/><path class="cls-112" d="M104,93.9a12,12,0,0,1,5.07-6l3.89.16,3.1,1.87c-1.71,1.66-3.72,3-4.85,5.23a5,5,0,0,1-.87.94,2.28,2.28,0,0,1-1.19.29,7.8,7.8,0,0,1-1.7-.58c-.36-.14-.71-.3-1.06-.47-.54-.21-1.08-.42-1.6-.66A1.84,1.84,0,0,1,104,93.9Z"/><path class="cls-152" d="M106,47.16a2.11,2.11,0,0,1-1.11-2L106,45Z"/><path class="cls-153" d="M110,95.82c1.25-2.77,2.07-6,6.12-5.86L119,90l1,1c-.23,2.63-3,4.16-3,6.91a1.72,1.72,0,0,1-1,.62,7,7,0,0,1-3-.85l-1.7-.7A2.18,2.18,0,0,1,110,95.82Z"/><path class="cls-153" d="M123,92a2.08,2.08,0,0,1-2-.89A2,2,0,0,1,123,92Z"/><path class="cls-154" d="M98.89,41.14l-2-1.1a1.85,1.85,0,0,1,1-.9l1.09,0c.81,1.18,2.63,1.3,3,2.91l-.24.42q-.47-.1-.93-.25a2.48,2.48,0,0,1-.84-.34A7.15,7.15,0,0,0,98.89,41.14Z"/><path class="cls-127" d="M103,43.08,102,43a.59.59,0,0,1-.22-.64q.11-.32.23-.32h0Z"/><path class="cls-64" d="M104,43l1,1a.83.83,0,0,1-1.05,0l.05.05A.79.79,0,0,1,104,43Z"/><path class="cls-127" d="M104,43q0,.53,0,1.07c-.63-.07-1-.35-1-1Z"/><path class="cls-155" d="M103.92,44l1.05,0c0,.34,0,.68,0,1A1,1,0,0,1,103.92,44Z"/><path class="cls-79" d="M105.13,51.09c-1.5,3-4.65,4.09-7.13,6a6,6,0,0,1-2.53,1.7c-.79.27-1.59.54-2.37.86a9.44,9.44,0,0,1-1.27.41,54.15,54.15,0,0,1-5.49,1.21,23.35,23.35,0,0,1-3.13.15c-6.49-.29-13.06.83-19.44-1.19-2.86-1.4-6.54-1.2-8.51-4.35-1.36-1.7-3.81-2.34-4.55-4.65L53,49a17.28,17.28,0,0,1,8.18-1.6q16.85,0,33.69,0A16.31,16.31,0,0,1,103,49Z"/><path class="cls-32" d="M55.27,55.83l7.83,3.11c.44,4.66,1,9.32-.64,13.88C60.07,74.45,58,73.62,56,72l-3-2c1.62-2.75.77-5.79,1-8.7C54.18,59.44,53.29,57.3,55.27,55.83Z"/><path class="cls-75" d="M50.07,47.09a2.19,2.19,0,0,1-.22.91c-.28.44-.56.46-.85,0,0-1.12-.15-2.29.94-3.07l.44.24a4.24,4.24,0,0,1,.07,1A2,2,0,0,1,50.07,47.09Z"/><path class="cls-69" d="M49,48h.85q-.05,1-.1,1.92Z"/><path class="cls-156" d="M47,69a2.07,2.07,0,0,1-2-1h2Q47,68.51,47,69Z"/><path class="cls-157" d="M52,44.07l-1,1a.65.65,0,0,1-.35-.68q.09-.39.21-.39a1.25,1.25,0,0,0,.22-.72.69.69,0,0,1,1-.43A.89.89,0,0,1,52,44.07Z"/><path class="cls-75" d="M52,43.18a3.81,3.81,0,0,0-1,.12L52,42l.25.26A.68.68,0,0,1,52,43.18Z"/><path class="cls-75" d="M50.88,44,51,45.09l.05-.08q-.53.66-1.05,0L50,44.94Z"/><path class="cls-156" d="M43,68c-.92,1.91-3.09,3.4-2,6l-7-2L33,71c1.35-1.65,1.94-3.9,4-5h2C39.86,67.61,42.14,66.39,43,68Z"/><path class="cls-85" d="M84,37.18H72a4.76,4.76,0,0,1-2.82.16.76.76,0,0,1-.34-.77q.1-.42.23-.42l-.1-.27a.83.83,0,0,1,1,0l16,.28a.83.83,0,0,1-.08,1.16A2.52,2.52,0,0,1,84,37.18Z"/><path class="cls-85" d="M86,36.88q0-.37,0-.74l5.91,1c.15.91,0,1.49-1.1,1L87,37.85C86.62,37.59,86,37.55,86,36.88Z"/><path class="cls-136" d="M90.81,38.12l1.11-1L93,37c.76,1.09,1.93.9,3,1a2.22,2.22,0,0,1,.46,1,.89.89,0,0,1-.45.88C94.29,39.25,92.33,39.35,90.81,38.12Z"/><path class="cls-73" d="M70,35.87l-1,0L70,35Q70,35.43,70,35.87Z"/><path class="cls-127" d="M96,39.84q0-.48,0-1A.78.78,0,0,1,97,38.8l.93.34-1,.9A1.45,1.45,0,0,1,96,39.84Z"/><path class="cls-67" d="M97,38.8l-.46.08H96A5.82,5.82,0,0,0,96,38Z"/><path class="cls-158" d="M69.07,36.16v1q.45.28.27.5a.46.46,0,0,1-.34.2l-7.7,1.28c-1,.43-1.33.07-1.16-.93L60,37.94Z"/><path class="cls-159" d="M60.13,38.21l1.16.93-6.25,3-.59.25L54,42c.63-2,2.72-2.09,4-3.18q.57-.39,1.16-.75Q59.67,38.13,60.13,38.21Z"/><path class="cls-87" d="M52,43.18q.07-.47.19-.93a3.53,3.53,0,0,1,.8,0q.48.28.33.57c-.1.19-.21.29-.32.29l-1,.95Q52,43.63,52,43.18Z"/><path class="cls-160" d="M53,43.12q0-.43,0-.86L54,42h0q.34.3.23.59t-.23.29A2.51,2.51,0,0,1,53,43.12Z"/><path class="cls-72" d="M59.2,38.08,58,38.83Z"/><path class="cls-13" d="M21,61a2.05,2.05,0,0,1-2-1A2.07,2.07,0,0,1,21,61Z"/><path class="cls-13" d="M18,60l-1-1Z"/><path class="cls-161" d="M163,60.17l3-.11a6.38,6.38,0,0,1,1.53,4.61c.11,11.77.15,23.55,0,35.32a7.73,7.73,0,0,1-.76,3.37c-4.43,2.36-8.28,1.47-11-2.55,1.57-10.23.39-20.52.76-30.78.1-2.8-.35-5.65.77-8.36C158.71,59.49,161.19,61.19,163,60.17Z"/><path class="cls-23" d="M163,60.17c-1.46,1.41-3.3.62-5,.86-1.51,1.47-3.78,1.23-5.45,2.43-1.35,1.9-1,4.12-1,6.25,0,7.66,0,15.31,0,23,0,2.3.25,4.72-1.59,6.6C146.67,100.64,144,100,142,97l0-38.09C148.94,60.45,156,59.91,163,60.17Z"/><path class="cls-162" d="M166,104q0-22,0-43.93l8-1.93c1.18,2.72.55,5.57.57,8.36q.1,15.68,0,31.35c0,2.46.29,5-1.57,7.1l-5.94,0C166.7,104.65,166.11,104.58,166,104Z"/><path class="cls-47" d="M173,104.94q0-20.53,0-41.06c0-2-.2-4,1-5.75l5-2.06q0,24.43,0,48.85Z"/><path class="cls-163" d="M132,49c3.92-4.55,9.61-5.34,14.84-5.7,8.53-.58,17.23-1.15,25.7.88C176,45,179.67,45.78,182,49Z"/><path class="cls-2" d="M136.34,56.89,135,56.13Z"/><path class="cls-24" d="M142,97a18.31,18.31,0,0,0,7,2,1,1,0,0,1,.3.8c0,.29-.08.44-.13.44A15.37,15.37,0,0,0,145,107c-2.53,1.34-4.62-.56-6.92-.95a10.71,10.71,0,0,1-1.18-.44c-.57-.22-1.14-.45-1.72-.65a20.5,20.5,0,0,1-2.77-1.12c-.52-.24-1-.51-1.57-.73a5.31,5.31,0,0,1-1.52-.79l-.25-.51L133,95l1,.08c.57.56,1.47.34,2.05.88L139,96c.55.59,1.44.38,2,.89Z"/><path class="cls-82" d="M136.07,96a2.07,2.07,0,0,1-2.05-.89A2.09,2.09,0,0,1,136.07,96Z"/><path class="cls-23" d="M141,96.91a2,2,0,0,1-2-.89A2.08,2.08,0,0,1,141,96.91Z"/><path class="cls-23" d="M148,37l2.17.23a2.34,2.34,0,0,1-2.21.61Q148,37.37,148,37Z"/><path class="cls-127" d="M183,43l0,1.08c-.61-.09-1-.37-1-1Z"/><path class="cls-127" d="M182.92,44,184,44q0,.54,0,1.08A1.06,1.06,0,0,1,182.92,44Z"/><path class="cls-164" d="M116,98.06l1-.13,6,2.21a1.79,1.79,0,0,1,1.23,1.63,10.67,10.67,0,0,1-3.36,5.45c-6.8,6.62-12.94,13.89-19.63,20.6C92.69,136.43,85.07,146,76,154.11c-3.41,3.07-2.78,6.86-2.71,10.65-.11,2.63.48,5.33-.83,7.82l-.63.51c-1.16-8-.74-16.07-.71-24.12,4.59-4.78,8.77-9.94,13.38-14.7,9.48-9.78,18.88-19.64,28-29.77A15,15,0,0,0,116,98.06Z"/><path class="cls-39" d="M124,101l-.95-.88a9.48,9.48,0,0,1,1-.14h0l.37.52Z"/><path class="cls-39" d="M72.1,164v-7.16c.65-.79,1.32-1.73,2.11-2.55,9.77-10.13,20-19.86,29.2-30.5,6.7-7.76,15.1-14,20.57-22.8l.14-.14a1.49,1.49,0,0,1,1.86,0l3.08.95-.07.25c3.29,2.21.86,4-.58,5.6-4.58,5-9.37,9.88-14,14.83Q96.07,141.91,77.8,161.31C76.36,162.82,75.08,165.43,72.1,164Z"/><path class="cls-81" d="M126,100.89h-1.86q-.07-.44-.12-.88A2.09,2.09,0,0,1,126,100.89Z"/><path class="cls-63" d="M199,212c4.35-1.36,5.3-5.66,7.32-8.86,10.94-17.37,21.62-34.9,32.48-52.32,1-1.56,1.57-3.87,4.15-3.82a1.23,1.23,0,0,1,.3.8c0,.29,0,.44-.07.44-1,.87-.64,2.05-.71,3.13a5.64,5.64,0,0,1-.34,2.66l-.36-.07c-.33.78-.4,1.64-.66,2.44l-.94,7.6-.32,2.54c-.23.81-.38,1.63-.66,2.43l-.33,2.64c-.56,1.05-.15,2.33-.76,3.37L237,178c-11.47,16.68-21.42,34.3-32.3,51.35-1.35,2.12-2.27,5-5.68,4.65V214A1.37,1.37,0,0,1,199,212Z"/><path class="cls-6" d="M199,234c5.81-4.73,8.42-11.7,12.31-17.76,7.41-11.53,14.52-23.24,21.81-34.84.92-1.47,1.53-3.46,3.86-3.4l-.11,1c-.67,1-.19,2.29-.75,3.33l-.33,2.68a19.83,19.83,0,0,0-.65,2.41,134,134,0,0,1-4,20.86l-.77-2.32c-5.88,7.51-10,15.46-14.74,22.93-4.64,7.24-9.06,14.61-13.51,22-.75,1.24-1.58,2.1-3.08,2.13a61,61,0,0,1,0-17Z"/><path class="cls-95" d="M238.12,175a4.09,4.09,0,0,1,.76-3.37C239,172.82,239.25,174.06,238.12,175Z"/><path class="cls-63" d="M236.12,182.35c-.07-1.18-.36-2.42.75-3.33A4,4,0,0,1,236.12,182.35Z"/><path class="cls-5" d="M226.09,234.26c-.05-1.15-.32-2.34.76-3.23A3.93,3.93,0,0,1,226.09,234.26Z"/><path class="cls-63" d="M235.13,187.44a2.42,2.42,0,0,1,.65-2.41A2.57,2.57,0,0,1,235.13,187.44Z"/><path class="cls-95" d="M239.21,169a2.58,2.58,0,0,1,.66-2.43A2.42,2.42,0,0,1,239.21,169Z"/><path class="cls-6" d="M230.12,213.38a2.36,2.36,0,0,1,.65-2.34A2.49,2.49,0,0,1,230.12,213.38Z"/><path class="cls-5" d="M225.11,239.32a2.41,2.41,0,0,1,.64-2.28A2.45,2.45,0,0,1,225.11,239.32Z"/><path class="cls-5" d="M224.13,244.42a2.43,2.43,0,0,1,.65-2.38A2.57,2.57,0,0,1,224.13,244.42Z"/><path class="cls-165" d="M258.65,184.87,257,186h0a4,4,0,0,1-1.25.9l-3,1.25c-1.66-.83-.63-2.18-1-3.16l.31-2.72c.89-3.58-.14-7.33.94-10.9a49.74,49.74,0,0,0,1.06-5.21c.68-1.87.55-3.88,1-5.79a14.27,14.27,0,0,0,.64-3.55,17.35,17.35,0,0,1,.43-2.91c.63-1.58.37-3.53,1.91-4.74l1.77-3.78,4.83,33.49-2.83,3.68-.87.61a9.52,9.52,0,0,0-1.06.79l0,0A2.13,2.13,0,0,1,258.65,184.87Z"/><path class="cls-166" d="M258.08,149.18c0,1.69.17,3.41-.87,4.92-2.65.35-2.94-1.88-3.26-3.45C252.11,141.73,249.5,133,248,124l1-2.89a3,3,0,0,1,.61-.73c.34-.36.58-.78.89-1.16a1.42,1.42,0,0,1,1.31-.55c1.85,8.37,3.73,16.74,5.53,25.12C257.77,145.55,257.86,147.38,258.08,149.18Z"/><path class="cls-167" d="M251.86,118.67l-.95,1.11a3.69,3.69,0,0,1-1,1.2,2,2,0,0,1-.91.13c0-1.88.81-3,2.77-3.21A2.25,2.25,0,0,1,251.86,118.67Z"/><path class="cls-168" d="M253,115l1,1c.36.49.22.78-.35.91l-.32,0-.32.06-.4-.24a1,1,0,0,1-.06-.9A5.82,5.82,0,0,1,253,115Z"/><path class="cls-93" d="M253.63,116.86a4.37,4.37,0,0,1,.35-.91h1Z"/><path class="cls-167" d="M251.88,117.83a.74.74,0,0,1-.06-.67l.17-.51a1.7,1.7,0,0,1,1-.28.38.38,0,0,1,0,.52Z"/><path class="cls-169" d="M254.11,171.32a37,37,0,0,1-2,11c-2.45-10.76-4.88-21.53-7.4-32.28-.1-.43-1-.67-1.56-1q-.54-.2-.48-.57t.21-.41l.1-1,1.24-4a16,16,0,0,0,.66-2.44l.22-1.51c2-.08,2.54,1.46,2.92,2.84,2.5,8.93,4.33,18,6.45,27A3.69,3.69,0,0,1,254.11,171.32Z"/><path class="cls-132" d="M242.86,148l.27,1-.23,1.75a.61.61,0,0,1-.79.5C242,150.1,241.78,148.91,242.86,148Z"/><path class="cls-169" d="M242.12,151.26q.4-.24.79-.5c.09,1.17.29,2.37-.76,3.28Z"/><path class="cls-132" d="M241.13,156.41a2.54,2.54,0,0,1,.66-2.44A2.65,2.65,0,0,1,241.13,156.41Z"/><path class="cls-170" d="M275,125l.19,2,1.06,7a2,2,0,0,0,.55,2.06l.51,4L277.1,142c-3-7.87-3.94-16.23-6-24.32a41.17,41.17,0,0,0-2.07-6.59c5,.55,3.13,5.39,4.9,8C273.91,121.07,273.9,123.13,275,125Z"/><path class="cls-170" d="M277.07,141.93c1.08,1.18.88,2.62.83,4C276.56,144.83,277.07,143.33,277.07,141.93Z"/><path class="cls-170" d="M279.11,152.81l.64,2.13A2.06,2.06,0,0,1,279.11,152.81Z"/><path class="cls-170" d="M278.13,147.74a2.33,2.33,0,0,1,.65,2.2A2.08,2.08,0,0,1,278.13,147.74Z"/><path class="cls-100" d="M255.75,186.91,257,186Z"/><path class="cls-98" d="M259.93,184l1.06-.79Z"/><path class="cls-98" d="M258.65,184.87l1.32-.93Z"/><path class="cls-171" d="M266,108l1-1,2,0a.59.59,0,0,1,.23.64q-.11.32-.23.32Z"/><path class="cls-172" d="M272,109a2.12,2.12,0,0,1-2-1A2,2,0,0,1,272,109Z"/><path class="cls-173" d="M273.95,112a2.11,2.11,0,0,1-1-2A1.89,1.89,0,0,1,273.95,112Z"/><path class="cls-132" d="M269,108q0-.48,0-1l1,.93Z"/><path class="cls-174" d="M273,110l-1-1Z"/><path class="cls-175" d="M261,110a2.12,2.12,0,0,1,2-1A2.08,2.08,0,0,1,261,110Z"/><path class="cls-176" d="M263,109a1.92,1.92,0,0,1,2-1A2,2,0,0,1,263,109Z"/><path class="cls-177" d="M256,113l1-1Z"/><path class="cls-178" d="M260,110.11a3.87,3.87,0,0,1,1-.1C260.73,110.52,260.42,110.68,260,110.11Z"/><path class="cls-179" d="M258,112l1-.94Z"/><path class="cls-180" d="M227,88c-2.82,1-4.81,3.72-8,4-1.78-3.26-.89-6.8-1-10.21-.14-6.43-.07-12.87,0-19.3,0-1.58-.51-3.36,1.12-4.57l9,2c-1.16,7.56-.58,15.17-.58,22.76C227.58,84.48,228.12,86.32,227,88Z"/><path class="cls-181" d="M211.94,48.95c3.26-3.51,7.48-4.83,12.07-4.9q12-.19,24,0c4.59.07,8.81,1.38,12.05,4.92Z"/><path class="cls-182" d="M234,85l-2,0a5.24,5.24,0,0,1-2-3.9c-.43-7-2.05-14.12,1-21l8,0A32.63,32.63,0,0,1,239,82Z"/><path class="cls-183" d="M239,82V60.15l8-1q0,9.39,0,18.78Z"/><path class="cls-184" d="M231,60.12c.12,8.31-.54,16.65,1,24.9h0a9.23,9.23,0,0,0-1,1l-4,2c-2-8.53-.56-17.19-1-25.79-.07-1.43.84-2.06,2.13-2.28Z"/><path class="cls-7" d="M213,55l-.94-.73Z"/><path class="cls-57" d="M120.2,197c-.1-2.41,1.54-4,2.89-5.6q15.22-18.5,30.49-37c1.47-1.79,2.83-3.67,4.24-5.5,7.51-8.21,15-16.44,23.21-24,1.54.92,2.84,2,3,4,.31.36.62.72,1,1.06h0c.54,1.78-.71,2.8-1.71,3.85-10.13,10.56-19.91,21.44-30.09,31.94-9.14,9.44-17.61,19.53-27.3,28.42C124.33,195.66,123.19,198.37,120.2,197Z"/><path class="cls-55" d="M120.2,197c7.29-4.5,12.4-11.34,18.27-17.33,1.7-1.73,3.22-3.75,4.92-5.55L185,130l2,2q0,1,.07,2c-.34,4-3.33,6.38-5.8,8.86-14.42,14.5-28,29.78-42.16,44.54-5.83,6.09-12,11.94-17.1,18.74A11.81,11.81,0,0,1,120.2,197Z"/><path class="cls-185" d="M181,125c-1.32,3.61-4.42,5.76-6.9,8.42-3.85,4.12-8.25,7.72-11.52,12.41-1.08,1.54-2.41,3.31-4.79,3.15l-.62-2a1.68,1.68,0,0,0,0-1.68,23.82,23.82,0,0,1-.75-2.37c0-.22-.05-.43-.08-.66a4.08,4.08,0,0,1,.26-1.33c6.16-7.25,13.13-13.74,19.39-20.9l2,1Z"/><path class="cls-55" d="M185,130l-1-1.06Z"/><path class="cls-180" d="M219,92l-1,1Z"/><path class="cls-147" d="M243,37.82q0-.41,0-.82h5l-.09,1.33Z"/><path class="cls-186" d="M259,41.06q0,.49,0,1,.41.23.29.48c-.08.17-.17.26-.26.26l-2.29-1.51Z"/><path class="cls-187" d="M254.94,40l2,0-.26,1.29a4,4,0,0,1-2.82-1.25Z"/><path class="cls-188" d="M213,41l2.12.08c-.33,1-1.16,1.09-2,1Z"/><path class="cls-189" d="M215.1,41.16,215,40l2.11.08C216.84,41.2,215.89,41,215.1,41.16Z"/><path class="cls-85" d="M217,39l2,0h0q.36.27.24.54t-.24.27l-1.84.41Z"/><path class="cls-51" d="M219,39.83q0-.4,0-.81l1.41.14Z"/><path class="cls-190" d="M259.91,43,261,43q0,.54,0,1.08Z"/><path class="cls-85" d="M259,42.78c0-.25,0-.5,0-.74l1-.05-.05,1.1A1.2,1.2,0,0,1,259,42.78Z"/><path class="cls-191" d="M262,44q0,.54,0,1.08l-1-1Z"/><path class="cls-127" d="M212,42l1.08,0c0,.72-.5.92-1,1.1Z"/><path class="cls-192" d="M190,150v11c-5,5.72-10.45,11.09-15.69,16.6-12.57,13.21-24.92,26.62-37.56,39.76-2.07,2.15-3.25,5-5.8,6.74a27.92,27.92,0,0,1-4-8c1.68-4.39,5.32-7.33,8.43-10.5,14.62-14.92,28.4-30.65,43.2-45.4,2.47-2.46,4.21-5.57,6.9-7.83C186.8,151.26,187.75,149.35,190,150Z"/><path class="cls-193" d="M190,223q0,8,0,16c-10.85,9-19.18,20.4-29.44,29.94-1.56,1.45-2.78,3.3-4.84,4.18a42.54,42.54,0,0,1-4.88-9.74c-.51-2.62,1.52-3.9,3-5.37,10.58-10.62,20.75-21.62,30.83-32.7C186,223.83,187.28,221.58,190,223Z"/><path class="cls-180" d="M131,224.11c.35-2.43,1.89-4.25,3.43-5.91q14.48-15.68,29.14-31.2c6.93-7.35,13.95-14.61,20.9-21.94A15.53,15.53,0,0,1,190,161q0,4.5,0,9a98.33,98.33,0,0,1-11.89,14c-15,15-28.77,31.33-44.14,46A15.67,15.67,0,0,1,131,224.11Z"/><path class="cls-194" d="M190,223a3.25,3.25,0,0,0-2.64,1.19c-5.76,7.73-13.38,13.73-19.58,21.07-4.05,4.8-8.74,9.06-13.11,13.59-1.37,1.42-3.06,2.58-3.83,4.52a25.19,25.19,0,0,1-3.81-7.45c-1.81-3.57.89-5.73,2.81-7.77,6.16-6.54,12.4-13,18.54-19.56,5.57-5.95,11.13-11.91,16.73-17.83,1.28-1.35,2.41-3.36,4.89-2.76Q190,215.5,190,223Z"/><path class="cls-195" d="M190,150q-12,12.54-24,25.08c-.91,1-1.65,2.08-2.58,3-11,11-21.68,22.38-32,34a53.77,53.77,0,0,1-4.39,4,15,15,0,0,1-3-6,6,6,0,0,1,2.13-3.29c14.87-14.57,28.64-30.18,43-45.24,6.75-7.08,13.9-13.85,20-21.58C191,143.15,189.61,146.66,190,150Z"/><path class="cls-35" d="M190,187q0,6,0,12c-9.23,8.9-17.57,18.64-26.52,27.82-6.84,7-13.15,14.55-20.46,21.13a15.43,15.43,0,0,1-3-6c-.62-.52-.37-1.47-1-2h0c-.42-1,.15-1.57.77-2.13,4.68-4.24,8.68-9.13,13-13.69,10.63-11.17,21.34-22.26,31.67-33.71C185.9,188.88,187.12,186.49,190,187Z"/><path class="cls-22" d="M190,187q-11.4,11.8-22.79,23.6c-9.42,9.78-17.93,20.45-28.21,29.4a7.29,7.29,0,0,1-2-4c-.59-.54-.35-1.51-1-2h0c1.32-4.29,5.07-6.81,7.9-9.75,13.59-14.11,26.6-28.77,40.41-42.67,1.47-1.48,2.74-4.12,5.71-2.6Q190,183,190,187Z"/><path class="cls-34" d="M143,247.95c0-1.48,1-2.39,1.88-3.35q12-12.5,24-25c5.58-5.85,11.09-11.78,16.68-17.63,1.22-1.28,2.28-2.93,4.4-2.93q0,4.5,0,9c-9,7.87-16.5,17.11-24.68,25.72-4.55,4.79-9.33,9.37-13.78,14.26-2.09,2.3-4.52,4.43-4.51,7.94A29.32,29.32,0,0,1,143,247.95Z"/><path class="cls-184" d="M190,179c-5.92,2.72-9.5,8.09-13.84,12.52-7.76,7.9-14.79,16.52-22.66,24.3-6,5.93-10.9,12.89-17.52,18.21a7.26,7.26,0,0,1-2-4c-.17-2.05,1-3.11,2.49-4.44,10.38-9.13,19-19.94,28.63-29.84,1-1.07,1.87-2.36,3-3.33C176,185.56,181.95,176.75,190,170Q190,174.5,190,179Z"/><path class="cls-196" d="M122,206.13a5.63,5.63,0,0,1,1.82-4.44c5.76-6,11.41-12.07,17.14-18.09q20.27-21.31,40.55-42.62c2-2.15,3.71-4.66,5.55-7,1.13.72,1,1.86,1,3q.45.53.93,1l0,1c-12.52,13.11-24.87,26.38-37.23,39.63-7.48,8-15.5,15.55-22.46,24.07-1.75,2.14-3.47,4.52-6.35,5.42A2.09,2.09,0,0,1,122,206.13Z"/><path class="cls-197" d="M122.94,208.13c3.12-3.64,6.08-7.42,9.37-10.89,9-9.51,18.24-18.82,27.25-28.34,8.42-8.9,16.66-18,25-26.94,1.21-1.3,2.28-2.95,4.4-3a8.82,8.82,0,0,1,0,1,5.37,5.37,0,0,1-1.85,4.41c-6.34,6.58-12.6,13.24-18.9,19.86Q148.15,185.36,128,206.46c-1.25,1.31-2.72,2.42-4.09,3.62l0,0q-.36-.53-.69-1.08A.89.89,0,0,1,122.94,208.13Z"/><path class="cls-198" d="M156.9,146.27c-7.33-4.5-15.71-6-23.79-8.31a3,3,0,0,0-2.28-.42,3.17,3.17,0,0,1-1.2,0c-1.17-.32-2.38-.5-3.55-.83-1-.33-1.95-.67-2.93-1l-1.82-.55c-.64-.15-1.27-.33-1.91-.5-3.92-1.1-6.6.45-8.64,3.79-2.64,4.34-5.86,8.29-8.71,12.48a28.91,28.91,0,0,0-1.93,2.43,10,10,0,0,1-.66.95c-.22.3-.47.58-.72.86a10.25,10.25,0,0,0-.94,1.34,7.55,7.55,0,0,1-.57,1c-.34.47-.71.91-1.09,1.35s-.73,1-1.07,1.52c-3.83,6.16-8.6,11.62-12.73,17.56A3.39,3.39,0,0,1,80,179.52a2.16,2.16,0,0,1-1.29-.53c-1-3.47,1.56-5.6,3.25-7.87,6.82-9.15,13.43-18.44,20-27.78,2.68-3.4,5-7.06,7.48-10.59a8.69,8.69,0,0,1,4.58-3.68,14,14,0,0,1,3.67-.3,11.61,11.61,0,0,1,2.14.23c1.34.3,2.63.77,3.93,1.19s2.79,1,4.21,1.47c.58.16,1.15.37,1.71.59s1.07.41,1.62.57l1.65.31a6.48,6.48,0,0,1,1.07.31,17.08,17.08,0,0,0,2.1.7,8.22,8.22,0,0,1,1.06.34c.52.19,1,.38,1.57.54a8.93,8.93,0,0,1,1,.34l.5.21a16.88,16.88,0,0,0,2,.7c.69.21,1.36.46,2,.65a12.5,12.5,0,0,1,1.54.48c.5.19,1,.38,1.5.54a13.75,13.75,0,0,1,1.51.47,13.87,13.87,0,0,0,1.48.49l1.57.25a5.39,5.39,0,0,1,1,.31c.5.22,1,.47,1.48.71a5.88,5.88,0,0,1,1,.56,3.52,3.52,0,0,1,.75.82l.24.5a3.42,3.42,0,0,0,.54,1l0,0a2.47,2.47,0,0,1,.52,2A1.56,1.56,0,0,1,156.9,146.27Z"/><path class="cls-95" d="M130,137l1,.19q.53.27.35.55c-.11.19-.23.28-.35.28q-21.31,31.66-42.6,63.33c-1,1.53-1.91,3.11-3.76,3.78-1.22-.25-1.44-1.2-1.56-2.22,1.29-5.33,5.1-9.22,8-13.55,4.08-6,7.83-12.3,12.65-17.8a9.25,9.25,0,0,0,2.27-2.29c.22-.37.47-.71.73-1.05q.75-1,1.43-2.15A9.61,9.61,0,0,1,109,165c3.69-4.54,6.64-9.59,9.88-14.44a11.43,11.43,0,0,1,.72-1.09c.5-.69,1-1.37,1.44-2.09a11.15,11.15,0,0,1,.69-1c.48-.66.94-1.32,1.37-2a10.41,10.41,0,0,1,.67-1c.47-.65.92-1.3,1.34-2a10.05,10.05,0,0,1,.66-1c.47-.65.93-1.3,1.35-2a5.79,5.79,0,0,1,.76-1,3.7,3.7,0,0,1,1.06-.63A1.09,1.09,0,0,1,130,137Z"/><path class="cls-26" d="M93.87,225,75.18,243c-1.6-2.81-.06-5.8-.89-8.87,4.67-4,8.31-8.73,12.37-13.08,1.1-1.17,2.26-2.53,4.23-2.07a.4.4,0,0,1,.22.57,2.59,2.59,0,0,0,.75,1.39.49.49,0,0,1,.25.64,2.72,2.72,0,0,0,.75,1.36Z"/><path class="cls-199" d="M83.86,203.36l.79,1.75L85,207a6.86,6.86,0,0,1-3.12,4.33c-4.43,3.26-6.81,7.69-8,12.91-1.26-6.63-.88-13.33-1-20a1.65,1.65,0,0,1-.16-1.33c1.69-3,3.93-5.18,7.55-5.5a2.59,2.59,0,0,1,1.16.62,6.31,6.31,0,0,1,.74,1.05l.28.56a7.46,7.46,0,0,1,.4,1.13,5.87,5.87,0,0,0,.47,1.63A3.07,3.07,0,0,1,83.86,203.36Z"/><path class="cls-47" d="M90.9,219c-6.08,4.33-9.25,11.54-15.72,15.65,0,2.83,0,5.6,0,8.37l-.29,2.29C73.68,239.26,74,233.12,74,227c2.57-4.24,6.23-7.51,9.75-10.88,1.42-1.36,3-2.68,5.15-1.11a.37.37,0,0,1,.22.54,2.27,2.27,0,0,0,.78,1.45Z"/><path class="cls-52" d="M88.92,215c-5.4.58-7.3,5.66-10.85,8.59-1.35,1.11-2.25,2.79-4.05,3.4l-.14-2.75c0-2.6,0-5.2,0-7.77C78.5,213.93,81,209.68,85,207h0c.58.54.42,1.44,1,2A16.52,16.52,0,0,1,88.92,215Z"/><path class="cls-95" d="M131,138q0-.42,0-.83a2.13,2.13,0,0,1,2.11.79Z"/><path class="cls-199" d="M86,209a2.06,2.06,0,0,1-1-2A2.15,2.15,0,0,1,86,209Z"/><path class="cls-184" d="M136,234a2,2,0,0,1,1,2A2.14,2.14,0,0,1,136,234Z"/><path class="cls-22" d="M139,240a2,2,0,0,1,1,2A2.14,2.14,0,0,1,139,240Z"/><path class="cls-200" d="M156.9,146.27,157,145c.35-.43.68-.39,1,.07l-.8,1.93A.56.56,0,0,1,156.9,146.27Z"/><path class="cls-196" d="M123.25,209l.69,1.08Z"/><path class="cls-52" d="M89.92,217l-.78-1.45Z"/><path class="cls-47" d="M91.88,221l-.75-1.39Z"/><path class="cls-47" d="M92.87,223l-.75-1.36Z"/><path class="cls-26" d="M94.84,227l-.73-1.31Z"/><path class="cls-29" d="M144,137.9,142,137c-.54-.59-1.44-.39-2-.94v0a5.61,5.61,0,0,0-1.13-.82,2.63,2.63,0,0,1-.44-1.32c2.29-4.82,6.34-8.27,9.81-12.11s6.66-7.7,11.07-10.4A2.52,2.52,0,0,1,162,112l2,1.07q.5.46,1,.89l0,0c.76,1.88-.31,3.32-1.47,4.4-6.28,5.86-11.09,13.09-17.71,18.61A20.68,20.68,0,0,0,144,137.9Z"/><path class="cls-201" d="M154.89,141h-.46l-.46,0a6.87,6.87,0,0,0-1.08-1h-.46l-.46,0a3.17,3.17,0,0,1-.68-1.25c0-.49-.13-1.11.17-1.44,6.4-6.91,11.65-14.93,19.61-20.33,2.08.32,3.48,1.73,4.92,3.08-2.25,4.9-6.1,8.51-9.77,12.28-3.12,3.2-6.16,6.48-9.23,9.73a.73.73,0,0,1-1,0l.05,0A6.37,6.37,0,0,0,154.89,141Z"/><path class="cls-40" d="M171.07,116.94q-7.93,8.67-15.86,17.36c-1.29,1.42-3.19,2.44-3.22,4.72-.49.61-1.37.32-1.9.84l-1.1-.91a1.38,1.38,0,0,0-1.93-.06L146,138c-.34-.32-.95-.38-1-1,5.22-5.71,10.39-11.47,15.68-17.11,1.7-1.82,3.43-3.57,4.38-5.92A6.17,6.17,0,0,1,170,116a8.21,8.21,0,0,0,1,1Z"/><path class="cls-202" d="M162,112l-2.93-.07-.66,0a5.06,5.06,0,0,1-1.31,0c-2.14-.51-4.19-1.3-6.29-1.94-1.85-.77-3.93-1-5.46-2.51l-.3-.61c-1.42-3.92.93-5.64,4-6.92,2.56-1.46,4.76-.65,6.82,1.09,3.09,1.93,6.6,2.4,10.09,2.94l1.05,1C163.59,106,163.72,109.69,162,112Z"/><path class="cls-40" d="M165,114l-1-.89Z"/><path class="cls-201" d="M171,117l-1-1Z"/><path class="cls-203" d="M270,78c-2.31,7.41-7.33,13.3-11.28,19.77q-24.08,39.45-48.51,78.69c-3.23,5.2-6.07,10.65-9.74,14.89-1.25,3.49.73,6.86-1.46,9.66-1.79-1.7-1.23-4-1.49-6.06,0-7.92-.45-15.87,1.39-23.67C216.42,144.16,233,116.47,250,89h0c.34-.33.7-.63,1-1h1c.32-.34.69-.64,1-1h0c.33-.33.69-.63,1-1l1,0C260,83.31,264.43,79.59,270,78Z"/><path class="cls-204" d="M250,89c.24,2.32-.94,4.22-2.05,6q-21.91,35.5-44,70.91c-1,1.6-1.62,3.75-4,4.07-2.45-3.17-1.33-6.85-1.43-10.34-.06-1.94,0-3.9,0-5.84a15.91,15.91,0,0,1,.45-5c10.84-15.93,20-32.93,31-48.8C236.61,96.24,242.89,91.86,250,89Z"/><path class="cls-205" d="M230,100c-2.1,7.11-7.07,12.62-10.64,18.91-4.81,8.45-10.18,16.59-15.25,24.9A11.5,11.5,0,0,1,200,148c-2.93-5.54-1.23-10.79,1-16,2.28-6.11,4.32-12.38,8.39-17.59A38.91,38.91,0,0,1,224,103c.31-.36.71-.62,1-1h1Z"/><path class="cls-204" d="M251,88l-1,1Z"/><path class="cls-204" d="M253,87l-1,1Z"/><path class="cls-204" d="M254,86l-1,1Z"/><path class="cls-32" d="M61.06,111a31.59,31.59,0,0,1-8.24-2.88c7.81-7.38,15-15.4,22.08-23.44,1.49-.67,2.89-.11,4.3.32a7.29,7.29,0,0,1,3.15,1.9A3.46,3.46,0,0,1,81.84,91c-5.79,6.61-11.43,13.38-18.06,19.2A2.52,2.52,0,0,1,61.06,111Z"/><path class="cls-206" d="M40,104c3.05-2.89,6.24-5.66,9.12-8.71C53.56,90.62,57.73,85.78,62,81c1.19-1.13,2.44-.41,3.69-.15a9,9,0,0,1,1.25.45,6.48,6.48,0,0,1,2.23,1.52,2.62,2.62,0,0,1,.18,1.37C64,92.13,57.27,98.86,50.43,105.47a3,3,0,0,1-3.65.63A16.26,16.26,0,0,1,40,104Z"/><path class="cls-72" d="M61.06,111c7.6-6,13.33-13.77,20-20.61A4.15,4.15,0,0,0,82,87.1c1.1-.81,2.26-.31,3.4-.17a5.71,5.71,0,0,1,3.1,1.69c1.69,2.15.06,3.69-1,5.33-3.57,5.53-8.73,9.57-13.39,14-2.72,2.61-4.06,6.64-8.08,7.9l-1-.84c-.43-.44-1-.66-1.46-1.12A9.89,9.89,0,0,1,62,112.05Z"/><path class="cls-207" d="M46.78,106.1c3.36-.43,5.12-3.18,6.88-5.41C58.5,94.57,65,89.9,69,83.08c1-1.08,2.23-.6,3.4-.3s2.28.91,2.62,2.28c-2.62,5.22-6.93,9.16-10.7,13.44-2.59,2.94-5.9,5.32-8.34,8.47-.87,1.12-2,.95-3.14,1.11A13,13,0,0,1,46.78,106.1Z"/><path class="cls-208" d="M62,112.05c.92.33,1.79.71,1.73,1.93q-.34.55-.77.06a2.38,2.38,0,0,1-2.25-.85Z"/><path class="cls-2" d="M66,81.94,62,81l-2-1c-2.41-3.57-1.95-4.7,2.78-6.82,2.41-.48,4.61.3,6.79,1.18a1.66,1.66,0,0,1,.82,1.18C69.63,78.13,67.79,80,66,81.94Z"/><path class="cls-209" d="M63,74c-3.26.86-4.48,2.75-3,6l-7-2.05L52,77c.58-2.28,1.5-4.28,4-5l6,1C62.91,72.74,63.23,73.1,63,74Z"/><path class="cls-63" d="M199,236q0,8.5,0,17v3q-.49.68-1,0C198.6,249.35,196.75,242.57,199,236Z"/><path class="cls-6" d="M198,256h1c-.14,1.38.46,2.94-1,4Q198,258,198,256Z"/><path class="cls-210" d="M199,195q0,3,0,6,0,5.5,0,11,0,1,0,2c-2.09,4.55-.55,9.36-1,14-.16,1.8,0,3.62,0,5.51-2.07,2.73-4,5.61-7,7.46q0-19,0-38C193.4,200.07,194.06,195.4,199,195Z"/><path class="cls-211" d="M199,195c-3.62,1.71-4.37,6.29-8,8q0-18.5,0-37c2.3-4.37,6.14-7.82,7.69-12.66.14-.44.78-.51,1.29-.34q0,8.5,0,17A197.71,197.71,0,0,0,199,195Z"/><path class="cls-11" d="M200,153c-1.77,5.18-4.37,9.79-9,13,0-7.44,0-14.87,0-22.44,4.22-3.19,5.36-8.83,10-11.57.06,5.36-1.64,10.61-1,16Q200,150.5,200,153Z"/><path class="cls-197" d="M188.94,138l-.93-1Z"/><path class="cls-118" d="M225,102l-1,1Z"/><path class="cls-182" d="M231,86l1-1Z"/><path class="cls-212" d="M116,98.06c1.34,2,.84,3.51-.76,5.26-10.52,11.49-21,23-32.08,34-4,3.94-6.54,9.29-12,11.65L71,140a21.13,21.13,0,0,1,4.27-5.48c10.73-10.7,21-21.81,31.17-33.06a23.26,23.26,0,0,0,3.6-5.35l-.11-.28,1.94.21,1.08.83Z"/><path class="cls-131" d="M110.06,96.11c1.19,1.75.44,3-.91,4.28-1.67,1.59-3,3.57-4.59,5.15C93.21,116.85,83.21,129.49,71,140l-.13-7.7a6.67,6.67,0,0,1-.05-4.5C81.86,116.91,92.18,105.23,103,94l1-.13a3.48,3.48,0,0,0,1,.11c.53.62,1.42.43,2,.9l0,.18c.58.53,1.48.32,2,.9Z"/><path class="cls-74" d="M103,94c-.09,2.85-2.54,4.29-4.13,5.95-9,9.39-17.22,19.54-27,28.13-1.14,1.17-.69,2.75-.94,4.18-1.22-3.64-.33-7.46-1-11.15.92-5,5.28-7.6,8.14-11.21s6.42-6.61,9.69-9.85a29.65,29.65,0,0,0,6.42-9.25c1.65-.89,2.74.12,3.83,1.12l3,1.17q.52.45,1.08.85A3,3,0,0,1,103,94Z"/><path class="cls-33" d="M94,91.06c1.29,1.71.36,2.84-.74,4.31-5.94,8-14.24,13.9-20.12,22-1,1.33-2.13,2.52-3.19,3.78L66,115.9c5.74-9,15.18-14.59,21.1-23.42.75-1.11,1.89-1.91.88-3.39,1.18-1.24,2.47-.46,3.73-.21a6.15,6.15,0,0,1,1.23.54,3.14,3.14,0,0,1,.9,1Z"/><path class="cls-213" d="M102.91,144c-6.55,9.1-13.14,18.18-19.64,27.31-1.7,2.39-3.92,4.53-4.34,7.67a3.3,3.3,0,0,1-.85,1.07c-2,.78-3.33,3.42-6,2l-.2-8.91.28-.17c7.54-9.7,16.85-17.79,24.9-27C98.44,144.27,100.15,142.08,102.91,144Z"/><path class="cls-3" d="M72.06,182c2.36-.24,3.76-2.38,5.93-3a2.6,2.6,0,0,1,.69,2.07,26.77,26.77,0,0,0-.44,5.22,7.69,7.69,0,0,1-.7,3c-2.17,2.59-3.57,5.44-3.25,9A9,9,0,0,1,73.17,203l-.28,1.24C71.53,196.86,72,189.42,72.06,182Z"/><path class="cls-214" d="M62.91,114a2.25,2.25,0,0,1,.77-.06L65,115.06Z"/><path class="cls-215" d="M254.11,171.32c-3.86-10.53-4.27-22-9-32.3-.28-2.12.54-4,1.05-6,2.15-1.08,3.4.35,3.73,2,2.08,10.33,6.68,20.26,5.19,31.18C255.07,167.93,255.2,169.73,254.11,171.32Z"/><path class="cls-216" d="M255.05,166.14c-.71-10.7-4.5-20.78-6.29-31.27-.22-1.29-1.37-1.77-2.62-1.87l1-6c.64-.88,0-2.13.82-3h0c2.31,2.77,2.42,6.29,3.37,9.55,2,6.83,1.84,14.28,5.84,20.54l-.39,2.93c-.61,1-.12,2.25-.73,3.25C256.08,162.29,256.16,164.32,255.05,166.14Z"/><path class="cls-166" d="M248,124c0,1.06.19,2.17-.82,3A3.18,3.18,0,0,1,248,124Z"/><path class="cls-215" d="M244.86,140.53a2.41,2.41,0,0,1-.66,2.44A2.6,2.6,0,0,1,244.86,140.53Z"/><path class="cls-217" d="M253,115v1.31l-.58.18L252,116Z"/><path class="cls-167" d="M251.82,117.16l-.42-.66L252,116l0,0q.39.3.29.62T252,117Z"/><path class="cls-163" d="M103,49,53,49c3.92-4.54,9.61-5.34,14.85-5.7,8.53-.58,17.23-1.15,25.7.88C97,45,100.67,45.77,103,49Z"/><path class="cls-72" d="M69,37.86a3.9,3.9,0,0,0,.07-.7l2.95,0A3.17,3.17,0,0,1,69,37.86Z"/><path class="cls-70" d="M86,36.88l1,1A3.29,3.29,0,0,1,84,37.18Z"/><path class="cls-69" d="M50.07,47.09l0-1.15a.51.51,0,0,1,.83,0Z"/><path class="cls-67" d="M102,42a3.77,3.77,0,0,0,0,1l-1.17-.79Z"/><path class="cls-75" d="M54,42.89A4.08,4.08,0,0,0,54,42l1,.18Z"/><path class="cls-67" d="M98.89,41.14l1.1.7Z"/><path class="cls-157" d="M50.85,45.92l-.42,0H50q0-.47,0-.93h1.05A2,2,0,0,1,50.85,45.92Z"/><path class="cls-46" d="M95,58.13,98,57c2,7.68.67,15.49.9,23.24C99,82.06,97.66,82.87,96,83c-1.81,1.11-3.06.52-3.93-1.27-.55-7.65-1.88-15.34.89-22.87l0,0C93.53,58.49,94.37,58.61,95,58.13Z"/><path class="cls-185" d="M93,82.07c.75,1.09,1.9.91,3,.95q.05.48.08,1a38.56,38.56,0,0,1-4,6l-4-.89-3-1.16c-1.22-4.36,1.37-6,4.94-7A3.79,3.79,0,0,1,93,82.07Z"/><path class="cls-218" d="M92,90c0-2.89,1.23-5,4-6l2,.09c.55.57,1.47.33,2,.92,1.1,0,2.26-.12,3,1-3.4.53-4.37,3.11-5,6l-4-.88,0-.17c-.37-.29-.73-.58-1.11-.86h-.45Z"/><path class="cls-185" d="M100,85a2.08,2.08,0,0,1-2-.92A2,2,0,0,1,100,85Z"/><path class="cls-131" d="M102.11,94,101,93.11Z"/><path class="cls-212" d="M109,96a2.16,2.16,0,0,1-2-.9A2,2,0,0,1,109,96Z"/><path class="cls-20" d="M107,94.91a2,2,0,0,1-2-.9A2.17,2.17,0,0,1,107,94.91Z"/><path class="cls-112" d="M113,96.87,111.89,96Z"/><path class="cls-219" d="M84,60.17l3-.12a29.29,29.29,0,0,1,.06,20.1,4.49,4.49,0,0,1-3.4.79c-2.64-.77-5.53-.83-7.77-2.74a2,2,0,0,1-.1-1.59c1.89-3,1.88-6.29,1.86-9.64,0-2-.21-4,.9-5.83C80.17,59.8,82.27,61.09,84,60.17Z"/><path class="cls-72" d="M84,60.17c-1.46,1.41-3.3.62-5,.85-1.53,1.51-3.78,1.11-5.58,2C71,66.71,74.17,72,70,75l-7-1-1-1c.56-4.67-1.21-9.52,1.1-14C70,60.45,77,59.89,84,60.17Z"/><path class="cls-70" d="M86,80c2.19-4.71.52-9.69,1-14.52.18-1.8,0-3.63,0-5.44l5.93-1.17q0,11.59,0,23.19L90,82C89,80.58,86.12,83.1,86,80Z"/><path class="cls-70" d="M95,58.13a2,2,0,0,1-2.08.8A2.05,2.05,0,0,1,95,58.13Z"/><path class="cls-29" d="M155.91,101,149.09,100Q149,99.5,149,99c1.67-1.45,1-3.41,1-5.16.06-10.63,0-21.26,0-31.81,2.73-1.81,5.45-.77,8-1,0,11.75,0,23.49-.05,35.24C158,98,158.93,100.47,155.91,101Z"/><path class="cls-66" d="M102.91,144c-5.34.78-7.78,5.28-10.72,8.84C86.5,159.72,79.28,165.14,74,172.35c-.3.41-1.2.39-1.83.57q0-4.45,0-8.9c4.37-1.45,7-5.17,9.56-8.43,6.23-7.83,13.83-14.29,20.34-21.86,8.11-9.43,17.14-18.07,25.81-27,1.32-1.37,2.74-2.58,1.18-4.63l1.88,0,1.1.81,4.07,1.32q.52.39,1,.8v0c1.44,2.67-.82,4-2.21,5.36a170.36,170.36,0,0,0-15.3,16.79c-1.49,1.92-3.43,2.32-5.49,2.8C108.89,133.45,107.08,139.65,102.91,144Z"/><path class="cls-220" d="M114,129.88c2.34-.94,3.86-2.73,5.36-4.7,4.38-5.77,9.65-10.73,14.75-15.85,1.25-1.26,2.86-2.32,2.9-4.4l8,1.94-.13.24c.55,1.34-.25,2.31-1.07,3.07-7.07,6.52-12.66,14.45-19.85,20.85a6.36,6.36,0,0,1-4-1.1,1.38,1.38,0,0,0-1.92-.06Z"/><path class="cls-220" d="M137.05,105l-1-.8Z"/><path class="cls-82" d="M132,102.85l-1.1-.81Z"/><path class="cls-166" d="M256.1,160.28c-.1-1.16-.34-2.35.73-3.25A4,4,0,0,1,256.1,160.28Z"/><path class="cls-92" d="M250,121l1-1.2Z"/><path class="cls-168" d="M252,117a5.29,5.29,0,0,1-.06-1l1,.27v.1Z"/><path class="cls-221" d="M158,145q-.49,0-1-.06l-.07-2A2,2,0,0,1,158,145Z"/><path class="cls-222" d="M156,142l1,0q0,.51,0,1Z"/><path class="cls-3" d="M124,131c2.47-5.52,7.6-8.86,11.14-13.52,2.86-3.77,6.49-7,9.78-10.4l6.08,2c1.72,2.19.23,3.82-1.17,5.15-6.24,5.92-11.65,12.61-17.69,18.7q-.57.41-1.11.86l-1-.84a1.46,1.46,0,0,0-1.93-.11C126.78,132.08,125,132.37,124,131Z"/><path class="cls-223" d="M83.86,203.36A4.26,4.26,0,0,1,83,203a2,2,0,0,1-.5-1.49,2.64,2.64,0,0,0-.39-1.54l-.39.09a1.82,1.82,0,0,1,.11-1.4c12.38-19.35,25.67-38.09,38.41-57.19,1.55-2.33,2.12-5.9,6.12-5.63,1.31.09,2.64.14,3.66,1.16l-1.09.18a5.45,5.45,0,0,0-1,.84c-.76.93-1.27,2-2,3h0c-.76.94-1.27,2-2,3h0c-.76.94-1.27,2-2,3h0c-.76.94-1.27,2-2,3h0c-3.94,5.15-7.14,10.8-11,16-.76.93-1.27,2-2,3h0c-.76.94-1.28,2-2,3C97.37,182.06,89.78,192.14,83.86,203.36Z"/><path class="cls-23" d="M131,133a197.38,197.38,0,0,1,17-18.58c1.54-1.47,3.34-2.84,3-5.38l7,2,1,.85,0,0q-8.57,9.31-17.14,18.63c-1.21,1.32-2.93,2.3-2.93,4.42a1.49,1.49,0,0,1-2.07,0,5.63,5.63,0,0,1-1-.08c-.57-.6-1.49-.38-2.08-.91a3.51,3.51,0,0,1-.91-.08C132.46,133.33,131.52,133.65,131,133Z"/><path class="cls-224" d="M126.38,135.83a7.29,7.29,0,0,0-3.27,2.94q-19,28.45-37.91,56.9c-.94,1.41-1.82,2.76-3.44,3.43l-.43.19-.32-.35a1,1,0,0,0-.29-.92,2.88,2.88,0,0,1-.09-1.42c5.5-9.06,11.51-17.8,17.36-26.63,6.87-10.36,14.31-20.33,20.87-30.91.95-1.53,1.8-3.2,3.54-4.08l.67-.25C124.23,135,125.49,134.83,126.38,135.83Z"/><path class="cls-225" d="M120,133.88l2,.36a.9.9,0,0,1-.22,1.22c-5.64,6.16-9.5,13.56-14.19,20.38-8.08,11.75-16.22,23.46-24,35.4-1,1.49-1.7,3.29-3.57,4-1.28,0-1.63-.91-1.8-2a5.08,5.08,0,0,1,.18-1.47c8.38-13.79,18-26.78,26.91-40.2,4-6.08,7.64-12.48,12.63-17.89A2.32,2.32,0,0,1,120,133.88Z"/><path class="cls-226" d="M76.94,189l.14-2.8c.68-1.64.41-3.54,1.37-5.11A3.23,3.23,0,0,1,80,179l15.13-20a.92.92,0,0,1,1.11.5c-.3,3.87-3.34,6.26-5.08,9.36-1,1.85-2.44,3.5-3.15,5.54-2.43,5.61-7,9.92-9.54,15.45a1.52,1.52,0,0,1-1.33.36.77.77,0,0,1-.38-.77Q76.81,189,76.94,189Z"/><path class="cls-227" d="M120,133.88l-2,.24a15.07,15.07,0,0,1-1.68,1.16c-5.79,5.42-8.94,12.75-13.72,18.91-1.1,1.42-1.78,3.24-3.65,4a1.25,1.25,0,0,1-1.44-1,3,3,0,0,1,.19-1.21l.68-1,.5-1.08,0,.06a13.32,13.32,0,0,0,2.1-3c3.12-4.66,6.31-9.28,9.34-14C112.75,133.13,115.89,132,120,133.88Z"/><path class="cls-228" d="M101,150.92a2.76,2.76,0,0,1-2.1,3A4.78,4.78,0,0,1,101,150.92Z"/><path class="cls-229" d="M80,179l-1,2a.66.66,0,0,1-1,0l0-2a6.73,6.73,0,0,1,.94,0Z"/><path class="cls-230" d="M136.93,135l2.07,0a.56.56,0,0,1,.22.62q-.12.31-.23.31A1.92,1.92,0,0,1,136.93,135Z"/><path class="cls-66" d="M118.05,129.88c.67-.93,1.3-.87,1.92.06Z"/><path class="cls-231" d="M147.07,138.89c.67-1,1.31-.83,1.93.06Z"/><path class="cls-232" d="M150.09,139.86A1.91,1.91,0,0,1,152,139q0,.47,0,.94Z"/><path class="cls-233" d="M128.07,132.84c.7-.94,1.33-.77,1.93.11Z"/><path class="cls-234" d="M140,136a2,2,0,0,1,2,.94A1.89,1.89,0,0,1,140,136Z"/><path class="cls-235" d="M131,133a1.91,1.91,0,0,1,2,.92l-1.94-.17C131,133.53,131,133.28,131,133Z"/><path class="cls-236" d="M145,137l1,1-2-.08Z"/><path class="cls-237" d="M133.87,134a2.06,2.06,0,0,1,2.08.91A2,2,0,0,1,133.87,134Z"/><path class="cls-226" d="M98,156v2l-.46.23a1.34,1.34,0,0,1-.83-.56,4.81,4.81,0,0,1,.15-1,.66.66,0,0,1,.36-.64Q97.63,155.42,98,156Z"/><path class="cls-23" d="M139,135.93q0-.46,0-.93l1,1Z"/><path class="cls-228" d="M98,156l-.79,0,.78-1,.39.48L98,156Z"/><path class="cls-228" d="M96.86,156.65,97,158l-.35.35h-.5l-.24-.44Z"/><path class="cls-228" d="M96,159h-.92l.83-1.11.19.18.26.49Z"/><path class="cls-228" d="M98.9,153.88,99,155a.68.68,0,0,1-.88.12L98,155Z"/><path class="cls-222" d="M154.89,141l1.12,1Z"/><path class="cls-238" d="M152.89,140l1.08,1Z"/><path class="cls-239" d="M122,135q0-.37,0-.75l1.08.49a.48.48,0,0,1-.17.46A.57.57,0,0,1,122,135Z"/><path class="cls-95" d="M109,166c3-5.81,6.17-11.46,11-16C117,155.81,113.83,161.46,109,166Z"/><path class="cls-95" d="M124,144a3,3,0,0,1,2-3A3,3,0,0,1,124,144Z"/><path class="cls-95" d="M120,150a3,3,0,0,1,2-3A3,3,0,0,1,120,150Z"/><path class="cls-95" d="M107,169a3,3,0,0,1,2-3A3,3,0,0,1,107,169Z"/><path class="cls-95" d="M126,141a3,3,0,0,1,2-3A3,3,0,0,1,126,141Z"/><path class="cls-95" d="M105,172a3,3,0,0,1,2-3A3,3,0,0,1,105,172Z"/><path class="cls-95" d="M122,147a3,3,0,0,1,2-3A3,3,0,0,1,122,147Z"/><path class="cls-95" d="M128,138l1-.84Z"/><path class="cls-240" d="M76.94,189a1.48,1.48,0,0,1,.1.89c.35.43.78.78,1.11,1.22a2.73,2.73,0,0,1,.38,1,6.11,6.11,0,0,0,.34,1l1,2a.9.9,0,0,1,.76.56,1.75,1.75,0,0,1,.29.92l-.06.48a4.7,4.7,0,0,1-.12.84c-3.38.35-5.07,3.27-7.56,5,0-3.4,0-6.8,0-10.14A9.93,9.93,0,0,1,76.94,189Z"/><path class="cls-240" d="M82.88,201.34,83,203a2,2,0,0,1-1-2C82.45,200.74,82.75,200.84,82.88,201.34Z"/><path class="cls-240" d="M81,198.94a2.47,2.47,0,0,0,.74.15,4.88,4.88,0,0,1,0,1Z"/><path class="cls-224" d="M82.88,201.34A7.66,7.66,0,0,1,82,201l.11-1Z"/><path class="cls-29" d="M159,112l-1-.86Z"/><path class="cls-241" d="M86,80l4,2c-3.39.52-4.34,3.1-5,5.93l-3-.82L79,86c-2-3.93-.78-5.69,4-6Z"/><path class="cls-242" d="M83,80c-3.09.82-5,2.4-4,6l-4-.91-3-1.14c-.82-4.42-.08-5.52,4-5.94A15.53,15.53,0,0,1,83,80Z"/><path class="cls-243" d="M76,78c-2.79,1-4,3.09-4,5.94l-3-.84L69,83c-.55-.59-1.48-.35-2-.94a5.26,5.26,0,0,1-1-.07A7.65,7.65,0,0,1,70,76a1.35,1.35,0,0,1,1.12-.47c.85.11,1.69.27,2.55.38A3.19,3.19,0,0,1,76,77Q76,77.5,76,78Z"/><path class="cls-2" d="M67,82A2.11,2.11,0,0,1,69,83,2,2,0,0,1,67,82Z"/><path class="cls-33" d="M76,77l-3,0c-.54-.61-1.47-.37-2-1l-1,0q0-.48,0-1c1.71-4.24.56-8.79,1.3-13.2,2.49-1.54,5.18-.55,7.72-.82,0,3.66,0,7.32,0,11C78.93,74.18,78.8,76.43,76,77Z"/><path class="cls-185" d="M92.9,90l1.11.86Z"/><path class="cls-244" d="M77.95,181l1,0-1.91,5.22C77.21,184.46,76.33,182.53,77.95,181Z"/><path class="cls-245" d="M80.14,196a1.06,1.06,0,0,1-.28-.8q18.6-27.89,37.21-55.78c1.25-1.87,2.07-4.32,4.92-4.45a4.26,4.26,0,0,1,.92.21Q106,160.58,89,186c-2.58,3.83-5.42,7.49-8.14,11.23h0C80.87,196.63,80.36,196.42,80.14,196Z"/><path class="cls-239" d="M116,134l2,.07c-5.34,8.12-10.6,16.3-16,24.36C94.4,169.7,86.68,180.83,79,192c-.31.39-.59.34-.83-.07l-.34.1a1.13,1.13,0,0,1,.07-1.31,272.14,272.14,0,0,1,16.95-26.17C102.22,154.58,108.71,144,116,134Z"/><path class="cls-246" d="M78.19,191.93A7.16,7.16,0,0,0,79,192l-.15,1.2Z"/><path class="cls-246" d="M116,134c-6.18,11.36-14,21.65-21.09,32.42-5.45,8.3-11.24,16.37-16.88,24.54q-.44-.16-.4-.47t.17-.34C78,185.45,82,182.85,84,179.11c.92-1.75,2-3.41,3-5.1,4-5.13,7.08-10.84,11-16h0c6.05-6.19,9.43-14.28,14.89-20.9C113.84,135.95,114.56,134.63,116,134Z"/><path class="cls-227" d="M98,158c-3,5.81-6.18,11.46-11,16,2-5.58,6.57-9.65,9-15h0a10.71,10.71,0,0,1,1-1h1Z"/><path class="cls-3" d="M77.82,190.2a1.28,1.28,0,0,0,.23.8l-.2,1A2.27,2.27,0,0,1,77,189.9Z"/><path class="cls-226" d="M98.12,155.12A4.63,4.63,0,0,1,99,155l-1,1A3.84,3.84,0,0,1,98.12,155.12Z"/><path class="cls-226" d="M97,158l-1,1a5.42,5.42,0,0,1,.08-.91A5.92,5.92,0,0,1,97,158Z"/><path class="cls-225" d="M80.14,196l.71,1.16Z"/><path class="cls-2" d="M71,76a2.08,2.08,0,0,1,2,1A2.06,2.06,0,0,1,71,76Z"/></g></g></svg>
