<?xml version="1.0"?>
<!DOCTYPE svg PUBLIC "-//W3C//DTD SVG 20010904//EN" "http://www.w3.org/TR/2001/REC-SVG-20010904/DTD/svg10.dtd">
<svg xmlns="http://www.w3.org/2000/svg" version="1.0" width="60" height="40" viewBox="0 0 4440 4410" preserveAspectRatio="xMidYMid meet">
<g id="layer101" fill="#f96431" stroke="none">
 <path d="M1963 4283 l-23 -4 0 -347 -1 -347 -344 -450 c-190 -247 -345 -450 -345 -452 0 -2 62 -34 138 -72 75 -38 173 -92 217 -120 61 -38 83 -47 91 -38 7 7 118 152 249 322 130 171 240 311 244 313 4 1 119 -144 256 -322 141 -185 252 -323 258 -319 121 75 235 138 320 178 70 33 105 55 102 63 -3 7 -158 213 -345 457 l-340 444 0 344 0 344 -37 7 c-42 6 -405 6 -440 -1z"/>
 <path d="M221 2814 c-33 -129 -43 -173 -56 -261 -8 -54 -15 -119 -15 -145 l0 -48 49 0 c68 0 267 -27 376 -51 105 -23 295 -80 295 -88 -1 -11 -156 -121 -252 -179 -103 -62 -234 -125 -348 -167 -41 -15 -79 -31 -83 -35 -16 -14 49 -241 112 -392 l32 -77 87 31 c195 68 374 158 554 276 114 76 282 208 342 270 l39 41 59 -40 c144 -98 398 -324 381 -339 -5 -3 -53 -17 -108 -30 -288 -66 -607 -223 -835 -410 -88 -72 -240 -222 -240 -237 0 -16 222 -238 292 -292 l58 -43 94 89 c151 143 328 260 505 333 61 25 72 27 66 12 -55 -131 -131 -402 -160 -566 -26 -149 -30 -139 83 -175 114 -37 304 -81 348 -81 l30 0 17 113 c33 218 102 445 194 637 l55 115 50 -104 c92 -194 172 -463 199 -666 l13 -95 29 0 c74 0 437 95 451 118 17 28 -75 420 -143 610 l-39 111 48 -19 c173 -68 375 -199 518 -335 66 -63 106 -94 114 -89 69 40 338 302 338 330 0 17 -196 203 -288 273 -115 87 -226 154 -367 222 -125 61 -343 137 -455 159 -36 7 -69 16 -73 20 -12 11 174 184 291 271 158 117 136 114 235 26 246 -219 553 -401 849 -506 l87 -30 21 47 c49 108 130 370 130 418 0 6 -26 18 -57 28 -149 47 -369 162 -529 277 -119 86 -119 81 -16 112 196 60 367 93 540 104 l102 6 -6 51 c-19 171 -37 271 -70 384 l-15 52 -47 0 c-26 0 -96 -7 -156 -15 -507 -67 -965 -254 -1371 -560 -122 -92 -333 -280 -359 -320 l-17 -26 -112 106 c-321 306 -654 514 -1052 657 -213 77 -503 140 -711 154 l-92 7 -11 -39z"/>
 </g>

</svg>
