<?xml version="1.0"?>
<svg xmlns="http://www.w3.org/2000/svg" width="60" height="40" viewBox="0 0 176 121" fill="none">
<path d="M173.5 25.3999C163.9 3.29986 124.7 -1.30014 82.4001 13.1999C76.7001 10.4999 65.5001 2.69986 65.5001 2.69986C58.9001 -2.50014 51.0001 2.49986 51.0001 8.99986V27.4999C14.7001 48.4999 -6.19994 78.6999 3.00006 99.7999C13.6001 124.2 60.4001 127.3 107.5 106.8C154.6 86.1999 184.1 49.7999 173.5 25.3999ZM60.6001 20.6999C60.6001 16.1999 66.1001 12.7999 70.7001 16.3999L114.5 42.2999C119.8 44.7999 119.4 49.6999 114.6 52.1999L69.4001 78.2999C65.5001 80.5999 60.6001 77.7999 60.6001 73.2999V20.6999V20.6999ZM60.6001 114.1C48.7001 116.3 35.3001 114 30.8001 110.9C13.9001 99.1999 22.1001 83.0999 22.1001 83.0999C22.1001 83.0999 21.8001 97.5999 39.6001 103.8C67.6001 113.5 103.7 95.5999 104.5 96.9999C104.8 97.7999 80.6001 110.4 60.6001 114.1ZM110 85.4999C82.7001 103.5 50.7001 109.2 39.9001 94.5999C33.6001 86.0999 38.5001 71.2999 51.0001 57.1999V85.8999C51.0001 92.3999 58.1001 96.4999 63.7001 93.1999L128.9 55.0999C135.8 51.3999 136.3 44.2999 128.7 40.5999C128.7 40.5999 109.3 30.4999 102.5 25.8999C119.2 21.4999 134.5 22.2999 141.1 31.5999C149.5 43.4999 137.3 67.3999 110 85.4999ZM157.2 32.3999C157 33.5999 156.2 33.5999 155.7 32.4999C153.7 28.4999 143.9 18.1999 123.5 17.8999C114.4 17.6999 104.5 19.7999 96.6001 21.3999C95.1001 20.2999 93.5001 19.0999 91.8001 17.9999C95.6001 16.5999 100.7 14.8999 107.7 12.8999C121.1 9.09986 136 9.79986 141.5 11.8999C154.6 16.7999 158 27.1999 157.2 32.3999Z" fill="#292A6C"/>
</svg>
