<svg xmlns="http://www.w3.org/2000/svg" width="446" height="412" fill="#f02029"><path d="M197.4 396.6c-12.3.2-21.2-4.3-30.5-11.2-5.2-4.1 1.6-16.9-4.5-19.1-8.4-2.9-16.7 15.5-28 15.5 3.8-24.6 22.3-40.5 44.4-49.2 13.3-5 28.2-7 44.2-7V233c-15 1.2-28.5-.6-36.7-5.4-7.4-4.3-13-22.6-4.5-22.9 4.1 0 4 9.3 8.8 13.6 5.6 5 20.4 4.6 32.4 4.4V22.6c-55 0-76.8 16.1-83.1 20.8 15.9 4.5 31.7 5.2 48 .7-.5 3.7-4.9 9.8-7.2 12.3-13.6 14.7-34.7 12.8-68 15 19.3 9.9 44.4 9.2 61.4 7.5 1.5-.2 2 2.5.9 3.7-6.6 6.3-19.1 10.3-33.3 11.5 12.8 3.7 25.1 4 39 .6.7 6.7-7 11.6-15.9 10.6 6.5 14.6 16.7 22.3 26 28.3 7.7 4.9-6.4 7.2-4.2 15 1.5 2.3 3.3 12.3-.1 12.7-15.6-7.1-18.2-23.3-28.6-34.7-22-22-40.3-6.8-56.4-18.8-10.3-7.7-11.7-12.1-16.3-21.9-2.5 17.6 5.6 33.9 13.5 46.4 10 15.7 20 28.7 46.2 30.8 8 .7 9.5 5.1 17.5 12.4-17.9 2.6-40.1-.7-54.9-11.1-13-9.2-20.7-18.1-29.2-31.5-12.8-20.2-5.2-42.3-2.5-60.1-5.7-5.2-12.1-12.8-16.2-24.7 8.1 3.9 26.8 3.3 26.8 3.3s-24.8-12-29.8-19.1c20.6 7.4 67.4 18.8 84.2-8.2-8.8 3.7-15.5 5.3-34 3.2C73.8 23.5 54 16.1 26 1.5 14.4-2.7 2.5 2.1.2 14.9-.9 36.8 3.7 57.3 18.7 73.8c4.2 1 8 9.2 8.1 13-3.9 1.3-8.6-.8-13.9-6.5.4 26.8 26.5 28.1 26.5 28.1 4.8-10 6.9-15.6 18-20.8 0 0-3.1 19.9-3.4 28.8-1.1 30.9 28.4 54 28.4 54-4.8 2.2-14.1.1-18.6-5.1 1.9 10.6 3.1 15.8 15.1 20.6 5.1 2 13 2.6 17 2.6-4.5 11.7-13.7 15.9-25.9 12.1-1.9 9.2.8 18.3 8.4 21.8 7.9 3.5 20-2.8 28.4-7.7 7.1-4.1 22.5-12.5 28.4-4.9-9.7 9.1-33.8 18.7-42.8 25.8 2.3 14.6-9.7 17.6-12.1 31.3-1.9 8.8.8 17.9 6.3 25.7 16.5 23.5 6.2 51.1 6.2 51.1-4.8-19.9-15.3-38.8-26.4-55.1-7.6-13-4.3-25.4 4.3-36.9-16.3-13.1-24.8-29.4-31.4-48.4-1.6-4.6-6.7-14.9-8.2-21.7.3 23.4 3.6 48.2 15.8 71.2 0 0-8.9 0-15.6-7.8.8 38.5 13.5 70.8 37 103.3 0 0-27.1-9.6-39.4-40-19.7-48.8-16.6-104.1-16.6-104.1s-21.4 47.4-2.7 106.9c5.8 18.4 11.3 34.2 18.8 45.2 2 2.9 12.6 10.1 19.1 16.9 2.4-6.5 4.2-12 4.2-12s8.5 5.3 14.2 12.4c7.3 9 15.9 21.4 15.9 21.4 5.3-13.6 6.3-23.7 15.4-23.8 9.4-.1 9.4 25.6 11.3 33.1 9.8-6.8 34.2-15.1 48.1-9.9 10.5 3.9 15.8 12 26.7 16.4l3.3.5 36.6-1.9v-21.7c-5.3 8-18 8.8-25.8 8.9zm-50.5-250c-3.1 5.3-10.3 6.5-17.9 1.5-8.6-5.6-13.7-20.9-13.7-20.9s17.4-2.1 25.8 2.5c7.1 3.9 9.2 11.2 5.8 16.9zm-21.5 151.1c12.2 1.3 28.8 4.5 40.6-3 2.7-4.7-4.4-5.9-12-5.7-12.3.2-27.8-4.9-30.5-16.9 12.3 9.6 34.1 10.7 41.1 5.3-16.9-6.3-35.1-10.8-39.3-34.1 6.8 7.2 24.7 21.5 39.4 15.9-10.3-10.7-15.5-18.4-24.8-27.7-2.6-3.7 7-4.3 8-7.2 2-8.1-1.9-18.9 2.9-26.1 2.2-6 8.8-11.1 15.3-9.2-.5 10-2.9 20.2-.8 31.6 4.5 16.2 18.4 26.6 32.5 34.3 7.4 2.9 19.1 4.2 21 13.4a388.87 388.87 0 0 1 0 21.6s-8.1 11.9-20 16c-17.1 5.9-36.8 10.4-56.7 8.5-9.9-1.1-15.3-9.4-16.7-16.7z"/><path d="M222.9 387.8v21.7c11 .4 22.4 1.2 36.4 1.9l3.2-.5c10.8-4.4 16.1-12.6 26.6-16.4 13.9-5.1 38.3 3.1 48.1 9.9 1.9-7.5 1.9-33.2 11.3-33.1 9.1.1 10.1 10.2 15.4 23.8 0 0 8.7-12.4 15.9-21.4 5.7-7.1 14.2-12.4 14.2-12.4l4.2 12c6.5-6.8 17.1-14 19.1-16.9 7.5-11 13-26.8 18.8-45.2 18.7-59.6-2.7-106.9-2.7-106.9s3.1 55.3-16.6 104.1c-12.3 30.4-39.4 40-39.4 40 23.5-32.5 36.2-64.8 37-103.3-6.7 7.8-15.6 7.8-15.6 7.8 12.2-23 15.4-47.7 15.8-71.2-1.5 6.8-6.6 17.1-8.2 21.7-6.6 19-15 35.3-31.4 48.4 8.5 11.5 11.8 23.9 4.3 36.9-11.1 16.3-21.6 35.1-26.4 55.1 0 0-10.4-27.7 6.2-51.1 5.5-7.8 8.2-16.9 6.3-25.7-2.4-13.6-14.4-16.7-12.1-31.3-9-7.1-33.1-16.7-42.8-25.8 6-7.6 21.3.7 28.4 4.9 8.4 4.9 20.5 11.2 28.4 7.7 7.6-3.4 10.3-12.5 8.4-21.8-12.2 3.8-21.4-.4-25.9-12.1 4 0 12-.6 17-2.6 12-4.8 13.2-10 15.1-20.6-4.4 5.2-13.8 7.3-18.6 5.1 0 0 29.5-23 28.4-54-.3-8.9-3.4-28.8-3.4-28.8 11.1 5.2 13.2 10.8 18 20.8 0 0 26.1-1.3 26.5-28.1-5.3 5.7-10 7.8-13.9 6.5.1-3.8 3.9-12 8.1-13 15-16.5 19.6-37 18.5-58.9-2.2-12.9-14.2-17.6-25.8-13.4-28 14.6-47.8 22-80.8 25.8-18.5 2.1-25.2.5-34-3.2 16.8 27 63.5 15.6 84.2 8.2-5.1 7-29.8 19.1-29.8 19.1s18.6.6 26.8-3.3c-4.1 11.9-10.5 19.5-16.3 24.7 2.8 17.8 10.3 39.8-2.5 60.1-8.4 13.4-16.2 22.3-29.2 31.5-14.8 10.4-37 13.7-54.9 11.1 8-7.3 9.5-11.8 17.5-12.4 26.2-2.2 36.2-15.2 46.2-30.8 8-12.4 16-28.7 13.5-46.4-4.6 9.8-6 14.2-16.3 21.9-16 12-34.3-3.2-56.4 18.8-10.4 11.5-12.9 27.7-28.6 34.7-3.5-.4-1.7-10.4-.1-12.7 2.2-7.8-11.8-10.1-4.2-15 9.3-6 19.5-13.7 26-28.3-8.9 1-16.6-3.8-15.9-10.6 13.9 3.4 26.2 3 39-.6-14.2-1.2-26.8-5.2-33.3-11.5-1.1-1.2-.6-3.9.9-3.7 16.9 1.8 42.1 2.4 61.4-7.5-33.3-2.1-54.4-.2-68-15-2.3-2.5-6.7-8.6-7.2-12.3 16.3 4.5 32.3 3.8 48.2-.7-6.3-4.7-28.9-20.8-82.9-20.8v200.2c11 .2 26.7.6 32.3-4.4 4.8-4.3 4.6-13.6 8.7-13.6 8.5.4 3 18.6-4.4 22.9-8.2 4.8-22.6 6.6-36.6 5.4v92.6c15-.1 30.7 1.9 44 7 22.1 8.6 40.4 24.6 44.3 49.2-11.3 0-19.7-18.4-28-15.5-6.1 2.1.7 14.9-4.5 19.1-9.4 6.9-18.1 11.4-30.4 11.2-8-.3-21.5-1.1-25.5-9zm81.4-258.1c8.4-4.7 25.8-2.5 25.8-2.5s-5.1 15.3-13.7 20.9c-7.6 5-14.8 3.8-17.9-1.5-3.3-5.7-1.3-13 5.8-16.9zm-1 184.6c-19.8 2-39.6-2.5-56.7-8.5-11.9-4.1-20-16-20-16v-21.6c1.9-9.2 13.6-10.5 21-13.4 14.1-7.7 28-18.1 32.5-34.3 2.1-11.3-.3-21.6-.8-31.6 6.6-1.9 13.2 3.2 15.3 9.2 4.8 7.2.8 18 2.9 26.1 1 3 10.6 3.5 8 7.2-9.3 9.3-14.5 17-24.8 27.7 14.7 5.6 32.6-8.6 39.4-15.9-4.2 23.3-22.4 27.8-39.3 34.1 7 5.5 28.8 4.3 41.1-5.3-2.7 12-18.2 17-30.5 16.9-7.6-.1-14.7 1-12 5.7 11.8 7.5 28.4 4.4 40.6 3-1.3 7.4-6.7 15.7-16.7 16.7z"/></svg>