<svg width="328" height="464" viewBox="0 0 328 464" fill="none" xmlns="http://www.w3.org/2000/svg">
<path d="M164.3 463.4C74.1999 463.4 0.899902 390.1 0.899902 300C0.899902 209.9 74.1999 136.6 164.3 136.6C254.4 136.6 327.7 209.9 327.7 300C327.7 390.1 254.4 463.4 164.3 463.4ZM164.3 156.7C85.2999 156.7 20.8999 221 20.8999 300.1C20.8999 379.2 85.1999 443.5 164.3 443.5C243.4 443.5 307.7 379.2 307.7 300.1C307.7 221 243.3 156.7 164.3 156.7Z" fill="#F59238"/>
<path d="M122.6 100.5C122.6 100.9 122.1 101 122 100.6C117.5 80.9999 76.7998 -0.900118 72.5998 0.699882C67.7998 2.39988 76.5999 86.4999 82.9999 111.3C83.0999 111.7 82.5999 111.8 82.3999 111.5C53.9999 66.1999 21.2999 67.0999 14.9999 67.9999C14.5999 68.0999 14.5999 68.5999 14.8999 68.6999C54.0999 88.8999 72.9999 146.6 74.7999 152.3C74.8999 152.5 75.0999 152.6 75.3999 152.5C97.1999 139.3 122.2 130.9 149 128.5C149.2 128.5 149.4 128.3 149.3 128.1C148.1 123 136.8 69.9999 158.5 33.1999C158.7 32.8999 158.4 32.4999 158.1 32.5999C152.5 34.4999 123.8 51.5999 122.6 100.5Z" fill="#F59238"/>
<path d="M191.159 243.237C217.208 253.051 243.865 246.302 250.7 228.161C257.535 210.02 241.96 187.358 215.912 177.544C189.864 167.729 163.207 174.478 156.371 192.619C149.536 210.76 165.111 233.422 191.159 243.237Z" fill="#F59238"/>
</svg>
