<?xml version="1.0" encoding="utf-8"?>
<!-- Generator: Adobe Illustrator 19.0.0, SVG Export Plug-In . SVG Version: 6.00 Build 0)  -->
<svg xmlns="http://www.w3.org/2000/svg" xmlns:xlink="http://www.w3.org/1999/xlink" version="1.1" id="bally-slots" x="0px" y="0px" viewBox="0 0 431.3 212" style="enable-background:new 0 0 431.3 212;" xml:space="preserve" width="120" height="35">
<style type="text/css">
	.st0{fill:#ED1C29;}
	.st1{fill:#8D8C8C;}
</style>
<path id="bally_1_" class="st0" d="M159.2,123.4v3.4c0,5.4-1.8,10.5-5.3,15.5c-3,4.2-7.2,8.1-12.7,11.4c-4.2,2.7-8.7,4.8-13.4,6.3  c-4.7,1.5-8.7,2.2-12.1,2.2c-6.1,0-10.7-0.8-14-2.3c-3.3-1.6-5.5-3.5-6.7-5.8c-1.2-2.3-1.8-4.7-1.8-7.1c0-3.1,1.1-5.8,3.3-8.2  c2.2-2.3,4.8-3.3,7.7-2.9c2.5,0.3,4.5,1.3,5.8,3.1c1.3,1.8,2.2,4,2.4,6.7c0,3.1-0.5,5.4-1.5,7c8.6-1.6,15.9-5,21.8-10.4  c5.9-5.4,8.9-11.7,8.9-18.9v-1.3c0-4.2-1.8-8.7-5.3-13.4c-4-5.1-7.9-10.3-11.9-15.5c0-5.1,5.4-10,16.3-14.6  c16.7-7.2,26.8-12.1,30.3-14.6c10.9-7.6,16.3-17.6,16.3-29.9c0-17.2-11.9-25.9-35.8-25.9c-11.3,0-22.5,2.2-33.6,6.6  C107.1,19.2,95.7,26.1,84,35.6c-9.5,7.6-18.6,16.5-27.4,26.7C47.9,72.5,40.3,83,33.9,93.7c-6.4,10.7-10.8,20.6-13.4,29.7  c-1.6,5.9-2.3,11.2-2.3,15.9c0,5.5,0.6,10.3,1.7,14.4c2.8,9.2,8.7,13.8,17.6,13.8c4.2,0,8.2-1.2,12-3.5c3.7-2.3,7.4-5.8,10.9-10.3  c5.8-7.6,11.5-17.7,17-30.3l13.1-30.3l3.8-7.8c7.4-13.7,12.7-23,15.9-28c7.9-12,15.1-19.9,21.6-23.5c3.5-2,7.1-3.6,10.7-4.9  c3.6-1.3,6.8-1.9,9.4-1.9c2.5,0,3.9,0.7,4,2.1c0.1,1.1-2.8,3.5-8.7,7c-4.1,2.5-7.9,6-11.4,10.4c-6.2,7.8-14.6,23.4-25.2,46.9  l-4.5,9.8l-9.1,20.4c-3,6.2-4.9,10.2-5.7,12.1c-3.4,6.5-7.2,12.6-11.4,18.2c-2.7,3.8-5.7,7.2-8.9,10.2c-5.1,4.7-10.2,8.1-15.4,10.3  c-5.2,2.2-10.4,3.3-15.8,3.3c-7.8,0-15-2.2-21.5-6.5c-6.6-4.3-11.5-10.1-14.7-17.3C1.2,148.5,0,143,0,137.2c0-1.3,0.1-3,0.4-5.3  l1.5-8.5c1.1-5.1,2.6-10.2,4.3-15.3c1.8-5.1,3.9-10,6.3-14.8C25.8,66,46.7,43.4,75.3,25.4c27-17,53.3-25.4,78.9-25.4  c17.5,0,31.2,3.2,40.9,9.5c9.8,6.4,14.6,16,14.6,28.8c0,15.8-7.7,28-23.1,36.5c-16.7,5.5-33.4,11-50,16.5l0.4,1.7  c6.6,4,12,8.2,16.1,12.6C157.2,110.2,159.2,116.1,159.2,123.4L159.2,123.4z M295.6,80.2c5.8-9.9,11.2-20.2,16.3-31  c5.8-12.3,8.7-20.5,8.7-24.6c0-1.7-0.6-2.5-1.7-2.5c-2.5,0-7.2,3.9-14.1,11.8c-6.9,7.8-12.3,15.6-16.4,23.2c-4.1,7.6-7,13.3-8.7,17  c-3,6.4-5.6,12.8-7.8,19.3c-2.8,8.2-4.9,17-6.1,26.3c8.8-9.2,16-18,21.6-26.3L295.6,80.2z M346.3,85.5c3.3-6.2,6.2-12.3,8.9-18.2  c3.4-7.6,5.1-12.8,5.1-15.5c0-2.1-0.8-3.2-2.3-3.2c-2.3,0-6.2,3.5-11.7,10.6c-4.8,6.2-9.5,13.3-14.2,21.2l-6.4,12.9  c-2,4.4-3.5,8.5-4.7,12.3c-1.1,3.8-2.2,8.7-3.2,14.6c5.2-4.2,9.8-8.6,13.8-12.9c4-4.4,7.4-9,10.4-14L346.3,85.5z M410.7,123.4  l-14.8,30.3l-21.8,45c-2.3,4.7-4.2,7.9-5.9,9.8c-2.1,2.4-4.3,3.6-6.6,3.6c-1,0-2-0.3-3-0.8c-2.8-1.7-4.2-4-4.2-6.8  c0-2.3,0.8-4.9,2.3-7.8l22.9-42.8l3.8-7c-2.7,2.7-5.9,5-9.5,7c-5.1,2.7-9.5,4-13.4,4c-4,0-7.1-1.3-9.3-4c-1.7-2-3.1-4.9-4.2-8.7  c-2.3,2.8-5.3,5.7-9.1,8.7c-3.1,2.3-6.3,4.1-9.4,5.4c-3.2,1.3-6.3,2-9.2,2c-5.8,0-10.7-2.5-14.6-7.4c-1.3-1.6-2.5-3.5-3.8-5.9  c-0.8,1-1.8,2.1-3,3.3c-1.1,1.2-2.3,2.2-3.4,2.9c-4,3-8.3,5.5-13,7.5c-4.7,2.1-9,3.1-12.8,3.1c-3.8,0-7.1-1-10-2.9  c-2.8-1.9-5.3-4.6-7.4-8l-2.1-3.6l-4,3.6c-8.3,7.4-16.6,11-24.8,11c-3.8,0-7.1-1-10-3c-2.8-2-5.2-4.7-7.2-8.1l-1.9-3.8l-3.8,3.8  c-3.4,3.1-6.6,5.3-9.8,6.7c-3.1,1.3-6.6,2-10.4,2c-6.6,0-11.2-2.9-13.6-8.7c-1.7-3.7-2.5-8.1-2.5-13.1c0-4.7,1.4-10.4,4.2-17.2  c2.5-5.5,5.6-10.8,9.2-15.8c3.6-5,7.9-9.8,12.8-14.3c6.1-5.5,12.5-9.9,19.2-13.1c6.7-3.3,13.7-4.9,20.9-4.9  c8.8,0,13.1,3.5,13.1,10.6c0.3,2.7-0.8,5.2-3.4,7.4c-1.4,1.3-3,2-4.9,2.1c-2.4,0-4.3-0.2-5.6-0.6c-1.3-0.4-2.4-1-3.3-1.8  c-0.9-0.8-1.4-1.9-1.7-3.3c-0.3-1.4-0.7-2.2-1.2-2.3c-0.5-0.1-1.1-0.2-1.8-0.2c-3.4,0-7.7,2.1-12.9,6.2c-4.5,3.5-8.8,7.9-12.8,13.1  c-4,5.2-7.3,10.8-9.8,16.6c-2.5,5.9-3.7,11.3-3.7,16.4c0,2.3,0.3,4.2,1,5.9c0.6,1.7,2.2,2.5,4.8,2.5c3.1,0,7-2.6,11.7-7.8  c3.7-4.1,7.7-9.7,12.1-16.7c2.1-3.4,4.3-7.1,6.6-11.1c2.3-4,4-7.2,5.3-9.6c0.7-1,3.3-1.5,7.8-1.5c2.8,0,5.2,0.2,7,0.7  c1.8,0.5,2.6,1.2,2.3,2.2l-8.5,19.3c-2,4.5-3.3,7.6-3.8,9.1c-1,2.4-2,5.4-3.2,9.1c-0.3,1.1-0.4,1.9-0.4,2.3c0,1.4,0.6,2.4,1.8,3.1  c1.2,0.6,2.8,1,4.8,1c2.1,0,5.4-1.7,10-5c4.5-3.3,7.3-5.8,8.5-7.3c0-2.1,0-4.1,0-6c0-1.9,1-16,2.1-20.6c1.1-4.6,2.8-9.9,4.9-15.8  c1.1-2.8,2.3-5.7,3.5-8.6c1.2-2.9,2.5-5.9,3.9-9c8.1-17,17.7-31.9,28.8-44.7C302.6,16.8,313,9.8,321.5,9.8c4.1,0,7,1.2,8.8,3.5  c1.8,2.3,2.6,5.6,2.6,9.9c0,7.2-2.3,16.5-7,27.8c-3.4,8.2-7.8,17-13.4,26.3c-1.6,2.7-3.1,5.2-4.6,7.5c-1.5,2.3-3.4,5.2-5.6,8.6  c-3.7,5.4-7.5,10.4-11.3,15.2c-3.9,4.7-8.4,9.7-13.7,15L265.9,134c0,3.5,1.1,6.7,3.4,9.6c2.3,2.9,5.5,4.3,9.8,4.3  c2.8,0,6.4-1.4,10.8-4.2c3.5-2.3,6.5-4.7,8.9-7.2l1.5-13.1c1.6-10,4.7-20.1,9.5-30.1l4.5-8.7c6.6-12.4,15.1-24,25.2-34.6  c10.2-10.6,18-15.9,23.3-15.9c3.5,0,6,1,7.5,3c1.5,2,2.2,4.9,2.2,8.9c0,6.1-1.7,13.5-5.2,22.2c-3.5,8.7-7.7,17.1-12.6,25.1  c-3.5,5.5-7.1,10.7-10.8,15.5c-4.7,5.9-9.1,10.8-13.4,14.6c-3.4,3.1-7.2,6-11.5,8.7c-0.1,0.6-0.2,1.4-0.2,2.5c0,2.7,0.7,5,2.2,6.8  c1.5,1.8,4.1,2.8,8,2.8c3.4,0,6.9-1.6,10.6-4.9c3.7-3.3,7.4-8.6,11.2-15.9l1.3-2.5c2.4-4.9,5-9.9,7.8-14.8c2.3-4,4.8-8.2,7.6-12.7  l8.7-14.2c0.3-0.4,1.4-0.8,3.3-1.3c1.9-0.4,3.7-0.6,5.4-0.6c2.7,0,4.8,0.2,6.4,0.7c1.6,0.5,2,1.4,1.5,2.6c-0.1,0.4-0.6,1.4-1.5,3  c-1.6,2.8-3.4,6.1-5.5,9.8c-2.7,4.5-5.4,9.4-8.3,14.6c-3.4,6.2-6,11.4-7.8,15.5c-3,6.4-4.5,11.2-4.5,14.4c0,2.7,1.1,4,3.4,4  c3.4,0,6.6-1.3,9.8-3.8c3.1-2.5,7.1-7.4,11.9-14.6c3.4-5.1,6.5-10.1,9.3-15.2c2.8-5,5.5-10,8.1-14.9l5.9-12.3  c0.6-0.8,1.7-1.4,3.4-1.6c1.7-0.2,3.5-0.3,5.5-0.3c2.8,0,5.1,0.2,6.8,0.7c1.7,0.5,2.3,1.2,1.7,2.2l-5.5,11.2L410.7,123.4z"/>
<path id="r" class="st0" d="M403.2,186.9c0,2.1-0.7,3.9-2.2,5.4c-1.5,1.5-3.3,2.2-5.5,2.2c-2,0-3.7-0.8-5.2-2.3  c-1.5-1.5-2.2-3.3-2.2-5.5c0-1.9,0.7-3.7,2.2-5.2c1.5-1.5,3.3-2.3,5.3-2.3c2.1,0,3.9,0.7,5.3,2.2C402.5,183,403.2,184.8,403.2,186.9  z M402.1,186.9c0-1.8-0.6-3.3-1.9-4.6c-1.3-1.2-2.8-1.9-4.6-1.9s-3.3,0.6-4.6,1.9c-1.2,1.3-1.9,2.8-1.9,4.5c0,1.7,0.6,3.3,1.9,4.5  c1.3,1.3,2.8,1.9,4.5,1.9c1.7,0,3.3-0.6,4.6-1.9C401.5,190.2,402.1,188.7,402.1,186.9z M399,190.9l-1.8,0l-1.6-3.3l-1.2,0v3.3h-1.8  v-8.1h3c2.3,0,3.5,0.8,3.5,2.3c0,1.2-0.6,1.9-1.7,2.2L399,190.9z M397.2,185.3c0-0.8-0.6-1.2-1.7-1.2h-1.1v2.3h1.2  C396.7,186.4,397.2,186,397.2,185.3z"/>
<g id="tech">
	<path id="XMLID_36_" class="st1" d="M82.4,184.5h-6v-3.6h17v3.6h-6v15.3h-5V184.5z"/>
	<path id="XMLID_38_" class="st1" d="M112.5,191.8h-8.1v4.5h9.1v3.5H99.4v-18.9H113v3.5h-8.6v3.9h8.1V191.8z"/>
	<path id="XMLID_40_" class="st1" d="M136.3,199.2c-0.9,0.4-3,0.8-5.6,0.8c-7.6,0-11.6-4.1-11.6-9.5c0-6.4,5.4-10,12.1-10   c2.6,0,4.6,0.4,5.4,0.8l-1,3.4c-1-0.4-2.4-0.7-4.2-0.7c-3.9,0-7,2-7,6.2c0,3.8,2.6,6.1,7,6.1c1.5,0,3.2-0.3,4.2-0.6L136.3,199.2z"/>
	<path id="XMLID_42_" class="st1" d="M147.9,180.9v7.3h8.2v-7.3h5v18.9h-5v-7.9h-8.2v7.9h-5v-18.9H147.9z"/>
	<path id="XMLID_44_" class="st1" d="M168.7,199.7v-18.9h5.8l4.6,6.9c1.3,2,2.6,4.3,3.6,6.5h0.1c-0.3-2.5-0.4-5-0.4-7.9v-5.5h4.6   v18.9h-5.2l-4.7-7.3c-1.3-2-2.8-4.5-3.8-6.7h-0.1c0.2,2.5,0.2,5.2,0.2,8.3v5.7H168.7z"/>
	<path id="XMLID_46_" class="st1" d="M204,200.1c-6.5,0-10.4-4.2-10.4-9.6c0-5.7,4.3-9.9,10.7-9.9c6.8,0,10.5,4.3,10.5,9.5   C214.8,196.3,210.5,200.1,204,200.1L204,200.1z M204.3,196.7c3.4,0,5.3-2.7,5.3-6.4c0-3.4-1.9-6.3-5.3-6.3s-5.4,2.9-5.4,6.4   C198.9,193.9,200.9,196.7,204.3,196.7L204.3,196.7z"/>
	<path id="XMLID_49_" class="st1" d="M221.4,180.9h5v15.3h8.8v3.6h-13.8V180.9z"/>
	<path id="XMLID_51_" class="st1" d="M249.5,200.1c-6.5,0-10.4-4.2-10.4-9.6c0-5.7,4.3-9.9,10.7-9.9c6.8,0,10.5,4.3,10.5,9.5   C260.4,196.3,256,200.1,249.5,200.1L249.5,200.1z M249.8,196.7c3.4,0,5.3-2.7,5.3-6.4c0-3.4-1.9-6.3-5.3-6.3s-5.4,2.9-5.4,6.4   C244.4,193.9,246.4,196.7,249.8,196.7L249.8,196.7z"/>
	<path id="XMLID_55_" class="st1" d="M285.4,198.9c-1.5,0.4-4.5,1.1-7.4,1.1c-4,0-6.9-0.9-9-2.5c-2-1.7-3.1-4.1-3.1-6.9   c0-6.3,5.4-9.9,12.6-9.9c2.8,0,5,0.5,6.1,0.9l-1,3.4c-1.2-0.5-2.7-0.8-5.1-0.8c-4.2,0-7.3,2-7.3,6.1c0,3.9,2.9,6.2,7,6.2   c1.1,0,2-0.1,2.4-0.3v-4h-3.4v-3.3h8.2V198.9z"/>
	<path id="XMLID_57_" class="st1" d="M297.6,180.9v18.9h-5v-18.9H297.6z"/>
	<path id="XMLID_67_" class="st1" d="M318.3,191.8h-8.1v4.5h9.1v3.5h-14.1v-18.9h13.6v3.5h-8.6v3.9h8.1V191.8z"/>
	<path id="XMLID_69_" class="st1" d="M326.1,195.3c1.3,0.6,3.4,1.2,5.5,1.2c2.3,0,3.5-0.8,3.5-2c0-1.2-1-1.8-3.7-2.6   c-3.7-1.1-6.1-2.9-6.1-5.6c0-3.2,3.2-5.7,8.4-5.7c2.5,0,4.3,0.4,5.6,1l-1.1,3.4c-0.9-0.4-2.5-0.9-4.6-0.9c-2.2,0-3.2,0.9-3.2,1.8   c0,1.2,1.2,1.7,4.1,2.7c3.9,1.2,5.7,3,5.7,5.6c0,3.2-2.8,5.9-8.9,5.9c-2.5,0-5-0.6-6.3-1.2L326.1,195.3z"/>
</g>
</svg>
