<?xml version="1.0"?>
<svg xmlns="http://www.w3.org/2000/svg" width="60" height="40" fill="none" viewBox="0 0 2584 2670"><path d="M1261.87 2667.84c-452.122-31.24-854.082-279.68-1081.192-668.4-157.717-269.46-214.195-589.4-159.22-899.7 72.7-410.66 343.072-768.144 724.298-958.3C886.656 71.144 1032.96 27.886 1197.28 7.46c53.17-6.3 200.68-9.012 258.66-4.506 184.15 14.72 344.57 59.48 508.9 141.792 222.6 111.75 407.66 280.28 538.34 490.263 23.13 37.25 80.5 145.097 80.5 151.105 0 3.304-149.9 95.83-155.3 95.83-1.8 0-16.23-25.534-32.15-57.077-59.78-118.96-119.26-200.67-217.8-298.904-71.5-71.197-128.27-117.16-204.58-164.623-146.3-91.324-308.22-148.4-485.17-170.93-52.87-6.6-207.28-7.5-258.35-1.502-147.2 17.724-272.484 53.772-396.554 115.055-249.64 122.566-448.22 330.748-557.568 584-22.53 52.27-51.67 142.698-63.988 198.268-19.827 90.12-26.436 152.9-26.736 247.83 0 271.57 92.527 523.6 270.972 737.5 28.84 34.55 102.14 107.85 137 137 295.3 247.53 682.844 335.85 1051.454 240.02 250.24-64.9 471.95-209.68 628.16-410.35 30.04-38.76 64.9-89.53 65.5-95.83 0-2.7-17.72-15.02-47.76-32.75l-47.77-28.24-21.63 32.15c-133.08 195.86-342.77 347.57-571.4 413.36-337.66 96.73-696.964 24.03-963.124-194.97-153.5-126.47-269.47-296.8-329.255-483.95-33.346-105.14-46.565-193.46-46.565-313.93 0-84.1 2.404-114.75 13.82-180.24 41.157-234.616 169.13-456.016 353-608.923 160.42-133.68 345.474-212.688 558.464-238.823 50.77-6.008 193.77-5.107 244.84 1.502 128.28 17.123 229.22 47.464 340.97 102.74 107.85 53.138 191.65 113.22 276.37 197.933 55.88 55.876 89.52 97.03 130.38 158.014 47.77 72.398 97.34 169.13 89.52 176.038-5.7 5.107-426.28 251.14-427.48 249.94-.6-.6-5.7-15.32-11.72-32.14-67.3-193.166-240.63-334.957-446.4-364.998-41.16-6.008-120.77-6.3-160.13-.3-194.36 29.44-358.402 155.6-433.202 333.758a531.38 531.38 0 0 0-15.62 367.4c66.7 208.48 251.142 357.8 471.652 381.52 152.3 16.82 310.92-34.55 429-138.5 68.8-60.68 126.47-145.7 156.2-230.7 5.7-16.82 10.52-25.54 13.22-25.24 6.6.6 158.02 88.62 158.02 91.93 0 5.4-21.93 55.27-37.85 86.52-71.5 139.7-186.56 253.24-328.96 324.13-73.3 36.65-142.7 58.58-225 71.5-48.36 7.5-167.33 7.5-215.7 0-142.7-22.53-268.572-80.2-374.622-170.93-134.6-115.36-221.4-271.87-248.14-448.5-7.5-48.96-9-147.8-3-190.75 16.53-117.46 51.98-213.6 113.86-308.224 107.85-164.622 280.302-280.88 473.752-319.332 50.77-9.913 87.72-13.218 148.7-13.218 87.42 0 151.1 10.214 232.82 37.55 149.6 49.567 282.4 147.8 372.2 275.473 9.6 13.518 18.33 24.032 19.23 23.432 23.45-12.936 102.75-60.1 102.75-61.302 0-3.605-35.45-52.27-58.58-80.5-115.06-140.3-280.6-244.832-459.63-289.893-77.2-19.526-126.48-25.234-211.8-25.234-61.28 0-81.4 1.202-120.16 6.9-231.32 34.246-432.302 152.907-569.002 335.253-34.54 46.263-58.88 85.616-84.4 138.187-179.05 366.498-68.5 808.698 262.86 1052.028 113.86 83.5 241.532 135.78 387.532 158.6 41.76 6.6 158.92 9.32 205.2 4.8 277.88-27.04 523.32-181.45 664.5-418.17 21.63-36.04 58.58-111.75 58.58-119.56 0-1.8 1.5-3.3 3-3.3 3.3 0 417.27 235.82 421.78 240.32 6 6-51.07 111.45-101.84 187.76-170.34 255.34-417.58 441.9-712.88 537.72-82.92 26.74-180.55 47.17-273.98 57.08-52.57 5.7-179.35 8.1-231.32 4.5l.01.04z" fill="#26a0df"/></svg>
