<?xml version="1.0"?>
<svg xmlns="http://www.w3.org/2000/svg" width="65" height="35" viewBox="0 0 1280 810" preserveAspectRatio="xMidYMid meet"><path d="M430 676V552l-39-7C267 524 106 391 37 251c-20-40-37-82-37-92 0-24 48-33 149-27 166 10 313 121 360 273l16 52 54-14c175-44 331-218 348-387l6-56h47c47 0 48 0 55 37 20 107 122 203 215 203 29 0 30 1 30 49v49l-44 6c-162 25-320 200-350 388l-10 68h-99l7-57c19-168 124-345 254-427l43-27-86-86-34 61c-75 134-233 253-372 279l-59 12v245H430V676zm-10-233c0-26-68-118-108-148-50-37-130-69-159-63-22 4 54 99 123 150 57 44 144 80 144 61z" fill="#ff8400"/></svg>
