<?xml version="1.0" encoding="utf-8"?>
<!-- Generator: Adobe Illustrator 19.0.0, SVG Export Plug-In . SVG Version: 6.00 Build 0)  -->
<svg xmlns="http://www.w3.org/2000/svg" xmlns:xlink="http://www.w3.org/1999/xlink" version="1.1" id="Слой_1" x="0px" y="0px" viewBox="0 0 179.3 188.5" style="enable-background:new 0 0 179.3 188.5;" xml:space="preserve" width="60" height="40">
<style type="text/css">
	.st0{fill:#4EC5D7;}
	.st1{fill:#FFFFFF;}
</style>
<polygon id="XMLID_120_" class="st0" points="25.4,30.7 1.8,76.6 0,132.7 38.8,180 81.9,188.5 150.4,170.9 179.3,133.1 167,133.8   174,113.3 168,58.3 158.2,68.5 149,47.7 111.2,18.7 100.3,27.5 101,0 58.6,24.7 31.4,50.1 "/>
<polygon id="XMLID_100_" class="st1" points="33.2,71.7 34.1,107.2 68.7,105.6 71,139.2 71,162.9 99.5,163.6 101.5,141.4   102.5,104.6 135.2,103.6 136.9,74.8 135.7,69.7 87,71.1 "/>
</svg>
