<?xml version="1.0"?>
<svg xmlns="http://www.w3.org/2000/svg" width="65" height="35" viewBox="0 0 282 283" fill="none">
<path d="M141 282.4C218.872 282.4 282 219.272 282 141.4C282 63.5279 218.872 0.400024 141 0.400024C63.1279 0.400024 0 63.5279 0 141.4C0 219.272 63.1279 282.4 141 282.4Z" fill="#3869AF"/>
<path d="M94.2 83.3V274.4C108.8 279.5 124.6 282.3 140.9 282.3C209.1 282.3 266 233.8 279.1 169.4L111.4 73.3C103.8 68.9 94.2 74.4 94.2 83.3Z" fill="#195091"/>
<path d="M94.2 213.7V78.6C94.2 71.5 101.9 67 108.1 70.6L224.4 138.1C230.5 141.7 230.5 150.5 224.4 154.1L108.1 221.6C102 225.3 94.2 220.9 94.2 213.7Z" fill="white"/>
</svg>
