<?xml version="1.0"?>
<svg xmlns="http://www.w3.org/2000/svg" xmlns:xlink="http://www.w3.org/1999/xlink" width="60" height="40" fill="none" viewBox="0 0 195 187"><use xlink:href="#E" fill="url(#A)"/><path d="M94.1 186.8c-44.1 0-82-26.7-91.1-67.1-5.2-23.2-2.1-45.8 9.1-65.3C23.9 33.9 44.5 17.2 71.7 6.2c23.9-9.7 51.5-7.8 75.7 5.2C171 24.1 188 45.9 192.9 69.8c4.9 24.2-.2 50.4-14.1 72-14.4 22.4-36.5 37.7-62.2 42.9-7.7 1.4-15.2 2.1-22.5 2.1zm9.3-183.9c-10.5 0-20.9 2-30.7 5.9C20 30.1-5.1 71.4 5.7 119.1c8.8 39.1 45.6 64.9 88.4 64.9 7.2 0 14.5-.7 21.9-2.2 24.9-5.1 46.3-19.9 60.3-41.6 13.5-21 18.5-46.4 13.7-69.9-4.7-23.1-21.2-44.1-44-56.4-13.6-7.3-28.2-11-42.6-11zm-8.7 171.7c-5.7 0-11.4-.5-16.9-1.6l-1.1-.2v-1.2l-.2-45.5 1.9.6c1.4.5 9 2.9 12.6 3.4 24.5 3.5 47.9-5.3 59.7-22.3 2.2-3.8 5-9 6.2-14.7 3.8-16.7-6.8-33.8-14.9-41.2-13-11.6-31.9-17.3-50.5-15.1-17.3 2-31.8 10.3-40.7 23.3-3.4 5.1-5.2 11.1-6.6 16.7l.5 79.2.1 1.7-1-.1-.5.6-1.1-.8c-13.8-10.6-23-24.8-26.7-41.1-4.5-20.2-1.8-39.8 7.9-56.7 10.2-17.8 28.1-32.3 51.7-41.9 20.8-8.4 44.7-6.8 65.7 4.5 20.5 11 35.3 29.9 39.5 50.7 9.1 44.9-21.2 90.5-66.2 99.7-6.5 1.3-13 2-19.4 2zm-15.3-4.2c11.1 1.9 22.6 1.7 34.1-.6 43.5-8.9 72.8-53 64-96.3-4.1-19.9-18.3-38.1-38-48.7-20.2-10.9-43.3-12.4-63.3-4.4C30.6 38.8 9 74.5 18.3 115.7c3.3 14.7 11.4 27.6 23.4 37.6-.5-15.3-.4-73.9-.4-76.6v-.3c1.5-5.9 3.4-12.2 7.1-17.8C57.9 44.9 73 36.2 91.2 34.1c19.5-2.3 39.2 3.6 52.8 15.8 7.4 6.8 20.1 24.7 15.7 44-1.4 6-4.3 11.5-6.6 15.6-12.5 18-37 27.2-62.5 23.6-3-.4-8.3-2-11.2-2.9v19.7a700.37 700.37 0 0 0 0 20.5zm23.9-62.8h-.6c-8.1-.2-15.7-3.5-20.8-9-1.9-2-3.3-4.5-4.6-7.9l-.1-.2c-.6-3.1-.7-5.6-.4-8v-.2l1-3.3c3.2-6.8 9.4-11.5 17.4-13.3 9.1-2 18.9.1 25.7 5.7 2.7 2.6 4.6 5 6 7.6l.1.1 1.2 3.1.1.2c1.3 6.3-.6 12.8-5 17.2-4.9 5.1-12.2 8-20 8zM80.1 89.8c1.1 3 2.4 5.2 3.9 6.9 4.6 5 11.4 8 18.8 8.1 7.2.2 14-2.5 18.7-7.2 3.6-3.7 5.2-9.2 4.2-14.5-.3-.8-.9-2.2-1.1-2.9-1.2-2.3-2.9-4.5-5.3-6.7-6-4.9-14.9-6.9-23.1-5-7.1 1.6-12.6 5.7-15.4 11.7l-.9 2.9c-.5 1.8-.3 4 .2 6.7z" fill="#adb1b7"/><path d="M184.8 71.6c-9.3-45.6-64.1-77-110.9-58.1-52.5 21.3-72.5 62.2-63.1 104 9.5 42.2 54.7 69.4 104.1 59.3 49.4-10 79.2-59.6 69.9-105.2z" fill="url(#B)"/><path opacity=".5" d="M100.3 135c38.052 0 68.9-25.7 68.9-57.4s-30.848-57.4-68.9-57.4-68.9 25.7-68.9 57.4S62.248 135 100.3 135z" fill="url(#C)"/><use xlink:href="#E" fill="url(#D)"/><defs><linearGradient id="A" x1="97.55" y1="185.397" x2="97.55" y2="1.459" gradientUnits="userSpaceOnUse"><stop stop-color="#d1d1d1"/><stop offset="1" stop-color="#fff"/></linearGradient><linearGradient id="B" x1="97.55" y1="178.941" x2="97.55" y2="7.913" gradientUnits="userSpaceOnUse"><stop offset=".25" stop-color="#d52128"/><stop offset=".75" stop-color="#751113"/></linearGradient><linearGradient id="C" x1="100.266" y1="135.025" x2="100.266" y2="20.257" gradientUnits="userSpaceOnUse"><stop stop-color="#fff" stop-opacity="0"/><stop offset="1" stop-color="#fff"/></linearGradient><linearGradient id="D" x1="97.55" y1="185.396" x2="97.55" y2="1.458" gradientUnits="userSpaceOnUse"><stop stop-color="#d1d1d1"/><stop offset="1" stop-color="#fff"/></linearGradient><path id="E" d="M191.4 70c-10-49-69-82.8-119.2-62.5-56.5 22.9-78 66.8-67.9 111.9 10.2 45.4 58.8 74.6 111.9 63.8 53.2-10.9 85.2-64.2 75.2-113.2zm-77.6 101.2c-12.4 2.5-24.5 2.5-35.7.4-.3-14.5.1-29-.2-43.5.8.3 9 2.9 12.8 3.5 22.5 3.2 47.8-3.7 61.1-22.9 2.8-4.8 5.2-9.8 6.5-15.2C162.5 75 150 57.4 143 50.9c-26.1-23.5-72.9-21.3-93.4 8.4-3.5 5.2-5.4 11.3-6.9 17.3l.5 79.5s-.1 0-.1.1c-13.1-10-22.5-23.9-26.2-40.2-8.8-39 9.8-77.1 58.8-96.9C119.2 1.5 170.3 30.7 179 73.2s-19.2 88.6-65.2 98zM78.4 82.7c.2-.8.7-2.4 1-3.1 7-15 28.8-17.1 40.9-7.2 2.2 2.1 4.2 4.5 5.6 7.2l1.2 3.1c1.1 5.7-.5 11.8-4.6 15.9-10.5 10.6-29.5 10-39.5-1-2-2.1-3.3-4.8-4.3-7.5-.5-2.4-.7-4.9-.3-7.4z"/></defs></svg>
