<?xml version="1.0" encoding="utf-8"?>
<!-- Generator: Adobe Illustrator 19.0.0, SVG Export Plug-In . SVG Version: 6.00 Build 0)  -->
<svg xmlns="http://www.w3.org/2000/svg" xmlns:xlink="http://www.w3.org/1999/xlink" version="1.1" id="Слой_1" x="0px" y="0px" viewBox="0 0 702.1 261.7" style="enable-background:new 0 0 702.1 261.7;" xml:space="preserve" width="60" height="40">
<style type="text/css">
	.st0{fill:url(#XMLID_15_);}
	.st1{fill:url(#XMLID_16_);}
	.st2{fill:url(#XMLID_17_);}
	.st3{fill:url(#XMLID_18_);}
	.st4{fill:url(#XMLID_19_);}
	.st5{fill:url(#XMLID_20_);}
</style>
<linearGradient id="XMLID_15_" gradientUnits="userSpaceOnUse" x1="183.9105" y1="54.8334" x2="183.9105" y2="208.7562">
	<stop offset="0" style="stop-color:#8D8C8C"/>
	<stop offset="9.360799e-02" style="stop-color:#949493"/>
	<stop offset="0.2458" style="stop-color:#AAABAA"/>
	<stop offset="0.3" style="stop-color:#B4B6B5"/>
	<stop offset="0.4563" style="stop-color:#919291"/>
	<stop offset="0.56" style="stop-color:#828281"/>
	<stop offset="0.7552" style="stop-color:#696867"/>
	<stop offset="0.86" style="stop-color:#5F5E5D"/>
</linearGradient>
<path id="XMLID_83_" class="st0" d="M133.7,54.8h100.5v29.7h-69.6v31.8h59.3v30.1h-59.3v33h69.6v29.3H133.7V54.8z"/>
<linearGradient id="XMLID_16_" gradientUnits="userSpaceOnUse" x1="299.0338" y1="54.8334" x2="299.0338" y2="208.7562">
	<stop offset="0" style="stop-color:#8D8C8C"/>
	<stop offset="9.360799e-02" style="stop-color:#949493"/>
	<stop offset="0.2458" style="stop-color:#AAABAA"/>
	<stop offset="0.3" style="stop-color:#B4B6B5"/>
	<stop offset="0.4563" style="stop-color:#919291"/>
	<stop offset="0.56" style="stop-color:#828281"/>
	<stop offset="0.7552" style="stop-color:#696867"/>
	<stop offset="0.86" style="stop-color:#5F5E5D"/>
</linearGradient>
<path id="XMLID_85_" class="st1" d="M283.1,84.3h-34.7V54.8h101.3v29.5H314v124.4h-30.9V84.3z"/>
<g id="XMLID_81_">
	<linearGradient id="XMLID_17_" gradientUnits="userSpaceOnUse" x1="58.7851" y1="54.8334" x2="58.7851" y2="208.7562">
		<stop offset="0" style="stop-color:#8D8C8C"/>
		<stop offset="9.360799e-02" style="stop-color:#949493"/>
		<stop offset="0.2458" style="stop-color:#AAABAA"/>
		<stop offset="0.3" style="stop-color:#B4B6B5"/>
		<stop offset="0.4563" style="stop-color:#919291"/>
		<stop offset="0.56" style="stop-color:#828281"/>
		<stop offset="0.7552" style="stop-color:#696867"/>
		<stop offset="0.86" style="stop-color:#5F5E5D"/>
	</linearGradient>
	<path id="XMLID_45_" class="st2" d="M0,54.8h27.7l58.6,92.7h0.4V54.8h30.9v153.9H89.8l-58.5-93.3h-0.4v93.3H0V54.8z"/>
</g>
<linearGradient id="XMLID_18_" gradientUnits="userSpaceOnUse" x1="530.0247" y1="54.8334" x2="530.0247" y2="208.7562">
	<stop offset="0" style="stop-color:#83AC41"/>
	<stop offset="0.26" style="stop-color:#A1BD3A"/>
	<stop offset="0.2812" style="stop-color:#9AB83C"/>
	<stop offset="0.359" style="stop-color:#87AC3F"/>
	<stop offset="0.4358" style="stop-color:#7CA440"/>
	<stop offset="0.51" style="stop-color:#78A241"/>
	<stop offset="0.81" style="stop-color:#5C803A"/>
</linearGradient>
<path id="XMLID_89_" class="st3" d="M471.2,54.8h27.7l58.6,92.7h0.4V54.8h30.9v153.9H561l-58.5-93.3h-0.4v93.3h-30.9V54.8z"/>
<linearGradient id="XMLID_19_" gradientUnits="userSpaceOnUse" x1="651.981" y1="54.8334" x2="651.981" y2="208.7562">
	<stop offset="0" style="stop-color:#83AC41"/>
	<stop offset="0.26" style="stop-color:#A1BD3A"/>
	<stop offset="0.2812" style="stop-color:#9AB83C"/>
	<stop offset="0.359" style="stop-color:#87AC3F"/>
	<stop offset="0.4358" style="stop-color:#7CA440"/>
	<stop offset="0.51" style="stop-color:#78A241"/>
	<stop offset="0.81" style="stop-color:#5C803A"/>
</linearGradient>
<path id="XMLID_91_" class="st4" d="M636.5,84.3h-34.7V54.8h100.3v29.5h-34.7v124.4h-30.9V84.3z"/>
<linearGradient id="XMLID_20_" gradientUnits="userSpaceOnUse" x1="413.2028" y1="-1.919034e-09" x2="413.2028" y2="261.7349">
	<stop offset="0.2218" style="stop-color:#78A241"/>
	<stop offset="0.3689" style="stop-color:#A1BD3A"/>
	<stop offset="0.3887" style="stop-color:#9AB83C"/>
	<stop offset="0.4616" style="stop-color:#87AC3F"/>
	<stop offset="0.5336" style="stop-color:#7CA440"/>
	<stop offset="0.6031" style="stop-color:#78A241"/>
	<stop offset="0.9005" style="stop-color:#5C803A"/>
</linearGradient>
<polygon id="XMLID_126_" class="st5" points="456,84.6 456,54.8 376.2,54.8 376.2,0 370.4,0 370.4,54.8 370.4,208.8 370.4,261.7   376.2,261.7 376.2,208.8 456,208.8 456,179.4 386.4,179.4 386.4,146.4 445.6,146.4 445.6,116.3 386.4,116.3 386.4,84.6 "/>
</svg>
