<?xml version="1.0" encoding="utf-8"?>
<!-- Generator: Adobe Illustrator 19.0.0, SVG Export Plug-In . SVG Version: 6.00 Build 0)  -->
<svg xmlns="http://www.w3.org/2000/svg" xmlns:xlink="http://www.w3.org/1999/xlink" version="1.1" id="wazdan" x="0px" y="0px" viewBox="-288 510.3 702.1 261.7" style="enable-background:new -288 510.3 702.1 261.7;" xml:space="preserve" width="65" height="35">
<style type="text/css">
	.st0{fill:#D02026;}
</style>
<polygon id="XMLID_3414_" class="st0" points="44,569.2 14.3,694 43.2,694.1 43.2,714.2 -8.5,714.2 "/>
<path d="M363.1,713.5l0.3-154.3l34.6,60.4l0.1-53h16.1l0,147l-16,0l-0.1-64.8l-18.8-31.1l0,95.9H363.1L363.1,713.5z M-257.6,644  l-13-77.4l-17.5,0.1l30.5,157.5l15.4-84l17.2,84l29-157.5l-16.6-0.1l-12.5,77.5l-17.1-84.1L-257.6,644L-257.6,644z M-9.3,566.4  l0,19.4l29.1,0c0,0-29,119.6-29.3,123.8c1.2-4,51.7-143.1,51.7-143.1L-9.3,566.4L-9.3,566.4z M-77.1,592.7c0,40.2,0,80.5,0,120.8  c-5.5,0-11,0-16.4,0c0-10.1,0-20.3,0-30.4c-6.5,0-12.9,0-19.4,0c0,10.1,0,20.3,0,30.4c-5.4,0-10.8,0-16.1,0c0-10.1,0-20.2,0-30.3  c-4.7-0.1-9.4-0.1-14.1-0.3c-3-4.9-5.8-10-8.7-15c7.6-0.1,15.2-0.1,22.8,0c0-25,0-50.1,0-75.1c0-7.6,1.7-15.6,6.8-21.4  c9.8-11.7,30.8-11.6,39.7,1C-78.2,578.2-77,585.7-77.1,592.7z M-102.9,578.6c-5.2,0-9.8,4.2-9.8,9.8c-0.4,26.5,0,53-0.2,79.4  c6.4,0.1,12.9,0.1,19.4,0.1c0-25.7,0-51.4,0-77.1C-93.3,587.2-94.8,578.6-102.9,578.6z M287.8,594.7c0,39.6,0,118.8,0,118.8h-16.2  l0-30.4l-19.5,0l0,30.4l-16.3-0.1v-30.3h-13.7l-9.3-15.2l23,0c0,0,0-50,0-75.1c0.1-9.5,3-20.3,11.6-25.7c11.3-7.5,29.6-5.4,36.4,7.3  C287.5,580.5,287.9,587.8,287.8,594.7z M271.7,667.9c0,0-0.4-48.3-0.4-75.2c0-5.8-2.7-13.5-9.3-13.5c-9.8,0-9.8,9.6-9.8,13.5  c0,25,0,75.2,0,75.2L271.7,667.9z M147.2,679.7c-9.8,18.1-26.6,31.6-45.6,39.1c-0.2-52.4-0.1-104.8,0-157.2  c25.5,9.7,47.1,31.4,53,58.5C158.6,640,157,661.7,147.2,679.7z M140.5,641.3c0-22-9.3-37.8-23.1-51c0,0,0,0,0-0.1h-0.1  c0,0,0,0,0.1,0.1c-0.1,33.1,0,66.3-0.1,99.4C118.1,689.4,140.5,673.9,140.5,641.3z"/>
</svg>
