<?xml version="1.0"?>
<svg xmlns="http://www.w3.org/2000/svg" width="60" height="40" fill="none" stroke-miterlimit="10" viewBox="0 0 5480 5433"><path d="M1637.77 3855.66l801.73-1110.3-815.15-1157.28h533.37l566.9 764.8 556.85-771.52h147.6l828.57-1123.73c-436.1-288.48-956.04-456.2-1519.6-456.2C1225.17 4.784.773 1219.1.773 2718.5c0 872.15 415.96 1650.38 1063.377 2146.83l694.38-1009.68h-120.76zm-174.43-181.14H916.553c-6.71 0-10.064-6.7-10.064-10.06V2010.73c0-130.82-50.317-174.43-318.678-174.43-6.71 0-10.063-6.7-10.063-10.06V1638.4c0-6.7 6.71-10.07 10.063-10.07h462.92c311.97 0 426.02 144.24 426.02 426.02v1610.12c0 6.7-6.7 10.06-13.4 10.06z" fill="#008c47" stroke="#316937"/><path d="M4458.9 605.227l-717.87 979.493h137.54l-801.73 1106.96 805.08 1157.27h-546.78l-556.85-741.32-543.43 751.4h-154.3L1292.26 5023c419.3 261.65 915.78 409.24 1449.14 409.24 1512.88 0 2737.28-1214.3 2737.28-2713.73 0-852.02-399.2-1613.47-1019.77-2113.283zm707.8 3069.293l-1237.8 10.07c0-144.24-6.7-248.23 0-593.74 0-53.67 63.73-154.3 130.82-218.03 254.94-248.23 657.5-472.98 657.5-637.34V2034.2c0-97.28-23.5-184.5-144.25-181.14-214.7 3.36-164.37 140.9-164.37 298.55 0 3.35-3.35 6.7-3.35 10.06l-449.5 332.1c-6.7 6.7-20.12 0-20.12-10.07-3.36-171.07-26.84-372.34-6.7-479.68 46.96-241.52 258.3-395.82 634-392.47 426.02 3.36 583.68 167.72 607.16 281.77 30.2 161.02 30.2 318.67 6.7 432.73-30.2 140.88-201.27 298.54-472.98 523.3-157.66 130.82-268.36 248.22-271.72 298.54-3.35 70.44 0 191.2 3.36 228.1 0 6.7 6.7 10.06 13.4 10.06h721.22c6.7 0 13.42 6.7 13.42 13.42v265c-6.7 6.7-10.06 10.06-16.77 10.06z" fill="#99989a" stroke="#636562"/></svg>
