<?xml version="1.0" encoding="utf-8"?>
<!-- Generator: Adobe Illustrator 19.0.0, SVG Export Plug-In . SVG Version: 6.00 Build 0)  -->
<svg version="1.1" id="Слой_1" xmlns="http://www.w3.org/2000/svg" xmlns:xlink="http://www.w3.org/1999/xlink" x="0px" y="0px"
	 viewBox="0 0 585.9 161" style="enable-background:new 0 0 585.9 161;" xml:space="preserve">
<style type="text/css">
	.st0{fill:#007CBA;}
	.st1{fill:#DD2027;}
	.st2{fill:#FFFFFF;}
</style>
<path id="XMLID_35_" class="st0" d="M541.7,124.5H23.1c-12.8,0-19.3-6.5-21.9-14c-1.6-4.6-1.6-9.6-0.3-14.3l9.6-34.6
	c2.7-9.3,10.7-24.8,30.3-24.8c0,0,391.1,0,521.4,0c18,0,25.9,12.4,23,26.2C583.2,73,575,99.5,575,99.5
	C571.8,114.3,559.4,124.5,541.7,124.5z"/>
<path id="XMLID_36_" d="M467.8,161c-34.5,0-103.5,0-138,0c-20.8,0-40.8-19.1-38-39.7c3-22,15.4-56.5,22.3-77.6
	c8.2-25.2,33-43.7,53.7-43.7h143c30.1,0.7,42.8,28.5,36.7,48.1c-6.6,21.3-17.2,54.9-23.7,74.4C517.7,140.7,488.5,161,467.8,161z"/>
<path id="XMLID_50_" class="st1" d="M513.1,12.1c0,0-22.8,0.1-31.1,0c-22.6-0.3-41.5,15.2-47.1,33L419,95.4
	c-17.7,43.7,4.9,51.1,20.5,51c9.4,0,18.7,0,26,0c19.2,0,40.3-13.9,45.9-31.7L533,45.9C538.8,29.9,529.3,12.1,513.1,12.1z
	 M478.2,113.6H448l21-66.8h30.2L478.2,113.6z"/>
<path id="XMLID_46_" class="st1" d="M362.3,96.6h16.7l-5.4,16.9H341l4.5-14.2l0,0l0.8-2.5h0L357,63.6l5.3-16.7h62.4l0.3-1l9.1-31.8
	c0,0-51.8,0.1-60.1,0c-22.6-0.3-41.1,16.9-45.1,31L313,95.4c-19.9,46.8,6.3,51,20.5,51c9.4,0,18.7,0,26,0
	c23.5,0,40.3-14.9,45.9-32.7l14.5-50.2h-47L362.3,96.6z"/>
<path id="XMLID_43_" class="st2" d="M264.5,104.6l6.9-24.1l-12.7-0.1l-7,24.1l-14.1,0.1l7.7-25.1c2.3-6.5,9.1-12.8,18.2-12.7
	c3.3,0,13.1,0,13.1,0c7.3,0,11,6.1,9.3,13.2l-7.6,24.5L264.5,104.6z"/>
<polygon id="XMLID_45_" class="st2" points="247.6,68.5 229.1,68.5 234.8,52.5 253,52.5 "/>
<path id="XMLID_51_" class="st2" d="M204.7,77.9h-12.3l8.3-26.7h-14.1L178,78.8c-1.6,7.1,2,13.2,9.3,13.2c0,0,0,0,0.1,0l-3.9,12.6
	h13.8l4-12.6c8.7-0.3,15.2-6.3,17.4-12.6l8.9-28.2h-13.8L204.7,77.9z"/>
<path id="XMLID_57_" class="st2" d="M167.9,51.2c0,0-9.8,0-13.1,0c-9.1-0.1-16,6.1-18.2,12.7l-13.3,40.8h14l4.3-13.2l12.4,0.1
	l-3.7,13.1h13.5l13.5-40.3C178.9,57.3,175.3,51.2,167.9,51.2z M158.4,77.9h-13.2l4.5-13.2h13L158.4,77.9z"/>
<polygon id="XMLID_53_" class="st2" points="94,51.2 77,104.6 117.8,104.6 126.5,77.9 112.8,77.9 108.6,91.1 95.9,91.1 108.3,51.2 
	"/>
<path id="XMLID_60_" class="st2" d="M75,51.2H48.6l-17.2,53.5h14l4.3-13.2L62,91.5c0,0,12.8,0.6,17.9-12.5
	c1.6-4.1,4.7-14.3,4.7-14.3C87,56.6,82.4,51.2,75,51.2z M66.5,77.9H53.4l4.5-13.2h13L66.5,77.9z"/>
</svg>
