<?xml version="1.0"?>
<svg xmlns="http://www.w3.org/2000/svg" width="60" height="40" fill="none" viewBox="0 0 160 50"><path d="M6.498 36.4c.4-1.4 1.7-4.4 4-7.5 1.9-2.6 6.1-5.8 6.1-5.8v13.3h-10.1zm93.3-14.5V19h15.7v2.9h-15.7zm-59.8 26.3V24.5h-3.1v23.7h3.1zm67.4-32c4.5 0 8.1-3.6 8.1-8.1s-3.6-8.1-8.1-8.1-8.1 3.6-8.1 8.1 3.7 8.1 8.1 8.1zm-24.5 11.1v-2.7h-30v2.8h5.1v20.8h2.6V27.4l22.3-.1zm76.3-3.2h-14.8v3h5.8v21.1h3v-21h6v-3.1zm-139.6-7.2s-8 4.9-13 12.1c-5.2 7.6-6.7 19.1-6.7 19.1h3.4l1-4.9 1-3.9h11.3v8.8h2.9l.1-31.2zm8.6 7.9c-2-.8-5.6-.5-5.6-.5v23.9h3V41h1s1.4 3.9 3.4 5.4c1.6 1.3 4.9 2 4.9 2v-2.9s-2.7-.9-3.9-2.2c-1-1-1.4-1.7-1.8-3 3.2-1.5 4.8-3.9 4.9-7.6 0-4.9-2.3-6.4-5.9-7.9zm2.9 7.4c0 5-5.4 5.6-5.4 5.6V27.3c0-.1 5.4.3 5.4 4.9zm39.5-8.3c2.3-2.2 5.5-3.5 9-3.5 7.2 0 13.1 5.8 13.1 13s-5.9 13-13.1 13-13.1-5.8-13.1-13c0-1.9.3-3.6 1-5.2h-3.6c-.6 1.7-.7 3.3-.7 5.2 0 9 7.3 16.3 16.4 16.3 9 0 16.4-7.3 16.4-16.3s-7.3-16.3-16.4-16.3c-5.5 0-10.4 2.6-13.4 6.8h4.4zm45 21.2c-1.6 1.1-3.5 1.7-5.6 1.7-5.6 0-10.1-4.5-10.1-10s4.5-10 10.1-10c2.1 0 4 .6 5.6 1.7v-2.9c-1.7-.8-3.6-1.3-5.6-1.3-7 0-12.6 5.6-12.6 12.6 0 6.9 5.7 12.6 12.6 12.6 2 0 4.2-.4 5.8-1.2l-.2-3.2zm9.6-20.4c-2.1-.7-5.6-.5-5.6-.5v24h3v-7.3h1s1.4 3.9 3.4 5.4c1.6 1.3 4.9 2 4.9 2v-2.9s-2.7-.9-3.9-2.2c-1-1-1.4-1.7-1.8-3 3.2-1.5 4.8-3.9 4.9-7.6 0-4.9-2.6-6.9-5.9-7.9zm2.9 7.4c0 5-5.4 5.6-5.4 5.6V27.2c.1-.1 5.4.2 5.4 4.9zm5.8-7.5v23.5h2.7v-6.4h7.9s.1.7.3 1.2c.3.9.3 1.5.4 2.5.1 1.1.1 2.7.1 2.7h3s0-3.6-.4-5.8c-.5-2.6-1.3-3.9-2.4-6.4-3.4-7.5-11.6-11.3-11.6-11.3zm9.2 14.1v.2h-6.6v-9.3s2.4 2 3.8 4.1c1.3 1.8 2.8 5 2.8 5zm-98.2.2c1.1 1.1 3.2 3.2 3.2 4.8 0 1.7-.9 3.2-2.1 4.5h3.7c.8-1.3 1.4-2.8 1.4-4.5 0-2.9-2.6-5.4-4.2-6.9-.3-.3-.6-.5-.7-.7-1.4-1.7-2.1-3.4-2.1-5.3 0-2.9 2.4-3.2 3.4-3.2 1.7 0 3.1 1.1 4.2 2.2v-3.9c-1.2-.8-2.6-1.3-4.2-1.3-3.8 0-6.4 2.5-6.4 6.2 0 2.6.9 5 2.8 7.2.4.3.7.5 1 .9z" fill="#003a75"/></svg>
