<?xml version="1.0"?>
<svg xmlns="http://www.w3.org/2000/svg" viewBox="0 0 337.33 337.09" width="60" height="40"><defs><style>.cls-1{fill:#4f5656;}.cls-2{fill:#545c5c;}.cls-3{fill:#545d5c;}.cls-4{fill:#535b5b;}.cls-5{fill:#565d5e;}.cls-6{fill:#525c5a;}.cls-7{fill:#545d5d;}.cls-8{fill:#535c5b;}.cls-9{fill:#535d5b;}.cls-10{fill:#555e5d;}.cls-11{fill:#515b59;}.cls-12{fill:#505b58;}.cls-13{fill:#545e5c;}.cls-14{fill:#565e5f;}.cls-15{fill:#555d5e;}.cls-16{fill:#515c5a;}.cls-17{fill:#505c58;}.cls-18{fill:#555e5e;}.cls-19{fill:#505b59;}.cls-20{fill:#515c59;}.cls-21{fill:#4f5b57;}.cls-22{fill:#535d5c;}.cls-23{fill:#565e5e;}.cls-24{fill:#4e5c56;}.cls-25{fill:#5b6263;}.cls-26{fill:#586061;}.cls-27{fill:#585f60;}.cls-28{fill:#4d5b55;}.cls-29{fill:#555d5d;}.cls-30{fill:#585f5f;}.cls-31{fill:#515d5a;}.cls-32{fill:#515d59;}.cls-33{fill:#575f60;}.cls-34{fill:#744826;}.cls-35{fill:#fefefe;}.cls-36{fill:#936138;}.cls-37{fill:#9f2f29;}.cls-38{fill:#fdfdfd;}.cls-39{fill:#02693d;}.cls-40{fill:#ee2d2f;}.cls-41{fill:#ed2d2f;}.cls-42{fill:#f3c04a;}.cls-43{fill:#f3c04b;}.cls-44{fill:#84562f;}.cls-45{fill:#7c4f2b;}.cls-46{fill:#7c4d2a;}.cls-47{fill:#7d4d2b;}.cls-48{fill:#7d4f2b;}.cls-49{fill:#e7bb49;}.cls-50{fill:#80522c;}.cls-51{fill:#7f522c;}.cls-52{fill:#784828;}.cls-53{fill:#7f512c;}.cls-54{fill:#83542e;}.cls-55{fill:#7b4b2a;}.cls-56{fill:#794a29;}.cls-57{fill:#7b4c2a;}.cls-58{fill:#82542e;}.cls-59{fill:#7c4c2a;}.cls-60{fill:#7a4a29;}.cls-61{fill:#774627;}.cls-62{fill:#81532d;}.cls-63{fill:#fed452;}.cls-64{fill:#d08c40;}.cls-65{fill:#85562f;}.cls-66{fill:#d79244;}.cls-67{fill:#d4352a;}.cls-68{fill:#070706;}.cls-69{fill:#0e0e0e;}.cls-70{fill:#040404;}.cls-71{fill:#050505;}.cls-72{fill:#a9753c;}.cls-73{fill:#8cc341;}.cls-74{fill:#04944a;}.cls-75{fill:#cbd62c;}.cls-76{fill:#80b83f;}.cls-77{fill:#010000;}.cls-78{fill:#e0a062;}.cls-79{fill:#e8b776;}.cls-80{fill:#e6b171;}.cls-81{fill:#e3a96a;}.cls-82{fill:#e2a567;}.cls-83{fill:#eabc7a;}.cls-84{fill:#e0a063;}.cls-85{fill:#ecc07e;}.cls-86{fill:#e4ad6e;}.cls-87{fill:#e8b777;}.cls-88{fill:#e6b172;}.cls-89{fill:#e2a566;}.cls-90{fill:#e2a869;}.cls-91{fill:#dea364;}.cls-92{fill:#d89458;}.cls-93{fill:#f0ddbf;}.cls-94{fill:#f4ddb4;}.cls-95{fill:#f0dcbe;}.cls-96{fill:#f3e3c8;}.cls-97{fill:#e2ad72;}.cls-98{fill:#f4e4c9;}.cls-99{fill:#f4e4cc;}.cls-100{fill:#d99959;}.cls-101{fill:#fcfcfc;}.cls-102{fill:#dd9e5f;}.cls-103{fill:#d58d50;}.cls-104{fill:#e87c76;}.cls-105{fill:#e26257;}.cls-106{fill:#dc4b3d;}.cls-107{fill:#d3d92a;}.cls-108{fill:#d6da29;}.cls-109{fill:#24201f;}.cls-110{fill:#e2a668;}.cls-111{fill:#ecd1a7;}.cls-112{fill:#d69053;}.cls-113{fill:#f1d3a4;}.cls-114{fill:#f3ad69;}.cls-115{fill:#f6f3ed;}.cls-116{fill:#f0ab68;}.cls-117{fill:#795446;}.cls-118{fill:#dea46b;}.cls-119{fill:#ebd3aa;}.cls-120{fill:#e1ab72;}.cls-121{fill:#f8f6f3;}.cls-122{fill:#dc9d60;}.cls-123{fill:#e5b173;}.cls-124{fill:#da975a;}.cls-125{fill:#e2a96a;}.cls-126{fill:#f9f8f7;}.cls-127{fill:#f1b571;}.cls-128{fill:#f6f5f4;}.cls-129{fill:#eac491;}.cls-130{fill:#da985a;}.cls-131{fill:#e87d77;}.cls-132{fill:#e8e7e6;}.cls-133{fill:#d3d3d2;}.cls-134{fill:#f1f0ee;}</style></defs><title>Gameburger</title><g id="&#x421;&#x43B;&#x43E;&#x439;_2" data-name="&#x421;&#x43B;&#x43E;&#x439; 2"><g id="&#x421;&#x43B;&#x43E;&#x439;_1-2" data-name="&#x421;&#x43B;&#x43E;&#x439; 1"><path class="cls-1" d="M168.44,337.07C77,338-.94,261.57,0,166.92.9,78.23,72.22-.27,172,0c87.29.24,165.76,75.54,165.33,169.39C336.91,261.07,260.59,338.46,168.44,337.07Z"/><path d="M7.91,191c-1.24-7-.19-14.17-1.69-21.14A16.28,16.28,0,0,1,6,163.55c-.41-7.13.76-14.14,1.54-21.18a152.87,152.87,0,0,1,4.75-19.79c.93-3.17,1.48-6.46,2.83-9.5l0,.06c1.26-1.45.78-3.67,2.26-5,2.83-2.37,2.9-6.15,4.65-9.07-.59-1.77.74-2.83,1.5-4.1.33-1,.51-2.17,1.72-2.62L27,89c.16-2.73,2.45-4.47,3.18-6.94v.11c.84-.92,1.06-2.25,2-3.08l0,.08a3.84,3.84,0,0,1,2.06-1.86L47,61c3.62-6.35,9.23-10.75,14.79-15.2,3-3.09,6.12-6.13,10.23-7.82l2.31-1.77c1.17-1.88,3.25-2.69,4.81-4.12l-.06,0a3.87,3.87,0,0,1,3-1.06l3.17-1.91c1-1.19,1.95-2.45,3.78-2.18l3.29-1.78A9,9,0,0,1,99,22l13.28-5.77c3.22-2.65,7.7-2.23,11.07-4.52a19.36,19.36,0,0,0,6.15-1.32,169,169,0,0,1,78.9,0c2.46.92,5.12,1.2,7.55,2.21,3,1.16,6.48,1.23,9.09,3.49,15.06,5.75,28.73,14,42,23.06,2.92,2.06,6.18,3.72,8,7a3.64,3.64,0,0,0,2.68,2.09c5.07,3.33,9,7.82,12.66,12.57a76.82,76.82,0,0,1,9.83,12,12.66,12.66,0,0,1,2.28,3.21,29.12,29.12,0,0,1,4,6,19.43,19.43,0,0,1,2.21,3.4c3.68,6.07,7.34,12.15,9.29,19.06a1.15,1.15,0,0,0,.16.74c1.9,2.3,3.43,4.75,3.07,7.93l2.71,7.26c4.35,11.54,6.06,23.6,7.13,35.79.16,1.8-.17,3.65.56,5.4-.1,4.65,0,9.3-.07,13.95-.8,2.77-.3,5.63-.54,8.45-.52,1.28,0,2.83-1,4l-2.8,16.28a6.45,6.45,0,0,1-1.2,5.73c-1.58,4.63-3.58,9.14-3.91,14.12-1.09,3.07-2.24,6.12-3.55,9.11-1.45,1.27-.67,3.75-2.59,4.76l-6,11.15c0,2.24-1.23,3.85-2.64,5.38-3.07,4.81-5.67,10-10.2,13.68l-6.85,8.08a49.47,49.47,0,0,1-15.11,15l-12.23,9.83c-1.16,2.42-3.66,3.16-5.64,4.55a47.86,47.86,0,0,1-8,5c-2,1-3.56,2.94-6.1,2.71l-5.24,2.74a6.05,6.05,0,0,1-4.79,2.19c-1.38.85-3.72.21-4.06,2.65-1.63,1.32-3.83.81-5.58,1.76-2,.95-4.08,1.81-6.4,1.51a11.94,11.94,0,0,0-6.18,1.88,6.44,6.44,0,0,1-5.79,1.24c-1.17-.1-2.33-.18-3.24.79-4.73,2.29-10,2.39-15,2.88a187.32,187.32,0,0,1-65.38-5.49,2.59,2.59,0,0,1-1.42-1.31l-8-2.89c-4.66-.89-9.14-2.23-12.88-5.35L96,314.13a6.91,6.91,0,0,1-4-1.16c-3.71-3.89-8.55-6.09-13.06-8.78-4.15-2-8-4.43-10.92-8.15L59,288.12a11.82,11.82,0,0,1-7.11-7l-3.88-4c-1.6-.78-2.66-2.18-3.91-3.36-1.19-3.48-3.65-6.07-6.05-8.71-1.62-.86-2.89-2-3-4a10.85,10.85,0,0,0-2.85-4.27,3.84,3.84,0,0,1-2.06-1.86l0,.1c-1.18-2.26-3.06-4.18-3.27-6.9L23.09,241c-.78-.41-1.55-.82-1.08-1.93a13.74,13.74,0,0,0-2.8-6.21c-1.66-.79-1.28-2.65-2-3.91l0,0c-2.72-4-2.73-9-5-13.06V216c-.62-2.62-1.59-5.18-1.17-8a16.29,16.29,0,0,0-1.81-7.26A16.45,16.45,0,0,1,7.91,191Z"/><path class="cls-2" d="M120.06,324c25.31,6.79,50.9,8.8,76.86,4.57,1.63-.27,3.28-.43,4.92-.65,1,.3,2.44.76.15,1.22-5.33,1.07-10.67,2.47-16.06,2.77-21.28,1.15-42.46.58-63.1-5.72C121.54,325.82,120.15,325.84,120.06,324Z"/><path class="cls-3" d="M209.07,11.1a181.64,181.64,0,0,0-36.28-4.63C158,6,143.48,8,129.07,11.1q-.52-.34-.35-.69t.34-.35c8.21-3.24,17-4.26,25.56-4.76,18-1.07,36.06-.5,53.71,4.12.28.07.49.42.73.64s.46.46.34.69S209.19,11.1,209.07,11.1Z"/><path class="cls-4" d="M330.91,161.13c-1.49-10.42-2-21-4.8-31.22-.86-3.18-1.46-6.42-2.19-9.63,1.66-1.08,1.65.73,1.78,1.29,3,13,6.6,26,6.38,39.5A.75.75,0,0,1,330.91,161.13Z"/><path class="cls-4" d="M15.17,113.09c-1.13,8.81-4.3,17.11-6.43,25.68a23.37,23.37,0,0,0-.63,3.31q-.52.68-1,0C8.84,132.15,10.53,122.2,15.17,113.09Z"/><path class="cls-5" d="M7.07,142.07h1L6.18,165.22c-.61-.14-.71-.78-1.1-1.14C4.58,156.63,5.87,149.35,7.07,142.07Z"/><path class="cls-6" d="M318,104.34,308,85.08a.65.65,0,0,1,1,0C313.17,91,317.37,96.82,318,104.34Z"/><path class="cls-7" d="M275.09,291.12l15.11-15c.12.11.36.25.35.33-.67,3.11-12.2,14.55-15.15,15C275.32,291.49,275.2,291.24,275.09,291.12Z"/><path class="cls-8" d="M62.08,46.07,47,61c-.23-.4-.73-1-.64-1.15,4.5-5,8.49-10.61,14.69-13.83Q61.58,45.43,62.08,46.07Z"/><path class="cls-9" d="M297.05,268,307,253.71a.85.85,0,0,1,.13,1.36C304.77,260.18,302.64,265.45,297.05,268Z"/><path class="cls-10" d="M290.16,61,277.72,48.17c6.09,2.59,10,7.45,13.34,12.89Q290.6,61.71,290.16,61Z"/><path class="cls-8" d="M290.16,61l.9,0c4.42,3.1,7.42,7.39,10,12a.68.68,0,0,1-1.12,0Z"/><path class="cls-8" d="M68.11,296,79,304.19C75,304,69.4,299.8,68.11,296Z"/><path class="cls-8" d="M62.08,46.07h-1c2.25-3.79,6.08-5.86,9.33-8.56.55-.46,1.23-.1,1.64.52Z"/><path class="cls-11" d="M99.16,315.79,112,321.13C108.37,321.95,101.07,318.92,99.16,315.79Z"/><path class="cls-12" d="M123.37,12.23c-3.36,2.23-7.24,3-11.06,4-.26-.36-2.33-.17-.66-1a25.86,25.86,0,0,1,10.41-3.08Q122.81,11.34,123.37,12.23Z"/><path class="cls-13" d="M12.16,216c3.4,3.69,3.57,8.62,5,13.06C13.43,225.47,13.13,220.59,12.16,216Z"/><path class="cls-14" d="M330.91,161.13l1.17-.06q0,8,0,16a.87.87,0,0,1-1.19.11,1.24,1.24,0,0,1,.11-1.28Z"/><path class="cls-15" d="M7.91,191c.32,3.28,1.61,6.43,1.29,9.79-.23.45-.75,1.56-.86,1.05-.8-3.63-1.25-7.33-1.82-11Z"/><path class="cls-16" d="M331.13,177l.94,0c.54,5.09-1.26,10-1.15,15.39-1.36-1.68-.58-3.25-1-4.62l.19-3.79C331.36,181.83,329.75,179.23,331.13,177Z"/><path class="cls-12" d="M225.06,16a38.43,38.43,0,0,1-9-3q-.36-.32-.24-.63t.25-.31C219.13,13.24,223.32,11.83,225.06,16Z"/><path class="cls-3" d="M275,46.08c-2.73-2.27-5.89-4.05-8-7C270.88,40.06,274,41.92,275,46.08Z"/><path class="cls-17" d="M249.06,310l8-5a.63.63,0,0,1,.27.7q-.12.35-.25.35a14.47,14.47,0,0,1-8,5q-.46-.34-.32-.69T249.06,310Z"/><path class="cls-18" d="M51.93,281.12l7.11,7C55.58,288.07,52.19,284.73,51.93,281.12Z"/><path class="cls-19" d="M318,232.78c1.19-3,1.56-6.4,4.06-8.81a13.46,13.46,0,0,1-4,10.11.92.92,0,0,1-.31-.84Q317.86,232.78,318,232.78Z"/><path class="cls-17" d="M99,22l-6.69,3.29C93.09,22.3,95.26,21.23,99,22Z"/><path class="cls-20" d="M257.07,306.07l0-1.05,5.8-4.08C262.82,304.79,259.38,304.79,257.07,306.07Z"/><path class="cls-6" d="M321.22,113l-3.07-7.93C321.33,106.88,322.88,109.32,321.22,113Z"/><path class="cls-5" d="M216.08,12.06q0,.47,0,.94l-7-1.91v-1A15.26,15.26,0,0,1,216.08,12.06Z"/><path class="cls-21" d="M79.17,32.13c-.63,2.5-2.9,3.11-4.81,4.12C74.32,33,77,32.88,79.17,32.13Z"/><path class="cls-22" d="M26.94,248.12c1.16,2.27,3.46,4,3.27,6.9C27.79,253.35,26.23,251.27,26.94,248.12Z"/><path class="cls-23" d="M205.08,327.16l5.79-1.24C209.52,329,207.42,328.66,205.08,327.16Z"/><path class="cls-8" d="M306,82.08l-4-6a.66.66,0,0,1,1,0,10.2,10.2,0,0,1,4,6A.6.6,0,0,1,306,82.08Z"/><path class="cls-8" d="M30.2,82.11C30.5,85,28.39,86.88,27,89,25.68,85.63,28.67,84.2,30.2,82.11Z"/><path class="cls-5" d="M325.95,209.84l1.2-5.73c2.07,2.38.49,4.68-.37,6.84C326.57,211.47,326.17,210.3,325.95,209.84Z"/><path class="cls-24" d="M307.09,255.07l-.13-1.36L309.9,249C311.89,252.36,308.93,253.46,307.09,255.07Z"/><path class="cls-14" d="M11,208.1a18.41,18.41,0,0,1,1.17,8C10.93,213.52,9,211.09,11,208.1Z"/><path class="cls-9" d="M249.06,310l0,1c-1.88,1-3,4.23-6,2.12Z"/><path class="cls-5" d="M123.37,12.23l-1.31-.16a15.31,15.31,0,0,1,7-2v1A10.57,10.57,0,0,1,123.37,12.23Z"/><path class="cls-9" d="M233.09,318.12l4.79-2.18C237.58,318.15,236.24,318.76,233.09,318.12Z"/><path class="cls-25" d="M5.08,164.07l1.1,1.14a6.48,6.48,0,0,1,0,4.7C3.53,168.42,5.89,165.94,5.08,164.07Z"/><path class="cls-8" d="M35.1,261.05l3,4C35.62,264.81,33.78,264.12,35.1,261.05Z"/><path class="cls-26" d="M217.06,324l6-2q.52.33.35.67c-.11.22-.23.33-.35.33C221.19,324.15,219.43,326,217.06,324Z"/><path class="cls-6" d="M89.05,27,85.27,29.2C85.24,26.86,86.31,26.25,89.05,27Z"/><path class="cls-6" d="M44.14,273.75c2,.32,3,1.82,3.91,3.36C45,278,45.26,275.08,44.14,273.75Z"/><path class="cls-27" d="M223.07,323.07q0-.5,0-1c1.81-1.24,3.92-1.12,6-1.29C227.51,322.74,225.3,322.93,223.07,323.07Z"/><path class="cls-28" d="M23.93,95.06l-1.89,4c-1.89-1.91-.58-3,1-4C23.35,94.58,23.64,94.56,23.93,95.06Z"/><path class="cls-29" d="M17.15,229a5.93,5.93,0,0,1,2,3.91C15.48,233.17,17.73,230.33,17.15,229Z"/><path class="cls-30" d="M318,232.78l.1,1.29c-.17,1.58.36,3.57-2.19,3.76Z"/><path class="cls-31" d="M17.38,108.12c-.26,1.9.06,4.05-2.26,5C15.06,111.11,15.3,109.2,17.38,108.12Z"/><path class="cls-32" d="M23.93,95.06h-.85c.48-1.11-1.06-3.83,2.18-2.73Z"/><path class="cls-24" d="M306,82.08l1,0a3,3,0,0,1,2,3l-1,0Z"/><path class="cls-24" d="M303.07,76.06l-1,0-2.07-3,1.12,0A3,3,0,0,1,303.07,76.06Z"/><path class="cls-24" d="M82.09,31.11c-.71,1.17-1.87,1.06-3,1.06C79.81,31,80.31,29.25,82.09,31.11Z"/><path class="cls-24" d="M30.19,254.92a2.12,2.12,0,0,1,2.06,1.86C30,257.92,30.3,256.18,30.19,254.92Z"/><path class="cls-24" d="M32.22,79.14c0,1.5-.07,2.9-2,3.08A2.6,2.6,0,0,1,32.22,79.14Z"/><path class="cls-24" d="M34.25,77.36a2.12,2.12,0,0,1-2.06,1.86C32.3,78,32,76.22,34.25,77.36Z"/><path class="cls-33" d="M22,239.1,23.09,241l-.55,1.27C21.68,241.34,20.54,240.44,22,239.1Z"/><path class="cls-30" d="M92.08,313a5.24,5.24,0,0,1,4,1.16C94.15,315.69,93.18,314.11,92.08,313Z"/><path class="cls-34" d="M107.07,240.08a6.61,6.61,0,0,1-4-2c-1.39-1.84-3.39-2.85-5.35-3.9-1.63-.33-2.05-1.83-2.86-3a9.86,9.86,0,0,0-2.92-6A29.9,29.9,0,0,0,80.22,206a10.07,10.07,0,0,0-1.1-4.91c-.53-4.43.5-8.3,4-11.28,1.65-.82,2.93.13,4.09,1,8.4,6.43,18.17,8.79,28.45,9.59,2,.16,4,.4,5.61,1.74,11.6,9.69,24.94,8.84,38.37,5.87a28.88,28.88,0,0,1,13.11.06c13.1,2.89,26.13,3.23,37.94-4.86a7.63,7.63,0,0,1,4.75-1.19c11.14.35,21.32-2.85,30.86-8.42,1.78-1,3.41-2.9,5.88-1.65.7,3.46-1.84,5.15-4,6.89-8.77,7.11-19.2,9.72-30.15,10.49a28.79,28.79,0,0,0-11,2.81,49.19,49.19,0,0,1-35.95,3.18,20.15,20.15,0,0,0-10.78-.33,59.08,59.08,0,0,1-20.33,1.13c-7.82-1-15.35-2.75-21.67-7.89a4.5,4.5,0,0,0-2.76-1,76.73,76.73,0,0,1-21-3.41c1.63,3.66,4.72,5.43,8,6.88a93.74,93.74,0,0,0,29.81,7.44,392.36,392.36,0,0,0,60.88.84,207.1,207.1,0,0,0,32.65-4.25,62.79,62.79,0,0,0,22.44-9.41c4.33-3,8.13-6.38,9.5-11.77a3.34,3.34,0,0,1,2.2-2.53c2.7,5.47-.32,9.71-3,14a20.64,20.64,0,0,0-6,6c-2.81,3.21-2,7.56-3.45,11.18-.8,2-1.07,4.16-2.54,5.83-1.08,1.11-2.27,2.17-2.16,3.93-1.59,2.81-4.15,4.48-6.93,5.89a11.28,11.28,0,0,0-6.68,3.36l-2.17.94c-1.07,0-2.28-.34-2.88,1L222,244c-1.48-.74-2.77.84-4.23.33l.09.49c.48-.46.21,1,.36.34A63.32,63.32,0,0,1,201.06,249c-1-.87-2.19-.24-3.3-.61.5.39,1.26.11,1.56.77-1.94,1.29-4.13.78-6.23.89-2.1-1.1-4.31-.13-5.63-.46-1.48.22-.71,1.22-.93.59-.09-.24,0-.36.26-.41,1.23-.27,2.47-.58,3.54.43-2.63,1.46-5.48.69-8.24.85a146.88,146.88,0,0,0-24,0c-3.36-.28-6.85.75-10.08-.93,1.34-1,2.86-.4,3.37-.44-.51.15-2.06-.66-3.39.45a89.81,89.81,0,0,1-26-4.76,5.76,5.76,0,0,0-4.92-1.36l-2.21-.81c-.6-1.36-1.8-1-2.88-1l-2.2-.93C109.37,239.76,108.06,240.28,107.07,240.08Z"/><path class="cls-34" d="M216,103.23a53.75,53.75,0,0,1,11.06,7.84,66.9,66.9,0,0,0,11,11,34.18,34.18,0,0,1,5.84,8.07c.11,2.48,1.63,4.21,3.16,5.93a2.07,2.07,0,0,1,.93,2,2.29,2.29,0,0,0,1.19,2.82,11.45,11.45,0,0,1,1.83,7.18,51.87,51.87,0,0,0-.64,9.89c.41,2.38-1.33,3.63-2.64,5.12a12.93,12.93,0,0,1-1.85,1.52c-8.23,5.69-17.81,7.36-27.35,8.7a361.74,361.74,0,0,1-74.67,2.34c-14-.94-27.86-2.1-41.27-6.44a34.77,34.77,0,0,1-12.34-6.39,14,14,0,0,1-2.32-2A7.51,7.51,0,0,1,86.1,157c0-6.16-.48-12.38,3-18,1.64-.11.67-1.33.88-2.05a2.5,2.5,0,0,1,1-2.17c1.35-.44,1.46-1.51,1.38-2.69a80.52,80.52,0,0,1,26.64-27.32,4,4,0,0,0,3.12-1.77,5.09,5.09,0,0,1,3-1.92c1.21.23,2.22,0,2.74-1.26A7.38,7.38,0,0,1,132,97.94a6.51,6.51,0,0,0,4.87-2l2.22-.81A5.76,5.76,0,0,0,144,93.76c4.77-2.07,9.91-2.15,15-2.77.94.91,2.15.47,3.52.69-1.34-.33-2.56.22-3.5-.68a38.35,38.35,0,0,1,18.25,0c-.92.76-1.84.94-2.28.55,1.07.47,2.62,0,4.18-.53,7.28.7,14.48,1.8,21.21,4.89.49,1.5,1.75,1,2.8,1.07l2.19.93A35,35,0,0,0,216,103.23Z"/><path class="cls-35" d="M88.73,67.22c.25,2.86,2.3,4.94,3.41,7.41s2.42,4.74,3.37,7.21c1.14,2.94,2.32,6-.61,8.73s-5.73,1.53-8.7,0c-4.5-2.37-9.11-4.53-13.9-6.89-1,2.6.84,3.75,1.67,5.17,2.09,3.58,4.43,7,6.46,10.63,1.36,2.41.46,4.62-1.66,6.11a4.11,4.11,0,0,1-6.16-1q-9.48-13.43-18.69-27c-2.09-3.1-1-6.05,1.38-8.58s5-3.25,8.11-1.73c5.23,2.53,10.42,5.14,15.66,7.65.81.39,1.78,1.34,2.68.31s.06-1.81-.43-2.69C79,68.22,76.73,64,74.39,59.76c-2.14-3.84-1.93-7.47,1.46-10.34s7-2.68,10.4.2q11.28,9.45,22.61,18.85c2.49,2.07,3.62,4.48,1.43,7.3s-4.91,2.23-7.46.38c-3.5-2.53-6.92-5.18-10.43-7.7C91.42,67.75,90.63,66.31,88.73,67.22Z"/><path class="cls-35" d="M275.13,121.07c-13.87-.06-24.56-17.27-18.42-29.68,4.22-8.54,14.95-14.94,23.54-14,8.76.92,16.67,8.16,19.36,17.83a17.9,17.9,0,0,1,.72,4.41c.07,3.5-.4,7.11-4.78,7.4-4.21.28-4.28-3.28-4.62-6.3-.83-7.38-4-11.83-9.15-12.72-5.85-1-13.25,3.15-15.9,8.94-2.85,6.25,1.32,14,7.65,14.26,1.52.05,3.22.05,4.09-1.33s-.68-2.34-1.2-3.47c-.9-2-3.37-3.58-1.65-6.23,2.1-3.23,5.71-3.37,8-.19,2.11,3,4,6.09,6,9.19,2,3.29,1.29,6-1.89,8.09A20.8,20.8,0,0,1,275.13,121.07Z"/><path class="cls-35" d="M35.14,164.13C34.88,152,39.25,149,49.65,153.06c8,3.16,11.7,9.53,12.24,17.81.55,8.56-2.87,15.3-10.33,19.6-8,4.64-20.33,3.53-26.82-2.11s-9.13-17.28-5.56-26.22a16.65,16.65,0,0,1,2.8-4.67c1.62-1.87,3.72-2.82,6.2-1.4s2.36,3.73,1.47,6.06c-.41,1.08-1,2.09-1.45,3.17-2.74,6.89-1.44,12.45,3.58,15.44,5.45,3.24,14.54,2.1,18.53-2.33s3.28-11.82-1.21-14.49c-1.27-.75-2.66-1.74-4.15-.9s-.61,2.42-.74,3.67c-.1,1,0,2,0,3-.09,2.57-1.72,3.36-4,3.43s-4.39-.3-4.61-3.25C35.4,167.53,35.23,165.21,35.14,164.13Z"/><path class="cls-35" d="M174,37c7,4.06,9,7.57,7.92,13.56-1,5.68-5.19,9.05-12.7,9.81-4.45.45-8.94.51-13.42.52-3.74,0-5.71-1.82-5.76-5.84-.12-9.46-.53-18.92-.7-28.38-.11-5.88,1.47-7.48,7.21-7.63q5-.13,10,0c4.77.09,9.07,1.46,11,6.23C179.3,29.77,178.53,34,174,37Z"/><path class="cls-35" d="M293.2,182.41c-3.41,2.95-6.08,5.37-8.88,7.64s-6,4.08-8.63.39c-2.35-3.26-.17-5.92,2.59-8q5.41-4,10.85-8c.77-.56,2.12-.76,1.9-2-.27-1.55-1.79-1.17-2.86-1.29-2.64-.31-5.31-.45-7.95-.78-2.8-.35-4-2-3.72-4.84s1-4.91,4.45-4.68c11,.73,21.92,1.42,32.88,2.15,3.21.21,5,2.2,4.85,5.22-.23,5.14-.18,10.34-1.58,15.36-2.28,8.19-9.06,12-16.86,9.34C295.78,191.44,292.1,189.06,293.2,182.41Z"/><path class="cls-35" d="M249.26,72.93c.62,4.46,1.3,8.2,1.63,12,.28,3.12-.15,6.46-4,6.9-4,.46-5.49-2.5-5.71-6-.29-4.81-.4-9.63-.52-14.44,0-1,.33-2.14-.93-2.46-.9-.23-1.39.72-1.91,1.35-1.7,2-3.45,4-5.09,6.14-2.05,2.61-4.17,2.78-6.77.7s-2.89-4.25-.88-6.82q9.78-12.58,19.57-25.16c1.71-2.18,4-3.35,6.51-1.7,5,3.29,10.1,6.52,13.64,11.48,4.69,6.59,3.16,14.2-3.55,18.58C256.69,76.44,254.44,76.43,249.26,72.93Z"/><path class="cls-36" d="M139.07,215.07c8.3.12,16.62.4,24.66-2.33,2.23-.76,4.27.26,6.25.87,13.54,4.15,26.53,3,38.87-4,5.28-3,11.1-.93,16.6-2.42,7.74-2.1,15.4-4,21.8-9.2,2.12-1.73,4-3.49,4.73-6.21-.17-3.07,1.44-4.84,4.2-5.78a10.47,10.47,0,0,1,3.89,5c-2.62,12.69-12.75,17.71-23.18,21.79-12.58,4.93-26,6.18-39.39,7.31-15.12,1.28-30.24.91-45.36.79-6.7-.05-13.48-.31-20.09-1.87,1.69-2.91,1.69-2.91,7.08-2,.49.5,1.19.36,1.78.56-.67-.29-1.5-.13-2-.76A1.34,1.34,0,0,1,139.07,215.07Z"/><path class="cls-35" d="M208.83,68.23c-15.25.06-23.63-11.11-19.18-25.64,1.8-5.87,3.74-11.69,5.6-17.55,1.07-3.38,3-5,6.72-3.72,3.42,1.2,4,3.36,2.95,6.64-2.15,6.45-4.22,12.93-6,19.48-1.45,5.23.9,9.62,5.54,11.19,4.47,1.52,8.64-.38,10.68-5.6,2.54-6.48,4.64-13.14,6.71-19.79,1.07-3.43,3-4.56,6.35-3.45s4.34,3.05,3.1,6.5c-2.51,7-4.48,14.25-7.18,21.2C221.45,64.26,216.34,68.11,208.83,68.23Z"/><path class="cls-37" d="M86.1,157a3.23,3.23,0,0,1,2,3.05c.52,2.15-.91,4-.61,6.3,1,7.7,4.92,12.36,12.58,14.06A266.42,266.42,0,0,0,135.45,186c14.25,1.2,28.51,2.31,42.78,1.68,18.06-.8,36.22-.63,54-4.87,8.06-1.92,14-5.58,16.59-13.9.94-3,1-5.08-1.74-6.79l3-4a.5.5,0,0,1,.88,0c5.94,3.78,6.19,5,2.78,14a12.2,12.2,0,0,1-1.69,4.43c-.42.86-.86,1.7-1.35,2.53a13.59,13.59,0,0,1-4.38,4.32c-11.52,6.73-24.42,8.41-37.29,10a290.39,290.39,0,0,1-47.74,2.07c-23.29-1-46.35-3.83-68.69-10.93a47.13,47.13,0,0,1-5.06-2.08A5,5,0,0,1,85.65,181a11.71,11.71,0,0,1-1.3-2.74,8.09,8.09,0,0,1-.61-4.2c-.78-2.34-1.69-4.65-2.32-7C80.2,162.43,81.35,158.85,86.1,157Z"/><path class="cls-38" d="M51.5,111.2c5.16,0,10.33-.09,15.49,0,3.13.07,6.28.62,6.11,4.82-.15,3.68-2.45,5.42-6,5.08-4-.38-5.79,1.55-6.64,5.12a26.45,26.45,0,0,1-1.94,5.65c-1.42,2.84-1.07,5,1.58,6.9,2.94,2.09,4.48,4.8,1.66,7.94s-5.43,1.39-7.84-.72Q42.49,136,31.08,125.9c-2.92-2.57-5-5.58-3.5-9.62s5-5,8.93-5c5,0,10,0,15,0Z"/><path class="cls-39" d="M83.74,174a6.48,6.48,0,0,1,1.54,4c0,1.45-.37,3,.6,4.29.24.64.45,1.28.64,1.93,2,4,5.93,5.76,9.62,7.53a49.79,49.79,0,0,0,20.23,5c2.18.07,4.39.12,6.13,1.66,10,8.79,22,9.39,33.9,6.65a43,43,0,0,1,20.28.06c11.27,2.58,22.54,1.85,32.43-5.43a6.85,6.85,0,0,1,4.69-1.25c11.15.59,21.34-2.56,30.86-8.17a30,30,0,0,0,6-5.23c2.8-2.86,2.72-5.87.5-9a7.45,7.45,0,0,1,2.59-4c5.3,5.75,5.57,7.33,2.43,13.95l-4.2,5.78c-7.62,4.77-15.48,9.51-24.52,10.29-9.43.81-17.87,3.9-26.63,7.09-9.92,3.61-20.65,2.9-30.8-.52a11.77,11.77,0,0,0-7.54,0c-11.84,3.29-24.07,4.83-35.13-1.35a57,57,0,0,0-21-6.89c-8.73-1.16-16.11-5.76-23.23-10.66C78.67,181.14,78.75,179.06,83.74,174Z"/><path class="cls-40" d="M218,278.91c0-9.29,8.33-17.25,18.24-17.39,9.55-.14,19,10.11,19,20.73.07,9.92-8,17.81-18.21,17.81C227.18,300.06,218.06,289.94,218,278.91Z"/><path class="cls-35" d="M125.94,24.88c3.4-.24,4.51,1.1,5,3s.36,3.63-1.83,4.54c-2.76,1.14-5.43,2.51-8.25,3.48-2.61.9-3.5,2.48-2.53,4.94s2.8,3.06,5.25,2.13c2.17-.83,4.38-1.56,6.58-2.31,2.85-1,4.25.38,5.26,3s-.08,4.16-2.3,5.15c-2,.88-4,1.53-6,2.3-2.41.92-3.39,2.36-2.22,5,1.1,2.48,2.66,3.16,5.15,2.21,2.32-.88,4.74-1.53,7-2.47,2.94-1.2,4.15.22,5.27,2.73,1.31,2.94.1,4.45-2.42,5.41-5,1.88-10,3.62-15,5.46-3.49,1.29-5.81.18-7.07-3.26-3.49-9.51-7-19-10.43-28.54-.76-2.11-1-4.61,1.1-5.92C114.25,28.25,120.72,26.63,125.94,24.88Z"/><path class="cls-35" d="M307.11,120.82c2.41-.29,4,1.21,4.61,3.44,1.54,5.43,2.87,10.93,4.22,16.41.62,2.51-.85,3.64-3,4.32-2.48.78-4.27.21-5.09-2.4-.9-2.85-1.85-5.69-2.58-8.58-.64-2.52-2.22-3.21-4.48-2.6s-3.35,2.07-2.78,4.49c.54,2.26,1,4.55,1.66,6.77.85,2.81-.1,4.5-2.85,5.32-3,.87-4.86-.09-5.62-3.14-.48-1.94-.92-3.89-1.46-5.81-.62-2.21-2-3.48-4.42-2.83s-3.87,2-3.25,4.68c.56,2.42,1.31,4.8,1.88,7.23.7,2.94-.4,4.66-3.44,5.46s-4.37-.78-5-3.29c-1.39-5.3-2.71-10.62-3.94-16-.53-2.3,0-4.25,2.48-5.32C275.66,128.3,305.29,120.78,307.11,120.82Z"/><path class="cls-40" d="M171.79,318.31c-1.49,0-3,0-4.48,0-3.24.12-5-1.29-5.16-4.62-.5-8.62-1.16-17.22-1.59-25.84-.17-3.4,1.15-5.73,5.13-5.77,3.28,0,6.58-.72,9.85-.55,10.45.55,16.83,7.66,16.79,18.38s-6.34,17.5-17,18.08c-1.16.06-2.33,0-3.49,0Z"/><path class="cls-40" d="M133.21,314.31c-11.49.1-18.5-8.45-16-19.85,1.29-5.82,3.26-11.48,4.84-17.24.75-2.74,2.31-3.82,5.15-3.2,3.14.7,3.41,2.85,2.76,5.34-1.4,5.29-3,10.54-4.4,15.83-.94,3.52-1.15,7,2.14,9.57,3.77,2.94,8.48,1.8,10.78-2.71,2.82-5.51,3.59-11.7,5.38-17.56.87-2.84,1.69-5.15,5.25-4.46,3.8.74,3.49,3.53,2.78,6.22-1.62,6.09-3.14,12.23-5.22,18.17C144.38,311.09,139.66,314.25,133.21,314.31Z"/><path class="cls-41" d="M249.16,251.51c0-5.55,5.15-12.43,10.42-14,2.26-.69,4.05-.07,5.1,1.9s-.17,3.5-1.68,4.7c-1.3,1-2.81,1.82-4,3-1.38,1.31-2.34,2.91-.85,4.82,1.32,1.68,2.84,1.29,4.44.43,2.19-1.17,4.35-2.43,6.63-3.39,4.71-2,9.2-1.63,12.74,2.36,3.4,3.84,4,8.2,1.71,12.95s-5.86,8.39-11.08,10.05c-1.9.6-3.58.49-4.71-1.5s-.24-3.62,1.2-4.84c1.64-1.39,3.6-2.39,5.28-3.74,1.87-1.5,3.57-3.17,1.78-5.88s-4-2-6.17-1c-2.56,1.16-4.85,3-7.47,3.92C256,263.57,249.17,258.49,249.16,251.51Z"/><path class="cls-40" d="M66.2,273.3c-6.64,0-14.64-7.68-15.07-14.34-.13-2,.17-3.7,2.26-4.49s3.55.28,4.57,2c1.11,1.83,2,3.81,3.1,5.65,1.27,2.13,2.92,3.85,5.65,2.47s2.74-3.48,1.64-5.94c-.88-2-1.75-3.94-2.51-6-2.78-7.44,1.73-13.84,9.72-13.84,5.79,0,12.58,5.66,13.53,11.26.4,2.33.09,4.54-2.35,5.4-2.27.8-3.63-.84-4.65-2.69a44.17,44.17,0,0,0-2.49-4.28,3.18,3.18,0,0,0-4.37-1.16c-1.8,1-1.86,2.52-1.14,4.26a68,68,0,0,1,2.74,6.91C79.11,266.34,74,273.35,66.2,273.3Z"/><path class="cls-41" d="M113.35,275.63a3.42,3.42,0,0,1-1-.31c-5.94-4.42-7.9.54-10.34,4.38-2.59,4.06-5.11,8.16-7.82,12.13-1.5,2.19-2.69,5.46-6.49,3-3.63-2.31-2.4-4.72-.51-7.5,3.64-5.35,7-10.89,10.59-16.26,1.49-2.21,1.63-3.73-.94-5.24-2.27-1.33-4.13-3.41-2.3-6.14s4.5-1.55,6.63-.19c4.75,3,9.4,6.24,14,9.45,1.45,1,2.32,2.45,1.59,4.31A3.7,3.7,0,0,1,113.35,275.63Z"/><path class="cls-42" d="M295,234.21c-3.59-7.07-8.88-2.68-15.71-1.33,8-6.81,7.72-12.66.83-18,1.75-1.09,2.9.08,3.79.46,5.09,2.18,9.17,2.2,11.38-3.89a2.8,2.8,0,0,1,1.93-1.26c.75-.14,1.12.71,1,1.37-1.93,8,3.27,10.33,10.95,11.58-2,1-2.7,1.55-3.49,1.67-6,.85-8.61,4-7.62,10.16.31,1.93-.06,2-1.09,2.28-.14,0-.47-.76-.71-1.18C296.53,234.92,296.09,234.35,295,234.21Z"/><path class="cls-41" d="M215.06,306.59c.47,4-1.21,5-3.29,5.5s-3.67-.14-4.31-2.28q-4.4-14.55-8.71-29.12a3.28,3.28,0,0,1,2.25-4.35c2-.67,4.29-.71,5.07,1.7C209.32,288,212.37,298,215.06,306.59Z"/><path class="cls-43" d="M39.15,228.08c-2.74-2.68-6.82-2.4-10.2-4.62,3.3-1.35,7-1.89,9.19-4,2.37-2.3.26-6.36,1.33-10.34,4,6.87,8.95,10.44,17.05,4.91-5.21,6.08-7.54,11.62-.34,17.88-6.73-2.52-12.07-2.52-15.29,4.11C37.73,233.94,40.87,230.48,39.15,228.08Z"/><path class="cls-44" d="M158.06,251.07a58.47,58.47,0,0,1,24,0A169.76,169.76,0,0,1,158.06,251.07Z"/><path class="cls-45" d="M238.07,122.07a23.81,23.81,0,0,1-11-11A60,60,0,0,1,238.07,122.07Z"/><path class="cls-46" d="M216,103.23a12.86,12.86,0,0,1-10.68-5.35A39.19,39.19,0,0,1,216,103.23Z"/><path class="cls-47" d="M251,158.08h-.88c-1.25-3.47-.16-6.73.91-10C252.06,151.43,250.81,154.75,251,158.08Z"/><path class="cls-48" d="M251.07,211.07a7.46,7.46,0,0,1,6-6A17.25,17.25,0,0,1,251.07,211.07Z"/><path class="cls-46" d="M247.07,136.07c-3-1-3.85-3-3.16-5.93C245.11,132,246.56,133.8,247.07,136.07Z"/><path class="cls-49" d="M39.15,228.08c2.19,2.29-.3,5.61,1.75,7.93-.42,1-1.2,2.67-1.66.32C38.72,233.68,39.14,230.84,39.15,228.08Z"/><path class="cls-50" d="M229.31,241.26c1.37-2.83,3.67-3.79,6.68-3.36Z"/><path class="cls-51" d="M91.95,225.23c2.55,1.22,3.66,3.15,2.92,6A15.47,15.47,0,0,1,91.95,225.23Z"/><path class="cls-52" d="M136.87,95.93c-.94,2.32-2.37,3.45-4.87,2A8.86,8.86,0,0,1,136.87,95.93Z"/><path class="cls-53" d="M97.73,234.16c3.39.89,4.35,1.58,5.35,3.9A11.28,11.28,0,0,1,97.73,234.16Z"/><path class="cls-54" d="M190.32,250.22,186,249.8c2.41-.53,4.84-1.53,7.05.28Z"/><path class="cls-1" d="M331.13,177c-.47,2.31.82,4.87-1,7,.15-2.73-.68-5.56.85-8.14Z"/><path class="cls-55" d="M242.92,232c-1-2.27-.39-3.62,2.16-3.93C244.95,229.71,243.86,230.82,242.92,232Z"/><path class="cls-47" d="M218.27,245.18c-.42-.25-1.66-.55-1.09-.78,1.47-.58,3.12-2.37,4.86-.39Z"/><path class="cls-56" d="M122.06,103.06c.18,2.74-1.36,2.45-3.12,1.77A4.27,4.27,0,0,1,122.06,103.06Z"/><path class="cls-57" d="M144,93.76c-1.29,1.71-2.63,3.24-4.92,1.36A10.94,10.94,0,0,1,144,93.76Z"/><path class="cls-58" d="M179.13,91c-1.52,1.69-3.3,1.08-5.1.29l3.2-.31C177.87,90.83,178.5,90.17,179.13,91Z"/><path class="cls-59" d="M79.13,201.09c1.18,1.45,2.86,2.8,1.1,4.91A6.41,6.41,0,0,1,79.13,201.09Z"/><path class="cls-57" d="M117.09,244c2.29-1.88,3.63-.35,4.92,1.36A11,11,0,0,1,117.09,244Z"/><path class="cls-60" d="M203.14,96.94c-.59,1.06-1.4,1-2.32.47-.61-.37-1.6-.62-.48-1.54Z"/><path class="cls-60" d="M224.26,243.2c-1.08-1,.05-1.15.59-1.5.91-.59,1.7-.55,2.28.48A4,4,0,0,1,224.26,243.2Z"/><path class="cls-60" d="M112,242.19c.57-1,1.37-1.07,2.28-.49.54.35,1.67.49.6,1.5A4,4,0,0,1,112,242.19Z"/><path class="cls-60" d="M107.07,240.08c.84-1.37,1.8-.6,2.71-.12.73.39.69.85,0,1.3C108.8,241.08,107.73,241.05,107.07,240.08Z"/><path class="cls-60" d="M92.29,132.15a1.88,1.88,0,0,1,.11,2.91c-.53.61-1.08.42-1.49-.23Z"/><path class="cls-60" d="M89.95,137c1.67,1.06.76,2.35-.09,3.06s-.62-.55-.8-1Z"/><path class="cls-61" d="M199.31,249.19l-3.56-.39c2.73-.86,4.09-1.13,5.3.24Z"/><path class="cls-62" d="M127.84,99.88c0,1.83-.62,2.11-2.74,1.26Z"/><path class="cls-63" d="M295,234.21c.35-.56.9-1.12,1.48-.61.91.8.53,1.68-.25,2.42Z"/><path class="cls-62" d="M249.19,140.92c-2.09-.22-2.53-1.15-1.19-2.82Z"/><path class="cls-64" d="M190.2,246.13c-3.26,1.61-6.75.74-10.14.91a84.43,84.43,0,0,0-20,0c-3.72-.22-7.54.79-11.14-.91,2.35-1.11,4.75-.38,7.12-.58-2.66.34-5.34-.55-8,.53-15.57-1.08-30.5-4.51-44.3-12.1-5.95-3.27-8.19-8.86-9.72-15-.6-2.41-.25-3.5,2.58-2.61,23.69,7.46,48.18,8.85,72.78,9.87,21.19.88,42.08-.46,62.57-6.19,4.26-1.19,8.37-2.89,13.07-4.53-1.85,8.59-4.52,16-12.75,20a106.67,106.67,0,0,1-41.22,10.55c-2.29-1.18-4.74-.13-6.72-.56-1,.07,0,1-.35.45A8.91,8.91,0,0,1,190.2,246.13Z"/><path class="cls-65" d="M139.07,215.07q0,1,0,2h0c-1.95,2-5.44-1.36-7,2a74.75,74.75,0,0,1-34.94-10,11.86,11.86,0,0,1-2.68-2.19c-1.24-1.34-2.95-3.13-2-4.74,1.21-2,2.84.31,4.26.72,6.19,1.81,12.4,3.42,18.95,2.93a3.36,3.36,0,0,1,2.31.4C123.82,212.06,131.52,213.38,139.07,215.07Z"/><path class="cls-66" d="M160.09,247a41.91,41.91,0,0,1,20,0Z"/><path class="cls-66" d="M148.06,246.08c2.84-2.18,5.94-.36,8.93.05h-8.5Z"/><path class="cls-66" d="M190.2,246.13h-6.83c2.59-.71,5.21-2,7.71-.05l-.44.07Z"/><path class="cls-52" d="M148,250.15c1.47-1.6,3.22-1.16,5-.28l-5,.27Z"/><path class="cls-64" d="M134.11,169c-12.46-.89-24.83-2.29-36.21-8-7.2-3.61-8.76-7.16-6.64-15,4.15-15.28,14.44-26.07,26.66-35.12,34.19-25.33,84.75-20.56,113.9,10.56,6.3,6.73,11.35,14.29,14.11,23.25s.58,14.41-8.28,17.9A97.87,97.87,0,0,1,205,169c-5-1.08-10,0-14.19-.5-1.54.14-.79,1.2-1,.56,0-.08.05-.14.24-.16,3.71-.42,7.41-.75,11.09.23-5.63,1.79-11.41.67-17.12.95-4.09-1.41-8.2,0-12.27.09-5.93.16-11.83-1.14-17.74-.09-5.38-.24-10.83.75-16.12-.95,3.46-1.14,6.93-.24,9.87-.57C143.59,168.76,138.85,168.08,134.11,169Z"/><path class="cls-67" d="M247.09,162.08c4.46-.08,4.57,2.11,3.64,5.82-3,12.07-12.42,15.16-22.93,17.23-13.06,2.56-26.31,2.56-39.49,3.5-15.6,1.11-31.18.39-46.73-.65a238.09,238.09,0,0,1-41.64-6.12c-9.47-2.35-13.37-7.51-14.2-17.16-.21-2.41,1.94-2.93,2.33-4.64l2,1c-.45,4.58,3.27,5.23,6.23,6.31a138.62,138.62,0,0,0,30.09,6.87,335.67,335.67,0,0,0,95-1.43c6.88-1.07,13.78-2.37,20.32-5,2.24-.9,4.3-1.95,4.41-4.8Z"/><path class="cls-37" d="M246.09,163.08c2.82,2.41,1.31,3.73-1.18,4.91-7.07,3.36-14.75,4.65-22.31,6-22.2,3.85-44.64,4.72-67.12,4.06-20.29-.59-40.34-3.09-59.79-9.24-5.78-1.83-7.23-3.9-5.65-7.68,9.07,7.19,20,9.28,31,11,27.34,4.16,54.83,3.61,82.28,1.86a132.38,132.38,0,0,0,32.6-5.83C239.57,166.89,242.69,164.75,246.09,163.08Z"/><path class="cls-66" d="M154.06,170.08c1.79-1.8,4.09-1.06,6.1-.95,8,.47,16-1.33,23.91.95A129.43,129.43,0,0,1,154.06,170.08Z"/><path class="cls-66" d="M201.2,169.13H189.14c5.31-.51,10.66-2.16,15.89-.13Z"/><path class="cls-66" d="M134.11,169c4.89-2.07,9.92-.38,14.89.12H137.94Z"/><path class="cls-61" d="M159,91l4.73.29c-2.1,1.11-3.5,1.08-4.74-.29Z"/><path class="cls-68" d="M165.38,52.6c-3.43.27-5.29-1-5.35-4.72-.05-3.28,1.16-5.06,4.54-4.94s7.07.48,7.1,5C171.7,51.79,168.45,52.35,165.38,52.6Z"/><path class="cls-69" d="M163.7,35.25c-2.76,0-4.39-1.15-4.43-4.11s1.24-4.24,4.18-4.19,5.15,1,5.23,4S166.51,35.17,163.7,35.25Z"/><path class="cls-70" d="M309.34,177.29c-.19,3.26-1.07,6.06-5.06,6-3.49,0-4.91-2.25-5.14-5.48-.27-3.67,1.72-5.17,5.09-5.14C307.22,172.7,309.43,173.77,309.34,177.29Z"/><path class="cls-71" d="M257.3,61.79a4.76,4.76,0,0,1-5.07,4.48c-3.06,0-5.48-1.53-6-4.72-.43-2.42,3.18-6.31,5.37-6.19C254.15,55.49,257.25,58.73,257.3,61.79Z"/><path class="cls-72" d="M249.38,202c-.66-4.67,5.17-4.49,4.77-8.24.45,0,1.23-.19,1.3,0a2.8,2.8,0,0,1,.32,1.8C254.83,198.51,252.42,200.16,249.38,202Z"/><path class="cls-72" d="M235.67,207.81c.94-1.07,1.65-1.73,2.73-1.14a.87.87,0,0,1,.06.83C237.82,208.2,237,208,235.67,207.81Z"/><path class="cls-44" d="M139.07,217.07h4.5c-2,1.45-3.29,1.22-4.5,0Z"/><path class="cls-73" d="M87,181.09c31.17,10.76,63.4,13.86,96.11,12.78,16.08-.53,32.11-1.9,47.84-5.76,5.71-1.4,10.92-3.92,16.19-6.37.5,3.81-2.57,5.09-5,6.56-6.77,4.13-14.36,5.62-22.09,6.27,3.32.54,7.05-2.47,10.2.88-6.14,3.56-12.52,4.36-19.25,1.76-.24-.09.21-2.39-.84-.36-2.52,4.91-7.25,6.72-12.09,7.94-9.55,2.41-19.14,2.29-28.32-1.55-2.85-1.19-5-.54-7.51.37a45.51,45.51,0,0,1-30.25.29c-1.89-.62-4.08-1.24-5.28-2.7-4-4.8-9.2-5.07-14.73-5-1.8,0-4.15.74-5.16-1.82,2.47-2.41,5.14-1.07,7.84-.83-5.81-.19-11.25-2-16.66-3.89a32.09,32.09,0,0,1-8.45-4.13C88.15,184.43,86.59,183.3,87,181.09Z"/><path class="cls-74" d="M107.21,194c4.12,1.74,8.45,1,12.69.9,1.34,0,2.36-.46,3.42.86,7.66,9.52,18.34,9.56,29.07,8.8,4.26-.3,8.62-1.06,12.35-3.49,2-1.29,3.41.06,5,.73a42.2,42.2,0,0,0,31.11.59c3.89-1.38,7.65-3.37,9.07-7.14,6.85,3.83,13.4,1.63,19.94-.25,1.1-2.23,3.47-2.31,5.38-3.13,4.87-2.08,9.85-4,13-8.61,1.06-1.56,2.44-3.16,1.88-5.35l1-1.81c4,2.28,4.41,5.47,1.25,9.12C245.2,193.56,235.46,197,225,199c-4,.78-8.1,2-12.25.45a2.32,2.32,0,0,0-2.26.68c-12.93,9.87-27.06,8.82-41.44,4.3a7.72,7.72,0,0,0-5.7,0c-10.19,4.37-20.57,3.74-31,1.21-1.28-.31-2.86-.54-3.68-1.4-6.82-7.08-16.26-6.08-24.68-8.18a44.7,44.7,0,0,1-16-7.72c-1.43-1.07-3-2.24-2.92-4.39a2.38,2.38,0,0,1,2.32.45c5,4,10.82,6.21,17,7.73A4.46,4.46,0,0,1,107.21,194Z"/><path class="cls-75" d="M250.17,177.89c2.26,3.79-.4,6.19-2.69,8.38C242.57,191,236.26,193,229.93,195c-4.27-.78-8.63,2.1-13.62-.49,8.54-2.06,16.84-2.4,24.09-6.51,2.77-1.57,5.37-3.21,6.74-6.25Z"/><path class="cls-75" d="M107.21,194c-8.28-1.35-15.82-4.32-22.13-10q0-.93,0-1.86c-.67-1.13-.8-2,1-1.83l1,.81c5,6.67,12.86,7.46,19.89,10,2.69,1,5.83.53,9.2,2.9Z"/><path class="cls-76" d="M86,180.28l-1,1.83c-1.64-1.44-.51-2.73.23-4A2.2,2.2,0,0,1,86,180.28Z"/><path class="cls-70" d="M46,119.92c5.91,0,7.1,1.11,5.72,5.34-1.46,4.47-3.55,5-7.07,1.83a8.41,8.41,0,0,1-1.09-1c-1.24-1.62-3.92-2.29-3.55-4.94C40.11,120,41.07,119.92,46,119.92Z"/><path class="cls-77" d="M235,269.89c5.5,0,11.77,7.07,11.57,13-.16,4.82-4,8.89-8.34,8.95-5.56.07-11.32-6.9-11.33-13.72A7.85,7.85,0,0,1,235,269.89Z"/><path class="cls-77" d="M169.24,295.88c-.16-2.5-.64-5.22,2.33-6.43A7.93,7.93,0,0,1,180,290.8c4.61,3.79,4.42,14.29-.31,17.8a7.71,7.71,0,0,1-7.53,1.26c-2.59-1-2-3.53-2.22-5.59C169.62,301.49,169.46,298.68,169.24,295.88Z"/><path class="cls-78" d="M142.07,240.07c-10.07-.89-19.71-2.56-25.32-13.67,12.89,1.74,24.9,3.9,37.11,3.87.41,0,.82.51,1.22.78-1.75,1.81-4,1.2-6.15,1.39-1.71.1-3.84.18-2.89,2.66C147.69,239.38,145.1,239.79,142.07,240.07Z"/><path class="cls-79" d="M230.18,229.13c-6.22,6.74-14.64,7.83-23,9a2.68,2.68,0,0,1-2.8.2c-4.59-2.53-9.25-4.82-14.49-5.68-.68-.11-.93-.83-.78-1.56l27-3a20.69,20.69,0,0,0,8.6-.66C226.78,226.9,229,226.56,230.18,229.13Z"/><path class="cls-80" d="M189.07,231.07c6.8.35,12.12,4.51,18.07,7a83.41,83.41,0,0,1-24,3c-1.49.85-3.1.34-4.66.4.66-2.16.66-2.16,5-3.46-2-3-4.89-3.68-8.16-3.66-2,0-4,.23-5.9-.54-1-.4-2.46-1-.61-2.25,5.1-.26,10.22.54,15.28-.46Z"/><path class="cls-81" d="M178.08,241.06l5,0c-2.73,1.92-5.84,1-8.72.9-7.44-.21-15,1.13-22.33-.91,0-2.89,2.77-1.49,4.24-2.81a6.5,6.5,0,0,0-4.69-4.77c-1.35-.42-3.55.09-3.53-2.43l7,0,29,.07c-5.23,2-10.67.42-16,.95-2,1.39-4,.09-5.62.43,1.64.28,4.27-.33,5.5,2,1,1.87,4.31,2.87,2.34,5.94a3.08,3.08,0,0,0,.79-.13C173.52,239.67,175.91,239.26,178.08,241.06Z"/><path class="cls-82" d="M148.08,231.07c4.55,1.3,9.39,2.24,10.16,8.42-1.66,1.64-4.56-.59-6.18,1.59-3.37.08-6.74.13-10-1,2.39-1,4.36-1.69,2.3-5.27C142.78,232,145.22,230.77,148.08,231.07Z"/><path class="cls-83" d="M230.18,229.13c-2.31-1.39-4.57-.91-7.07-.35-2.25.51-4.85,1.14-7-.7l16.62-3.45A5.52,5.52,0,0,1,230.18,229.13Z"/><path class="cls-84" d="M199.08,163.07c-1.33,1.49-3.1.94-4.7.95-12.66,0-25.33.5-38-.12-12.37-.6-24.77-1.69-36.78-5.18a32.25,32.25,0,0,1-6-2.44c-6.79-3.58-8.61-7-6.36-14,3.81-11.94,11.31-21.27,21.76-28.21,1.23.14,2.25.52,2.3,2a3.33,3.33,0,0,1-1.22,1.62,18.31,18.31,0,0,0-6.19,4.85c-.58.62-1.18,1.27.39,1.21a8.16,8.16,0,0,1,2.8,0c1.89.86,3.14,3.09,5.79,2.45.65-.16.89,1.17,1,2a7,7,0,0,1-.14,1.39c-1,3.71.33,7.66-1.11,11.32.14,0,.29.15.42.13a1.69,1.69,0,0,0,.44-.23,1.75,1.75,0,0,1,1.38,1.32c.91,6.81,5.72,10.58,10.88,14.08a2.63,2.63,0,0,1,.65,1.06c2.1,1.41,3.81.39,5.47-.92a6,6,0,0,1,2.74-1.14c6-.77,9.7,3.87,15.61,5.61-2.93,2.37-4.93,1.61-6.85,1.77,9.66-1.3,19.36-1,29.05-.91C194.72,161.7,197.17,161.2,199.08,163.07Z"/><path class="cls-85" d="M186,101c6-2.33,10.87,1.33,16.15,2.87-.54,1.16-1.66,1.36-2.69,1.63a1.33,1.33,0,0,1-.89-.07c0,1,.92.41,1.29.79a10.33,10.33,0,0,1,1.17.52,15.11,15.11,0,0,0,8,1.31c5.89.15,9.43,4.16,13.08,8a2.38,2.38,0,0,1-1.69.79c-2.15,1.51,0,2.07.71,2.76,1.8,1.88,4.67,2.4,6.17,4.71-4,1.81-8.09,3.56-12.64,3.13-2-.19-3.91-.59-5.79.34-2.49,1,.78,3.63-1.29,4.78-3.11-.16-5.92-1.44-8.85-2.27-1.93-1.18-4.36-1.51-5.84-3.42-5.19.34-9.57-1.92-13.84-4.44-1-.61-3.42-1-1.16-3,4.85-.48,9.82-.57,13.85-4-2.46,2-5.46,2.83-8.46,3.48-2.06.44-4-.15-4.75-2.49-.27-1.61-.67-3.28-.19-4.84,1-3.16,3.44-6.6-2.31-7.76-.26-.05-.07-.87.3-1.24C179.44,101.23,182.84,101.66,186,101Z"/><path class="cls-79" d="M176.08,103.08c1.68,1.94,4.12.36,6.32,1.41a27.52,27.52,0,0,0-3.3,11.57c-.76,1.22-.16,2.79-1,4,4.74,2.65,8.91,7,15.2,5,.2-.06.5.21.76.32l-1,.69c-.85,2.25-2.82,1.83-4.26,2.13,1.18.69,4.1-1.51,4.41,2-5.77.79-9.64,4.71-13.74,8.27-6.42-5-13.27-9.69-16.22-17.85-.94-2.61-4.86-.33-5.36-3.45,1.3-2.11,5.7-1,5.18-5a14.26,14.26,0,0,1,2.56-9.82c-1.22-.64-2.86,1-3.91-.65-.52-3,2.44-1.53,3.41-2.63l3-.06c3-1.17,5.29-.06,7.29,2.14A3.32,3.32,0,0,1,176.08,103.08Z"/><path class="cls-86" d="M142.09,106.09l6-3c.89-.85,1.8-.49,2.72-.08,4.09.86,6,4.79,9.54,6.43-1.8,2.6-4.61,1.4-6.58,2.54a34.42,34.42,0,0,1-3.82,1.48c-1.89,1.16-.73,1.7.47,2.13,1.92.69,4.36-.36,5.88,1.73-.66,1.15-1.78,1.44-.69,3.76,4.21,8.92,10.09,15.79,19.19,19.77,2.76,1.21,3,3.65,2.78,6.26.16-1.83-.33-3.63-.21-5.42.08-1.1.52-2.5,2.21-1.26,1.44,3.45.73,7.17,1.36,10.72-.46,3-2.4,2.91-4.35,1.8-3.74-2.13-8-3-11.76-5.05-1.26-.69-1.92-1.77-3.64.42-1.57,2-1.88-1.09-2.33-2.37-.05-8.5-3.21-15.52-10-20.83-1.73-3.76-5.63-2.23-8.41-3.42a1.63,1.63,0,0,1-.77-1.11,1.59,1.59,0,0,1,.75-1.1,4.81,4.81,0,0,1,2.26-.37c.56,0,1,.62,1.64.24-.46-.36-1.1-.55-1.22-1.26C142.57,114.11,142.62,110.07,142.09,106.09Z"/><path class="cls-81" d="M242.1,149.09c.12,3.66-2.5,5.22-5.2,6.57a63,63,0,0,1-28.79,6.43c-1.72.79-3.36.62-5.57-.19,1.83-1.88,3.64-1.1,5.2-1.29.66-.08-.27-1.11,0-.52.08.14,0,.24-.35.27-6.35.53-12.7,2.6-19.06.05-1.23-1.74.56-2.13,1.32-3a13.63,13.63,0,0,1,1-1c2-1.14,2.91-4,5.85-3.52,7.6,2.05,15.15.59,22.53-.91a66.69,66.69,0,0,0,17.72-6.14C241,143.63,241.28,143.87,242.1,149.09Z"/><path class="cls-87" d="M199,129.08l9.08,3c3.81-1.06,7.57,1.91,11.39.14.06,0,.06-.31,0-.45a1.12,1.12,0,0,0-.31-.38,18.58,18.58,0,0,0-2.67-1.35c-1.68-.79-3.28-1.81-5.26-1.69-1.09,0-2.18.38-3.25-.11a.83.83,0,0,1,.08-1.16,4.9,4.9,0,0,1,5-1.13c2.88.74,5.71,1.28,8.17-1.27,1.71-1.77,4.08,1.78,5.86-.52.67-1.13,1.15-2.56,3-2,2,3,4.94,5.31,6.12,8.86-5.83,4.44-12.08,8.07-19.32,9.7-.48.11-1,.12-1.48.21-5.64,1-11.5,1.5-14.65,7.4-1.16-.33-1.48-1.28-1.74-2.3a23.81,23.81,0,0,1,.08-6.83,9.21,9.21,0,0,0,.46-4C199.82,133.12,197.61,131.24,199,129.08Z"/><path class="cls-86" d="M200,145.89c.12.85.21,1.71,1.09,2.18,5.06-2.39,10.72-1.34,16-3,5.59-1.7,11.17-3.24,16.37-5.94,2.08-1.08,4.18-2.13,6.62-1.1,2,3.42,3.07,7,2,11-2.19-6.92-5.61-1.33-7.94-.43-11.64,4.48-23.43,7.47-36,6-1-.11-2.08,0-2.06-1.46C196.56,150.3,196.92,147.37,200,145.89Z"/><path class="cls-88" d="M240.07,138.07c-12.53,5.17-24.91,10.9-39,10,.58-4.84,3.16-6.67,8.16-7.22,7.55-.84,15-2.68,21.31-7.51a10.46,10.46,0,0,1,5.59-2.34C237.86,133.13,239.66,135.21,240.07,138.07Z"/><path class="cls-89" d="M188.07,159.08c4.7,2.11,9.66.52,14.48,1,2.11.19,4.24,0,6.73,0-1.65,1.87-3.69.3-5.19,1.41,1.23,1.15,2.72.33,4,.61-2.84,1.91-6,.58-9,1H161.33l0-.75H168c-4.6-2.64-8.9-5.52-14-6.44-.11-2.73,2-3.68,3.83-4.91,1.47-.83,3-1.58,4.68-.7a81.93,81.93,0,0,0,23.08,7.38A4,4,0,0,1,188.07,159.08Z"/><path class="cls-90" d="M142.09,106.09c3.83,3.84,1.23,8.67,2,13-1.15,1.09-2.87-.13-4,1h0c-2.64,2.49-3.22-1.8-5.19-1.56a2.39,2.39,0,0,1-1.8,0,4.85,4.85,0,0,1-2-2.47l-2-2C133.2,111.06,137,107.54,142.09,106.09Z"/><path class="cls-91" d="M230,122.14c-1,.62-1.46,2.1-3,2a15.19,15.19,0,0,1-9-6.23c-.49-.76-1.26-1.75-.07-2.54.8-.53,1.55-.06,2.1.65,1.74,2.33,3.54,4.56,6.93,4.11C228.13,120.59,229.36,120.93,230,122.14Z"/><path class="cls-92" d="M150.07,104.07a2.05,2.05,0,0,0-2-1l0-1.14c3.38-2.31,7.47-.53,11-1.89,2-.31,3.85-1.38,6-1-.77,1.26-3.22.76-3.07,3C158.62,106.21,154.27,104.69,150.07,104.07Z"/><path class="cls-93" d="M138.11,104.55c-2.08,2.8-4.63,3.61-7.34,4.12-.84.16-1.7.22-2.07-.72s.43-1.51,1.07-1.93C132.15,104.47,134.66,103.42,138.11,104.55Z"/><path class="cls-94" d="M159.14,100.05c-3.14,3.74-7.35,1.22-11,1.9-.87-1.38-1.73-2.76,1-2.77,2.27,0,4.53-.07,6.8,0C157.11,99.16,158.32,98.87,159.14,100.05Z"/><path class="cls-95" d="M113.86,124c-2,1.79-3.12,4.63-6.62,5.48-.37-4,2.74-5.44,4.84-7.51a1.51,1.51,0,0,1,2.15.36A1.15,1.15,0,0,1,113.86,124Z"/><path class="cls-96" d="M227,120.12c0,1.6-.79,2.09-2.13,1.27-2.12-1.3-5.51-1.54-4.8-5.38h2.08Z"/><path class="cls-97" d="M176.08,103.08l-1-1a2.29,2.29,0,0,1,1.27-1.69c2.43-1.12,5.14-.53,7.63-1.28L186,101C183.14,103.66,179.53,103,176.08,103.08Z"/><path class="cls-98" d="M184,99.13c-2.25,2.19-5.15,1.76-7.9,1.94-1.94.16-1.48-1-1.19-2.12C177.94,97.51,181,98,184,99.13Z"/><path class="cls-99" d="M199,105.08c.71-1.33,2.07-1,3.2-1.22l4.85,2.23c-.22,2.75-2.37,1.62-3.82,1.89-1.05-.33-2.25-.19-3.16-1l.08,0C199.5,106.54,198.49,106.25,199,105.08Z"/><path class="cls-100" d="M174.88,99a2.18,2.18,0,0,0,1.19,2.12l-1,1c-2-1.7-4.06-3.43-7-3.06C170.32,97.31,172.6,98,174.88,99Z"/><path class="cls-101" d="M156,99.21a6,6,0,0,1-6.8,0A6.46,6.46,0,0,1,156,99.21Z"/><path class="cls-102" d="M200.06,107l3,.11c1.5,1.19,3.51-.27,5,1l1,0C205.8,109.85,202.79,109.63,200.06,107Z"/><path class="cls-103" d="M113.86,124c.12-1.3-.45-2-1.78-2,1.06-1.11,2.55-1.42,3.37-.27S115,123.59,113.86,124Z"/><path class="cls-85" d="M208.07,108.06c-1.7-.19-3.59.65-5-1,1.36-.21,3,.52,4-1C208,106.4,208.07,107.23,208.07,108.06Z"/><path class="cls-104" d="M195.06,181.06c14.67-1.41,29.43-2.18,43.57-6.92,1.28-.43,2.93-1.82,3.92.19.87,1.75-1,2.6-1.91,3.63-3.27,3.61-7.93,4.14-12.27,4.88a143.06,143.06,0,0,1-26.23,2.37c-.65.4-1.05,0-1.44-.45a9.27,9.27,0,0,0-.67-1C198.62,182.44,195.44,184.28,195.06,181.06Z"/><path class="cls-105" d="M195.06,181.06c1.38,1.67,3.29.77,5,1,1.26.19,2.45.4,1,2-.58-.55-1.17-.12-1.75,0,.59.12,1.18-.45,1.77,0l1.07,1.15c-1.57,1.42-3.49.83-5.26.84-14.61,0-29.21,0-43.82,0-1.82-3.28-.5-4.41,2.87-4.51,6.38-.19,12.79.62,19.14-.46Z"/><path class="cls-106" d="M175.09,181.1c-5.95,2.17-12.09.63-18.14.87-3.09.12-4.26,1.14-3.88,4.1-12.4.33-24.49-1.88-36.52-4.5-1.4-.3-3.37-.78-3.07-2.64.4-2.46,2.44-1,3.65-.81A358.93,358.93,0,0,0,175.09,181.1Z"/><path class="cls-107" d="M174,198.26c10.68,1.19,21.35,2.17,32-3.07C201.08,204,184.78,205.49,174,198.26Z"/><path class="cls-108" d="M129,195.5c12.2,4.13,17.3,4.53,31.94,2.68C155.17,205.55,135.52,204.25,129,195.5Z"/><path class="cls-86" d="M178.08,241.06c-.49,0-1,0-1.48,0-3.41-.09-7,1.09-8.47-4.1a7,7,0,0,0-6.91-4.89h6.85c1.8,1.79,4.09,1,6.12.92,4-.2,7.51.27,10.16,3.62.63.8,2.51.79,1.9,2.36-.49,1.28-1.92,1-3,1.1C181.47,240.27,179.53,239.41,178.08,241.06Z"/><path class="cls-109" d="M157.84,152l-3.84,3.9-1.94,1.26a4.79,4.79,0,0,1-1.42.77c-1.63.19-3.25.32-4.72-.65-7.81-2.72-11-9-12.69-16.45a16.13,16.13,0,0,1,.3-10.33c2.41-3.66,5-7.15,9.85-7.59,1.95-.18,4-.47,5.5,1.38,8.68,4.56,10.79,12.52,11.09,21.42C159.06,147.73,160.43,150.52,157.84,152Z"/><path class="cls-110" d="M135.07,118.08c.18-.73.29-2.08,1.19-.48s1.8,2.78,3.82,2.48q0,.48,0,1c-1.93,2.75-3.5,5.84-7,7-2.17-1.06-5.09-1-6-4,.73-1.4,2.13-2,3.32-2.89A52.44,52.44,0,0,1,135.07,118.08Z"/><path class="cls-111" d="M133.07,128.07c2.12-2.56,3.76-5.59,7-7,2.77.1,5.63-.51,8.19,1.11.82.52,1.87,1,.62,2.13-7-2.15-11.09,1.54-14.4,7-1.89.24-2-.7-1.46-2.14Z"/><path class="cls-112" d="M131.06,122.06c-1.37.6-2.26,2.12-4,2a26.53,26.53,0,0,1-3.69.93c-1.09.12-2.49.07-2.69-1.37-.24-1.78,2-.47,2.38-1.63.75-.43,1.89.71,2.41-.62a10.58,10.58,0,0,1,4.64-.87C130.84,120.8,131.39,121.16,131.06,122.06Z"/><path class="cls-113" d="M130,121a9.47,9.47,0,0,1-4.76,1.25c-.28-3.48,3.86-2.88,4.81-5.23l1-1a1.86,1.86,0,0,1,2,2C133.46,120.5,131.18,120.2,130,121Z"/><path class="cls-114" d="M133,129.09a2.19,2.19,0,0,0,1.46,2.14c-1.64,3-.69,6.41-1.25,9.58-.26.44-1,1.37-1,1C132.42,137.56,131,133.2,133,129.09Z"/><path class="cls-115" d="M130.07,117c.24,3.45-3.89,2.86-4.81,5.23-.87,1.19-1.44-.24-2.17-.25C124.54,119.14,127,117.71,130.07,117Z"/><path class="cls-116" d="M151.15,157.17a1.94,1.94,0,0,1,.91,0c-1.16,3.44-3.88,1.5-6,1.71-.05,0-.19-.24-.18-.37a1.27,1.27,0,0,1,.19-.43C147.64,156.93,149.6,158.19,151.15,157.17Z"/><path class="cls-117" d="M151.15,157.17c-1.46,1.55-3.35.69-5,.89q-.1-.4-.19-.8Z"/><path class="cls-118" d="M178.09,120c-1.06-1.68-1.16-3.12,1-4,3.19,2.66,8.49,2,11.71-1.5.84-.92,1.1-2.63,2.92-1.95a1.67,1.67,0,0,1,.93,1.08c.27,1.74-1.26,2.14-2.33,2.82A22.49,22.49,0,0,1,178.09,120Z"/><path class="cls-119" d="M199,129.08c0,2.07,2.39,3.69,1.17,6a2.14,2.14,0,0,1-1.33.49c-2.62-1.2-5.65-2-5.75-5.73-1.45-1.54-3.51-.33-5.21-1.14,1.23-1.91,3.6-1.44,5.15-2.59Z"/><path class="cls-120" d="M219.86,130.13c1.17.4,2.23,1,1.77,2.45a2.31,2.31,0,0,1-2.37,1.45c-3.84,0-7.64-.27-11.18-2-.39-1.67-4.26-3.34,0-5l.21,1.2C212.11,129.07,215.56,132.18,219.86,130.13Z"/><path class="cls-121" d="M181,115.65c2.42-2.33,4.67-3.13,7.82-2.24C186.75,116.1,184.44,116.69,181,115.65Z"/><path class="cls-122" d="M199,105.08l1.14,2a3.21,3.21,0,0,1-2.58-1c-.52-.56-1.47-1.21-.66-1.95C198.09,103,198.17,105,199,105.08Z"/><path class="cls-109" d="M193.08,129.84l5.85,5.29c.81.83,1.91,1.55,1,3q0,3.89,0,7.78c-1.2,2.49-1.7,5.34-3.91,7.29l-5,4.06c-1.66,1.18-3.55.77-5.38.76a8,8,0,0,1-5.65-5.86c-1.46-3.94-1.17-8-.93-12.07a1.16,1.16,0,0,1,.09-1.93C182.76,133.57,186,128.53,193.08,129.84Z"/><path class="cls-88" d="M179.2,138.13l-.09,1.93c-2.27,2.35-.17,5.48-1.82,8.84.3-5-2.34-6.66-5.9-8.38a30.48,30.48,0,0,1-15.33-16.08,18.73,18.73,0,0,0-3.18-5.74l3.2-1.56a1.38,1.38,0,0,1,2,0,2.36,2.36,0,0,0,2.67.89c2.64-.82,3,.63,3.82,2.74,2.14,5.54,6.13,9.76,11,13.08C177.23,135,178.94,135.9,179.2,138.13Z"/><path class="cls-123" d="M150.07,104.07c4.19.54,8.06-.79,12-2,1.64-.78,3.29-1.47,5.14-.65-1.57,3.39-3.9,6.53-3.08,10.58-.85,3.51-3.2,4.41-6.46,3.71-.11-2.92-2.59-3.54-4.55-4.66,1.65-1.92,4.13-.24,7.19-2.07C154.31,110.56,154.31,103.92,150.07,104.07Z"/><path class="cls-124" d="M156.87,114.93c3.09.71,5.35-.63,7.21-2.94.72,3.46-.6,4.58-6,5.13h-2a53.23,53.23,0,0,1-6.33-.4c-1.18-.21-2.89-.63-3-2.11s1.29-2.12,2.65-2.42C151.25,114.89,154.6,113.43,156.87,114.93Z"/><path class="cls-125" d="M180,152.13c2.09,1.25,2.64,4.06,5,5a1.44,1.44,0,0,1,.57,1,1.55,1.55,0,0,1-.55,1c-2-2.4-4.95-.64-7.4-1.55-4.57-1.71-9.36-2.87-13.63-5.33a6.05,6.05,0,0,0-6.22-.2L160,145.7l.22,2.41.56,0,.76-3.84c5,4.25,11.47,4.56,16.39,8.14A1.39,1.39,0,0,0,180,152.13Z"/><path class="cls-126" d="M156.87,114.93c-2.71-.29-6.5,2.35-7.45-2.73a5.85,5.85,0,0,0,3.65-1.17c1,0,1.95,0,2.92,0,1.26,0,3-.31,3.34,1.24S157.5,113.84,156.87,114.93Z"/><path class="cls-110" d="M140.07,120.07c1.05-1.46,2.62-.86,4-1,.4.2,1.6.48.68.82C143.36,120.39,141.65,120,140.07,120.07Z"/><path class="cls-127" d="M185.08,159.06q0-.49,0-1a7.8,7.8,0,0,1,6,0c-.72,1.16-1.9.93-3,1Z"/><path class="cls-89" d="M191.05,158.1l-6,0q0-.47,0-.94l6,.1Q191.07,157.67,191.05,158.1Z"/><path class="cls-94" d="M219.86,130.13c-3.29,2.81-7,2.22-11.58-1.88a3,3,0,0,1,2.88-1A6.47,6.47,0,0,0,217,129.1Z"/><path class="cls-128" d="M217,129.1c-4.2,1.54-5.15,1.24-5.87-1.85C213.37,127,215.19,128.07,217,129.1Z"/><path class="cls-129" d="M200,138.1l-1-3,1.23-.06C201.4,136.17,201.35,137.18,200,138.1Z"/><path class="cls-130" d="M130,121l3-3,2,0a10.07,10.07,0,0,1-4,4Z"/><path class="cls-131" d="M201.08,184.06c-1.39.56-2.71,1.69-4.76.19,1.84-.64,3.19-1.54,4.75-.17Z"/><path class="cls-132" d="M142.62,131.37c2.64.43,4.6,1.81,4.77,4.69s-1.24,4.84-4.24,5a4.6,4.6,0,0,1-5.2-4.71C137.8,133.45,139.9,132,142.62,131.37Z"/><path class="cls-133" d="M189,136c2.49-2.31,4.4-.83,5.62,1.28,1.13,1.93.36,3.9-1.61,5.13a3.52,3.52,0,0,1-4.92-.85c-1.61-2-2.07-4.19,1-5.58,1.16,1-.14,3.57,2.62,3.79C192,137.5,189.6,137.31,189,136Z"/><path class="cls-134" d="M189,136a8.78,8.78,0,0,1,2.42.37c1.36.62,2.79,1.5,2.19,3.32-.42,1.27-1.46,2.43-3,1.95a3,3,0,0,1-2.35-3.33A12.08,12.08,0,0,1,189,136Z"/></g></g></svg>
