<?xml version="1.0"?>
<svg xmlns="http://www.w3.org/2000/svg" width="60" height="40" fill="none" viewBox="0 0 16121 4878"><path d="M565.757 962.08C709.662 727.285 921.733 611.15 1204.5 611.15c595.82 22.722 893.73 419.1 893.73 1186.6 0 752.35-348.4 1133.58-1045.2 1146.2C351.16 2949 .234 2613.2.234 1931.55V.182h282.76C469.82.182 565.757 96.12 565.757 285.47v676.6zm479.683 159.05c-302.958 0-464.535 217.12-479.683 651.37-5.05 456.96 151.48 686.7 472.113 686.7s479.68-229.75 479.68-686.7c-10.1-434.25-166.63-651.37-472.1-651.37z" fill="url(#A)"/><path d="M2545.1.182c70.7 0 136.34 25.246 189.35 78.264 55.55 53.018 83.32 118.66 83.32 196.923V2908.6h-563V.182h290.33z" fill="url(#B)"/><path d="M4928.38 2007.3c0 391.32-98.46 646.32-297.9 770.02-199.45 116.14-419.1 176.73-664 176.73-232.26 0-444.33-63.12-638.73-191.87-194.4-123.7-290.34-373.66-290.34-752.36V646.495h563V2125.95c0 249.94 126.23 376.17 381.22 376.17s381.23-126.23 381.23-376.17V929.258c-5.05-189.35 85.83-285.287 272.66-285.287h290.33l2.53 1363.32z" fill="url(#C)"/><path d="M7054.14 2216.86c-65.64 257.5-176.73 444.34-330.73 560.47-181.78 123.7-398.9 184.3-646.3 184.3-679.13-22.73-1019.96-419.1-1019.96-1186.6S5400.5 618.745 6084.67 613.695c711.95 0 1047.73 444.345 1002.3 1330.495H5637.8c22.72 345.88 171.67 517.56 446.86 517.56 133.8 0 255-53.02 363.55-159.05 50.5-55.55 113.6-83.32 189.35-83.32l416.57-2.52zm-563-686.7c-32.82-300.44-171.68-451.92-414.04-451.92-242.37 0-386.28 151.48-431.72 451.92h845.76z" fill="url(#D)"/><path d="M7844.35 3512c0 189.35-93.4 285.3-282.76 285.3h-282.76V1631.12c27.77-674.1 378.7-1012.395 1052.78-1012.395 696.8 0 1045.2 381.224 1045.2 1146.195 0 770.03-297.9 1163.87-893.73 1186.6-282.76 0-494.83-116.14-638.74-350.93V3512zm951.8-1721.82c0-456.97-159.05-686.7-479.7-686.7-320.63 0-477.15 229.74-472.1 686.7 17.68 434.24 176.73 651.36 479.7 651.36s462-217.12 472.1-651.36zm742.25-50.5c17.67-729.63 401.42-1095.708 1151.2-1095.708h83.4v593.298h-189.4c-315.6 0-472.1 164.1-472.1 492.3V2908.6h-573.1V1739.68zM11310.7.182c186.8 0 280.2 90.887 272.7 275.187v169.153h-563V.182h290.3zm0 643.8c181.8 0 272.7 90.887 272.7 275.187V2908.6h-563V643.972h290.3zm2118.2 2267.148c-186.8-10.1-282.8-106.03-282.8-285.3V1464.5c-10.1-234.8-141.4-350.93-388.8-350.93s-376.1 116.13-381.2 350.93v1446.63h-570.6v-1330.5c0-646.312 320.7-969.47 961.9-969.47 641.3 0 959.4 323.158 951.8 969.47v1330.5h-290.3zm754.9-30.3c-212.1-20.2-315.6-154-310.6-406.48V.182h290.4c70.7 0 136.3 27.77 189.3 83.314 55.6 55.543 83.3 123.708 83.3 199.448v358.503h340.9V767.68c0 83.314-27.8 151.48-83.4 204.5-55.5 53.022-121.1 78.262-199.4 78.262h-58.1V2305.2c0 95.94 55.6 141.38 166.7 141.38h174.2v434.25c-181.8 22.72-378.7 20.2-593.3 0zM9944.87 4572.35l-88.37 249.94h-280.23l434.23-1287.58h343.4l441.8 1287.58h-282.8l-83.3-249.94h-484.73zm169.13-441.8l-70.7 209.54h285.3l-70.7-201.97-70.7-169.15h-2.5l-70.7 161.58zm906.4-161.58h-15.2l12.6 207.02v646.3h-257.5V3539.76h335.8l318.1 757.4 320.6-757.4h335.8V4822.3h-257.5v-646.3l-5-207.02h-15.2l-58.1 194.4-219.6 646.3h-209.5l-285.3-840.7zm1434-426.67v1280h-265.1v-1280h265.1zm843.2 762.45l101 257.5 17.7-2.52-48-330.73v-689.24h260V4822.3h-335.7l-376.2-762.44-98.5-267.62-15.1 2.53 45.4 343.35v686.7h-265.1V3542.3h335.8l378.7 762.45zm-3595.1-154h-797.8v219.65h484.73c-63.1 141.38-196.92 237.32-348.4 237.32-214.6 0-388.8-189.35-388.8-424.15 0-234.8 174.2-424.14 388.8-424.14 118.66 0 222.17 58.07 295.4 146.43H9652c-103.5-244.9-335.78-416.57-608.44-416.57-366.08 0-664 310.53-664 694.28s297.9 694.3 664 694.3c366.07 0 663.98-310.54 663.98-694.3-2.53-12.62-5.05-22.72-5.05-32.82zm5286.6-5.05h-797.8v219.65h484.8c-63.1 141.38-197 237.32-348.4 237.32-214.6 0-388.8-189.35-388.8-424.15 0-232.26 174.2-424.14 388.8-424.14 118.6 0 222.1 58.07 295.4 146.43h315.5c-103.5-244.9-335.7-416.57-608.4-416.57-366.1 0-664 310.54-664 694.28 0 383.75 297.9 694.3 664 694.3s664-310.54 664-694.3c-2.5-10.1-5.1-20.2-5.1-32.82zm590.8-590.77h-106v348.4h-98.5v-348.4h-106v-75.74h310.5v75.74zm138.9 15.15h-5.1l17.7 118.66v212.07h-96v-424.14h123.7l118.7 249.94 118.7-249.94h123.7v424.14h-96v-212.07l17.7-121.18h-5l-43 116.13-80.7 151.48h-78.3l-80.8-151.48-35.3-113.6z" fill="#7a7a7a"/><defs><linearGradient id="A" x1="1049.23" y1=".182" x2="1049.23" y2="2944" gradientUnits="userSpaceOnUse"><stop stop-color="#4793cf"/><stop offset="1" stop-color="#56c8e7"/></linearGradient><linearGradient id="B" x1="2536.27" y1=".182" x2="2536.27" y2="2908.6" gradientUnits="userSpaceOnUse"><stop stop-color="#4793cf"/><stop offset="1" stop-color="#56c8e7"/></linearGradient><linearGradient id="C" x1="3982.9" y1="643.971" x2="3982.9" y2="2951.33" gradientUnits="userSpaceOnUse"><stop stop-color="#4793cf"/><stop offset="1" stop-color="#56c8e7"/></linearGradient><linearGradient id="D" x1="6074.08" y1="613.695" x2="6074.08" y2="2961.64" gradientUnits="userSpaceOnUse"><stop stop-color="#4793cf"/><stop offset="1" stop-color="#56c8e7"/></linearGradient></defs></svg>
