<?xml version="1.0"?>
<svg xmlns="http://www.w3.org/2000/svg" viewBox="-317.9 225.4 173.2 68" width="60" height="40"><linearGradient id="A" gradientUnits="userSpaceOnUse" x1="-231.119" y1="286.968" x2="-231.119" y2="255.397"><stop offset=".669" stop-color="#fff"/><stop offset="1" stop-color="#007cba"/></linearGradient><path d="M-287.4 282c-.3 0 .7 0 3.1 0 1.7 0 2.1-1.8 2.1-3.5 0-1.8-.7-3.5-2.1-3.5-2.8-.4-3.5 0-3.5-.4l.4 7.4zm0-11.7c8.7 1.8 9.1-11.7 0-9.6v9.6zm24.8-3.2c0-1.8.3-2.8-.3-4.3-1-3.2-5.2-2.1-5.6 0-1.1 3.2 1.3 4.7 5.9 4.3zm56.1 2.8c0 2.5.3 3.9 1.4 5.3.3.7 1.7 1.4 2.8 0 1.4-1-2.5-3.8-4.2-5.3zm-85.8 14.9v-27.3c0-1.1.7-1.8 2.1-1.8 3.1-.4 2.8-.4 6.3-.4 4.2 0 5.9 1.8 8 6h2.4c1.7-7.1 10.1-5.7 10.8-3.5 1.4-2.8 4.5-1.1 4.9.4v3.2h4.9v-2.8c.3-3.9 5.2-2.5 4.9 0v2.8h8c1-3.5 3.8-5 7-5 3.1 0 5.9 1.1 7 5h2.4c0-1.8 0-1.8.3-3.2 0-3.2 4.5-2.1 4.5 0v3.2h8c1.4-2.8 3.5-4.3 6.6-4.6 3.1-.4 5.9 1.4 7.3 4.6h1.4c1.7-3.2 4.2-4.6 7.7-4.3 3.1 0 5.2 1.4 7 4.3h3.8c-.3-3.5 0-5.3 2.4-5.3 1.7.4 2.4 1.1 2.1 5.3V276s2.4 0 2.4 2.5c-.3 2.5-2.4 2.5-2.4 2.5.4 3.5-.3 4.6-2.4 4.3-1.7 0-2.4-1.1-2.1-4.3 0 0-2.4 0-2.4-2.5.3-2.5 1.7-2.5 2.4-2.5v-8.9h-3.8c-2.4 5-4.5 4.3-7.3 6.7-.7.4-1.4 2.5 1 2.8 1.4.4 2.1-.7 3.5-1.1 2.4-.7 3.8 2.5 1.7 4.3s-5.2 1.4-6.6 1.1c-1-.4-4.2-1.1-5.2-3.9-1.4-4.6 1.4-6.7 4.5-8.5 1.7-1.4 4.2-2.5 3.5-4.6-.7-1.8-2.8-2.5-4.2-1.8-2.1 1.4-1.7 2.1-2.1 3.9 0 1.1-.3 1.1-2.4 1.1h-3.8c-1.4 0-2.1-.4-2.1-1.4 0-2.1-1.4-4.3-3.1-3.9-2.1.4-2.8 1.8-2.8 3.5 4.5 3.2 4.9 2.8 7.7 6 1.4 1.4 2.1 5.7-.3 7.8-1.7 1.8-3.5 2.5-6.3 1.8-2.4-.4-4.2-1.4-5.2-3.9-1-3.5-.7-5-1-9.9h-7.3v6c0 3.2 2.8 2.5 4.9 2.8 1.4 0 2.4 3.5-.3 4.6-1.7.7-3.8-.4-4.5-1.8-.3 2.1-4.9 2.8-4.9-1.1V267h-4.5c-1 0-1.4-.4-1.4-1.4 0-1.1 0-2.5-.7-3.5-1-1.1-3.1-1.1-4.2 0-1 1.4-1.7 9.9 0 12.8 1 1.4 3.1.7 3.5-.7 0-2.1 4.2-3.2 4.2.7-.3 3.2-1.4 3.5-2.8 4.6s-6.6 1.8-8.7-1.1c-2.4-3.2-2.1-5.3-2.4-11.4h-7.3c.3 3.2-.3 5.7.7 6.7 1.4 1.4 2.1 1.4 3.8 1.4 2.1 0 2.4 3.5 1 4.3-1.7 1.4-3.5 1.1-5.9-1.1-.7 3.5-4.5 1.4-4.5-.7.3-1.1 0-7.1 0-10.6h-5.2l.3 7.8c0 2.8-2.4 5.3-8 5.3-.3 0-3.1 0-4.9-1.4-2.8-2.5 0-5 1.7-4.3 3.1 1.4 5.9 1.8 6.3-.7 0-1.1-.3-2.8 0-2.8-9.1.4-9.8-3.2-10.1-3.9h-3.1s0 2.5-1 3.9c-1 1.1-2.8 1.8-2.8 1.8 4.9 3.2 2.8 14.2-2.8 14.2h-8c-1 .1-2.4-.3-2.1-2.1z" opacity=".4" fill="url(#A)"/><linearGradient id="B" gradientUnits="userSpaceOnUse" x1="-306.972" y1="253.533" x2="-155.658" y2="253.533"><stop offset="0" stop-color="#183a65"/><stop offset=".25" stop-color="#0081be"/><stop offset=".5" stop-color="#7bb4e1"/><stop offset=".75" stop-color="#007cba"/><stop offset="1" stop-color="#183a65"/></linearGradient><path d="M-165 239.9c.4-.3 1-.6 1.3-.8.1 0 0-.1 0-.1-.6.1-1.8.5-2.1.3s-.7-1.4-.9-2c0-.1-.1 0-.1 0 .1.4.1 1 0 1.5-15.2-8.2-40.6-10.8-40.6-10.8s26.1 3.5 40.4 11.5c-.3.3-1.2.7-1.7.9-.1 0 0 .1 0 .1.6-.1 2-.5 2.4-.3.3.2.4 1.3.7 1.8 0 .1.1 0 .1 0-.1-.6-.2-1.3 0-1.7 4.5 2.7 7.5 6 7.7 9.7.4 8.2-11.6 11.7-23.4 15.7-14.5 3.2-31 4.9-50 4.9s-35.9-1.7-50-4.9c-11.8-4-22.7-7.2-22.7-15.7 0-14.3 50.1-22.1 50.1-22.1s-53 5.5-53 24.6c0 14.1 39 26.3 75.7 26.3 37.1-.4 75.7-12.2 75.7-26.3-.3-5.1-4.1-9.3-9.6-12.6z" fill="url(#B)"/><linearGradient id="C" gradientUnits="userSpaceOnUse" x1="-317.9" y1="259.809" x2="-144.727" y2="259.809"><stop offset="0" stop-color="#183a65"/><stop offset=".25" stop-color="#0081be"/><stop offset=".5" stop-color="#7bb4e1"/><stop offset=".75" stop-color="#007cba"/><stop offset="1" stop-color="#183a65"/></linearGradient><path d="M-204 226.2s51.7 8.6 51.7 26.2c0 19.3-49.2 29.1-79 29.1-28.8 0-79.2-9.8-79.2-29.1 0-18.9 53.3-26.2 53.3-26.2s-60.7 7.2-60.7 32.4c0 18.6 44.6 34.7 86.6 34.7 42.4-.5 86.6-16.1 86.6-34.7 0-25.4-59.3-32.4-59.3-32.4z" fill="url(#C)"/><linearGradient id="D" gradientUnits="userSpaceOnUse" x1="-292.347" y1="241.18" x2="-169.891" y2="241.18"><stop offset="0" stop-color="#0061a0"/><stop offset=".394" stop-color="#0078b0"/><stop offset=".699" stop-color="#0081be"/><stop offset="1" stop-color="#7bb4e1"/></linearGradient><path d="M-287.4 230.4l-.3 7.4c0-.4.7 0 3.5-.4 1.4 0 2.1-1.8 2.1-3.5s-.3-3.5-2.1-3.5h-3.2zm0 11.7v9.6c9.1 2.1 8.7-11.4 0-9.6zm24.8 3.2c-4.5-.4-7 1.1-5.9 4.3.3 2 5.9 2.5 5.9-4.3zm56.1-2.9c1.7-1.4 5.6-4.3 4.2-5.3-1-1.4-2.4-.7-2.8 0-1.1 1.4-1.4 2.8-1.4 5.3zm-85.8-14.9c-.3-1.8 1-2.1 1.7-2.1h8c5.6 0 7.7 11 2.8 14.2 0 0 1.7.7 2.8 1.8 1 1.4 1 3.9 1 3.9h3.1c.3-.7 1-4.3 10.1-3.9-.3 0 0-1.8 0-2.8-.3-2.5-3.1-2.1-6.3-.7-1.7.7-4.5-1.8-1.7-4.3 1.7-1.4 4.5-1.4 4.9-1.4 5.6 0 8 2.5 8 5.3l-.3 7.8h5.2c0-3.5.3-9.6 0-10.6 0-2.1 3.8-4.3 4.5-.7 2.4-2.1 4.2-2.5 5.9-1.1 1.4.7 1 4.3-1 4.3-1.7 0-2.4 0-3.8 1.4-1 1.1-.7 6.7-.7 6.7h7.3c.3-6 0-8.2 2.4-11.4 2.1-2.8 7.3-2.1 8.7-1.1 1.4 1.1 2.4 1.4 2.8 4.6 0 3.9-4.2 2.8-4.2.7-.3-1.4-2.4-2.1-3.5-.7-1.7 2.9-1 11.4 0 12.8 1 1.1 3.1 1.1 4.2 0 .7-1.1.7-2.5.7-3.5 0-1.1.4-1.4 1.4-1.4h4.5v-10.6c0-3.9 4.5-3.2 4.9-1.1.7-1.4 2.8-2.5 4.5-1.8 2.8 1.1 1.7 4.6.3 4.6-2.1.4-4.9-.4-4.9 2.8v6h7.3c.3-5 0-6.4 1-9.9 1-2.5 2.8-3.5 5.2-3.9 2.8-.7 4.5 0 6.3 1.8 2.4 2.1 1.7 6.4.3 7.8-2.8 3.2-3.1 2.8-7.7 6 0 1.8.7 3.2 2.8 3.5 1.7.4 3.1-1.8 3.1-3.9 0-1.1.7-1.4 2.1-1.4h3.8c2.1 0 2.4 0 2.4 1.1.4 1.8 0 2.5 2.1 3.9 1.4.7 3.5 0 4.2-1.8.7-2.1-1.7-3.2-3.5-4.6-3.1-1.8-5.9-3.9-4.5-8.5 1-2.8 4.2-3.5 5.2-3.9 1.4-.4 4.5-.7 6.6 1.1s.7 5-1.7 4.3c-1.4-.4-2.1-1.4-3.5-1.1-2.4.4-1.7 2.5-1 2.8 2.8 2.5 4.9 1.8 7.3 6.7h3.8v-8.9c-.7 0-2.1 0-2.4-2.5 0-2.5 2.4-2.5 2.4-2.5-.3-3.2.3-4.3 2.1-4.3 2.1-.4 2.8.7 2.4 4.3 0 0 2.1 0 2.4 2.5 0 2.5-2.4 2.5-2.4 2.5v14.6c.4 4.3-.3 5-2.1 5.3-2.4 0-2.8-1.8-2.4-5.3h-3.8c-1.7 2.8-3.8 4.3-7 4.3-3.5.4-5.9-1.1-7.7-4.3h-1.4c-1.4 3.2-4.2 5-7.3 4.6s-5.2-1.8-6.6-4.6h-8v3.2c0 2.1-4.5 3.2-4.5 0-.3-1.4-.3-1.4-.3-3.2h-2.4c-1 3.9-3.8 5-7 5-3.1 0-5.9-1.4-7-5h-8v2.8c.3 2.5-4.5 3.9-4.9 0v-2.8h-4.9v3.2c-.3 1.4-3.5 3.2-4.9.4-.7 2.1-9.1 3.5-10.8-3.5h-2.4c-2.1 4.3-3.8 6-8 6-3.5 0-3.1 0-6.3-.4-1.4 0-2.1-.7-2.1-1.8l.4-27.3z" fill="url(#D)"/></svg>
