<?xml version="1.0"?>
<svg xmlns="http://www.w3.org/2000/svg" width="60" height="40" fill="none" viewBox="0 0 1516 1516"><path d="M1515.7 757.66c0 417.96-338.86 757.39-757.6 757.39C340.01 1515.05.486 1176.3.486 757.66S340.01.27 758.09.27s757.6 338.762 757.6 757.4z" fill="#2f3490"/><path d="M1281.35 356.338c-383.458 104.5-630.444 300.16-755.602 423.286 33.287 63.893 81.885 118.467 141.135 159.73 79.222-77.87 177.085-157.068 284.268-221.626 137.14-81.862 237.67-111.146 304.24-132.444 10 35.94 15.3 73.876 15.3 112.477 0 236.934-198.4 429.278-443.375 429.278-95.2 0-183.077-29.3-254.976-78.54-.665-.66-1.997-1.33-2.662-2-.666-.67-1.332-.67-1.998-1.33-77.224-51.916-136.475-125.79-168.43-212.977-17.974-47.254-27.96-98.5-27.96-151.745 0-236.934 195.06-428.61 436.054-428.61 59.916 0 118.5 11.315 170.427 33.278l189.73-69.217c-82.55-55.24-210.368-121.795-401.433-121.795-359.495 0-655.745 294.837-655.745 654.23s291.6 650.906 651.085 650.906 651.083-291.5 651.083-650.906c0-147.086-48.6-282.857-131.15-392.006z" fill="#fff"/></svg>
