<?xml version="1.0"?>
<svg xmlns="http://www.w3.org/2000/svg" width="65" height="35" fill="none" viewBox="0 0 3995 3692"><path d="M1012.02 126.946L126.355 1012.04c-21.157 21.16-31.735 49.37-31.735 77 0 28.2 10.578 55.83 31.735 77l885.075 885.1c21.16 21.16 49.37 31.74 77 31.74 28.2 0 55.83-10.58 77-31.74l885.66-885.1c21.16-21.16 31.74-49.37 31.74-77s-10.58-55.83-31.74-77L1166 126.946c-21.16-21.158-48.78-31.737-77-31.737-27.62 0-55.83 10.58-77 31.737zm220.97-67l353.8 353.802C1859.48 205.11 2061.65 79.34 2062.24 79.34l17.04-11.166 17.05 10.58C2101.62 82.28 3994.6 1268.28 3994.6 2400.2c0 276.23-108.73 526.6-285.04 708.2-176.3 181.6-419.62 293.86-688.2 293.86-198.06 0-392.6-59.36-556.56-162.8-121.06-76.4-226.26-176.3-303.25-294.44 87.57 646.48 775.18 681.74 853.34 683.5h7.05l-.58 31.73V3692H1137.8v-63.47h7.05c78.16-1.77 765.18-37.62 852.75-682.92-77 117.54-181 217.45-302.08 293.26-164.55 103.44-359.67 162.2-557.72 162.2-268.582 0-511.9-112.25-688.2-293.85-175.722-181.6-285.034-431.97-285.034-708.2 0-141.05 28.797-282.7 79.34-423.16 45.84-126.94 109.313-252.12 185.714-374.37l-370.25-370.26C19.982 1193.05 0 1141.33 0 1089.03c0-52.3 19.982-104.027 59.358-143.99L945.022 59.36C984.985 19.982 1037.3 0 1089 0c52.3 0 104.6 19.982 143.98 59.947z" fill="url(#A)"/><defs><linearGradient id="A" x1="1997.3" y1="0" x2="1997.3" y2="3692" gradientUnits="userSpaceOnUse"><stop stop-color="#0257ff"/><stop offset="1" stop-color="#0293ff"/></linearGradient></defs></svg>
