<?xml version="1.0"?>
<svg xmlns="http://www.w3.org/2000/svg" width="60" height="40" fill="none" viewBox="0 0 659 463"><path d="M657.9 461.4c-58.1-43.3-120-81.2-184.9-113.3-55.4-27.8-113.1-50.9-172.5-68.9-4.2-1.4-5.5-.5-6.9 3.7l-28.7 101.7c-.7 3.7-4.1 6.3-7.9 6H66.6c.4-1.5 1-2.9 1.8-4.2L165 248.2c3.2-4.2 2.8-5.1-2.3-6.5C111.2 229.4 58.8 220.6 6 215.5l-6-1.4c10.6-2.8 18.5-5.1 26.8-6.5l25.9-5.1 25.4-3.7c41-4.9 82.2-7.5 123.4-7.9 2.3.2 4.6-1.1 5.5-3.2L337.8 0h1.4l59.6 86.9 257.5 369.4 2.3 4.2-.7.9zm-323.6-319l-18.5 63.8c-.9 3.7.9 3.2 2.8 3.7 18.5 4.6 36.5 9.7 54.1 15.7h3.7c-.1-1.1-.4-2.2-.9-3.2l-21.7-43c-6.6-11.5-12.6-23.6-19.5-37z" fill="#ed2f25"/><path d="M658.798 460.5v1.8l-1.4-.9 1.4-.9z" fill="#fff"/></svg>
