<?xml version="1.0"?>
<svg xmlns="http://www.w3.org/2000/svg" width="60" height="40" fill="#000" viewBox="0 0 656 125"><path d="M109 123.702h27.4L67.6.102 0 123.702h26.3l41.3-76.5 41.4 76.5zm-24.5-42.1l-16.6 28.8-16.7-28.8h33.3zM405 124.1h27.4L363.6.5 296 124.1h26.2l41.4-76.5 41.4 76.5zM380.5 82l-16.6 28.8L347.2 82h33.3zm248.1 42.1H656L587.1.5l-67.6 123.6h26.3l41.3-76.5 41.5 76.5zM604 82l-16.6 28.8L570.8 82H604zm-388.6.9L153.3.5h-.3v123.6h20.3V62.6l42.1 57.5 41.5-56.2v60.2h21V.5h-.3l-62.2 82.4zM542.498.5h-25.8l-40.9 61.4-40.9-61.4h-26.5l56.8 83.9-.1 39.7h20.6l-.1-39.7 56.9-83.9z"/></svg>
