<svg xmlns="http://www.w3.org/2000/svg" width="117" height="124" viewBox="0 0 1170 1240" preserveAspectRatio="xMidYMid meet" fill="#821027"><path d="M286 1205c-8-21 8-129 27-181 8-22 57-121 108-221l93-180-12-42c-17-55-56-80-217-137l-133-49c-2-2 16-37 41-77 52-82 84-152 116-251 13-37 25-67 28-67s38 21 79 46c76 47 203 105 274 124 22 6 40 13 40 16 0 4-22 43-49 88-47 79-106 204-99 212 2 2 34-48 71-111 77-130 125-178 197-195 43-10 54-9 94 9 53 23 86 69 86 121 0 32 1 33 14 15 7-11 19-37 26-58 7-22 16-35 20-30 11 13 81 195 77 200-3 2-20-5-38-16-19-12-42-21-51-21-15 0-14 5 7 36 47 69 21 160-59 205-59 34-142 32-280-9-60-18-111-30-113-28s43 31 101 65c135 79 159 100 186 163 38 88 14 163-65 202-32 16-45 18-79 8-35-9-42-8-50 6-59 105-196 101-255-8-31-56-32-138-3-229 32-99 10-58-36 65-39 106-68 226-74 304-3 31-6 35-34 38-22 2-33-2-38-13zM173 874c-44-22-69-76-55-121 15-50-6-30-33 30l-22 51-31-88c-18-48-32-91-32-96 0-6 15-1 33 10 17 11 40 20 50 20 17 0 16-4-7-31-37-44-36-101 3-140 24-24 38-29 77-29 40 0 51 5 79 34 23 24 36 31 43 24 14-14 86-12 111 4 34 21 55 70 47 111s-55 87-90 87c-19 0-22 4-19 28 6 41-12 80-49 102-39 24-62 25-105 4z"/></svg>