<?xml version="1.0"?>
<svg xmlns="http://www.w3.org/2000/svg" width="65" height="35" fill="none" viewBox="0 0 17770 7846"><path d="M57.273 2538.62c-37.602 0-56.4-23.5-56.4-70.5 0-37.6 12.927-68.14 38.775-91.64s66.974-39.95 123.373-49.35l95.174-17.62V318.054L163.02 300.43C54.92 279.282.873 232.288.873 159.442c0-46.994 18.798-70.494 56.4-70.494H1139.44c251.44 0 447.67 56.395 588.67 169.186 141 112.79 211.5 272.576 211.5 479.36 0 117.488-31.72 220.884-95.17 310.175-61.1 86.94-146.88 151.56-257.32 193.86v14.1c155.1 44.65 276.12 119.84 363.07 225.58 86.95 103.4 130.42 230.28 130.42 380.67 0 216.18-72.85 383.02-218.55 500.5-145.7 117.5-343.1 176.23-592.2 176.23H57.273zM1167.64 1164c126.9 0 227.95-37.6 303.14-112.8 77.55-77.54 116.33-180.93 116.33-310.17 0-131.587-41.13-234.983-123.38-310.175-79.9-77.544-193.87-116.315-341.92-116.315H610.692V1164h556.948zm52.87 1149.05c166.85 0 292.57-39.94 377.17-119.84 86.95-82.24 130.43-195.03 130.43-338.37s-43.48-257.3-130.43-341.9c-84.6-84.6-204.45-126.9-359.54-126.9H610.692v927H1220.5zm1771.87 271.4c-166.84 0-304.32-48.17-412.42-144.5-108.1-98.7-162.15-232.63-162.15-401.82V1008.9H2245.1c-44.65 0-66.97-27.027-66.97-81.07 0-39.944 12.92-69.32 38.77-88.117 28.2-18.797 65.8-28.198 112.8-28.198h415.95V2009.92c0 108.1 29.37 193.86 88.12 257.3 61.1 63.45 148.05 95.17 260.85 95.17 86.95 0 173.9-23.5 260.84-70.5 86.96-49.34 166.86-113.96 239.7-193.86V1008.9h-169.2c-47 0-70.5-27.027-70.5-81.07 0-39.944 12.93-69.32 38.78-88.117 28.2-18.797 65.8-28.198 112.8-28.198h415.94V2341.24l137.48 45.82c39.95 11.75 68.15 25.85 84.6 42.3 16.45 14.1 24.67 34.07 24.67 59.92 0 32.9-15.27 49.34-45.82 49.34h-511.12v-225.58h-14.1c-197.4 180.93-399.5 271.4-606.3 271.4zm1404.02-45.82c-21.15 0-37.6-7.05-49.35-21.15-11.76-16.45-17.63-37.6-17.63-63.44 0-37.6 12.92-65.8 38.78-84.6 28.2-18.8 65.8-28.2 112.8-28.2h88.13V233.46H4396.4c-44.66 0-66.98-27.025-66.98-81.068 0-39.945 12.92-69.322 38.78-88.118 28.2-18.796 65.8-28.198 112.8-28.198h415.95V2341.24l158.62 45.82c37.6 11.75 64.63 25.85 81.08 42.3 16.44 14.1 24.67 34.07 24.67 59.92 0 32.9-15.28 49.34-45.82 49.34h-719.1zm988.9 0c-21.15 0-37.6-7.05-49.35-21.15-11.76-16.45-17.63-37.6-17.63-63.44 0-37.6 12.92-65.8 38.78-84.6 28.2-18.8 65.8-28.2 112.8-28.2h88.12V233.46H5385.3c-44.65 0-66.98-27.025-66.98-81.068 0-39.945 12.92-69.322 38.78-88.118 28.2-18.796 65.8-28.198 112.8-28.198h415.94V2341.24l158.63 45.82c37.6 11.75 64.62 25.85 81.07 42.3 16.45 14.1 24.68 34.07 24.68 59.92 0 32.9-15.28 49.34-45.83 49.34h-719.1zm1750.28 45.82c-169.2 0-319.56-35.24-451.2-105.74-131.58-70.5-234.95-172.7-310.2-306.65-72.8-133.94-109.28-293.72-109.28-479.36 0-187.98 34.1-350.12 102.23-486.4 70.5-138.63 168.04-244.376 292.57-317.222 126.9-75.192 273.8-112.79 440.62-112.79 230.34 0 414.8 68.142 553.42 204.433 138.7 133.94 207.97 312.53 207.97 535.76 0 84.6-18.78 166.83-56.4 246.73H6596.27c0 197.38 52.87 348.94 158.62 454.68 108.12 103.4 239.7 155.1 394.8 155.1 84.6 0 162.15-10.57 232.65-31.72 70.5-23.5 141-57.57 211.5-102.22 35.25-23.5 63.45-35.24 84.6-35.24 25.9 0 47.04 9.4 63.45 28.2 18.84 18.8 28.2 42.3 28.2 70.5s-10.57 54.04-31.72 77.54c-18.78 21.15-49.35 44.65-91.65 70.5-143.3 89.3-313.72 133.93-511.12 133.93zm380.7-1032.74c9.43-25.84 14.1-59.92 14.1-102.2 0-145.7-39.92-258.48-119.84-338.38-77.55-82.24-182.02-123.36-313.73-123.36-138.62 0-253.8 50.52-345.44 151.56-89.28 98.7-139.72 236.16-151.58 412.4h916.5zm1270.27 1032.74c-136.32 0-250.27-41.12-341.92-123.36s-137.47-195.03-137.47-338.37V1033.57h-239.7c-21.15 0-38.77-8.22-52.87-24.67-11.8-16.453-17.63-37.6-17.63-63.447 0-37.6 12.82-66.97 38.78-88.118 28.2-23.5 65.75-35.247 112.8-35.247h162.15l56.4-384.194h267.9v384.194h542.84c14.1 0 25.83 4.698 35.25 14.1 9.36 7.05 14.1 18.796 14.1 35.247 0 30.55-12.94 54.044-38.77 70.494-25.9 16.45-68.2 29.37-126.9 38.772l-423 52.87h-3.52v1110.3c0 75.2 19.87 132.76 59.92 172.7 39.93 37.6 93.96 56.4 162.15 56.4 44.6 0 84.6-7.05 119.85-21.15s70.5-36.42 105.75-66.97c32.88-28.2 59.92-42.3 81.07-42.3 23.46 0 43.46 8.22 59.93 24.67 16.4 16.45 24.67 38.77 24.67 66.97 0 23.5-10.57 49.35-31.72 77.54-18.84 25.85-48.2 50.52-88.13 74.02-101.07 65.8-215.02 98.7-341.92 98.7zm680.64 704.95c-21.15 0-37.56-8.23-49.35-24.68-11.73-14.1-17.62-34.07-17.62-59.92 0-37.6 12.94-65.8 38.77-84.6 28.2-18.8 65.82-28.2 112.8-28.2h88.13V1008.9H9467.2c-44.6 0-66.97-27.027-66.97-81.07 0-39.944 12.94-69.32 38.77-88.117 28.2-18.797 65.82-28.198 112.8-28.198h405.37v207.956l10.58 3.53c150.46-164.492 333.76-246.733 549.86-246.733 145.8 0 276.3 32.895 391.3 98.692 117.5 65.796 210.3 168.01 278.5 306.65 68.2 136.3 102.2 306.65 102.2 511.08 0 289.03-77.6 509.9-232.6 662.65-152.8 152.73-359.6 229.1-620.4 229.1-70.5 0-149.2-10.57-236.2-31.72-86.9-21.15-165.7-48.17-236.2-81.07V3092l158.6 45.82c37.7 11.75 64.8 24.68 81.1 38.78 18.9 16.45 28.2 37.6 28.2 63.44 0 32.9-16.4 49.35-49.3 49.35h-715.6zm916.5-916.43c190.3 0 332.6-56.4 426.5-169.18 96.4-115.15 144.5-284.33 144.5-507.56 0-244.38-45.8-422.97-137.4-535.76-91.7-115.14-218.6-172.7-380.7-172.7-79.9 0-156.3 17.62-229.2 52.87-72.8 35.25-131.5 84.6-176.2 148.04-44.62 63.44-67 132.76-67 207.96v860.03c54.1 35.24 121.1 63.44 200.9 84.6 80 21.15 152.8 31.72 218.6 31.72zm1160 165.66c-21.1 0-37.5-7.05-49.3-21.15-11.8-16.45-17.7-37.6-17.7-63.44 0-37.6 13-65.8 38.8-84.6 28.2-18.8 65.8-28.2 112.8-28.2h88.1V1008.9h-172.7c-44.6 0-67-27.027-67-81.07 0-39.944 13-69.32 38.8-88.117 28.2-18.797 65.8-28.198 112.8-28.198h398.3V1164h14.1c84.6-108.1 181-199.74 289.1-274.932 110.5-75.192 212.8-112.79 306.7-112.79 56.4 0 99.9 16.45 130.4 49.346 30.6 30.55 45.8 69.32 45.8 116.315 0 61.092-17.6 111.622-52.9 151.562-260.8 0-499.2 97.52-715.5 292.55v955.2l158.6 45.82c37.6 11.75 64.7 25.85 81.1 42.3 16.4 14.1 24.6 34.07 24.6 59.92 0 32.9-15.2 49.34-45.8 49.34h-719.1zm2059.7 45.82c-164.5 0-310.1-35.24-437-105.74-126.9-70.5-225.6-173.88-296.1-310.17s-105.8-299.6-105.8-489.94c0-190.33 35.3-352.47 105.8-486.4 70.5-136.3 169.2-239.678 296.1-310.172s272.5-105.74 437-105.74c164.6 0 310.2 35.247 437.1 105.74s225.6 173.882 296.1 310.172c70.5 133.94 105.8 296.08 105.8 486.4 0 190.34-35.3 353.65-105.8 489.94s-169.2 239.68-296.1 310.17c-126.9 70.5-272.5 105.74-437.1 105.74zm0-211.48c159.8 0 283.2-59.92 370.2-179.76 89.2-122.2 133.9-293.72 133.9-514.6 0-220.88-44.7-391.24-133.9-511.08-87-119.84-210.4-179.76-370.2-179.76-162.1 0-287.8 59.92-377.1 179.76-87 119.84-130.4 290.2-130.4 511.08 0 220.9 44.6 392.42 133.9 514.6 89.3 119.84 213.9 179.76 373.6 179.76zm1832.4 211.48c-164.5 0-310.2-35.24-437.1-105.74-126.9-70.5-225.6-173.88-296.1-310.17s-105.8-299.6-105.8-489.94c0-190.33 35.3-352.47 105.8-486.4 70.5-136.3 169.2-239.678 296.1-310.172s272.6-105.74 437.1-105.74 310.2 35.247 437.1 105.74 225.6 173.882 296.1 310.172c70.5 133.94 105.7 296.08 105.7 486.4 0 190.34-35.2 353.65-105.7 489.94s-169.2 239.68-296.1 310.17c-126.9 70.5-272.6 105.74-437.1 105.74zm0-211.48c159.8 0 283.1-59.92 370.1-179.76 89.3-122.2 134-293.72 134-514.6 0-220.88-44.7-391.24-134-511.08-87-119.84-210.3-179.76-370.1-179.76-162.2 0-287.9 59.92-377.2 179.76-87 119.84-130.4 290.2-130.4 511.08 0 220.9 44.7 392.42 133.9 514.6 89.3 119.84 213.9 179.76 373.7 179.76zm1071.6 165.66c-21.2 0-37.6-7.05-49.4-21.15-11.7-16.45-17.6-37.6-17.6-63.44 0-37.6 13-65.8 38.8-84.6 28.2-18.8 65.8-28.2 112.8-28.2h88.1V1033.57h-197.4c-21.1 0-38.8-8.22-52.9-24.67-11.7-16.453-17.6-37.6-17.6-63.447 0-37.6 13-66.97 38.8-88.118 28.2-23.5 65.8-35.247 112.8-35.247h116.3V547.16c0-178.587 51.7-313.7 155.1-405.34C16938.6 47.824 17072.6.83 17237 .83c105.8 0 205.8 17.624 299.7 52.87 94 32.895 171.5 75.19 232.6 126.89v324.274c0 14.1-5.8 27.025-17.6 38.772-11.7 9.4-28.2 14.1-49.4 14.1-28.2 0-50.5-9.402-66.9-28.198s-29.4-46.994-38.8-84.593l-35.3-162.137c-72.8-46.994-158.6-70.494-257.3-70.494-89.3 0-160.8 28.198-215 84.593-54 54.043-81.1 132.766-81.1 236.156v289.026h458.3c35.2 0 52.8 18.796 52.8 56.396 0 70.494-61 112.8-183.3 126.886l-327.8 28.2v1307.67l158.6 45.82c37.7 11.75 64.8 25.85 81.1 42.3 16.5 14.1 24.7 34.07 24.7 59.92 0 32.9-15.3 49.34-45.8 49.34h-719.1zM2149.5 7845.56c-393.4 0-747.04-77.55-1060.95-232.44-309.94-158.93-554.382-399.25-733.194-721.16C176.544 6566.15 87.14 6166.83 87.14 5694c0-460.9 85.433-852.34 256.36-1174.05 174.838-321.84 409.28-564.2 703.33-727.12 298.02-162.9 631.8-244.35 1001.34-244.35 282.13 0 542.4 41.65 780.8 125.15 238.42 79.47 437.1 186.75 596.04 321.84v727.18c0 71.52-37.8 107.28-113.24 107.28-51.66 0-93.38-19.86-125.17-59.6-31.8-39.73-57.68-103.3-77.55-190.72l-95.37-411.23c-95.36-67.55-218.55-121.13-369.54-160.86-151-43.7-315.97-65.56-494.78-65.56-445.04 0-798.7 152.97-1060.95 458.85-262.257 301.98-393.385 733.14-393.385 1293.25 0 373.5 61.526 693.4 184.772 959.56 123.183 262.24 294.043 460.9 512.593 596 222.52 135.1 478.76 202.63 768.9 202.63 266.23 0 496.7-45.7 691.4-137.14v-1275.5h-572.2c-79.47 0-119.2-49.66-119.2-149 0-63.57 23.84-113.23 71.53-149 47.68-35.76 113.24-53.64 196.75-53.64H3812.4c55.63 0 83.44 29.8 83.44 89.4 0 43.7-13.9 79.46-41.66 107.27-27.75 27.82-75.5 51.66-143.05 71.52l-262.25 83.44v1507.94c-174.84 95.36-379.42 168.87-614 220.45-234.57 51.6-462.92 77.55-685.44 77.55h.06zm2960 0c-254.3 0-470.87-71.52-649.68-214.56-178.82-143.04-268.22-345.68-268.22-607.92 0-290.05 103.3-502.62 309.94-637.65 206.63-139.07 474.9-234.43 804.65-286.08l780.8-119.2v-238.4c0-182.77-57.68-327.8-172.85-435.14-111.26-107.28-266.23-160.85-464.9-160.85-115.23 0-246.36 19.86-393.38 59.6-143.05 39.73-258.3 87.4-345.7 143.04l-59.6 256.34c-31.8 131.12-93.38 196.74-184.77 196.74-35.77 0-63.58-7.95-83.45-23.84-15.9-19.86-23.84-43.7-23.84-71.52v-584.08c162.92-95.35 349.68-174.82 560.28-238.4 214.57-63.58 421.2-95.36 619.88-95.36 325.83 0 592.06 83.44 798.7 250.32 206.65 166.87 309.94 405.27 309.94 715.2v1692.63l208.6 65.56c67.56 23.84 115.24 47.68 143.05 71.52 27.82 23.84 41.66 57.68 41.66 101.26 0 55.62-25.83 83.44-77.55 83.44h-864.2v-375.55H6075c-107.3 139.07-244.38 250.32-411.27 333.76-166.9 79.47-351.66 119.2-554.38 119.2l.13-.06zm172.85-369.52c135.1 0 264.25-31.8 387.43-95.36 127.15-67.55 228.48-154.96 303.98-262.24C6049.25 7007.2 6087 6888 6087 6760.84v-441.16l-667.56 107.28c-210.6 35.76-375.57 99.33-494.78 190.72-115.23 87.4-172.85 212.57-172.85 375.54 0 154.96 47.68 274.16 143.05 357.6 99.34 83.44 228.48 125.16 387.43 125.16l.06.06zM7351.2 7768c-35.76 0-63.57-11.92-83.44-35.76-19.87-27.8-29.8-63.57-29.8-107.27 0-63.58 21.8-111.26 65.56-143.04 47.68-31.8 111.26-47.68 190.73-47.68h149V5181.4H7351.2c-75.5 0-113.24-45.7-113.24-137.15 0-67.54 21.8-117.27 65.56-149 47.68-31.8 111.26-47.68 190.73-47.68h673.6v393.35h23.84c333.8-301.97 663.6-452.95 989.43-452.95 186.76 0 351.66 41.65 494.78 125.16 143.1 83.5 248.35 204.62 315.96 363.55 349.66-325.8 697.26-488.7 1043.06-488.7 262.3 0 476.8 79.46 643.7 238.4 170.9 154.96 256.4 375.55 256.4 661.56v1746.34l256.4 77.54c63.5 19.87 107.2 43.7 131.1 71.52 27.8 23.84 41.6 57.68 41.6 101.25 0 55.63-25.8 83.44-77.5 83.44h-1192.1c-35.7 0-63.6-11.92-83.4-35.76-19.9-27.8-29.8-63.57-29.8-107.27 0-63.58 21.8-111.26 65.5-143.04 47.7-31.8 111.3-47.68 190.8-47.68h143v-1698.6c0-186.75-45.7-327.8-137.1-423.16-87.5-99.34-216.7-149-387.5-149-139 0-278.1 39.73-417.2 119.2-135.1 75.5-258.3 172.84-369.5 292.04v1859.5l262.2 77.54c63.6 15.9 107.3 37.8 131.1 65.56 27.9 27.8 41.7 63.57 41.7 107.28 0 55.63-25.8 83.44-77.5 83.44H9234.68c-35.76 0-63.58-11.92-83.45-35.76-19.86-27.8-29.8-63.57-29.8-107.28 0-63.57 21.8-111.25 65.57-143.04 47.68-31.8 111.26-47.68 190.73-47.68h131.13v-1698.6c0-186.75-45.7-327.8-137.16-423.16-87.42-99.33-214.57-149-381.46-149-135.1 0-272.2 37.8-411.27 113.24-135.1 75.5-262.26 174.83-381.46 298v1859.5l268.2 77.54c63.58 23.84 107.3 49.67 131.13 77.55 27.82 23.84 41.66 55.62 41.66 95.36 0 55.62-27.8 83.44-83.44 83.44h-1204l.12-.2zm6650.6 77.55c-286.1 0-540.4-59.6-762.9-178.8s-397.3-292.04-524.5-518.45c-123.2-226.48-184.8-496.67-184.8-810.56 0-317.87 57.7-592.02 172.9-822.48 119.2-234.42 284.1-413.22 494.8-536.4 214.5-127.15 462.9-190.72 745-190.72 389.4 0 701.3 115.22 935.7 345.68 234.5 226.48 351.7 528.45 351.7 905.9 0 143.04-31.8 282.1-95.4 417.2h-2044.5c0 333.76 89.4 590.04 268.3 768.84 182.7 174.82 405.3 262.23 667.5 262.23 143.1 0 274.2-17.94 393.4-53.64 119.2-39.73 238.4-97.4 357.6-172.83 59.6-39.74 107.3-59.6 143.1-59.6 43.7 0 79.5 15.9 107.3 47.68 31.8 31.78 47.6 71.5 47.6 119.2s-17.9 91.4-53.6 131.12c-31.8 35.76-83.4 75.5-155 119.2-242.4 151-530.4 226.48-864.2 226.48v-.06zm643.8-1746.34c15.9-43.7 23.8-101.25 23.8-172.84 0-246.34-67.5-437.06-202.6-572.15-131.2-139.07-308-208.6-530.5-208.6-234.5 0-429.2 85.42-584.1 256.34-151 166.88-236.5 399.25-256.4 697.25h1549.8zm1951.2 1746.34c-202.7 0-409.3-29.8-619.9-89.4s-369.5-135.1-476.8-226.48v-590.04c0-27.8 7.9-51.65 23.8-71.52 19.9-19.86 47.7-29.8 83.5-29.8 91.4 0 152.9 67.55 184.7 202.64l53.7 262.24c71.5 59.6 172.8 105.3 304 137.14 130.7 31.74 264.8 47.75 399.3 47.68 190.7 0 343.7-29.8 458.9-89.4 119.2-59.6 178.8-157 178.8-292.03 0-95.36-25.8-172.84-77.5-232.44-47.7-63.58-119.3-119.2-214.6-166.88-95.4-51.65-264.3-129.13-506.7-232.44-305.9-139.07-528.4-274.16-667.5-405.28-135.1-131.12-202.7-298-202.7-500.64 0-250.3 103.3-443.02 310-578.05 206.6-135.03 458.9-202.64 756.9-202.64 202.6 0 399.3 35.76 590.1 107.28 194.7 71.52 343.7 154.96 447 250.32v566.2c0 27.8-9.9 51.65-29.8 71.52-15.9 15.9-41.7 23.84-77.6 23.84-91.4 0-152.9-65.56-184.7-196.75l-59.6-280.05c-67.6-55.63-159-99.33-274.2-131.12-111.3-35.76-226.5-53.64-345.7-53.64-162.9 0-300 31.8-411.3 95.36-107.3 59.6-160.9 152.97-160.9 280.05 0 83.44 21.8 154.96 65.6 214.56 47.7 55.63 115.2 107.28 202.7 154.96 91.4 47.68 236.5 115.23 435.1 202.64l125.2 59.6c302 139.07 516.6 274.16 643.7 405.28 131.2 127.14 196.8 299.92 196.8 518.45 0 266.2-111.3 460.9-333.8 584.08-218.5 123.17-490.7 184.76-816.5 184.76z" fill="#4fbfa8"/></svg>
