<?xml version="1.0" encoding="utf-8"?>
<!-- Generator: Adobe Illustrator 22.1.0, SVG Export Plug-In . SVG Version: 6.00 Build 0)  -->
<svg xmlns="http://www.w3.org/2000/svg" xmlns:xlink="http://www.w3.org/1999/xlink" version="1.1" id="Layer_1" x="0px" y="0px" viewBox="0 0 2000 211.5" style="enable-background:new 0 0 2000 211.5;" xml:space="preserve" width="65" height="35">
<style type="text/css">
	.st0{fill:#918585;}
	.st1{fill:#FF0003;}
</style>
<g>
	<g>
		<path class="st0" d="M0,5.1h40.6c22,0,37.8,2,47.5,6.1c9.7,4.1,17.4,10.6,23,19.7c5.6,9.1,8.4,19.9,8.4,32.6c0,14-3.7,25.7-11,35    s-17.3,15.8-29.9,19.4c-7.4,2.1-20.8,3.2-40.3,3.2v85.2H0V5.1z M38.3,83.7h12.2c9.6,0,16.2-0.7,20-2.1s6.7-3.6,8.8-6.8    c2.1-3.2,3.2-7,3.2-11.5c0-7.8-3-13.4-9-17c-4.4-2.6-12.5-4-24.3-4H38.3V83.7z"/>
		<path class="st0" d="M155.7,5.1h38.4v130.1c0,11.2,1,19.1,2.9,23.8c2,4.6,5.2,8.3,9.7,11.1c4.5,2.8,10,4.2,16.3,4.2    c6.7,0,12.6-1.5,17.4-4.6c4.9-3.1,8.3-7,10.1-11.8c1.9-4.8,2.8-13.9,2.8-27.4V5.1h38.4v120c0,20.2-1.1,34.3-3.4,42.1    c-2.3,7.8-6.6,15.4-13.1,22.7c-6.4,7.3-13.8,12.7-22.2,16.2c-8.4,3.5-18.2,5.3-29.3,5.3c-14.6,0-27.3-3.3-38.1-10    c-10.8-6.7-18.5-15.1-23.2-25.2c-4.6-10.1-7-27.1-7-51.1L155.7,5.1L155.7,5.1z"/>
		<path class="st0" d="M442,32.4l-28.4,25c-10-13.9-20.1-20.8-30.4-20.8c-5,0-9.1,1.3-12.3,4c-3.2,2.7-4.8,5.7-4.8,9.1    c0,3.4,1.1,6.6,3.4,9.6c3.1,4,12.5,12.6,28.1,25.9c14.6,12.2,23.5,19.9,26.6,23.1c7.8,7.8,13.3,15.3,16.5,22.5    c3.2,7.2,4.9,15,4.9,23.5c0,16.5-5.7,30.1-17.1,40.9s-26.3,16.1-44.6,16.1c-14.3,0-26.8-3.5-37.5-10.5c-10.6-7-19.7-18-27.3-33.1    l32.2-19.4c9.7,17.8,20.8,26.7,33.4,26.7c6.6,0,12.1-1.9,16.6-5.7c4.5-3.8,6.7-8.3,6.7-13.3c0-4.6-1.7-9.1-5.1-13.7    c-3.4-4.6-10.8-11.5-22.3-20.9c-21.9-17.9-36.1-31.7-42.5-41.4c-6.4-9.7-9.6-19.4-9.6-29.1c0-14,5.3-25.9,16-35.9    c10.6-10,23.8-15,39.4-15c10,0,19.6,2.3,28.7,7C421.5,11.7,431.4,20.1,442,32.4z"/>
		<path class="st0" d="M481.9,5.1h38.8V81h67.2V5.1h38.7v201.2h-38.7v-88.2h-67.2v88.2h-38.8L481.9,5.1L481.9,5.1z"/>
	</g>
	<g>
		<path class="st1" d="M914.3,37.9l-27,26.7c-17.1-18.1-37-27.1-59.7-27.1c-19.8,0-36.4,6.6-49.8,19.7    c-13.4,13.1-20.1,29.1-20.1,47.9c0,19.4,6.9,35.9,20.8,49.4c13.9,13.5,31,20.3,51.4,20.3c13.2,0,24.4-2.8,33.5-8.3    c9.1-5.6,16.4-14.3,22-26.1h-58.3v-36h101.2l0.3,8.5c0,17.6-4.6,34.3-13.7,50.1c-9.1,15.8-20.9,27.8-35.4,36.1    c-14.5,8.3-31.5,12.4-51,12.4c-20.9,0-39.5-4.5-55.9-13.6s-29.3-22-38.8-38.8s-14.3-34.9-14.3-54.3c0-26.6,8.8-49.8,26.4-69.5    c20.9-23.4,48-35.1,81.5-35.1c17.5,0,33.9,3.2,49.1,9.7C889.4,15.2,902,24.6,914.3,37.9z"/>
		<path class="st1" d="M1025.1,5.1h38.8l77.4,201.2h-39.8l-15.7-41.4h-82.1l-16.4,41.4h-39.8L1025.1,5.1z M1044.7,58.4l-27,69.1    h53.8L1044.7,58.4z"/>
		<path class="st1" d="M1190.4,5.1h37.3l46.6,140.3l47.1-140.3h37.3l33.8,201.2h-37l-21.6-127.1l-42.7,127.1h-33.8L1215,79.2    l-22.1,127.1h-37.4L1190.4,5.1z"/>
		<path class="st1" d="M1420.3,5.1h38v201.2h-38V5.1z"/>
		<path class="st1" d="M1501.6,5.1h36.7l86.1,132.4V5.1h38.3v201.2h-36.8l-86-132v132h-38.3V5.1L1501.6,5.1z"/>
		<path class="st1" d="M1894.4,37.9l-27,26.7c-17.1-18.1-37-27.1-59.7-27.1c-19.8,0-36.4,6.6-49.8,19.7    c-13.4,13.1-20.1,29.1-20.1,47.9c0,19.4,6.9,35.9,20.8,49.4c13.9,13.5,31,20.3,51.4,20.3c13.2,0,24.4-2.8,33.5-8.3    c9.1-5.6,16.4-14.3,22-26.1h-58.3v-36h101.2l0.3,8.5c0,17.6-4.6,34.3-13.7,50.1c-9.1,15.8-20.9,27.8-35.4,36.1s-31.5,12.4-51,12.4    c-20.9,0-39.5-4.5-55.9-13.6s-29.3-22-38.8-38.8s-14.3-34.9-14.3-54.3c0-26.6,8.8-49.8,26.4-69.5c20.9-23.4,48.1-35.1,81.5-35.1    c17.5,0,33.9,3.2,49.1,9.7C1869.5,15.2,1882.1,24.6,1894.4,37.9z"/>
	</g>
	<g>
		<path class="st0" d="M1918.3,5h25.3v8.6h-8.3v37.1h-8.8V13.6h-8.1L1918.3,5L1918.3,5z"/>
		<path class="st0" d="M1954,5h8.5l10.6,31.9L1983.8,5h8.5l7.7,45.7h-8.4l-4.9-28.9l-9.8,28.9h-7.7l-9.6-28.9l-5,28.9h-8.5L1954,5z"/>
	</g>
</g>
</svg>
