<?xml version="1.0"?>
<svg xmlns="http://www.w3.org/2000/svg" width="65" height="35" viewBox="0 0 220 46" fill="none">
<g clip-path="url(#clip0)">
<path d="M18.4818 27.7237C18.3577 27.8478 18.2034 27.9316 18.0324 27.9719C17.8849 27.9719 17.4858 28.0188 16.8855 28.0188H0.463129C0.235087 29.4441 0.0841772 30.8827 0.0103989 32.3248C-0.0399044 32.9116 0.07747 33.5052 0.345755 34.0284C0.707939 34.4207 1.17408 34.7024 1.68718 34.85C3.32036 35.011 4.96025 35.0747 6.59678 35.0479H17.5461C19.186 35.078 20.8226 35.011 22.4558 34.85C23.0929 34.7058 23.6798 34.3939 24.156 33.9479C24.4746 33.475 24.7093 32.9519 24.8535 32.3985C25.2124 30.9666 25.4874 29.5111 25.6718 28.0456L25.9166 26.1978C26.1715 24.189 26.3191 22.8912 26.3191 22.2943V21.9925C26.3895 21.3016 26.2117 20.6108 25.8194 20.0407C25.2291 19.5108 24.4645 19.2191 23.6731 19.2191C22.3786 19.105 21.0774 19.0715 19.7796 19.1118H8.80007C8.87385 18.7663 8.9208 18.4142 8.94763 18.0621C8.97446 17.8978 9.04153 17.7435 9.14549 17.6127C9.26622 17.4585 9.45066 17.3646 9.64517 17.3646C10.108 17.3142 10.5775 17.2975 11.0436 17.3176H20.8628C21.9829 17.3444 23.0996 17.2941 24.2097 17.16C24.7563 17.113 25.2962 16.9789 25.806 16.7676C26.5538 16.3518 27.0937 15.6442 27.305 14.8158C27.7007 13.3235 27.9724 11.801 28.1233 10.2651H9.59486C8.34734 10.2315 7.09982 10.2617 5.8523 10.3623C5.14134 10.3892 4.45051 10.6138 3.85693 11.0096C3.26 11.5461 2.85422 12.2671 2.70331 13.0586C2.39142 14.4637 2.15668 15.8856 1.99906 17.3142L1.74419 19.1084C1.44907 21.1105 1.24451 22.415 1.14725 23.0622V23.6592C1.10701 24.2695 1.28475 24.8732 1.64693 25.3661C2.23045 25.7954 2.92799 26.0402 3.65236 26.0637C4.256 26.114 5.25536 26.171 6.59678 26.171H18.8306C18.8004 26.4896 18.7501 26.8048 18.683 27.1133C18.6796 27.3347 18.6092 27.5459 18.4818 27.7237Z" fill="#E51F2D"/>
<path d="M46.9838 26.2486C46.9536 26.5571 46.9033 26.8657 46.8362 27.1675C46.7993 27.3955 46.6954 27.6068 46.5344 27.7745C46.4137 27.8315 46.2996 27.8986 46.189 27.9723C46.0381 27.969 45.8871 27.9858 45.7396 28.0193H44.6933V28.0461H35.7493L36.9935 19.1894C37.0606 18.8507 37.1444 18.5153 37.2484 18.19C37.292 17.9922 37.3758 17.8044 37.4965 17.64C37.6911 17.4724 37.9426 17.3818 38.2008 17.3919C38.563 17.3416 38.9319 17.3248 39.2974 17.3449H48.2413L46.9838 26.2486ZM38.0968 10.289C36.7655 10.2622 35.4308 10.3125 34.1028 10.4366C33.147 10.4299 32.2315 10.8088 31.5574 11.4863C31.1214 12.1737 30.8297 12.9383 30.6955 13.7398C30.5983 14.3368 30.4507 15.487 30.1959 17.2913L29.9477 19.1391L27.7444 35.0483L26.8524 42.1109C26.8255 42.3893 26.7752 42.6643 26.6981 42.9292C26.6444 43.1707 26.5271 43.3953 26.356 43.5764C26.1884 43.838 25.9838 44.0761 25.749 44.2807C25.5545 44.4618 25.1521 44.7804 24.5552 45.28H26.9127C27.513 45.2767 28.1099 45.2465 28.7069 45.1828C29.3843 45.1325 30.0584 45.0151 30.7123 44.8307C31.2086 44.6697 31.6781 44.435 32.104 44.1331C32.6372 43.724 33.0665 43.1908 33.3549 42.5838C33.5729 42.0808 33.7238 41.5509 33.8043 41.0076L34.8036 35.0785H46.4338C47.7014 35.1054 48.9691 35.0551 50.23 34.931C50.9477 34.8639 51.6284 34.5788 52.1751 34.1127C52.7586 33.4956 53.1241 32.7076 53.2247 31.8658C53.3723 31.1683 53.5769 29.914 53.8217 28.0126C54.6701 22.1003 55.1731 18.5488 55.3174 17.3516C55.5487 16.2282 55.6997 15.0913 55.7667 13.9478C55.8036 13.6292 55.8204 13.3072 55.817 12.9886C55.8539 12.4923 55.7701 11.9926 55.5689 11.5366C55.2268 10.839 54.318 10.4869 52.772 10.3896C51.6284 10.289 50.4748 10.2555 49.3279 10.2924H38.0968V10.289Z" fill="#E51F2D"/>
<path d="M60.4616 34.9408C61.3268 34.9274 62.1652 34.6424 62.8594 34.1192C63.396 33.482 63.7381 32.7007 63.842 31.8723C64.1606 30.6215 64.3987 29.3505 64.5463 28.066L67.0011 10.262L59.9318 10.252L56.937 31.4095C56.9303 31.755 56.8599 32.0937 56.7325 32.4123C56.6822 32.6872 56.5614 32.9455 56.3871 33.1668C56.1322 33.4586 55.8606 33.7336 55.5688 33.9884C55.2066 34.3607 54.8209 34.7094 54.4219 35.0381H56.7694C58.5635 35.0381 59.8144 34.9878 60.4616 34.9408Z" fill="#E51F2D"/>
<path d="M61.7799 1.20084C61.3373 1.84472 61.0589 2.5825 60.9617 3.35717C60.8141 3.95411 60.6095 5.20163 60.3144 7.10645L60.1602 8.46129H67.2563L68.4032 0.0539211C66.884 0.0237391 65.3615 0.0740424 63.8457 0.201478C63.0576 0.281963 62.3266 0.634086 61.7799 1.20084Z" fill="#E51F2D"/>
<path d="M76.5485 10.3121C75.4988 10.292 74.4492 10.339 73.4062 10.4597C72.6315 10.4966 71.9072 10.8588 71.4108 11.459C70.9715 12.0996 70.6932 12.8374 70.5926 13.6087C70.4953 14.2157 70.2975 15.4632 70.0459 17.3881L69.7978 19.1856L68.7984 26.2449L68.5704 28.0659L68.0707 31.5703C68.0573 31.9258 67.9902 32.2813 67.8728 32.62C67.8091 32.8145 67.7219 33.0023 67.618 33.1767C67.3732 33.4751 67.0982 33.7501 66.7997 33.9983C66.5951 34.2029 66.1961 34.5449 65.5488 35.0949H67.8494C69.7944 35.0949 71.0889 35.048 71.7931 34.9977C72.645 34.9608 73.4565 34.6221 74.0836 34.0452C74.5833 33.3678 74.9086 32.5831 75.0327 31.7481C75.1869 31.0941 75.3848 29.8935 75.6296 28.0927L75.8845 26.2449L76.8838 19.1756C76.9543 18.8302 77.0046 18.478 77.0314 18.1259C77.1052 17.9046 77.2226 17.7 77.3835 17.529C77.5277 17.4217 77.7055 17.368 77.8832 17.3814C78.2454 17.3311 78.6143 17.3311 78.9798 17.3814H88.1216L87.8667 19.1789L86.8674 26.2415L86.6226 28.086L85.6232 35.0882C87.2229 35.1184 88.8192 35.0513 90.4087 34.8903C91.1096 34.7763 91.7569 34.441 92.2599 33.9379C92.6221 33.4114 92.877 32.8178 93.0044 32.1907C93.3163 30.8392 93.551 29.471 93.7086 28.0893L93.9568 26.2415L94.9394 19.1588L95.1775 17.3613C95.4726 15.1547 95.6269 13.7026 95.6269 13.0553C95.7409 12.2572 95.4592 11.4557 94.8723 10.9057C94.2083 10.5234 93.4471 10.3322 92.6791 10.3591C92.2197 10.3088 91.4752 10.3088 90.5831 10.3088H76.5485V10.3121Z" fill="#E51F2D"/>
<path d="M106.835 10.3127C106.107 10.2624 105.584 10.2624 105.289 10.2624C104.289 10.2389 103.287 10.2892 102.294 10.4099C101.596 10.4435 100.929 10.7051 100.396 11.1578C99.8391 11.7748 99.4736 12.5428 99.3462 13.3644C99.2489 14.0117 99.0276 15.3162 98.7325 17.3149L98.4776 19.1627L97.4782 26.222L97.2301 28.0195L96.7304 31.5709C96.6734 31.9733 96.6231 32.2751 96.5761 32.473C96.4822 32.7178 96.3649 32.9525 96.2341 33.1772C96.0429 33.5025 95.7847 33.7809 95.4795 33.9989C95.2817 34.2034 94.8826 34.5455 94.2354 35.0955H96.5258C98.4239 35.0955 99.6681 35.0485 100.325 34.9982C101.073 34.958 101.798 34.7199 102.421 34.3007C103.008 33.8446 103.401 33.1806 103.518 32.4462C103.887 30.9974 104.159 29.5252 104.336 28.0396L104.584 26.2421L105.607 19.1828C105.684 18.871 105.738 18.5557 105.762 18.2405C105.808 18.0091 105.892 17.7878 106.01 17.5832C106.174 17.439 106.389 17.3686 106.607 17.3853C106.972 17.335 107.344 17.3183 107.713 17.3384L107.458 19.1828L106.459 26.2421L106.211 28.0396L105.212 35.0921C106.851 35.1391 108.495 35.0586 110.121 34.844C110.678 34.7199 111.194 34.4583 111.627 34.0894C112.106 33.5562 112.432 32.8989 112.569 32.1946C112.878 30.823 113.109 29.4347 113.273 28.0362L113.522 26.2387L114.551 19.1795C114.632 18.8877 114.685 18.5893 114.705 18.2841C114.742 18.0527 114.83 17.828 114.95 17.6302C115.098 17.4792 115.292 17.3954 115.497 17.382C115.946 17.3317 116.396 17.3116 116.848 17.335L116.594 19.1795L115.594 26.2387L115.349 28.0362L114.357 35.0955C115.96 35.1223 117.559 35.0586 119.152 34.8976C119.85 34.7836 120.494 34.4482 120.993 33.9452C121.429 33.3013 121.711 32.5669 121.812 31.7956C121.959 31.1383 122.164 29.8908 122.409 28.0396L122.663 26.2421L123.693 19.1594L123.938 17.3116C124.163 15.9031 124.313 14.4812 124.387 13.0559C124.458 12.3651 124.28 11.6742 123.888 11.1041C123.478 10.6883 122.925 10.4401 122.342 10.4066C121.346 10.2859 120.346 10.2356 119.343 10.259C119.042 10.259 118.542 10.259 117.848 10.3093H106.835V10.3127Z" fill="#E51F2D"/>
<path d="M132.647 27.1908C132.647 26.9292 132.714 26.6744 132.845 26.4463C132.929 26.3357 133.056 26.2619 133.197 26.2485C133.459 26.178 133.734 26.1479 134.005 26.168H143.825C143.801 26.5369 143.751 26.9058 143.677 27.2646C143.647 27.4457 143.58 27.6167 143.473 27.7643C143.426 27.8649 143.251 27.9621 143.13 27.9621C143.01 27.9621 142.715 28.0091 142.312 28.0091H132.493C132.567 27.7441 132.62 27.4692 132.647 27.1908ZM147.222 10.3124H127.902V11.134C127.902 12.4385 127.949 13.4379 127.949 14.0382C127.969 14.843 128.174 15.6311 128.546 16.3421C129.025 16.8652 129.686 17.1838 130.394 17.2442C130.991 17.2911 132.245 17.3414 134.036 17.3414H145.032C145.008 17.7103 144.958 18.0792 144.884 18.438C144.898 18.6024 144.844 18.7633 144.737 18.8874C144.609 19.0115 144.455 19.0953 144.287 19.1356C144.173 19.1356 143.872 19.1859 143.469 19.1859H133.036C131.755 19.1624 130.474 19.2127 129.2 19.3401C128.479 19.3904 127.795 19.6788 127.255 20.1618C126.711 20.8593 126.366 21.6876 126.255 22.5663C126.148 23.1733 125.954 24.3705 125.699 26.1747L125.404 28.0191C125.149 30.0212 125.001 31.3727 124.954 32.0702V32.4056C124.89 33.0159 125.035 33.6296 125.357 34.1528C125.759 34.5653 126.286 34.8302 126.852 34.9073C128.395 35.065 129.944 35.1287 131.49 35.1052H142.332C143.935 35.132 145.535 35.0683 147.128 34.9073C147.711 34.8067 148.268 34.5854 148.764 34.2601C149.267 33.8376 149.616 33.2607 149.764 32.6202C150.17 31.1145 150.445 29.5752 150.582 28.0191L151.293 22.9184L152.111 17.3179C152.302 16.1241 152.433 14.9168 152.504 13.7095C152.547 13.4815 152.567 13.2467 152.561 13.012C152.658 12.2306 152.38 11.4526 151.809 10.9126C151.363 10.6175 150.847 10.4431 150.31 10.413C149.284 10.3057 148.255 10.2721 147.222 10.3124Z" fill="#E51F2D"/>
<path d="M162.762 10.2454H161.712C160.662 10.2152 159.609 10.2488 158.563 10.3427C157.862 10.3963 157.181 10.6009 156.568 10.9396C155.863 11.5835 155.407 12.4554 155.273 13.4011C155.166 13.9746 154.971 15.3026 154.676 17.2543H161.746L161.491 19.0988L160.491 26.1614L160.247 27.9589C159.945 29.8134 159.747 31.0576 159.65 31.7149V32.5365C159.626 33.0395 159.727 33.5359 159.945 33.9886C160.397 34.5218 161.048 34.8504 161.746 34.8907C163.171 35.0215 164.603 35.0684 166.035 35.0382H170.535C171.934 35.0684 173.332 35.0181 174.724 34.8907C175.441 34.8236 176.122 34.5386 176.672 34.0724C177.152 33.5392 177.48 32.8819 177.621 32.1777C177.819 31.4734 178.024 30.0683 178.319 27.9723H167.336L167.591 26.1748L168.59 19.1122L168.838 17.2577H172.725C174.918 17.2577 176.317 17.2107 177.021 17.1504C177.638 17.1001 178.232 16.9123 178.765 16.6037C179.446 16.1108 179.908 15.3763 180.066 14.5514C180.398 13.1362 180.646 11.7008 180.811 10.2555H169.828L170.277 6.97568C170.495 5.56719 170.629 4.14528 170.679 2.72002C170.736 2.05602 170.579 1.39201 170.23 0.82526C169.761 0.412773 169.16 0.17467 168.537 0.151195C167.946 0.0371744 167.346 -0.013129 166.746 0.00363882H164.395L162.168 0.0204066C162.524 0.265216 162.859 0.540208 163.167 0.842028C163.406 1.00635 163.593 1.23104 163.717 1.48926C163.805 1.67706 163.838 1.88163 163.815 2.0862C163.818 2.40479 163.798 2.72337 163.768 3.03861L162.762 10.2454Z" fill="#E51F2D"/>
<path d="M186.072 1.20084C185.633 1.84472 185.355 2.5825 185.254 3.35717C185.1 3.95411 184.902 5.20163 184.6 7.10645L184.453 8.46129H191.542L192.696 0.0539211C191.16 0.0237391 189.624 0.0740424 188.095 0.201478C187.327 0.292024 186.612 0.644147 186.072 1.20084Z" fill="#E51F2D"/>
<path d="M181.059 35.0381C182.86 35.0381 184.104 34.9878 184.758 34.9408C185.623 34.9274 186.462 34.6424 187.156 34.1192C187.696 33.482 188.044 32.7007 188.155 31.8723C188.45 30.6181 188.668 29.3471 188.802 28.066L191.297 10.262L184.235 10.252L181.237 31.4095C181.223 31.7516 181.156 32.0903 181.032 32.4123C180.982 32.6906 180.861 32.9488 180.68 33.1668C180.425 33.4586 180.154 33.7336 179.862 33.9884C179.5 34.3607 179.117 34.7094 178.715 35.0381H181.059Z" fill="#E51F2D"/>
<path d="M201.231 10.2927C199.98 10.2658 198.729 10.3161 197.482 10.4402C196.754 10.4771 196.056 10.7387 195.486 11.1948C194.933 11.8118 194.567 12.5731 194.44 13.3913C194.343 14.0654 194.138 15.3431 193.843 17.3418C193.695 18.5391 193.384 20.2997 193.088 22.6941C192.793 25.0886 192.542 26.8425 192.344 28.0397C192.042 29.9915 191.895 31.296 191.844 31.9902V32.3825C191.831 32.9493 191.952 33.5127 192.196 34.0224C192.579 34.4718 193.112 34.7636 193.695 34.8407C195.238 34.9983 196.784 35.0654 198.333 35.0386H209.494C211.546 35.0386 212.891 34.9883 213.545 34.9413C214.327 34.9078 215.084 34.6663 215.738 34.2438C216.302 33.7139 216.671 33.0097 216.788 32.2451C217.093 30.8567 217.328 29.4549 217.492 28.0397H199.417L200.667 19.1393C200.745 18.8107 200.795 18.4753 200.815 18.14C200.869 17.9187 200.973 17.7174 201.117 17.5431C201.238 17.4357 201.395 17.3821 201.56 17.3955C202.019 17.2915 202.495 17.2748 202.958 17.3485H211.912C213.81 17.2982 215.061 17.2513 215.708 17.2513C216.637 17.2479 217.543 16.9629 218.304 16.4297C218.84 15.8663 219.193 15.152 219.303 14.3806C219.501 13.6764 219.706 12.3316 220.007 10.3295H212.911V10.296H201.231V10.2927Z" fill="#E51F2D"/>
<path d="M42.6811 39.3677L41.5845 45.6019H45.3002L45.4377 44.8306H42.671L43.0231 42.8051H45.0185L45.1594 42.0438H43.1305L43.4725 40.092H45.9307L46.0581 39.3677H42.6811Z" fill="#E51F2D"/>
<path d="M55.8235 45.6019L56.3802 42.4194C56.4707 41.9533 56.5579 41.4033 56.6417 40.8198C56.9637 41.3127 57.4265 41.9834 57.7786 42.4597L60.1596 45.7394H60.4447L61.5648 39.3677H60.6157L60.0691 42.3926C59.9886 42.8453 59.8981 43.402 59.841 43.8849C59.5392 43.4188 59.0966 42.7782 58.7947 42.359L56.6116 39.3677H55.9576L54.8442 45.5986H55.8235V45.6019Z" fill="#E51F2D"/>
<path d="M70.962 39.3677L70.8379 40.092H72.8433L71.8775 45.6019H72.8433L73.7991 40.092H75.8112L75.9353 39.3677H70.962Z" fill="#E51F2D"/>
<path d="M85.3318 39.3677L84.2017 45.6019H87.9141L88.0549 44.8306H85.2882L85.6403 42.8051H87.6693L87.8101 42.0438H85.7812L86.1233 40.092H88.5781L88.7088 39.3677H85.3318Z" fill="#E51F2D"/>
<path d="M99.9128 42.0906H99.0275L99.4198 40.0818H100.295C100.527 40.0617 100.758 40.1388 100.932 40.2964C101.107 40.4507 101.211 40.6686 101.221 40.9C101.177 41.5875 100.6 42.1174 99.9128 42.0906ZM102.203 40.9436C102.21 40.511 102.036 40.0985 101.727 39.8001C101.415 39.5016 100.999 39.3473 100.57 39.3675H98.6049L97.5083 45.5984H98.4473L98.9302 42.8418H99.896L101.378 45.5984L102.435 45.6386L100.798 42.7512C101.623 42.5433 102.2 41.7988 102.203 40.9436Z" fill="#E51F2D"/>
<path d="M111.623 39.3276L111.493 40.0922H113.505L112.532 45.6021H113.481L114.454 40.0922H116.466L116.597 39.3276H111.623Z" fill="#E51F2D"/>
<path d="M127.557 41.6816L127.936 43.2242H126.152L127.037 41.6816C127.188 41.4367 127.322 41.1819 127.436 40.9169C127.456 41.1752 127.5 41.43 127.557 41.6816ZM127.859 39.2368H127.517L123.727 45.6019H124.7L125.689 43.962H128.087L128.486 45.6019H129.411L127.859 39.2368Z" fill="#E51F2D"/>
<path d="M140.182 39.3677L139.126 45.6019H140.035L141.138 39.3677H140.182Z" fill="#E51F2D"/>
<path d="M153.103 42.4592L155.494 45.7389H155.766L156.853 39.3739H155.904L155.374 42.3921C155.3 42.8448 155.209 43.4015 155.152 43.8844C154.851 43.4183 154.408 42.7778 154.103 42.3586L151.926 39.3672H151.262L150.199 45.5981H151.148L151.712 42.4156C151.802 41.9494 151.883 41.3994 151.967 40.8159C152.285 41.3122 152.751 41.9863 153.103 42.4592Z" fill="#E51F2D"/>
<path d="M172.212 42.765L171.967 45.6021H172.836L173.352 39.3276H172.729L170.519 42.5504C170.16 43.1004 169.751 43.7074 169.472 44.1903C169.342 43.6806 169.137 43.0434 168.966 42.5504L167.859 39.3276H167.303L165.666 45.6021H166.548L167.292 42.765C167.383 42.3961 167.531 41.8462 167.638 41.3632C167.769 41.8227 167.94 42.3861 168.081 42.7986L169.046 45.6524H169.405L171.394 42.7986C171.672 42.3961 172.081 41.7824 172.36 41.3398C172.303 41.8059 172.212 42.3458 172.212 42.765Z" fill="#E51F2D"/>
<path d="M183.719 39.3677L182.588 45.6019H186.311L186.442 44.8306H183.678L184.03 42.8051H186.066L186.197 42.0438H184.168L184.513 40.092H186.968L187.096 39.3677H183.719Z" fill="#E51F2D"/>
<path d="M198.816 42.4597L201.207 45.7394H201.485L202.592 39.3744H201.643L201.11 42.3926C201.029 42.8453 200.945 43.402 200.882 43.8849C200.58 43.4188 200.137 42.7782 199.835 42.359L197.649 39.3677H196.995L195.915 45.5986H196.864L197.421 42.4161C197.511 41.9499 197.602 41.3999 197.682 40.8164C197.998 41.3127 198.464 41.9868 198.816 42.4597Z" fill="#E51F2D"/>
<path d="M211.999 39.3276L211.875 40.0922H213.897L212.931 45.6021H213.884L214.856 40.0922H216.868L216.972 39.3276H211.999Z" fill="#E51F2D"/>
</g>
<defs>
<clipPath id="clip0">
<rect width="220" height="46" fill="white"/>
</clipPath>
</defs>
</svg>
