<?xml version="1.0"?>
<!DOCTYPE svg PUBLIC "-//W3C//DTD SVG 20010904//EN" "http://www.w3.org/TR/2001/REC-SVG-20010904/DTD/svg10.dtd">
<svg xmlns="http://www.w3.org/2000/svg" version="1.0" width="65" height="35" viewBox="0 0 4000 2500" preserveAspectRatio="xMidYMid meet">
<g id="layer101" fill="#000000" stroke="none">
 <path d="M69 1873 c-40 -25 -63 -71 -62 -125 1 -80 50 -131 124 -130 45 1 89 24 89 47 0 17 -35 21 -45 5 -11 -17 -80 -12 -98 8 -37 41 -28 140 14 163 27 14 77 2 89 -21 17 -32 12 -48 -17 -52 -17 -2 -28 -9 -28 -18 0 -11 12 -15 50 -15 44 0 50 3 53 23 13 92 -91 164 -169 115z"/>
 <path d="M775 1878 c-6 -17 80 -249 97 -259 8 -5 19 -2 29 9 21 23 102 239 94 252 -12 20 -36 9 -46 -20 -10 -28 -14 -30 -64 -30 -48 0 -55 3 -67 27 -15 30 -36 41 -43 21z m145 -95 c0 -5 -8 -30 -18 -56 l-19 -48 -20 55 -21 56 39 0 c22 0 39 -3 39 -7z"/>
 <path d="M1535 1881 c-3 -6 3 -64 15 -128 32 -179 59 -187 103 -34 16 57 26 78 30 65 3 -10 15 -51 26 -90 37 -127 69 -107 96 60 15 90 16 119 7 128 -22 22 -34 -7 -46 -104 l-12 -93 -27 94 c-14 52 -31 99 -37 105 -18 18 -38 -16 -63 -109 l-24 -90 -8 60 c-15 119 -20 140 -37 143 -9 2 -19 -2 -23 -7z"/>
 <path d="M2387 1884 c-4 -4 -7 -65 -7 -136 0 -122 1 -128 20 -128 20 0 20 5 18 132 -3 122 -10 153 -31 132z"/>
 <path d="M2986 1875 c-3 -9 -6 -67 -6 -130 0 -169 13 -171 120 -12 l45 67 3 -90 c2 -82 5 -90 22 -90 19 0 20 8 20 135 0 112 -3 135 -15 135 -8 0 -43 -41 -77 -91 l-63 -91 -5 89 c-4 71 -8 88 -21 91 -9 2 -19 -4 -23 -13z"/>
 <path d="M3825 1880 c-40 -16 -68 -58 -73 -110 -9 -93 35 -150 117 -150 49 0 91 21 91 46 0 16 -36 19 -45 4 -3 -5 -24 -10 -45 -10 -50 0 -70 27 -70 93 0 61 35 103 78 92 32 -8 47 -22 57 -52 6 -20 3 -23 -24 -23 -25 0 -31 -4 -31 -21 0 -18 5 -20 48 -17 46 3 47 4 50 38 6 82 -77 142 -153 110z"/>
 <path d="M7 1333 c-4 -3 -7 -165 -7 -360 l0 -353 228 0 c182 0 238 3 275 16 160 54 174 314 21 392 l-33 17 79 135 c44 74 80 141 80 148 0 8 -22 12 -79 12 -93 0 -82 11 -180 -167 l-63 -113 -84 0 -84 0 0 140 0 140 -73 0 c-41 0 -77 -3 -80 -7z m423 -426 c21 -10 25 -21 28 -64 4 -76 -10 -83 -170 -83 l-128 0 0 80 0 80 123 0 c78 0 131 -5 147 -13z"/>
 <path d="M1065 1330 c-54 -14 -82 -28 -119 -61 -80 -70 -111 -166 -104 -318 7 -130 33 -195 100 -255 72 -66 116 -76 320 -76 l168 0 0 64 0 64 -152 4 c-196 5 -228 20 -252 120 l-6 28 202 2 203 3 3 68 3 67 -207 0 -207 0 7 43 c16 99 41 111 241 117 l160 5 3 68 3 67 -168 -1 c-92 -1 -181 -5 -198 -9z"/>
 <path d="M1845 1331 c-69 -17 -125 -62 -161 -131 -17 -31 -19 -64 -22 -308 l-3 -273 83 3 83 3 -4 230 c-5 347 -5 347 207 353 l132 4 0 64 0 64 -142 -1 c-79 -1 -156 -4 -173 -8z"/>
 <path d="M2330 1328 c0 -8 67 -169 148 -358 l148 -345 84 0 84 0 149 349 c87 205 144 353 139 358 -5 5 -44 8 -87 6 l-78 -3 -31 -82 -31 -83 -150 0 -150 0 -30 83 -30 82 -83 3 c-63 2 -82 0 -82 -10z m444 -365 c-14 -38 -36 -94 -48 -126 l-22 -58 -45 117 c-24 65 -45 122 -47 126 -2 4 39 8 92 8 l96 0 -26 -67z"/>
 <path d="M3284 1322 c-65 -52 -56 -150 17 -188 36 -18 53 -18 95 2 71 34 85 115 30 170 -28 28 -41 34 -77 34 -27 0 -53 -7 -65 -18z"/>
 <path d="M3821 1314 c-60 -50 -49 -144 22 -177 43 -21 60 -21 97 -2 41 21 60 53 60 101 0 92 -107 138 -179 78z"/>
 <path d="M3575 1081 c-110 -48 -78 -211 42 -211 100 0 147 115 74 184 -30 29 -83 41 -116 27z"/>
 <path d="M3293 820 c-38 -23 -53 -48 -53 -90 0 -66 43 -109 109 -110 36 0 49 6 77 34 55 55 41 136 -30 170 -44 21 -64 20 -103 -4z"/>
 <path d="M3842 823 c-104 -51 -64 -203 53 -203 114 0 147 152 45 205 -37 19 -57 19 -98 -2z"/>
 </g>

</svg>
