<?xml version="1.0"?>
<svg xmlns="http://www.w3.org/2000/svg" width="65" height="35" fill="none" viewBox="0 0 4109 4651"><path d="M2565.55 128.656c596.9 211.85 1096.07 690.685 1354.36 1267.224 267.97 613.3 251.53 1384.27-54.17 1982.1C3566.8 3943.87 3027 4412.06 2404 4577.48c-278.6 76.42-565.93 82.23-853.25 66.75C988.69 4609.4 443.077 4330.8 67.726 3913.88c-134.47-162.5-15.478-389.84 195.415-377.26 115.12 46.43 207.99 159.6 302.796 237.96 330.85 296 763.283 438.2 1204.413 438.2 774.9 16.45 1486.9-496.25 1769.37-1207.25 160.6-420.8 161.56-901.56 10.65-1324.3-248.63-674.24-917.1-1207.252-1646.52-1229.5-398.57-24.184-796.17 54.17-1134.76 273.758-166.393 99.637-289.253 243.772-440.167 360.822-127.697 97.7-313.438-11.6-326.98-162.516-14.51-109.3 61.914-185.73 130.6-258.28C484.675 326.962 927.745 88.995 1415.3 24.183c380.2-49.335 786.5-26.118 1150.24 104.474z" fill="url(#A)"/><path d="M1546.87 1102.77c27.1 253.44 5.8 512.7 7.74 768.07 317.3-104.47 637.52-118.98 918.06 86.1 372.45 261.18 484.67 763.23 301.83 1171.45-153.8 311.5-471.12 533.98-824.22 532.04-224.44 0-457.58 12.58-680.08-20.3-184.78-54.17-209.93-326-26.12-399.52 265.06-67.7 562.06-5.8 831-63.84 128.67-37.73 232.18-167.35 277.65-289.24 89.96-258.28-46.44-556.22-307.64-642.3-243.78-55.14-515.62 3.87-763.28-30-91.9-18.38-148-96.74-156.7-186.7-19.35-188.63-5.8-381.13-9.68-569.77 2.9-134.46-11.6-280.53 22.25-411.12 58.05-183.794 398.57-152.84 409.2 55.14z" fill="url(#B)"/><path d="M1344.7 2541.2c146.08-103.5 351.16-16.44 369.54 162.52 18.4 176.06-186.7 314.4-341.5 221.52-144.14-80.3-159.62-284.4-28.05-384.04z" fill="url(#C)"/><defs><linearGradient id="A" x1="254.105" y1="427.392" x2="3271.45" y2="4184.49" gradientUnits="userSpaceOnUse"><stop stop-color="#09fc1d"/><stop offset="1" stop-color="#17fccb"/></linearGradient><linearGradient id="B" x1="78.757" y1="568.205" x2="3096.1" y2="4325.3" gradientUnits="userSpaceOnUse"><stop stop-color="#09fc1d"/><stop offset="1" stop-color="#17fccb"/></linearGradient><linearGradient id="C" x1="-119.651" y1="727.559" x2="2897.69" y2="4484.66" gradientUnits="userSpaceOnUse"><stop stop-color="#09fc1d"/><stop offset="1" stop-color="#17fccb"/></linearGradient></defs></svg>
