<?xml version="1.0"?>
<!DOCTYPE svg PUBLIC "-//W3C//DTD SVG 20010904//EN" "http://www.w3.org/TR/2001/REC-SVG-20010904/DTD/svg10.dtd">
<svg xmlns="http://www.w3.org/2000/svg" version="1.0" width="60" height="40" viewBox="0 0 10480 13520" preserveAspectRatio="xMidYMid meet">
<g id="layer101" fill="#0289c8" stroke="none">
 <path d="M5534 13017 c-681 -487 -1495 -1199 -2170 -1897 -1031 -1068 -1850 -2173 -2483 -3347 -92 -172 -342 -679 -362 -735 -12 -36 -11 -39 38 -120 318 -520 559 -1207 663 -1886 96 -625 89 -1251 -20 -1900 -94 -556 -286 -1169 -544 -1731 -36 -80 -66 -148 -66 -153 0 -4 82 -8 183 -8 208 0 546 -13 917 -35 1455 -88 2680 -301 3440 -600 121 -47 363 -163 461 -221 42 -24 79 -44 82 -44 4 0 7 678 7 1506 0 1429 -1 1505 -17 1500 -10 -2 -814 -213 -1788 -467 -973 -254 -1776 -464 -1783 -466 -9 -4 -12 147 -12 734 l0 739 1768 489 c972 268 1782 492 1800 497 l32 9 0 4114 c0 2263 -4 4115 -8 4115 -4 0 -67 -42 -138 -93z"/>
 <path d="M6430 9783 l0 -778 1798 -469 c988 -258 1805 -471 1815 -474 16 -4 17 36 17 746 l0 751 -42 12 c-60 15 -3549 979 -3570 985 -17 5 -18 -36 -18 -773z"/>
 <path d="M6430 6943 l0 -778 1798 -470 c988 -258 1805 -471 1815 -473 16 -4 17 36 17 746 l0 749 -57 16 c-32 9 -841 232 -1797 497 -957 264 -1748 482 -1758 486 -17 5 -18 -28 -18 -773z"/>
 <path d="M6430 4117 l0 -776 53 -15 c41 -11 3291 -861 3520 -919 l57 -15 -2 751 -3 750 -1785 493 c-982 272 -1797 496 -1812 499 l-28 7 0 -775z"/>
 </g>

</svg>
