<?xml version="1.0" encoding="utf-8"?>
<!-- Generator: Adobe Illustrator 19.0.0, SVG Export Plug-In . SVG Version: 6.00 Build 0)  -->
<svg version="1.1" id="Layer_1" xmlns="http://www.w3.org/2000/svg" xmlns:xlink="http://www.w3.org/1999/xlink" x="0px" y="0px"
	 viewBox="-489 581 259.8 116.5" style="enable-background:new -489 581 259.8 116.5;" xml:space="preserve">
<style type="text/css">
	.st0{fill:#E80F1F;}
</style>
<g>
	<g>
		<g>
			<g>
				<path class="st0" d="M-443.1,601.8c0-3.1,0.9-4.6,3.8-4.6c2.9,0,3.8,1.5,3.8,4.6v15.8h7.1v-16c0-5.8-3.4-10.6-10.9-10.6
					c-7.5,0-10.9,4.8-10.9,10.6v16h7.1C-443.1,617.6-443.1,601.8-443.1,601.8z"/>
				<path class="st0" d="M-435.6,623.2v5.2c0,3.1-0.9,4.6-3.8,4.6c-2.9,0-3.8-1.5-3.8-4.6v-5.2h-7.1v5.3c0,5.8,3.4,10.6,10.9,10.6
					s10.9-4.8,10.9-10.6v-5.3H-435.6z"/>
			</g>
		</g>
		<g>
			<g>
				<path class="st0" d="M-406.9,623.2v5.2c0,3.1-0.9,4.6-3.8,4.6s-3.8-1.5-3.8-4.6v-5.2h-7.1v5.3c0,5.8,3.4,10.6,10.9,10.6
					s10.9-4.8,10.9-10.6v-5.3H-406.9z"/>
				<path class="st0" d="M-414.5,601.8c0-3.1,0.9-4.6,3.8-4.6s3.8,1.5,3.8,4.6v15.8h7.1v-16c0-5.8-3.4-10.6-10.9-10.6
					c-7.5,0-10.9,4.8-10.9,10.6v16h7.1L-414.5,601.8L-414.5,601.8z"/>
			</g>
		</g>
		<g>
			<g>
				<rect x="-392.9" y="623.2" class="st0" width="6.2" height="15.4"/>
				<polygon class="st0" points="-380.2,638.6 -376.7,638.6 -373.7,623.2 -383.2,623.2 				"/>
				<polygon class="st0" points="-364,591.6 -373.3,591.6 -378.4,615.8 -378.5,615.8 -383.5,591.6 -392.9,591.6 -392.9,617.6 
					-386.7,617.6 -386.7,600.6 -386.6,600.6 -383.2,617.6 -373.7,617.6 -370.3,600.6 -370.2,600.6 -370.2,617.6 -364,617.6 				"/>
				<rect x="-370.2" y="623.2" class="st0" width="6.2" height="15.4"/>
			</g>
		</g>
		<g>
			<g>
				<rect x="-356.4" y="591.6" class="st0" width="7.1" height="26"/>
				<rect x="-356.4" y="623.2" class="st0" width="7.1" height="15.4"/>
			</g>
		</g>
		<g>
			<g>
				<rect x="-341.7" y="623.2" class="st0" width="6.4" height="15.4"/>
				<polygon class="st0" points="-331.5,623.2 -326.1,638.6 -319.9,638.6 -319.9,623.2 				"/>
				<polygon class="st0" points="-319.9,591.6 -326.4,591.6 -326.4,615.3 -326.5,615.3 -335.1,591.6 -341.7,591.6 -341.7,617.6 
					-335.3,617.6 -335.3,607.1 -335.2,607.1 -331.5,617.6 -319.9,617.6 				"/>
			</g>
		</g>
		<g>
			<g>
				<path class="st0" d="M-305.9,601.7c0-3.5,1.4-4.5,3.2-4.5c2.8,0,4.1,1.6,4.1,7.8h6.8v-2.6c0-6.2-3.6-11.4-10.7-11.4
					c-7,0-10.4,4.8-10.4,10.6v16h7.1L-305.9,601.7L-305.9,601.7z"/>
				<path class="st0" d="M-303.3,617.6v5.6v0h4.5v4c0,4.1-1,5.7-3.9,5.7c-2.5,0-3.3-1.7-3.3-4.4v-5.4h-7.1v5.4
					c0,6.6,3.9,10.6,9.5,10.6c3.3,0,5-1.1,7.2-3.7l1.3,3.1h3.4v-15.4v-5.6L-303.3,617.6L-303.3,617.6z"/>
			</g>
		</g>
		<g>
			<path d="M-468.9,671.4L-468.9,671.4l4.5,0v4c0,4.1-1,5.7-3.9,5.7c-2.5,0-3.3-1.7-3.3-4.4v-5.4v-15.9c0-3.5,1.4-4.5,3.2-4.5
				c2.8,0,4.1,1.6,4.1,7.8h6.8v-2.6c0-6.2-3.6-11.4-10.7-11.4c-7,0-10.4,4.8-10.4,10.6v16v5.3c0,6.6,3.9,10.6,9.5,10.6
				c3.3,0,5-1.1,7.2-3.7l1.3,3.1h3.4v-15.4v-5.6h-11.6V671.4z"/>
			<path d="M-436,645.4h-8.8l-4.8,26l-2.8,15.4h6.9l1.3-9.2h7.8l1.3,9.2h6.9l-2.8-15.4L-436,645.4z M-443.3,671.5L-443.3,671.5
				l2.8-17.8h0.1l2.8,17.8l0,0H-443.3z"/>
			<polygon points="-409.3,669.6 -409.4,669.6 -414.4,645.4 -423.8,645.4 -423.8,671.4 -423.8,686.8 -417.6,686.8 -417.6,671.4 
				-417.6,654.5 -417.5,654.5 -414.1,671.4 -411.1,686.8 -407.6,686.8 -404.6,671.4 -401.2,654.5 -401.1,654.5 -401.1,671.4 
				-401.1,686.8 -394.9,686.8 -394.9,671.4 -394.9,645.4 -404.2,645.4 			"/>
			<polygon points="-381.9,671.4 -381.9,668.5 -372.7,668.5 -372.7,662.3 -381.9,662.3 -381.9,651.6 -370,651.6 -370,645.4 
				-389,645.4 -389,671.4 -389,686.8 -369.2,686.8 -369.2,680.6 -381.9,680.6 			"/>
			<path d="M-344.6,671.4c-3.5-7.2-13.2-10.5-13.2-16.3c0-2.6,1.3-4.1,3.6-4.1c1.6,0,3.5,1,3.8,4.6l6.8-0.7c-0.6-5.8-4.1-10-9.9-10
				c-7,0-11,3.7-11,10.3c0,8.4,7.3,12,11.5,16.3c1.7,1.7,2.9,3.6,2.9,6c0,2.5-1.7,3.8-4.1,3.8c-2.3,0-4-2.1-4.2-6.2l-6.8,1
				c0.3,6.2,4.1,11.5,10.7,11.5c6.6,0,11.2-3.8,11.2-10.6C-343.3,674.8-343.8,673-344.6,671.4z"/>
		</g>
		<rect x="-284.8" y="617.6" width="43.6" height="5.6"/>
		<rect x="-338.4" y="681.2" width="6.7" height="5.6"/>
		<g>
			<path d="M-311.8,659.2V656c0-3.5-1.6-5-3.4-5c-2.9,0-3.8,1.5-3.8,4.6v20.9c0,3.1,0.9,4.6,3.8,4.6c2.6,0,3.4-1.5,3.4-4.2v-5h7.1
				v4.7c0,5.8-3.4,10.6-10.5,10.6c-7.4,0-10.9-4.7-10.9-10.6v-21.3c0-5.8,3.4-10.6,10.9-10.6c7.1,0,10.5,5.1,10.5,11.3v3H-311.8z"/>
			<path d="M-298.1,655.4c0-5.8,3.4-10.6,10.9-10.6c7.4,0,10.9,4.7,10.9,10.6v21.3c0,5.8-3.4,10.6-10.9,10.6
				c-7.4,0-10.9-4.7-10.9-10.6V655.4z M-291.1,676.5c0,3.1,0.9,4.6,3.8,4.6c2.9,0,3.8-1.5,3.8-4.6v-20.9c0-3.1-0.9-4.6-3.8-4.6
				c-2.9,0-3.8,1.5-3.8,4.6V676.5z"/>
		</g>
		<path d="M-241.1,645.6v41.2h-6.2v-32.2h-0.1l-6.4,32.2h-3.4l-6.4-32.2h-0.1v32.2h-6.2v-41.2h9.3l5,24.1h0.1l5-24.1H-241.1z"/>
		<g>
			<g>
				<path class="st0" d="M-471.6,614.4h2.3c3,0,4.7,1.1,5.4,3.2h7.2c-0.7-3.2-2.6-5.2-5.4-6.4c3.4-1.4,4.9-5.1,4.9-8.7
					c0-7.1-3.4-11-11-11h-10.5v26h7.1V614.4z M-471.6,597.4h2.7c3.2,0,4.6,2,4.6,5.8c0,3.4-2.1,5.3-4.8,5.3h-2.6L-471.6,597.4
					L-471.6,597.4z"/>
				<path class="st0" d="M-456.3,623.2h-7.1v3.1h0c0,0,0,0,0,0c0,4.2-1.4,6.4-5.2,6.4h-3v-9.5h-7.1v15.4h11.2
					c8.1,0,11.1-5.2,11.1-12c0-0.1,0-0.2,0-0.3h0C-456.3,626.3-456.3,623.2-456.3,623.2z"/>
			</g>
		</g>
	</g>
</g>
</svg>
