<?xml version="1.0"?>
<svg xmlns="http://www.w3.org/2000/svg" xmlns:xlink="http://www.w3.org/1999/xlink" width="65" height="35" fill="none" viewBox="0 0 2115 834"><g fill="#12499e"><path d="M.92 817.1c0-29.086 20.313-35.123 135.054-38.416 87.84-2.195 101.016-3.84 111.447-13.17 6.588-6.037 11.53-15.915 11.53-21.952 0-10.976-2.196-11.525-83.997-11.525-75.762 0-86.193-1.646-112.545-13.17-15.372-7.134-36.234-21.403-45.018-31.83C.92 668.386.92 668.386.92 599.238v-69.15l19.764-18.1c12.627-12.073 32.4-22.5 57.645-30.184 33.5-10.427 46.665-10.976 113.643-8.232 90.036 3.842 82.9 3.842 129.015 0l36.783-3.292v298.547l-20.313 20.854c-12.078 11.525-34.587 25.245-52.704 31.83-29.097 10.976-42.273 12.073-157.563 12.073H.92V817.1zm241-152.017c13.176-10.428 14.274-14.27 15.92-63.66 1.647-51.04 1.098-53.234-12.078-61.466-16.47-10.976-69.174-16.464-104.86-11.525-40.077 6.037-46.665 16.464-46.665 73.54 0 31.83 2.745 51.587 7.686 58.72 15.372 20.855 113.094 24.147 139.995 4.4zm324.47 76.834c-49.96-4.94-88.938-19.757-113.094-42.807l-24.156-23.05v-63.1c0-56.527 1.098-65.308 12.627-81.772 29.646-43.904 75.762-59.82 174.033-59.82 78.507 0 111.996 7.683 147.132 32.928 27.45 19.757 39.528 41.7 39.528 71.344 0 52.685-13.725 57.624-160.308 57.624H527.96v14.818c0 29.635 17.568 34.025 134.505 37.318 87.84 2.195 107.055 4.4 119.682 12.623 14.823 9.878 24.156 31.28 17.568 41.708-3.294 5.488-183.366 7.135-233.325 2.196zm132.3-181.104c-6.04-23.05-28.548-31.83-82.9-31.83-48.312 0-82.35 9.33-82.35 21.952 0 4.4-1.647 10.976-3.294 15.915-2.745 7.684 6.588 8.78 84.546 8.78h87.84l-3.843-14.817zM915.553 740.28c-13.176-2.196-26.9-9.88-34.587-19.208-12.627-14.27-12.627-15.916-11.53-130.615l1.647-116.345 35.685.548 46.665 1.098c6.04 0 47.216-1.098 91.686-2.195 110.9-3.842 157.56 10.427 189.4 57.624 12.08 17.56 12.63 24.147 12.63 113.6 0 61.466-2.2 96.04-6.04 98.236-12.08 8.232-65.33-3.293-81.8-17.562l-16.47-13.72v-77.93c0-56.526-2.2-80.673-7.14-87.808-12.62-17.012-86.2-25.244-125.72-14.268-36.782 10.427-37.33 12.073-37.33 118.54v95.492l-17.568-.55c-9.882-.55-28-2.744-39.528-4.94zm445.247 0c-41.17-7.683-41.72-9.33-42.27-145.432l-1.1-120.736 26.35-1.647c32.94-2.195 46.12 1.098 61.5 15.367 11.53 10.976 12.08 14.27 12.08 134.456v123.48l-17.57-.55c-9.88-.55-27.45-2.744-38.98-4.94zm172.93 0c-9.88-2.195-24.16-9.878-31.84-17.013l-13.18-12.073V470.27l38.43 2.195c30.74 1.646 40.63 4.4 52.16 15.366l13.72 12.623v245.313l-20.3-.55c-11.53-.548-29.1-2.744-38.98-4.94zm262.42-119.08c0-14.818-2.74-45.002-6.04-67.503l-7.14-51.587c-.54-9.33 12.08-12.622 131.22-34.025l148.77-26.892c15.93-2.744 17.02-2.195 26.9 28.538 18.1 58.173 24.15 91.65 24.7 135.005v42.257h-318.42V621.2zm-30.75-172.883c-8.78-28-34.03-79.576-47.2-98.784-3.84-4.94-5.5-10.428-4.4-11.525 1.65-1.098 54.35-20.855 118.03-43.904l115.3-41.7L1968 272.7c37.33 35.672 110.34 144.334 102.1 151.468-2.2 1.647-283.28 52.685-291.52 52.685-1.65 0-7.7-13.17-13.18-28.537zm-423.27-4.39c-24.7-10.976-31.3-24.147-28-52.685 1.64-15.366 2.2-15.915 35.68-15.915 47.77 0 64.24 12.623 66.43 51.587l1.65 28h-26.35c-14.28 0-36.8-4.94-49.4-10.976zm175.67 2.744c-21.4-9.33-29.1-23.05-29.1-51.587v-22.5h26.9c52.16 0 77.4 18.66 77.4 57.624v24.696h-28.55c-15.92-.55-36.78-3.842-46.66-8.232z"/><use xlink:href="#B"/><path d="M146.405 302.337c-29.097-13.72-43.37-35.672-43.37-67.502s16.47-55.43 47.214-68.052c25.803-10.427 49.96-7.683 69.174 7.135 12.627 9.878 13.725 9.878 85.095-25.794C446.708 77.33 652.034 24.095 862.85 4.887c97.722-9.33 440.3-4.4 510.02 7.134 79.06 13.17 165.25 32.38 165.25 36.22 0 4.94-98.27 85.612-103.2 85.612-2.2-.548-28.55-8.232-58.74-18.1-217.4-70.246-552.848-72.442-848.2-5.488-84.546 19.208-180.62 47.197-242.1 70.795l-42.273 16.464 6.04 18.66c8.235 27.44-2.745 59.27-25.803 76.832-25.254 19.208-49.96 21.952-77.4 9.33zm1415.325-104.27c-12.63-8.232-40.08-23.6-61.5-34.026-21.4-9.878-38.98-21.403-38.43-24.147.55-8.232 96.07-85.613 105.4-85.613 19.76 0 174.03 58.173 174.03 65.307 0 2.196-28 19.757-61.5 38.965l-78.5 45.002c-16.47 9.33-17 9.33-39.52-5.488z"/></g><g fill="#ef3e56"><path d="M1796.15 621.2c0-14.817-2.74-45-6.04-67.502l-7.14-51.587c-.54-9.33 12.08-12.623 131.22-34.026l148.77-26.9c15.93-2.744 17.02-2.195 26.9 28.537 18.1 58.173 24.15 91.65 24.7 135.005v42.258h-318.42V621.2zm-30.75-172.87c-8.78-28-34.03-79.576-47.2-98.784-3.84-4.94-5.5-10.428-4.4-11.525 1.65-1.098 54.35-20.855 118.03-43.904l115.3-41.7 20.87 20.306c37.33 35.672 110.34 144.334 102.1 151.468-2.2 1.647-283.28 52.685-291.52 52.685-1.65 0-7.7-13.17-13.18-28.537z"/><use xlink:href="#B" y="0.003"/><path d="M1561.73 198.065c-12.63-8.232-40.08-23.598-61.5-34.025-21.4-9.88-38.98-21.403-38.43-24.147.55-8.232 96.07-85.613 105.4-85.613 19.76 0 174.03 58.173 174.03 65.307 0 2.195-28 19.757-61.5 38.965l-78.5 45c-16.47 9.33-17 9.33-39.52-5.488z"/></g><defs><path id="B" d="M1653.4 274.347c-25.25-25.793-46.12-49.392-46.66-51.587 0-2.195 35.68-25.245 79.6-50.49l79.6-45.55 30.2 17.013c59.3 32.928 137.25 88.906 137.25 98.235 0 2.195-3.3 4.39-7.14 4.39-3.3 0-54.35 17.56-113.1 38.416-58.2 21.403-107.6 37.867-109.8 37.867-1.65-.55-24.16-21.952-49.96-48.295z"/></defs></svg>
