<?xml version="1.0"?>
<svg xmlns="http://www.w3.org/2000/svg" width="120" height="35" fill="none" viewBox="0 0 1857 1857"><path d="M800.85 1849.5c-389.412-53.06-701.742-344.37-783.83-730.28C-.498 1036.62-5.504 879.948 7 794.355 57.563 445.48 298.818 156.67 633.172 45.55 732.777 12.513 779.827 4.505 894.448 1.502c116.122-3.003 168.682 2.002 258.772 24.526C1567.16 130.14 1857.47 502.54 1856.97 929.5c-.5 251.27-108.62 503.04-290.8 674.23-142.65 134.14-323.84 220.23-518.05 245.76-68.572 9-181.19 9-247.26 0z" fill="url(#A)"/><path d="M1274.35 1770.9c-1.5-9-6.5-87.6-10.5-174.2l-12-180.2-3.5-22.53-157.67 152.67-174.18 167.68c-10.51 10 21.523-45.55 94.1-161.68l105.6-173.68c-2.5 1.5-24.02 17.5-48.55 35.53-184.695 137.65-426.95 228.75-653.7 245.27-43.546 3-48.05 4-42.545 11.5 15.016 18.02-61.065-45.55-101.608-85.6C141.652 1458.57 55.06 1299.4 17.02 1119.2-.498 1036.62-5.504 879.948 7 794.355 57.563 445.48 298.818 156.67 633.17 45.55 732.777 12.513 779.826 4.505 894.448 1.502c116.122-3.003 168.682 2.002 258.772 24.526 141.15 35.538 270.3 102.1 378.4 195.2 37.54 33.036 42.55 39.042 46.55 59.064 2 12.513 3 75.58 2 140.15-2.5 121.63-9.5 179.693-33.53 276.798-20.02 80.086-57.56 182.196-95.6 258.78l-38.54 77.58 155.16-157.166 153.66-152.164c-1 2.503-60.06 94.1-131.14 203.72l-127.63 200.72c.5 1 86.6-15.02 191.2-35.54l191.2-35.54c5 4.5-5 48.55-10.5 48.55-7 0-320.34 113.12-332.35 120.13-6 3-3.5 5.5 9.5 11 9.5 4 69.57 28.03 133.64 54.06l115.62 46.55-12.5 26.03-13 26.53-30.54-7.5c-17-3.5-78.58-18.02-137.64-32.04-58.56-14-107.62-24.52-108.12-23.52-1 1 32.04 54.56 73.08 118.63l74.58 117.62-18.52 19.53-19.02 19.52-101.1-104.62c-67.57-70.07-101.6-101.6-103.1-96.6-6 19.02-28.02 352.88-23.02 355.38 4 3-52.05 30.03-61.56 30.03-2 0-4.5-7.5-6-16z" fill="url(#B)"/><path d="M1274.34 1770.9c-1.5-9-6.5-87.6-10.5-174.2l-12-180.2-3.5-22.53-157.67 152.67-174.184 167.68c-10.5 10 21.523-45.55 94.104-161.68l105.6-173.68c-2.5 1.5-24.03 17.5-48.55 35.53-184.7 137.65-426.955 228.75-653.695 245.27-43.546 3-48.05 4-42.545 11.5 3.504 4-7.508-3.5-25.026-17.02-17.52-13.5-32.535-26.03-33.536-28.03-1.5-1.5 25.027-5 59.063-7 253.268-14.5 484.512-98.6 680.22-246.76 24.03-18.02 43.55-33.54 42.54-34.04-1-1-141.144 27.53-311.324 62.57l-311.33 63.57c-1-1 144.152-54.06 322.84-118.13l327.842-120.13c2-1.5-140.144-59.56-316.33-128.14L488.014 972.047c1-1 151.16 33.533 333.852 76.083l337.854 78.08c3 0-48.55-87.1-114.62-193.705L916.967 725.782c-9-14.516 51.054 45.048 217.733 217.734 66.57 68.574 122.13 123.634 123.13 122.634 1.5-1.5 15-166.68 30.53-367.898l32.03-379.9c2-8.5 12.02 136.647 23.03 327.853l22.52 359.884c3.5 17.02 5 15.02 44.55-65.066 63.07-128.138 103.1-260.78 122.13-405.437 7-57.562 7.5-229.247 0-277.3-3.5-23.525-9-38.54-17.02-47.05-6.5-7.508 2-1.502 19.02 13.014 17.02 14.015 33.54 29.532 37.54 34.036 9.5 11.513 10 246.266.5 307.33-21.02 136.648-63.57 272.794-121.13 389.42l-39.04 78.58 155.16-157.166 153.67-152.164c-1 2.503-60.07 94.102-131.14 203.72l-127.64 200.72c.5 1 86.6-15.02 191.2-35.54l191.2-35.54c5 4.5-5 48.55-10.5 48.55-7 0-320.34 113.12-332.35 120.13-6 3-3.5 5.5 9.5 11 9.5 4 69.57 28.03 133.64 54.06l115.62 46.55-12.5 26.03-13.02 26.53-30.53-7.5c-17.02-3.5-78.58-18.02-137.65-32.03-58.56-14.02-107.6-24.53-108.1-23.53-1 1 32.03 54.56 73.08 118.63l74.58 117.62-18.52 19.53-19.02 19.52-101.1-104.62c-67.57-70.07-101.6-101.6-103.1-96.6-6 19.02-28.03 352.88-23.02 355.38 4 3-52.06 30.03-61.57 30.03-2 0-4.5-7.5-6-16zM267.78 270.3c16.518-16.518 31.033-30.032 32.034-30.032 1.502 0-10.5 13.514-27.028 30.032s-31.033 30.032-32.034 30.032c-1.502 0 10.5-13.514 27.028-30.032zM535.563 82.6c7.008-4.004 15.016-7.008 17.52-7.008 3.003 0-.5 3.003-7.508 7.008s-14.516 7.007-17.52 7.007c-2.502 0 .5-3.003 7.508-7.007zM832.377 1.5c4.505-1 12.514-1 17.52 0 4.505 1.502.5 2.503-9 2.503s-13.514-1-8.5-2.503zm170.183 0c4.5-1 12.5-1 17.52 0 4.5 1.502.5 2.503-9 2.503s-13.518-1-8.5-2.503z" fill="#fdfcfc"/><defs><linearGradient id="A" x1="999.5" y1="1000" x2="1556.5" y2="1586.5" gradientUnits="userSpaceOnUse"><stop stop-color="#0b97d5"/><stop offset="1" stop-color="#005f9c"/></linearGradient><linearGradient id="B" x1="272" y1="198" x2="1282" y2="1267.5" gradientUnits="userSpaceOnUse"><stop stop-color="#fbed1d"/><stop offset="1" stop-color="#f05a24"/></linearGradient></defs></svg>
