<?xml version="1.0"?>
<svg xmlns="http://www.w3.org/2000/svg" width="60" height="40" fill="none" viewBox="0 0 1385 975"><path d="M38 124.5h21.25v46.25h28v19h-28V275H38v-85.25H19.25v-19H38V124.5zm66.928-43.75h21.25v115c3.666-8.333 8.833-15 15.5-20 6.666-5.167 15.25-7.833 25.75-8 10.666-.167 19.166 2.667 25.5 8.5 6.5 5.833 9.916 13.417 10.25 22.75v76h-21.5v-66.25c-.334-5.333-2.167-9.833-5.5-13.5-3.334-3.833-8.584-5.917-15.75-6.25-5 0-9.584.917-13.75 2.75-4.167 1.667-7.75 4-10.75 7s-5.417 6.583-7.25 10.75c-1.667 4.167-2.5 8.75-2.5 13.75V275h-21.25V80.75zm215.697 182c-5 4.5-11.083 8.083-18.25 10.75s-14.5 4-22 4c-7.667 0-14.917-1.417-21.75-4.25-6.667-3-12.5-6.917-17.5-11.75-5-5-9-10.833-12-17.5-2.833-6.667-4.25-13.75-4.25-21.25s1.417-14.583 4.25-21.25c3-6.667 7-12.5 12-17.5a55.59 55.59 0 0 1 17.25-11.75c6.667-3 13.75-4.5 21.25-4.5 11.833 0 22.083 3.583 30.75 10.75 8.833 7 15.167 16.25 19 27.75-5.167 1.833-11.083 4.083-17.75 6.75l-20.75 8.5-21.5 8.5-20 7.75c2.833 5.667 6.917 10.25 12.25 13.75 5.5 3.333 11.583 5 18.25 5 4.5 0 9-.833 13.5-2.5 4.667-1.667 8.417-3.917 11.25-6.75l16 15.5zm-18-61.5c-2-4.167-5.167-7.25-9.5-9.25-4.333-2.167-8.75-3.25-13.25-3.25-4.833 0-9.333.917-13.5 2.75a33.61 33.61 0 0 0-10.5 7.5c-3 3-5.417 6.5-7.25 10.5-1.667 4-2.5 8.083-2.5 12.25v1.75c.167.333.25.583.25.75l14-5.5 15.25-6.25a452.59 452.59 0 0 1 14.5-6l12.5-5.25z" fill="#000"/><path d="M252 531.2v121.6c-11.2 6.4-24.533 11.467-40 15.2-15.467 3.467-31.2 5.2-47.2 5.2-22.933 0-43.6-3.6-62-10.8-18.133-7.2-33.733-17.067-46.8-29.6-13.067-12.8-23.067-27.867-30-45.2s-10.4-36.267-10.4-56.8c0-22.667 4-43.333 12-62 8.267-18.933 19.333-35.2 33.2-48.8a153.47 153.47 0 0 1 48.4-31.6c18.4-7.733 37.867-11.6 58.4-11.6 13.867 0 28.4 1.867 43.6 5.6 15.2 3.467 28.4 8.533 39.6 15.2l-21.2 35.6c-4-2.4-8.667-4.533-14-6.4-5.067-1.867-10.4-3.467-16-4.8s-11.2-2.267-16.8-2.8c-5.6-.8-10.933-1.2-16-1.2-14.133 0-27.733 2.8-40.8 8.4s-24.533 13.333-34.4 23.2-17.733 21.467-23.6 34.8-8.8 27.733-8.8 43.2c0 14.133 2.533 27.467 7.6 40 5.333 12.533 12.667 23.6 22 33.2s20.533 17.2 33.6 22.8 27.467 8.4 43.2 8.4c6.133 0 13.333-.533 21.6-1.6 8.533-1.333 16.667-3.467 24.4-6.4v-55.2h-56.4v-37.6H252zM489.028 670l-14-32c-2.933-7.467-6.267-15.467-10-24l-10.8-27.2h-102.4l-34.4 83.2h-43.2l129.2-303.6 8.4 20.4 14.8 35.6 19.2 45.6 62.8 146.4 14.8 35.6 8.8 20h-43.2zm-122-120h72.4l-10.8-25.2c-3.2-8.267-6.267-15.733-9.2-22.4l-7.2-18c-2.133-5.067-3.733-9.067-4.8-12-.267-.533-.933-2.4-2-5.6-.8-3.2-1.467-6.133-2-8.8-.533 2.667-1.333 5.6-2.4 8.8s-1.733 5.067-2 5.6l-32 77.6zm201.385-182.8c2.4 3.733 7.333 10.933 14.8 21.6l26.4 36.4 32 44.4 57.2 79.6 14.8 20c.8-1.333 3.333-4.933 7.6-10.8l15.6-22 21.6-29.6 24.4-34 24.8-34.8 22.8-31.2 17.6-24.8c5.066-7.2 8.666-12.133 10.8-14.8V670h-46.4V507.6c0-2.133.133-4.4.4-6.8.533-2.4.8-4.133.8-5.2-2.4 3.2-6.267 8.667-11.6 16.4l-18 26-21.2 30.8-21.2 30.4-17.6 25.6-10.4 15.2-11.2-14.8c-5.334-7.733-11.734-16.667-19.2-26.8l-23.2-32.4-22.4-32-18-25.2c-5.067-7.2-8-11.6-8.8-13.2 0 1.067.133 2.8.4 5.2.533 2.4.8 4.667.8 6.8V670h-43.6V367.2zM930.13 670V380h190.4v39.6h-146.4v84.8h130.4v40.4h-130.4v84.8h152V670h-196zm429.47-349l-15.6 35.6c-10.93-4-21.87-7.2-32.8-9.6-10.67-2.4-20.93-3.6-30.8-3.6-16.8 0-30.27 3.467-40.4 10.4-9.87 6.933-14.8 15.733-14.8 26.4 0 9.067 3.6 16.4 10.8 22 7.2 5.333 16.13 10.267 26.8 14.8 10.67 4.267 22.27 8.667 34.8 13.2 12.53 4.267 24.13 9.867 34.8 16.8s19.6 15.733 26.8 26.4c7.2 10.4 10.8 23.867 10.8 40.4 0 12.8-2.4 24.4-7.2 34.8-4.53 10.133-11.47 18.933-20.8 26.4-9.07 7.467-20.53 13.2-34.4 17.2-13.6 4-29.6 6-48 6-11.73 0-22.4-.8-32-2.4-9.33-1.6-17.87-3.6-25.6-6-7.47-2.667-14.13-5.467-20-8.4-5.6-2.933-10.4-5.6-14.4-8l19.2-38c10.67 6.133 22.53 11.067 35.6 14.8s24.93 5.6 35.6 5.6c5.33 0 11.87-.667 19.6-2 8-1.333 15.6-3.6 22.8-6.8 7.2-3.467 13.33-8 18.4-13.6 5.33-5.6 8-12.667 8-21.2 0-7.733-2.13-14.267-6.4-19.6-4-5.6-9.47-10.4-16.4-14.4-6.67-4.267-14.4-8-23.2-11.2l-26.4-10.4c-9.07-3.733-18-7.6-26.8-11.6-8.53-4-16.27-8.8-23.2-14.4-6.67-5.867-12.13-12.533-16.4-20-4-7.733-6-16.933-6-27.6 0-9.867 2-19.6 6-29.2s10-18.133 18-25.6 17.87-13.467 29.6-18c12-4.533 25.87-6.8 41.6-6.8 9.6 0 18.93.8 28 2.4 9.33 1.6 17.73 3.467 25.2 5.6 7.47 1.867 13.73 3.733 18.8 5.6 5.33 1.867 8.8 3.2 10.4 4z" fill="#ec1d25"/><path d="M99 849.25c2.333 2.833 4.5 5.583 6.5 8.25a168.64 168.64 0 0 1 6.5 8c-4.667 3.667-9.917 6.583-15.75 8.75s-12.167 3.25-19 3.25c-7.667 0-14.917-1.417-21.75-4.25-6.667-3-12.5-7-17.5-12s-9-10.833-12-17.5c-2.833-6.667-4.25-13.75-4.25-21.25s1.417-14.583 4.25-21.25c3-6.667 7-12.417 12-17.25 5-5 10.833-8.917 17.5-11.75 6.833-3 14.083-4.5 21.75-4.5 7 0 13.417 1.083 19.25 3.25 6 2.167 11.417 5.083 16.25 8.75L99 796c-2.833-2.333-6.083-4.083-9.75-5.25-3.667-1.333-7.667-2-12-2-5 0-9.583.917-13.75 2.75-4.167 1.667-7.833 4-11 7-3 3-5.333 6.583-7 10.75-1.667 4-2.5 8.417-2.5 13.25s.833 9.333 2.5 13.5a35.19 35.19 0 0 0 7 10.75c3.167 3 6.833 5.417 11 7.25 4.167 1.667 8.75 2.5 13.75 2.5 4.333 0 8.333-.583 12-1.75 3.667-1.333 6.917-3.167 9.75-5.5zm23.092-26.75c0-7.5 1.416-14.583 4.25-21.25 3-6.667 7-12.417 12-17.25 5-5 10.833-8.917 17.5-11.75 6.833-3 14.166-4.5 22-4.5s15.083 1.5 21.75 4.5c6.833 2.833 12.666 6.75 17.5 11.75 5 4.833 8.833 10.583 11.5 17.25 2.833 6.667 4.25 13.75 4.25 21.25s-1.417 14.583-4.25 21.25c-2.667 6.667-6.5 12.5-11.5 17.5-4.834 5-10.667 9-17.5 12-6.667 2.833-14 4.25-22 4.25-7.667 0-14.917-1.333-21.75-4-6.667-2.667-12.5-6.417-17.5-11.25s-9-10.583-12-17.25c-2.834-6.833-4.25-14.333-4.25-22.5zm21.25.25c0 4.667.833 9.083 2.5 13.25 1.833 4 4.25 7.583 7.25 10.75 3.166 3 6.75 5.417 10.75 7.25 4.166 1.667 8.583 2.5 13.25 2.5s9.083-.833 13.25-2.5c4.166-1.833 7.75-4.25 10.75-7.25 3.166-3.167 5.666-6.75 7.5-10.75 1.833-4.167 2.75-8.583 2.75-13.25s-.917-9.083-2.75-13.25-4.334-7.75-7.5-10.75c-3-3.167-6.584-5.583-10.75-7.25-4.167-1.833-8.584-2.75-13.25-2.75s-9.084.917-13.25 2.75c-4 1.667-7.584 4.083-10.75 7.25-3 3-5.417 6.583-7.25 10.75-1.667 4.167-2.5 8.583-2.5 13.25zm112.22-52.25h18.75l.75 14.25 1 12.5c3.833-9 8.833-16.083 15-21.25 6.333-5.333 14.75-8.083 25.25-8.25 10.166 0 18.333 2.583 24.5 7.75s9.75 11.917 10.75 20.25c4.166-8.5 9.25-15.25 15.25-20.25 6.167-5 14.417-7.583 24.75-7.75 10.833 0 19.333 2.917 25.5 8.75 6.333 5.833 9.666 13.333 10 22.5v76h-21.5v-66.25c-.334-5.333-2.167-9.833-5.5-13.5-3.167-3.833-8.417-5.917-15.75-6.25-10 0-17.834 3.25-23.5 9.75-5.667 6.333-8.667 14.5-9 24.5V875h-21.25v-66.25c-.334-5.333-2.25-9.833-5.75-13.5-3.334-3.833-8.5-5.917-15.5-6.25-5 0-9.5.917-13.5 2.75-4 1.667-7.417 4-10.25 7s-5 6.583-6.5 10.75-2.25 8.75-2.25 13.75V875h-21.25V770.5zm288.94 52c0-4.833-.75-9.25-2.25-13.25-1.5-4.167-3.667-7.75-6.5-10.75s-6.25-5.333-10.25-7c-4-1.833-8.5-2.75-13.5-2.75s-9.667.917-14 2.75c-4.167 1.667-7.75 4-10.75 7s-5.417 6.583-7.25 10.75c-1.667 4-2.5 8.417-2.5 13.25s.833 9.333 2.5 13.5c1.833 4.167 4.25 7.75 7.25 10.75s6.583 5.417 10.75 7.25c4.333 1.667 9 2.5 14 2.5s9.5-.833 13.5-2.5c4-1.833 7.417-4.25 10.25-7.25 2.833-3.167 5-6.75 6.5-10.75 1.5-4.167 2.25-8.667 2.25-13.5zm23.25.5c0 7.833-1.333 15.083-4 21.75s-6.417 12.417-11.25 17.25-10.667 8.667-17.5 11.5c-6.667 2.667-14 4-22 4-4.167 0-8.167-.5-12-1.5-3.667-.833-7.083-2-10.25-3.5-3.167-1.667-5.917-3.417-8.25-5.25-2.333-2-4.083-4-5.25-6V864c.167.833.25 1.667.25 2.5v58.75h-21.5V770.5h20.75c0 2 .083 4.5.25 7.5.333 2.833.5 5.417.5 7.75 1.333-2 3.083-4 5.25-6 2.333-2.167 5-4.083 8-5.75 3.167-1.833 6.667-3.333 10.5-4.5s8.083-1.75 12.75-1.75c8 0 15.25 1.333 21.75 4 6.667 2.5 12.333 6.167 17 11 4.833 4.667 8.5 10.417 11 17.25 2.667 6.833 4 14.5 4 23zm16 .75c0-7.667 1.416-14.833 4.25-21.5 3-6.833 7-12.75 12-17.75a57.11 57.11 0 0 1 17.25-12.25c6.666-3 13.75-4.5 21.25-4.5 5 0 9.583.667 13.75 2 4.166 1.167 7.75 2.667 10.75 4.5s5.416 3.75 7.25 5.75 3.083 3.75 3.75 5.25l1-14.75h20.5V875h-21.5v-13.25c-.834 1.333-2.167 2.917-4 4.75s-4.25 3.583-7.25 5.25c-2.834 1.5-6.25 2.833-10.25 4s-8.584 1.75-13.75 1.75c-8 0-15.417-1.417-22.25-4.25-6.667-3-12.417-6.917-17.25-11.75-4.834-5-8.667-10.75-11.5-17.25-2.667-6.5-4-13.333-4-20.5zm21.5-1.25c0 4.833.833 9.333 2.5 13.5 1.833 4.167 4.25 7.75 7.25 10.75s6.583 5.417 10.75 7.25c4.166 1.667 8.75 2.5 13.75 2.5s9.583-.833 13.75-2.5c4.333-1.833 8-4.25 11-7.25 3.166-3.167 5.583-6.75 7.25-10.75 1.666-4.167 2.5-8.667 2.5-13.5s-.834-9.25-2.5-13.25c-1.667-4.167-4.084-7.75-7.25-10.75-3-3-6.667-5.333-11-7-4.167-1.833-8.75-2.75-13.75-2.75s-9.584.917-13.75 2.75c-4.167 1.667-7.75 4-10.75 7s-5.417 6.583-7.25 10.75c-1.667 4-2.5 8.417-2.5 13.25zm120.27-52h18.75l.75 14.25 1 12.5c3.834-9 9.25-16.167 16.25-21.5 7.167-5.333 15.917-8 26.25-8 10.5 0 18.917 2.917 25.25 8.75s9.667 13.333 10 22.5v76h-21.5v-66.25c-.333-5.333-2.166-9.833-5.5-13.5-3.333-3.833-8.583-5.917-15.75-6.25-5 0-9.583.917-13.75 2.75-4.166 1.667-7.75 4-10.75 7s-5.416 6.583-7.25 10.75c-1.666 4.167-2.5 8.75-2.5 13.75V875h-21.25V770.5zM879.77 925.25h-21.5l6.5-14c2.167-4.333 4.25-8.833 6.25-13.5 2.167-4.5 4.334-9.25 6.5-14.25l7.25-15.75-11.75-23.5-24-50c-3.833-8.333-7.666-16.25-11.5-23.75h23.25l14.75 30c4 8.167 7.25 15.25 9.75 21.25 2.667 5.833 4.75 10.833 6.25 15 1.667 4.167 3.084 8 4.25 11.5l4.25-11.5 6.25-15 9.75-21.25 15-30h23.25l-74.5 154.75z" fill="#000"/></svg>
