<?xml version="1.0"?>
<svg xmlns="http://www.w3.org/2000/svg" width="65" height="35" viewBox="0 0 4590 2630" preserveAspectRatio="xMidYMid meet" fill="#ffe600"><path d="M987 2570c-32-10-64-24-72-30-21-17-19-64 3-83 23-21 45-21 97-2 150 54 326-47 351-202l7-43-63 33c-58 29-71 32-154 32-71 0-101-5-136-21-64-30-131-93-165-155l-30-54-6-565 25-11c32-15 73-4 81 20 3 11 7 129 8 263 2 231 3 245 25 285 28 53 56 80 107 104 106 49 237 1 286-106 16-35 19-68 19-287 0-235 1-249 20-268 24-24 63-26 84-4 14 13 16 65 16 409 0 374-1 397-21 450-72 192-287 298-482 235zm-729-309c-60-24-138-80-172-126-15-19-39-61-54-93-24-51-27-68-27-172 0-105 2-120 28-171 130-266 460-320 653-106 64 71 94 136 108 230 4 32 1 43-19 63l-24 24H435c-254 0-315 3-315 13 0 7 7 34 16 59 36 107 145 182 263 182 56 0 76-5 130-34 59-32 65-33 90-19 18 10 27 24 29 46 3 26-3 36-32 58-19 14-58 35-86 46-68 26-206 26-272 0zm402-481c0-23-40-87-77-121-63-60-98-74-188-74s-125 14-188 74c-37 34-77 98-77 121 0 7 88 10 265 10s265-3 265-10zm1147 476c-171-71-277-258-249-439 29-191 181-339 361-354 188-16 361 104 415 287 9 30 16 71 16 91 0 68-3 69-357 69h-313v23c1 68 82 173 163 207 81 36 156 33 242-9 63-32 71-33 94-20 20 11 26 23 26 49 0 29-6 38-40 61-70 45-119 59-213 59-68 0-99-6-145-24zm408-488c-4-13-19-41-34-63-122-180-377-161-477 37l-24 48h541l-6-22zm448 493c-104-36-195-120-245-228-27-56-31-77-32-152-1-106 19-168 79-249 47-64 141-134 208-154 51-16 197-16 252 0 48 14 144 70 158 93 15 24 0 64-28 77-23 11-34 8-91-24-54-30-77-37-143-41-69-5-85-3-132 19-103 47-160 117-179 218-35 184 105 344 298 344 64-1 81-5 148-39 72-37 78-38 103-24 20 11 26 22 26 49 0 31-6 39-50 68-27 18-72 39-99 47-69 21-208 19-273-4zm679-2c-76-29-163-114-206-199-142-285 77-625 384-596 129 12 259 107 318 233 25 53 27 69 27 178 0 113-2 123-30 180-41 81-119 158-197 195-56 27-73 30-153 29-65 0-104-6-143-20zm244-114c144-60 211-265 134-414-65-128-213-185-338-131-104 45-166 146-166 270 0 179 134 312 294 293 25-3 59-11 76-18zm345 121c-8-9-10-122-9-397l3-383 27-16c33-18 56-8 78 36l15 30 35-23c161-110 397-36 486 152 23 49 24 57 24 320 0 291-1 295-51 295-57 0-59-9-59-268 0-142-5-253-11-277-16-56-91-129-149-145-108-29-213 21-261 125-16 35-19 68-19 280 0 271-3 285-64 285-19 0-39-6-45-14zM88 1294c-15-8-32-23-38-34-6-12-10-218-10-588V103l26-27 27-26h716l56 48v1154l-33 29-32 29H457c-282-1-347-3-369-16zm276-405l88-57 47 30 99 63c28 19 52 31 52 27s-14-56-31-116c-19-68-26-111-20-115 33-21 171-135 167-138-2-3-55-8-117-11l-112-7-42-110-43-110-14 35c-8 19-25 64-38 100s-28 71-33 78c-6 7-37 12-86 13-42 0-93 3-114 7l-37 7 90 70c49 39 89 75 90 80 0 6-13 58-29 118-17 63-25 104-18 100s52-33 101-64zm666 414c-8-3-25-15-37-26l-23-20V91l26-20c26-20 38-21 386-21h359l24 25 25 24v1150l-48 56-349 2c-191 1-355-1-363-4zm262-415l87-58 88 58 99 65c13 8 10-8-26-141-20-75-21-84-7-95 94-72 165-132 162-135-2-2-54-7-116-10l-113-7-40-102c-23-56-43-104-46-107s-23 43-45 102l-40 107-113 7c-63 3-115 8-118 10-3 4 139 121 174 144 3 1-31 134-55 218-6 22-10 24 109-56zm649 408c-51-28-50-21-51-623V112l52-62h726l52 62v558c0 412-3 566-12 585-24 53-38 55-405 55-261-1-343-4-362-14zm364-459c6 0 52 28 103 62s92 56 92 49-11-54-25-103c-14-50-25-97-25-106 0-8 40-47 89-86l90-70-52-7c-29-3-80-6-113-6-37 0-66-5-72-12-5-7-27-59-48-115l-39-102-40 102c-22 57-44 108-48 115-5 7-33 12-70 12-34 0-85 3-113 6l-52 7 87 69c47 38 87 76 89 83 2 8-8 57-22 110s-26 101-26 106 41-18 92-52 97-62 103-62zm569 463c-55-22-54-7-54-626V103l26-27 27-26h358c357 0 358 0 383 23l26 22v579l1 580-26 25-25 26-348 2c-191 1-357-2-368-7zm269-411l89-57 96 63c54 35 98 62 100 60 1-1-11-53-29-115-26-96-29-114-16-121 27-16 167-132 163-137-3-2-55-7-117-10l-112-7-43-110c-41-107-43-109-54-80-6 17-25 66-43 110l-32 80-113 7c-63 3-115 8-117 10s36 35 85 73c49 39 89 75 90 80 0 6-13 58-29 118-17 63-25 104-18 100s52-33 100-64zm635 392l-33-29V98l56-48h716l27 26 26 27v1146l-48 56-711 6-33-30zm338-422l41-28 64 42 101 65 37 23-29-108c-16-59-29-112-29-118 0-5 40-41 89-80 49-38 87-71 85-73s-54-7-117-10l-113-7-40-102c-23-56-43-104-46-107s-23 43-45 102l-39 107-113 7c-63 3-116 8-118 11-4 4 130 115 165 137 12 7-2 76-45 223-6 18 36-5 152-84z"/></svg>
