<?xml version="1.0"?>
<svg xmlns="http://www.w3.org/2000/svg" width="65" height="35" fill="none" viewBox="0 0 1297 2016"><path d="M31.02 977.455c-.837 0-.837 0 0 0-14.228 0-25.108-11.715-25.108-25.94l.837-169.878c0-14.227 11.717-25.106 25.108-25.106 14.228 0 25.108 11.716 25.108 25.943l-.837 169.877c0 13.4-11.717 25.105-25.108 25.105zM51.105 1630.2l4.185-579.1c0-14.23-10.88-25.1-25.107-25.94-14.228 0-25.108 10.87-25.108 25.1L.9 1629.35c0 14.23 10.88 25.1 25.108 25.94 14.228 0 25.108-10.88 25.108-25.1zm94.572-1102.116v-6.694c0-14.226-10.88-25.105-25.107-25.105s-25.108 10.88-25.108 25.105v6.694c0 14.227 10.88 25.105 25.108 25.105s25.107-11.715 25.107-25.105zm-.837 254.4l.837-169.878c0-14.226-10.88-25.105-25.107-25.105s-25.108 10.88-25.108 25.105l-.837 169.878c0 14.226 10.88 25.105 25.108 25.105 13.4 0 25.107-10.88 25.107-25.105zm-4.185 899.597l4.185-806.71c0-14.226-10.88-25.105-25.107-25.105s-25.108 10.88-25.108 25.105l-4.185 806.71c0 14.23 10.88 25.1 25.108 25.1 13.39 0 25.107-11.72 25.107-25.1zm94.572-1020.102v-4.184c0-14.226-10.88-25.105-25.107-25.105s-25.108 10.88-25.108 25.105v4.184c0 14.226 10.88 25.105 25.108 25.105 13.39 0 25.107-10.88 25.107-25.105zM229.37 1733.96l5.02-994.166c0-14.226-10.88-25.105-25.107-25.105s-25.108 10.88-25.108 25.105l-5.02 994.166c0 14.22 10.88 25.1 25.107 25.1 13.39 0 25.108-10.88 25.108-25.1zM323.94 186.645v-6.694c0-14.226-10.88-25.105-25.108-25.105s-25.107 11.715-25.107 25.105v6.694c0 14.227 10.88 25.105 25.107 25.105 13.39 0 25.108-11.715 25.108-25.105zm-.837 208.373l.837-135.568c0-14.226-10.88-25.105-25.108-25.105s-25.107 10.88-25.107 25.105l-.837 135.568c0 14.226 10.88 25.105 25.107 25.105 13.39.837 25.108-10.88 25.108-25.105zm-.837 344.776l.837-264.44c0-14.226-10.88-25.105-25.108-25.105s-25.107 10.88-25.107 25.105l-.837 264.44c0 14.226 10.88 25.105 25.107 25.105 13.39 0 25.108-10.88 25.108-25.105zM318.082 1785l3.348-956.5c0-14.227-10.88-25.105-25.108-25.105s-25.107 10.878-25.107 25.105L267.03 1785c0 14.23 10.88 25.1 25.108 25.1s25.944-10.88 25.944-25.1zm92.898-788.298l1.674-441.85c0-14.226-10.88-25.105-25.108-25.105s-25.107 10.88-25.107 25.105l-1.674 441.85c0 14.228 10.88 25.108 25.107 25.108 13.39 0 25.108-10.88 25.108-25.108zm-4.185 840.188l.837-272.8c0-14.23-10.88-25.1-25.107-25.1s-25.108 10.88-25.108 25.1l-.837 272.8c0 14.22 10.88 25.1 25.108 25.1s25.107-11.7 25.107-25.1zm94.572-1365.72v-6.695c0-14.226-10.88-25.105-25.107-25.105s-25.108 10.88-25.108 25.105v6.695c0 14.226 10.88 25.105 25.108 25.105s25.107-11.716 25.107-25.105zm0 140.588v-56.905c0-14.226-10.88-25.105-25.107-25.105s-25.108 10.88-25.108 25.105v56.905c0 14.226 10.88 25.105 25.108 25.105 13.4 0 25.107-10.88 25.107-25.105zm-1.674 384.944l.837-311.303c0-14.226-10.88-25.105-25.107-25.105-13.39 0-25.108 10.88-25.108 25.105l-.837 311.303c0 14.228 10.88 25.108 25.108 25.108 13.4 0 25.107-10.88 25.107-25.108zm-3.347 892.908l1.673-326.37c0-14.23-10.88-25.1-25.107-25.1-13.39 0-25.108 10.87-25.108 25.1l-1.674 326.37c0 14.22 10.88 25.1 25.108 25.1 13.39 0 25.108-10.88 25.108-25.1zm91.224-714.66l2.5-698.76c0-14.226-10.88-25.105-25.107-25.105s-25.108 10.88-25.108 25.105l-2.5 698.76c0 14.22 10.88 25.1 25.107 25.1s25.108-11.7 25.108-25.1zm-2.51 764.03l2.51-538.92c0-14.23-10.88-25.1-25.108-25.1s-25.107 10.88-25.107 25.1l-2.51 538.92c0 14.23 10.88 25.1 25.107 25.1 13.39.83 25.108-10.88 25.108-25.1zM679.63 33.505v-7.532c0-14.226-10.88-25.105-25.108-25.105s-25.107 11.716-25.107 25.105v7.532c0 14.226 10.88 25.105 25.107 25.105 13.39 0 25.108-10.88 25.108-25.105zm-.837 256.072l.837-159.835c0-14.227-10.88-25.105-25.108-25.105s-25.107 11.715-25.107 25.105l-.837 159.835c0 14.226 10.88 25.105 25.107 25.105 13.39.837 25.108-10.88 25.108-25.105zm-2.51 885.374l2.51-790.812c0-14.226-10.88-25.105-25.108-25.105s-25.107 11.716-25.107 25.105l-2.51 790.812c0 14.22 10.88 25.1 25.107 25.1 13.39 0 25.108-11.7 25.108-25.1zm-2.51 815.9l1.674-589.97c0-14.22-10.88-25.1-25.107-25.1s-25.108 11.7-25.108 25.1l-1.674 589.97c0 14.23 10.88 25.1 25.108 25.1 13.4 0 25.107-11.72 25.107-25.1zm92.06-815.9l2.51-653.57c0-14.226-10.88-25.105-25.108-25.105s-25.107 10.88-25.107 25.105l-2.51 653.57c0 14.22 10.88 25.1 25.108 25.1 13.4 0 25.107-11.7 25.107-25.1zm-3.348 764.03l2.51-538.92c0-14.23-10.88-25.1-25.107-25.1s-25.108 10.88-25.108 25.1l-2.51 538.92c0 14.23 10.88 25.1 25.108 25.1 14.228.83 25.107-10.88 25.107-25.1zm92.898-942.278l1.674-399.17c0-14.227-10.88-25.105-25.107-25.105s-25.108 10.878-25.108 25.105l-1.674 399.17c0 14.228 10.88 25.108 25.108 25.108s25.107-10.88 25.107-25.108zm-3.347 891.228l1.674-324.7c0-14.23-10.88-25.1-25.108-25.1s-25.108 10.87-25.108 25.1l-1.673 324.7c0 14.23 10.88 25.1 25.107 25.1 13.39 0 25.108-10.88 25.108-25.1zM940.75 400.04v-12.553c0-14.226-11.717-25.105-25.108-25.105-14.227 0-25.107 11.716-25.107 25.105v12.553c0 14.226 11.717 25.105 25.107 25.105s25.108-11.716 25.108-25.105zm0 253.56V492.927c0-14.226-11.717-25.105-25.108-25.105-14.227 0-25.107 11.716-25.107 25.105V653.6c0 14.226 11.717 25.105 25.107 25.105s25.108-10.88 25.108-25.105zm0 343.102V744.815c0-14.226-11.717-25.105-25.108-25.105-14.227 0-25.107 11.716-25.107 25.105v251.887c0 14.228 11.717 25.108 25.107 25.108s25.108-10.88 25.108-25.108zm0 840.188v-272.8c0-14.23-11.717-25.1-25.108-25.1-14.227 0-25.107 11.72-25.107 25.1v272.8c0 14.22 11.717 25.1 25.107 25.1s25.108-11.7 25.108-25.1zm88.71-39.34l5.86-1492.074c0-14.226-10.88-25.105-25.1-25.105-14.224 0-25.104 10.88-25.104 25.105l-5.86 1492.074c0 14.23 10.88 25.1 25.103 25.1 13.4 0 25.1-10.88 25.1-25.1zm94.57-1295.417v-8.37c0-14.226-10.88-25.105-25.1-25.105-14.23 0-25.1 10.88-25.1 25.105v8.37c0 14.226 10.88 25.105 25.1 25.105 14.22 0 25.1-11.716 25.1-25.105zm-.83 162.345v-77.825c0-14.226-10.88-25.105-25.1-25.105s-25.1 10.88-25.1 25.105v77.825c0 14.227 10.88 25.106 25.1 25.106s25.1-11.716 25.1-25.106zm-5.02 1069.482l4.18-989.145c0-14.226-10.88-25.105-25.1-25.105s-25.1 10.88-25.1 25.105l-4.2 989.145c0 14.22 10.88 25.1 25.1 25.1s25.1-10.88 25.1-25.1zm89.55-51.9V656.947c0-14.226-11.72-25.105-25.1-25.105s-25.1 11.716-25.1 25.105V1681.23c0 14.23 11.72 25.1 25.1 25.1s25.1-10.88 25.1-24.27zm88.7-1036v-8.37c0-14.226-11.72-25.105-25.1-25.105s-25.1 11.716-25.1 25.105v8.37c0 14.226 11.72 25.105 25.1 25.105s25.1-10.88 25.1-25.105zm0 143.098V738.12c0-14.226-11.72-25.105-25.1-25.105s-25.1 11.716-25.1 25.105v51.047c0 14.226 11.72 25.105 25.1 25.105s25.1-10.88 25.1-25.105zm0 841.023V888.75c0-14.226-11.72-25.105-25.1-25.105s-25.1 11.716-25.1 25.105v741.44c0 14.22 11.72 25.1 25.1 25.1s25.1-10.88 25.1-25.1z" fill="url(#A)"/><defs><linearGradient id="A" x1=".664" y1="1008.49" x2="1296.34" y2="1008.49" gradientUnits="userSpaceOnUse"><stop stop-color="#ee4651"/><stop offset="1" stop-color="#f68d2e"/></linearGradient></defs></svg>
