<?xml version="1.0"?>
<svg xmlns="http://www.w3.org/2000/svg" viewBox="0 0 666.75 769.22" width="60" height="40"><title>Stormcraft Studios</title><g id="&#x421;&#x43B;&#x43E;&#x439;_2" data-name="&#x421;&#x43B;&#x43E;&#x439; 2"><g id="&#x421;&#x43B;&#x43E;&#x439;_1-2" data-name="&#x421;&#x43B;&#x43E;&#x439; 1"><path d="M228.89,253.93v5.15c9.47-5.41,18.3-10.58,27.26-15.51,2.8-1.54,3.86-3.28,3.84-6.59-.16-26.82,0-53.65-.21-80.47,0-4.49,1.16-5.46,5.51-5.44q68.47.25,136.94,0c4.47,0,5.47,1.15,5.44,5.51-.22,26.82-.13,53.64-.07,80.47,0,1.68-.88,3.73,1.24,5l29.73,17.13v-6.25q0-87.71,0-175.43c0-6.14,1.88-13.45-.8-18.1s-10-6.64-15.27-9.74c-4.77-2.79-9.58-5.51-14.92-8.58,0,30.47,0,59.95.06,89.43,0,3.56-.37,5.18-4.71,5.17q-69.22-.28-138.44,0c-3.78,0-4.69-1-4.67-4.7.16-28,.09-56,.09-84V41c-9.59,5.53-18.24,10.74-27.12,15.53-3.09,1.67-4,3.62-4,7Q229,158.72,228.89,253.93Z"/><path d="M278,120.59q55.75-.21,111.5,0c3.6,0,4.33-1.06,4.32-4.45q-.21-39.75,0-79.5c0-3-1.11-4.44-3.5-5.74-5.54-3-10.93-6.34-16.47-9.35-3.54-1.92-6.73-4.61-11.18-5.79V94.06c-3.18-1.84-5.74-3.7-8.59-4.88-4-1.66-5-4.31-4.95-8.51.22-22.83,0-45.67.2-68.5,0-3.66-1.45-5.31-4.18-7.47-7.87-6.26-15-6.28-22.88,0-2.72,2.18-4.18,3.84-4.15,7.49.19,23.16.11,46.33.06,69.5,0,1.73.86,3.9-1,5.09-3.94,2.49-8,4.76-12.56,7.42v-79c-10.25,5.89-19.68,11.39-29.2,16.73-2.18,1.22-1.65,3-1.65,4.74,0,26.5,0,53-.1,79.5C273.62,119.61,274.43,120.6,278,120.59Z"/><path d="M61,196.63c40.33,0,80.66,0,121,.12,3.55,0,4.38-1,4.35-4.42q-.23-33.75,0-67.49c0-3.66-.78-4.78-4.64-4.77q-73.24.21-146.49,0c-3.06,0-4.49,1.19-6.3,3.52-6.23,8-7.27,15.51-.27,23.76,2.12,2.5,3.7,3.9,7.11,3.89,36.66-.13,73.33-.08,110-.08,8.53,0,8.31,0,8.6,8.74.13,3.94-1,4.87-4.89,4.85-35-.16-70-.09-105-.09H38.85c6.16,10.65,12,20.66,17.71,30.72C57.71,197.43,59.47,196.63,61,196.63Z"/><path d="M611.07,195.11c5.6-10,11.39-19.81,17.54-30.44H521.68c-8.5,0-8.29,0-8.54-8.59-.12-3.9.93-5,4.93-5,34.83.16,69.66.09,104.49.09,14.45,0,14.45,0,21.25-12.87.08-.15.18-.28.25-.43,1.57-3.2-6.09-17.28-9.63-17.71a8.55,8.55,0,0,0-1,0q-74.24,0-148.49,0c-2.71,0-3.79.58-3.78,3.56q.17,34.75,0,69.49c0,2.91.9,3.57,3.67,3.56q61.24-.13,122.49-.07C608.74,196.66,610.06,196.91,611.07,195.11Z"/><path d="M209.29,480.57q60.7,34.9,121.31,70c1,.57,2,1,3.18,1.6.92-.49,1.79-.93,2.64-1.42q7.78-4.46,15.55-8.94,52.87-30.53,105.78-61c3.11-1.78,3.35-3,1.47-5.95-4.49-7-8.81-14.1-12.77-21.41-1.93-3.56-3.58-3.41-6.7-1.6C405.85,471.5,371.84,491,338,510.71c-3.17,1.84-5.39,1.77-8.5,0-34-19.77-68.2-39.34-102.25-59.1-2.93-1.7-4.22-1.65-6,1.49-4.18,7.56-8.7,14.94-13.34,22.22C206.23,477.93,206.69,479.08,209.29,480.57Z"/><path d="M273.72,369.15v4.71c9.36-5.39,17.9-10.49,26.62-15.25,3.14-1.71,4.34-3.64,4.31-7.34-.19-27.48,0-55-.2-82.45,0-3.51,1.17-5.33,4.08-6.93q11.13-6.12,22-12.73c2.26-1.37,3.94-1.56,6.29-.12,7.22,4.42,14.51,8.76,22,12.72,3.28,1.73,4.19,3.78,4.17,7.37-.16,27.48-.1,55-.07,82.45,0,2.05-.6,4.19,2,5.63,9.52,5.33,18.93,10.87,29,16.69,0-41.27,0-81.57.06-121.88,0-2.36-.87-3.49-2.82-4.59-9.68-5.48-19.71-10.49-28.78-16.87-8-5.65-14.92-6.28-22.33.2-4,3.51-8,3.8-12.3.21-2.27-1.88-5.28-2.83-7.7-4.55s-4.45-1.72-7.13-.12Q295.13,236.89,277.06,247c-2.74,1.53-3.41,3.3-3.41,6.27Q273.81,311.19,273.72,369.15Z"/><path d="M335.46,708.55c2.41.1,3.14-.77,3.13-3.15-.06-29.16,0-58.32-.1-87.48,0-7-3.29-10-10.25-10.06-25.66-.06-51.31,0-77.73,0a41,41,0,0,0,2.45,4.53c3.62,4.92,4.42,10.39,4.35,16.42-.24,22.16-.14,44.32-.06,66.48,0,4.28-1.91,10.12.89,12.43,2.62,2.16,8.26.47,12.53.87,3.91.37,5-.87,5-4.88-.2-25.16-.1-50.32-.1-75.48,0-8.46,0-8.29,8.27-8.45,3.48-.07,4.58.9,4.47,4.43-.25,8-.08,16-.08,24,0,18.66.09,37.32-.08,56,0,3.49.92,4.72,4.44,4.41a56.15,56.15,0,0,1,10.48,0c4,.4,4.95-1,4.92-4.9-.18-26.33-.1-52.65-.07-79,0-1.45-.77-3.65.52-4.23,3.23-1.45,6.91-.89,10.27-.44,2.73.37,1.45,3.3,1.45,5q.13,39.49,0,79c0,3.35.64,4.86,4.33,4.52A82.42,82.42,0,0,1,335.46,708.55Z"/><path d="M344.62,271.74c-7.15.33-14.34.31-21.49,0-3.86-.16-5,.85-5,4.88q.21,87.74,0,175.49c0,3.31,1.39,4.71,3.81,6.66,7.93,6.39,15.2,6.77,23.31.18,2.77-2.25,4.07-4,4.05-7.54-.15-29-.08-58-.08-87,0-29.33-.07-58.66.08-88C349.33,272.73,348.44,271.56,344.62,271.74Z"/><path d="M231.43,406.43c9.24,5.2,18.41,10.54,28.27,16.21V257.06c-10.17,5.91-19.86,11.56-29.57,17.17-1.71,1-1.22,2.57-1.22,4q0,61.69-.06,123.39C228.84,403.84,229.4,405.29,231.43,406.43Z"/><path d="M438.6,402.11q-.1-62.19-.05-124.39c0-1.29.26-2.63-1.23-3.49-9.71-5.61-19.4-11.26-29.58-17.17V422.64c9.86-5.67,19-11,28.26-16.22A4.4,4.4,0,0,0,438.6,402.11Z"/><path d="M183,106.56c2.79,0,3.32-1.06,3.29-3.51-.11-8-.12-16,0-24,0-2.5-.52-3.45-3.27-3.45q-61.73.13-123.45,0c-1.53,0-2.88,0-3.81,1.61C50.37,86.77,44.9,96.21,39,106.5,87.71,106.5,135.35,106.48,183,106.56Z"/><path d="M486.25,106.6c45.65-.16,91.3-.1,136.95-.1h5.24C622.54,96.2,617,86.62,611.56,77c-.94-1.65-2.49-1.35-4-1.35q-61.48,0-123-.07c-3,0-3.54,1.1-3.49,3.75.15,7.33.3,14.67,0,22C480.93,105.43,482,106.62,486.25,106.6Z"/><path d="M523.36,607.91c-12-.26-24,0-36-.12-2.32,0-3.23.6-3.23,3.06q.09,47.2,0,94.4c0,2.69,1,3.42,3.49,3.3a88,88,0,0,1,11.48,0c3.41.28,4.2-1,4.15-4.19-.17-10.32-.08-20.64,0-31,0-1.76-.51-3.68,1.32-5,3.53-2.63,7-5.33,11.32-8.61v5.85c0,13,.08,26-.06,39,0,3,.6,4.23,3.83,4a76,76,0,0,1,11.48,0c3.23.25,3.82-1,3.81-4-.1-28.3,0-56.61-.08-84.91C534.85,611.68,531.51,608.09,523.36,607.91Zm-20.14,42.85c0-9.72,0-19.12,0-28.51,0-2,1-2.32,2.77-2.47,9.94-.79,9-.74,10.17,9.13C517.35,639.63,512.92,646,503.22,650.76Z"/><path d="M176.62,704.63c-.15-14-.07-28-.07-42q0-20.23,0-40.46c0-10.67-3.56-14.28-14.42-14.36-10.66-.08-21.32.15-32-.11-3.69-.09-4.74.8-4.71,4.62.18,27,.38,53.95-.08,80.91a15.07,15.07,0,0,0,14.89,15.24c10.82-.07,21.65-.14,32.47.06C175.87,708.63,176.66,707.67,176.62,704.63Zm-23.18-9.7c-8.88-.21-8.89,0-8.89-8.76v-29c0-11,.14-22-.08-33-.07-3.49.87-4.5,4.4-4.42,8.85.19,8.85,0,8.85,8.84,0,20.67-.09,41.33.09,62C157.84,694.1,156.94,695,153.44,694.93Z"/><path d="M239.37,645.82a6.09,6.09,0,0,0,2.92-5.76c-.2-6.65,0-13.32-.09-20-.11-6.91-4.46-12-11.35-12.12-14.93-.32-29.87-.1-45.46-.1a45.62,45.62,0,0,0,2.34,4.78c3.11,4.76,4,9.88,3.92,15.57-.23,25.31,0,50.62-.18,75.93,0,3.41.76,4.81,4.36,4.43a40.21,40.21,0,0,1,9,0c4.2.51,5.27-1,5.18-5.14-.27-13.74-.1-27.49-.1-42.08,3.91,2.66,7,5,10.43,7,2.78,1.61,3.73,3.58,3.65,6.83-.24,9.82,0,19.65-.16,29.47-.06,3.1.84,4.13,3.93,3.9a61.29,61.29,0,0,1,10.48,0c3.56.35,4.09-1.22,4.06-4.28-.13-12.15-.11-24.31,0-36.46a5.64,5.64,0,0,0-2.75-5.3c-3.72-2.61-10.46-4.46-10.31-8C229.36,651.45,235.61,648.51,239.37,645.82Zm-15.49-7.5a2.62,2.62,0,0,1-1.09,2.56c-4.1,2.68-8.13,5.45-12.91,8.68,0-9.64,0-18.36,0-27.07,0-1.85.55-2.75,2.54-2.68,3,.1,6,.12,8.95,0,2-.08,2.6.72,2.57,2.61C223.84,627.72,223.9,633,223.89,638.32Z"/><path d="M469.28,704.87c-.14-8.83-.76-17.74.13-26.48,1-10-1.41-17.4-11.26-21.28-.15-.06-.26-.21-.41-.29-2.65-1.27-3.09-2.49-.33-4.36,3.3-2.24,6.3-4.91,9.57-7.2a4.86,4.86,0,0,0,2.29-4.56c-.12-6.83.09-13.67-.09-20.5-.18-7.1-4.82-12.18-11.81-12.29-14.79-.25-29.58-.07-44.86-.07,1.61,5.87,6.21,9.61,6.06,15.33-.14,5.33,0,10.66,0,16,0,18.83,0,37.66,0,56.49,0,4.12-1.8,9.46.75,12s7.93.32,12,.85c4.3.56,5.61-.76,5.49-5.3-.35-13.74-.13-27.49-.13-42,3.93,2.69,7,5.14,10.46,7.06,3,1.7,3.85,3.92,3.78,7.26-.21,9.83,0,19.66-.12,29.49,0,2.51.57,3.63,3.32,3.48a97.55,97.55,0,0,1,11.49,0C468.58,708.75,469.33,707.63,469.28,704.87ZM450.9,638a3.07,3.07,0,0,1-1.3,3c-4.11,2.68-8.16,5.44-12.87,8.6,0-9.68,0-18.59,0-27.49,0-1-.11-2.18,1.31-2.21,3.82-.07,7.64-.1,11.45,0,1.72.05,1.37,1.58,1.38,2.67C450.91,627.73,450.88,632.87,450.9,638Z"/><path d="M48.3,662.32c-8.66-5.9-17.12-12.1-25.65-18.18-1.45-1-3.06-1.72-3-4.1.18-5.83,0-11.66.07-17.49,0-1-.28-2.49.89-2.55,3.65-.2,7.53-.74,10.91.24,2.33.68.57,4.17,1,6.36.55,2.64-1.4,5.85,1.41,7.93,5.55,4.12,11.25,8.05,17.59,12.56,0-12.83,0-24.75,0-36.66,0-2.44-1.28-2.6-3.15-2.6-14.83,0-29.66.09-44.48,0-2.74,0-3.36.92-3.28,3.43.16,5.33,0,10.66.05,16,0,6.83-2.07,14.78.74,20.16,2.9,5.53,10.16,9.43,16.29,12.49,12.41,6.19,16.58,15.48,14.7,28.91-.65,4.65-1,6.64-6.25,6.21-6.46-.54-6.49-.13-6.49-6.65,0-2.33-.08-4.67,0-7A3.82,3.82,0,0,0,18,677.57c-5.56-3.85-11-7.84-17.24-12.28,0,13.82.11,26.65-.08,39.48,0,3.19.95,3.86,3.95,3.81,10.49-.19,21,0,31.49-.1,9.75-.11,15.42-5.92,15.47-15.63,0-8-.12-16,.07-24A6.75,6.75,0,0,0,48.3,662.32Z"/><path d="M182,210.1c-17,.14-34,.07-51,.07h-66c5.92,10.27,11.39,19.72,16.78,29.21,1,1.8,2.52,1.82,4.23,1.82,32.14,0,64.28-.06,96.41.06,3.31,0,3.81-1.25,3.75-4.1-.16-7.66-.23-15.32,0-23C186.43,210.73,185.18,210.07,182,210.1Z"/><path d="M601.08,210.27q-58.45-.07-116.89-.15c-2.55,0-3,1.06-3,3.29.09,8.16.14,16.32,0,24.48-.05,2.72,1,3.34,3.49,3.33q48.46-.1,96.91,0a4.34,4.34,0,0,0,4.35-2.49c5.23-9.24,10.59-18.4,15.93-27.64C601.3,210.49,601.19,210.27,601.08,210.27Z"/><path d="M403.23,683.76c-7.91,8.2-16.08,11.44-26.09,10.25-3.47-.41-4.73-.75-4.68-4.63.22-20.83.11-41.65.11-62.48,0-7.06,0-6.74,7.08-7.17,4.7-.29,6,1.26,5.71,5.77-.17,2.77-1.53,6.17,1.33,8.42,5.16,4.07,10.49,7.93,16.54,12.48,0-12.77,0-24.54,0-36.31,0-1.71-.8-2.27-2.45-2.27-17.6,0-35.19,0-53.42,0a24.94,24.94,0,0,0,1.89,4c3.88,5.22,4.45,11.08,4.41,17.41-.17,25,0,50,.07,75,0,2.3-.56,4.46,3.31,4.39,14.33-.24,28.66-.14,43-.05,2.29,0,3.31-.54,3.26-3C403.14,698.89,403.23,692.26,403.23,683.76Z"/><path d="M598.91,608.65c-2.56-2.27-8.53-.78-13-.79-13.75,0-27.5,0-41.15,0-.51,2,.56,3,1.28,4,3.07,4.23,3.84,8.84,3.77,14-.26,17.81-.24,35.63,0,53.44.1,9.35.37,18.61-5,26.88a7,7,0,0,0-.48,2.09H575c-4.7-8.46-7.53-17.14-6.28-26.71a25.14,25.14,0,0,0,0-6.48c-.45-3.38,1-5.57,3.55-7.56,3.94-3.05,7.56-6.52,11.49-9.59,2.31-1.8,3-2.9.13-5-4.42-3.24-8.5-6.94-12.7-10.46-1.25-1-2.52-1.94-2.46-4,.15-5.32,0-10.65.06-16,0-1-.28-2.48.89-2.56,3.48-.22,7.18-.77,10.41.16,2.55.74.76,4.13,1.18,6.29.53,2.77-1.26,6,2,8.22,5.32,3.63,10.53,7.42,16.69,11.8,0-8.87.12-16.67,0-24.47C599.75,617.4,601.9,611.29,598.91,608.65Z"/><path d="M248.86,448.47q41.06,23.57,82,47.3c1.89,1.09,3.29,1.39,5.4.16Q377.42,472,418.7,448.35c1.29-.74,2.59-1.38,2.55-3.29-.09-4.57,0-9.15,0-14.3-2,1.07-3.32,1.71-4.59,2.45-26,15-52.13,30-78.06,45.19-3.68,2.16-6.26,2-9.84-.09-17.58-10.41-35.34-20.52-53-30.73l-29.49-17c0,5.14.13,9.14,0,13.13A4.62,4.62,0,0,0,248.86,448.47Z"/><path d="M215.5,257.48V66.72c-4.21,2.38-7.68,4.6-11.38,6.37-3.25,1.55-4.34,3.63-4.33,7.32.14,50.61.54,101.23-.21,151.83C199.39,245.23,209.51,249.53,215.5,257.48Z"/><path d="M467.61,237.28c-.1-16.81,0-33.63,0-50.45q0-53.44,0-106.88c0-1.58.84-3.63-.82-4.67-4.68-2.93-9.52-5.62-14.76-8.67V258.9c4.93-5.62,8.94-10.41,13.2-15A8.86,8.86,0,0,0,467.61,237.28Z"/><path d="M102.86,703.06c-3.72-5.21-4.86-10.87-4.75-17.31.35-20.16.09-40.33.18-60.5,0-1.78-1.19-4.28,1.27-5.26,2.23-.89,4.1.55,5.85,1.94,4,3.16,8,6.22,12.81,9.9,0-7.79,0-14.56,0-21.33,0-1.8-.5-2.7-2.55-2.7q-27.25.09-54.5,0c-1.57,0-2.51.28-2.49,2.15.06,7.05,0,14.1,0,21.84,5-3.78,9.26-6.88,13.35-10.24C73.93,620.05,76,619.24,78,620c2.23.85,1.13,3.21,1.14,4.87.08,19.33-.29,38.67.21,58,.21,8.17-1.15,15.42-5.94,22-.72,1-1.87,2-1.3,3.26h33.69C104.68,706.17,103.9,704.52,102.86,703.06Z"/><path d="M664.11,607.79c-18,.09-36,0-53.95,0-1.16,0-2.54-.16-2.55,1.54,0,7.17,0,14.34,0,22.31,5-3.81,9.15-6.85,13.14-10.08,1.82-1.48,3.86-2.45,5.92-1.62s1,3.18,1,4.81c.08,19.65-.22,39.3.18,58.94.16,7.77-.92,14.75-5.68,21-.71.93-1.94,2-1.1,3.55h32.8c.1-2.38-1.35-4-2.44-5.49-3.62-5.08-4.76-10.54-4.66-16.8.33-20.31.09-40.63.17-60.94,0-1.68-1.09-4,.91-5s4.09.15,5.89,1.59c4.07,3.26,8.25,6.39,13,10,0-7.62,0-14.26,0-20.9C666.77,608.89,666.52,607.78,664.11,607.79Z"/><path d="M276.26,432.3c8.26,4.6,16.42,9.38,24.56,14.18,2.73,1.61,3.86,1.72,3.81-2.14-.19-14.14-.07-28.28-.07-42.42V371.78c-10.27,5.91-19.83,11.44-29.44,16.9-1.72,1-1.38,2.47-1.39,3.92,0,11.64,0,23.29-.05,34.93C273.66,429.75,274.18,431.14,276.26,432.3Z"/><path d="M388.58,386.48c-7.47-4-14.67-8.43-22-12.6-1-.58-2-1.95-3.43-1.08v75.57c9.52-5.47,18.46-10.72,27.53-15.75a5.29,5.29,0,0,0,3.15-5.45c-.18-10.64-.38-21.31.07-31.93C394.06,390.64,392.33,388.47,388.58,386.48Z"/><path d="M320.91,211.47c12.84,7.86,12.79,7.86,25.63,0,1.93-1.18,2.82-2.4,2.75-4.72-.17-5-.05-10-.05-15a19.21,19.21,0,0,1,0-4c2.41-11.11-2.54-17.64-12.67-21.47-3.72-1.41-17.95,5.49-18.38,9.48a9.32,9.32,0,0,0,0,1c0,10,.07,20-.05,30C318.13,209.07,319,210.29,320.91,211.47Z"/><path d="M393.68,212.41c.12-12.65,0-25.29,0-38.18a6.12,6.12,0,0,0-1.14.17c-7.06,4.05-13.87,8.69-21.26,12-7,3.13-8.31,7.66-8.81,14.94-.74,10.75,2.24,17.52,12.49,21.3C379.32,224.24,393.64,217.07,393.68,212.41Z"/><path d="M275.55,216c12.26,9.1,12.92,9.17,25.83,1.34.14-.09.25-.25.4-.3,2.52-.82,2.89-2.66,2.83-5.07q-.24-8.49,0-17c.07-2.44-.61-3.93-2.84-5.17-9.13-5.1-18.14-10.4-28-16.12,0,13.56,0,26.35,0,39.14A3.57,3.57,0,0,0,275.55,216Z"/><path d="M349.64,733.28c-6.58-1.23-13.26-.33-19.88-.63-2.31-.11-2.23,1.26-2.22,2.84,0,5,0,10,0,15s.1,10,0,15c-.07,2.37.26,3.63,3.14,3.51,5.81-.24,11.64.07,17.44-.18,6.09-.26,10-3.84,10.49-9.9a110.28,110.28,0,0,0,0-15.93C358.25,737.2,355.43,734.36,349.64,733.28ZM337.3,762.9c-2.19-.13-2.9-.71-2.79-2.87.16-3,0-6,0-9q0-1.5,0-3c0-9.49,0-9.49,9.4-9.22,6.14.18,7.67,1.69,7.77,7.72,0,1,0,2,0,3C351.72,762.61,350.49,763.69,337.3,762.9Z"/><path d="M495.72,752.42c0-.66,0-1.33,0-2h-.05a82.37,82.37,0,0,0-.06-8.47c-.41-4-1.79-7.54-6.22-8.67a36.1,36.1,0,0,0-18.21,0c-3.51.91-5,3.58-5.58,6.91a63.34,63.34,0,0,0,.08,20.83c.46,2.72,1.54,5.42,4.27,6.28,7.12,2.24,14.56,3,21.32-.57C497,763.81,495.54,757.64,495.72,752.42Zm-19.48,10.07c-2.23-.17-3.53-1.68-3.67-4-.16-2.64-.33-5.29-.49-7.93h.15c0-1.33,0-2.66,0-4,.09-7.09,1-8,8.11-8,7.24,0,8.31,1,8.38,8.33,0,2-.07,4,0,6C489.14,763,486.07,763.25,476.24,762.49Z"/><path d="M119.76,748.15c-4-.5-7.94-.76-11.88-1.38a4.48,4.48,0,0,1-2.61-7.16c2.22-2.69,11.94-1.78,13,1.51,1.22,3.63,3.83,2,5.72,1.88,2.62-.15,1.53-2.52,1.28-3.93a7.14,7.14,0,0,0-6.61-6.41,50.2,50.2,0,0,0-14.42.11c-5,.78-7.2,4.09-7.07,10.32.12,5.85,2.39,8.92,7.36,9.58,3.46.46,7,.64,10.44.83,2,.11,3.58.69,3.92,3,.31,2,.5,4.37-1.36,5.47-3.16,1.87-6.82.8-10.26.75-2.73,0-2.68-2.25-3.2-4.23-.85-3.2-3.62-1.27-5.49-1.52s-1.75,1.52-1.72,2.82c.11,5.15,3,8.34,8.27,8.86,2.14.21,4.32,0,6.49,0V769a67.61,67.61,0,0,0,7.95-.63c4.86-.94,6.64-4,6.62-10.7C126.22,753,125.46,748.87,119.76,748.15Z"/><path d="M563.71,748.12c-3.76-.65-7.61-.75-11.39-1.3a4.38,4.38,0,0,1-3.07-7c2.07-2.93,12.18-2.44,13.08.92,1.1,4.09,4,2.42,5.94,2.19,2.71-.32,1.37-2.86,1.08-4.4-.66-3.48-3-5.45-6.48-5.94a50.12,50.12,0,0,0-13.92,0c-5.56.78-7.47,3.51-7.4,10.37.06,6.27,2.13,9,7.67,9.64,3.46.42,7,.61,10.43.83,1.91.12,3.21.92,3.44,2.9s.58,4.39-1.35,5.5c-3.17,1.82-6.82.79-10.27.73-2.71,0-2.81-2.25-3.31-4.21-.77-3-3.3-1.34-5-1.55-2.39-.29-1.95,1.73-1.92,3.14.1,4.9,2.57,7.8,7.39,8.49,2.3.33,4.65.27,7.41.4a68.18,68.18,0,0,0,7.53-.54c4.83-.83,7-4.24,7-10.51S569,749,563.71,748.12Z"/><path d="M273.71,732.39c-2.93,0-3.62,1-3.56,3.76.16,7,0,14,.07,21,0,3.7-1.58,5.61-5.35,5.56-1.66,0-3.32,0-5,0-3.72.09-5.46-1.54-5.38-5.41.15-6.82-.06-13.64.09-20.46.06-2.87-.17-4.51-3.87-4.45-3.51.05-3.67,1.64-3.56,4.27.14,3.49,0,7,0,10.48v4c0,16.56,1.85,18.35,18.29,17.75,9.13-.33,11.89-3,12-12.1.11-6.82-.15-13.65.1-20.46C277.75,733.12,276.73,732.37,273.71,732.39Z"/><path d="M197.67,732.62c-7.65.14-15.3.1-22.94,0-2.07,0-3,.47-2.89,2.77.13,1.92-.1,3.35,2.72,3.52,8,.47,8,.64,8,8.58q0,3.24,0,6.48c0,4,.2,8-.06,12-.22,3.21,1.65,2.89,3.72,2.91s3.75.1,3.6-3c-.29-6-.11-12-.07-18,0-2.81-.78-6.2.5-8.26s4.92-.69,7.49-.72,2.5-1.41,2.53-3.21S200.15,732.58,197.67,732.62Z"/><path d="M411.61,732.58c-2.54,0-3.87.3-3.8,3.43.21,9.78.19,19.57,0,29.35-.05,2.95,1,3.51,3.69,3.59,3,.09,3.54-1.09,3.44-3.73-.18-4.8-.05-9.62-.05-14.43,0-5-.16-10,.06-14.92C415.08,733.18,414.17,732.53,411.61,732.58Z"/></g></g></svg>
