<?xml version="1.0"?>
<svg xmlns="http://www.w3.org/2000/svg" width="60" height="40" fill="none" viewBox="0 0 2381 2381"><g clip-path="url(#A)"><path d="M1190.83 2358.03c-643.638 0-1167.865-523.57-1167.865-1167.86 0-644.3 523.57-1167.87 1167.865-1167.87S2358.7 545.87 2358.7 1190.17c0 644.3-524.22 1167.86-1167.86 1167.86z" fill="#fff"/><path d="M1190.83 45.927c305.74 0 593.12 118.755 809.63 335.27 215.86 215.858 335.27 503.888 335.27 809.634 0 305.74-118.76 593.12-335.27 809.63s-503.9 335.27-809.63 335.27c-305.746 0-593.776-119.4-809.634-335.93-216.514-215.85-335.27-503.88-335.27-808.97s118.755-593.776 335.27-809.634c215.858-216.514 503.888-335.27 809.634-335.27zm0-45.927C532.756 0 0 532.756 0 1190.83s532.756 1190.83 1190.83 1190.83 1190.83-532.76 1190.83-1190.83S1848.24 0 1190.83 0z" fill="#6e6e6e"/><path d="M761.086 1285.97c-21.65-19.7-66.266-30.84-107.6-30.84H553.102v209.3s26.244 14.43 36.085 15.74c66.267 11.16 129.9 6.56 152.872-4.6 31.493-16.4 52.5-47.24 52.5-85.95 1.312-68.9-11.8-83.98-33.462-103.66zM608.2 1110.8c72.17 0 137.782-5.9 137.782-67.58 0-32.8-5.25-58.397-28.87-76.112-20.995-13.778-75.452-37.398-131.22-1.312-16.403 10.498-29.525 32.15-32.806 45.924-5.248 24.94 0 99.08 0 99.08h55.113zm-99.73 944.1c158.778 125.32 352.984 208 564.9 229.64-162.062-125.97-336.585-209.3-490.77-225.7-26.244-2.62-51.176-3.94-74.14-3.94zm1244.62-158.77c-40.68-1.3-278.2 9.18-545.22-49.2-42-9.18-205.36-28.2-303.777-36.74 103.667 23.62 208.637 59.7 317.557 96.45 176.5 60.36 359.54 120.06 538.66 128.6 42 1.97 89.23 0 135.8-3.28 69.55-58.4 131.22-125.97 184.37-199.45-92.5 34.1-213.24 68.23-327.4 63.64zM691.523 1875.8c171.9 43.3 393.007 182.4 555.717 284.1 63.65 40.02 121.38 75.45 177.15 104.32 114.82-24.94 223.08-68.24 320.84-126.63-186.34-12.47-391.7-82.67-565.57-141.72-172.55-58.4-333.296-115.47-488.137-120.07zM1188.2 95.8c-606.243 0-1097 491.422-1097 1097 0 242.75 78.733 466.5 211.922 648.23 67.58-28.22 211.265-81.36 347.735-86.6 179.772-6.56 354.952 17.06 503.232 38.05 250.63 34.78 645.6 127.3 963.82-16.4 106.28-169.27 167.96-368.73 167.96-583.27-.66-605.588-492.08-1097-1097.66-1097zm450.74 394.318l45.27-93.823 20.34 102.352 103.66 14.435-91.85 49.207 19.03 104.32-76.77-70.86-91.85 49.208 44.6-96.448-76.1-70.203 103.66 11.8zM1120.62 333.3l66.92-202.08 66.92 202.08 213.24 1.97-172.56 124.003 65.6 206.017-173.2-124.004-173.2 124.004 65.6-206.017-173.212-123.347 213.892-2.625zm-451.4 165.338l20.34-102.352 45.27 93.823 103.664-12.466-76.764 70.86 44.615 96.448-91.854-49.208-76.764 70.86 19.027-104.32-91.855-49.207 104.32-14.435zM301.145 726.316l57.737-23.62-3.937-62.33 40.022 47.895 58.393-22.96-33.46 52.487 40.68 49.208-60.362-15.1-33.46 52.5-4.593-62.986-61.017-15.1zm673.818 784.044c-32.15 61.67-65.6 93.17-138.438 118.75-64.298 22.3-152.872 22.3-244.07 22.3-106.3 0-238.822-85.3-238.822-85.3V917.243S417.275 793.24 589.83 782.085c179.773-11.8 200.112 8.53 254.568 43.303 64.298 41.335 101.04 107.6 102.353 185.682 1.312 50.52-9.842 71.5-26.245 100.38-13.778 23.62-30.837 39.37-58.393 53.14-1.312.66-1.312 1.97 0 2.63 42 21.65 70.86 40.68 95.135 73.48 24.276 33.46 49.212 92.5 49.212 135.82-1.32 47.23-10.502 93.16-31.497 133.84zm285.407 139.1h-177.15V961.2h-107.6c-30.837-121.38-157.465-180.428-157.465-180.428h759.766s-160.74 72.17-216.5 180.428h-101.04v688.25zm785.35-72.82c-108.25 72.82-265.06 87.26-316.9 87.26-131.88 0-225.7-50.52-295.25-125.97-69.55-75.46-104.32-183.06-104.32-323.46 0-136.47 40.02-243.417 120.72-319.525 80.7-76.764 185.68-114.818 328.7-114.818 110.88 0 162.06 40.022 239.48 91.198l-81.36 150.245c-50.52-46.58-120.07-83.322-190.93-78.073-48.55 3.936-103.66 19.683-159.43 70.203-36.08 32.8-66.92 116.13-66.92 204.05 0 91.85 18.37 162.7 58.4 210.6 35.43 42.64 100.4 74.14 162.72 72.82 62.33-1.3 83.98-7.87 117.44-26.9v-161.4h-106.3v-162.7h293.93v426.47zm-33.46-835.223l-4.6 62.986-33.46-52.5-60.36 15.1 40.68-49.208-33.47-52.488 58.4 22.963 40.02-47.895-3.94 62.33 57.74 23.62-61.02 15.1z" fill="#ce2030"/></g><defs><clipPath id="A"><path fill="#fff" d="M0 0h2381v2381H0z"/></clipPath></defs></svg>
