<?xml version="1.0"?>
<svg xmlns="http://www.w3.org/2000/svg" width="60" height="40" fill="none" viewBox="0 0 204 187"><path d="M119.4.8l3 36.8 26.5-22.4-10.2 39.5 46.1-19.1L155.6 72l47.5 3-43.5 26.5 38.9 15.5-40.8 1.6 17.9 43.1-39.7-24.3 4.1 49.4-28.4-33.5-11.5 32.1-11.7-32.5-27.1 31.6 7.5-46.7-44.3 19.7 28.8-35.6-45.6 4.7L41.6 107 .7 93.5l47.1-8.8-33.2-31.1 37 7.2-16.8-39.1L74.2 49 71 6.8l24.7 33.8L119.4.8z" fill="#f7ce15"/><path d="M103.4 144.2c28.553 0 51.7-21.714 51.7-48.5s-23.147-48.5-51.7-48.5-51.7 21.714-51.7 48.5 23.147 48.5 51.7 48.5z" fill="#fdfefd"/><path d="M66.9 70.9c3-1.2 6.8-1.4 9.5.6 2.4 1.8 3.9 4.5 4.3 7.3.7 3 .1 6-.5 8.9-.2 0-.6-.1-.9-.1.8-4.3.6-9.1-2-12.9-1.2-1.8-3.4-2.7-5.6-3-3.5.1-6.8 1.9-8.6 4.8-.8 1.2-1.4 2.6-2 3.9 0-.9.1-1.8.1-2.7.7-2.9 3-5.3 5.7-6.8zm30.6 1.6c2.2-.9 4.5-1.8 6.9-1.6-.2.8-1.1.9-1.8 1.2-3.4 1.1-6.8 2.5-9.6 4.8-2.7 2.5-5 5.7-5 9.4.2 2.3 1.1 4.8 3.2 6.1 1.2.9 2.8 1.2 4.3 1.3 2.9.2 5.9 0 8.8.2 1.2.8.8 2.6.2 3.7-.2.7-1.1.4-1.6.4.4-.9.5-1.9.4-2.9-2.8 0-5.7 0-8.5-.1s-5.6-1.5-7.1-3.8c-1.4-2.1-1.6-4.7-1.4-7.1 1.2-5.5 6-9.4 11.2-11.6zm25.898 3c2.3-2.3 6-3.1 9.2-2.2 3.5.9 6.2 3.6 7.4 6.8s1.3 6.8 1 10.2c0 .6-.3.9-.9 1.1-.1-4.1-.4-8.3-2.2-12-1.9-3.7-7.1-6.1-11.2-4.1-3.6 2-5.5 5.8-6.6 9.5h-.7c.3-3.4 1.4-6.9 4-9.3zM69.2 78.6c1.4-.5 3.1.1 3.9 1.4 1.4 2.2 1.2 4.9.9 7.4-.5 2.4-1.4 5-3.6 6.5-1.5.6-3.6.4-4.5-1-1.7-2.8-1.4-6.2-.6-9.2.6-2 1.7-4.2 3.9-5.1zm60.3 2.2c1.4 0 3 .8 3.5 2.2 1.5 3.8 1 8.2-1.1 11.8-.9 1.4-2.2 2.8-4.1 2.8-1.5.2-2.6-1.1-3-2.3-1.1-3.2-.6-6.6.5-9.8.7-2 1.8-4.3 4.2-4.7zm12.9 29.8c-2.6-2.2-4.4-5-5.5-8.1-.4-.9-.5-2.2-1.9-2 .3 1.9 1 3.7 1.5 5.6-21.8 4.3-44.4 3.8-66.2-.4l-1.2-.4c1-1.6 2-3.3 2.5-5.1-.3-.2-.5-.4-.8-.6-2 3.7-4.9 6.9-8.6 9.1.2.2.6.7.8.9 1.7-.7 3.1-1.9 4.7-2.7 2.8 4.8 6.4 9.1 10.4 13.1 5.3 5 12.1 9.1 19.6 10.1 1.5.2 3 .1 4.4.4 6 0 12-1.2 17.3-4 7.9-4.2 14-10.9 18.1-18.4 1.6 1.2 2.7 3.4 5 3.5-.1-.2-.1-.6-.1-1zm-22.5 13.5c-5.3 3.2-11.5 4.9-17.8 4.7-7 0-13.7-2.8-19.1-6.8-5.4-3.9-9.6-9-13-14.6 1.7.2 3.4.6 5.1.9 9 1.7 18.2 2.8 27.5 2.6 11.1.2 22.1-.9 32.9-2.9-3.7 6.5-9 12.2-15.6 16.1z" fill="#010101"/></svg>
