<?xml version="1.0" encoding="utf-8"?>
<!-- Generator: Adobe Illustrator 19.0.0, SVG Export Plug-In . SVG Version: 6.00 Build 0)  -->
<svg xmlns="http://www.w3.org/2000/svg" xmlns:xlink="http://www.w3.org/1999/xlink" version="1.1" id="Слой_1" x="0px" y="0px" viewBox="0 0 698.5 152.5" style="enable-background:new 0 0 698.5 152.5;" xml:space="preserve" width="60" height="40">
<style type="text/css">
	.st0{fill:#121212;}
	.st1{fill:#00629F;}
</style>
<g id="wms">
	<path id="XMLID_606_" class="st0" d="M684.4,76.1c-26-17.5-97.3-22.4-97.6-35.4c-0.3-13.5,13.2-14.3,21.7-14.3   c25.8,0,23.9,20.6,23.9,20.6h61c0-47.4-55-47-82.9-47c-56.6,0-77.9,12.1-84.9,29.2V4h-45.2h-12.3h-37.4l-30.2,96.9L369.5,4H329   h-13.1h-35h-5.4h-50.3l-20.1,90.4L178.2,4h-21h-32.7h-16L80.7,97L61.4,4H0l35,144.2h30.5h25.9h22.8l26.7-89.4l26.7,89.4h25.7h28   h25.7L275.5,27v121.2H329V41.1l37.9,107.1h18.8h29.8h11.8l40.7-110.7v110.7h57.5v-20.7c8.2,14.6,29.6,25,84.9,25   c65.7,0,87.9-21.6,87.9-47.9C698.4,104.6,700.5,86.9,684.4,76.1z M609.5,125.5c-29.7-0.5-25.7-24-25.7-24h-58.2V60.6   c17.8,35.6,108.5,27.7,108.5,49.1C634.1,117.1,627.3,125.8,609.5,125.5z"/>
	<path id="XMLID_663_" class="st1" d="M684.4,76.1c-26-17.5-97.3-22.4-97.6-35.4c-0.3-13.5,13.2-14.3,21.7-14.3   c25.8,0,23.9,20.6,23.9,20.6h61c0-47.4-55-47-82.9-47c-56.6,0-77.9,12.1-84.9,29.2V4h-45.2h-12.3h-37.4l-14.3,45.8l44,8.5l7.7-20.8   v22.3l57.5,11.1V60.6c2.4,4.9,6.3,9,11,12.4l161.8,31.2C698.6,101.9,699.2,86.1,684.4,76.1z"/>
	<polygon id="XMLID_666_" class="st1" points="315.9,4 280.9,4 275.5,4 225.2,4 223.3,12.5 382.1,43.2 369.5,4 329,4  "/>
</g>
</svg>
