<svg width="623" height="246" viewBox="0 0 623 246" fill="none" xmlns="http://www.w3.org/2000/svg">
<path d="M566.742 74.434C572.407 68.7272 575.012 61.1939 574.444 53.6606L581.353 60.6231L595.057 74.434C602.872 82.3098 602.872 95.0934 595.057 102.969L561.987 136.298C554.172 144.174 541.486 144.174 533.672 136.298C525.857 128.422 525.857 115.638 533.672 107.763L566.742 74.434Z" fill="#FF4200"/>
<path d="M561.987 41.105C569.802 48.9807 569.802 61.7643 561.987 69.6402L547.827 83.9076L533.672 69.6402C525.857 61.7643 525.857 48.9807 533.672 41.105C541.486 33.2293 554.172 33.2293 561.987 41.105Z" fill="#8F00FF"/>
<path d="M96.9418 61.7648C78.4805 61.7648 63.5304 76.8309 63.5304 95.436C63.5304 114.041 78.5936 129.107 96.9418 129.107C115.29 129.107 130.353 114.041 130.353 95.436C130.353 76.8309 115.403 61.7648 96.9418 61.7648ZM96.9418 115.638C85.8422 115.638 76.895 106.622 76.895 95.436C76.895 84.2502 85.9558 75.2331 96.9418 75.2331C107.928 75.2331 116.989 84.2502 116.989 95.436C116.989 106.622 108.041 115.638 96.9418 115.638ZM333.428 61.7648C325.953 61.7648 318.931 64.2756 313.381 68.4989V48.2961C313.381 44.5294 310.436 41.5618 306.699 41.5618H300.016V129.107H313.381V122.373C318.931 126.596 325.953 129.107 333.428 129.107C351.889 129.107 366.84 114.041 366.84 95.436C366.84 76.8309 351.889 61.7648 333.428 61.7648ZM333.428 115.638C322.328 115.638 313.381 106.622 313.381 95.436C313.381 84.2502 322.328 75.2331 333.428 75.2331C344.527 75.2331 353.475 84.2502 353.475 95.436C353.475 106.622 344.527 115.638 333.428 115.638ZM272.041 61.7648H285.406V125.112C285.406 143.603 270.908 159.012 252.56 159.354C233.873 159.697 218.582 144.516 218.582 125.683H226.058C229.116 125.683 231.721 127.738 232.514 130.705C234.779 139.608 242.934 146.114 252.56 145.886C263.434 145.543 272.041 136.298 272.041 125.226V115.525C266.378 119.748 259.356 122.259 251.768 122.259C233.306 122.145 218.582 106.622 218.582 88.0167V61.7648H225.265C229.002 61.7648 231.947 64.7321 231.947 68.4989V88.2449C231.947 99.2024 240.442 108.562 251.428 108.904C262.754 109.247 272.041 100.002 272.041 88.7018V61.7648ZM206.577 95.436V129.107H199.895C196.157 129.107 193.212 126.139 193.212 122.373V95.436C193.212 84.2502 184.265 75.2331 173.166 75.2331C162.066 75.2331 153.118 84.2502 153.118 95.436V129.107H139.754V61.7648H153.118V68.4989C158.668 64.2756 165.69 61.7648 173.166 61.7648C191.627 61.7648 206.577 76.8309 206.577 95.436ZM55.6022 115.638V129.107C37.1409 129.107 22.1904 114.041 22.1904 95.436V48.2961H28.8729C32.6103 48.2961 35.555 51.2637 35.555 55.0302V61.7648H55.6022V75.2331H35.555V95.436C35.555 106.507 44.5026 115.638 55.6022 115.638ZM464.354 75.2331V95.436C464.354 106.622 473.304 115.638 484.404 115.638V129.107C465.941 129.107 450.992 114.041 450.992 95.436V48.2961H457.675C461.411 48.2961 464.354 51.2637 464.354 55.0302V61.7648H484.404V75.2331H464.354ZM440.685 100.115C440.91 98.632 441.023 97.0338 441.023 95.436C441.023 76.3744 425.394 61.0796 406.366 61.7648C389.038 62.4495 374.994 76.6026 374.315 94.0661C373.635 113.242 388.812 128.993 407.727 128.993C418.598 128.993 428.228 123.743 434.231 115.753L430.153 113.356C426.187 111.073 421.202 110.959 417.128 113.128C413.843 114.954 409.99 115.867 405.915 115.41C397.306 114.612 390.171 108.334 388.133 100.002H440.685V100.115ZM409.652 75.3474C417.354 76.1461 423.924 81.5108 426.412 88.7018H388.699C391.643 80.2551 400.024 74.3201 409.652 75.3474Z" fill="white"/>
<path d="M48.1758 167.208C50.4219 167.208 52.6582 167.501 54.8848 168.087C57.1309 168.653 59.1426 169.454 60.9199 170.489L58.1953 176.847C56.5156 176.046 54.9629 175.47 53.5371 175.118C52.1309 174.747 50.7051 174.562 49.2598 174.562C45.2168 174.562 42.1406 175.782 40.0312 178.224C37.9414 180.665 36.8965 184.21 36.8965 188.858C36.8965 193.585 37.9414 197.169 40.0312 199.61C42.1406 202.032 45.2168 203.243 49.2598 203.243C52.3848 203.243 55.6465 202.53 59.0449 201.104L61.2715 207.813C56.877 209.767 52.4727 210.743 48.0586 210.743C41.418 210.743 36.3301 208.878 32.7949 205.147C29.2598 201.397 27.4922 196.026 27.4922 189.034C27.4922 184.522 28.3125 180.626 29.9531 177.345C31.5938 174.063 33.957 171.554 37.043 169.815C40.1484 168.077 43.8594 167.208 48.1758 167.208Z" fill="#FF4200"/>
<path d="M123.67 199.347L120.213 210.274H111.19L124.989 167.735H137.118L151.268 210.274H142.391L138.787 199.347H123.67ZM130.936 175.587L125.721 192.579H136.707L131.346 175.587H130.936Z" fill="#FF4200"/>
<path d="M218.237 167.208C221.753 167.188 225.708 167.96 230.102 169.522L228.257 176.554C224.175 175.108 220.854 174.386 218.296 174.386C216.225 174.386 214.595 174.796 213.403 175.616C212.212 176.437 211.616 177.55 211.616 178.956C211.616 180.479 212.163 181.69 213.257 182.589C214.37 183.487 216.391 184.317 219.321 185.079C223.637 186.192 226.704 187.735 228.52 189.708C230.337 191.661 231.245 194.356 231.245 197.794C231.245 201.954 229.839 205.147 227.026 207.374C224.233 209.581 220.239 210.685 215.044 210.685C210.805 210.685 206.264 209.728 201.421 207.813L203.589 200.987C206.264 201.944 208.452 202.618 210.151 203.009C211.85 203.38 213.462 203.565 214.985 203.565C217.192 203.565 218.891 203.097 220.083 202.159C221.294 201.202 221.899 199.884 221.899 198.204C221.899 197.13 221.645 196.231 221.137 195.509C220.63 194.786 219.77 194.142 218.559 193.575C217.348 192.989 215.6 192.413 213.315 191.847C209.507 190.929 206.723 189.503 204.966 187.569C203.208 185.636 202.329 183.087 202.329 179.923C202.329 175.88 203.716 172.755 206.489 170.548C209.282 168.321 213.198 167.208 218.237 167.208Z" fill="#FF4200"/>
<path d="M286.554 167.735H295.724V210.274H286.554V167.735Z" fill="#FF4200"/>
<path d="M368.962 191.437C367.556 189.444 365.359 185.899 362.371 180.802V210.274H354.021V167.735H361.287L374.236 186.222C375.877 188.546 378.162 192.14 381.091 197.003V167.735H389.47V210.274H382.146L368.962 191.437Z" fill="#FF4200"/>
<path d="M465.492 167.12C472.094 167.12 477.143 168.995 480.639 172.745C484.135 176.476 485.883 181.827 485.883 188.8C485.883 195.929 484.145 201.378 480.668 205.147C477.191 208.917 472.133 210.802 465.492 210.802C458.812 210.802 453.744 208.927 450.287 205.177C446.83 201.407 445.102 195.948 445.102 188.8C445.102 181.847 446.85 176.495 450.346 172.745C453.842 168.995 458.891 167.12 465.492 167.12ZM465.492 174.327C461.859 174.327 459.125 175.548 457.289 177.989C455.473 180.431 454.564 184.034 454.564 188.8C454.564 193.644 455.482 197.325 457.318 199.845C459.174 202.364 461.898 203.624 465.492 203.624C469.086 203.624 471.801 202.364 473.637 199.845C475.492 197.325 476.42 193.644 476.42 188.8C476.42 184.073 475.492 180.479 473.637 178.019C471.801 175.558 469.086 174.327 465.492 174.327Z" fill="#FF4200"/>
</svg>
