<?xml version="1.0"?>
<svg xmlns="http://www.w3.org/2000/svg" viewBox="0 0 1824.4 498.35" width="120" height="120"><defs><style>.cls-1{fill:#fe0089;}.cls-2{fill:#6961fe;}.cls-3{fill:#fdb700;}.cls-4{fill:#2cdd78;}.cls-5{fill:#6c66db;}.cls-6{fill:#5881d3;}.cls-7{fill:#7a9485;}.cls-8{fill:#cd9d60;}.cls-9{fill:#6c66dd;}.cls-10{fill:#ca9b62;}.cls-11{fill:#6c67db;}</style></defs><title>zaza-logo</title><g id="&#x421;&#x43B;&#x43E;&#x439;_2" data-name="&#x421;&#x43B;&#x43E;&#x439; 2"><g id="&#x421;&#x43B;&#x43E;&#x439;_1-2" data-name="&#x421;&#x43B;&#x43E;&#x439; 1"><path class="cls-1" d="M394.7,4.84c23.21,7.89,41.25,22.12,52.86,43.89a89.65,89.65,0,0,1-11.74,101.66q-70.24,80-140.72,159.81c-1.63,1.86-3.22,3.75-4.9,5.71,1.68,1.49,3.4.83,4.93.84,22.66.1,45.33.48,68,.09,25.35-.44,47.41,7.39,66.28,24.29,8.73,6.08,14.12,14.9,19,24a84.93,84.93,0,0,1,10.41,44.63c-.94,21.13-8,40.28-22.08,56.48a26.24,26.24,0,0,1-4.93,4.16c-18.7,18.25-41.08,26.86-67.25,26.69-59.49-.37-119-.12-178.48-.6-26.15-.21-52.32.49-78.46-.86-3.44-.18-6.92.85-10.4,1.16C48.83,501.07,4.84,464.15.52,415.7c-2.31-25.93,5-48.81,22.06-68.32q68.88-78.55,138.06-156.84c2.5-2.84,5-5.7,8.27-9.48H162.6c-24.83,0-49.67.19-74.49-.09-44.87-.51-83.27-36.2-87.64-79.72C-4.43,52.37,29.37,10.93,72.84,2.56A151.92,151.92,0,0,1,101.89,0h223C342,0,359.2.07,376.37.11c3.72,1.14,7.74,1.1,11.33,2.81a.84.84,0,0,0,.8.14c1.21,1,3-.31,4.11,1.09l0,0C393.24,4.46,394.05,4.39,394.7,4.84Z"/><path class="cls-2" d="M1315.26,470.16c-15.76,15.58-34.51,24.71-56.74,26.36-25.47-.2-50.94-.07-76.42-.08q-105.39,0-210.78,0a47.69,47.69,0,0,0-5.49.11c-21.46-1.76-40-9.89-55.3-25.2-.83-2.23.95-3.35,2.06-4.7A97.82,97.82,0,0,0,932,429.85c6.59-24.19,2.53-46.78-9.21-68.37Q918,352.71,913.16,344c-.73-1.31-1.59-2.62-.57-4.17l0,.12a1.94,1.94,0,0,0,1-1.22c11.47-13.18,22.9-26.4,34.43-39.52Q998.3,242,1048.66,184.8c.84-1,2.07-1.69,2.26-3.75h-5.29c-24.32,0-48.64.13-73,0-42.53-.3-77.9-28.83-87.48-70.34C873.9,61.76,906.45,12,955.77,2.81c1.63-.31,3.26-.65,4.89-1,1.49-1.38,3.75-.39,5.25-1.72h291.63c1.48,1.37,3.73.36,5.23,1.69q54,8.81,73.43,59.93a18.87,18.87,0,0,1,.61,2.9c3,10.59,3.71,21.4,3.43,32.36-.1,4-1.66,7.81-1,11.83-3.27,18.33-12.77,33.24-24.93,47q-68.91,77.78-137.44,155.9c-1.32,1.5-3.92,2.57-3.18,5.4,1.76.78,3.61.39,5.42.39,20.3,0,40.61.34,60.9-.08,15.43-.32,30.45,1.2,45,6.48,10.57,3.43,19.2,10,27.48,17.08,2,.23,3.22,1.66,4.43,3,12,13.43,20.42,28.79,23.6,46.57a86.83,86.83,0,0,1-.79,36.08c-3.83,15.83-10.73,30-22.16,41.86C1316.93,469.16,1316.39,470.08,1315.26,470.16Z"/><path class="cls-3" d="M1658.81,460.74c-35.61-60.87-69-123-104.61-185-3.82,6.79-7.31,12.93-10.74,19.1-29.24,52.67-57.9,105.68-87.85,157.94-29.4,51.29-98.71,58.76-139,18.82-1.39-2.73,1-3.88,2.34-5.37,9.58-10.52,15.78-22.82,19.43-36.49,7.22-30.25,1.13-57.38-18.71-81.47-2.13-2.59-5.21-4.63-6-8.22,7.05-14.51,15.35-28.35,23.15-42.45q66.93-121,133.92-241.93c6.49-11.75,13.4-23,23.59-31.92,1.62-1.41,3.42-2.61,5.14-3.91,10.15-7,20.82-12.83,33-15.52,6.1-1.35,12.19-2.76,18.27-4.17h12.77c3.38,1,6.84,1.65,10.18,2.78,31.18,7.1,51.44,26.82,66.33,54.43,24.64,45.7,50.58,90.69,76,136,.73,1.3,1.63,2.49,2.44,3.74,6.08,9.69,11.44,19.8,17.07,29.74,9.4,16.59,18.7,33.24,28.07,49.85q10.63,18.84,21.11,37.77c9.82,17.69,20.12,35.11,29.44,53.07,4.38,8.45,6.63,17.53,8.31,27,3.35,18.88-.63,36.38-8.81,53s-20.52,30-37.48,38.54a6.56,6.56,0,0,1-2.38,1.08c-.35.19-.72.37-1.08.53a13.67,13.67,0,0,0-1.62.77,6.32,6.32,0,0,1-1.12.55,7.9,7.9,0,0,0-2.31,1.4,88,88,0,0,1-47.17,6.55,89.41,89.41,0,0,1-46.4-20C1668.29,472.13,1662.65,467.31,1658.81,460.74Z"/><path class="cls-4" d="M689.69,2.89C718.85,10.14,738.62,28,753,54.35c51,93.38,102.92,186.26,154.49,279.33,1.21,2.18,2.34,4.41,3.5,6.62,10.93,18,21.86,35.78,23.88,57.65,2.29,24.93-4.6,46.71-19.88,66.14-1.82,2.32-3.21,5.11-6,6.52-16.29,15.78-35.66,25.35-58.37,26.12-37.51,1.27-66-14.83-84.3-47.61-30.89-55.19-61.35-110.62-92-165.93-1.1-2-1.85-4.24-4.08-6-8.88,16-17.68,31.82-26.45,47.64-23.49,42.36-46.6,84.92-70.54,127-28.38,49.91-96.26,60.45-137.46,21.86-.84-.79-1.55-1.72-2.32-2.58-.2-4.69,4.13-6.51,6.36-9.54,15-20.39,21.08-43,17.36-68a86.42,86.42,0,0,0-25-49.77c-1-1-2.42-2-1.61-3.8,9-16.48,18-33,27.09-49.43C500.76,212.76,544.16,135,586.92,57c9.39-17.14,20-32.54,37-42.83,6-3.64,12.46-6.24,18.86-9,5.78-1.62,11.39-3.92,17.49-4.19,2.83-.31,5.79.74,8.49-.84h3.92c2.67,1.56,5.6.53,8.41.83C684.21.38,686.78,2.41,689.69,2.89Z"/><path class="cls-3" d="M1658.81,460.74c9.53,11.22,20.25,21,33.82,27.16,25.18,11.42,50.54,12.39,76,1,.58-.56,1.48-.4,2.09-.89h0c.47-.7,1.43-.5,2-1.06h0c.55-.63,1.47-.46,2.08-1,32.55-16.56,51.57-53.26,47.22-89.62-2-16.72-9.43-31-17.46-45.2Q1762.15,276,1720,200.68a36.37,36.37,0,0,1-1.56-3.64c4,2.17,4.76,6.59,6.74,10.07,14.18,24.92,28.17,49.94,42.19,74.95,13.58,24.21,27,48.48,40.74,72.62,5.5,9.69,11,19.36,13.38,30.34,2.42,11.31,4.07,22.5,1.84,34.38-2.54,13.56-6.81,26.12-14.24,37.59-9.42,14.54-22.33,25.13-37.89,32.7-16.15,7.86-33.37,9.86-50.79,8-17.06-1.79-32.53-8.58-46-19.51-5.29-4.3-10.53-8.64-14.45-14.33C1659.34,462.91,1658.58,462,1658.81,460.74Z"/><path class="cls-5" d="M965.84,496.55c1.69-1.07,3.58-.57,5.37-.57q141,0,281.94,0c1.79,0,3.67-.49,5.38.55-2.65.15-5.3.42-8,.42q-138.39,0-276.78,0C971.14,496.94,968.49,496.68,965.84,496.55Z"/><path class="cls-6" d="M909,470.61c7.24-9.3,14.57-18.49,18.93-29.71,11.19-28.79,8.15-56.2-7.28-82.62-3.43-5.87-6.43-12-9.62-18l1.61-.5c3.78,7,7.51,14,11.35,21,8.79,15.9,13.83,33,12.49,51.07-1.62,21.9-9.62,41.55-24.87,57.83a9.49,9.49,0,0,0-1,1.69Z"/><path class="cls-7" d="M430.54,340.05c2.06,4.49,6.18,7.28,9.16,11,26.8,33.94,25.36,84-3.57,116-1.12,1.24-2.32,2.4-2.7,4.1l-1.6-.81c5.89-7.77,12.09-15.24,16.5-24.13,16.33-32.94,10.07-74.42-15.58-100.86-1.25-1.29-2.89-2.31-3.35-4.24Z"/><path class="cls-8" d="M1313.67,340c10.09,10.93,18.75,22.81,23.49,37.08,5.8,17.47,7.22,35.16,1.62,53a2.65,2.65,0,0,1-.1-3.21c4.47-25.25,1.06-49-13.72-70.45-3.76-5.45-8.27-10.38-12.44-15.55Z"/><path class="cls-9" d="M1285,323.84c-3,.78-5.42-1.15-8.08-1.89a112.13,112.13,0,0,0-31.3-4.07c-22.24.24-44.48.09-66.71,0-1.75,0-3.68.63-5.22-.87,27.81,0,55.63-.28,83.43.11A62.74,62.74,0,0,1,1285,323.84Z"/><path class="cls-10" d="M1338.68,426.92q0,1.6.1,3.2c-2.91,13.41-9.47,25-18.1,35.44-1.54,1.87-4,3.13-4,6l-1.39-1.43c1.53-3.62,4.76-5.91,7-9,7.41-10,13-20.81,15.57-33C1338,427.69,1338.4,427.32,1338.68,426.92Z"/><path class="cls-11" d="M1339.27,108.8c-.15-.29-.45-.61-.42-.88,1.75-14.55.68-29-2-43.3C1342.07,79.1,1342,93.88,1339.27,108.8Z"/><path class="cls-6" d="M913.57,338.69l-1,1.22Z"/><path class="cls-3" d="M1774.8,486a2,2,0,0,1-2.08,1A1.76,1.76,0,0,1,1774.8,486Z"/><path class="cls-3" d="M1772.73,487a2,2,0,0,1-2,1.06A1.66,1.66,0,0,1,1772.73,487Z"/><path class="cls-3" d="M1770.77,488a1.9,1.9,0,0,1-2.09.89A1.86,1.86,0,0,1,1770.77,488Z"/></g></g></svg>
